G04*
G04 #@! TF.GenerationSoftware,Altium Limited,Altium Designer,21.2.1 (34)*
G04*
G04 Layer_Color=255*
%FSLAX25Y25*%
%MOIN*%
G70*
G04*
G04 #@! TF.SameCoordinates,E3247584-B976-4F33-B0A2-C8B4A793FEE3*
G04*
G04*
G04 #@! TF.FilePolarity,Positive*
G04*
G01*
G75*
%ADD74C,0.08661*%
%ADD75R,0.08268X0.08268*%
%ADD76C,0.08268*%
%ADD77C,0.06693*%
%ADD78R,0.06693X0.06693*%
%ADD79R,0.06693X0.06693*%
%ADD80R,0.05512X0.05512*%
%ADD81C,0.05512*%
%ADD82R,0.11201X0.05598*%
%ADD83O,0.11201X0.05598*%
%ADD94C,0.00394*%
D74*
X9500Y113500D02*
D03*
X222500Y55500D02*
D03*
X237000Y402000D02*
D03*
X140000Y122500D02*
D03*
X211000Y285500D02*
D03*
X145000Y649000D02*
D03*
D75*
X6551Y287000D02*
D03*
X347949Y206500D02*
D03*
X347449Y302000D02*
D03*
X7102Y206000D02*
D03*
D76*
X75449Y287000D02*
D03*
X279051Y206500D02*
D03*
X278551Y302000D02*
D03*
X76000Y206000D02*
D03*
D77*
X280500Y577500D02*
D03*
Y567500D02*
D03*
X290500Y577500D02*
D03*
Y567500D02*
D03*
X280500Y537500D02*
D03*
X290500D02*
D03*
X280500Y527500D02*
D03*
X290500D02*
D03*
X280500Y507500D02*
D03*
X290500Y517500D02*
D03*
X280500D02*
D03*
X290500Y547500D02*
D03*
X280500D02*
D03*
X290500Y557500D02*
D03*
X280500D02*
D03*
X56842Y527500D02*
D03*
X46843D02*
D03*
X56842Y537500D02*
D03*
X46843D02*
D03*
X56842Y557500D02*
D03*
X46843Y547500D02*
D03*
X56842D02*
D03*
X46843Y517500D02*
D03*
Y507500D02*
D03*
X56842Y517500D02*
D03*
Y507500D02*
D03*
X347500Y527000D02*
D03*
Y537000D02*
D03*
Y547000D02*
D03*
Y567000D02*
D03*
Y577000D02*
D03*
Y597000D02*
D03*
Y617000D02*
D03*
Y627000D02*
D03*
Y607000D02*
D03*
Y587000D02*
D03*
Y557000D02*
D03*
X310500Y339024D02*
D03*
Y329024D02*
D03*
X300500D02*
D03*
X106976Y566500D02*
D03*
X116976D02*
D03*
X153500Y185000D02*
D03*
X239843Y25968D02*
D03*
X249843Y15968D02*
D03*
Y25968D02*
D03*
X259842Y15968D02*
D03*
Y25968D02*
D03*
X269843Y15968D02*
D03*
X279842D02*
D03*
X269843Y25968D02*
D03*
X279842D02*
D03*
X97000Y533500D02*
D03*
X107000D02*
D03*
X105476Y671500D02*
D03*
X133976D02*
D03*
X162976D02*
D03*
X280500Y663500D02*
D03*
Y653500D02*
D03*
X290500Y663500D02*
D03*
Y653500D02*
D03*
X280500Y623500D02*
D03*
X290500D02*
D03*
X280500Y613500D02*
D03*
X290500D02*
D03*
X280500Y593500D02*
D03*
X290500Y603500D02*
D03*
X280500D02*
D03*
X290500Y633500D02*
D03*
X280500D02*
D03*
X290500Y643500D02*
D03*
X280500D02*
D03*
X109476Y645500D02*
D03*
X99476D02*
D03*
X106976Y611500D02*
D03*
X116976D02*
D03*
X106976Y593500D02*
D03*
X116976D02*
D03*
X11000Y572000D02*
D03*
X9000Y523524D02*
D03*
X187500Y92000D02*
D03*
X212300Y185500D02*
D03*
X171500Y185000D02*
D03*
D78*
X290500Y507500D02*
D03*
X46843Y557500D02*
D03*
X96976Y566500D02*
D03*
X143500Y185000D02*
D03*
X117000Y533500D02*
D03*
X95476Y671500D02*
D03*
X123976D02*
D03*
X152976D02*
D03*
X290500Y593500D02*
D03*
X119476Y645500D02*
D03*
X96976Y611500D02*
D03*
Y593500D02*
D03*
X21000Y572000D02*
D03*
X19000Y523524D02*
D03*
X202300Y185500D02*
D03*
X181500Y185000D02*
D03*
D79*
X347500Y637000D02*
D03*
X300500Y339024D02*
D03*
X239843Y15968D02*
D03*
X187500Y102000D02*
D03*
D80*
X39843Y366500D02*
D03*
D81*
X20157D02*
D03*
D82*
X73842Y557500D02*
D03*
X263843Y593500D02*
D03*
Y507500D02*
D03*
X73842Y647500D02*
D03*
D83*
X263843Y683500D02*
D03*
Y673500D02*
D03*
Y663500D02*
D03*
Y653500D02*
D03*
Y643500D02*
D03*
Y633500D02*
D03*
Y623500D02*
D03*
Y613500D02*
D03*
Y603500D02*
D03*
Y577500D02*
D03*
Y567500D02*
D03*
Y557500D02*
D03*
Y547500D02*
D03*
Y537500D02*
D03*
Y527500D02*
D03*
Y517500D02*
D03*
X73842Y507500D02*
D03*
Y517500D02*
D03*
Y527500D02*
D03*
Y537500D02*
D03*
Y547500D02*
D03*
Y637500D02*
D03*
Y617500D02*
D03*
Y607500D02*
D03*
Y627500D02*
D03*
Y597500D02*
D03*
Y587500D02*
D03*
Y577500D02*
D03*
D94*
X88000Y447536D02*
D03*
Y449465D02*
D03*
X117000Y441964D02*
D03*
Y440035D02*
D03*
M02*
