G04*
G04 #@! TF.GenerationSoftware,Altium Limited,Altium Designer,21.2.1 (34)*
G04*
G04 Layer_Color=16711935*
%FSLAX25Y25*%
%MOIN*%
G70*
G04*
G04 #@! TF.SameCoordinates,E3247584-B976-4F33-B0A2-C8B4A793FEE3*
G04*
G04*
G04 #@! TF.FilePolarity,Positive*
G04*
G01*
G75*
%ADD10C,0.01181*%
%ADD12C,0.00787*%
%ADD96C,0.00394*%
%ADD97C,0.00591*%
G36*
X802257Y-101229D02*
X794257Y-101501D01*
X784223Y-102585D01*
X774325Y-104484D01*
X768630Y-105975D01*
X761579Y-108280D01*
X756426Y-110179D01*
X754935Y-110856D01*
X754799Y-109365D01*
X753986Y-107738D01*
X753308Y-106924D01*
X757240Y-105568D01*
X765104Y-103534D01*
X773918Y-102043D01*
X781918Y-101229D01*
X786392Y-100958D01*
X799274D01*
X802257Y-101229D01*
D02*
G37*
G36*
X751545Y-107331D02*
X752630Y-108145D01*
X753308Y-109229D01*
X753579Y-110179D01*
X753443Y-112348D01*
X752630Y-113704D01*
X751816Y-114518D01*
X750053Y-115196D01*
X748155Y-115060D01*
X746799Y-114382D01*
X745850Y-113433D01*
X745308Y-112348D01*
Y-109636D01*
X746392Y-107873D01*
X747613Y-107060D01*
X748426Y-106789D01*
X750325D01*
X751545Y-107331D01*
D02*
G37*
G36*
X781782Y-113433D02*
X782460Y-113840D01*
X782053Y-115467D01*
X781375Y-117094D01*
X780426Y-116551D01*
X778935D01*
X778528Y-116823D01*
X777986Y-118043D01*
Y-121975D01*
X781647D01*
X780969Y-125501D01*
X777986D01*
Y-142314D01*
X773918D01*
Y-125501D01*
X772562D01*
Y-121975D01*
X773918D01*
Y-117229D01*
X774731Y-115060D01*
X775680Y-113840D01*
X777308Y-113026D01*
X779884Y-112891D01*
X781782Y-113433D01*
D02*
G37*
G36*
X788426Y-114653D02*
X789104Y-115602D01*
X789104Y-117636D01*
X788291Y-118721D01*
X787613Y-119128D01*
X785579D01*
X784359Y-118179D01*
X783952Y-117365D01*
X784087Y-115602D01*
X785036Y-114382D01*
X785986Y-113975D01*
X787206D01*
X788426Y-114653D01*
D02*
G37*
G36*
X819477Y-122111D02*
X821104Y-123602D01*
X822053Y-125229D01*
X822731Y-127670D01*
X823003Y-133229D01*
X813918D01*
X814189Y-136348D01*
X814731Y-137704D01*
X815681Y-138653D01*
X816630Y-139060D01*
X818664Y-138924D01*
X820426Y-137840D01*
X820969Y-137162D01*
X821240D01*
X822189Y-138789D01*
X822731Y-140145D01*
X821647Y-141229D01*
X820155Y-142179D01*
X818528Y-142721D01*
X815409D01*
X813511Y-141907D01*
X812020Y-140687D01*
X810528Y-138111D01*
X809850Y-135399D01*
Y-128619D01*
X810528Y-126043D01*
X811341Y-124416D01*
X812969Y-122518D01*
X814053Y-121840D01*
X815545Y-121433D01*
X816230D01*
Y-124901D01*
X815545Y-124958D01*
X815003Y-125365D01*
X814325Y-126721D01*
X813918Y-129975D01*
X818935D01*
X818664Y-126721D01*
X818257Y-125772D01*
X817850Y-125229D01*
X817036Y-124823D01*
X816241Y-124901D01*
Y-121433D01*
X817443D01*
X819477Y-122111D01*
D02*
G37*
G36*
X846460Y-123602D02*
X848087Y-122382D01*
X849172Y-121840D01*
X851613Y-121568D01*
X853240Y-122111D01*
X854460Y-123196D01*
X855002Y-124416D01*
X855138Y-142314D01*
X851206D01*
X851070Y-126585D01*
X850392Y-125636D01*
X848630D01*
X846731Y-127128D01*
Y-142314D01*
X842664D01*
X842528Y-124009D01*
X842257Y-122382D01*
X845918Y-121433D01*
X846460Y-123602D01*
D02*
G37*
G36*
X797240Y-122789D02*
X797375Y-123602D01*
X798731Y-122518D01*
X800087Y-121840D01*
X802528Y-121568D01*
X804155Y-122111D01*
X805240Y-123060D01*
X805918Y-124551D01*
X806053Y-142314D01*
X802121D01*
X801986Y-126721D01*
X801443Y-125772D01*
X800901Y-125501D01*
X799545Y-125636D01*
X798189Y-126585D01*
X797511Y-127399D01*
Y-142314D01*
X793579D01*
X793443Y-124280D01*
X793172Y-122518D01*
X794528Y-121975D01*
X796833Y-121433D01*
X797240Y-122789D01*
D02*
G37*
G36*
X788697Y-142314D02*
X784630D01*
Y-122111D01*
X788697Y-121568D01*
Y-142314D01*
D02*
G37*
G36*
X759952Y-123738D02*
X760494Y-123060D01*
X762257Y-121975D01*
X763884Y-121568D01*
X765104D01*
X766731Y-122111D01*
X767816Y-123060D01*
X768223Y-123738D01*
X768630Y-125365D01*
Y-142314D01*
X764698D01*
X764562Y-126721D01*
X764019Y-125772D01*
X763477Y-125501D01*
X762121Y-125636D01*
X760765Y-126585D01*
X760087Y-127263D01*
Y-142314D01*
X756155D01*
X756019Y-124416D01*
X755613Y-122382D01*
X759409Y-121433D01*
X759952Y-123738D01*
D02*
G37*
G36*
X751545Y-142314D02*
X747477D01*
Y-118314D01*
X751545Y-117907D01*
Y-142314D01*
D02*
G37*
G36*
X835477Y-122111D02*
X837104Y-123467D01*
X838325Y-125365D01*
X839138Y-127806D01*
X839409Y-129568D01*
X839274Y-135535D01*
X838325Y-138789D01*
X837782Y-139670D01*
X836426Y-141501D01*
X834935Y-142450D01*
X833308Y-142857D01*
X832175Y-142797D01*
X830731Y-142721D01*
X828833Y-141772D01*
X827613Y-140551D01*
X826799Y-139196D01*
X825986Y-136755D01*
X825579Y-134179D01*
X825714Y-128891D01*
X826528Y-125907D01*
X827206Y-124551D01*
X828562Y-122789D01*
X830053Y-121840D01*
X831545Y-121433D01*
X833443D01*
X835477Y-122111D01*
D02*
G37*
G36*
X744087Y-112619D02*
X744630Y-113840D01*
X745443Y-115060D01*
X745986Y-115331D01*
X745850Y-115738D01*
X745172Y-116009D01*
X741511Y-118721D01*
X739748Y-120212D01*
X738528Y-121433D01*
X737714Y-122382D01*
X735952Y-124958D01*
X734867Y-127399D01*
X734460Y-129162D01*
X734731Y-132958D01*
X735409Y-135263D01*
X736087Y-136890D01*
X737036Y-138518D01*
X737986Y-139874D01*
X738935Y-141094D01*
X740291Y-142585D01*
X742189Y-144212D01*
X744494Y-145975D01*
X746392Y-147195D01*
X749511Y-148958D01*
X752630Y-150450D01*
X755206Y-151534D01*
X759681Y-153162D01*
X764426Y-154518D01*
X767681Y-155331D01*
X772291Y-156280D01*
X781104Y-157636D01*
X788291Y-158314D01*
X792810Y-158591D01*
X802121Y-158789D01*
X807952Y-158856D01*
X819884Y-158179D01*
X830189Y-156958D01*
X839138Y-155331D01*
X846731Y-153433D01*
X852969Y-151399D01*
X858528Y-149094D01*
X861918Y-147331D01*
X866121Y-144619D01*
X868291Y-142857D01*
X868697Y-142721D01*
X868562Y-143263D01*
X867748Y-144077D01*
X866392Y-145162D01*
X864765Y-146382D01*
X861511Y-148551D01*
X857850Y-150585D01*
X853511Y-152890D01*
X849714Y-154518D01*
X841308Y-157501D01*
X832494Y-159806D01*
X824630Y-161297D01*
X816358Y-162382D01*
X806731Y-163060D01*
X789647Y-162924D01*
X779477Y-162111D01*
X770799Y-160890D01*
X763342Y-159399D01*
X755748Y-157365D01*
X749511Y-155195D01*
X744494Y-153026D01*
X741647Y-151534D01*
X738664Y-149772D01*
X736494Y-148280D01*
X735206Y-147263D01*
X733104Y-145568D01*
X731206Y-143670D01*
X729986Y-142179D01*
X728901Y-140551D01*
X727274Y-137297D01*
X726596Y-134856D01*
Y-129433D01*
X727680Y-125907D01*
X728901Y-123602D01*
X731070Y-120619D01*
X734460Y-117094D01*
X737986Y-114382D01*
X741918Y-111941D01*
X743816Y-110992D01*
X744087Y-112619D01*
D02*
G37*
%LPC*%
G36*
X832901Y-125094D02*
X831680Y-125229D01*
X830731Y-126043D01*
X830189Y-127399D01*
X829782Y-131060D01*
X830053Y-136213D01*
X830596Y-137840D01*
X831680Y-139060D01*
X832223D01*
X832901Y-139196D01*
X833850Y-138653D01*
X834392Y-137840D01*
X834935Y-135941D01*
Y-128077D01*
X834257Y-126179D01*
X833579Y-125365D01*
X832901Y-125094D01*
D02*
G37*
%LPD*%
D10*
X1068268Y-106452D02*
Y-118261D01*
X1075015D01*
X1076309Y-113762D02*
X1083057D01*
Y-112637D01*
X1082494Y-111513D01*
X1081932Y-110951D01*
X1080807Y-110388D01*
X1079120D01*
X1077996Y-110951D01*
X1076871Y-112075D01*
X1076309Y-113762D01*
Y-114887D01*
X1076871Y-116574D01*
X1077996Y-117698D01*
X1079120Y-118261D01*
X1080807D01*
X1081932Y-117698D01*
X1083057Y-116574D01*
X1092334Y-110388D02*
Y-118261D01*
Y-112075D02*
X1091210Y-110951D01*
X1090085Y-110388D01*
X1088398D01*
X1087274Y-110951D01*
X1086149Y-112075D01*
X1085587Y-113762D01*
Y-114887D01*
X1086149Y-116574D01*
X1087274Y-117698D01*
X1088398Y-118261D01*
X1090085D01*
X1091210Y-117698D01*
X1092334Y-116574D01*
X1095483Y-110388D02*
Y-118261D01*
Y-113762D02*
X1096046Y-112075D01*
X1097170Y-110951D01*
X1098295Y-110388D01*
X1099982D01*
X1101050D02*
Y-118261D01*
Y-112637D02*
X1102737Y-110951D01*
X1103862Y-110388D01*
X1105549D01*
X1106673Y-110951D01*
X1107236Y-112637D01*
Y-118261D01*
X1111453Y-106452D02*
X1112015Y-107014D01*
X1112578Y-106452D01*
X1112015Y-105890D01*
X1111453Y-106452D01*
X1112015Y-110388D02*
Y-118261D01*
X1114658Y-110388D02*
Y-118261D01*
Y-112637D02*
X1116345Y-110951D01*
X1117470Y-110388D01*
X1119157D01*
X1120281Y-110951D01*
X1120844Y-112637D01*
Y-118261D01*
X1130684Y-110388D02*
Y-119385D01*
X1130122Y-121072D01*
X1129559Y-121634D01*
X1128435Y-122197D01*
X1126748D01*
X1125623Y-121634D01*
X1130684Y-112075D02*
X1129559Y-110951D01*
X1128435Y-110388D01*
X1126748D01*
X1125623Y-110951D01*
X1124499Y-112075D01*
X1123936Y-113762D01*
Y-114887D01*
X1124499Y-116574D01*
X1125623Y-117698D01*
X1126748Y-118261D01*
X1128435D01*
X1129559Y-117698D01*
X1130684Y-116574D01*
X1143111Y-112637D02*
X1148172D01*
X1149859Y-112075D01*
X1150421Y-111513D01*
X1150983Y-110388D01*
Y-108701D01*
X1150421Y-107577D01*
X1149859Y-107014D01*
X1148172Y-106452D01*
X1143111D01*
Y-118261D01*
X1153626Y-106452D02*
Y-118261D01*
X1162848Y-110388D02*
Y-118261D01*
Y-112075D02*
X1161724Y-110951D01*
X1160599Y-110388D01*
X1158912D01*
X1157787Y-110951D01*
X1156663Y-112075D01*
X1156100Y-113762D01*
Y-114887D01*
X1156663Y-116574D01*
X1157787Y-117698D01*
X1158912Y-118261D01*
X1160599D01*
X1161724Y-117698D01*
X1162848Y-116574D01*
X1167684Y-106452D02*
Y-116011D01*
X1168246Y-117698D01*
X1169371Y-118261D01*
X1170496D01*
X1165997Y-110388D02*
X1169933D01*
X1176681Y-106452D02*
X1175556D01*
X1174432Y-107014D01*
X1173869Y-108701D01*
Y-118261D01*
X1172182Y-110388D02*
X1176119D01*
X1181179D02*
X1180055Y-110951D01*
X1178930Y-112075D01*
X1178368Y-113762D01*
Y-114887D01*
X1178930Y-116574D01*
X1180055Y-117698D01*
X1181179Y-118261D01*
X1182866D01*
X1183991Y-117698D01*
X1185116Y-116574D01*
X1185678Y-114887D01*
Y-113762D01*
X1185116Y-112075D01*
X1183991Y-110951D01*
X1182866Y-110388D01*
X1181179D01*
X1188264D02*
Y-118261D01*
Y-113762D02*
X1188827Y-112075D01*
X1189951Y-110951D01*
X1191076Y-110388D01*
X1192763D01*
X1193831D02*
Y-118261D01*
Y-112637D02*
X1195518Y-110951D01*
X1196643Y-110388D01*
X1198330D01*
X1199454Y-110951D01*
X1200017Y-112637D01*
Y-118261D01*
Y-112637D02*
X1201704Y-110951D01*
X1202828Y-110388D01*
X1204515D01*
X1205640Y-110951D01*
X1206202Y-112637D01*
Y-118261D01*
X1223690Y-106452D02*
X1222565D01*
X1221441Y-107014D01*
X1220878Y-108701D01*
Y-118261D01*
X1219191Y-110388D02*
X1223128D01*
X1228188D02*
X1227064Y-110951D01*
X1225939Y-112075D01*
X1225377Y-113762D01*
Y-114887D01*
X1225939Y-116574D01*
X1227064Y-117698D01*
X1228188Y-118261D01*
X1229875D01*
X1231000Y-117698D01*
X1232125Y-116574D01*
X1232687Y-114887D01*
Y-113762D01*
X1232125Y-112075D01*
X1231000Y-110951D01*
X1229875Y-110388D01*
X1228188D01*
X1235273D02*
Y-118261D01*
Y-113762D02*
X1235836Y-112075D01*
X1236960Y-110951D01*
X1238085Y-110388D01*
X1239772D01*
X1076140Y-129642D02*
X1075015Y-128518D01*
X1073328Y-127955D01*
X1071079D01*
X1069392Y-128518D01*
X1068268Y-129642D01*
Y-130767D01*
X1068830Y-131892D01*
X1069392Y-132454D01*
X1070517Y-133016D01*
X1073891Y-134141D01*
X1075015Y-134703D01*
X1075578Y-135265D01*
X1076140Y-136390D01*
Y-138077D01*
X1075015Y-139201D01*
X1073328Y-139764D01*
X1071079D01*
X1069392Y-139201D01*
X1068268Y-138077D01*
X1078783Y-131892D02*
X1081032Y-139764D01*
X1083281Y-131892D02*
X1081032Y-139764D01*
X1083281Y-131892D02*
X1085531Y-139764D01*
X1087780Y-131892D02*
X1085531Y-139764D01*
X1091660Y-127955D02*
X1092222Y-128518D01*
X1092784Y-127955D01*
X1092222Y-127393D01*
X1091660Y-127955D01*
X1092222Y-131892D02*
Y-139764D01*
X1096552Y-127955D02*
Y-137515D01*
X1097114Y-139201D01*
X1098239Y-139764D01*
X1099363D01*
X1094865Y-131892D02*
X1098801D01*
X1107798Y-133578D02*
X1106673Y-132454D01*
X1105549Y-131892D01*
X1103862D01*
X1102737Y-132454D01*
X1101613Y-133578D01*
X1101050Y-135265D01*
Y-136390D01*
X1101613Y-138077D01*
X1102737Y-139201D01*
X1103862Y-139764D01*
X1105549D01*
X1106673Y-139201D01*
X1107798Y-138077D01*
X1110328Y-127955D02*
Y-139764D01*
Y-134141D02*
X1112015Y-132454D01*
X1113140Y-131892D01*
X1114827D01*
X1115952Y-132454D01*
X1116514Y-134141D01*
Y-139764D01*
X1120731Y-127955D02*
X1121294Y-128518D01*
X1121856Y-127955D01*
X1121294Y-127393D01*
X1120731Y-127955D01*
X1121294Y-131892D02*
Y-139764D01*
X1123936Y-131892D02*
Y-139764D01*
Y-134141D02*
X1125623Y-132454D01*
X1126748Y-131892D01*
X1128435D01*
X1129559Y-132454D01*
X1130122Y-134141D01*
Y-139764D01*
X1139962Y-131892D02*
Y-140888D01*
X1139400Y-142575D01*
X1138838Y-143138D01*
X1137713Y-143700D01*
X1136026D01*
X1134901Y-143138D01*
X1139962Y-133578D02*
X1138838Y-132454D01*
X1137713Y-131892D01*
X1136026D01*
X1134901Y-132454D01*
X1133777Y-133578D01*
X1133214Y-135265D01*
Y-136390D01*
X1133777Y-138077D01*
X1134901Y-139201D01*
X1136026Y-139764D01*
X1137713D01*
X1138838Y-139201D01*
X1139962Y-138077D01*
X1152389Y-127955D02*
Y-139764D01*
Y-127955D02*
X1157450D01*
X1159137Y-128518D01*
X1159699Y-129080D01*
X1160262Y-130204D01*
Y-131329D01*
X1159699Y-132454D01*
X1159137Y-133016D01*
X1157450Y-133578D01*
X1152389D01*
X1156325D02*
X1160262Y-139764D01*
X1162904Y-135265D02*
X1169652D01*
Y-134141D01*
X1169090Y-133016D01*
X1168527Y-132454D01*
X1167403Y-131892D01*
X1165716D01*
X1164591Y-132454D01*
X1163467Y-133578D01*
X1162904Y-135265D01*
Y-136390D01*
X1163467Y-138077D01*
X1164591Y-139201D01*
X1165716Y-139764D01*
X1167403D01*
X1168527Y-139201D01*
X1169652Y-138077D01*
X1178930Y-131892D02*
Y-140888D01*
X1178368Y-142575D01*
X1177806Y-143138D01*
X1176681Y-143700D01*
X1174994D01*
X1173869Y-143138D01*
X1178930Y-133578D02*
X1177806Y-132454D01*
X1176681Y-131892D01*
X1174994D01*
X1173869Y-132454D01*
X1172745Y-133578D01*
X1172182Y-135265D01*
Y-136390D01*
X1172745Y-138077D01*
X1173869Y-139201D01*
X1174994Y-139764D01*
X1176681D01*
X1177806Y-139201D01*
X1178930Y-138077D01*
X1182079Y-131892D02*
Y-137515D01*
X1182641Y-139201D01*
X1183766Y-139764D01*
X1185453D01*
X1186578Y-139201D01*
X1188264Y-137515D01*
Y-131892D02*
Y-139764D01*
X1191357Y-127955D02*
Y-139764D01*
X1200579Y-131892D02*
Y-139764D01*
Y-133578D02*
X1199454Y-132454D01*
X1198330Y-131892D01*
X1196643D01*
X1195518Y-132454D01*
X1194394Y-133578D01*
X1193831Y-135265D01*
Y-136390D01*
X1194394Y-138077D01*
X1195518Y-139201D01*
X1196643Y-139764D01*
X1198330D01*
X1199454Y-139201D01*
X1200579Y-138077D01*
X1205415Y-127955D02*
Y-137515D01*
X1205977Y-139201D01*
X1207102Y-139764D01*
X1208226D01*
X1203728Y-131892D02*
X1207664D01*
X1212725D02*
X1211600Y-132454D01*
X1210476Y-133578D01*
X1209913Y-135265D01*
Y-136390D01*
X1210476Y-138077D01*
X1211600Y-139201D01*
X1212725Y-139764D01*
X1214412D01*
X1215536Y-139201D01*
X1216661Y-138077D01*
X1217223Y-136390D01*
Y-135265D01*
X1216661Y-133578D01*
X1215536Y-132454D01*
X1214412Y-131892D01*
X1212725D01*
X1219810D02*
Y-139764D01*
Y-135265D02*
X1220372Y-133578D01*
X1221497Y-132454D01*
X1222622Y-131892D01*
X1224308D01*
X1231562Y-133578D02*
X1231000Y-132454D01*
X1229313Y-131892D01*
X1227626D01*
X1225939Y-132454D01*
X1225377Y-133578D01*
X1225939Y-134703D01*
X1227064Y-135265D01*
X1229875Y-135828D01*
X1231000Y-136390D01*
X1231562Y-137515D01*
Y-138077D01*
X1231000Y-139201D01*
X1229313Y-139764D01*
X1227626D01*
X1225939Y-139201D01*
X1225377Y-138077D01*
D12*
X765118Y836614D02*
Y856299D01*
X174567Y836614D02*
Y856299D01*
X1335984Y29528D02*
X1355669D01*
X1335984Y305118D02*
X1355669D01*
X1335984Y580709D02*
X1355669D01*
X1158819Y-246063D02*
Y-226378D01*
X961969Y-246063D02*
Y-226378D01*
X765118Y-246063D02*
Y-226378D01*
X568268Y-246063D02*
Y-226378D01*
X371417Y-246063D02*
Y-226378D01*
X174567Y-246063D02*
Y-226378D01*
X-22284Y-246063D02*
Y-226378D01*
X-219134Y29528D02*
X-199449D01*
X-219134Y305118D02*
X-199449D01*
X-219134Y580709D02*
X-199449D01*
X1158819Y836614D02*
Y856299D01*
X961969Y836614D02*
Y856299D01*
X568268Y836614D02*
Y856299D01*
X371417Y836614D02*
Y856299D01*
X-22284Y836614D02*
Y856299D01*
X-199449Y836614D02*
X1335984D01*
Y-226378D02*
Y836614D01*
X-199449Y-226378D02*
X1335984D01*
X-199449Y-226063D02*
Y836614D01*
X-219134Y856299D02*
X1355669D01*
Y-246063D02*
Y856299D01*
X-219134Y-246063D02*
X1355669D01*
X-219134D02*
Y856299D01*
X1035984Y-214567D02*
Y-154567D01*
X1284803Y-214567D02*
Y-155512D01*
X885984Y-214567D02*
Y-96457D01*
X1335984Y-214567D02*
Y-94567D01*
X1035984Y-96457D02*
X1335984D01*
X1035984Y-154567D02*
Y-96457D01*
X885984D02*
X1035984D01*
X885984Y-155512D02*
X1335984D01*
X885984Y-185039D02*
X1335984D01*
X885984Y-214567D02*
X1335984D01*
X885984Y-125984D02*
X1035984D01*
X706063Y-96457D02*
X885984D01*
X706063Y-226378D02*
Y-96457D01*
Y-214567D02*
X885984D01*
X1233622D02*
Y-155512D01*
D96*
X892087Y-220079D02*
G03*
X892087Y-220079I-2362J0D01*
G01*
X895039Y-218842D02*
Y-218617D01*
X895264Y-218167D01*
X895489Y-217943D01*
X895939Y-217718D01*
X896839D01*
X897289Y-217943D01*
X897513Y-218167D01*
X897738Y-218617D01*
Y-219067D01*
X897513Y-219517D01*
X897289Y-219742D01*
X896389Y-220192D01*
Y-220866D01*
Y-221991D02*
X896164Y-222216D01*
X896389Y-222441D01*
X896614Y-222216D01*
X896389Y-221991D01*
X902462Y-217718D02*
Y-222441D01*
X903452Y-219292D02*
Y-222441D01*
Y-220192D02*
X904126Y-219517D01*
X904576Y-219292D01*
X905251D01*
X905701Y-219517D01*
X905926Y-220192D01*
Y-222441D01*
X908962Y-217718D02*
X908512D01*
X908062Y-217943D01*
X907837Y-218617D01*
Y-222441D01*
X907163Y-219292D02*
X908737D01*
X910087Y-217718D02*
X910312Y-217943D01*
X910537Y-217718D01*
X910312Y-217493D01*
X910087Y-217718D01*
X910312Y-219292D02*
Y-222441D01*
X911369Y-219292D02*
Y-222441D01*
Y-220192D02*
X912044Y-219517D01*
X912493Y-219292D01*
X913168D01*
X913618Y-219517D01*
X913843Y-220192D01*
Y-222441D01*
X915080Y-220642D02*
X917779D01*
Y-220192D01*
X917554Y-219742D01*
X917329Y-219517D01*
X916879Y-219292D01*
X916205D01*
X915755Y-219517D01*
X915305Y-219967D01*
X915080Y-220642D01*
Y-221091D01*
X915305Y-221766D01*
X915755Y-222216D01*
X916205Y-222441D01*
X916879D01*
X917329Y-222216D01*
X917779Y-221766D01*
X919916Y-219292D02*
X919466Y-219517D01*
X919016Y-219967D01*
X918791Y-220642D01*
Y-221091D01*
X919016Y-221766D01*
X919466Y-222216D01*
X919916Y-222441D01*
X920591D01*
X921041Y-222216D01*
X921490Y-221766D01*
X921715Y-221091D01*
Y-220642D01*
X921490Y-219967D01*
X921041Y-219517D01*
X920591Y-219292D01*
X919916D01*
X922750D02*
Y-222441D01*
Y-220192D02*
X923425Y-219517D01*
X923875Y-219292D01*
X924549D01*
X924999Y-219517D01*
X925224Y-220192D01*
Y-222441D01*
X931747Y-217718D02*
Y-222441D01*
X930172Y-217718D02*
X933321D01*
X933884Y-220642D02*
X936583D01*
Y-220192D01*
X936358Y-219742D01*
X936133Y-219517D01*
X935683Y-219292D01*
X935008D01*
X934558Y-219517D01*
X934109Y-219967D01*
X933884Y-220642D01*
Y-221091D01*
X934109Y-221766D01*
X934558Y-222216D01*
X935008Y-222441D01*
X935683D01*
X936133Y-222216D01*
X936583Y-221766D01*
X940294Y-219967D02*
X939844Y-219517D01*
X939394Y-219292D01*
X938719D01*
X938270Y-219517D01*
X937820Y-219967D01*
X937595Y-220642D01*
Y-221091D01*
X937820Y-221766D01*
X938270Y-222216D01*
X938719Y-222441D01*
X939394D01*
X939844Y-222216D01*
X940294Y-221766D01*
X941306Y-217718D02*
Y-222441D01*
Y-220192D02*
X941981Y-219517D01*
X942431Y-219292D01*
X943106D01*
X943555Y-219517D01*
X943780Y-220192D01*
Y-222441D01*
X945017Y-219292D02*
Y-222441D01*
Y-220192D02*
X945692Y-219517D01*
X946142Y-219292D01*
X946817D01*
X947267Y-219517D01*
X947492Y-220192D01*
Y-222441D01*
X949853Y-219292D02*
X949403Y-219517D01*
X948954Y-219967D01*
X948729Y-220642D01*
Y-221091D01*
X948954Y-221766D01*
X949403Y-222216D01*
X949853Y-222441D01*
X950528D01*
X950978Y-222216D01*
X951428Y-221766D01*
X951653Y-221091D01*
Y-220642D01*
X951428Y-219967D01*
X950978Y-219517D01*
X950528Y-219292D01*
X949853D01*
X952687Y-217718D02*
Y-222441D01*
X954802Y-219292D02*
X954352Y-219517D01*
X953902Y-219967D01*
X953677Y-220642D01*
Y-221091D01*
X953902Y-221766D01*
X954352Y-222216D01*
X954802Y-222441D01*
X955476D01*
X955926Y-222216D01*
X956376Y-221766D01*
X956601Y-221091D01*
Y-220642D01*
X956376Y-219967D01*
X955926Y-219517D01*
X955476Y-219292D01*
X954802D01*
X960335D02*
Y-222891D01*
X960110Y-223566D01*
X959885Y-223791D01*
X959435Y-224015D01*
X958760D01*
X958310Y-223791D01*
X960335Y-219967D02*
X959885Y-219517D01*
X959435Y-219292D01*
X958760D01*
X958310Y-219517D01*
X957860Y-219967D01*
X957636Y-220642D01*
Y-221091D01*
X957860Y-221766D01*
X958310Y-222216D01*
X958760Y-222441D01*
X959435D01*
X959885Y-222216D01*
X960335Y-221766D01*
X962044Y-217718D02*
X962269Y-217943D01*
X962494Y-217718D01*
X962269Y-217493D01*
X962044Y-217718D01*
X962269Y-219292D02*
Y-222441D01*
X963326Y-220642D02*
X966025D01*
Y-220192D01*
X965800Y-219742D01*
X965575Y-219517D01*
X965126Y-219292D01*
X964451D01*
X964001Y-219517D01*
X963551Y-219967D01*
X963326Y-220642D01*
Y-221091D01*
X963551Y-221766D01*
X964001Y-222216D01*
X964451Y-222441D01*
X965126D01*
X965575Y-222216D01*
X966025Y-221766D01*
X969512Y-219967D02*
X969287Y-219517D01*
X968612Y-219292D01*
X967937D01*
X967262Y-219517D01*
X967037Y-219967D01*
X967262Y-220417D01*
X967712Y-220642D01*
X968837Y-220866D01*
X969287Y-221091D01*
X969512Y-221541D01*
Y-221766D01*
X969287Y-222216D01*
X968612Y-222441D01*
X967937D01*
X967262Y-222216D01*
X967037Y-221766D01*
X977811Y-222441D02*
X976012Y-217718D01*
X974212Y-222441D01*
X974887Y-220866D02*
X977137D01*
X982287Y-218842D02*
X982062Y-218392D01*
X981612Y-217943D01*
X981163Y-217718D01*
X980263D01*
X979813Y-217943D01*
X979363Y-218392D01*
X979138Y-218842D01*
X978913Y-219517D01*
Y-220642D01*
X979138Y-221316D01*
X979363Y-221766D01*
X979813Y-222216D01*
X980263Y-222441D01*
X981163D01*
X981612Y-222216D01*
X982062Y-221766D01*
X982287Y-221316D01*
Y-220642D01*
X981163D02*
X982287D01*
X987303Y-218842D02*
Y-218617D01*
X987528Y-218167D01*
X987753Y-217943D01*
X988203Y-217718D01*
X989102D01*
X989552Y-217943D01*
X989777Y-218167D01*
X990002Y-218617D01*
Y-219067D01*
X989777Y-219517D01*
X989327Y-220192D01*
X987078Y-222441D01*
X990227D01*
X992634Y-217718D02*
X991959Y-217943D01*
X991509Y-218617D01*
X991284Y-219742D01*
Y-220417D01*
X991509Y-221541D01*
X991959Y-222216D01*
X992634Y-222441D01*
X993084D01*
X993758Y-222216D01*
X994208Y-221541D01*
X994433Y-220417D01*
Y-219742D01*
X994208Y-218617D01*
X993758Y-217943D01*
X993084Y-217718D01*
X992634D01*
X995715Y-218842D02*
Y-218617D01*
X995940Y-218167D01*
X996165Y-217943D01*
X996615Y-217718D01*
X997515D01*
X997964Y-217943D01*
X998189Y-218167D01*
X998414Y-218617D01*
Y-219067D01*
X998189Y-219517D01*
X997740Y-220192D01*
X995490Y-222441D01*
X998639D01*
X999696Y-218617D02*
X1000146Y-218392D01*
X1000821Y-217718D01*
Y-222441D01*
X1003385Y-221991D02*
X1003160Y-222216D01*
X1003385Y-222441D01*
X1003610Y-222216D01*
X1003385Y-221991D01*
X1011955Y-222441D02*
X1010155Y-217718D01*
X1008356Y-222441D01*
X1009031Y-220866D02*
X1011280D01*
X1013057Y-217718D02*
Y-222441D01*
X1014046Y-217718D02*
Y-222441D01*
X1018747Y-217718D02*
Y-222441D01*
Y-217718D02*
X1020772D01*
X1021447Y-217943D01*
X1021671Y-218167D01*
X1021896Y-218617D01*
Y-219067D01*
X1021671Y-219517D01*
X1021447Y-219742D01*
X1020772Y-219967D01*
X1018747D01*
X1020322D02*
X1021896Y-222441D01*
X1023403Y-217718D02*
X1023628Y-217943D01*
X1023853Y-217718D01*
X1023628Y-217493D01*
X1023403Y-217718D01*
X1023628Y-219292D02*
Y-222441D01*
X1027384Y-219292D02*
Y-222891D01*
X1027160Y-223566D01*
X1026935Y-223791D01*
X1026485Y-224015D01*
X1025810D01*
X1025360Y-223791D01*
X1027384Y-219967D02*
X1026935Y-219517D01*
X1026485Y-219292D01*
X1025810D01*
X1025360Y-219517D01*
X1024910Y-219967D01*
X1024685Y-220642D01*
Y-221091D01*
X1024910Y-221766D01*
X1025360Y-222216D01*
X1025810Y-222441D01*
X1026485D01*
X1026935Y-222216D01*
X1027384Y-221766D01*
X1028644Y-217718D02*
Y-222441D01*
Y-220192D02*
X1029319Y-219517D01*
X1029769Y-219292D01*
X1030443D01*
X1030893Y-219517D01*
X1031118Y-220192D01*
Y-222441D01*
X1033030Y-217718D02*
Y-221541D01*
X1033255Y-222216D01*
X1033705Y-222441D01*
X1034155D01*
X1032355Y-219292D02*
X1033930D01*
X1037304Y-219967D02*
X1037079Y-219517D01*
X1036404Y-219292D01*
X1035729D01*
X1035054Y-219517D01*
X1034829Y-219967D01*
X1035054Y-220417D01*
X1035504Y-220642D01*
X1036629Y-220866D01*
X1037079Y-221091D01*
X1037304Y-221541D01*
Y-221766D01*
X1037079Y-222216D01*
X1036404Y-222441D01*
X1035729D01*
X1035054Y-222216D01*
X1034829Y-221766D01*
X1042004Y-217718D02*
Y-222441D01*
Y-217718D02*
X1044029D01*
X1044704Y-217943D01*
X1044928Y-218167D01*
X1045153Y-218617D01*
Y-219067D01*
X1044928Y-219517D01*
X1044704Y-219742D01*
X1044029Y-219967D01*
X1042004D01*
X1043579D02*
X1045153Y-222441D01*
X1046211Y-220642D02*
X1048910D01*
Y-220192D01*
X1048685Y-219742D01*
X1048460Y-219517D01*
X1048010Y-219292D01*
X1047335D01*
X1046885Y-219517D01*
X1046436Y-219967D01*
X1046211Y-220642D01*
Y-221091D01*
X1046436Y-221766D01*
X1046885Y-222216D01*
X1047335Y-222441D01*
X1048010D01*
X1048460Y-222216D01*
X1048910Y-221766D01*
X1052396Y-219967D02*
X1052171Y-219517D01*
X1051496Y-219292D01*
X1050821D01*
X1050147Y-219517D01*
X1049922Y-219967D01*
X1050147Y-220417D01*
X1050597Y-220642D01*
X1051721Y-220866D01*
X1052171Y-221091D01*
X1052396Y-221541D01*
Y-221766D01*
X1052171Y-222216D01*
X1051496Y-222441D01*
X1050821D01*
X1050147Y-222216D01*
X1049922Y-221766D01*
X1053386Y-220642D02*
X1056085D01*
Y-220192D01*
X1055860Y-219742D01*
X1055635Y-219517D01*
X1055185Y-219292D01*
X1054510D01*
X1054060Y-219517D01*
X1053611Y-219967D01*
X1053386Y-220642D01*
Y-221091D01*
X1053611Y-221766D01*
X1054060Y-222216D01*
X1054510Y-222441D01*
X1055185D01*
X1055635Y-222216D01*
X1056085Y-221766D01*
X1057097Y-219292D02*
Y-222441D01*
Y-220642D02*
X1057322Y-219967D01*
X1057772Y-219517D01*
X1058222Y-219292D01*
X1058896D01*
X1059324D02*
X1060673Y-222441D01*
X1062023Y-219292D02*
X1060673Y-222441D01*
X1062787Y-220642D02*
X1065487D01*
Y-220192D01*
X1065262Y-219742D01*
X1065037Y-219517D01*
X1064587Y-219292D01*
X1063912D01*
X1063462Y-219517D01*
X1063012Y-219967D01*
X1062787Y-220642D01*
Y-221091D01*
X1063012Y-221766D01*
X1063462Y-222216D01*
X1063912Y-222441D01*
X1064587D01*
X1065037Y-222216D01*
X1065487Y-221766D01*
X1069198Y-217718D02*
Y-222441D01*
Y-219967D02*
X1068748Y-219517D01*
X1068298Y-219292D01*
X1067623D01*
X1067173Y-219517D01*
X1066724Y-219967D01*
X1066499Y-220642D01*
Y-221091D01*
X1066724Y-221766D01*
X1067173Y-222216D01*
X1067623Y-222441D01*
X1068298D01*
X1068748Y-222216D01*
X1069198Y-221766D01*
X1070682Y-221991D02*
X1070457Y-222216D01*
X1070682Y-222441D01*
X1070907Y-222216D01*
X1070682Y-221991D01*
X890877Y-219151D02*
X890708Y-218814D01*
X890371Y-218477D01*
X890033Y-218308D01*
X889359D01*
X889021Y-218477D01*
X888684Y-218814D01*
X888515Y-219151D01*
X888346Y-219657D01*
Y-220501D01*
X888515Y-221007D01*
X888684Y-221344D01*
X889021Y-221682D01*
X889359Y-221850D01*
X890033D01*
X890371Y-221682D01*
X890708Y-221344D01*
X890877Y-221007D01*
X1291889Y-188865D02*
X1291439Y-188415D01*
X1290765Y-188190D01*
X1289865D01*
X1289190Y-188415D01*
X1288740Y-188865D01*
Y-189315D01*
X1288965Y-189764D01*
X1289190Y-189989D01*
X1289640Y-190214D01*
X1290989Y-190664D01*
X1291439Y-190889D01*
X1291664Y-191114D01*
X1291889Y-191564D01*
Y-192239D01*
X1291439Y-192689D01*
X1290765Y-192913D01*
X1289865D01*
X1289190Y-192689D01*
X1288740Y-192239D01*
X1296320Y-189315D02*
X1296095Y-188865D01*
X1295645Y-188415D01*
X1295195Y-188190D01*
X1294296D01*
X1293846Y-188415D01*
X1293396Y-188865D01*
X1293171Y-189315D01*
X1292946Y-189989D01*
Y-191114D01*
X1293171Y-191789D01*
X1293396Y-192239D01*
X1293846Y-192689D01*
X1294296Y-192913D01*
X1295195D01*
X1295645Y-192689D01*
X1296095Y-192239D01*
X1296320Y-191789D01*
X1301246Y-192913D02*
X1299446Y-188190D01*
X1297647Y-192913D01*
X1298322Y-191339D02*
X1300571D01*
X1302348Y-188190D02*
Y-192913D01*
X1305047D01*
X1308488Y-188190D02*
X1305564D01*
Y-192913D01*
X1308488D01*
X1305564Y-190439D02*
X1307364D01*
X1309501Y-189764D02*
X1309276Y-189989D01*
X1309501Y-190214D01*
X1309725Y-189989D01*
X1309501Y-189764D01*
Y-192464D02*
X1309276Y-192689D01*
X1309501Y-192913D01*
X1309725Y-192689D01*
X1309501Y-192464D01*
X894133Y-188865D02*
X893683Y-188415D01*
X893009Y-188190D01*
X892109D01*
X891434Y-188415D01*
X890984Y-188865D01*
Y-189315D01*
X891209Y-189764D01*
X891434Y-189989D01*
X891884Y-190214D01*
X893233Y-190664D01*
X893683Y-190889D01*
X893908Y-191114D01*
X894133Y-191564D01*
Y-192239D01*
X893683Y-192689D01*
X893009Y-192913D01*
X892109D01*
X891434Y-192689D01*
X890984Y-192239D01*
X895190Y-188190D02*
X896990Y-192913D01*
X898789Y-188190D02*
X896990Y-192913D01*
X899396Y-188190D02*
Y-192913D01*
Y-188190D02*
X902545Y-192913D01*
Y-188190D02*
Y-192913D01*
X907561Y-188190D02*
Y-192913D01*
Y-188190D02*
X909585D01*
X910260Y-188415D01*
X910485Y-188640D01*
X910710Y-189090D01*
Y-189540D01*
X910485Y-189989D01*
X910260Y-190214D01*
X909585Y-190439D01*
X907561D01*
X909136D02*
X910710Y-192913D01*
X914691Y-188190D02*
X911767D01*
Y-192913D01*
X914691D01*
X911767Y-190439D02*
X913567D01*
X915478Y-188190D02*
X917278Y-192913D01*
X919077Y-188190D02*
X917278Y-192913D01*
X919685Y-188190D02*
Y-192913D01*
X923823Y-188865D02*
X923373Y-188415D01*
X922698Y-188190D01*
X921799D01*
X921124Y-188415D01*
X920674Y-188865D01*
Y-189315D01*
X920899Y-189764D01*
X921124Y-189989D01*
X921574Y-190214D01*
X922923Y-190664D01*
X923373Y-190889D01*
X923598Y-191114D01*
X923823Y-191564D01*
Y-192239D01*
X923373Y-192689D01*
X922698Y-192913D01*
X921799D01*
X921124Y-192689D01*
X920674Y-192239D01*
X924880Y-188190D02*
Y-192913D01*
X927219Y-188190D02*
X926770Y-188415D01*
X926320Y-188865D01*
X926095Y-189315D01*
X925870Y-189989D01*
Y-191114D01*
X926095Y-191789D01*
X926320Y-192239D01*
X926770Y-192689D01*
X927219Y-192913D01*
X928119D01*
X928569Y-192689D01*
X929019Y-192239D01*
X929244Y-191789D01*
X929469Y-191114D01*
Y-189989D01*
X929244Y-189315D01*
X929019Y-188865D01*
X928569Y-188415D01*
X928119Y-188190D01*
X927219D01*
X930571D02*
Y-192913D01*
Y-188190D02*
X933720Y-192913D01*
Y-188190D02*
Y-192913D01*
X935249Y-189764D02*
X935024Y-189989D01*
X935249Y-190214D01*
X935474Y-189989D01*
X935249Y-189764D01*
Y-192464D02*
X935024Y-192689D01*
X935249Y-192913D01*
X935474Y-192689D01*
X935249Y-192464D01*
X890984Y-131609D02*
X893009D01*
X893683Y-131384D01*
X893908Y-131159D01*
X894133Y-130709D01*
Y-130035D01*
X893908Y-129585D01*
X893683Y-129360D01*
X893009Y-129135D01*
X890984D01*
Y-133858D01*
X898564Y-130260D02*
X898339Y-129810D01*
X897889Y-129360D01*
X897440Y-129135D01*
X896540D01*
X896090Y-129360D01*
X895640Y-129810D01*
X895415Y-130260D01*
X895190Y-130934D01*
Y-132059D01*
X895415Y-132734D01*
X895640Y-133184D01*
X896090Y-133633D01*
X896540Y-133858D01*
X897440D01*
X897889Y-133633D01*
X898339Y-133184D01*
X898564Y-132734D01*
X899891Y-129135D02*
Y-133858D01*
Y-129135D02*
X901915D01*
X902590Y-129360D01*
X902815Y-129585D01*
X903040Y-130035D01*
Y-130484D01*
X902815Y-130934D01*
X902590Y-131159D01*
X901915Y-131384D01*
X899891D02*
X901915D01*
X902590Y-131609D01*
X902815Y-131834D01*
X903040Y-132284D01*
Y-132959D01*
X902815Y-133408D01*
X902590Y-133633D01*
X901915Y-133858D01*
X899891D01*
X907808Y-129135D02*
Y-133858D01*
Y-129135D02*
X909383D01*
X910058Y-129360D01*
X910508Y-129810D01*
X910733Y-130260D01*
X910958Y-130934D01*
Y-132059D01*
X910733Y-132734D01*
X910508Y-133184D01*
X910058Y-133633D01*
X909383Y-133858D01*
X907808D01*
X914939Y-129135D02*
X912015D01*
Y-133858D01*
X914939D01*
X912015Y-131384D02*
X913814D01*
X918875Y-129810D02*
X918425Y-129360D01*
X917750Y-129135D01*
X916850D01*
X916176Y-129360D01*
X915726Y-129810D01*
Y-130260D01*
X915951Y-130709D01*
X916176Y-130934D01*
X916625Y-131159D01*
X917975Y-131609D01*
X918425Y-131834D01*
X918650Y-132059D01*
X918875Y-132509D01*
Y-133184D01*
X918425Y-133633D01*
X917750Y-133858D01*
X916850D01*
X916176Y-133633D01*
X915726Y-133184D01*
X919932Y-129135D02*
Y-133858D01*
X924295Y-130260D02*
X924070Y-129810D01*
X923621Y-129360D01*
X923171Y-129135D01*
X922271D01*
X921821Y-129360D01*
X921371Y-129810D01*
X921146Y-130260D01*
X920922Y-130934D01*
Y-132059D01*
X921146Y-132734D01*
X921371Y-133184D01*
X921821Y-133633D01*
X922271Y-133858D01*
X923171D01*
X923621Y-133633D01*
X924070Y-133184D01*
X924295Y-132734D01*
Y-132059D01*
X923171D02*
X924295D01*
X925375Y-129135D02*
Y-133858D01*
Y-129135D02*
X928524Y-133858D01*
Y-129135D02*
Y-133858D01*
X932753Y-129135D02*
X929829D01*
Y-133858D01*
X932753D01*
X929829Y-131384D02*
X931628D01*
X933540Y-129135D02*
Y-133858D01*
Y-129135D02*
X935564D01*
X936239Y-129360D01*
X936464Y-129585D01*
X936689Y-130035D01*
Y-130484D01*
X936464Y-130934D01*
X936239Y-131159D01*
X935564Y-131384D01*
X933540D01*
X935114D02*
X936689Y-133858D01*
X937971Y-130709D02*
X937746Y-130934D01*
X937971Y-131159D01*
X938196Y-130934D01*
X937971Y-130709D01*
Y-133408D02*
X937746Y-133633D01*
X937971Y-133858D01*
X938196Y-133633D01*
X937971Y-133408D01*
X1042559Y-99607D02*
Y-104331D01*
X1040984Y-99607D02*
X1044133D01*
X1044695D02*
Y-104331D01*
X1047260Y-99607D02*
Y-104331D01*
X1045685Y-99607D02*
X1048834D01*
X1049396D02*
Y-104331D01*
X1052096D01*
X1055537Y-99607D02*
X1052613D01*
Y-104331D01*
X1055537D01*
X1052613Y-101857D02*
X1054412D01*
X1056549Y-101182D02*
X1056324Y-101407D01*
X1056549Y-101632D01*
X1056774Y-101407D01*
X1056549Y-101182D01*
Y-103881D02*
X1056324Y-104106D01*
X1056549Y-104331D01*
X1056774Y-104106D01*
X1056549Y-103881D01*
X1040984Y-161137D02*
X1043009D01*
X1043683Y-160912D01*
X1043908Y-160687D01*
X1044133Y-160237D01*
Y-159562D01*
X1043908Y-159112D01*
X1043683Y-158887D01*
X1043009Y-158662D01*
X1040984D01*
Y-163386D01*
X1048789D02*
X1046990Y-158662D01*
X1045190Y-163386D01*
X1045865Y-161811D02*
X1048114D01*
X1049891Y-158662D02*
Y-163386D01*
Y-158662D02*
X1051915D01*
X1052590Y-158887D01*
X1052815Y-159112D01*
X1053040Y-159562D01*
Y-160012D01*
X1052815Y-160462D01*
X1052590Y-160687D01*
X1051915Y-160912D01*
X1049891D01*
X1051466D02*
X1053040Y-163386D01*
X1055672Y-158662D02*
Y-163386D01*
X1054097Y-158662D02*
X1057246D01*
X1061520D02*
Y-163386D01*
Y-158662D02*
X1064669Y-163386D01*
Y-158662D02*
Y-163386D01*
X1067323Y-158662D02*
X1066873Y-158887D01*
X1066423Y-159337D01*
X1066198Y-159787D01*
X1065973Y-160462D01*
Y-161586D01*
X1066198Y-162261D01*
X1066423Y-162711D01*
X1066873Y-163161D01*
X1067323Y-163386D01*
X1068223D01*
X1068672Y-163161D01*
X1069122Y-162711D01*
X1069347Y-162261D01*
X1069572Y-161586D01*
Y-160462D01*
X1069347Y-159787D01*
X1069122Y-159337D01*
X1068672Y-158887D01*
X1068223Y-158662D01*
X1067323D01*
X1070899Y-162936D02*
X1070674Y-163161D01*
X1070899Y-163386D01*
X1071124Y-163161D01*
X1070899Y-162936D01*
X1072384Y-160237D02*
X1072159Y-160462D01*
X1072384Y-160687D01*
X1072608Y-160462D01*
X1072384Y-160237D01*
Y-162936D02*
X1072159Y-163161D01*
X1072384Y-163386D01*
X1072608Y-163161D01*
X1072384Y-162936D01*
X893908Y-99607D02*
X890984D01*
Y-104331D01*
X893908D01*
X890984Y-101857D02*
X892784D01*
X894695Y-99607D02*
Y-104331D01*
Y-99607D02*
X897844Y-104331D01*
Y-99607D02*
Y-104331D01*
X902523Y-100732D02*
X902298Y-100282D01*
X901848Y-99832D01*
X901398Y-99607D01*
X900498D01*
X900049Y-99832D01*
X899599Y-100282D01*
X899374Y-100732D01*
X899149Y-101407D01*
Y-102531D01*
X899374Y-103206D01*
X899599Y-103656D01*
X900049Y-104106D01*
X900498Y-104331D01*
X901398D01*
X901848Y-104106D01*
X902298Y-103656D01*
X902523Y-103206D01*
Y-102531D01*
X901398D02*
X902523D01*
X903603Y-99607D02*
Y-104331D01*
X904592Y-99607D02*
Y-104331D01*
Y-99607D02*
X907741Y-104331D01*
Y-99607D02*
Y-104331D01*
X911970Y-99607D02*
X909046D01*
Y-104331D01*
X911970D01*
X909046Y-101857D02*
X910845D01*
X915681Y-99607D02*
X912757D01*
Y-104331D01*
X915681D01*
X912757Y-101857D02*
X914556D01*
X916468Y-99607D02*
Y-104331D01*
Y-99607D02*
X918492D01*
X919167Y-99832D01*
X919392Y-100057D01*
X919617Y-100507D01*
Y-100957D01*
X919392Y-101407D01*
X919167Y-101632D01*
X918492Y-101857D01*
X916468D01*
X918043D02*
X919617Y-104331D01*
X920899Y-101182D02*
X920674Y-101407D01*
X920899Y-101632D01*
X921124Y-101407D01*
X920899Y-101182D01*
Y-103881D02*
X920674Y-104106D01*
X920899Y-104331D01*
X921124Y-104106D01*
X920899Y-103881D01*
X1040984Y-188190D02*
Y-192913D01*
Y-188190D02*
X1043908D01*
X1040984Y-190439D02*
X1042784D01*
X1044448Y-188190D02*
Y-192913D01*
X1045438Y-188190D02*
Y-192913D01*
X1048137D01*
X1051578Y-188190D02*
X1048654D01*
Y-192913D01*
X1051578D01*
X1048654Y-190439D02*
X1050453D01*
X1056077Y-188190D02*
Y-192913D01*
Y-188190D02*
X1059226Y-192913D01*
Y-188190D02*
Y-192913D01*
X1064129D02*
X1062329Y-188190D01*
X1060530Y-192913D01*
X1061205Y-191339D02*
X1063454D01*
X1065231Y-188190D02*
Y-192913D01*
Y-188190D02*
X1067030Y-192913D01*
X1068830Y-188190D02*
X1067030Y-192913D01*
X1068830Y-188190D02*
Y-192913D01*
X1073103Y-188190D02*
X1070179D01*
Y-192913D01*
X1073103D01*
X1070179Y-190439D02*
X1071979D01*
X1074115Y-189764D02*
X1073891Y-189989D01*
X1074115Y-190214D01*
X1074340Y-189989D01*
X1074115Y-189764D01*
Y-192464D02*
X1073891Y-192689D01*
X1074115Y-192913D01*
X1074340Y-192689D01*
X1074115Y-192464D01*
X1288740Y-158662D02*
Y-163386D01*
Y-158662D02*
X1290765D01*
X1291439Y-158887D01*
X1291664Y-159112D01*
X1291889Y-159562D01*
Y-160012D01*
X1291664Y-160462D01*
X1291439Y-160687D01*
X1290765Y-160912D01*
X1288740D01*
X1290315D02*
X1291889Y-163386D01*
X1295870Y-158662D02*
X1292946D01*
Y-163386D01*
X1295870D01*
X1292946Y-160912D02*
X1294746D01*
X1296657Y-158662D02*
X1298457Y-163386D01*
X1300256Y-158662D02*
X1298457Y-163386D01*
X1301089Y-160237D02*
X1300863Y-160462D01*
X1301089Y-160687D01*
X1301313Y-160462D01*
X1301089Y-160237D01*
Y-162936D02*
X1300863Y-163161D01*
X1301089Y-163386D01*
X1301313Y-163161D01*
X1301089Y-162936D01*
X890984Y-158662D02*
Y-163386D01*
Y-158662D02*
X892559D01*
X893233Y-158887D01*
X893683Y-159337D01*
X893908Y-159787D01*
X894133Y-160462D01*
Y-161586D01*
X893908Y-162261D01*
X893683Y-162711D01*
X893233Y-163161D01*
X892559Y-163386D01*
X890984D01*
X898789D02*
X896990Y-158662D01*
X895190Y-163386D01*
X895865Y-161811D02*
X898114D01*
X901466Y-158662D02*
Y-163386D01*
X899891Y-158662D02*
X903040D01*
X906526D02*
X903603D01*
Y-163386D01*
X906526D01*
X903603Y-160912D02*
X905402D01*
X907539Y-160237D02*
X907314Y-160462D01*
X907539Y-160687D01*
X907764Y-160462D01*
X907539Y-160237D01*
Y-162936D02*
X907314Y-163161D01*
X907539Y-163386D01*
X907764Y-163161D01*
X907539Y-162936D01*
X1237559Y-158662D02*
Y-163386D01*
Y-158662D02*
X1239583D01*
X1240258Y-158887D01*
X1240483Y-159112D01*
X1240708Y-159562D01*
Y-160012D01*
X1240483Y-160462D01*
X1240258Y-160687D01*
X1239583Y-160912D01*
X1237559D01*
X1239133D02*
X1240708Y-163386D01*
X1244689Y-158662D02*
X1241765D01*
Y-163386D01*
X1244689D01*
X1241765Y-160912D02*
X1243565D01*
X1245476Y-158662D02*
Y-163386D01*
X1248175D01*
X1248918Y-160237D02*
X1248693Y-160462D01*
X1248918Y-160687D01*
X1249143Y-160462D01*
X1248918Y-160237D01*
Y-162936D02*
X1248693Y-163161D01*
X1248918Y-163386D01*
X1249143Y-163161D01*
X1248918Y-162936D01*
X1241158Y-192913D02*
X1239358Y-188190D01*
X1237559Y-192913D01*
X1238234Y-191339D02*
X1240483D01*
X1242260Y-190664D02*
X1244284D01*
X1244959Y-190439D01*
X1245184Y-190214D01*
X1245409Y-189764D01*
Y-189090D01*
X1245184Y-188640D01*
X1244959Y-188415D01*
X1244284Y-188190D01*
X1242260D01*
Y-192913D01*
X1246466Y-188190D02*
Y-192913D01*
Y-188190D02*
X1248490D01*
X1249165Y-188415D01*
X1249390Y-188640D01*
X1249615Y-189090D01*
Y-189540D01*
X1249390Y-189989D01*
X1249165Y-190214D01*
X1248490Y-190439D01*
X1246466D01*
X1248040D02*
X1249615Y-192913D01*
X1250672Y-188190D02*
X1252472Y-192913D01*
X1254271Y-188190D02*
X1252472Y-192913D01*
X1255103Y-189764D02*
X1254878Y-189989D01*
X1255103Y-190214D01*
X1255328Y-189989D01*
X1255103Y-189764D01*
Y-192464D02*
X1254878Y-192689D01*
X1255103Y-192913D01*
X1255328Y-192689D01*
X1255103Y-192464D01*
D97*
X1044646Y-198821D02*
Y-206693D01*
Y-198821D02*
X1047645Y-206693D01*
X1050644Y-198821D02*
X1047645Y-206693D01*
X1050644Y-198821D02*
Y-206693D01*
X1057391Y-201445D02*
Y-206693D01*
Y-202569D02*
X1056642Y-201820D01*
X1055892Y-201445D01*
X1054767D01*
X1054018Y-201820D01*
X1053268Y-202569D01*
X1052893Y-203694D01*
Y-204444D01*
X1053268Y-205568D01*
X1054018Y-206318D01*
X1054767Y-206693D01*
X1055892D01*
X1056642Y-206318D01*
X1057391Y-205568D01*
X1060240Y-198821D02*
X1060615Y-199196D01*
X1060990Y-198821D01*
X1060615Y-198446D01*
X1060240Y-198821D01*
X1060615Y-201445D02*
Y-206693D01*
X1062377Y-201445D02*
Y-206693D01*
Y-202944D02*
X1063502Y-201820D01*
X1064252Y-201445D01*
X1065376D01*
X1066126Y-201820D01*
X1066501Y-202944D01*
Y-206693D01*
X1068563Y-198821D02*
Y-206693D01*
Y-202569D02*
X1069312Y-201820D01*
X1070062Y-201445D01*
X1071187D01*
X1071936Y-201820D01*
X1072686Y-202569D01*
X1073061Y-203694D01*
Y-204444D01*
X1072686Y-205568D01*
X1071936Y-206318D01*
X1071187Y-206693D01*
X1070062D01*
X1069312Y-206318D01*
X1068563Y-205568D01*
X1076622Y-201445D02*
X1075873Y-201820D01*
X1075123Y-202569D01*
X1074748Y-203694D01*
Y-204444D01*
X1075123Y-205568D01*
X1075873Y-206318D01*
X1076622Y-206693D01*
X1077747D01*
X1078497Y-206318D01*
X1079246Y-205568D01*
X1079621Y-204444D01*
Y-203694D01*
X1079246Y-202569D01*
X1078497Y-201820D01*
X1077747Y-201445D01*
X1076622D01*
X1085844D02*
Y-206693D01*
Y-202569D02*
X1085094Y-201820D01*
X1084345Y-201445D01*
X1083220D01*
X1082470Y-201820D01*
X1081721Y-202569D01*
X1081346Y-203694D01*
Y-204444D01*
X1081721Y-205568D01*
X1082470Y-206318D01*
X1083220Y-206693D01*
X1084345D01*
X1085094Y-206318D01*
X1085844Y-205568D01*
X1087943Y-201445D02*
Y-206693D01*
Y-203694D02*
X1088318Y-202569D01*
X1089068Y-201820D01*
X1089818Y-201445D01*
X1090942D01*
X1096153Y-198821D02*
Y-206693D01*
Y-202569D02*
X1095403Y-201820D01*
X1094654Y-201445D01*
X1093529D01*
X1092779Y-201820D01*
X1092030Y-202569D01*
X1091655Y-203694D01*
Y-204444D01*
X1092030Y-205568D01*
X1092779Y-206318D01*
X1093529Y-206693D01*
X1094654D01*
X1095403Y-206318D01*
X1096153Y-205568D01*
X1098627Y-205943D02*
X1098252Y-206318D01*
X1098627Y-206693D01*
X1099002Y-206318D01*
X1098627Y-205943D01*
X1100727Y-202944D02*
X1104101D01*
X1105225Y-202569D01*
X1105600Y-202194D01*
X1105975Y-201445D01*
Y-200320D01*
X1105600Y-199570D01*
X1105225Y-199196D01*
X1104101Y-198821D01*
X1100727D01*
Y-206693D01*
X1112235Y-202569D02*
X1111485Y-201820D01*
X1110736Y-201445D01*
X1109611D01*
X1108861Y-201820D01*
X1108112Y-202569D01*
X1107737Y-203694D01*
Y-204444D01*
X1108112Y-205568D01*
X1108861Y-206318D01*
X1109611Y-206693D01*
X1110736D01*
X1111485Y-206318D01*
X1112235Y-205568D01*
X1113922Y-198821D02*
Y-206693D01*
Y-202569D02*
X1114672Y-201820D01*
X1115422Y-201445D01*
X1116546D01*
X1117296Y-201820D01*
X1118046Y-202569D01*
X1118421Y-203694D01*
Y-204444D01*
X1118046Y-205568D01*
X1117296Y-206318D01*
X1116546Y-206693D01*
X1115422D01*
X1114672Y-206318D01*
X1113922Y-205568D01*
X1120108Y-198821D02*
Y-206693D01*
Y-198821D02*
X1122732D01*
X1123856Y-199196D01*
X1124606Y-199945D01*
X1124981Y-200695D01*
X1125356Y-201820D01*
Y-203694D01*
X1124981Y-204819D01*
X1124606Y-205568D01*
X1123856Y-206318D01*
X1122732Y-206693D01*
X1120108D01*
X1128992Y-201445D02*
X1128242Y-201820D01*
X1127493Y-202569D01*
X1127118Y-203694D01*
Y-204444D01*
X1127493Y-205568D01*
X1128242Y-206318D01*
X1128992Y-206693D01*
X1130117D01*
X1130866Y-206318D01*
X1131616Y-205568D01*
X1131991Y-204444D01*
Y-203694D01*
X1131616Y-202569D01*
X1130866Y-201820D01*
X1130117Y-201445D01*
X1128992D01*
X1138214Y-202569D02*
X1137464Y-201820D01*
X1136714Y-201445D01*
X1135590D01*
X1134840Y-201820D01*
X1134090Y-202569D01*
X1133716Y-203694D01*
Y-204444D01*
X1134090Y-205568D01*
X1134840Y-206318D01*
X1135590Y-206693D01*
X1136714D01*
X1137464Y-206318D01*
X1138214Y-205568D01*
X1349481Y173321D02*
X1349107Y174071D01*
X1348357Y174820D01*
X1347607Y175195D01*
X1346107D01*
X1345358Y174820D01*
X1344608Y174071D01*
X1344233Y173321D01*
X1343858Y172196D01*
Y170322D01*
X1344233Y169197D01*
X1344608Y168447D01*
X1345358Y167698D01*
X1346107Y167323D01*
X1347607D01*
X1348357Y167698D01*
X1349107Y168447D01*
X1349481Y169197D01*
X1343858Y450786D02*
Y442913D01*
Y450786D02*
X1347232D01*
X1348357Y450411D01*
X1348732Y450036D01*
X1349107Y449286D01*
Y448536D01*
X1348732Y447787D01*
X1348357Y447412D01*
X1347232Y447037D01*
X1343858D02*
X1347232D01*
X1348357Y446662D01*
X1348732Y446287D01*
X1349107Y445538D01*
Y444413D01*
X1348732Y443663D01*
X1348357Y443288D01*
X1347232Y442913D01*
X1343858D01*
X1349856Y718504D02*
X1346857Y726376D01*
X1343858Y718504D01*
X1344983Y721128D02*
X1348732D01*
X1257244Y-233598D02*
X1258556Y-232286D01*
X1261180D01*
X1262492Y-233598D01*
Y-234910D01*
X1261180Y-236222D01*
X1262492Y-237534D01*
Y-238846D01*
X1261180Y-240158D01*
X1258556D01*
X1257244Y-238846D01*
Y-237534D01*
X1258556Y-236222D01*
X1257244Y-234910D01*
Y-233598D01*
X1258556Y-236222D02*
X1261180D01*
X1060394Y-232286D02*
X1065641D01*
Y-233598D01*
X1060394Y-238846D01*
Y-240158D01*
X868791Y-232286D02*
X866167Y-233598D01*
X863543Y-236222D01*
Y-238846D01*
X864855Y-240158D01*
X867479D01*
X868791Y-238846D01*
Y-237534D01*
X867479Y-236222D01*
X863543D01*
X671941Y-232286D02*
X666693D01*
Y-236222D01*
X669317Y-234910D01*
X670629D01*
X671941Y-236222D01*
Y-238846D01*
X670629Y-240158D01*
X668005D01*
X666693Y-238846D01*
X473591Y-232285D02*
X469842Y-237533D01*
X475466D01*
X473591Y-232285D02*
Y-240158D01*
X273742Y-232285D02*
X277866D01*
X275616Y-235284D01*
X276741D01*
X277491Y-235659D01*
X277866Y-236034D01*
X278240Y-237158D01*
Y-237908D01*
X277866Y-239033D01*
X277116Y-239783D01*
X275991Y-240158D01*
X274867D01*
X273742Y-239783D01*
X273367Y-239408D01*
X272992Y-238658D01*
X76517Y-234159D02*
Y-233785D01*
X76891Y-233035D01*
X77266Y-232660D01*
X78016Y-232285D01*
X79516D01*
X80265Y-232660D01*
X80640Y-233035D01*
X81015Y-233785D01*
Y-234534D01*
X80640Y-235284D01*
X79891Y-236409D01*
X76142Y-240158D01*
X81390D01*
X-120709Y-233785D02*
X-119959Y-233410D01*
X-118834Y-232285D01*
Y-240158D01*
X1257244Y849079D02*
X1258556Y850391D01*
X1261180D01*
X1262492Y849079D01*
Y847767D01*
X1261180Y846455D01*
X1262492Y845144D01*
Y843832D01*
X1261180Y842520D01*
X1258556D01*
X1257244Y843832D01*
Y845144D01*
X1258556Y846455D01*
X1257244Y847767D01*
Y849079D01*
X1258556Y846455D02*
X1261180D01*
X1060394Y850391D02*
X1065641D01*
Y849079D01*
X1060394Y843832D01*
Y842520D01*
X868791Y850391D02*
X866167Y849079D01*
X863543Y846455D01*
Y843832D01*
X864855Y842520D01*
X867479D01*
X868791Y843832D01*
Y845144D01*
X867479Y846455D01*
X863543D01*
X671941Y850391D02*
X666693D01*
Y846455D01*
X669317Y847767D01*
X670629D01*
X671941Y846455D01*
Y843832D01*
X670629Y842520D01*
X668005D01*
X666693Y843832D01*
X473591Y850392D02*
X469842Y845144D01*
X475466D01*
X473591Y850392D02*
Y842520D01*
X273742Y850392D02*
X277866D01*
X275616Y847393D01*
X276741D01*
X277491Y847018D01*
X277866Y846643D01*
X278240Y845519D01*
Y844769D01*
X277866Y843644D01*
X277116Y842894D01*
X275991Y842520D01*
X274867D01*
X273742Y842894D01*
X273367Y843269D01*
X272992Y844019D01*
X76517Y848518D02*
Y848892D01*
X76891Y849642D01*
X77266Y850017D01*
X78016Y850392D01*
X79516D01*
X80265Y850017D01*
X80640Y849642D01*
X81015Y848892D01*
Y848143D01*
X80640Y847393D01*
X79891Y846268D01*
X76142Y842520D01*
X81390D01*
X-120709Y848892D02*
X-119959Y849267D01*
X-118834Y850392D01*
Y842520D01*
X-211260Y-100395D02*
Y-108268D01*
Y-100395D02*
X-208636D01*
X-207511Y-100770D01*
X-206761Y-101520D01*
X-206386Y-102270D01*
X-206012Y-103394D01*
Y-105269D01*
X-206386Y-106393D01*
X-206761Y-107143D01*
X-207511Y-107893D01*
X-208636Y-108268D01*
X-211260D01*
X-205637Y173321D02*
X-206012Y174071D01*
X-206761Y174820D01*
X-207511Y175195D01*
X-209011D01*
X-209760Y174820D01*
X-210510Y174071D01*
X-210885Y173321D01*
X-211260Y172196D01*
Y170322D01*
X-210885Y169197D01*
X-210510Y168447D01*
X-209760Y167698D01*
X-209011Y167323D01*
X-207511D01*
X-206761Y167698D01*
X-206012Y168447D01*
X-205637Y169197D01*
X-211260Y450786D02*
Y442913D01*
Y450786D02*
X-207886D01*
X-206761Y450411D01*
X-206386Y450036D01*
X-206012Y449286D01*
Y448536D01*
X-206386Y447787D01*
X-206761Y447412D01*
X-207886Y447037D01*
X-211260D02*
X-207886D01*
X-206761Y446662D01*
X-206386Y446287D01*
X-206012Y445538D01*
Y444413D01*
X-206386Y443663D01*
X-206761Y443288D01*
X-207886Y442913D01*
X-211260D01*
X-205262Y718504D02*
X-208261Y726376D01*
X-211260Y718504D01*
X-210135Y721128D02*
X-206386D01*
X1343858Y-100395D02*
Y-108268D01*
Y-100395D02*
X1346482D01*
X1347607Y-100770D01*
X1348357Y-101520D01*
X1348732Y-102270D01*
X1349107Y-103394D01*
Y-105269D01*
X1348732Y-106393D01*
X1348357Y-107143D01*
X1347607Y-107893D01*
X1346482Y-108268D01*
X1343858D01*
X899538Y-201445D02*
Y-206693D01*
Y-202569D02*
X898788Y-201820D01*
X898038Y-201445D01*
X896914D01*
X896164Y-201820D01*
X895414Y-202569D01*
X895039Y-203694D01*
Y-204444D01*
X895414Y-205568D01*
X896164Y-206318D01*
X896914Y-206693D01*
X898038D01*
X898788Y-206318D01*
X899538Y-205568D01*
X903512Y-198821D02*
X902387Y-199196D01*
X902012Y-199945D01*
Y-200695D01*
X902387Y-201445D01*
X903137Y-201820D01*
X904636Y-202194D01*
X905761Y-202569D01*
X906511Y-203319D01*
X906885Y-204069D01*
Y-205193D01*
X906511Y-205943D01*
X906136Y-206318D01*
X905011Y-206693D01*
X903512D01*
X902387Y-206318D01*
X902012Y-205943D01*
X901637Y-205193D01*
Y-204069D01*
X902012Y-203319D01*
X902762Y-202569D01*
X903886Y-202194D01*
X905386Y-201820D01*
X906136Y-201445D01*
X906511Y-200695D01*
Y-199945D01*
X906136Y-199196D01*
X905011Y-198821D01*
X903512D01*
X913521Y-201445D02*
X913146Y-202569D01*
X912396Y-203319D01*
X911271Y-203694D01*
X910896D01*
X909772Y-203319D01*
X909022Y-202569D01*
X908647Y-201445D01*
Y-201070D01*
X909022Y-199945D01*
X909772Y-199196D01*
X910896Y-198821D01*
X911271D01*
X912396Y-199196D01*
X913146Y-199945D01*
X913521Y-201445D01*
Y-203319D01*
X913146Y-205193D01*
X912396Y-206318D01*
X911271Y-206693D01*
X910522D01*
X909397Y-206318D01*
X909022Y-205568D01*
X920156Y-198821D02*
X916407D01*
X916032Y-202194D01*
X916407Y-201820D01*
X917532Y-201445D01*
X918656D01*
X919781Y-201820D01*
X920531Y-202569D01*
X920906Y-203694D01*
Y-204444D01*
X920531Y-205568D01*
X919781Y-206318D01*
X918656Y-206693D01*
X917532D01*
X916407Y-206318D01*
X916032Y-205943D01*
X915657Y-205193D01*
X927166Y-202569D02*
X926416Y-201820D01*
X925667Y-201445D01*
X924542D01*
X923792Y-201820D01*
X923042Y-202569D01*
X922668Y-203694D01*
Y-204444D01*
X923042Y-205568D01*
X923792Y-206318D01*
X924542Y-206693D01*
X925667D01*
X926416Y-206318D01*
X927166Y-205568D01*
X928853Y-200320D02*
X929603Y-199945D01*
X930727Y-198821D01*
Y-206693D01*
X939124Y-201445D02*
Y-206693D01*
Y-202569D02*
X938375Y-201820D01*
X937625Y-201445D01*
X936500D01*
X935751Y-201820D01*
X935001Y-202569D01*
X934626Y-203694D01*
Y-204444D01*
X935001Y-205568D01*
X935751Y-206318D01*
X936500Y-206693D01*
X937625D01*
X938375Y-206318D01*
X939124Y-205568D01*
X943473Y-198821D02*
X942348Y-199196D01*
X941599Y-200320D01*
X941224Y-202194D01*
Y-203319D01*
X941599Y-205193D01*
X942348Y-206318D01*
X943473Y-206693D01*
X944223D01*
X945347Y-206318D01*
X946097Y-205193D01*
X946472Y-203319D01*
Y-202194D01*
X946097Y-200320D01*
X945347Y-199196D01*
X944223Y-198821D01*
X943473D01*
X953107Y-201445D02*
X952732Y-202569D01*
X951983Y-203319D01*
X950858Y-203694D01*
X950483D01*
X949358Y-203319D01*
X948609Y-202569D01*
X948234Y-201445D01*
Y-201070D01*
X948609Y-199945D01*
X949358Y-199196D01*
X950483Y-198821D01*
X950858D01*
X951983Y-199196D01*
X952732Y-199945D01*
X953107Y-201445D01*
Y-203319D01*
X952732Y-205193D01*
X951983Y-206318D01*
X950858Y-206693D01*
X950108D01*
X948984Y-206318D01*
X948609Y-205568D01*
X959743Y-201445D02*
Y-206693D01*
Y-202569D02*
X958993Y-201820D01*
X958243Y-201445D01*
X957118D01*
X956369Y-201820D01*
X955619Y-202569D01*
X955244Y-203694D01*
Y-204444D01*
X955619Y-205568D01*
X956369Y-206318D01*
X957118Y-206693D01*
X958243D01*
X958993Y-206318D01*
X959743Y-205568D01*
X961842Y-203694D02*
X966340D01*
Y-202944D01*
X965965Y-202194D01*
X965590Y-201820D01*
X964841Y-201445D01*
X963716D01*
X962966Y-201820D01*
X962217Y-202569D01*
X961842Y-203694D01*
Y-204444D01*
X962217Y-205568D01*
X962966Y-206318D01*
X963716Y-206693D01*
X964841D01*
X965590Y-206318D01*
X966340Y-205568D01*
X968027Y-200320D02*
X968777Y-199945D01*
X969901Y-198821D01*
Y-206693D01*
X978673Y-201445D02*
X978299Y-202569D01*
X977549Y-203319D01*
X976424Y-203694D01*
X976049D01*
X974925Y-203319D01*
X974175Y-202569D01*
X973800Y-201445D01*
Y-201070D01*
X974175Y-199945D01*
X974925Y-199196D01*
X976049Y-198821D01*
X976424D01*
X977549Y-199196D01*
X978299Y-199945D01*
X978673Y-201445D01*
Y-203319D01*
X978299Y-205193D01*
X977549Y-206318D01*
X976424Y-206693D01*
X975675D01*
X974550Y-206318D01*
X974175Y-205568D01*
X981560Y-198821D02*
X985684D01*
X983434Y-201820D01*
X984559D01*
X985309Y-202194D01*
X985684Y-202569D01*
X986059Y-203694D01*
Y-204444D01*
X985684Y-205568D01*
X984934Y-206318D01*
X983809Y-206693D01*
X982685D01*
X981560Y-206318D01*
X981185Y-205943D01*
X980810Y-205193D01*
X990070Y-198821D02*
X988945Y-199196D01*
X988195Y-200320D01*
X987820Y-202194D01*
Y-203319D01*
X988195Y-205193D01*
X988945Y-206318D01*
X990070Y-206693D01*
X990819D01*
X991944Y-206318D01*
X992694Y-205193D01*
X993069Y-203319D01*
Y-202194D01*
X992694Y-200320D01*
X991944Y-199196D01*
X990819Y-198821D01*
X990070D01*
X999329Y-199945D02*
X998954Y-199196D01*
X997830Y-198821D01*
X997080D01*
X995955Y-199196D01*
X995205Y-200320D01*
X994831Y-202194D01*
Y-204069D01*
X995205Y-205568D01*
X995955Y-206318D01*
X997080Y-206693D01*
X997455D01*
X998579Y-206318D01*
X999329Y-205568D01*
X999704Y-204444D01*
Y-204069D01*
X999329Y-202944D01*
X998579Y-202194D01*
X997455Y-201820D01*
X997080D01*
X995955Y-202194D01*
X995205Y-202944D01*
X994831Y-204069D01*
X1002178Y-198821D02*
X1006302D01*
X1004052Y-201820D01*
X1005177D01*
X1005927Y-202194D01*
X1006302Y-202569D01*
X1006676Y-203694D01*
Y-204444D01*
X1006302Y-205568D01*
X1005552Y-206318D01*
X1004427Y-206693D01*
X1003303D01*
X1002178Y-206318D01*
X1001803Y-205943D01*
X1001428Y-205193D01*
X1009188Y-198821D02*
X1013312D01*
X1011063Y-201820D01*
X1012187D01*
X1012937Y-202194D01*
X1013312Y-202569D01*
X1013687Y-203694D01*
Y-204444D01*
X1013312Y-205568D01*
X1012562Y-206318D01*
X1011437Y-206693D01*
X1010313D01*
X1009188Y-206318D01*
X1008813Y-205943D01*
X1008438Y-205193D01*
X1019947Y-202569D02*
X1019197Y-201820D01*
X1018448Y-201445D01*
X1017323D01*
X1016573Y-201820D01*
X1015823Y-202569D01*
X1015449Y-203694D01*
Y-204444D01*
X1015823Y-205568D01*
X1016573Y-206318D01*
X1017323Y-206693D01*
X1018448D01*
X1019197Y-206318D01*
X1019947Y-205568D01*
X1024633Y-198821D02*
X1023883D01*
X1023133Y-199196D01*
X1022759Y-200320D01*
Y-206693D01*
X1021634Y-201445D02*
X1024258D01*
X1030256Y-198821D02*
Y-206693D01*
Y-202569D02*
X1029506Y-201820D01*
X1028757Y-201445D01*
X1027632D01*
X1026882Y-201820D01*
X1026132Y-202569D01*
X1025758Y-203694D01*
Y-204444D01*
X1026132Y-205568D01*
X1026882Y-206318D01*
X1027632Y-206693D01*
X1028757D01*
X1029506Y-206318D01*
X1030256Y-205568D01*
X1032355Y-198821D02*
Y-206693D01*
Y-202569D02*
X1033105Y-201820D01*
X1033855Y-201445D01*
X1034980D01*
X1035729Y-201820D01*
X1036479Y-202569D01*
X1036854Y-203694D01*
Y-204444D01*
X1036479Y-205568D01*
X1035729Y-206318D01*
X1034980Y-206693D01*
X1033855D01*
X1033105Y-206318D01*
X1032355Y-205568D01*
X1043789Y-198821D02*
X1040040Y-206693D01*
X1038541Y-198821D02*
X1043789D01*
X1045551D02*
Y-206693D01*
Y-202569D02*
X1046301Y-201820D01*
X1047050Y-201445D01*
X1048175D01*
X1048925Y-201820D01*
X1049675Y-202569D01*
X1050049Y-203694D01*
Y-204444D01*
X1049675Y-205568D01*
X1048925Y-206318D01*
X1048175Y-206693D01*
X1047050D01*
X1046301Y-206318D01*
X1045551Y-205568D01*
X1052111Y-200695D02*
Y-200320D01*
X1052486Y-199570D01*
X1052861Y-199196D01*
X1053611Y-198821D01*
X1055110D01*
X1055860Y-199196D01*
X1056235Y-199570D01*
X1056610Y-200320D01*
Y-201070D01*
X1056235Y-201820D01*
X1055485Y-202944D01*
X1051736Y-206693D01*
X1056985D01*
X1063995Y-198821D02*
X1060246Y-206693D01*
X1058746Y-198821D02*
X1063995D01*
X1065757Y-203694D02*
X1070255D01*
Y-202944D01*
X1069880Y-202194D01*
X1069505Y-201820D01*
X1068756Y-201445D01*
X1067631D01*
X1066881Y-201820D01*
X1066131Y-202569D01*
X1065757Y-203694D01*
Y-204444D01*
X1066131Y-205568D01*
X1066881Y-206318D01*
X1067631Y-206693D01*
X1068756D01*
X1069505Y-206318D01*
X1070255Y-205568D01*
X1076440Y-198821D02*
X1072692D01*
X1072317Y-202194D01*
X1072692Y-201820D01*
X1073816Y-201445D01*
X1074941D01*
X1076066Y-201820D01*
X1076815Y-202569D01*
X1077190Y-203694D01*
Y-204444D01*
X1076815Y-205568D01*
X1076066Y-206318D01*
X1074941Y-206693D01*
X1073816D01*
X1072692Y-206318D01*
X1072317Y-205943D01*
X1071942Y-205193D01*
X1082701Y-198821D02*
X1078952Y-204069D01*
X1084575D01*
X1082701Y-198821D02*
Y-206693D01*
X1091210Y-198821D02*
X1087462Y-206693D01*
X1085962Y-198821D02*
X1091210D01*
X1097471Y-199945D02*
X1097096Y-199196D01*
X1095971Y-198821D01*
X1095222D01*
X1094097Y-199196D01*
X1093347Y-200320D01*
X1092972Y-202194D01*
Y-204069D01*
X1093347Y-205568D01*
X1094097Y-206318D01*
X1095222Y-206693D01*
X1095596D01*
X1096721Y-206318D01*
X1097471Y-205568D01*
X1097846Y-204444D01*
Y-204069D01*
X1097471Y-202944D01*
X1096721Y-202194D01*
X1095596Y-201820D01*
X1095222D01*
X1094097Y-202194D01*
X1093347Y-202944D01*
X1092972Y-204069D01*
X1103319Y-198821D02*
X1099570Y-204069D01*
X1105193D01*
X1103319Y-198821D02*
Y-206693D01*
X1111828Y-198821D02*
X1108080Y-206693D01*
X1106580Y-198821D02*
X1111828D01*
X1113965Y-200695D02*
Y-200320D01*
X1114340Y-199570D01*
X1114715Y-199196D01*
X1115465Y-198821D01*
X1116964D01*
X1117714Y-199196D01*
X1118089Y-199570D01*
X1118464Y-200320D01*
Y-201070D01*
X1118089Y-201820D01*
X1117339Y-202944D01*
X1113590Y-206693D01*
X1118839D01*
X1122475Y-198821D02*
X1121350Y-199196D01*
X1120975Y-199945D01*
Y-200695D01*
X1121350Y-201445D01*
X1122100Y-201820D01*
X1123600Y-202194D01*
X1124724Y-202569D01*
X1125474Y-203319D01*
X1125849Y-204069D01*
Y-205193D01*
X1125474Y-205943D01*
X1125099Y-206318D01*
X1123974Y-206693D01*
X1122475D01*
X1121350Y-206318D01*
X1120975Y-205943D01*
X1120601Y-205193D01*
Y-204069D01*
X1120975Y-203319D01*
X1121725Y-202569D01*
X1122850Y-202194D01*
X1124349Y-201820D01*
X1125099Y-201445D01*
X1125474Y-200695D01*
Y-199945D01*
X1125099Y-199196D01*
X1123974Y-198821D01*
X1122475D01*
X1132109D02*
X1128360D01*
X1127985Y-202194D01*
X1128360Y-201820D01*
X1129485Y-201445D01*
X1130610D01*
X1131734Y-201820D01*
X1132484Y-202569D01*
X1132859Y-203694D01*
Y-204444D01*
X1132484Y-205568D01*
X1131734Y-206318D01*
X1130610Y-206693D01*
X1129485D01*
X1128360Y-206318D01*
X1127985Y-205943D01*
X1127611Y-205193D01*
X1139119Y-199945D02*
X1138744Y-199196D01*
X1137620Y-198821D01*
X1136870D01*
X1135745Y-199196D01*
X1134996Y-200320D01*
X1134621Y-202194D01*
Y-204069D01*
X1134996Y-205568D01*
X1135745Y-206318D01*
X1136870Y-206693D01*
X1137245D01*
X1138369Y-206318D01*
X1139119Y-205568D01*
X1139494Y-204444D01*
Y-204069D01*
X1139119Y-202944D01*
X1138369Y-202194D01*
X1137245Y-201820D01*
X1136870D01*
X1135745Y-202194D01*
X1134996Y-202944D01*
X1134621Y-204069D01*
X1141968Y-198821D02*
X1146092D01*
X1143843Y-201820D01*
X1144967D01*
X1145717Y-202194D01*
X1146092Y-202569D01*
X1146467Y-203694D01*
Y-204444D01*
X1146092Y-205568D01*
X1145342Y-206318D01*
X1144217Y-206693D01*
X1143093D01*
X1141968Y-206318D01*
X1141593Y-205943D01*
X1141218Y-205193D01*
X1150103Y-198821D02*
X1148978Y-199196D01*
X1148604Y-199945D01*
Y-200695D01*
X1148978Y-201445D01*
X1149728Y-201820D01*
X1151228Y-202194D01*
X1152352Y-202569D01*
X1153102Y-203319D01*
X1153477Y-204069D01*
Y-205193D01*
X1153102Y-205943D01*
X1152727Y-206318D01*
X1151602Y-206693D01*
X1150103D01*
X1148978Y-206318D01*
X1148604Y-205943D01*
X1148229Y-205193D01*
Y-204069D01*
X1148604Y-203319D01*
X1149353Y-202569D01*
X1150478Y-202194D01*
X1151977Y-201820D01*
X1152727Y-201445D01*
X1153102Y-200695D01*
Y-199945D01*
X1152727Y-199196D01*
X1151602Y-198821D01*
X1150103D01*
X1158238D02*
X1157488D01*
X1156738Y-199196D01*
X1156363Y-200320D01*
Y-206693D01*
X1155239Y-201445D02*
X1157863D01*
X1165548Y-199570D02*
Y-207068D01*
X1165923Y-199570D02*
Y-207068D01*
X1165548Y-199570D02*
X1167422D01*
X1165548Y-207068D02*
X1167422D01*
X1168434Y-198821D02*
Y-206693D01*
X1172933D01*
X1175669Y-201445D02*
X1174920Y-201820D01*
X1174170Y-202569D01*
X1173795Y-203694D01*
Y-204444D01*
X1174170Y-205568D01*
X1174920Y-206318D01*
X1175669Y-206693D01*
X1176794D01*
X1177544Y-206318D01*
X1178293Y-205568D01*
X1178668Y-204444D01*
Y-203694D01*
X1178293Y-202569D01*
X1177544Y-201820D01*
X1176794Y-201445D01*
X1175669D01*
X1184891Y-202569D02*
X1184142Y-201820D01*
X1183392Y-201445D01*
X1182267D01*
X1181517Y-201820D01*
X1180768Y-202569D01*
X1180393Y-203694D01*
Y-204444D01*
X1180768Y-205568D01*
X1181517Y-206318D01*
X1182267Y-206693D01*
X1183392D01*
X1184142Y-206318D01*
X1184891Y-205568D01*
X1191077Y-201445D02*
Y-206693D01*
Y-202569D02*
X1190327Y-201820D01*
X1189577Y-201445D01*
X1188453D01*
X1187703Y-201820D01*
X1186953Y-202569D01*
X1186578Y-203694D01*
Y-204444D01*
X1186953Y-205568D01*
X1187703Y-206318D01*
X1188453Y-206693D01*
X1189577D01*
X1190327Y-206318D01*
X1191077Y-205568D01*
X1193176Y-198821D02*
Y-206693D01*
X1194825Y-198821D02*
Y-206693D01*
X1196850Y-201445D02*
X1199099Y-206693D01*
X1201348Y-201445D02*
X1199099Y-206693D01*
X1198349Y-208192D01*
X1197599Y-208942D01*
X1196850Y-209317D01*
X1196475D01*
X1208846Y-198821D02*
Y-206693D01*
Y-198821D02*
X1211845Y-206693D01*
X1214843Y-198821D02*
X1211845Y-206693D01*
X1214843Y-198821D02*
Y-206693D01*
X1218967Y-201445D02*
X1218217Y-201820D01*
X1217468Y-202569D01*
X1217093Y-203694D01*
Y-204444D01*
X1217468Y-205568D01*
X1218217Y-206318D01*
X1218967Y-206693D01*
X1220092D01*
X1220842Y-206318D01*
X1221591Y-205568D01*
X1221966Y-204444D01*
Y-203694D01*
X1221591Y-202569D01*
X1220842Y-201820D01*
X1220092Y-201445D01*
X1218967D01*
X1228189Y-198821D02*
Y-206693D01*
Y-202569D02*
X1227439Y-201820D01*
X1226690Y-201445D01*
X1225565D01*
X1224815Y-201820D01*
X1224065Y-202569D01*
X1223691Y-203694D01*
Y-204444D01*
X1224065Y-205568D01*
X1224815Y-206318D01*
X1225565Y-206693D01*
X1226690D01*
X1227439Y-206318D01*
X1228189Y-205568D01*
X1231038Y-198821D02*
X1231413Y-199196D01*
X1231788Y-198821D01*
X1231413Y-198446D01*
X1231038Y-198821D01*
X1231413Y-201445D02*
Y-206693D01*
X1236174Y-198821D02*
X1235424D01*
X1234674Y-199196D01*
X1234299Y-200320D01*
Y-206693D01*
X1233175Y-201445D02*
X1235799D01*
X1238048Y-198821D02*
X1238423Y-199196D01*
X1238798Y-198821D01*
X1238423Y-198446D01*
X1238048Y-198821D01*
X1238423Y-201445D02*
Y-206693D01*
X1240185Y-203694D02*
X1244683D01*
Y-202944D01*
X1244308Y-202194D01*
X1243934Y-201820D01*
X1243184Y-201445D01*
X1242059D01*
X1241310Y-201820D01*
X1240560Y-202569D01*
X1240185Y-203694D01*
Y-204444D01*
X1240560Y-205568D01*
X1241310Y-206318D01*
X1242059Y-206693D01*
X1243184D01*
X1243934Y-206318D01*
X1244683Y-205568D01*
X1250869Y-198821D02*
Y-206693D01*
Y-202569D02*
X1250119Y-201820D01*
X1249369Y-201445D01*
X1248245D01*
X1247495Y-201820D01*
X1246745Y-202569D01*
X1246370Y-203694D01*
Y-204444D01*
X1246745Y-205568D01*
X1247495Y-206318D01*
X1248245Y-206693D01*
X1249369D01*
X1250119Y-206318D01*
X1250869Y-205568D01*
X1254468Y-199570D02*
Y-207068D01*
X1254842Y-199570D02*
Y-207068D01*
X1252968Y-199570D02*
X1254842D01*
X1252968Y-207068D02*
X1254842D01*
X895789Y-171262D02*
X899913D01*
X897663Y-174260D01*
X898788D01*
X899538Y-174635D01*
X899913Y-175010D01*
X900288Y-176135D01*
Y-176885D01*
X899913Y-178009D01*
X899163Y-178759D01*
X898038Y-179134D01*
X896914D01*
X895789Y-178759D01*
X895414Y-178384D01*
X895039Y-177634D01*
X904299Y-171262D02*
X903174Y-171636D01*
X902424Y-172761D01*
X902050Y-174635D01*
Y-175760D01*
X902424Y-177634D01*
X903174Y-178759D01*
X904299Y-179134D01*
X905048D01*
X906173Y-178759D01*
X906923Y-177634D01*
X907298Y-175760D01*
Y-174635D01*
X906923Y-172761D01*
X906173Y-171636D01*
X905048Y-171262D01*
X904299D01*
X909435Y-178384D02*
X909060Y-178759D01*
X909435Y-179134D01*
X909809Y-178759D01*
X909435Y-178384D01*
X913783Y-171262D02*
X912658Y-171636D01*
X911909Y-172761D01*
X911534Y-174635D01*
Y-175760D01*
X911909Y-177634D01*
X912658Y-178759D01*
X913783Y-179134D01*
X914533D01*
X915657Y-178759D01*
X916407Y-177634D01*
X916782Y-175760D01*
Y-174635D01*
X916407Y-172761D01*
X915657Y-171636D01*
X914533Y-171262D01*
X913783D01*
X923417Y-173886D02*
X923042Y-175010D01*
X922293Y-175760D01*
X921168Y-176135D01*
X920793D01*
X919668Y-175760D01*
X918919Y-175010D01*
X918544Y-173886D01*
Y-173511D01*
X918919Y-172386D01*
X919668Y-171636D01*
X920793Y-171262D01*
X921168D01*
X922293Y-171636D01*
X923042Y-172386D01*
X923417Y-173886D01*
Y-175760D01*
X923042Y-177634D01*
X922293Y-178759D01*
X921168Y-179134D01*
X920418D01*
X919294Y-178759D01*
X918919Y-178009D01*
X925929Y-178384D02*
X925554Y-178759D01*
X925929Y-179134D01*
X926304Y-178759D01*
X925929Y-178384D01*
X928403Y-173136D02*
Y-172761D01*
X928778Y-172011D01*
X929153Y-171636D01*
X929903Y-171262D01*
X931402D01*
X932152Y-171636D01*
X932527Y-172011D01*
X932902Y-172761D01*
Y-173511D01*
X932527Y-174260D01*
X931777Y-175385D01*
X928028Y-179134D01*
X933276D01*
X937288Y-171262D02*
X936163Y-171636D01*
X935413Y-172761D01*
X935038Y-174635D01*
Y-175760D01*
X935413Y-177634D01*
X936163Y-178759D01*
X937288Y-179134D01*
X938037D01*
X939162Y-178759D01*
X939912Y-177634D01*
X940287Y-175760D01*
Y-174635D01*
X939912Y-172761D01*
X939162Y-171636D01*
X938037Y-171262D01*
X937288D01*
X942423Y-173136D02*
Y-172761D01*
X942798Y-172011D01*
X943173Y-171636D01*
X943923Y-171262D01*
X945422D01*
X946172Y-171636D01*
X946547Y-172011D01*
X946922Y-172761D01*
Y-173511D01*
X946547Y-174260D01*
X945797Y-175385D01*
X942048Y-179134D01*
X947297D01*
X949059Y-172761D02*
X949808Y-172386D01*
X950933Y-171262D01*
Y-179134D01*
X722458Y-167324D02*
Y-175197D01*
X724107Y-169949D02*
Y-175197D01*
Y-171448D02*
X725232Y-170324D01*
X725981Y-169949D01*
X727106D01*
X727856Y-170324D01*
X728231Y-171448D01*
Y-175197D01*
X733291Y-167324D02*
X732542D01*
X731792Y-167699D01*
X731417Y-168824D01*
Y-175197D01*
X730292Y-169949D02*
X732916D01*
X735166Y-167324D02*
X735541Y-167699D01*
X735916Y-167324D01*
X735541Y-166950D01*
X735166Y-167324D01*
X735541Y-169949D02*
Y-175197D01*
X737302Y-169949D02*
Y-175197D01*
Y-171448D02*
X738427Y-170324D01*
X739177Y-169949D01*
X740302D01*
X741051Y-170324D01*
X741426Y-171448D01*
Y-175197D01*
X743488Y-172198D02*
X747986D01*
Y-171448D01*
X747612Y-170698D01*
X747237Y-170324D01*
X746487Y-169949D01*
X745362D01*
X744613Y-170324D01*
X743863Y-171073D01*
X743488Y-172198D01*
Y-172948D01*
X743863Y-174072D01*
X744613Y-174822D01*
X745362Y-175197D01*
X746487D01*
X747237Y-174822D01*
X747986Y-174072D01*
X751548Y-169949D02*
X750798Y-170324D01*
X750048Y-171073D01*
X749673Y-172198D01*
Y-172948D01*
X750048Y-174072D01*
X750798Y-174822D01*
X751548Y-175197D01*
X752672D01*
X753422Y-174822D01*
X754172Y-174072D01*
X754547Y-172948D01*
Y-172198D01*
X754172Y-171073D01*
X753422Y-170324D01*
X752672Y-169949D01*
X751548D01*
X756271D02*
Y-175197D01*
Y-171448D02*
X757396Y-170324D01*
X758145Y-169949D01*
X759270D01*
X760020Y-170324D01*
X760395Y-171448D01*
Y-175197D01*
X771266Y-167324D02*
Y-175197D01*
X768642Y-167324D02*
X773890D01*
X774827Y-172198D02*
X779326D01*
Y-171448D01*
X778951Y-170698D01*
X778576Y-170324D01*
X777826Y-169949D01*
X776702D01*
X775952Y-170324D01*
X775202Y-171073D01*
X774827Y-172198D01*
Y-172948D01*
X775202Y-174072D01*
X775952Y-174822D01*
X776702Y-175197D01*
X777826D01*
X778576Y-174822D01*
X779326Y-174072D01*
X785511Y-171073D02*
X784761Y-170324D01*
X784012Y-169949D01*
X782887D01*
X782137Y-170324D01*
X781388Y-171073D01*
X781013Y-172198D01*
Y-172948D01*
X781388Y-174072D01*
X782137Y-174822D01*
X782887Y-175197D01*
X784012D01*
X784761Y-174822D01*
X785511Y-174072D01*
X787198Y-167324D02*
Y-175197D01*
Y-171448D02*
X788323Y-170324D01*
X789072Y-169949D01*
X790197D01*
X790947Y-170324D01*
X791322Y-171448D01*
Y-175197D01*
X793384Y-169949D02*
Y-175197D01*
Y-171448D02*
X794508Y-170324D01*
X795258Y-169949D01*
X796382D01*
X797132Y-170324D01*
X797507Y-171448D01*
Y-175197D01*
X801443Y-169949D02*
X800694Y-170324D01*
X799944Y-171073D01*
X799569Y-172198D01*
Y-172948D01*
X799944Y-174072D01*
X800694Y-174822D01*
X801443Y-175197D01*
X802568D01*
X803318Y-174822D01*
X804067Y-174072D01*
X804442Y-172948D01*
Y-172198D01*
X804067Y-171073D01*
X803318Y-170324D01*
X802568Y-169949D01*
X801443D01*
X806167Y-167324D02*
Y-175197D01*
X809690Y-169949D02*
X808941Y-170324D01*
X808191Y-171073D01*
X807816Y-172198D01*
Y-172948D01*
X808191Y-174072D01*
X808941Y-174822D01*
X809690Y-175197D01*
X810815D01*
X811565Y-174822D01*
X812315Y-174072D01*
X812689Y-172948D01*
Y-172198D01*
X812315Y-171073D01*
X811565Y-170324D01*
X810815Y-169949D01*
X809690D01*
X818912D02*
Y-175947D01*
X818537Y-177071D01*
X818163Y-177446D01*
X817413Y-177821D01*
X816288D01*
X815539Y-177446D01*
X818912Y-171073D02*
X818163Y-170324D01*
X817413Y-169949D01*
X816288D01*
X815539Y-170324D01*
X814789Y-171073D01*
X814414Y-172198D01*
Y-172948D01*
X814789Y-174072D01*
X815539Y-174822D01*
X816288Y-175197D01*
X817413D01*
X818163Y-174822D01*
X818912Y-174072D01*
X821761Y-167324D02*
X822136Y-167699D01*
X822511Y-167324D01*
X822136Y-166950D01*
X821761Y-167324D01*
X822136Y-169949D02*
Y-175197D01*
X823898Y-172198D02*
X828397D01*
Y-171448D01*
X828022Y-170698D01*
X827647Y-170324D01*
X826897Y-169949D01*
X825772D01*
X825023Y-170324D01*
X824273Y-171073D01*
X823898Y-172198D01*
Y-172948D01*
X824273Y-174072D01*
X825023Y-174822D01*
X825772Y-175197D01*
X826897D01*
X827647Y-174822D01*
X828397Y-174072D01*
X834207Y-171073D02*
X833832Y-170324D01*
X832708Y-169949D01*
X831583D01*
X830458Y-170324D01*
X830083Y-171073D01*
X830458Y-171823D01*
X831208Y-172198D01*
X833082Y-172573D01*
X833832Y-172948D01*
X834207Y-173697D01*
Y-174072D01*
X833832Y-174822D01*
X832708Y-175197D01*
X831583D01*
X830458Y-174822D01*
X830083Y-174072D01*
X848040Y-175197D02*
X845041Y-167324D01*
X842042Y-175197D01*
X843167Y-172573D02*
X846915D01*
X855500Y-169199D02*
X855125Y-168449D01*
X854375Y-167699D01*
X853625Y-167324D01*
X852126D01*
X851376Y-167699D01*
X850626Y-168449D01*
X850252Y-169199D01*
X849877Y-170324D01*
Y-172198D01*
X850252Y-173322D01*
X850626Y-174072D01*
X851376Y-174822D01*
X852126Y-175197D01*
X853625D01*
X854375Y-174822D01*
X855125Y-174072D01*
X855500Y-173322D01*
Y-172198D01*
X853625D02*
X855500D01*
X765118Y-179136D02*
Y-187008D01*
X766768Y-179136D02*
Y-187008D01*
Y-179136D02*
X771641D01*
X766768Y-182884D02*
X769767D01*
X778539Y-187008D02*
X775540Y-179136D01*
X772541Y-187008D01*
X773665Y-184384D02*
X777414D01*
X785998Y-181010D02*
X785624Y-180260D01*
X784874Y-179510D01*
X784124Y-179136D01*
X782625D01*
X781875Y-179510D01*
X781125Y-180260D01*
X780750Y-181010D01*
X780375Y-182134D01*
Y-184009D01*
X780750Y-185134D01*
X781125Y-185883D01*
X781875Y-186633D01*
X782625Y-187008D01*
X784124D01*
X784874Y-186633D01*
X785624Y-185883D01*
X785998Y-185134D01*
Y-184009D01*
X784124D02*
X785998D01*
X793983Y-179136D02*
Y-187008D01*
Y-179136D02*
X796607D01*
X797732Y-179510D01*
X798482Y-180260D01*
X798857Y-181010D01*
X799231Y-182134D01*
Y-184009D01*
X798857Y-185134D01*
X798482Y-185883D01*
X797732Y-186633D01*
X796607Y-187008D01*
X793983D01*
X805867Y-179136D02*
X800994D01*
Y-187008D01*
X805867D01*
X800994Y-182884D02*
X803992D01*
X812427Y-180260D02*
X811677Y-179510D01*
X810553Y-179136D01*
X809053D01*
X807929Y-179510D01*
X807179Y-180260D01*
Y-181010D01*
X807554Y-181760D01*
X807929Y-182134D01*
X808678Y-182509D01*
X810928Y-183259D01*
X811677Y-183634D01*
X812052Y-184009D01*
X812427Y-184759D01*
Y-185883D01*
X811677Y-186633D01*
X810553Y-187008D01*
X809053D01*
X807929Y-186633D01*
X807179Y-185883D01*
X825623Y-180260D02*
X824873Y-179510D01*
X823748Y-179136D01*
X822249D01*
X821124Y-179510D01*
X820374Y-180260D01*
Y-181010D01*
X820749Y-181760D01*
X821124Y-182134D01*
X821874Y-182509D01*
X824123Y-183259D01*
X824873Y-183634D01*
X825248Y-184009D01*
X825623Y-184759D01*
Y-185883D01*
X824873Y-186633D01*
X823748Y-187008D01*
X822249D01*
X821124Y-186633D01*
X820374Y-185883D01*
X827384Y-179136D02*
Y-187008D01*
Y-179136D02*
X830009D01*
X831133Y-179510D01*
X831883Y-180260D01*
X832258Y-181010D01*
X832633Y-182134D01*
Y-184009D01*
X832258Y-185134D01*
X831883Y-185883D01*
X831133Y-186633D01*
X830009Y-187008D01*
X827384D01*
X834395Y-179136D02*
Y-187008D01*
Y-179136D02*
X839268D01*
X834395Y-182884D02*
X837394D01*
X851601Y-180260D02*
X850852Y-179510D01*
X849727Y-179136D01*
X848227D01*
X847103Y-179510D01*
X846353Y-180260D01*
Y-181010D01*
X846728Y-181760D01*
X847103Y-182134D01*
X847853Y-182509D01*
X850102Y-183259D01*
X850852Y-183634D01*
X851226Y-184009D01*
X851601Y-184759D01*
Y-185883D01*
X850852Y-186633D01*
X849727Y-187008D01*
X848227D01*
X847103Y-186633D01*
X846353Y-185883D01*
X858986Y-181010D02*
X858611Y-180260D01*
X857862Y-179510D01*
X857112Y-179136D01*
X855612D01*
X854863Y-179510D01*
X854113Y-180260D01*
X853738Y-181010D01*
X853363Y-182134D01*
Y-184009D01*
X853738Y-185134D01*
X854113Y-185883D01*
X854863Y-186633D01*
X855612Y-187008D01*
X857112D01*
X857862Y-186633D01*
X858611Y-185883D01*
X858986Y-185134D01*
X866446Y-180260D02*
X865697Y-179510D01*
X864572Y-179136D01*
X863072D01*
X861948Y-179510D01*
X861198Y-180260D01*
Y-181010D01*
X861573Y-181760D01*
X861948Y-182134D01*
X862698Y-182509D01*
X864947Y-183259D01*
X865697Y-183634D01*
X866071Y-184009D01*
X866446Y-184759D01*
Y-185883D01*
X865697Y-186633D01*
X864572Y-187008D01*
X863072D01*
X861948Y-186633D01*
X861198Y-185883D01*
X879267Y-179136D02*
X874394D01*
Y-187008D01*
X879267D01*
X874394Y-182884D02*
X877393D01*
X880579Y-183259D02*
X883953D01*
X885077Y-182884D01*
X885452Y-182509D01*
X885827Y-181760D01*
Y-180635D01*
X885452Y-179885D01*
X885077Y-179510D01*
X883953Y-179136D01*
X880579D01*
Y-187008D01*
X892463Y-179136D02*
X887589D01*
Y-187008D01*
X892463D01*
X887589Y-182884D02*
X890588D01*
X749880Y-198819D02*
X746880Y-190947D01*
X743882Y-198819D01*
X745006Y-196195D02*
X748755D01*
X751716Y-193571D02*
Y-198819D01*
Y-195070D02*
X752841Y-193946D01*
X753591Y-193571D01*
X754715D01*
X755465Y-193946D01*
X755840Y-195070D01*
Y-198819D01*
Y-195070D02*
X756965Y-193946D01*
X757714Y-193571D01*
X758839D01*
X759589Y-193946D01*
X759964Y-195070D01*
Y-198819D01*
X774246Y-192821D02*
X773871Y-192071D01*
X773122Y-191322D01*
X772372Y-190947D01*
X770872D01*
X770123Y-191322D01*
X769373Y-192071D01*
X768998Y-192821D01*
X768623Y-193946D01*
Y-195820D01*
X768998Y-196944D01*
X769373Y-197694D01*
X770123Y-198444D01*
X770872Y-198819D01*
X772372D01*
X773122Y-198444D01*
X773871Y-197694D01*
X774246Y-196944D01*
X780957Y-193571D02*
Y-198819D01*
Y-194695D02*
X780207Y-193946D01*
X779457Y-193571D01*
X778332D01*
X777583Y-193946D01*
X776833Y-194695D01*
X776458Y-195820D01*
Y-196570D01*
X776833Y-197694D01*
X777583Y-198444D01*
X778332Y-198819D01*
X779457D01*
X780207Y-198444D01*
X780957Y-197694D01*
X783056Y-193571D02*
Y-198819D01*
Y-195070D02*
X784180Y-193946D01*
X784930Y-193571D01*
X786055D01*
X786804Y-193946D01*
X787179Y-195070D01*
Y-198819D01*
Y-195070D02*
X788304Y-193946D01*
X789054Y-193571D01*
X790178D01*
X790928Y-193946D01*
X791303Y-195070D01*
Y-198819D01*
X793777Y-193571D02*
Y-201443D01*
Y-194695D02*
X794527Y-193946D01*
X795277Y-193571D01*
X796401D01*
X797151Y-193946D01*
X797901Y-194695D01*
X798276Y-195820D01*
Y-196570D01*
X797901Y-197694D01*
X797151Y-198444D01*
X796401Y-198819D01*
X795277D01*
X794527Y-198444D01*
X793777Y-197694D01*
X799963Y-195820D02*
X804461D01*
Y-195070D01*
X804086Y-194320D01*
X803711Y-193946D01*
X802962Y-193571D01*
X801837D01*
X801087Y-193946D01*
X800337Y-194695D01*
X799963Y-195820D01*
Y-196570D01*
X800337Y-197694D01*
X801087Y-198444D01*
X801837Y-198819D01*
X802962D01*
X803711Y-198444D01*
X804461Y-197694D01*
X808022Y-193571D02*
X807273Y-193946D01*
X806523Y-194695D01*
X806148Y-195820D01*
Y-196570D01*
X806523Y-197694D01*
X807273Y-198444D01*
X808022Y-198819D01*
X809147D01*
X809897Y-198444D01*
X810646Y-197694D01*
X811021Y-196570D01*
Y-195820D01*
X810646Y-194695D01*
X809897Y-193946D01*
X809147Y-193571D01*
X808022D01*
X812746D02*
Y-198819D01*
Y-195070D02*
X813870Y-193946D01*
X814620Y-193571D01*
X815745D01*
X816494Y-193946D01*
X816869Y-195070D01*
Y-198819D01*
X825117Y-192446D02*
X825866Y-192071D01*
X826991Y-190947D01*
Y-198819D01*
X830890Y-195445D02*
X837637D01*
X839962Y-192446D02*
X840711Y-192071D01*
X841836Y-190947D01*
Y-198819D01*
X846109Y-192821D02*
Y-192446D01*
X846484Y-191696D01*
X846859Y-191322D01*
X847609Y-190947D01*
X849108D01*
X849858Y-191322D01*
X850233Y-191696D01*
X850608Y-192446D01*
Y-193196D01*
X850233Y-193946D01*
X849483Y-195070D01*
X845735Y-198819D01*
X850983D01*
X714042Y-202758D02*
X712917Y-203133D01*
X712542Y-203882D01*
Y-204632D01*
X712917Y-205382D01*
X713667Y-205757D01*
X715166Y-206131D01*
X716291Y-206506D01*
X717041Y-207256D01*
X717416Y-208006D01*
Y-209130D01*
X717041Y-209880D01*
X716666Y-210255D01*
X715541Y-210630D01*
X714042D01*
X712917Y-210255D01*
X712542Y-209880D01*
X712167Y-209130D01*
Y-208006D01*
X712542Y-207256D01*
X713292Y-206506D01*
X714417Y-206131D01*
X715916Y-205757D01*
X716666Y-205382D01*
X717041Y-204632D01*
Y-203882D01*
X716666Y-203133D01*
X715541Y-202758D01*
X714042D01*
X723676D02*
X719927D01*
X719552Y-206131D01*
X719927Y-205757D01*
X721052Y-205382D01*
X722176D01*
X723301Y-205757D01*
X724051Y-206506D01*
X724426Y-207631D01*
Y-208381D01*
X724051Y-209505D01*
X723301Y-210255D01*
X722176Y-210630D01*
X721052D01*
X719927Y-210255D01*
X719552Y-209880D01*
X719177Y-209130D01*
X730686Y-202758D02*
X726937D01*
X726562Y-206131D01*
X726937Y-205757D01*
X728062Y-205382D01*
X729186D01*
X730311Y-205757D01*
X731061Y-206506D01*
X731436Y-207631D01*
Y-208381D01*
X731061Y-209505D01*
X730311Y-210255D01*
X729186Y-210630D01*
X728062D01*
X726937Y-210255D01*
X726562Y-209880D01*
X726188Y-209130D01*
X738446Y-202758D02*
X734697Y-210630D01*
X733198Y-202758D02*
X738446D01*
X745081Y-205382D02*
X744706Y-206506D01*
X743957Y-207256D01*
X742832Y-207631D01*
X742457D01*
X741332Y-207256D01*
X740583Y-206506D01*
X740208Y-205382D01*
Y-205007D01*
X740583Y-203882D01*
X741332Y-203133D01*
X742457Y-202758D01*
X742832D01*
X743957Y-203133D01*
X744706Y-203882D01*
X745081Y-205382D01*
Y-207256D01*
X744706Y-209130D01*
X743957Y-210255D01*
X742832Y-210630D01*
X742082D01*
X740957Y-210255D01*
X740583Y-209505D01*
X753403Y-202758D02*
Y-210630D01*
Y-202758D02*
X758651Y-210630D01*
Y-202758D02*
Y-210630D01*
X765699Y-202758D02*
X760826D01*
Y-210630D01*
X765699D01*
X760826Y-206506D02*
X763825D01*
X767011Y-202758D02*
Y-208381D01*
X767386Y-209505D01*
X768136Y-210255D01*
X769261Y-210630D01*
X770010D01*
X771135Y-210255D01*
X771885Y-209505D01*
X772259Y-208381D01*
Y-202758D01*
X774434D02*
Y-210630D01*
Y-202758D02*
X777808D01*
X778932Y-203133D01*
X779307Y-203507D01*
X779682Y-204257D01*
Y-205007D01*
X779307Y-205757D01*
X778932Y-206131D01*
X777808Y-206506D01*
X774434D02*
X777808D01*
X778932Y-206881D01*
X779307Y-207256D01*
X779682Y-208006D01*
Y-209130D01*
X779307Y-209880D01*
X778932Y-210255D01*
X777808Y-210630D01*
X774434D01*
X781444Y-202758D02*
Y-210630D01*
X783093Y-202758D02*
Y-210630D01*
Y-202758D02*
X786467D01*
X787592Y-203133D01*
X787967Y-203507D01*
X788342Y-204257D01*
Y-205007D01*
X787967Y-205757D01*
X787592Y-206131D01*
X786467Y-206506D01*
X783093D02*
X786467D01*
X787592Y-206881D01*
X787967Y-207256D01*
X788342Y-208006D01*
Y-209130D01*
X787967Y-209880D01*
X787592Y-210255D01*
X786467Y-210630D01*
X783093D01*
X794977Y-202758D02*
X790103D01*
Y-210630D01*
X794977D01*
X790103Y-206506D02*
X793102D01*
X796289Y-202758D02*
Y-210630D01*
Y-202758D02*
X799663D01*
X800787Y-203133D01*
X801162Y-203507D01*
X801537Y-204257D01*
Y-205007D01*
X801162Y-205757D01*
X800787Y-206131D01*
X799663Y-206506D01*
X796289D01*
X798913D02*
X801537Y-210630D01*
X808922Y-204632D02*
X808547Y-203882D01*
X807797Y-203133D01*
X807048Y-202758D01*
X805548D01*
X804798Y-203133D01*
X804049Y-203882D01*
X803674Y-204632D01*
X803299Y-205757D01*
Y-207631D01*
X803674Y-208756D01*
X804049Y-209505D01*
X804798Y-210255D01*
X805548Y-210630D01*
X807048D01*
X807797Y-210255D01*
X808547Y-209505D01*
X808922Y-208756D01*
Y-207631D01*
X807048D02*
X808922D01*
X816907Y-207256D02*
X823654D01*
X837787Y-204632D02*
X837412Y-203882D01*
X836663Y-203133D01*
X835913Y-202758D01*
X834413D01*
X833664Y-203133D01*
X832914Y-203882D01*
X832539Y-204632D01*
X832164Y-205757D01*
Y-207631D01*
X832539Y-208756D01*
X832914Y-209505D01*
X833664Y-210255D01*
X834413Y-210630D01*
X835913D01*
X836663Y-210255D01*
X837412Y-209505D01*
X837787Y-208756D01*
Y-207631D01*
X835913D02*
X837787D01*
X844460Y-202758D02*
X839587D01*
Y-210630D01*
X844460D01*
X839587Y-206506D02*
X842586D01*
X845772Y-202758D02*
Y-210630D01*
Y-202758D02*
X849146D01*
X850270Y-203133D01*
X850645Y-203507D01*
X851020Y-204257D01*
Y-205007D01*
X850645Y-205757D01*
X850270Y-206131D01*
X849146Y-206506D01*
X845772D01*
X848396D02*
X851020Y-210630D01*
X852782Y-202758D02*
Y-210630D01*
Y-202758D02*
X855781Y-210630D01*
X858780Y-202758D02*
X855781Y-210630D01*
X858780Y-202758D02*
Y-210630D01*
X867027D02*
X864028Y-202758D01*
X861029Y-210630D01*
X862154Y-208006D02*
X865903D01*
X868864Y-202758D02*
Y-210630D01*
Y-202758D02*
X874112Y-210630D01*
Y-202758D02*
Y-210630D01*
X876287Y-202758D02*
X879286Y-206506D01*
Y-210630D01*
X882285Y-202758D02*
X879286Y-206506D01*
X1241496Y-171262D02*
Y-179134D01*
Y-171262D02*
X1244870D01*
X1245994Y-171636D01*
X1246369Y-172011D01*
X1246744Y-172761D01*
Y-173511D01*
X1246369Y-174260D01*
X1245994Y-174635D01*
X1244870Y-175010D01*
X1241496D01*
X1244120D02*
X1246744Y-179134D01*
X1254129Y-173136D02*
X1253754Y-172386D01*
X1253005Y-171636D01*
X1252255Y-171262D01*
X1250755D01*
X1250006Y-171636D01*
X1249256Y-172386D01*
X1248881Y-173136D01*
X1248506Y-174260D01*
Y-176135D01*
X1248881Y-177260D01*
X1249256Y-178009D01*
X1250006Y-178759D01*
X1250755Y-179134D01*
X1252255D01*
X1253005Y-178759D01*
X1253754Y-178009D01*
X1254129Y-177260D01*
X1258590Y-171262D02*
X1257466Y-171636D01*
X1256716Y-172761D01*
X1256341Y-174635D01*
Y-175760D01*
X1256716Y-177634D01*
X1257466Y-178759D01*
X1258590Y-179134D01*
X1259340D01*
X1260465Y-178759D01*
X1261214Y-177634D01*
X1261589Y-175760D01*
Y-174635D01*
X1261214Y-172761D01*
X1260465Y-171636D01*
X1259340Y-171262D01*
X1258590D01*
X1263351Y-172761D02*
X1264101Y-172386D01*
X1265226Y-171262D01*
Y-179134D01*
X1292677Y-171262D02*
X1295676Y-179134D01*
X1298675Y-171262D02*
X1295676Y-179134D01*
X1299687Y-172761D02*
X1300437Y-172386D01*
X1301562Y-171262D01*
Y-179134D01*
X1305835Y-178384D02*
X1305460Y-178759D01*
X1305835Y-179134D01*
X1306210Y-178759D01*
X1305835Y-178384D01*
X1308309Y-173136D02*
Y-172761D01*
X1308684Y-172011D01*
X1309059Y-171636D01*
X1309809Y-171262D01*
X1311308D01*
X1312058Y-171636D01*
X1312433Y-172011D01*
X1312808Y-172761D01*
Y-173511D01*
X1312433Y-174260D01*
X1311683Y-175385D01*
X1307934Y-179134D01*
X1313183D01*
X1300551Y-200320D02*
X1301301Y-199945D01*
X1302425Y-198821D01*
Y-206693D01*
X1306699Y-201445D02*
X1306324Y-201820D01*
X1306699Y-202194D01*
X1307074Y-201820D01*
X1306699Y-201445D01*
Y-205943D02*
X1306324Y-206318D01*
X1306699Y-206693D01*
X1307074Y-206318D01*
X1306699Y-205943D01*
X1308798Y-200320D02*
X1309548Y-199945D01*
X1310673Y-198821D01*
Y-206693D01*
X901037Y-151575D02*
X898038Y-143702D01*
X895039Y-151575D01*
X896164Y-148951D02*
X899913D01*
X907373Y-143702D02*
Y-151575D01*
Y-147451D02*
X906623Y-146702D01*
X905873Y-146327D01*
X904749D01*
X903999Y-146702D01*
X903249Y-147451D01*
X902874Y-148576D01*
Y-149326D01*
X903249Y-150450D01*
X903999Y-151200D01*
X904749Y-151575D01*
X905873D01*
X906623Y-151200D01*
X907373Y-150450D01*
X909472Y-146327D02*
Y-151575D01*
Y-148576D02*
X909847Y-147451D01*
X910597Y-146702D01*
X911346Y-146327D01*
X912471D01*
X913933Y-143702D02*
X914308Y-144077D01*
X914683Y-143702D01*
X914308Y-143328D01*
X913933Y-143702D01*
X914308Y-146327D02*
Y-151575D01*
X920568Y-146327D02*
Y-151575D01*
Y-147451D02*
X919818Y-146702D01*
X919069Y-146327D01*
X917944D01*
X917194Y-146702D01*
X916445Y-147451D01*
X916070Y-148576D01*
Y-149326D01*
X916445Y-150450D01*
X917194Y-151200D01*
X917944Y-151575D01*
X919069D01*
X919818Y-151200D01*
X920568Y-150450D01*
X922668Y-146327D02*
Y-151575D01*
Y-147826D02*
X923792Y-146702D01*
X924542Y-146327D01*
X925667D01*
X926416Y-146702D01*
X926791Y-147826D01*
Y-151575D01*
X935038Y-143702D02*
Y-151575D01*
X940287Y-143702D02*
X935038Y-148951D01*
X936913Y-147076D02*
X940287Y-151575D01*
X942048Y-148576D02*
X946547D01*
Y-147826D01*
X946172Y-147076D01*
X945797Y-146702D01*
X945047Y-146327D01*
X943923D01*
X943173Y-146702D01*
X942423Y-147451D01*
X942048Y-148576D01*
Y-149326D01*
X942423Y-150450D01*
X943173Y-151200D01*
X943923Y-151575D01*
X945047D01*
X945797Y-151200D01*
X946547Y-150450D01*
X948984Y-143702D02*
X949358Y-144077D01*
X949733Y-143702D01*
X949358Y-143328D01*
X948984Y-143702D01*
X949358Y-146327D02*
Y-151575D01*
X951120Y-143702D02*
Y-151575D01*
M02*
