G04*
G04 #@! TF.GenerationSoftware,Altium Limited,Altium Designer,21.2.1 (34)*
G04*
G04 Layer_Color=32896*
%FSLAX25Y25*%
%MOIN*%
G70*
G04*
G04 #@! TF.SameCoordinates,E3247584-B976-4F33-B0A2-C8B4A793FEE3*
G04*
G04*
G04 #@! TF.FilePolarity,Positive*
G04*
G01*
G75*
%ADD10C,0.01181*%
%ADD13C,0.01000*%
D10*
X287819Y471895D02*
Y465992D01*
X283883D01*
X278963D02*
X280931D01*
X281915Y466976D01*
Y468943D01*
X280931Y469927D01*
X278963D01*
X277980Y468943D01*
Y467959D01*
X281915D01*
X275028Y469927D02*
X273060D01*
X272076Y468943D01*
Y465992D01*
X275028D01*
X276012Y466976D01*
X275028Y467959D01*
X272076D01*
X270108Y469927D02*
Y465992D01*
Y467959D01*
X269124Y468943D01*
X268140Y469927D01*
X267156D01*
X264205Y465992D02*
Y469927D01*
X261253D01*
X260269Y468943D01*
Y465992D01*
X258301D02*
X256333D01*
X257317D01*
Y469927D01*
X258301D01*
X253381Y465992D02*
Y469927D01*
X250429D01*
X249446Y468943D01*
Y465992D01*
X245510Y464024D02*
X244526D01*
X243542Y465008D01*
Y469927D01*
X246494D01*
X247478Y468943D01*
Y466976D01*
X246494Y465992D01*
X243542D01*
X235670D02*
Y471895D01*
X232719D01*
X231735Y470911D01*
Y468943D01*
X232719Y467959D01*
X235670D01*
X229767Y465992D02*
X227799D01*
X228783D01*
Y471895D01*
X229767D01*
X223863Y469927D02*
X221895D01*
X220911Y468943D01*
Y465992D01*
X223863D01*
X224847Y466976D01*
X223863Y467959D01*
X220911D01*
X217960Y470911D02*
Y469927D01*
X218944D01*
X216976D01*
X217960D01*
Y466976D01*
X216976Y465992D01*
X213040D02*
Y470911D01*
Y468943D01*
X214024D01*
X212056D01*
X213040D01*
Y470911D01*
X212056Y471895D01*
X208120Y465992D02*
X206152D01*
X205169Y466976D01*
Y468943D01*
X206152Y469927D01*
X208120D01*
X209104Y468943D01*
Y466976D01*
X208120Y465992D01*
X203201Y469927D02*
Y465992D01*
Y467959D01*
X202217Y468943D01*
X201233Y469927D01*
X200249D01*
X197297Y465992D02*
Y469927D01*
X196313D01*
X195329Y468943D01*
Y465992D01*
Y468943D01*
X194345Y469927D01*
X193361Y468943D01*
Y465992D01*
X184506D02*
Y470911D01*
Y468943D01*
X185490D01*
X183522D01*
X184506D01*
Y470911D01*
X183522Y471895D01*
X179586Y465992D02*
X177618D01*
X176634Y466976D01*
Y468943D01*
X177618Y469927D01*
X179586D01*
X180570Y468943D01*
Y466976D01*
X179586Y465992D01*
X174667Y469927D02*
Y465992D01*
Y467959D01*
X173683Y468943D01*
X172699Y469927D01*
X171715D01*
X158924Y470911D02*
X159907Y471895D01*
X161875D01*
X162859Y470911D01*
Y469927D01*
X161875Y468943D01*
X159907D01*
X158924Y467959D01*
Y466976D01*
X159907Y465992D01*
X161875D01*
X162859Y466976D01*
X156956Y469927D02*
Y466976D01*
X155972Y465992D01*
X154988Y466976D01*
X154004Y465992D01*
X153020Y466976D01*
Y469927D01*
X151052Y465992D02*
X149084D01*
X150068D01*
Y469927D01*
X151052D01*
X145149Y470911D02*
Y469927D01*
X146133D01*
X144165D01*
X145149D01*
Y466976D01*
X144165Y465992D01*
X137277Y469927D02*
X140229D01*
X141213Y468943D01*
Y466976D01*
X140229Y465992D01*
X137277D01*
X135309Y471895D02*
Y465992D01*
Y468943D01*
X134325Y469927D01*
X132357D01*
X131374Y468943D01*
Y465992D01*
X129406D02*
X127438D01*
X128422D01*
Y469927D01*
X129406D01*
X124486Y465992D02*
Y469927D01*
X121534D01*
X120550Y468943D01*
Y465992D01*
X116614Y464024D02*
X115630D01*
X114647Y465008D01*
Y469927D01*
X117598D01*
X118582Y468943D01*
Y466976D01*
X117598Y465992D01*
X114647D01*
X106775D02*
Y471895D01*
X103823D01*
X102839Y470911D01*
Y468943D01*
X103823Y467959D01*
X106775D01*
X104807D02*
X102839Y465992D01*
X97920D02*
X99888D01*
X100872Y466976D01*
Y468943D01*
X99888Y469927D01*
X97920D01*
X96936Y468943D01*
Y467959D01*
X100872D01*
X93000Y464024D02*
X92016D01*
X91032Y465008D01*
Y469927D01*
X93984D01*
X94968Y468943D01*
Y466976D01*
X93984Y465992D01*
X91032D01*
X89064Y469927D02*
Y466976D01*
X88080Y465992D01*
X85129D01*
Y469927D01*
X83161Y465992D02*
X81193D01*
X82177D01*
Y471895D01*
X83161D01*
X77257Y469927D02*
X75289D01*
X74305Y468943D01*
Y465992D01*
X77257D01*
X78241Y466976D01*
X77257Y467959D01*
X74305D01*
X71354Y470911D02*
Y469927D01*
X72338D01*
X70370D01*
X71354D01*
Y466976D01*
X70370Y465992D01*
X66434D02*
X64466D01*
X63482Y466976D01*
Y468943D01*
X64466Y469927D01*
X66434D01*
X67418Y468943D01*
Y466976D01*
X66434Y465992D01*
X61514Y469927D02*
Y465992D01*
Y467959D01*
X60530Y468943D01*
X59546Y469927D01*
X58562D01*
X55611Y465992D02*
X52659D01*
X51675Y466976D01*
X52659Y467959D01*
X54627D01*
X55611Y468943D01*
X54627Y469927D01*
X51675D01*
X287819Y460008D02*
Y456073D01*
X285851Y454105D01*
X283883Y456073D01*
Y460008D01*
X281915Y454105D02*
X279947D01*
X280931D01*
Y460008D01*
X281915Y459024D01*
X276996Y454105D02*
Y455089D01*
X276012D01*
Y454105D01*
X276996D01*
X268140D02*
X272076D01*
X268140Y458041D01*
Y459024D01*
X269124Y460008D01*
X271092D01*
X272076Y459024D01*
X260269D02*
X259285Y460008D01*
X257317D01*
X256333Y459024D01*
Y455089D01*
X257317Y454105D01*
X259285D01*
X260269Y455089D01*
Y459024D01*
X254365Y455089D02*
X253381Y454105D01*
X251413D01*
X250429Y455089D01*
Y459024D01*
X251413Y460008D01*
X253381D01*
X254365Y459024D01*
Y458041D01*
X253381Y457057D01*
X250429D01*
X248462Y454105D02*
X244526Y458041D01*
X238622Y454105D02*
X242558D01*
X238622Y458041D01*
Y459024D01*
X239606Y460008D01*
X241574D01*
X242558Y459024D01*
X236654D02*
X235670Y460008D01*
X233703D01*
X232719Y459024D01*
Y455089D01*
X233703Y454105D01*
X235670D01*
X236654Y455089D01*
Y459024D01*
X226815Y454105D02*
X230751D01*
X226815Y458041D01*
Y459024D01*
X227799Y460008D01*
X229767D01*
X230751Y459024D01*
X224847Y454105D02*
X222879D01*
X223863D01*
Y460008D01*
X224847Y459024D01*
D13*
X125484Y551469D02*
X127000Y546350D01*
X209000Y597000D02*
X238500D01*
X90000Y547032D02*
Y549656D01*
X88688Y550968D01*
X87376Y549656D01*
Y547032D01*
Y549000D01*
X90000D01*
X86064Y547032D02*
X84752D01*
X85408D01*
Y550968D01*
X86064Y550312D01*
X166711Y550968D02*
X165399D01*
X166055D01*
Y547032D01*
X166711D01*
X165399D01*
X163431D02*
Y549656D01*
X161463D01*
X160807Y549000D01*
Y547032D01*
X156872Y550968D02*
Y547032D01*
X158839D01*
X159495Y547688D01*
Y549000D01*
X158839Y549656D01*
X156872D01*
X155560Y547032D02*
Y547688D01*
X154904D01*
Y547032D01*
X155560D01*
X145720Y550312D02*
X146376Y550968D01*
X147688D01*
X148344Y550312D01*
Y547688D01*
X147688Y547032D01*
X146376D01*
X145720Y547688D01*
X144408Y549656D02*
Y547688D01*
X143753Y547032D01*
X141785D01*
Y549656D01*
X140473D02*
Y547032D01*
Y548344D01*
X139817Y549000D01*
X139161Y549656D01*
X138505D01*
X136537D02*
Y547032D01*
Y548344D01*
X135881Y549000D01*
X135225Y549656D01*
X134569D01*
X132601Y547032D02*
Y547688D01*
X131945D01*
Y547032D01*
X132601D01*
X121450Y550968D02*
Y547688D01*
X120794Y547032D01*
X119482D01*
X118826Y547688D01*
Y550968D01*
X117514Y547032D02*
X115546D01*
X114890Y547688D01*
X115546Y548344D01*
X116858D01*
X117514Y549000D01*
X116858Y549656D01*
X114890D01*
X111611Y547032D02*
X112923D01*
X113578Y547688D01*
Y549000D01*
X112923Y549656D01*
X111611D01*
X110955Y549000D01*
Y548344D01*
X113578D01*
X109643Y549656D02*
Y547032D01*
Y548344D01*
X108987Y549000D01*
X108331Y549656D01*
X107675D01*
X105707Y547032D02*
Y550968D01*
X103739D01*
X103083Y550312D01*
Y549000D01*
X103739Y548344D01*
X105707D01*
X101115Y547032D02*
X99803D01*
X99147Y547688D01*
Y549000D01*
X99803Y549656D01*
X101115D01*
X101771Y549000D01*
Y547688D01*
X101115Y547032D01*
X97180Y550312D02*
Y549656D01*
X97835D01*
X96524D01*
X97180D01*
Y547688D01*
X96524Y547032D01*
X90000Y514532D02*
Y517156D01*
X88688Y518468D01*
X87376Y517156D01*
Y514532D01*
Y516500D01*
X90000D01*
X84096Y514532D02*
Y518468D01*
X86064Y516500D01*
X83440D01*
X129977Y518757D02*
Y516133D01*
X128665Y514822D01*
X127354Y516133D01*
Y518757D01*
X125386Y514822D02*
X124074D01*
X123418Y515478D01*
Y516789D01*
X124074Y517445D01*
X125386D01*
X126042Y516789D01*
Y515478D01*
X125386Y514822D01*
X122106Y517445D02*
Y515478D01*
X121450Y514822D01*
X119482D01*
Y517445D01*
X117514Y518101D02*
Y517445D01*
X118170D01*
X116858D01*
X117514D01*
Y515478D01*
X116858Y514822D01*
X114890Y514166D02*
X112267D01*
X110955Y514822D02*
Y518757D01*
X109643Y517445D01*
X108331Y518757D01*
Y514822D01*
X105051D02*
X106363D01*
X107019Y515478D01*
Y516789D01*
X106363Y517445D01*
X105051D01*
X104395Y516789D01*
Y516133D01*
X107019D01*
X102427Y517445D02*
X101115D01*
X100459Y516789D01*
Y514822D01*
X102427D01*
X103083Y515478D01*
X102427Y516133D01*
X100459D01*
X99147Y514822D02*
X97180D01*
X96524Y515478D01*
X97180Y516133D01*
X98492D01*
X99147Y516789D01*
X98492Y517445D01*
X96524D01*
X135225Y560124D02*
X133913D01*
X134569D01*
Y556188D01*
X135225D01*
X133913D01*
X131945D02*
Y558812D01*
X129977D01*
X129322Y558156D01*
Y556188D01*
X128009Y554876D02*
Y558812D01*
X126042D01*
X125386Y558156D01*
Y556844D01*
X126042Y556188D01*
X128009D01*
X124074Y558812D02*
Y556844D01*
X123418Y556188D01*
X121450D01*
Y558812D01*
X119482Y559468D02*
Y558812D01*
X120138D01*
X118826D01*
X119482D01*
Y556844D01*
X118826Y556188D01*
X110299Y559468D02*
X110955Y560124D01*
X112267D01*
X112923Y559468D01*
Y556844D01*
X112267Y556188D01*
X110955D01*
X110299Y556844D01*
X108987Y558812D02*
Y556844D01*
X108331Y556188D01*
X106363D01*
Y558812D01*
X105051D02*
Y556188D01*
Y557500D01*
X104395Y558156D01*
X103739Y558812D01*
X103083D01*
X101115D02*
Y556188D01*
Y557500D01*
X100459Y558156D01*
X99803Y558812D01*
X99147D01*
X97180Y556188D02*
Y556844D01*
X96524D01*
Y556188D01*
X97180D01*
X136693Y543124D02*
X138005D01*
X138661Y542468D01*
Y539844D01*
X138005Y539188D01*
X136693D01*
X136037Y539844D01*
Y542468D01*
X136693Y543124D01*
X134725Y541812D02*
Y539844D01*
X134069Y539188D01*
X132101D01*
Y541812D01*
X130133Y542468D02*
Y541812D01*
X130789D01*
X129477D01*
X130133D01*
Y539844D01*
X129477Y539188D01*
X127509Y537876D02*
Y541812D01*
X125542D01*
X124886Y541156D01*
Y539844D01*
X125542Y539188D01*
X127509D01*
X123574Y541812D02*
Y539844D01*
X122918Y539188D01*
X120950D01*
Y541812D01*
X118982Y542468D02*
Y541812D01*
X119638D01*
X118326D01*
X118982D01*
Y539844D01*
X118326Y539188D01*
X109799Y542468D02*
X110455Y543124D01*
X111767D01*
X112423Y542468D01*
Y539844D01*
X111767Y539188D01*
X110455D01*
X109799Y539844D01*
X108487Y541812D02*
Y539844D01*
X107831Y539188D01*
X105863D01*
Y541812D01*
X104551D02*
Y539188D01*
Y540500D01*
X103895Y541156D01*
X103239Y541812D01*
X102583D01*
X100615D02*
Y539188D01*
Y540500D01*
X99959Y541156D01*
X99303Y541812D01*
X98647D01*
X96680Y539188D02*
Y539844D01*
X96024D01*
Y539188D01*
X96680D01*
X132601Y509429D02*
X129977D01*
X131289D01*
Y505494D01*
X128665Y509429D02*
Y505494D01*
Y507461D01*
X128009Y508117D01*
X126698D01*
X126042Y507461D01*
Y505494D01*
X122762D02*
X124074D01*
X124730Y506149D01*
Y507461D01*
X124074Y508117D01*
X122762D01*
X122106Y507461D01*
Y506806D01*
X124730D01*
X120794Y508117D02*
Y505494D01*
Y506806D01*
X120138Y507461D01*
X119482Y508117D01*
X118826D01*
X116858Y505494D02*
Y508117D01*
X116202D01*
X115546Y507461D01*
Y505494D01*
Y507461D01*
X114890Y508117D01*
X114234Y507461D01*
Y505494D01*
X112923D02*
X111611D01*
X112267D01*
Y508117D01*
X112923D01*
X109643Y505494D02*
X107675D01*
X107019Y506149D01*
X107675Y506806D01*
X108987D01*
X109643Y507461D01*
X108987Y508117D01*
X107019D01*
X105051Y508773D02*
Y508117D01*
X105707D01*
X104395D01*
X105051D01*
Y506149D01*
X104395Y505494D01*
X101771D02*
X100459D01*
X99803Y506149D01*
Y507461D01*
X100459Y508117D01*
X101771D01*
X102427Y507461D01*
Y506149D01*
X101771Y505494D01*
X98492Y508117D02*
Y505494D01*
Y506806D01*
X97835Y507461D01*
X97180Y508117D01*
X96524D01*
X126042Y527757D02*
Y525134D01*
X124730Y523822D01*
X123418Y525134D01*
Y527757D01*
X122106Y523822D02*
X120794D01*
X121450D01*
Y526445D01*
X122106D01*
X118826Y523822D02*
Y526445D01*
X116858D01*
X116202Y525789D01*
Y523822D01*
X114890Y523166D02*
X112267D01*
X110955Y523822D02*
Y527757D01*
X109643Y526445D01*
X108331Y527757D01*
Y523822D01*
X105051D02*
X106363D01*
X107019Y524477D01*
Y525789D01*
X106363Y526445D01*
X105051D01*
X104395Y525789D01*
Y525134D01*
X107019D01*
X102427Y526445D02*
X101115D01*
X100459Y525789D01*
Y523822D01*
X102427D01*
X103083Y524477D01*
X102427Y525134D01*
X100459D01*
X99147Y523822D02*
X97180D01*
X96524Y524477D01*
X97180Y525134D01*
X98492D01*
X99147Y525789D01*
X98492Y526445D01*
X96524D01*
X90000Y523532D02*
Y526156D01*
X88688Y527468D01*
X87376Y526156D01*
Y523532D01*
Y525500D01*
X90000D01*
X86064Y526812D02*
X85408Y527468D01*
X84096D01*
X83440Y526812D01*
Y526156D01*
X84096Y525500D01*
X84752D01*
X84096D01*
X83440Y524844D01*
Y524188D01*
X84096Y523532D01*
X85408D01*
X86064Y524188D01*
X90000Y538532D02*
Y541156D01*
X88688Y542468D01*
X87376Y541156D01*
Y538532D01*
Y540500D01*
X90000D01*
X83440Y538532D02*
X86064D01*
X83440Y541156D01*
Y541812D01*
X84096Y542468D01*
X85408D01*
X86064Y541812D01*
X90000Y555532D02*
Y558156D01*
X88688Y559468D01*
X87376Y558156D01*
Y555532D01*
Y557500D01*
X90000D01*
X86064Y558812D02*
X85408Y559468D01*
X84096D01*
X83440Y558812D01*
Y556188D01*
X84096Y555532D01*
X85408D01*
X86064Y556188D01*
Y558812D01*
X90000Y505532D02*
Y508156D01*
X88688Y509468D01*
X87376Y508156D01*
Y505532D01*
Y507500D01*
X90000D01*
X83440Y509468D02*
X86064D01*
Y507500D01*
X84752Y508156D01*
X84096D01*
X83440Y507500D01*
Y506188D01*
X84096Y505532D01*
X85408D01*
X86064Y506188D01*
X238524Y645468D02*
Y642188D01*
X237868Y641532D01*
X236556D01*
X235900Y642188D01*
Y645468D01*
X234588Y641532D02*
X232620D01*
X231964Y642188D01*
X232620Y642844D01*
X233932D01*
X234588Y643500D01*
X233932Y644156D01*
X231964D01*
X228684Y641532D02*
X229996D01*
X230652Y642188D01*
Y643500D01*
X229996Y644156D01*
X228684D01*
X228028Y643500D01*
Y642844D01*
X230652D01*
X226716Y644156D02*
Y641532D01*
Y642844D01*
X226060Y643500D01*
X225405Y644156D01*
X224748D01*
X222781Y645468D02*
Y641532D01*
X220157D01*
X216221Y645468D02*
X218845D01*
Y641532D01*
X216221D01*
X218845Y643500D02*
X217533D01*
X214909Y645468D02*
Y641532D01*
X212941D01*
X212285Y642188D01*
Y644812D01*
X212941Y645468D01*
X214909D01*
X209006Y641532D02*
Y645468D01*
X210973Y643500D01*
X208350D01*
X238524Y635468D02*
Y632188D01*
X237868Y631532D01*
X236556D01*
X235900Y632188D01*
Y635468D01*
X234588Y631532D02*
X232620D01*
X231964Y632188D01*
X232620Y632844D01*
X233932D01*
X234588Y633500D01*
X233932Y634156D01*
X231964D01*
X228684Y631532D02*
X229996D01*
X230652Y632188D01*
Y633500D01*
X229996Y634156D01*
X228684D01*
X228028Y633500D01*
Y632844D01*
X230652D01*
X226716Y634156D02*
Y631532D01*
Y632844D01*
X226060Y633500D01*
X225405Y634156D01*
X224748D01*
X220157Y634812D02*
X220813Y635468D01*
X222125D01*
X222781Y634812D01*
Y634156D01*
X222125Y633500D01*
X220813D01*
X220157Y632844D01*
Y632188D01*
X220813Y631532D01*
X222125D01*
X222781Y632188D01*
X218845Y634156D02*
Y632188D01*
X218189Y631532D01*
X217533Y632188D01*
X216877Y631532D01*
X216221Y632188D01*
Y634156D01*
X214909Y631532D02*
X213597D01*
X214253D01*
Y634156D01*
X214909D01*
X210973Y634812D02*
Y634156D01*
X211629D01*
X210317D01*
X210973D01*
Y632188D01*
X210317Y631532D01*
X205726Y634156D02*
X207694D01*
X208350Y633500D01*
Y632188D01*
X207694Y631532D01*
X205726D01*
X204414Y635468D02*
Y631532D01*
Y633500D01*
X203758Y634156D01*
X202446D01*
X201790Y633500D01*
Y631532D01*
X238524Y625468D02*
Y622188D01*
X237868Y621532D01*
X236556D01*
X235900Y622188D01*
Y625468D01*
X234588Y621532D02*
X232620D01*
X231964Y622188D01*
X232620Y622844D01*
X233932D01*
X234588Y623500D01*
X233932Y624156D01*
X231964D01*
X228684Y621532D02*
X229996D01*
X230652Y622188D01*
Y623500D01*
X229996Y624156D01*
X228684D01*
X228028Y623500D01*
Y622844D01*
X230652D01*
X226716Y624156D02*
Y621532D01*
Y622844D01*
X226060Y623500D01*
X225405Y624156D01*
X224748D01*
X222781Y625468D02*
Y621532D01*
X220157D01*
X216221Y625468D02*
X218845D01*
Y621532D01*
X216221D01*
X218845Y623500D02*
X217533D01*
X214909Y625468D02*
Y621532D01*
X212941D01*
X212285Y622188D01*
Y624812D01*
X212941Y625468D01*
X214909D01*
X210973Y624812D02*
X210317Y625468D01*
X209006D01*
X208350Y624812D01*
Y624156D01*
X209006Y623500D01*
X209662D01*
X209006D01*
X208350Y622844D01*
Y622188D01*
X209006Y621532D01*
X210317D01*
X210973Y622188D01*
X235876Y594812D02*
X236532Y595468D01*
X237844D01*
X238500Y594812D01*
Y594156D01*
X237844Y593500D01*
X236532D01*
X235876Y592844D01*
Y592188D01*
X236532Y591532D01*
X237844D01*
X238500Y592188D01*
X234564Y595468D02*
Y591532D01*
Y593500D01*
X233908Y594156D01*
X232596D01*
X231940Y593500D01*
Y591532D01*
X230628Y594156D02*
Y592188D01*
X229973Y591532D01*
X228005D01*
Y594156D01*
X226037Y594812D02*
Y594156D01*
X226693D01*
X225381D01*
X226037D01*
Y592188D01*
X225381Y591532D01*
X220789Y595468D02*
Y591532D01*
X222757D01*
X223413Y592188D01*
Y593500D01*
X222757Y594156D01*
X220789D01*
X218821Y591532D02*
X217509D01*
X216853Y592188D01*
Y593500D01*
X217509Y594156D01*
X218821D01*
X219477Y593500D01*
Y592188D01*
X218821Y591532D01*
X215542Y594156D02*
Y592188D01*
X214886Y591532D01*
X214230Y592188D01*
X213574Y591532D01*
X212918Y592188D01*
Y594156D01*
X211606Y591532D02*
Y594156D01*
X209638D01*
X208982Y593500D01*
Y591532D01*
X238500Y605796D02*
Y601860D01*
X236532D01*
X235876Y602516D01*
Y603172D01*
X236532Y603828D01*
X238500D01*
X236532D01*
X235876Y604484D01*
Y605140D01*
X236532Y605796D01*
X238500D01*
X233908Y601860D02*
X232596D01*
X231940Y602516D01*
Y603828D01*
X232596Y604484D01*
X233908D01*
X234564Y603828D01*
Y602516D01*
X233908Y601860D01*
X229973D02*
X228661D01*
X228005Y602516D01*
Y603828D01*
X228661Y604484D01*
X229973D01*
X230628Y603828D01*
Y602516D01*
X229973Y601860D01*
X226693D02*
X224725D01*
X224069Y602516D01*
X224725Y603172D01*
X226037D01*
X226693Y603828D01*
X226037Y604484D01*
X224069D01*
X222101Y605140D02*
Y604484D01*
X222757D01*
X221445D01*
X222101D01*
Y602516D01*
X221445Y601860D01*
X219477Y601204D02*
X216853D01*
X212918Y605140D02*
X213574Y605796D01*
X214886D01*
X215542Y605140D01*
Y602516D01*
X214886Y601860D01*
X213574D01*
X212918Y602516D01*
X211606Y601860D02*
Y604484D01*
X209638D01*
X208982Y603828D01*
Y601860D01*
X207014Y605140D02*
Y604484D01*
X207670D01*
X206358D01*
X207014D01*
Y602516D01*
X206358Y601860D01*
X204390Y604484D02*
Y601860D01*
Y603172D01*
X203734Y603828D01*
X203078Y604484D01*
X202422D01*
X200454Y601860D02*
X199143D01*
X199799D01*
Y605796D01*
X200454D01*
X235900Y615468D02*
X236556Y616124D01*
X237868D01*
X238524Y615468D01*
Y612844D01*
X237868Y612188D01*
X236556D01*
X235900Y612844D01*
X234588Y614812D02*
Y612844D01*
X233932Y612188D01*
X231964D01*
Y614812D01*
X230652D02*
Y612188D01*
Y613500D01*
X229996Y614156D01*
X229340Y614812D01*
X228684D01*
X226716D02*
Y612188D01*
Y613500D01*
X226060Y614156D01*
X225405Y614812D01*
X224748D01*
X222781Y612188D02*
Y612844D01*
X222125D01*
Y612188D01*
X222781D01*
X215565Y616124D02*
Y612188D01*
X213597D01*
X212941Y612844D01*
Y613500D01*
X213597Y614156D01*
X215565D01*
X213597D01*
X212941Y614812D01*
Y615468D01*
X213597Y616124D01*
X215565D01*
X211629Y612188D02*
X210317D01*
X210973D01*
Y616124D01*
X211629D01*
X207694Y614812D02*
X206382D01*
X205726Y614156D01*
Y612188D01*
X207694D01*
X208350Y612844D01*
X207694Y613500D01*
X205726D01*
X204414Y612188D02*
Y614812D01*
X202446D01*
X201790Y614156D01*
Y612188D01*
X200478D02*
Y616124D01*
Y613500D02*
X198510Y614812D01*
X200478Y613500D02*
X198510Y612188D01*
X196542D02*
X195230D01*
X195886D01*
Y614812D01*
X196542D01*
X193263Y612188D02*
Y614812D01*
X191295D01*
X190639Y614156D01*
Y612188D01*
X188015Y610876D02*
X187359D01*
X186703Y611532D01*
Y614812D01*
X188671D01*
X189327Y614156D01*
Y612844D01*
X188671Y612188D01*
X186703D01*
X253024Y615468D02*
Y611532D01*
X251056D01*
X250400Y612188D01*
Y614812D01*
X251056Y615468D01*
X253024D01*
X249088Y611532D02*
X247776D01*
X248432D01*
Y615468D01*
X249088Y614812D01*
X245808D02*
X245152Y615468D01*
X243840D01*
X243184Y614812D01*
Y612188D01*
X243840Y611532D01*
X245152D01*
X245808Y612188D01*
Y614812D01*
X253000Y605468D02*
Y601532D01*
X251032D01*
X250376Y602188D01*
Y604812D01*
X251032Y605468D01*
X253000D01*
X249064Y602188D02*
X248408Y601532D01*
X247096D01*
X246440Y602188D01*
Y604812D01*
X247096Y605468D01*
X248408D01*
X249064Y604812D01*
Y604156D01*
X248408Y603500D01*
X246440D01*
X253000Y595468D02*
Y591532D01*
X251032D01*
X250376Y592188D01*
Y594812D01*
X251032Y595468D01*
X253000D01*
X249064Y594812D02*
X248408Y595468D01*
X247096D01*
X246440Y594812D01*
Y594156D01*
X247096Y593500D01*
X246440Y592844D01*
Y592188D01*
X247096Y591532D01*
X248408D01*
X249064Y592188D01*
Y592844D01*
X248408Y593500D01*
X249064Y594156D01*
Y594812D01*
X248408Y593500D02*
X247096D01*
X253024Y625468D02*
Y621532D01*
X251056D01*
X250400Y622188D01*
Y624812D01*
X251056Y625468D01*
X253024D01*
X249088Y621532D02*
X247776D01*
X248432D01*
Y625468D01*
X249088Y624812D01*
X245808Y621532D02*
X244496D01*
X245152D01*
Y625468D01*
X245808Y624812D01*
X253024Y635468D02*
Y631532D01*
X251056D01*
X250400Y632188D01*
Y634812D01*
X251056Y635468D01*
X253024D01*
X249088Y631532D02*
X247776D01*
X248432D01*
Y635468D01*
X249088Y634812D01*
X243184Y631532D02*
X245808D01*
X243184Y634156D01*
Y634812D01*
X243840Y635468D01*
X245152D01*
X245808Y634812D01*
X253024Y645468D02*
Y641532D01*
X251056D01*
X250400Y642188D01*
Y644812D01*
X251056Y645468D01*
X253024D01*
X249088Y641532D02*
X247776D01*
X248432D01*
Y645468D01*
X249088Y644812D01*
X245808D02*
X245152Y645468D01*
X243840D01*
X243184Y644812D01*
Y644156D01*
X243840Y643500D01*
X244496D01*
X243840D01*
X243184Y642844D01*
Y642188D01*
X243840Y641532D01*
X245152D01*
X245808Y642188D01*
X239024Y539468D02*
Y536188D01*
X238368Y535532D01*
X237056D01*
X236400Y536188D01*
Y539468D01*
X235088Y535532D02*
X233120D01*
X232464Y536188D01*
X233120Y536844D01*
X234432D01*
X235088Y537500D01*
X234432Y538156D01*
X232464D01*
X229184Y535532D02*
X230496D01*
X231152Y536188D01*
Y537500D01*
X230496Y538156D01*
X229184D01*
X228528Y537500D01*
Y536844D01*
X231152D01*
X227216Y538156D02*
Y535532D01*
Y536844D01*
X226560Y537500D01*
X225904Y538156D01*
X225249D01*
X223281Y539468D02*
Y535532D01*
X221313D01*
X220657Y536188D01*
Y536844D01*
X221313Y537500D01*
X223281D01*
X221313D01*
X220657Y538156D01*
Y538812D01*
X221313Y539468D01*
X223281D01*
X218689Y538812D02*
Y538156D01*
X219345D01*
X218033D01*
X218689D01*
Y536188D01*
X218033Y535532D01*
X216065D02*
Y538156D01*
X214097D01*
X213441Y537500D01*
Y535532D01*
X212129D02*
X210818D01*
X211473D01*
Y539468D01*
X212129Y538812D01*
X239024Y549468D02*
Y546188D01*
X238368Y545532D01*
X237056D01*
X236400Y546188D01*
Y549468D01*
X235088Y545532D02*
X233120D01*
X232464Y546188D01*
X233120Y546844D01*
X234432D01*
X235088Y547500D01*
X234432Y548156D01*
X232464D01*
X229184Y545532D02*
X230496D01*
X231152Y546188D01*
Y547500D01*
X230496Y548156D01*
X229184D01*
X228528Y547500D01*
Y546844D01*
X231152D01*
X227216Y548156D02*
Y545532D01*
Y546844D01*
X226560Y547500D01*
X225904Y548156D01*
X225249D01*
X223281Y549468D02*
Y545532D01*
X220657D01*
X216721Y549468D02*
X219345D01*
Y545532D01*
X216721D01*
X219345Y547500D02*
X218033D01*
X215409Y549468D02*
Y545532D01*
X213441D01*
X212785Y546188D01*
Y548812D01*
X213441Y549468D01*
X215409D01*
X211473Y545532D02*
X210161D01*
X210818D01*
Y549468D01*
X211473Y548812D01*
X239024Y505532D02*
Y509468D01*
X236400Y505532D01*
Y509468D01*
X232464Y508812D02*
X233120Y509468D01*
X234432D01*
X235088Y508812D01*
Y506188D01*
X234432Y505532D01*
X233120D01*
X232464Y506188D01*
X239024Y515532D02*
Y519468D01*
X236400Y515532D01*
Y519468D01*
X232464Y518812D02*
X233120Y519468D01*
X234432D01*
X235088Y518812D01*
Y516188D01*
X234432Y515532D01*
X233120D01*
X232464Y516188D01*
X239024Y529468D02*
X237712D01*
X238368D01*
Y525532D01*
X239024D01*
X237712D01*
X235744D02*
Y528156D01*
X233776D01*
X233120Y527500D01*
Y525532D01*
X229184Y529468D02*
Y525532D01*
X231152D01*
X231808Y526188D01*
Y527500D01*
X231152Y528156D01*
X229184D01*
X227872Y525532D02*
Y526188D01*
X227216D01*
Y525532D01*
X227872D01*
X218689Y529468D02*
X220001D01*
X220657Y528812D01*
Y526188D01*
X220001Y525532D01*
X218689D01*
X218033Y526188D01*
Y528812D01*
X218689Y529468D01*
X216721Y528156D02*
X215409Y525532D01*
X214097Y528156D01*
X210818Y525532D02*
X212129D01*
X212785Y526188D01*
Y527500D01*
X212129Y528156D01*
X210818D01*
X210161Y527500D01*
Y526844D01*
X212785D01*
X208850Y528156D02*
Y525532D01*
Y526844D01*
X208194Y527500D01*
X207538Y528156D01*
X206882D01*
X202290D02*
X204258D01*
X204914Y527500D01*
Y526188D01*
X204258Y525532D01*
X202290D01*
X200978Y528156D02*
Y526188D01*
X200322Y525532D01*
X198354D01*
Y528156D01*
X197042D02*
Y525532D01*
Y526844D01*
X196386Y527500D01*
X195730Y528156D01*
X195074D01*
X193107D02*
Y525532D01*
Y526844D01*
X192451Y527500D01*
X191795Y528156D01*
X191139D01*
X189171Y525532D02*
Y526188D01*
X188515D01*
Y525532D01*
X189171D01*
X239024Y559468D02*
Y556188D01*
X238368Y555532D01*
X237056D01*
X236400Y556188D01*
Y559468D01*
X235088Y555532D02*
X233120D01*
X232464Y556188D01*
X233120Y556844D01*
X234432D01*
X235088Y557500D01*
X234432Y558156D01*
X232464D01*
X229184Y555532D02*
X230496D01*
X231152Y556188D01*
Y557500D01*
X230496Y558156D01*
X229184D01*
X228528Y557500D01*
Y556844D01*
X231152D01*
X227216Y558156D02*
Y555532D01*
Y556844D01*
X226560Y557500D01*
X225904Y558156D01*
X225249D01*
X223281Y559468D02*
Y555532D01*
X220657D01*
X216721Y559468D02*
X219345D01*
Y555532D01*
X216721D01*
X219345Y557500D02*
X218033D01*
X215409Y559468D02*
Y555532D01*
X213441D01*
X212785Y556188D01*
Y558812D01*
X213441Y559468D01*
X215409D01*
X208850Y555532D02*
X211473D01*
X208850Y558156D01*
Y558812D01*
X209506Y559468D01*
X210818D01*
X211473Y558812D01*
X239024Y569796D02*
Y565860D01*
X237056D01*
X236400Y566516D01*
Y567172D01*
X237056Y567828D01*
X239024D01*
X237056D01*
X236400Y568484D01*
Y569140D01*
X237056Y569796D01*
X239024D01*
X235088Y568484D02*
Y566516D01*
X234432Y565860D01*
X232464D01*
Y568484D01*
X228528D02*
X230496D01*
X231152Y567828D01*
Y566516D01*
X230496Y565860D01*
X228528D01*
X227216D02*
Y569796D01*
Y567172D02*
X225249Y568484D01*
X227216Y567172D02*
X225249Y565860D01*
X223281Y565204D02*
X220657D01*
X216721Y569140D02*
X217377Y569796D01*
X218689D01*
X219345Y569140D01*
Y566516D01*
X218689Y565860D01*
X217377D01*
X216721Y566516D01*
X215409Y565860D02*
Y568484D01*
X213441D01*
X212785Y567828D01*
Y565860D01*
X210818Y569140D02*
Y568484D01*
X211473D01*
X210161D01*
X210818D01*
Y566516D01*
X210161Y565860D01*
X208194Y568484D02*
Y565860D01*
Y567172D01*
X207538Y567828D01*
X206882Y568484D01*
X206226D01*
X204258Y565860D02*
X202946D01*
X203602D01*
Y569796D01*
X204258D01*
X239024Y579468D02*
Y576188D01*
X238368Y575532D01*
X237056D01*
X236400Y576188D01*
Y579468D01*
X235088Y575532D02*
X233120D01*
X232464Y576188D01*
X233120Y576844D01*
X234432D01*
X235088Y577500D01*
X234432Y578156D01*
X232464D01*
X229184Y575532D02*
X230496D01*
X231152Y576188D01*
Y577500D01*
X230496Y578156D01*
X229184D01*
X228528Y577500D01*
Y576844D01*
X231152D01*
X227216Y578156D02*
Y575532D01*
Y576844D01*
X226560Y577500D01*
X225904Y578156D01*
X225249D01*
X223281Y579468D02*
Y575532D01*
X221313D01*
X220657Y576188D01*
Y576844D01*
X221313Y577500D01*
X223281D01*
X221313D01*
X220657Y578156D01*
Y578812D01*
X221313Y579468D01*
X223281D01*
X218689Y578812D02*
Y578156D01*
X219345D01*
X218033D01*
X218689D01*
Y576188D01*
X218033Y575532D01*
X216065D02*
Y578156D01*
X214097D01*
X213441Y577500D01*
Y575532D01*
X209506D02*
X212129D01*
X209506Y578156D01*
Y578812D01*
X210161Y579468D01*
X211473D01*
X212129Y578812D01*
X254024Y579468D02*
Y575532D01*
X252056D01*
X251400Y576188D01*
Y578812D01*
X252056Y579468D01*
X254024D01*
X250088D02*
X247464D01*
Y578812D01*
X250088Y576188D01*
Y575532D01*
X254024Y569468D02*
Y565532D01*
X252056D01*
X251400Y566188D01*
Y568812D01*
X252056Y569468D01*
X254024D01*
X247464D02*
X248776Y568812D01*
X250088Y567500D01*
Y566188D01*
X249432Y565532D01*
X248120D01*
X247464Y566188D01*
Y566844D01*
X248120Y567500D01*
X250088D01*
X254024Y559468D02*
Y555532D01*
X252056D01*
X251400Y556188D01*
Y558812D01*
X252056Y559468D01*
X254024D01*
X247464D02*
X250088D01*
Y557500D01*
X248776Y558156D01*
X248120D01*
X247464Y557500D01*
Y556188D01*
X248120Y555532D01*
X249432D01*
X250088Y556188D01*
X254024Y529468D02*
Y525532D01*
X252056D01*
X251400Y526188D01*
Y528812D01*
X252056Y529468D01*
X254024D01*
X247464Y525532D02*
X250088D01*
X247464Y528156D01*
Y528812D01*
X248120Y529468D01*
X249432D01*
X250088Y528812D01*
X254024Y519468D02*
Y515532D01*
X252056D01*
X251400Y516188D01*
Y518812D01*
X252056Y519468D01*
X254024D01*
X250088Y515532D02*
X248776D01*
X249432D01*
Y519468D01*
X250088Y518812D01*
X254024Y509468D02*
Y505532D01*
X252056D01*
X251400Y506188D01*
Y508812D01*
X252056Y509468D01*
X254024D01*
X250088Y508812D02*
X249432Y509468D01*
X248120D01*
X247464Y508812D01*
Y506188D01*
X248120Y505532D01*
X249432D01*
X250088Y506188D01*
Y508812D01*
X254024Y549468D02*
Y545532D01*
X252056D01*
X251400Y546188D01*
Y548812D01*
X252056Y549468D01*
X254024D01*
X248120Y545532D02*
Y549468D01*
X250088Y547500D01*
X247464D01*
X254024Y539468D02*
Y535532D01*
X252056D01*
X251400Y536188D01*
Y538812D01*
X252056Y539468D01*
X254024D01*
X250088Y538812D02*
X249432Y539468D01*
X248120D01*
X247464Y538812D01*
Y538156D01*
X248120Y537500D01*
X248776D01*
X248120D01*
X247464Y536844D01*
Y536188D01*
X248120Y535532D01*
X249432D01*
X250088Y536188D01*
M02*
