G04*
G04 #@! TF.GenerationSoftware,Altium Limited,Altium Designer,21.2.1 (34)*
G04*
G04 Layer_Color=8421504*
%FSLAX25Y25*%
%MOIN*%
G70*
G04*
G04 #@! TF.SameCoordinates,E3247584-B976-4F33-B0A2-C8B4A793FEE3*
G04*
G04*
G04 #@! TF.FilePolarity,Positive*
G04*
G01*
G75*
%ADD17R,0.08268X0.04331*%
%ADD18R,0.04724X0.06299*%
%ADD19R,0.08268X0.05512*%
%ADD20R,0.02362X0.04331*%
%ADD21R,0.02205X0.05236*%
%ADD22R,0.04134X0.02362*%
%ADD23R,0.02362X0.04134*%
%ADD24R,0.03937X0.02362*%
%ADD25R,0.03150X0.02362*%
%ADD26R,0.06890X0.12598*%
%ADD27R,0.06890X0.03740*%
%ADD28R,0.05906X0.01772*%
%ADD29R,0.01772X0.05709*%
%ADD30R,0.05709X0.01772*%
%ADD31R,0.05512X0.01772*%
%ADD32R,0.04134X0.00984*%
%ADD33R,0.07008X0.02835*%
%ADD34R,0.06102X0.02362*%
%ADD35R,0.06299X0.02362*%
%ADD36R,0.07598X0.03937*%
%ADD37R,0.03347X0.01968*%
%ADD38R,0.06890X0.04331*%
%ADD39R,0.13583X0.05709*%
%ADD40R,0.02835X0.03898*%
%ADD41R,0.03937X0.03937*%
%ADD42R,0.12992X0.04685*%
%ADD43R,0.03150X0.03150*%
%ADD44R,0.01575X0.04331*%
%ADD45R,0.06496X0.22047*%
%ADD46R,0.07087X0.22441*%
%ADD47R,0.13976X0.20079*%
%ADD48R,0.08661X0.12402*%
%ADD49R,0.13583X0.07284*%
%ADD50R,0.05118X0.07480*%
%ADD51R,0.03937X0.03740*%
%ADD52R,0.03740X0.03543*%
%ADD53R,0.03740X0.03740*%
%ADD54R,0.17323X0.07480*%
%ADD55R,0.03740X0.03740*%
%ADD56R,0.03740X0.03937*%
%ADD57R,0.07480X0.05118*%
%ADD58R,0.03543X0.03740*%
%ADD59R,0.02362X0.03150*%
%ADD60R,0.02362X0.03937*%
%ADD61R,0.03150X0.03150*%
%ADD62R,0.04331X0.01575*%
%ADD63R,0.04331X0.06890*%
%ADD64R,0.03898X0.02835*%
%ADD65R,0.05512X0.08268*%
%ADD66R,0.06299X0.04724*%
%ADD67R,0.07284X0.13583*%
%ADD68R,0.01968X0.03347*%
G36*
X235724Y369465D02*
X233362D01*
Y373598D01*
X235724D01*
Y369465D01*
D02*
G37*
G36*
X232575D02*
X230213D01*
Y373598D01*
X232575D01*
Y369465D01*
D02*
G37*
G36*
X235724Y364347D02*
X233362D01*
Y368480D01*
X235724D01*
Y364347D01*
D02*
G37*
G36*
X232575D02*
X230213D01*
Y368480D01*
X232575D01*
Y364347D01*
D02*
G37*
G36*
X112303Y345091D02*
X100492D01*
Y355720D01*
X112303D01*
Y345091D01*
D02*
G37*
G36*
X99311D02*
X87500D01*
Y355720D01*
X99311D01*
Y345091D01*
D02*
G37*
G36*
X112303Y333279D02*
X100492D01*
Y343910D01*
X112303D01*
Y333279D01*
D02*
G37*
G36*
X99311D02*
X87500D01*
Y343910D01*
X99311D01*
Y333279D01*
D02*
G37*
G36*
X29500Y321590D02*
X17689D01*
Y332221D01*
X29500D01*
Y321590D01*
D02*
G37*
G36*
X16508D02*
X4697D01*
Y332221D01*
X16508D01*
Y321590D01*
D02*
G37*
G36*
X29500Y309780D02*
X17689D01*
Y320409D01*
X29500D01*
Y309780D01*
D02*
G37*
G36*
X16508D02*
X4697D01*
Y320409D01*
X16508D01*
Y309780D01*
D02*
G37*
G36*
X258126Y159043D02*
X248874D01*
Y165772D01*
X258126D01*
Y159043D01*
D02*
G37*
G36*
X255567Y155882D02*
X248874D01*
Y157457D01*
X255567D01*
Y155882D01*
D02*
G37*
G36*
X105095Y154874D02*
X103520D01*
Y161567D01*
X105095D01*
Y154874D01*
D02*
G37*
G36*
X101933D02*
X95205D01*
Y164126D01*
X101933D01*
Y154874D01*
D02*
G37*
G36*
X258102Y140543D02*
X248850D01*
Y147272D01*
X258102D01*
Y140543D01*
D02*
G37*
G36*
X104602D02*
X95350D01*
Y147272D01*
X104602D01*
Y140543D01*
D02*
G37*
G36*
X255543Y137382D02*
X248850D01*
Y138957D01*
X255543D01*
Y137382D01*
D02*
G37*
G36*
X102043D02*
X95350D01*
Y138957D01*
X102043D01*
Y137382D01*
D02*
G37*
G36*
X261457Y48933D02*
X259882D01*
Y55626D01*
X261457D01*
Y48933D01*
D02*
G37*
G36*
X239457D02*
X237882D01*
Y55626D01*
X239457D01*
Y48933D01*
D02*
G37*
G36*
X283299Y48902D02*
X281724D01*
Y55594D01*
X283299D01*
Y48902D01*
D02*
G37*
G36*
X269772Y46374D02*
X263043D01*
Y55626D01*
X269772D01*
Y46374D01*
D02*
G37*
G36*
X247772D02*
X241043D01*
Y55626D01*
X247772D01*
Y46374D01*
D02*
G37*
G36*
X291614Y46343D02*
X284886D01*
Y55594D01*
X291614D01*
Y46343D01*
D02*
G37*
D17*
X41901Y329976D02*
D03*
Y312023D02*
D03*
X75099Y335524D02*
D03*
Y353476D02*
D03*
D18*
X197217Y5488D02*
D03*
X177532D02*
D03*
X187374Y16512D02*
D03*
X126874D02*
D03*
X117032Y5488D02*
D03*
X136717D02*
D03*
X66874Y16512D02*
D03*
X57032Y5488D02*
D03*
X76717D02*
D03*
X224476Y671988D02*
D03*
X234319Y683012D02*
D03*
X214634D02*
D03*
D19*
X222661Y576142D02*
D03*
X183291D02*
D03*
X222661Y593858D02*
D03*
X183291D02*
D03*
X222661Y513642D02*
D03*
X183291D02*
D03*
X222661Y531358D02*
D03*
X183291D02*
D03*
D20*
X163500Y376524D02*
D03*
X159760D02*
D03*
X156020D02*
D03*
Y365500D02*
D03*
X159760D02*
D03*
X163500D02*
D03*
D21*
X127240Y277724D02*
D03*
X123500D02*
D03*
X119760D02*
D03*
Y268275D02*
D03*
X123500D02*
D03*
X127240D02*
D03*
D22*
X182472Y376000D02*
D03*
X191528Y379740D02*
D03*
Y372260D02*
D03*
X44000Y162500D02*
D03*
X34945Y158760D02*
D03*
Y166240D02*
D03*
X301472Y132500D02*
D03*
X310527Y136240D02*
D03*
Y128760D02*
D03*
X62528Y247000D02*
D03*
X53473Y243260D02*
D03*
Y250740D02*
D03*
X98972Y365760D02*
D03*
X108028Y369500D02*
D03*
X98972Y373240D02*
D03*
X44028Y148000D02*
D03*
X34972Y144260D02*
D03*
Y151740D02*
D03*
X39972Y133500D02*
D03*
X49028Y137240D02*
D03*
Y129760D02*
D03*
X319976Y159000D02*
D03*
Y166480D02*
D03*
X310921Y162740D02*
D03*
Y151740D02*
D03*
Y144260D02*
D03*
X319976Y148000D02*
D03*
D23*
X115760Y364972D02*
D03*
X123240D02*
D03*
X119500Y374027D02*
D03*
X295717Y242528D02*
D03*
X288236D02*
D03*
X291976Y233472D02*
D03*
X41000Y418027D02*
D03*
X44740Y408973D02*
D03*
X37260D02*
D03*
X83000Y416528D02*
D03*
X86740Y407473D02*
D03*
X79260D02*
D03*
X344240Y262528D02*
D03*
X336760D02*
D03*
X340500Y253472D02*
D03*
X339760Y235972D02*
D03*
X347240D02*
D03*
X343500Y245028D02*
D03*
D24*
X280972Y136240D02*
D03*
Y128760D02*
D03*
X290028Y132500D02*
D03*
D25*
X221645Y624067D02*
D03*
X227944Y626626D02*
D03*
Y621508D02*
D03*
X33850Y496559D02*
D03*
Y491441D02*
D03*
X40150Y494000D02*
D03*
X62650Y28941D02*
D03*
Y34059D02*
D03*
X56350Y31500D02*
D03*
X123299Y28941D02*
D03*
Y34059D02*
D03*
X117000Y31500D02*
D03*
X183150Y28941D02*
D03*
Y34059D02*
D03*
X176850Y31500D02*
D03*
X184626Y641441D02*
D03*
Y646559D02*
D03*
X178327Y644000D02*
D03*
X227626Y542941D02*
D03*
Y548059D02*
D03*
X221327Y545500D02*
D03*
X227626Y559441D02*
D03*
Y564559D02*
D03*
X221327Y562000D02*
D03*
X227976Y604000D02*
D03*
Y609118D02*
D03*
X221677Y606559D02*
D03*
D26*
X303697Y371000D02*
D03*
D27*
X278894Y361945D02*
D03*
Y371000D02*
D03*
Y380055D02*
D03*
D28*
X81559Y471177D02*
D03*
Y468618D02*
D03*
Y466059D02*
D03*
Y463500D02*
D03*
Y460941D02*
D03*
Y458382D02*
D03*
Y455823D02*
D03*
X104394D02*
D03*
Y458382D02*
D03*
Y460941D02*
D03*
Y463500D02*
D03*
Y466059D02*
D03*
Y468618D02*
D03*
Y471177D02*
D03*
X175417Y413823D02*
D03*
Y416382D02*
D03*
Y418941D02*
D03*
Y421500D02*
D03*
Y424059D02*
D03*
Y426618D02*
D03*
Y429177D02*
D03*
X152583D02*
D03*
Y426618D02*
D03*
Y424059D02*
D03*
Y421500D02*
D03*
Y418941D02*
D03*
Y416382D02*
D03*
Y413823D02*
D03*
D29*
X242677Y476394D02*
D03*
X240118D02*
D03*
X237559D02*
D03*
X235000D02*
D03*
X232441D02*
D03*
X229882D02*
D03*
X227323D02*
D03*
Y453559D02*
D03*
X229882D02*
D03*
X232441D02*
D03*
X235000D02*
D03*
X237559D02*
D03*
X240118D02*
D03*
X242677D02*
D03*
D30*
X266661Y90661D02*
D03*
Y93220D02*
D03*
Y95780D02*
D03*
Y98339D02*
D03*
X249339D02*
D03*
Y95780D02*
D03*
Y93220D02*
D03*
Y90661D02*
D03*
X53315Y420838D02*
D03*
Y418280D02*
D03*
Y415721D02*
D03*
Y413161D02*
D03*
X70638D02*
D03*
Y415721D02*
D03*
Y418280D02*
D03*
Y420838D02*
D03*
D31*
X105839Y100838D02*
D03*
Y98280D02*
D03*
Y95720D02*
D03*
Y93161D02*
D03*
X123161D02*
D03*
Y95720D02*
D03*
Y98280D02*
D03*
Y100838D02*
D03*
D32*
X226768Y372929D02*
D03*
Y370961D02*
D03*
Y368992D02*
D03*
Y367024D02*
D03*
Y365055D02*
D03*
X239169D02*
D03*
Y367024D02*
D03*
Y368992D02*
D03*
Y370961D02*
D03*
Y372929D02*
D03*
D33*
X298712Y144000D02*
D03*
Y149000D02*
D03*
Y154000D02*
D03*
Y159000D02*
D03*
X280287D02*
D03*
Y154000D02*
D03*
Y149000D02*
D03*
Y144000D02*
D03*
X72189Y160000D02*
D03*
Y155000D02*
D03*
Y150000D02*
D03*
Y145000D02*
D03*
X53764D02*
D03*
Y150000D02*
D03*
Y155000D02*
D03*
Y160000D02*
D03*
D34*
X326606Y245500D02*
D03*
Y240500D02*
D03*
Y235500D02*
D03*
Y230500D02*
D03*
X305346D02*
D03*
Y235500D02*
D03*
Y240500D02*
D03*
Y245500D02*
D03*
X45130Y235500D02*
D03*
Y240500D02*
D03*
Y245500D02*
D03*
Y250500D02*
D03*
X23870D02*
D03*
Y245500D02*
D03*
Y240500D02*
D03*
Y235500D02*
D03*
D35*
X190870Y483524D02*
D03*
Y478524D02*
D03*
Y473524D02*
D03*
Y468524D02*
D03*
Y463524D02*
D03*
Y458524D02*
D03*
Y453524D02*
D03*
Y448524D02*
D03*
X212130D02*
D03*
Y453524D02*
D03*
Y458524D02*
D03*
Y463524D02*
D03*
Y468524D02*
D03*
Y473524D02*
D03*
Y478524D02*
D03*
Y483524D02*
D03*
D36*
X233812Y255743D02*
D03*
Y273144D02*
D03*
D37*
X143882Y356000D02*
D03*
X154118D02*
D03*
D38*
X126913Y255744D02*
D03*
X116086Y261256D02*
D03*
X126913D02*
D03*
X116086Y255744D02*
D03*
X140413Y152256D02*
D03*
X129587Y146744D02*
D03*
X140413D02*
D03*
X129587Y152256D02*
D03*
D39*
X167500Y236114D02*
D03*
Y212886D02*
D03*
X187000Y236114D02*
D03*
Y212886D02*
D03*
D40*
X15500Y93000D02*
D03*
X10067D02*
D03*
X166284Y644000D02*
D03*
X171716D02*
D03*
X26217Y496000D02*
D03*
X20784D02*
D03*
X20807Y490000D02*
D03*
X26240D02*
D03*
X52784Y675000D02*
D03*
X58217D02*
D03*
X52784Y681000D02*
D03*
X58217D02*
D03*
X74717Y381000D02*
D03*
X69283D02*
D03*
X58784Y353500D02*
D03*
X64217D02*
D03*
X52784Y324500D02*
D03*
X58217D02*
D03*
X91783Y381000D02*
D03*
X97216D02*
D03*
X79783D02*
D03*
X85216D02*
D03*
X247217Y358500D02*
D03*
X241783D02*
D03*
X68567Y128000D02*
D03*
X74000D02*
D03*
X269717Y140000D02*
D03*
X264283D02*
D03*
X48000Y228500D02*
D03*
X42567D02*
D03*
X63283Y474500D02*
D03*
X68717D02*
D03*
X61760Y457500D02*
D03*
X67193D02*
D03*
X188216Y419500D02*
D03*
X182783D02*
D03*
X138284Y408500D02*
D03*
X143717D02*
D03*
X50067Y469000D02*
D03*
X55500D02*
D03*
X182783Y426000D02*
D03*
X188216D02*
D03*
X138284Y420000D02*
D03*
X143717D02*
D03*
X182783Y407500D02*
D03*
X188216D02*
D03*
X182783Y413500D02*
D03*
X188216D02*
D03*
X117283Y457000D02*
D03*
X122716D02*
D03*
X143717Y432000D02*
D03*
X138284D02*
D03*
X39283Y430000D02*
D03*
X44717D02*
D03*
X85150Y428500D02*
D03*
X79716D02*
D03*
X17784Y560500D02*
D03*
X23216D02*
D03*
X17784Y554500D02*
D03*
X23216D02*
D03*
X17784Y548500D02*
D03*
X23216D02*
D03*
X234193Y648500D02*
D03*
X228760D02*
D03*
X135216Y468500D02*
D03*
X129783D02*
D03*
X117783Y473500D02*
D03*
X123216D02*
D03*
X79976Y138500D02*
D03*
X85409D02*
D03*
X70043D02*
D03*
X75476D02*
D03*
X309784Y173000D02*
D03*
X315216D02*
D03*
X234216Y642000D02*
D03*
X228783D02*
D03*
X152784Y383000D02*
D03*
X158217D02*
D03*
X180217D02*
D03*
X174784D02*
D03*
X230283Y358500D02*
D03*
X235717D02*
D03*
X218067D02*
D03*
X223500D02*
D03*
X164284Y383000D02*
D03*
X169717D02*
D03*
D41*
X217000Y135500D02*
D03*
X211095D02*
D03*
D42*
X168500Y285500D02*
D03*
Y305500D02*
D03*
X193697Y295500D02*
D03*
X38598Y463000D02*
D03*
X13401Y473000D02*
D03*
Y453000D02*
D03*
X67402Y82000D02*
D03*
Y102000D02*
D03*
X92598Y92000D02*
D03*
X173140Y472736D02*
D03*
X147943Y462736D02*
D03*
X173140Y452736D02*
D03*
D43*
X27799Y93000D02*
D03*
X21500D02*
D03*
D44*
X96138Y136791D02*
D03*
X98697D02*
D03*
X101256D02*
D03*
X103815D02*
D03*
Y148209D02*
D03*
X101256D02*
D03*
X98697D02*
D03*
X96138D02*
D03*
X249661Y166709D02*
D03*
X252221D02*
D03*
X254780D02*
D03*
X257339D02*
D03*
Y155291D02*
D03*
X254780D02*
D03*
X252221D02*
D03*
X249661D02*
D03*
X249638Y148209D02*
D03*
X252197D02*
D03*
X254756D02*
D03*
X257315D02*
D03*
Y136791D02*
D03*
X254756D02*
D03*
X252197D02*
D03*
X249638D02*
D03*
D45*
X210831Y153000D02*
D03*
X227169D02*
D03*
D46*
X180055Y348500D02*
D03*
X161945D02*
D03*
D47*
X156130Y150000D02*
D03*
X195500D02*
D03*
D48*
X194033Y261943D02*
D03*
X221592D02*
D03*
X146220Y262000D02*
D03*
X173780D02*
D03*
D49*
X145000Y341500D02*
D03*
X120000Y187000D02*
D03*
X236000Y188000D02*
D03*
X304476Y474500D02*
D03*
Y456500D02*
D03*
Y438500D02*
D03*
Y420500D02*
D03*
X120500Y296500D02*
D03*
X244500Y285500D02*
D03*
X313500Y11000D02*
D03*
D50*
X286709Y326500D02*
D03*
X275291D02*
D03*
X128791Y164500D02*
D03*
X140209D02*
D03*
X275291Y346476D02*
D03*
X286709D02*
D03*
X275291Y336476D02*
D03*
X286709D02*
D03*
D51*
X297756Y249500D02*
D03*
X292244D02*
D03*
X145500Y370150D02*
D03*
Y363850D02*
D03*
X96000Y196150D02*
D03*
Y189850D02*
D03*
X103744Y381000D02*
D03*
X109256D02*
D03*
X219000Y372150D02*
D03*
Y365850D02*
D03*
X81976Y150350D02*
D03*
Y156649D02*
D03*
X270476Y156149D02*
D03*
Y149850D02*
D03*
X22500Y409350D02*
D03*
Y415650D02*
D03*
X112500Y428650D02*
D03*
Y422350D02*
D03*
X249500Y454350D02*
D03*
Y460649D02*
D03*
X350000Y378650D02*
D03*
Y372351D02*
D03*
X77000Y32149D02*
D03*
Y25850D02*
D03*
X138000Y32149D02*
D03*
Y25850D02*
D03*
X198500Y32149D02*
D03*
Y25850D02*
D03*
X244000Y531649D02*
D03*
Y525350D02*
D03*
X244976Y594650D02*
D03*
Y588350D02*
D03*
X272000Y380799D02*
D03*
Y374500D02*
D03*
X171500Y368350D02*
D03*
Y374650D02*
D03*
D52*
X266000Y366453D02*
D03*
Y360547D02*
D03*
X246500Y366000D02*
D03*
Y371905D02*
D03*
X271500Y360547D02*
D03*
Y366453D02*
D03*
X207000Y427453D02*
D03*
Y421547D02*
D03*
X24500Y135953D02*
D03*
Y130047D02*
D03*
X321500Y129547D02*
D03*
Y135453D02*
D03*
D53*
X16953Y513024D02*
D03*
X11047D02*
D03*
X59000Y233500D02*
D03*
X64905D02*
D03*
X17547Y542000D02*
D03*
X23453D02*
D03*
D54*
X248626Y320000D02*
D03*
X214374D02*
D03*
X147126Y225500D02*
D03*
X112874D02*
D03*
X207374D02*
D03*
X241626D02*
D03*
D55*
X41500Y583047D02*
D03*
Y588953D02*
D03*
X296976Y256047D02*
D03*
Y261953D02*
D03*
D56*
X58327Y138500D02*
D03*
X64626D02*
D03*
X287000Y166000D02*
D03*
X280701D02*
D03*
X72000Y245500D02*
D03*
Y251012D02*
D03*
X36500Y228500D02*
D03*
X30201D02*
D03*
X319126Y252000D02*
D03*
X312827D02*
D03*
X61327Y451500D02*
D03*
X67626D02*
D03*
X188673Y431500D02*
D03*
X182374D02*
D03*
X137850Y414000D02*
D03*
X144150D02*
D03*
X67650Y463500D02*
D03*
X61351D02*
D03*
X170650Y407500D02*
D03*
X164350D02*
D03*
X90650Y477500D02*
D03*
X84351D02*
D03*
X69150Y428000D02*
D03*
X62850D02*
D03*
X116850Y451500D02*
D03*
X123150D02*
D03*
X38850Y424500D02*
D03*
X45149D02*
D03*
X85150Y423000D02*
D03*
X78851D02*
D03*
X204350Y490000D02*
D03*
X210649D02*
D03*
X128149Y285000D02*
D03*
X121850D02*
D03*
X260350Y105500D02*
D03*
X266650D02*
D03*
X105850Y87000D02*
D03*
X112150D02*
D03*
X222626Y648500D02*
D03*
X216327D02*
D03*
X124500Y463500D02*
D03*
X118201D02*
D03*
D57*
X115000Y158000D02*
D03*
Y146583D02*
D03*
X240500Y145791D02*
D03*
Y157209D02*
D03*
X245500Y258791D02*
D03*
Y270209D02*
D03*
X190500Y360709D02*
D03*
Y349291D02*
D03*
X200500Y360709D02*
D03*
Y349291D02*
D03*
X137500Y364583D02*
D03*
Y376000D02*
D03*
D58*
X138024Y426000D02*
D03*
X143929D02*
D03*
D59*
X56559Y497150D02*
D03*
X51441D02*
D03*
X54000Y490850D02*
D03*
X34917Y675350D02*
D03*
X40036D02*
D03*
X37477Y681649D02*
D03*
X325476Y477649D02*
D03*
X328035Y471350D02*
D03*
X322917D02*
D03*
X325476Y459650D02*
D03*
X328035Y453350D02*
D03*
X322917D02*
D03*
X325476Y441649D02*
D03*
X328035Y435350D02*
D03*
X322917D02*
D03*
X325476Y423650D02*
D03*
X328035Y417350D02*
D03*
X322917D02*
D03*
X55941Y46350D02*
D03*
X61059D02*
D03*
X58500Y52649D02*
D03*
X119559Y51799D02*
D03*
X122118Y45500D02*
D03*
X117000D02*
D03*
X176941Y45350D02*
D03*
X182059D02*
D03*
X179500Y51649D02*
D03*
D60*
X54500Y319028D02*
D03*
X58240Y309972D02*
D03*
X50760D02*
D03*
X88240Y365445D02*
D03*
X84500Y374500D02*
D03*
X91980D02*
D03*
X60000Y334472D02*
D03*
X56260Y343528D02*
D03*
X63740D02*
D03*
X74000Y374500D02*
D03*
X77740Y365445D02*
D03*
X70260D02*
D03*
X15240Y240528D02*
D03*
X7760D02*
D03*
X11500Y231472D02*
D03*
X312260Y258472D02*
D03*
X319740D02*
D03*
X316000Y267528D02*
D03*
D61*
X344476Y477649D02*
D03*
Y471350D02*
D03*
Y453350D02*
D03*
Y459650D02*
D03*
Y441649D02*
D03*
Y435350D02*
D03*
Y423650D02*
D03*
Y417350D02*
D03*
X86000Y59000D02*
D03*
Y52701D02*
D03*
X146126Y59150D02*
D03*
Y52851D02*
D03*
X206500Y59000D02*
D03*
Y52701D02*
D03*
X202476Y548650D02*
D03*
Y542350D02*
D03*
Y565149D02*
D03*
Y558850D02*
D03*
X202976Y611150D02*
D03*
Y604850D02*
D03*
Y627649D02*
D03*
Y621350D02*
D03*
D62*
X248709Y54839D02*
D03*
Y52280D02*
D03*
Y49720D02*
D03*
Y47161D02*
D03*
X237291D02*
D03*
Y49720D02*
D03*
Y52280D02*
D03*
Y54839D02*
D03*
X259291D02*
D03*
Y52280D02*
D03*
Y49720D02*
D03*
Y47161D02*
D03*
X270709D02*
D03*
Y49720D02*
D03*
Y52280D02*
D03*
Y54839D02*
D03*
X292551Y54807D02*
D03*
Y52248D02*
D03*
Y49689D02*
D03*
Y47130D02*
D03*
X281134D02*
D03*
Y49689D02*
D03*
Y52248D02*
D03*
Y54807D02*
D03*
X105685Y155661D02*
D03*
Y158221D02*
D03*
Y160780D02*
D03*
Y163338D02*
D03*
X94268D02*
D03*
Y160780D02*
D03*
Y158221D02*
D03*
Y155661D02*
D03*
D63*
X301256Y99913D02*
D03*
X295744Y89087D02*
D03*
Y99913D02*
D03*
X301256Y89087D02*
D03*
X207756Y93087D02*
D03*
X202244Y103913D02*
D03*
Y93087D02*
D03*
X207756Y103913D02*
D03*
D64*
X192000Y646716D02*
D03*
Y641284D02*
D03*
X46000Y681716D02*
D03*
Y676284D02*
D03*
X284000Y490000D02*
D03*
Y484567D02*
D03*
X64000Y365784D02*
D03*
Y371217D02*
D03*
X41500Y577716D02*
D03*
Y572284D02*
D03*
X64000Y381433D02*
D03*
Y376000D02*
D03*
X47500Y577716D02*
D03*
Y572284D02*
D03*
X117500Y358717D02*
D03*
Y353284D02*
D03*
X124000D02*
D03*
Y358717D02*
D03*
X87976Y160216D02*
D03*
Y154783D02*
D03*
X264500Y153784D02*
D03*
Y159216D02*
D03*
X72000Y238216D02*
D03*
Y232784D02*
D03*
X290976Y260717D02*
D03*
Y255283D02*
D03*
X305000Y257567D02*
D03*
Y263000D02*
D03*
X12500Y428217D02*
D03*
Y422784D02*
D03*
X22500D02*
D03*
Y428217D02*
D03*
X112500Y409260D02*
D03*
Y414693D02*
D03*
X102500Y414716D02*
D03*
Y409283D02*
D03*
X12500Y415216D02*
D03*
Y409784D02*
D03*
X102500Y422784D02*
D03*
Y428217D02*
D03*
X74000Y469217D02*
D03*
Y463783D02*
D03*
X112000Y463283D02*
D03*
Y468716D02*
D03*
X74000Y479716D02*
D03*
Y474284D02*
D03*
X207000Y415933D02*
D03*
Y410500D02*
D03*
X112000Y478717D02*
D03*
Y473283D02*
D03*
X344500Y372284D02*
D03*
Y377716D02*
D03*
X334476Y477216D02*
D03*
Y471783D02*
D03*
Y459216D02*
D03*
Y453784D02*
D03*
X334476Y435783D02*
D03*
Y441217D02*
D03*
X334476Y422217D02*
D03*
Y416784D02*
D03*
X344500Y383000D02*
D03*
Y388433D02*
D03*
X286000Y100284D02*
D03*
Y105717D02*
D03*
X275000Y99783D02*
D03*
Y105217D02*
D03*
X286000Y92716D02*
D03*
Y87283D02*
D03*
X241000Y103933D02*
D03*
Y98500D02*
D03*
X75000Y53067D02*
D03*
Y58500D02*
D03*
X135000Y53284D02*
D03*
Y58716D02*
D03*
X195000Y53284D02*
D03*
Y58716D02*
D03*
X48874Y27283D02*
D03*
Y32717D02*
D03*
X108874Y28284D02*
D03*
Y33716D02*
D03*
X168000Y28284D02*
D03*
Y33716D02*
D03*
X71000Y31717D02*
D03*
Y26283D02*
D03*
X132000Y31716D02*
D03*
Y26283D02*
D03*
X192500Y31716D02*
D03*
Y26283D02*
D03*
X213977Y548216D02*
D03*
Y542783D02*
D03*
Y564716D02*
D03*
Y559283D02*
D03*
X214977Y609717D02*
D03*
Y604284D02*
D03*
X214976Y627216D02*
D03*
Y621783D02*
D03*
X240476Y542783D02*
D03*
Y548216D02*
D03*
Y559283D02*
D03*
Y564716D02*
D03*
X240976Y604284D02*
D03*
Y609717D02*
D03*
Y620784D02*
D03*
Y626217D02*
D03*
X237977Y525783D02*
D03*
Y531216D02*
D03*
X239000Y588784D02*
D03*
Y594216D02*
D03*
X231977Y525783D02*
D03*
Y531216D02*
D03*
X233000Y588784D02*
D03*
Y594216D02*
D03*
X25000Y170717D02*
D03*
Y165284D02*
D03*
X24500Y147433D02*
D03*
Y142000D02*
D03*
X332500Y135216D02*
D03*
Y129783D02*
D03*
D65*
X25335Y653185D02*
D03*
Y613815D02*
D03*
X7618Y653185D02*
D03*
Y613815D02*
D03*
X318642Y364315D02*
D03*
Y403685D02*
D03*
X336358Y364315D02*
D03*
Y403685D02*
D03*
D66*
X18488Y56000D02*
D03*
X7464Y65842D02*
D03*
Y46158D02*
D03*
D67*
X12500Y161000D02*
D03*
X342000Y162000D02*
D03*
X231000Y95500D02*
D03*
X136000Y98000D02*
D03*
X50500Y92000D02*
D03*
X153000Y295500D02*
D03*
X94000Y508000D02*
D03*
X93500Y312000D02*
D03*
D68*
X43500Y597382D02*
D03*
Y607618D02*
D03*
M02*
