G04*
G04 #@! TF.GenerationSoftware,Altium Limited,Altium Designer,21.2.1 (34)*
G04*
G04 Layer_Color=128*
%FSLAX25Y25*%
%MOIN*%
G70*
G04*
G04 #@! TF.SameCoordinates,E3247584-B976-4F33-B0A2-C8B4A793FEE3*
G04*
G04*
G04 #@! TF.FilePolarity,Positive*
G04*
G01*
G75*
%ADD99C,0.00200*%
D99*
X198988Y11000D02*
X202532D01*
X200760Y9228D02*
Y12772D01*
X172216Y11000D02*
X175760D01*
X173988Y9228D02*
Y12772D01*
X111716Y11000D02*
X115260D01*
X113488Y9228D02*
Y12772D01*
X138488Y11000D02*
X142032D01*
X140260Y9228D02*
Y12772D01*
X9449Y673228D02*
X22047D01*
X15748Y666929D02*
Y679528D01*
X6350Y113500D02*
X12650D01*
X9500Y110350D02*
Y116650D01*
X3598Y287000D02*
X9504D01*
X6551Y284047D02*
Y289953D01*
X72496Y287000D02*
X78402D01*
X75449Y284047D02*
Y289953D01*
X344996Y206500D02*
X350902D01*
X347949Y203547D02*
Y209453D01*
X276098Y206500D02*
X282004D01*
X279051Y203547D02*
Y209453D01*
X278335Y577500D02*
X282665D01*
X280500Y575335D02*
Y579665D01*
X278335Y567500D02*
X282665D01*
X280500Y565335D02*
Y569665D01*
X288335Y577500D02*
X292665D01*
X290500Y575335D02*
Y579665D01*
X288335Y567500D02*
X292665D01*
X290500Y565335D02*
Y569665D01*
X278335Y537500D02*
X282665D01*
X280500Y535335D02*
Y539665D01*
X288335Y537500D02*
X292665D01*
X290500Y535335D02*
Y539665D01*
X278335Y527500D02*
X282665D01*
X280500Y525335D02*
Y529665D01*
X288335Y527500D02*
X292665D01*
X290500Y525335D02*
Y529665D01*
X288335Y507500D02*
X292665D01*
X290500Y505335D02*
Y509665D01*
X278335Y507500D02*
X282665D01*
X280500Y505335D02*
Y509665D01*
X288335Y517500D02*
X292665D01*
X290500Y515335D02*
Y519665D01*
X278335Y517500D02*
X282665D01*
X280500Y515335D02*
Y519665D01*
X288335Y547500D02*
X292665D01*
X290500Y545335D02*
Y549665D01*
X278335Y547500D02*
X282665D01*
X280500Y545335D02*
Y549665D01*
X288335Y557500D02*
X292665D01*
X290500Y555335D02*
Y559665D01*
X278335Y557500D02*
X282665D01*
X280500Y555335D02*
Y559665D01*
X54677Y527500D02*
X59008D01*
X56842Y525335D02*
Y529665D01*
X44677Y527500D02*
X49008D01*
X46843Y525335D02*
Y529665D01*
X54677Y537500D02*
X59008D01*
X56842Y535335D02*
Y539665D01*
X44677Y537500D02*
X49008D01*
X46843Y535335D02*
Y539665D01*
X44677Y557500D02*
X49008D01*
X46843Y555335D02*
Y559665D01*
X54677Y557500D02*
X59008D01*
X56842Y555335D02*
Y559665D01*
X44677Y547500D02*
X49008D01*
X46843Y545335D02*
Y549665D01*
X54677Y547500D02*
X59008D01*
X56842Y545335D02*
Y549665D01*
X44677Y517500D02*
X49008D01*
X46843Y515335D02*
Y519665D01*
X44677Y507500D02*
X49008D01*
X46843Y505335D02*
Y509665D01*
X54677Y517500D02*
X59008D01*
X56842Y515335D02*
Y519665D01*
X54677Y507500D02*
X59008D01*
X56842Y505335D02*
Y509665D01*
X345335Y527000D02*
X349665D01*
X347500Y524835D02*
Y529165D01*
X345335Y537000D02*
X349665D01*
X347500Y534835D02*
Y539165D01*
X345335Y547000D02*
X349665D01*
X347500Y544835D02*
Y549165D01*
X345335Y567000D02*
X349665D01*
X347500Y564835D02*
Y569165D01*
X345335Y577000D02*
X349665D01*
X347500Y574835D02*
Y579165D01*
X345335Y597000D02*
X349665D01*
X347500Y594835D02*
Y599165D01*
X345335Y617000D02*
X349665D01*
X347500Y614835D02*
Y619165D01*
X345335Y637000D02*
X349665D01*
X347500Y634835D02*
Y639165D01*
X345335Y627000D02*
X349665D01*
X347500Y624835D02*
Y629165D01*
X345335Y607000D02*
X349665D01*
X347500Y604835D02*
Y609165D01*
X345335Y587000D02*
X349665D01*
X347500Y584835D02*
Y589165D01*
X345335Y557000D02*
X349665D01*
X347500Y554835D02*
Y559165D01*
X308335Y339024D02*
X312665D01*
X310500Y336858D02*
Y341189D01*
X308335Y329024D02*
X312665D01*
X310500Y326858D02*
Y331189D01*
X298335Y339024D02*
X302665D01*
X300500Y336858D02*
Y341189D01*
X298335Y329024D02*
X302665D01*
X300500Y326858D02*
Y331189D01*
X94811Y566500D02*
X99142D01*
X96976Y564335D02*
Y568665D01*
X104811Y566500D02*
X109142D01*
X106976Y564335D02*
Y568665D01*
X114811Y566500D02*
X119142D01*
X116976Y564335D02*
Y568665D01*
X141335Y185000D02*
X145665D01*
X143500Y182835D02*
Y187165D01*
X151335Y185000D02*
X155665D01*
X153500Y182835D02*
Y187165D01*
X237677Y15968D02*
X242008D01*
X239843Y13803D02*
Y18134D01*
X237677Y25968D02*
X242008D01*
X239843Y23803D02*
Y28134D01*
X247677Y15968D02*
X252008D01*
X249843Y13803D02*
Y18134D01*
X247677Y25968D02*
X252008D01*
X249843Y23803D02*
Y28134D01*
X257677Y15968D02*
X262008D01*
X259842Y13803D02*
Y18134D01*
X257677Y25968D02*
X262008D01*
X259842Y23803D02*
Y28134D01*
X267677Y15968D02*
X272008D01*
X269843Y13803D02*
Y18134D01*
X277677Y15968D02*
X282008D01*
X279842Y13803D02*
Y18134D01*
X267677Y25968D02*
X272008D01*
X269843Y23803D02*
Y28134D01*
X277677Y25968D02*
X282008D01*
X279842Y23803D02*
Y28134D01*
X38268Y366500D02*
X41417D01*
X39843Y364925D02*
Y368075D01*
X18583Y366500D02*
X21732D01*
X20157Y364925D02*
Y368075D01*
X72169Y557500D02*
X75516D01*
X73842Y555827D02*
Y559173D01*
X262169Y683500D02*
X265516D01*
X263843Y681827D02*
Y685173D01*
X262169Y673500D02*
X265516D01*
X263843Y671827D02*
Y675173D01*
X262169Y663500D02*
X265516D01*
X263843Y661827D02*
Y665173D01*
X262169Y653500D02*
X265516D01*
X263843Y651827D02*
Y655173D01*
X262169Y643500D02*
X265516D01*
X263843Y641827D02*
Y645173D01*
X262169Y633500D02*
X265516D01*
X263843Y631827D02*
Y635173D01*
X262169Y623500D02*
X265516D01*
X263843Y621827D02*
Y625173D01*
X262169Y613500D02*
X265516D01*
X263843Y611827D02*
Y615173D01*
X262169Y603500D02*
X265516D01*
X263843Y601827D02*
Y605173D01*
X262169Y577500D02*
X265516D01*
X263843Y575827D02*
Y579173D01*
X262169Y593500D02*
X265516D01*
X263843Y591827D02*
Y595173D01*
X262169Y567500D02*
X265516D01*
X263843Y565827D02*
Y569173D01*
X262169Y557500D02*
X265516D01*
X263843Y555827D02*
Y559173D01*
X262169Y547500D02*
X265516D01*
X263843Y545827D02*
Y549173D01*
X262169Y537500D02*
X265516D01*
X263843Y535827D02*
Y539173D01*
X262169Y527500D02*
X265516D01*
X263843Y525827D02*
Y529173D01*
X262169Y517500D02*
X265516D01*
X263843Y515827D02*
Y519173D01*
X72169Y507500D02*
X75516D01*
X73842Y505827D02*
Y509173D01*
X262169Y507500D02*
X265516D01*
X263843Y505827D02*
Y509173D01*
X72169Y517500D02*
X75516D01*
X73842Y515827D02*
Y519173D01*
X72169Y527500D02*
X75516D01*
X73842Y525827D02*
Y529173D01*
X72169Y537500D02*
X75516D01*
X73842Y535827D02*
Y539173D01*
X72169Y547500D02*
X75516D01*
X73842Y545827D02*
Y549173D01*
X72169Y647500D02*
X75516D01*
X73842Y645827D02*
Y649173D01*
X72169Y637500D02*
X75516D01*
X73842Y635827D02*
Y639173D01*
X72169Y617500D02*
X75516D01*
X73842Y615827D02*
Y619173D01*
X72169Y607500D02*
X75516D01*
X73842Y605827D02*
Y609173D01*
X72169Y627500D02*
X75516D01*
X73842Y625827D02*
Y629173D01*
X72169Y597500D02*
X75516D01*
X73842Y595827D02*
Y599173D01*
X72169Y587500D02*
X75516D01*
X73842Y585827D02*
Y589173D01*
X72169Y577500D02*
X75516D01*
X73842Y575827D02*
Y579173D01*
X11205Y69386D02*
X14748D01*
X12976Y67614D02*
Y71158D01*
X11205Y42614D02*
X14748D01*
X12976Y40843D02*
Y44386D01*
X51717Y11000D02*
X55260D01*
X53488Y9228D02*
Y12772D01*
X78488Y11000D02*
X82032D01*
X80260Y9228D02*
Y12772D01*
X236091Y677500D02*
X239634D01*
X237862Y675728D02*
Y679272D01*
X209319Y677500D02*
X212862D01*
X211090Y675728D02*
Y679272D01*
X94835Y533500D02*
X99165D01*
X97000Y531335D02*
Y535665D01*
X104835Y533500D02*
X109165D01*
X107000Y531335D02*
Y535665D01*
X114835Y533500D02*
X119165D01*
X117000Y531335D02*
Y535665D01*
X344496Y302000D02*
X350402D01*
X347449Y299047D02*
Y304953D01*
X275598Y302000D02*
X281504D01*
X278551Y299047D02*
Y304953D01*
X4150Y206000D02*
X10055D01*
X7102Y203047D02*
Y208953D01*
X73047Y206000D02*
X78953D01*
X76000Y203047D02*
Y208953D01*
X103311Y671500D02*
X107642D01*
X105476Y669335D02*
Y673665D01*
X93311Y671500D02*
X97642D01*
X95476Y669335D02*
Y673665D01*
X131811Y671500D02*
X136142D01*
X133976Y669335D02*
Y673665D01*
X121811Y671500D02*
X126142D01*
X123976Y669335D02*
Y673665D01*
X160811Y671500D02*
X165142D01*
X162976Y669335D02*
Y673665D01*
X150811Y671500D02*
X155142D01*
X152976Y669335D02*
Y673665D01*
X278335Y663500D02*
X282665D01*
X280500Y661335D02*
Y665665D01*
X278335Y653500D02*
X282665D01*
X280500Y651335D02*
Y655665D01*
X288335Y663500D02*
X292665D01*
X290500Y661335D02*
Y665665D01*
X288335Y653500D02*
X292665D01*
X290500Y651335D02*
Y655665D01*
X278335Y623500D02*
X282665D01*
X280500Y621335D02*
Y625665D01*
X288335Y623500D02*
X292665D01*
X290500Y621335D02*
Y625665D01*
X278335Y613500D02*
X282665D01*
X280500Y611335D02*
Y615665D01*
X288335Y613500D02*
X292665D01*
X290500Y611335D02*
Y615665D01*
X288335Y593500D02*
X292665D01*
X290500Y591335D02*
Y595665D01*
X278335Y593500D02*
X282665D01*
X280500Y591335D02*
Y595665D01*
X288335Y603500D02*
X292665D01*
X290500Y601335D02*
Y605665D01*
X278335Y603500D02*
X282665D01*
X280500Y601335D02*
Y605665D01*
X288335Y633500D02*
X292665D01*
X290500Y631335D02*
Y635665D01*
X278335Y633500D02*
X282665D01*
X280500Y631335D02*
Y635665D01*
X288335Y643500D02*
X292665D01*
X290500Y641335D02*
Y645665D01*
X278335Y643500D02*
X282665D01*
X280500Y641335D02*
Y645665D01*
X117311Y645500D02*
X121642D01*
X119476Y643335D02*
Y647665D01*
X107311Y645500D02*
X111642D01*
X109476Y643335D02*
Y647665D01*
X97311Y645500D02*
X101642D01*
X99476Y643335D02*
Y647665D01*
X94811Y611500D02*
X99142D01*
X96976Y609335D02*
Y613665D01*
X104811Y611500D02*
X109142D01*
X106976Y609335D02*
Y613665D01*
X114811Y611500D02*
X119142D01*
X116976Y609335D02*
Y613665D01*
X94811Y593500D02*
X99142D01*
X96976Y591335D02*
Y595665D01*
X104811Y593500D02*
X109142D01*
X106976Y591335D02*
Y595665D01*
X114811Y593500D02*
X119142D01*
X116976Y591335D02*
Y595665D01*
X18835Y572000D02*
X23165D01*
X21000Y569835D02*
Y574165D01*
X8835Y572000D02*
X13165D01*
X11000Y569835D02*
Y574165D01*
X9449Y15748D02*
X22047D01*
X15748Y9449D02*
Y22047D01*
X332283Y15748D02*
X344882D01*
X338583Y9449D02*
Y22047D01*
X332283Y673228D02*
X344882D01*
X338583Y666929D02*
Y679528D01*
X219350Y55500D02*
X225650D01*
X222500Y52350D02*
Y58650D01*
X6835Y523524D02*
X11165D01*
X9000Y521358D02*
Y525689D01*
X16835Y523524D02*
X21165D01*
X19000Y521358D02*
Y525689D01*
X233850Y402000D02*
X240150D01*
X237000Y398850D02*
Y405150D01*
X136850Y122500D02*
X143150D01*
X140000Y119350D02*
Y125650D01*
X207850Y285500D02*
X214150D01*
X211000Y282350D02*
Y288650D01*
X141850Y649000D02*
X148150D01*
X145000Y645850D02*
Y652150D01*
X185335Y92000D02*
X189665D01*
X187500Y89835D02*
Y94165D01*
X185335Y102000D02*
X189665D01*
X187500Y99835D02*
Y104165D01*
X200135Y185500D02*
X204465D01*
X202300Y183335D02*
Y187665D01*
X210135Y185500D02*
X214465D01*
X212300Y183335D02*
Y187665D01*
X179335Y185000D02*
X183665D01*
X181500Y182835D02*
Y187165D01*
X169335Y185000D02*
X173665D01*
X171500Y182835D02*
Y187165D01*
X101909Y87000D02*
X103091D01*
X102500Y86409D02*
Y87590D01*
X315409Y264000D02*
X316590D01*
X316000Y263409D02*
Y264591D01*
X280410Y375500D02*
X281591D01*
X281000Y374909D02*
Y376091D01*
X113209Y79200D02*
X114391D01*
X113800Y78610D02*
Y79791D01*
X27909Y9500D02*
X29091D01*
X28500Y8909D02*
Y10091D01*
X14909Y503000D02*
X16091D01*
X15500Y502410D02*
Y503590D01*
X193909Y545500D02*
X195091D01*
X194500Y544909D02*
Y546091D01*
X132665Y125000D02*
X133846D01*
X133256Y124409D02*
Y125591D01*
X126909Y142217D02*
X128091D01*
X127500Y141626D02*
Y142807D01*
X123596Y144343D02*
X124777D01*
X124187Y143752D02*
Y144933D01*
X141909Y116000D02*
X143091D01*
X142500Y115409D02*
Y116591D01*
X159909Y123500D02*
X161091D01*
X160500Y122909D02*
Y124091D01*
X153909Y123500D02*
X155091D01*
X154500Y122909D02*
Y124091D01*
X133409Y117000D02*
X134591D01*
X134000Y116409D02*
Y117591D01*
X18910Y105500D02*
X20090D01*
X19500Y104909D02*
Y106091D01*
X147909Y118500D02*
X149091D01*
X148500Y117909D02*
Y119091D01*
X150409Y86000D02*
X151591D01*
X151000Y85409D02*
Y86590D01*
X192409Y87500D02*
X193591D01*
X193000Y86910D02*
Y88090D01*
X174409Y87000D02*
X175591D01*
X175000Y86409D02*
Y87590D01*
X167909Y87000D02*
X169091D01*
X168500Y86409D02*
Y87590D01*
X167909Y107500D02*
X169091D01*
X168500Y106909D02*
Y108091D01*
X168176Y123010D02*
X169358D01*
X168767Y122420D02*
Y123601D01*
X213409Y246000D02*
X214591D01*
X214000Y245409D02*
Y246590D01*
X228410Y216000D02*
X229591D01*
X229000Y215409D02*
Y216590D01*
X202409Y202000D02*
X203591D01*
X203000Y201409D02*
Y202591D01*
X203409Y217000D02*
X204591D01*
X204000Y216409D02*
Y217590D01*
X154367Y218113D02*
X155548D01*
X154958Y217522D02*
Y218703D01*
X84409Y542500D02*
X85590D01*
X85000Y541910D02*
Y543090D01*
X303739Y659290D02*
X304920D01*
X304329Y658699D02*
Y659880D01*
X304909Y513000D02*
X306090D01*
X305500Y512409D02*
Y513590D01*
X304909Y563000D02*
X306090D01*
X305500Y562409D02*
Y563590D01*
X304410Y542500D02*
X305591D01*
X305000Y541910D02*
Y543090D01*
X250623Y514687D02*
X251804D01*
X251213Y514097D02*
Y515278D01*
X196909Y522000D02*
X198091D01*
X197500Y521410D02*
Y522590D01*
X347909Y465000D02*
X349091D01*
X348500Y464409D02*
Y465590D01*
X347909Y447500D02*
X349091D01*
X348500Y446910D02*
Y448091D01*
X327410Y449000D02*
X328590D01*
X328000Y448410D02*
Y449590D01*
X327410Y467000D02*
X328590D01*
X328000Y466409D02*
Y467591D01*
X304909Y488000D02*
X306090D01*
X305500Y487409D02*
Y488590D01*
X316910Y483500D02*
X318091D01*
X317500Y482909D02*
Y484091D01*
X347410Y505500D02*
X348590D01*
X348000Y504910D02*
Y506090D01*
X347410Y517000D02*
X348590D01*
X348000Y516409D02*
Y517591D01*
X347410Y493500D02*
X348590D01*
X348000Y492909D02*
Y494091D01*
X327410Y505500D02*
X328590D01*
X328000Y504910D02*
Y506090D01*
X318324Y505791D02*
X319505D01*
X318914Y505201D02*
Y506382D01*
X318409Y517500D02*
X319590D01*
X319000Y516910D02*
Y518090D01*
X315114Y554952D02*
X316295D01*
X315705Y554362D02*
Y555543D01*
X317910Y542000D02*
X319091D01*
X318500Y541409D02*
Y542591D01*
X327410Y542000D02*
X328590D01*
X328000Y541409D02*
Y542591D01*
X327410Y632000D02*
X328590D01*
X328000Y631410D02*
Y632590D01*
X303909Y679000D02*
X305090D01*
X304500Y678409D02*
Y679591D01*
X288409Y679000D02*
X289591D01*
X289000Y678409D02*
Y679591D01*
X215910Y673000D02*
X217091D01*
X216500Y672409D02*
Y673591D01*
X185409Y681000D02*
X186591D01*
X186000Y680409D02*
Y681591D01*
X78909Y567000D02*
X80090D01*
X79500Y566409D02*
Y567591D01*
X50409Y603500D02*
X51591D01*
X51000Y602910D02*
Y604090D01*
X106409Y603500D02*
X107591D01*
X107000Y602910D02*
Y604090D01*
X82410Y602000D02*
X83591D01*
X83000Y601409D02*
Y602591D01*
X45409Y613500D02*
X46591D01*
X46000Y612910D02*
Y614090D01*
X36909Y613500D02*
X38091D01*
X37500Y612910D02*
Y614090D01*
X84409Y557000D02*
X85590D01*
X85000Y556410D02*
Y557590D01*
X123909Y550500D02*
X125091D01*
X124500Y549909D02*
Y551090D01*
X160409Y554500D02*
X161591D01*
X161000Y553909D02*
Y555091D01*
X173909Y554500D02*
X175091D01*
X174500Y553909D02*
Y555091D01*
X149909Y554500D02*
X151091D01*
X150500Y553909D02*
Y555091D01*
X123909Y566500D02*
X125091D01*
X124500Y565909D02*
Y567091D01*
X101909Y588500D02*
X103091D01*
X102500Y587910D02*
Y589090D01*
X157409Y594000D02*
X158591D01*
X158000Y593409D02*
Y594591D01*
X144909Y594000D02*
X146091D01*
X145500Y593409D02*
Y594591D01*
X205909Y633500D02*
X207090D01*
X206500Y632909D02*
Y634091D01*
X197409Y610500D02*
X198591D01*
X198000Y609909D02*
Y611091D01*
X142710Y624574D02*
X143891D01*
X143300Y623983D02*
Y625164D01*
X142909Y608500D02*
X144091D01*
X143500Y607909D02*
Y609091D01*
X191184Y633821D02*
X192365D01*
X191775Y633230D02*
Y634411D01*
X158409Y634000D02*
X159591D01*
X159000Y633410D02*
Y634590D01*
X179909Y634000D02*
X181091D01*
X180500Y633410D02*
Y634590D01*
X169409Y634000D02*
X170591D01*
X170000Y633410D02*
Y634590D01*
X169909Y660000D02*
X171091D01*
X170500Y659410D02*
Y660591D01*
X198909Y652000D02*
X200091D01*
X199500Y651409D02*
Y652591D01*
X126909Y627500D02*
X128091D01*
X127500Y626909D02*
Y628090D01*
X118409Y628000D02*
X119591D01*
X119000Y627410D02*
Y628590D01*
X106909Y628000D02*
X108091D01*
X107500Y627410D02*
Y628590D01*
X94404Y628084D02*
X95585D01*
X94994Y627493D02*
Y628674D01*
X142909Y674500D02*
X144091D01*
X143500Y673910D02*
Y675091D01*
X114409Y674500D02*
X115591D01*
X115000Y673910D02*
Y675091D01*
X7909Y635500D02*
X9091D01*
X8500Y634909D02*
Y636091D01*
X56410Y642500D02*
X57591D01*
X57000Y641910D02*
Y643090D01*
X56410Y632500D02*
X57591D01*
X57000Y631910D02*
Y633090D01*
X5909Y588500D02*
X7091D01*
X6500Y587910D02*
Y589090D01*
X52409Y582500D02*
X53591D01*
X53000Y581910D02*
Y583090D01*
X49909Y593500D02*
X51091D01*
X50500Y592909D02*
Y594091D01*
X45409Y567000D02*
X46591D01*
X46000Y566409D02*
Y567591D01*
X56410Y567000D02*
X57591D01*
X57000Y566409D02*
Y567591D01*
X67409Y567000D02*
X68590D01*
X68000Y566409D02*
Y567591D01*
X105909Y525000D02*
X107091D01*
X106500Y524409D02*
Y525591D01*
X113409Y551000D02*
X114591D01*
X114000Y550410D02*
Y551590D01*
X112409Y518500D02*
X113591D01*
X113000Y517909D02*
Y519091D01*
X103409Y518500D02*
X104591D01*
X104000Y517909D02*
Y519091D01*
X86409Y519000D02*
X87590D01*
X87000Y518409D02*
Y519591D01*
X144409Y514000D02*
X145591D01*
X145000Y513410D02*
Y514591D01*
X156409Y514000D02*
X157591D01*
X157000Y513410D02*
Y514591D01*
X172158Y513519D02*
X173339D01*
X172749Y512928D02*
Y514109D01*
X304909Y500000D02*
X306090D01*
X305500Y499409D02*
Y500591D01*
X229909Y500500D02*
X231090D01*
X230500Y499909D02*
Y501090D01*
X212910Y503000D02*
X214090D01*
X213500Y502410D02*
Y503590D01*
X202409Y503000D02*
X203591D01*
X203000Y502410D02*
Y503590D01*
X192409Y503000D02*
X193591D01*
X193000Y502410D02*
Y503590D01*
X125909Y505500D02*
X127091D01*
X126500Y504910D02*
Y506090D01*
X5409Y503000D02*
X6591D01*
X6000Y502410D02*
Y503590D01*
X5409Y444000D02*
X6591D01*
X6000Y443409D02*
Y444591D01*
X6409Y481000D02*
X7591D01*
X7000Y480409D02*
Y481591D01*
X30409Y472500D02*
X31591D01*
X31000Y471910D02*
Y473091D01*
X40909Y454500D02*
X42091D01*
X41500Y453909D02*
Y455091D01*
X40909Y477000D02*
X42091D01*
X41500Y476409D02*
Y477591D01*
X157909Y487500D02*
X159091D01*
X158500Y486909D02*
Y488091D01*
X143409Y487500D02*
X144591D01*
X144000Y486909D02*
Y488091D01*
X140409Y457500D02*
X141591D01*
X141000Y456910D02*
Y458090D01*
X169409Y465500D02*
X170591D01*
X170000Y464910D02*
Y466090D01*
X180409Y443000D02*
X181591D01*
X181000Y442410D02*
Y443590D01*
X200909Y450000D02*
X202091D01*
X201500Y449409D02*
Y450591D01*
X227909Y461000D02*
X229090D01*
X228500Y460409D02*
Y461590D01*
X240409Y461000D02*
X241590D01*
X241000Y460409D02*
Y461590D01*
X287910Y462500D02*
X289090D01*
X288500Y461909D02*
Y463091D01*
X277909Y462500D02*
X279090D01*
X278500Y461909D02*
Y463091D01*
X267409Y462500D02*
X268590D01*
X268000Y461909D02*
Y463091D01*
X257410Y462500D02*
X258591D01*
X258000Y461909D02*
Y463091D01*
X282909Y447500D02*
X284090D01*
X283500Y446910D02*
Y448091D01*
X271909Y447500D02*
X273091D01*
X272500Y446910D02*
Y448091D01*
X261910Y447500D02*
X263090D01*
X262500Y446910D02*
Y448091D01*
X252410Y447500D02*
X253590D01*
X253000Y446910D02*
Y448091D01*
X218409Y414500D02*
X219590D01*
X219000Y413909D02*
Y415091D01*
X218409Y423000D02*
X219590D01*
X219000Y422409D02*
Y423591D01*
X221909Y407000D02*
X223091D01*
X222500Y406410D02*
Y407590D01*
X218409Y431500D02*
X219590D01*
X219000Y430909D02*
Y432091D01*
X226909Y418500D02*
X228091D01*
X227500Y417909D02*
Y419091D01*
X226909Y430500D02*
X228091D01*
X227500Y429910D02*
Y431090D01*
X347410Y397500D02*
X348590D01*
X348000Y396909D02*
Y398091D01*
X347909Y429500D02*
X349091D01*
X348500Y428909D02*
Y430091D01*
X327410Y431000D02*
X328590D01*
X328000Y430409D02*
Y431591D01*
X327410Y412500D02*
X328590D01*
X328000Y411909D02*
Y413091D01*
X326410Y392500D02*
X327590D01*
X327000Y391910D02*
Y393091D01*
X318409Y392000D02*
X319590D01*
X319000Y391409D02*
Y392590D01*
X308410Y392000D02*
X309591D01*
X309000Y391409D02*
Y392590D01*
X306909Y398000D02*
X308090D01*
X307500Y397410D02*
Y398590D01*
X283910Y397500D02*
X285090D01*
X284500Y396909D02*
Y398091D01*
X273410Y397500D02*
X274590D01*
X274000Y396909D02*
Y398091D01*
X259910Y397500D02*
X261090D01*
X260500Y396909D02*
Y398091D01*
X97909Y401604D02*
X99090D01*
X98500Y401013D02*
Y402194D01*
X112909Y401604D02*
X114091D01*
X113500Y401013D02*
Y402194D01*
X103909Y401604D02*
X105091D01*
X104500Y401013D02*
Y402194D01*
X91409Y401604D02*
X92590D01*
X92000Y401013D02*
Y402194D01*
X204909Y376000D02*
X206090D01*
X205500Y375410D02*
Y376590D01*
X141909Y359500D02*
X143091D01*
X142500Y358910D02*
Y360090D01*
X19909Y336000D02*
X21091D01*
X20500Y335409D02*
Y336591D01*
X5909Y336500D02*
X7091D01*
X6500Y335910D02*
Y337090D01*
X5909Y352000D02*
X7091D01*
X6500Y351410D02*
Y352590D01*
X5909Y366000D02*
X7091D01*
X6500Y365409D02*
Y366590D01*
X5909Y384000D02*
X7091D01*
X6500Y383410D02*
Y384591D01*
X19410Y386500D02*
X20591D01*
X20000Y385910D02*
Y387090D01*
X37909Y397500D02*
X39091D01*
X38500Y396909D02*
Y398091D01*
X46909Y397500D02*
X48091D01*
X47500Y396909D02*
Y398091D01*
X82410Y401000D02*
X83591D01*
X83000Y400410D02*
Y401590D01*
X123909Y391500D02*
X125091D01*
X124500Y390910D02*
Y392091D01*
X140909Y382000D02*
X142091D01*
X141500Y381410D02*
Y382591D01*
X129409Y346500D02*
X130591D01*
X130000Y345910D02*
Y347091D01*
X129409Y357500D02*
X130591D01*
X130000Y356909D02*
Y358090D01*
X133409Y350500D02*
X134591D01*
X134000Y349909D02*
Y351091D01*
X140409Y350000D02*
X141591D01*
X141000Y349410D02*
Y350590D01*
X148909Y361000D02*
X150091D01*
X149500Y360409D02*
Y361591D01*
X173409Y352500D02*
X174591D01*
X174000Y351909D02*
Y353091D01*
X173409Y341500D02*
X174591D01*
X174000Y340910D02*
Y342091D01*
X173909Y363000D02*
X175091D01*
X174500Y362409D02*
Y363591D01*
X195909Y374000D02*
X197091D01*
X196500Y373410D02*
Y374590D01*
X194909Y366000D02*
X196091D01*
X195500Y365409D02*
Y366590D01*
X195909Y382500D02*
X197091D01*
X196500Y381909D02*
Y383090D01*
X212910Y376000D02*
X214090D01*
X213500Y375410D02*
Y376590D01*
X251778Y375349D02*
X252959D01*
X252368Y374758D02*
Y375939D01*
X271909Y370500D02*
X273091D01*
X272500Y369910D02*
Y371091D01*
X259409Y371000D02*
X260591D01*
X260000Y370409D02*
Y371590D01*
X286910Y376000D02*
X288090D01*
X287500Y375410D02*
Y376590D01*
X286910Y367000D02*
X288090D01*
X287500Y366409D02*
Y367590D01*
X318409Y376500D02*
X319590D01*
X319000Y375909D02*
Y377091D01*
X310409Y367500D02*
X311591D01*
X311000Y366910D02*
Y368091D01*
X326410Y367500D02*
X327590D01*
X327000Y366910D02*
Y368091D01*
X208410Y364500D02*
X209591D01*
X209000Y363910D02*
Y365090D01*
X204909Y340500D02*
X206090D01*
X205500Y339910D02*
Y341090D01*
X253410Y340500D02*
X254591D01*
X254000Y339910D02*
Y341090D01*
X279909Y341500D02*
X281090D01*
X280500Y340910D02*
Y342091D01*
X314013Y347951D02*
X315194D01*
X314603Y347360D02*
Y348541D01*
X347909Y358500D02*
X349091D01*
X348500Y357909D02*
Y359090D01*
X332909Y350500D02*
X334090D01*
X333500Y349909D02*
Y351091D01*
X347857Y348570D02*
X349038D01*
X348448Y347980D02*
Y349161D01*
X347733Y321916D02*
X348914D01*
X348324Y321325D02*
Y322506D01*
X332980Y321544D02*
X334162D01*
X333571Y320954D02*
Y322135D01*
X176409Y298500D02*
X177591D01*
X177000Y297909D02*
Y299091D01*
X201909Y303500D02*
X203091D01*
X202500Y302909D02*
Y304090D01*
X179409Y307500D02*
X180591D01*
X180000Y306909D02*
Y308090D01*
X151409Y307500D02*
X152591D01*
X152000Y306909D02*
Y308090D01*
X140909Y307500D02*
X142091D01*
X141500Y306909D02*
Y308090D01*
X71516Y310272D02*
X72697D01*
X72107Y309681D02*
Y310862D01*
X157909Y258000D02*
X159091D01*
X158500Y257410D02*
Y258591D01*
X36830Y320367D02*
X38012D01*
X37421Y319776D02*
Y320957D01*
X61910Y281000D02*
X63090D01*
X62500Y280410D02*
Y281591D01*
X20410Y270000D02*
X21590D01*
X21000Y269409D02*
Y270590D01*
X130409Y241000D02*
X131591D01*
X131000Y240409D02*
Y241590D01*
X198311Y253313D02*
X199492D01*
X198901Y252723D02*
Y253904D01*
X229909Y205500D02*
X231090D01*
X230500Y204909D02*
Y206090D01*
X222909Y221500D02*
X224091D01*
X223500Y220910D02*
Y222091D01*
X170409Y275000D02*
X171591D01*
X171000Y274410D02*
Y275590D01*
X157409Y285000D02*
X158591D01*
X158000Y284409D02*
Y285591D01*
X170909Y292000D02*
X172091D01*
X171500Y291409D02*
Y292590D01*
X179909Y282000D02*
X181091D01*
X180500Y281410D02*
Y282591D01*
X179909Y291500D02*
X181091D01*
X180500Y290910D02*
Y292091D01*
X192534Y289585D02*
X193715D01*
X193125Y288994D02*
Y290175D01*
X196909Y313000D02*
X198091D01*
X197500Y312409D02*
Y313591D01*
X196409Y322500D02*
X197591D01*
X197000Y321909D02*
Y323091D01*
X209409Y313000D02*
X210591D01*
X210000Y312409D02*
Y313591D01*
X279410Y314500D02*
X280591D01*
X280000Y313910D02*
Y315090D01*
X264910Y314500D02*
X266090D01*
X265500Y313910D02*
Y315090D01*
X252410Y313000D02*
X253590D01*
X253000Y312409D02*
Y313591D01*
X238910Y313000D02*
X240090D01*
X239500Y312409D02*
Y313591D01*
X244910Y277000D02*
X246091D01*
X245500Y276410D02*
Y277590D01*
X232909Y279000D02*
X234090D01*
X233500Y278410D02*
Y279591D01*
X222410Y279000D02*
X223590D01*
X223000Y278410D02*
Y279591D01*
X267409Y222000D02*
X268590D01*
X268000Y221410D02*
Y222590D01*
X277410Y267500D02*
X278590D01*
X278000Y266910D02*
Y268091D01*
X277410Y257000D02*
X278590D01*
X278000Y256410D02*
Y257591D01*
X277410Y244500D02*
X278590D01*
X278000Y243910D02*
Y245091D01*
X279410Y221500D02*
X280591D01*
X280000Y220910D02*
Y222091D01*
X318409Y222500D02*
X319590D01*
X319000Y221909D02*
Y223091D01*
X347909Y252500D02*
X349091D01*
X348500Y251909D02*
Y253091D01*
X349410Y285000D02*
X350590D01*
X350000Y284409D02*
Y285591D01*
X338910Y285000D02*
X340090D01*
X339500Y284409D02*
Y285591D01*
X328909Y285000D02*
X330090D01*
X329500Y284409D02*
Y285591D01*
X317409Y285000D02*
X318590D01*
X318000Y284409D02*
Y285591D01*
X308410Y285000D02*
X309591D01*
X309000Y284409D02*
Y285591D01*
X299410Y285000D02*
X300590D01*
X300000Y284409D02*
Y285591D01*
X284409Y285000D02*
X285591D01*
X285000Y284409D02*
Y285591D01*
X273909Y285000D02*
X275091D01*
X274500Y284409D02*
Y285591D01*
X82410Y245500D02*
X83591D01*
X83000Y244910D02*
Y246091D01*
X6409Y275500D02*
X7591D01*
X7000Y274909D02*
Y276091D01*
X113409Y281000D02*
X114591D01*
X114000Y280410D02*
Y281591D01*
X113409Y248500D02*
X114591D01*
X114000Y247909D02*
Y249091D01*
X102409Y239000D02*
X103591D01*
X103000Y238409D02*
Y239591D01*
X102409Y248000D02*
X103591D01*
X103000Y247410D02*
Y248590D01*
X73909Y227500D02*
X75090D01*
X74500Y226909D02*
Y228091D01*
X61910Y211500D02*
X63090D01*
X62500Y210910D02*
Y212090D01*
X53909Y216500D02*
X55090D01*
X54500Y215910D02*
Y217091D01*
X53909Y200000D02*
X55090D01*
X54500Y199409D02*
Y200591D01*
X5409Y254000D02*
X6591D01*
X6000Y253410D02*
Y254591D01*
X6409Y221500D02*
X7591D01*
X7000Y220910D02*
Y222091D01*
X18910Y221500D02*
X20090D01*
X19500Y220910D02*
Y222091D01*
X18910Y210500D02*
X20090D01*
X19500Y209910D02*
Y211090D01*
X18910Y200500D02*
X20090D01*
X19500Y199909D02*
Y201091D01*
X347909Y150000D02*
X349091D01*
X348500Y149409D02*
Y150591D01*
X291409Y87500D02*
X292590D01*
X292000Y86910D02*
Y88090D01*
X288012Y75669D02*
X289193D01*
X288603Y75079D02*
Y76260D01*
X291791Y74449D02*
X292972D01*
X292381Y73859D02*
Y75040D01*
X299028Y74449D02*
X300209D01*
X299619Y73859D02*
Y75040D01*
X295409Y76000D02*
X296590D01*
X296000Y75410D02*
Y76591D01*
X304410Y88500D02*
X305591D01*
X305000Y87910D02*
Y89091D01*
X304410Y85000D02*
X305591D01*
X305000Y84409D02*
Y85590D01*
X304410Y92000D02*
X305591D01*
X305000Y91409D02*
Y92590D01*
X226909Y28000D02*
X228091D01*
X227500Y27409D02*
Y28591D01*
X221410Y5000D02*
X222590D01*
X222000Y4409D02*
Y5591D01*
X233410Y5000D02*
X234591D01*
X234000Y4409D02*
Y5591D01*
X243409Y5000D02*
X244590D01*
X244000Y4409D02*
Y5591D01*
X256909Y5000D02*
X258090D01*
X257500Y4409D02*
Y5591D01*
X280410Y5000D02*
X281591D01*
X281000Y4409D02*
Y5591D01*
X306985Y51740D02*
X308166D01*
X307576Y51149D02*
Y52330D01*
X311409Y45000D02*
X312591D01*
X312000Y44409D02*
Y45591D01*
X325909Y5500D02*
X327091D01*
X326500Y4909D02*
Y6091D01*
X323410Y20500D02*
X324590D01*
X324000Y19909D02*
Y21091D01*
X316409Y37500D02*
X317590D01*
X317000Y36909D02*
Y38091D01*
X294910Y41500D02*
X296091D01*
X295500Y40909D02*
Y42091D01*
X339910Y120000D02*
X341090D01*
X340500Y119409D02*
Y120591D01*
X344910Y120000D02*
X346091D01*
X345500Y119409D02*
Y120591D01*
X347410Y97500D02*
X348590D01*
X348000Y96909D02*
Y98090D01*
X349909Y102500D02*
X351091D01*
X350500Y101909D02*
Y103091D01*
X344910Y102500D02*
X346091D01*
X345500Y101909D02*
Y103091D01*
X327410Y107000D02*
X328590D01*
X328000Y106409D02*
Y107591D01*
X347410Y107000D02*
X348590D01*
X348000Y106409D02*
Y107591D01*
X342409Y107000D02*
X343590D01*
X343000Y106409D02*
Y107591D01*
X337409Y107000D02*
X338591D01*
X338000Y106409D02*
Y107591D01*
X332410Y107000D02*
X333591D01*
X333000Y106409D02*
Y107591D01*
X327410Y115000D02*
X328590D01*
X328000Y114409D02*
Y115591D01*
X329909Y111000D02*
X331090D01*
X330500Y110409D02*
Y111591D01*
X334910Y111000D02*
X336090D01*
X335500Y110409D02*
Y111591D01*
X339910Y111000D02*
X341090D01*
X340500Y110409D02*
Y111591D01*
X344910Y111000D02*
X346091D01*
X345500Y110409D02*
Y111591D01*
X347410Y115000D02*
X348590D01*
X348000Y114409D02*
Y115591D01*
X342409Y115000D02*
X343590D01*
X343000Y114409D02*
Y115591D01*
X337409Y115000D02*
X338591D01*
X338000Y114409D02*
Y115591D01*
X332410Y115000D02*
X333591D01*
X333000Y114409D02*
Y115591D01*
X280410Y173500D02*
X281591D01*
X281000Y172909D02*
Y174091D01*
X266910Y165500D02*
X268091D01*
X267500Y164909D02*
Y166091D01*
X331909Y172500D02*
X333090D01*
X332500Y171909D02*
Y173091D01*
X344910Y178000D02*
X346091D01*
X345500Y177409D02*
Y178591D01*
X335409Y145000D02*
X336591D01*
X336000Y144409D02*
Y145591D01*
X348410Y128000D02*
X349590D01*
X349000Y127409D02*
Y128591D01*
X347909Y138500D02*
X349091D01*
X348500Y137909D02*
Y139091D01*
X347410Y185000D02*
X348590D01*
X348000Y184409D02*
Y185591D01*
X339910Y190500D02*
X341090D01*
X340500Y189909D02*
Y191091D01*
X328410Y190500D02*
X329591D01*
X329000Y189909D02*
Y191091D01*
X303909Y191000D02*
X305090D01*
X304500Y190409D02*
Y191591D01*
X298410Y191000D02*
X299590D01*
X299000Y190409D02*
Y191591D01*
X278909Y191000D02*
X280090D01*
X279500Y190409D02*
Y191591D01*
X266910Y191000D02*
X268091D01*
X267500Y190409D02*
Y191591D01*
X223909Y198000D02*
X225091D01*
X224500Y197409D02*
Y198591D01*
X223909Y183000D02*
X225091D01*
X224500Y182409D02*
Y183591D01*
X210910Y202000D02*
X212090D01*
X211500Y201409D02*
Y202591D01*
X193533Y201989D02*
X194714D01*
X194123Y201398D02*
Y202579D01*
X191909Y164500D02*
X193091D01*
X192500Y163909D02*
Y165091D01*
X174409Y144500D02*
X175591D01*
X175000Y143909D02*
Y145091D01*
X156909Y167500D02*
X158091D01*
X157500Y166909D02*
Y168091D01*
X86910Y173500D02*
X88090D01*
X87500Y172909D02*
Y174091D01*
X89157Y195732D02*
X90338D01*
X89748Y195141D02*
Y196322D01*
X132909Y186000D02*
X134091D01*
X133500Y185409D02*
Y186591D01*
X132409Y210500D02*
X133591D01*
X133000Y209910D02*
Y211090D01*
X157409Y205500D02*
X158591D01*
X158000Y204909D02*
Y206090D01*
X174409Y206000D02*
X175591D01*
X175000Y205410D02*
Y206591D01*
X167909Y206000D02*
X169091D01*
X168500Y205410D02*
Y206591D01*
X18910Y190500D02*
X20090D01*
X19500Y189909D02*
Y191091D01*
X40909Y189500D02*
X42091D01*
X41500Y188909D02*
Y190091D01*
X75410Y190000D02*
X76591D01*
X76000Y189409D02*
Y190591D01*
X42504Y154258D02*
X43685D01*
X43094Y153667D02*
Y154849D01*
X19909Y158000D02*
X21091D01*
X20500Y157409D02*
Y158591D01*
X17910Y142000D02*
X19091D01*
X18500Y141409D02*
Y142591D01*
X6451Y132058D02*
X7632D01*
X7041Y131467D02*
Y132648D01*
X7409Y185000D02*
X8591D01*
X8000Y184409D02*
Y185591D01*
X63910Y173500D02*
X65091D01*
X64500Y172909D02*
Y174091D01*
X53909Y173500D02*
X55090D01*
X54500Y172909D02*
Y174091D01*
X75410Y173500D02*
X76591D01*
X76000Y172909D02*
Y174091D01*
X40994Y173883D02*
X42175D01*
X41585Y173293D02*
Y174474D01*
X253909Y67500D02*
X255090D01*
X254500Y66909D02*
Y68090D01*
X275909Y67500D02*
X277091D01*
X276500Y66909D02*
Y68090D01*
X289409Y5000D02*
X290591D01*
X290000Y4409D02*
Y5591D01*
X319409Y29500D02*
X320590D01*
X320000Y28909D02*
Y30091D01*
X268409Y85500D02*
X269590D01*
X269000Y84909D02*
Y86090D01*
X255410Y123000D02*
X256591D01*
X256000Y122409D02*
Y123591D01*
X247909Y102500D02*
X249091D01*
X248500Y101909D02*
Y103091D01*
X249410Y108500D02*
X250590D01*
X250000Y107909D02*
Y109091D01*
X229909Y110500D02*
X231090D01*
X230500Y109909D02*
Y111091D01*
X195409Y97500D02*
X196591D01*
X196000Y96909D02*
Y98090D01*
X175909Y107500D02*
X177091D01*
X176500Y106909D02*
Y108091D01*
X180909Y87500D02*
X182091D01*
X181500Y86910D02*
Y88090D01*
X214910Y28500D02*
X216090D01*
X215500Y27909D02*
Y29091D01*
X155909Y18500D02*
X157091D01*
X156500Y17910D02*
Y19091D01*
X97409Y17000D02*
X98590D01*
X98000Y16409D02*
Y17591D01*
X150909Y106000D02*
X152091D01*
X151500Y105409D02*
Y106591D01*
X62410Y57000D02*
X63591D01*
X63000Y56410D02*
Y57591D01*
X95410Y43500D02*
X96591D01*
X96000Y42909D02*
Y44091D01*
X43909Y60500D02*
X45091D01*
X44500Y59909D02*
Y61090D01*
X82410Y78500D02*
X83591D01*
X83000Y77909D02*
Y79090D01*
X79409Y86500D02*
X80590D01*
X80000Y85909D02*
Y87090D01*
X78409Y96000D02*
X79590D01*
X79000Y95410D02*
Y96591D01*
X101426Y107411D02*
X102607D01*
X102017Y106820D02*
Y108002D01*
X72409Y107500D02*
X73590D01*
X73000Y106909D02*
Y108091D01*
X7409Y104000D02*
X8591D01*
X8000Y103409D02*
Y104591D01*
X7409Y87500D02*
X8591D01*
X8000Y86910D02*
Y88090D01*
X23410Y88000D02*
X24590D01*
X24000Y87410D02*
Y88591D01*
X345077Y647479D02*
X346258D01*
X345668Y646888D02*
Y648069D01*
X345077Y482125D02*
X346258D01*
X345668Y481534D02*
Y482715D01*
X345077Y411259D02*
X346258D01*
X345668Y410668D02*
Y411849D01*
X345077Y269526D02*
X346258D01*
X345668Y268936D02*
Y270117D01*
X345077Y222282D02*
X346258D01*
X345668Y221692D02*
Y222873D01*
X345077Y33306D02*
X346258D01*
X345668Y32715D02*
Y33896D01*
X339172Y659290D02*
X340353D01*
X339762Y658699D02*
Y659880D01*
X333266Y647479D02*
X334448D01*
X333857Y646888D02*
Y648069D01*
X333266Y222282D02*
X334448D01*
X333857Y221692D02*
Y222873D01*
X321455Y671101D02*
X322637D01*
X322046Y670510D02*
Y671692D01*
X327361Y659290D02*
X328542D01*
X327951Y658699D02*
Y659880D01*
X321455Y647479D02*
X322637D01*
X322046Y646888D02*
Y648069D01*
X321455Y623857D02*
X322637D01*
X322046Y623266D02*
Y624447D01*
X327361Y612046D02*
X328542D01*
X327951Y611455D02*
Y612636D01*
X327361Y517558D02*
X328542D01*
X327951Y516967D02*
Y518148D01*
X327361Y493936D02*
X328542D01*
X327951Y493345D02*
Y494526D01*
X327361Y257715D02*
X328542D01*
X327951Y257125D02*
Y258306D01*
X309644Y671101D02*
X310825D01*
X310235Y670510D02*
Y671692D01*
X315550Y659290D02*
X316731D01*
X316140Y658699D02*
Y659880D01*
X309644Y647479D02*
X310825D01*
X310235Y646888D02*
Y648069D01*
X315550Y635668D02*
X316731D01*
X316140Y635077D02*
Y636258D01*
X309644Y623857D02*
X310825D01*
X310235Y623266D02*
Y624447D01*
X315550Y612046D02*
X316731D01*
X316140Y611455D02*
Y612636D01*
X309644Y600235D02*
X310825D01*
X310235Y599644D02*
Y600825D01*
X315550Y588424D02*
X316731D01*
X316140Y587833D02*
Y589014D01*
X315550Y564802D02*
X316731D01*
X316140Y564211D02*
Y565392D01*
X309644Y222282D02*
X310825D01*
X310235Y221692D02*
Y222873D01*
X315550Y21495D02*
X316731D01*
X316140Y20904D02*
Y22085D01*
X297833Y671101D02*
X299014D01*
X298424Y670510D02*
Y671692D01*
X297833Y647479D02*
X299014D01*
X298424Y646888D02*
Y648069D01*
X303739Y588424D02*
X304920D01*
X304329Y587833D02*
Y589014D01*
X303739Y446692D02*
X304920D01*
X304329Y446101D02*
Y447282D01*
X297833Y222282D02*
X299014D01*
X298424Y221692D02*
Y222873D01*
X303739Y115983D02*
X304920D01*
X304329Y115392D02*
Y116574D01*
X303739Y45117D02*
X304920D01*
X304329Y44526D02*
Y45707D01*
X297833Y33306D02*
X299014D01*
X298424Y32715D02*
Y33896D01*
X303739Y21495D02*
X304920D01*
X304329Y20904D02*
Y22085D01*
X286022Y33306D02*
X287203D01*
X286613Y32715D02*
Y33896D01*
X274211Y647479D02*
X275392D01*
X274802Y646888D02*
Y648069D01*
X280117Y352203D02*
X281298D01*
X280707Y351613D02*
Y352794D01*
X280117Y328581D02*
X281298D01*
X280707Y327991D02*
Y329172D01*
X280117Y234093D02*
X281298D01*
X280707Y233503D02*
Y234684D01*
X274211Y127794D02*
X275392D01*
X274802Y127204D02*
Y128385D01*
X274211Y80550D02*
X275392D01*
X274802Y79959D02*
Y81141D01*
X274211Y9684D02*
X275392D01*
X274802Y9093D02*
Y10274D01*
X268306Y352203D02*
X269487D01*
X268896Y351613D02*
Y352794D01*
X262400Y340392D02*
X263581D01*
X262991Y339802D02*
Y340983D01*
X268306Y328581D02*
X269487D01*
X268896Y327991D02*
Y329172D01*
X268306Y210471D02*
X269487D01*
X268896Y209881D02*
Y211062D01*
X262400Y127794D02*
X263581D01*
X262991Y127204D02*
Y128385D01*
X262400Y80550D02*
X263581D01*
X262991Y79959D02*
Y81141D01*
X262400Y9684D02*
X263581D01*
X262991Y9093D02*
Y10274D01*
X256495Y659290D02*
X257676D01*
X257085Y658699D02*
Y659880D01*
X250589Y647479D02*
X251770D01*
X251180Y646888D02*
Y648069D01*
X250589Y623857D02*
X251770D01*
X251180Y623266D02*
Y624447D01*
X250589Y505747D02*
X251770D01*
X251180Y505156D02*
Y506337D01*
X256495Y352203D02*
X257676D01*
X257085Y351613D02*
Y352794D01*
X256495Y328581D02*
X257676D01*
X257085Y327991D02*
Y329172D01*
X250589Y80550D02*
X251770D01*
X251180Y79959D02*
Y81141D01*
X250589Y9684D02*
X251770D01*
X251180Y9093D02*
Y10274D01*
X238778Y576613D02*
X239959D01*
X239369Y576022D02*
Y577203D01*
X244684Y399447D02*
X245865D01*
X245274Y398857D02*
Y400038D01*
X244684Y352203D02*
X245865D01*
X245274Y351613D02*
Y352794D01*
X238778Y340392D02*
X239959D01*
X239369Y339802D02*
Y340983D01*
X244684Y328581D02*
X245865D01*
X245274Y327991D02*
Y329172D01*
X244684Y304959D02*
X245865D01*
X245274Y304369D02*
Y305550D01*
X238778Y269526D02*
X239959D01*
X239369Y268936D02*
Y270117D01*
X232873Y564802D02*
X234054D01*
X233463Y564211D02*
Y565392D01*
X232873Y352203D02*
X234054D01*
X233463Y351613D02*
Y352794D01*
X226967Y340392D02*
X228148D01*
X227558Y339802D02*
Y340983D01*
X232873Y328581D02*
X234054D01*
X233463Y327991D02*
Y329172D01*
X226967Y316770D02*
X228148D01*
X227558Y316180D02*
Y317361D01*
X232873Y304959D02*
X234054D01*
X233463Y304369D02*
Y305550D01*
X226967Y293148D02*
X228148D01*
X227558Y292558D02*
Y293739D01*
X226967Y80550D02*
X228148D01*
X227558Y79959D02*
Y81141D01*
X232873Y21495D02*
X234054D01*
X233463Y20904D02*
Y22085D01*
X226967Y9684D02*
X228148D01*
X227558Y9093D02*
Y10274D01*
X221062Y399447D02*
X222243D01*
X221652Y398857D02*
Y400038D01*
X221062Y352203D02*
X222243D01*
X221652Y351613D02*
Y352794D01*
X215156Y340392D02*
X216337D01*
X215747Y339802D02*
Y340983D01*
X221062Y304959D02*
X222243D01*
X221652Y304369D02*
Y305550D01*
X221062Y234093D02*
X222243D01*
X221652Y233503D02*
Y234684D01*
X221062Y210471D02*
X222243D01*
X221652Y209881D02*
Y211062D01*
X215156Y80550D02*
X216337D01*
X215747Y79959D02*
Y81141D01*
X215156Y56928D02*
X216337D01*
X215747Y56337D02*
Y57519D01*
X221062Y21495D02*
X222243D01*
X221652Y20904D02*
Y22085D01*
X215156Y9684D02*
X216337D01*
X215747Y9093D02*
Y10274D01*
X209251Y517558D02*
X210432D01*
X209841Y516967D02*
Y518148D01*
X209251Y399447D02*
X210432D01*
X209841Y398857D02*
Y400038D01*
X209251Y352203D02*
X210432D01*
X209841Y351613D02*
Y352794D01*
X209251Y304959D02*
X210432D01*
X209841Y304369D02*
Y305550D01*
X203345Y293148D02*
X204526D01*
X203936Y292558D02*
Y293739D01*
X203345Y269526D02*
X204526D01*
X203936Y268936D02*
Y270117D01*
X209251Y257715D02*
X210432D01*
X209841Y257125D02*
Y258306D01*
X203345Y245904D02*
X204526D01*
X203936Y245314D02*
Y246495D01*
X209251Y234093D02*
X210432D01*
X209841Y233503D02*
Y234684D01*
X209251Y210471D02*
X210432D01*
X209841Y209881D02*
Y211062D01*
X203345Y80550D02*
X204526D01*
X203936Y79959D02*
Y81141D01*
X191534Y671101D02*
X192715D01*
X192125Y670510D02*
Y671692D01*
X197440Y659290D02*
X198621D01*
X198030Y658699D02*
Y659880D01*
X197440Y635668D02*
X198621D01*
X198030Y635077D02*
Y636258D01*
X197440Y564802D02*
X198621D01*
X198030Y564211D02*
Y565392D01*
X191534Y411259D02*
X192715D01*
X192125Y410668D02*
Y411849D01*
X191534Y340392D02*
X192715D01*
X192125Y339802D02*
Y340983D01*
X197440Y304959D02*
X198621D01*
X198030Y304369D02*
Y305550D01*
X197440Y281337D02*
X198621D01*
X198030Y280747D02*
Y281928D01*
X191534Y245904D02*
X192715D01*
X192125Y245314D02*
Y246495D01*
X191534Y222282D02*
X192715D01*
X192125Y221692D02*
Y222873D01*
X197440Y210471D02*
X198621D01*
X198030Y209881D02*
Y211062D01*
X191534Y175038D02*
X192715D01*
X192125Y174448D02*
Y175629D01*
X191534Y80550D02*
X192715D01*
X192125Y79959D02*
Y81141D01*
X191534Y9684D02*
X192715D01*
X192125Y9093D02*
Y10274D01*
X179723Y671101D02*
X180904D01*
X180314Y670510D02*
Y671692D01*
X185629Y659290D02*
X186810D01*
X186219Y658699D02*
Y659880D01*
X179723Y269526D02*
X180904D01*
X180314Y268936D02*
Y270117D01*
X179723Y245904D02*
X180904D01*
X180314Y245314D02*
Y246495D01*
X179723Y175038D02*
X180904D01*
X180314Y174448D02*
Y175629D01*
X179723Y151416D02*
X180904D01*
X180314Y150826D02*
Y152007D01*
X179723Y56928D02*
X180904D01*
X180314Y56337D02*
Y57519D01*
X167912Y576613D02*
X169093D01*
X168503Y576022D02*
Y577203D01*
X167912Y529369D02*
X169093D01*
X168503Y528778D02*
Y529959D01*
X167912Y458503D02*
X169093D01*
X168503Y457912D02*
Y459093D01*
X173818Y328581D02*
X174999D01*
X174408Y327991D02*
Y329172D01*
X167912Y245904D02*
X169093D01*
X168503Y245314D02*
Y246495D01*
X167912Y222282D02*
X169093D01*
X168503Y221692D02*
Y222873D01*
X167912Y175038D02*
X169093D01*
X168503Y174448D02*
Y175629D01*
X173818Y163227D02*
X174999D01*
X174408Y162636D02*
Y163818D01*
X167912Y151416D02*
X169093D01*
X168503Y150826D02*
Y152007D01*
X167912Y56928D02*
X169093D01*
X168503Y56337D02*
Y57519D01*
X156101Y647479D02*
X157282D01*
X156692Y646888D02*
Y648069D01*
X156101Y576613D02*
X157282D01*
X156692Y576022D02*
Y577203D01*
X156101Y529369D02*
X157282D01*
X156692Y528778D02*
Y529959D01*
X156101Y458503D02*
X157282D01*
X156692Y457912D02*
Y459093D01*
X156101Y269526D02*
X157282D01*
X156692Y268936D02*
Y270117D01*
X156101Y245904D02*
X157282D01*
X156692Y245314D02*
Y246495D01*
X156101Y175038D02*
X157282D01*
X156692Y174448D02*
Y175629D01*
X156101Y80550D02*
X157282D01*
X156692Y79959D02*
Y81141D01*
X156101Y56928D02*
X157282D01*
X156692Y56337D02*
Y57519D01*
X156101Y33306D02*
X157282D01*
X156692Y32715D02*
Y33896D01*
X156101Y9684D02*
X157282D01*
X156692Y9093D02*
Y10274D01*
X144290Y576613D02*
X145471D01*
X144881Y576022D02*
Y577203D01*
X144290Y529369D02*
X145471D01*
X144881Y528778D02*
Y529959D01*
X150196Y446692D02*
X151377D01*
X150786Y446101D02*
Y447282D01*
X150196Y375826D02*
X151377D01*
X150786Y375235D02*
Y376416D01*
X150196Y352203D02*
X151377D01*
X150786Y351613D02*
Y352794D01*
X144290Y316770D02*
X145471D01*
X144881Y316180D02*
Y317361D01*
X144290Y293148D02*
X145471D01*
X144881Y292558D02*
Y293739D01*
X150196Y281337D02*
X151377D01*
X150786Y280747D02*
Y281928D01*
X144290Y245904D02*
X145471D01*
X144881Y245314D02*
Y246495D01*
X150196Y234093D02*
X151377D01*
X150786Y233503D02*
Y234684D01*
X150196Y210471D02*
X151377D01*
X150786Y209881D02*
Y211062D01*
X144290Y175038D02*
X145471D01*
X144881Y174448D02*
Y175629D01*
X150196Y163227D02*
X151377D01*
X150786Y162636D02*
Y163818D01*
X144290Y104172D02*
X145471D01*
X144881Y103581D02*
Y104762D01*
X150196Y92361D02*
X151377D01*
X150786Y91770D02*
Y92952D01*
X144290Y80550D02*
X145471D01*
X144881Y79959D02*
Y81141D01*
X132479Y340392D02*
X133660D01*
X133070Y339802D02*
Y340983D01*
X138384Y281337D02*
X139566D01*
X138975Y280747D02*
Y281928D01*
X138384Y234093D02*
X139566D01*
X138975Y233503D02*
Y234684D01*
X132479Y222282D02*
X133660D01*
X133070Y221692D02*
Y222873D01*
X132479Y198660D02*
X133660D01*
X133070Y198070D02*
Y199251D01*
X132479Y175038D02*
X133660D01*
X133070Y174448D02*
Y175629D01*
X126574Y517558D02*
X127755D01*
X127164Y516967D02*
Y518148D01*
X126574Y446692D02*
X127755D01*
X127164Y446101D02*
Y447282D01*
X108857Y505747D02*
X110038D01*
X109448Y505156D02*
Y506337D01*
X108857Y56928D02*
X110038D01*
X109448Y56337D02*
Y57519D01*
X102952Y493936D02*
X104133D01*
X103542Y493345D02*
Y494526D01*
X102952Y446692D02*
X104133D01*
X103542Y446101D02*
Y447282D01*
X97046Y56928D02*
X98227D01*
X97636Y56337D02*
Y57519D01*
X97046Y33306D02*
X98227D01*
X97636Y32715D02*
Y33896D01*
X97046Y9684D02*
X98227D01*
X97636Y9093D02*
Y10274D01*
X85235Y671101D02*
X86416D01*
X85826Y670510D02*
Y671692D01*
X85235Y576613D02*
X86416D01*
X85826Y576022D02*
Y577203D01*
X91141Y493936D02*
X92322D01*
X91731Y493345D02*
Y494526D01*
X91141Y446692D02*
X92322D01*
X91731Y446101D02*
Y447282D01*
X85235Y316770D02*
X86416D01*
X85826Y316180D02*
Y317361D01*
X85235Y293148D02*
X86416D01*
X85826Y292558D02*
Y293739D01*
X91141Y281337D02*
X92322D01*
X91731Y280747D02*
Y281928D01*
X85235Y269526D02*
X86416D01*
X85826Y268936D02*
Y270117D01*
X91141Y210471D02*
X92322D01*
X91731Y209881D02*
Y211062D01*
X85235Y104172D02*
X86416D01*
X85826Y103581D02*
Y104762D01*
X91141Y68739D02*
X92322D01*
X91731Y68148D02*
Y69330D01*
X73424Y671101D02*
X74605D01*
X74015Y670510D02*
Y671692D01*
X79329Y659290D02*
X80511D01*
X79920Y658699D02*
Y659880D01*
X79329Y493936D02*
X80511D01*
X79920Y493345D02*
Y494526D01*
X79329Y446692D02*
X80511D01*
X79920Y446101D02*
Y447282D01*
X79329Y328581D02*
X80511D01*
X79920Y327991D02*
Y329172D01*
X79329Y304959D02*
X80511D01*
X79920Y304369D02*
Y305550D01*
X79329Y281337D02*
X80511D01*
X79920Y280747D02*
Y281928D01*
X73424Y269526D02*
X74605D01*
X74015Y268936D02*
Y270117D01*
X79329Y234093D02*
X80511D01*
X79920Y233503D02*
Y234684D01*
X73424Y198660D02*
X74605D01*
X74015Y198070D02*
Y199251D01*
X79329Y163227D02*
X80511D01*
X79920Y162636D02*
Y163818D01*
X79329Y68739D02*
X80511D01*
X79920Y68148D02*
Y69330D01*
X61613Y671101D02*
X62794D01*
X62204Y670510D02*
Y671692D01*
X67518Y659290D02*
X68700D01*
X68109Y658699D02*
Y659880D01*
X67518Y493936D02*
X68700D01*
X68109Y493345D02*
Y494526D01*
X61613Y316770D02*
X62794D01*
X62204Y316180D02*
Y317361D01*
X61613Y293148D02*
X62794D01*
X62204Y292558D02*
Y293739D01*
X61613Y269526D02*
X62794D01*
X62204Y268936D02*
Y270117D01*
X61613Y198660D02*
X62794D01*
X62204Y198070D02*
Y199251D01*
X67518Y45117D02*
X68700D01*
X68109Y44526D02*
Y45707D01*
X61613Y9684D02*
X62794D01*
X62204Y9093D02*
Y10274D01*
X55707Y659290D02*
X56889D01*
X56298Y658699D02*
Y659880D01*
X49802Y482125D02*
X50983D01*
X50393Y481534D02*
Y482715D01*
X49802Y458503D02*
X50983D01*
X50393Y457912D02*
Y459093D01*
X55707Y446692D02*
X56889D01*
X56298Y446101D02*
Y447282D01*
X55707Y375826D02*
X56889D01*
X56298Y375235D02*
Y376416D01*
X43896Y659290D02*
X45077D01*
X44487Y658699D02*
Y659880D01*
X37991Y647479D02*
X39172D01*
X38581Y646888D02*
Y648069D01*
X43896Y635668D02*
X45077D01*
X44487Y635077D02*
Y636258D01*
X43896Y446692D02*
X45077D01*
X44487Y446101D02*
Y447282D01*
X43896Y352203D02*
X45077D01*
X44487Y351613D02*
Y352794D01*
X37991Y340392D02*
X39172D01*
X38581Y339802D02*
Y340983D01*
X37991Y293148D02*
X39172D01*
X38581Y292558D02*
Y293739D01*
X43896Y281337D02*
X45077D01*
X44487Y280747D02*
Y281928D01*
X37991Y269526D02*
X39172D01*
X38581Y268936D02*
Y270117D01*
X37991Y222282D02*
X39172D01*
X38581Y221692D02*
Y222873D01*
X43896Y210471D02*
X45077D01*
X44487Y209881D02*
Y211062D01*
X37991Y198660D02*
X39172D01*
X38581Y198070D02*
Y199251D01*
X43896Y139605D02*
X45077D01*
X44487Y139014D02*
Y140196D01*
X43896Y115983D02*
X45077D01*
X44487Y115392D02*
Y116574D01*
X43896Y45117D02*
X45077D01*
X44487Y44526D02*
Y45707D01*
X37991Y9684D02*
X39172D01*
X38581Y9093D02*
Y10274D01*
X26180Y600235D02*
X27361D01*
X26770Y599644D02*
Y600825D01*
X32085Y375826D02*
X33266D01*
X32676Y375235D02*
Y376416D01*
X32085Y352203D02*
X33266D01*
X32676Y351613D02*
Y352794D01*
X32085Y328581D02*
X33266D01*
X32676Y327991D02*
Y329172D01*
X32085Y304959D02*
X33266D01*
X32676Y304369D02*
Y305550D01*
X32085Y281337D02*
X33266D01*
X32676Y280747D02*
Y281928D01*
X26180Y151416D02*
X27361D01*
X26770Y150826D02*
Y152007D01*
X26180Y104172D02*
X27361D01*
X26770Y103581D02*
Y104762D01*
X14369Y647479D02*
X15550D01*
X14959Y646888D02*
Y648069D01*
X20274Y635668D02*
X21455D01*
X20865Y635077D02*
Y636258D01*
X14369Y623857D02*
X15550D01*
X14959Y623266D02*
Y624447D01*
X14369Y600235D02*
X15550D01*
X14959Y599644D02*
Y600825D01*
X20274Y588424D02*
X21455D01*
X20865Y587833D02*
Y589014D01*
X14369Y529369D02*
X15550D01*
X14959Y528778D02*
Y529959D01*
X20274Y517558D02*
X21455D01*
X20865Y516967D02*
Y518148D01*
X20274Y446692D02*
X21455D01*
X20865Y446101D02*
Y447282D01*
X20274Y375826D02*
X21455D01*
X20865Y375235D02*
Y376416D01*
X20274Y352203D02*
X21455D01*
X20865Y351613D02*
Y352794D01*
X20274Y304959D02*
X21455D01*
X20865Y304369D02*
Y305550D01*
X20274Y281337D02*
X21455D01*
X20865Y280747D02*
Y281928D01*
X20274Y115983D02*
X21455D01*
X20865Y115392D02*
Y116574D01*
X20274Y45117D02*
X21455D01*
X20865Y44526D02*
Y45707D01*
X14369Y33306D02*
X15550D01*
X14959Y32715D02*
Y33896D01*
X142409Y476000D02*
X143591D01*
X143000Y475410D02*
Y476590D01*
X151909Y51500D02*
X153091D01*
X152500Y50909D02*
Y52091D01*
X109909Y51500D02*
X111091D01*
X110500Y50909D02*
Y52091D01*
X94410Y51500D02*
X95591D01*
X95000Y50909D02*
Y52091D01*
X17910Y69500D02*
X19091D01*
X18500Y68910D02*
Y70091D01*
X45409Y69000D02*
X46591D01*
X46000Y68410D02*
Y69591D01*
X84909Y67000D02*
X86090D01*
X85500Y66409D02*
Y67590D01*
X194909Y397500D02*
X196091D01*
X195500Y396909D02*
Y398091D01*
X143409Y397000D02*
X144591D01*
X144000Y396410D02*
Y397590D01*
X154909Y344500D02*
X156091D01*
X155500Y343910D02*
Y345091D01*
X157909Y332000D02*
X159091D01*
X158500Y331410D02*
Y332591D01*
X130409Y335000D02*
X131591D01*
X131000Y334409D02*
Y335591D01*
X129909Y367000D02*
X131091D01*
X130500Y366409D02*
Y367590D01*
X229410Y631000D02*
X230591D01*
X230000Y630409D02*
Y631591D01*
X80910Y410000D02*
X82091D01*
X81500Y409410D02*
Y410591D01*
X231410Y534000D02*
X232591D01*
X232000Y533410D02*
Y534590D01*
X227410Y611500D02*
X228590D01*
X228000Y610910D02*
Y612090D01*
X253909Y603000D02*
X255090D01*
X254500Y602410D02*
Y603590D01*
X253909Y593000D02*
X255090D01*
X254500Y592410D02*
Y593590D01*
X235409Y582000D02*
X236591D01*
X236000Y581410D02*
Y582590D01*
X208910Y585000D02*
X210090D01*
X209500Y584410D02*
Y585591D01*
X195409Y585000D02*
X196591D01*
X196000Y584410D02*
Y585591D01*
X250909Y526500D02*
X252091D01*
X251500Y525910D02*
Y527091D01*
X250410Y547000D02*
X251590D01*
X251000Y546410D02*
Y547590D01*
X227410Y567000D02*
X228590D01*
X228000Y566409D02*
Y567591D01*
X42909Y379500D02*
X44091D01*
X43500Y378909D02*
Y380090D01*
X30409Y443000D02*
X31591D01*
X31000Y442410D02*
Y443590D01*
X18910Y433000D02*
X20090D01*
X19500Y432409D02*
Y433591D01*
X5909Y435000D02*
X7091D01*
X6500Y434410D02*
Y435591D01*
X18910Y399000D02*
X20090D01*
X19500Y398410D02*
Y399590D01*
X5909Y399000D02*
X7091D01*
X6500Y398410D02*
Y399590D01*
X127409Y397500D02*
X128591D01*
X128000Y396909D02*
Y398091D01*
X127909Y454500D02*
X129091D01*
X128500Y453909D02*
Y455091D01*
X206410Y440500D02*
X207591D01*
X207000Y439910D02*
Y441090D01*
X206410Y432000D02*
X207591D01*
X207000Y431410D02*
Y432590D01*
X193409Y428500D02*
X194591D01*
X194000Y427910D02*
Y429090D01*
X189909Y443500D02*
X191091D01*
X190500Y442909D02*
Y444091D01*
X39909Y409000D02*
X41091D01*
X40500Y408410D02*
Y409590D01*
X265910Y101500D02*
X267091D01*
X266500Y100909D02*
Y102091D01*
X18910Y459500D02*
X20090D01*
X19500Y458910D02*
Y460090D01*
X30409Y454500D02*
X31591D01*
X31000Y453909D02*
Y455091D01*
X50909Y454500D02*
X52091D01*
X51500Y453909D02*
Y455091D01*
X73409Y457000D02*
X74590D01*
X74000Y456410D02*
Y457590D01*
X91409Y459000D02*
X92590D01*
X92000Y458410D02*
Y459590D01*
X106409Y475000D02*
X107591D01*
X107000Y474409D02*
Y475591D01*
X89909Y472000D02*
X91091D01*
X90500Y471410D02*
Y472590D01*
X96909Y477500D02*
X98090D01*
X97500Y476909D02*
Y478090D01*
X85801Y463257D02*
X86982D01*
X86392Y462666D02*
Y463847D01*
X128409Y429000D02*
X129591D01*
X129000Y428409D02*
Y429591D01*
X128409Y423000D02*
X129591D01*
X129000Y422409D02*
Y423591D01*
X128409Y417000D02*
X129591D01*
X129000Y416409D02*
Y417591D01*
X159409Y418000D02*
X160591D01*
X160000Y417410D02*
Y418590D01*
X159409Y423000D02*
X160591D01*
X160000Y422409D02*
Y423591D01*
X154909Y45500D02*
X156091D01*
X155500Y44909D02*
Y46091D01*
X214910Y44000D02*
X216090D01*
X215500Y43409D02*
Y44591D01*
X197909Y20500D02*
X199091D01*
X198500Y19909D02*
Y21091D01*
X154909Y26000D02*
X156091D01*
X155500Y25409D02*
Y26591D01*
X136409Y15000D02*
X137591D01*
X137000Y14410D02*
Y15590D01*
X94410Y26500D02*
X95591D01*
X95000Y25909D02*
Y27091D01*
X76410Y14500D02*
X77591D01*
X77000Y13909D02*
Y15090D01*
X113409Y96500D02*
X114591D01*
X114000Y95910D02*
Y97091D01*
X113609Y101331D02*
X114790D01*
X114199Y100740D02*
Y101921D01*
X113654Y107500D02*
X114835D01*
X114244Y106909D02*
Y108090D01*
X127689Y93256D02*
X128870D01*
X128279Y92665D02*
Y93846D01*
X123409Y87000D02*
X124591D01*
X124000Y86409D02*
Y87590D01*
X226909Y470500D02*
X228091D01*
X227500Y469909D02*
Y471091D01*
X203909Y486000D02*
X205090D01*
X204500Y485409D02*
Y486590D01*
X93410Y422600D02*
X94591D01*
X94000Y422010D02*
Y423190D01*
X52409Y409500D02*
X53591D01*
X53000Y408910D02*
Y410090D01*
X61409Y414500D02*
X62590D01*
X62000Y413909D02*
Y415091D01*
X62410Y424000D02*
X63591D01*
X63000Y423410D02*
Y424590D01*
X48909Y424500D02*
X50091D01*
X49500Y423910D02*
Y425091D01*
X111909Y381000D02*
X113091D01*
X112500Y380410D02*
Y381591D01*
X71109Y141220D02*
X72290D01*
X71700Y140630D02*
Y141811D01*
X82410Y641000D02*
X83591D01*
X83000Y640410D02*
Y641590D01*
X82410Y681000D02*
X83591D01*
X83000Y680409D02*
Y681591D01*
X85844Y583434D02*
X87025D01*
X86434Y582844D02*
Y584025D01*
X141240Y583500D02*
X142421D01*
X141831Y582909D02*
Y584091D01*
X141240Y538831D02*
X142421D01*
X141831Y538240D02*
Y539421D01*
X206410Y536000D02*
X207591D01*
X207000Y535409D02*
Y536590D01*
X206909Y521000D02*
X208090D01*
X207500Y520409D02*
Y521591D01*
X134165Y663323D02*
X135346D01*
X134756Y662733D02*
Y663914D01*
X134153Y568244D02*
X135335D01*
X134744Y567654D02*
Y568835D01*
X139665Y507000D02*
X140847D01*
X140256Y506410D02*
Y507590D01*
X139882Y640972D02*
X141063D01*
X140472Y640382D02*
Y641563D01*
X235910Y570000D02*
X237090D01*
X236500Y569410D02*
Y570590D01*
X235910Y559441D02*
X237090D01*
X236500Y558850D02*
Y560032D01*
X174409Y572000D02*
X175591D01*
X175000Y571410D02*
Y572590D01*
X151909Y617756D02*
X153091D01*
X152500Y617165D02*
Y618347D01*
X249909Y614500D02*
X251091D01*
X250500Y613909D02*
Y615091D01*
X253909Y608500D02*
X255090D01*
X254500Y607909D02*
Y609091D01*
X252909Y635272D02*
X254090D01*
X253500Y634681D02*
Y635862D01*
X51910Y612500D02*
X53091D01*
X52500Y611909D02*
Y613091D01*
X250410Y563500D02*
X251590D01*
X251000Y562910D02*
Y564090D01*
X247410Y555000D02*
X248590D01*
X248000Y554410D02*
Y555590D01*
X247410Y572500D02*
X248590D01*
X248000Y571910D02*
Y573091D01*
X273410Y564500D02*
X274590D01*
X274000Y563909D02*
Y565091D01*
X52193Y671283D02*
X53374D01*
X52784Y670693D02*
Y671874D01*
X40909Y652500D02*
X42091D01*
X41500Y651909D02*
Y653090D01*
X40909Y681649D02*
X42091D01*
X41500Y681059D02*
Y682240D01*
X235409Y604000D02*
X236591D01*
X236000Y603409D02*
Y604591D01*
X126909Y539500D02*
X128091D01*
X127500Y538909D02*
Y540091D01*
X128460Y535881D02*
X129641D01*
X129051Y535291D02*
Y536472D01*
X126909Y593500D02*
X128091D01*
X127500Y592909D02*
Y594091D01*
X272909Y534500D02*
X274091D01*
X273500Y533910D02*
Y535090D01*
X294409Y532500D02*
X295590D01*
X295000Y531909D02*
Y533090D01*
X128409Y611500D02*
X129591D01*
X129000Y610910D02*
Y612090D01*
X241409Y630000D02*
X242590D01*
X242000Y629410D02*
Y630590D01*
X241409Y645500D02*
X242590D01*
X242000Y644909D02*
Y646091D01*
X237910Y670000D02*
X239090D01*
X238500Y669410D02*
Y670590D01*
X237910Y642000D02*
X239090D01*
X238500Y641409D02*
Y642591D01*
X233410Y672000D02*
X234591D01*
X234000Y671410D02*
Y672590D01*
X233410Y652000D02*
X234591D01*
X234000Y651409D02*
Y652591D01*
X221909Y642000D02*
X223091D01*
X222500Y641409D02*
Y642591D01*
X235409Y617571D02*
X236591D01*
X236000Y616980D02*
Y618161D01*
X235586Y637752D02*
X236767D01*
X236176Y637162D02*
Y638343D01*
X235409Y621508D02*
X236591D01*
X236000Y620917D02*
Y622098D01*
X221909Y612500D02*
X223091D01*
X222500Y611909D02*
Y613091D01*
X221909Y630500D02*
X223091D01*
X222500Y629910D02*
Y631090D01*
X284910Y588000D02*
X286090D01*
X285500Y587409D02*
Y588590D01*
X312910Y573756D02*
X314090D01*
X313500Y573165D02*
Y574346D01*
X221909Y488744D02*
X223091D01*
X222500Y488154D02*
Y489335D01*
X231410Y490394D02*
X232591D01*
X232000Y489803D02*
Y490984D01*
X206280Y475768D02*
X207461D01*
X206871Y475177D02*
Y476358D01*
X206410Y448500D02*
X207591D01*
X207000Y447909D02*
Y449090D01*
X221909Y444000D02*
X223091D01*
X222500Y443409D02*
Y444591D01*
X218760Y453500D02*
X219941D01*
X219350Y452910D02*
Y454090D01*
X229373Y448960D02*
X230554D01*
X229963Y448369D02*
Y449550D01*
X195909Y444000D02*
X197091D01*
X196500Y443409D02*
Y444591D01*
X195909Y468218D02*
X197091D01*
X196500Y467628D02*
Y468809D01*
X244910Y445500D02*
X246091D01*
X245500Y444909D02*
Y446091D01*
X244910Y454350D02*
X246091D01*
X245500Y453760D02*
Y454941D01*
X221909Y461500D02*
X223091D01*
X222500Y460910D02*
Y462090D01*
X218760Y441000D02*
X219941D01*
X219350Y440410D02*
Y441590D01*
X228195Y438220D02*
X229376D01*
X228785Y437630D02*
Y438811D01*
X96909Y435000D02*
X98090D01*
X97500Y434410D02*
Y435591D01*
X96409Y467000D02*
X97591D01*
X97000Y466409D02*
Y467591D01*
X167165Y440650D02*
X168347D01*
X167756Y440059D02*
Y441240D01*
X169909Y419138D02*
X171091D01*
X170500Y418547D02*
Y419728D01*
X167791Y415500D02*
X168973D01*
X168382Y414910D02*
Y416090D01*
X231410Y415000D02*
X232591D01*
X232000Y414409D02*
Y415590D01*
X233707Y429297D02*
X234888D01*
X234297Y428707D02*
Y429888D01*
X233885Y435464D02*
X235066D01*
X234476Y434874D02*
Y436055D01*
X231675Y468256D02*
X232856D01*
X232265Y467665D02*
Y468847D01*
X234910Y470500D02*
X236090D01*
X235500Y469909D02*
Y471091D01*
X234064Y439397D02*
X235245D01*
X234655Y438807D02*
Y439988D01*
X302165Y468496D02*
X303346D01*
X302756Y467905D02*
Y469087D01*
X302165Y462000D02*
X303346D01*
X302756Y461410D02*
Y462591D01*
X176909Y459000D02*
X178091D01*
X177500Y458410D02*
Y459590D01*
X177386Y411524D02*
X178567D01*
X177976Y410933D02*
Y412114D01*
X180142Y418952D02*
X181323D01*
X180732Y418361D02*
Y419543D01*
X179489Y426576D02*
X180670D01*
X180079Y425985D02*
Y427166D01*
X114281Y476875D02*
X115462D01*
X114871Y476285D02*
Y477466D01*
X113909Y457000D02*
X115091D01*
X114500Y456409D02*
Y457590D01*
X98909Y98500D02*
X100091D01*
X99500Y97909D02*
Y99090D01*
X98760Y77649D02*
X99941D01*
X99350Y77058D02*
Y78239D01*
X321909Y80197D02*
X323091D01*
X322500Y79606D02*
Y80787D01*
X325559Y351000D02*
X326740D01*
X326150Y350410D02*
Y351590D01*
X299410Y351500D02*
X300590D01*
X300000Y350909D02*
Y352091D01*
X298165Y527500D02*
X299346D01*
X298756Y526909D02*
Y528090D01*
X296665Y490000D02*
X297847D01*
X297256Y489409D02*
Y490590D01*
X297410Y589000D02*
X298590D01*
X298000Y588410D02*
Y589591D01*
X164409Y80000D02*
X165591D01*
X165000Y79409D02*
Y80590D01*
X185909Y80000D02*
X187091D01*
X186500Y79409D02*
Y80590D01*
X185818Y35408D02*
X186999D01*
X186408Y34818D02*
Y35999D01*
X130409Y35500D02*
X131591D01*
X131000Y34909D02*
Y36091D01*
X124909Y43000D02*
X126091D01*
X125500Y42409D02*
Y43591D01*
X124909Y51799D02*
X126091D01*
X125500Y51209D02*
Y52390D01*
X104909Y662500D02*
X106091D01*
X105500Y661909D02*
Y663091D01*
X136909Y660500D02*
X138091D01*
X137500Y659909D02*
Y661091D01*
X134153Y561500D02*
X135335D01*
X134744Y560910D02*
Y562090D01*
X134153Y552000D02*
X135335D01*
X134744Y551409D02*
Y552591D01*
X136909Y299500D02*
X138091D01*
X137500Y298909D02*
Y300091D01*
X130642Y303996D02*
X131823D01*
X131232Y303405D02*
Y304586D01*
X128909Y296500D02*
X130091D01*
X129500Y295910D02*
Y297091D01*
X120740Y304079D02*
X121921D01*
X121331Y303488D02*
Y304669D01*
X95595Y302421D02*
X96776D01*
X96185Y301830D02*
Y303011D01*
X57074Y299665D02*
X58255D01*
X57665Y299074D02*
Y300255D01*
X57074Y35043D02*
X58255D01*
X57665Y34453D02*
Y35634D01*
X63910Y63000D02*
X65091D01*
X64500Y62410D02*
Y63591D01*
X66752Y65842D02*
X67933D01*
X67343Y65252D02*
Y66433D01*
X27526Y253719D02*
X28707D01*
X28116Y253128D02*
Y254309D01*
X31714Y253649D02*
X32895D01*
X32305Y253059D02*
Y254240D01*
X25909Y409000D02*
X27091D01*
X26500Y408410D02*
Y409590D01*
X25909Y401500D02*
X27091D01*
X26500Y400910D02*
Y402091D01*
X29874Y675536D02*
X31055D01*
X30464Y674945D02*
Y676126D01*
X27154Y572482D02*
X28335D01*
X27744Y571892D02*
Y573073D01*
X30409Y557500D02*
X31591D01*
X31000Y556910D02*
Y558090D01*
X29665Y537500D02*
X30847D01*
X30256Y536909D02*
Y538091D01*
X28409Y490000D02*
X29591D01*
X29000Y489409D02*
Y490590D01*
X29909Y427500D02*
X31091D01*
X30500Y426909D02*
Y428090D01*
X31421Y406176D02*
X32602D01*
X32012Y405585D02*
Y406767D01*
X237910Y507000D02*
X239090D01*
X238500Y506410D02*
Y507590D01*
X237910Y500500D02*
X239090D01*
X238500Y499909D02*
Y501090D01*
X295409Y500000D02*
X296590D01*
X296000Y499409D02*
Y500591D01*
X252410Y478000D02*
X253590D01*
X253000Y477410D02*
Y478590D01*
X252410Y485000D02*
X253590D01*
X253000Y484410D02*
Y485591D01*
X292910Y484500D02*
X294091D01*
X293500Y483910D02*
Y485090D01*
X47409Y76074D02*
X48591D01*
X48000Y75483D02*
Y76665D01*
X47409Y155000D02*
X48591D01*
X48000Y154409D02*
Y155591D01*
X129409Y463500D02*
X130591D01*
X130000Y462910D02*
Y464090D01*
X129409Y474386D02*
X130590D01*
X130000Y473795D02*
Y474976D01*
X58909Y485500D02*
X60091D01*
X59500Y484909D02*
Y486091D01*
X123409Y485500D02*
X124591D01*
X124000Y484909D02*
Y486091D01*
X123409Y478000D02*
X124591D01*
X124000Y477410D02*
Y478590D01*
X77310Y474317D02*
X78491D01*
X77901Y473727D02*
Y474908D01*
X77720Y480500D02*
X78901D01*
X78311Y479910D02*
Y481090D01*
X200909Y463500D02*
X202091D01*
X201500Y462910D02*
Y464090D01*
X200409Y481000D02*
X201591D01*
X201000Y480409D02*
Y481591D01*
X174909Y685630D02*
X176091D01*
X175500Y685039D02*
Y686221D01*
X174909Y656000D02*
X176091D01*
X175500Y655409D02*
Y656591D01*
X221909Y656000D02*
X223091D01*
X222500Y655409D02*
Y656591D01*
X221909Y550000D02*
X223091D01*
X222500Y549409D02*
Y550591D01*
X221909Y580500D02*
X223091D01*
X222500Y579910D02*
Y581090D01*
X221909Y568000D02*
X223091D01*
X222500Y567410D02*
Y568590D01*
X221909Y509000D02*
X223091D01*
X222500Y508410D02*
Y509590D01*
X221909Y682500D02*
X223091D01*
X222500Y681910D02*
Y683090D01*
X74910Y416000D02*
X76091D01*
X75500Y415410D02*
Y416590D01*
X74910Y423000D02*
X76091D01*
X75500Y422409D02*
Y423591D01*
X74665Y401179D02*
X75846D01*
X75256Y400588D02*
Y401769D01*
X151909Y402350D02*
X153091D01*
X152500Y401760D02*
Y402941D01*
X151909Y411500D02*
X153091D01*
X152500Y410910D02*
Y412090D01*
X122409Y401604D02*
X123591D01*
X123000Y401013D02*
Y402194D01*
X122315Y418500D02*
X123496D01*
X122906Y417909D02*
Y419091D01*
X166909Y289500D02*
X168091D01*
X167500Y288910D02*
Y290090D01*
X166760Y403457D02*
X167941D01*
X167350Y402866D02*
Y404047D01*
X322410Y602000D02*
X323590D01*
X323000Y601409D02*
Y602591D01*
X322313Y427133D02*
X323494D01*
X322903Y426542D02*
Y427723D01*
X322313Y445133D02*
X323494D01*
X322903Y444542D02*
Y445723D01*
X322313Y463133D02*
X323494D01*
X322903Y462542D02*
Y463723D01*
X322022Y480882D02*
X323203D01*
X322612Y480291D02*
Y481472D01*
X40909Y580382D02*
X42091D01*
X41500Y579791D02*
Y580972D01*
X23410Y302000D02*
X24590D01*
X24000Y301410D02*
Y302590D01*
X31665Y499323D02*
X32847D01*
X32256Y498733D02*
Y499914D01*
X15630Y486779D02*
X16811D01*
X16220Y486189D02*
Y487370D01*
X314665Y547000D02*
X315846D01*
X315256Y546410D02*
Y547590D01*
X314665Y493000D02*
X315846D01*
X315256Y492410D02*
Y493590D01*
X173909Y431500D02*
X175091D01*
X174500Y430909D02*
Y432091D01*
X173909Y490500D02*
X175091D01*
X174500Y489910D02*
Y491090D01*
X341910Y314799D02*
X343091D01*
X342500Y314209D02*
Y315390D01*
X183909Y554500D02*
X185091D01*
X184500Y553909D02*
Y555091D01*
X310910Y581500D02*
X312090D01*
X311500Y580909D02*
Y582091D01*
X317740Y429350D02*
X318921D01*
X318331Y428760D02*
Y429941D01*
X169909Y437500D02*
X171091D01*
X170500Y436909D02*
Y438091D01*
X316165Y410500D02*
X317347D01*
X316756Y409909D02*
Y411091D01*
X311910Y465500D02*
X313090D01*
X312500Y464910D02*
Y466090D01*
X255165Y406500D02*
X256347D01*
X255756Y405909D02*
Y407091D01*
X202909Y410650D02*
X204091D01*
X203500Y410059D02*
Y411240D01*
X330277Y403685D02*
X331458D01*
X330868Y403095D02*
Y404276D01*
X332909Y380500D02*
X334090D01*
X333500Y379909D02*
Y381090D01*
X329909Y362000D02*
X331090D01*
X330500Y361409D02*
Y362591D01*
X329909Y377500D02*
X331090D01*
X330500Y376909D02*
Y378091D01*
X109032Y428877D02*
X110213D01*
X109623Y428287D02*
Y429468D01*
X14909Y436500D02*
X16091D01*
X15500Y435910D02*
Y437090D01*
X335910Y622000D02*
X337090D01*
X336500Y621410D02*
Y622590D01*
X335760Y385500D02*
X336941D01*
X336350Y384910D02*
Y386090D01*
X208371Y381260D02*
X209552D01*
X208961Y380670D02*
Y381851D01*
X34909Y596500D02*
X36091D01*
X35500Y595910D02*
Y597090D01*
X34102Y389000D02*
X35283D01*
X34693Y388409D02*
Y389591D01*
X122909Y383653D02*
X124091D01*
X123500Y383063D02*
Y384244D01*
X129409Y390347D02*
X130591D01*
X130000Y389756D02*
Y390937D01*
X207909Y389000D02*
X209090D01*
X208500Y388409D02*
Y389591D01*
X338910Y357000D02*
X340090D01*
X339500Y356410D02*
Y357591D01*
X95910Y328000D02*
X97091D01*
X96500Y327410D02*
Y328590D01*
X95910Y331000D02*
X97091D01*
X96500Y330410D02*
Y331591D01*
X99410Y328000D02*
X100591D01*
X100000Y327410D02*
Y328590D01*
X99410Y331000D02*
X100591D01*
X100000Y330410D02*
Y331591D01*
X102909Y328000D02*
X104091D01*
X103500Y327410D02*
Y328590D01*
X102909Y331000D02*
X104091D01*
X103500Y330410D02*
Y331591D01*
X102409Y258500D02*
X103591D01*
X103000Y257909D02*
Y259090D01*
X99410Y258500D02*
X100591D01*
X100000Y257909D02*
Y259090D01*
X99410Y262000D02*
X100591D01*
X100000Y261409D02*
Y262591D01*
X102409Y262000D02*
X103591D01*
X103000Y261409D02*
Y262591D01*
X102409Y265500D02*
X103591D01*
X103000Y264910D02*
Y266090D01*
X99410Y265500D02*
X100591D01*
X100000Y264910D02*
Y266090D01*
X117699Y446976D02*
X118880D01*
X118290Y446385D02*
Y447566D01*
X169909Y334000D02*
X171091D01*
X170500Y333410D02*
Y334591D01*
X249410Y334000D02*
X250590D01*
X250000Y333410D02*
Y334591D01*
X169909Y327689D02*
X171091D01*
X170500Y327099D02*
Y328280D01*
X132909Y327689D02*
X134091D01*
X133500Y327099D02*
Y328280D01*
X132823Y288500D02*
X134004D01*
X133414Y287910D02*
Y289090D01*
X169909Y410500D02*
X171091D01*
X170500Y409909D02*
Y411091D01*
X98909Y422500D02*
X100091D01*
X99500Y421910D02*
Y423091D01*
X98866Y414659D02*
X100047D01*
X99457Y414069D02*
Y415250D01*
X287910Y228000D02*
X289090D01*
X288500Y227410D02*
Y228590D01*
X288409Y357000D02*
X289591D01*
X289000Y356410D02*
Y357591D01*
X287665Y170331D02*
X288846D01*
X288256Y169740D02*
Y170921D01*
X84654Y451500D02*
X85835D01*
X85244Y450910D02*
Y452091D01*
X58909Y490500D02*
X60091D01*
X59500Y489910D02*
Y491090D01*
X58909Y471000D02*
X60091D01*
X59500Y470409D02*
Y471591D01*
X58410Y459000D02*
X59591D01*
X59000Y458410D02*
Y459590D01*
X68410Y471000D02*
X69591D01*
X69000Y470409D02*
Y471591D01*
X68410Y405500D02*
X69591D01*
X69000Y404910D02*
Y406090D01*
X68410Y430744D02*
X69591D01*
X69000Y430154D02*
Y431335D01*
X255410Y360500D02*
X256591D01*
X256000Y359910D02*
Y361090D01*
X331909Y165000D02*
X333090D01*
X332500Y164409D02*
Y165591D01*
X322909Y166327D02*
X324091D01*
X323500Y165736D02*
Y166917D01*
X105409Y136500D02*
X106591D01*
X106000Y135909D02*
Y137091D01*
X85409Y502500D02*
X86590D01*
X86000Y501909D02*
Y503090D01*
X88345Y327164D02*
X89526D01*
X88935Y326573D02*
Y327754D01*
X85409Y324540D02*
X86590D01*
X86000Y323949D02*
Y325130D01*
X218849Y329132D02*
X220030D01*
X219439Y328541D02*
Y329722D01*
X216335Y326102D02*
X217516D01*
X216925Y325512D02*
Y326693D01*
X189693Y321784D02*
X190874D01*
X190284Y321193D02*
Y322374D01*
X74665Y322634D02*
X75846D01*
X75256Y322043D02*
Y323224D01*
X72107Y319302D02*
X73288D01*
X72698Y318712D02*
Y319893D01*
X186909Y319000D02*
X188091D01*
X187500Y318409D02*
Y319590D01*
X41409Y498500D02*
X42591D01*
X42000Y497909D02*
Y499090D01*
X50797Y494304D02*
X51978D01*
X51387Y493714D02*
Y494895D01*
X96409Y516000D02*
X97591D01*
X97000Y515410D02*
Y516591D01*
X82410Y527500D02*
X83591D01*
X83000Y526909D02*
Y528090D01*
X82410Y512000D02*
X83591D01*
X83000Y511410D02*
Y512591D01*
X21409Y539000D02*
X22591D01*
X22000Y538410D02*
Y539591D01*
X106409Y551500D02*
X107591D01*
X107000Y550910D02*
Y552091D01*
X174409Y644000D02*
X175591D01*
X175000Y643409D02*
Y644591D01*
X184409Y637898D02*
X185591D01*
X185000Y637307D02*
Y638488D01*
X181893Y96983D02*
X183074D01*
X182483Y96393D02*
Y97574D01*
X106276Y425500D02*
X107457D01*
X106867Y424909D02*
Y426090D01*
X105059Y69026D02*
X106240D01*
X105650Y68435D02*
Y69616D01*
X108909Y68205D02*
X110091D01*
X109500Y67614D02*
Y68795D01*
X288409Y105717D02*
X289591D01*
X289000Y105126D02*
Y106307D01*
X13661Y73318D02*
X14843D01*
X14252Y72727D02*
Y73909D01*
X222909Y73000D02*
X224091D01*
X223500Y72409D02*
Y73590D01*
X222909Y89500D02*
X224091D01*
X223500Y88910D02*
Y90091D01*
X101909Y65842D02*
X103091D01*
X102500Y65252D02*
Y66433D01*
X11409Y492500D02*
X12591D01*
X12000Y491910D02*
Y493090D01*
X11276Y296500D02*
X12457D01*
X11866Y295910D02*
Y297091D01*
X128909Y268000D02*
X130091D01*
X129500Y267409D02*
Y268590D01*
X120213Y38799D02*
X121394D01*
X120804Y38208D02*
Y39390D01*
X191409Y39838D02*
X192591D01*
X192000Y39248D02*
Y40429D01*
X191409Y59000D02*
X192591D01*
X192000Y58410D02*
Y59591D01*
X117409Y41563D02*
X118591D01*
X118000Y40972D02*
Y42153D01*
X299410Y121000D02*
X300590D01*
X300000Y120409D02*
Y121591D01*
X331909Y121000D02*
X333090D01*
X332500Y120409D02*
Y121591D01*
X35259Y146849D02*
X36440D01*
X35849Y146259D02*
Y147440D01*
X36065Y22344D02*
X37246D01*
X36656Y21754D02*
Y22935D01*
X244265Y67645D02*
X245446D01*
X244855Y67054D02*
Y68235D01*
X244216Y93210D02*
X245397D01*
X244807Y92620D02*
Y93801D01*
X186909Y11500D02*
X188091D01*
X187500Y10909D02*
Y12091D01*
X186909Y26500D02*
X188091D01*
X187500Y25909D02*
Y27091D01*
X171909Y33500D02*
X173091D01*
X172500Y32909D02*
Y34091D01*
X171909Y45500D02*
X173091D01*
X172500Y44909D02*
Y46091D01*
X126409Y11500D02*
X127591D01*
X127000Y10909D02*
Y12091D01*
X126409Y26067D02*
X127591D01*
X127000Y25476D02*
Y26658D01*
X112409Y31500D02*
X113591D01*
X113000Y30909D02*
Y32091D01*
X112409Y45500D02*
X113591D01*
X113000Y44909D02*
Y46091D01*
X101909Y22500D02*
X103091D01*
X102500Y21910D02*
Y23090D01*
X282516Y43500D02*
X284484D01*
X283500Y42516D02*
Y44484D01*
X287016Y43500D02*
X288984D01*
X288000Y42516D02*
Y44484D01*
X52409Y33000D02*
X53591D01*
X53000Y32409D02*
Y33591D01*
X52260Y46350D02*
X53441D01*
X52850Y45760D02*
Y46941D01*
X65909Y11500D02*
X67090D01*
X66500Y10909D02*
Y12091D01*
X65909Y26185D02*
X67090D01*
X66500Y25594D02*
Y26776D01*
X304909Y69500D02*
X306090D01*
X305500Y68910D02*
Y70091D01*
X304909Y66000D02*
X306090D01*
X305500Y65409D02*
Y66590D01*
X304909Y62500D02*
X306090D01*
X305500Y61910D02*
Y63090D01*
X304909Y59000D02*
X306090D01*
X305500Y58410D02*
Y59591D01*
X308410Y59000D02*
X309591D01*
X309000Y58410D02*
Y59591D01*
X308410Y62500D02*
X309591D01*
X309000Y61910D02*
Y63090D01*
X308410Y66000D02*
X309591D01*
X309000Y65409D02*
Y66590D01*
X308410Y69500D02*
X309591D01*
X309000Y68910D02*
Y70091D01*
X236409Y171000D02*
X237591D01*
X237000Y170409D02*
Y171591D01*
X239910Y171000D02*
X241090D01*
X240500Y170409D02*
Y171591D01*
X239910Y167500D02*
X241090D01*
X240500Y166909D02*
Y168091D01*
X236409Y167500D02*
X237591D01*
X237000Y166909D02*
Y168091D01*
X236409Y164000D02*
X237591D01*
X237000Y163409D02*
Y164591D01*
X239910Y164000D02*
X241090D01*
X240500Y163409D02*
Y164591D01*
X259016Y43500D02*
X260984D01*
X260000Y42516D02*
Y44484D01*
X263516Y43500D02*
X265484D01*
X264500Y42516D02*
Y44484D01*
X244516Y43500D02*
X246484D01*
X245500Y42516D02*
Y44484D01*
X249016Y43500D02*
X250984D01*
X250000Y42516D02*
Y44484D01*
X218409Y458500D02*
X219590D01*
X219000Y457909D02*
Y459091D01*
X218409Y478500D02*
X219590D01*
X219000Y477910D02*
Y479090D01*
X218409Y465500D02*
X219590D01*
X219000Y464910D02*
Y466090D01*
X313409Y372500D02*
X314591D01*
X314000Y371909D02*
Y373091D01*
X322410Y403500D02*
X323590D01*
X323000Y402910D02*
Y404090D01*
X322410Y362000D02*
X323590D01*
X323000Y361409D02*
Y362591D01*
X111909Y376500D02*
X113091D01*
X112500Y375909D02*
Y377091D01*
X249410Y358500D02*
X250590D01*
X250000Y357909D02*
Y359090D01*
X249386Y371000D02*
X250567D01*
X249977Y370409D02*
Y371590D01*
X208410Y372000D02*
X209591D01*
X209000Y371410D02*
Y372590D01*
X129209Y376319D02*
X130391D01*
X129800Y375729D02*
Y376910D01*
X179409Y372000D02*
X180591D01*
X180000Y371410D02*
Y372590D01*
X179409Y380000D02*
X180591D01*
X180000Y379410D02*
Y380591D01*
X179409Y361000D02*
X180591D01*
X180000Y360409D02*
Y361591D01*
X89481Y95571D02*
X90662D01*
X90071Y94981D02*
Y96162D01*
X89410Y103500D02*
X90591D01*
X90000Y102909D02*
Y104091D01*
X127409Y83500D02*
X128591D01*
X128000Y82910D02*
Y84091D01*
X50909Y56000D02*
X52091D01*
X51500Y55409D02*
Y56590D01*
X122909Y361500D02*
X124091D01*
X123500Y360910D02*
Y362090D01*
X79909Y353500D02*
X81090D01*
X80500Y352909D02*
Y354090D01*
X79909Y371350D02*
X81090D01*
X80500Y370760D02*
Y371941D01*
X111909Y357098D02*
X113091D01*
X112500Y356508D02*
Y357689D01*
X67909Y385500D02*
X69090D01*
X68500Y384910D02*
Y386090D01*
X76660Y360750D02*
X77841D01*
X77250Y360159D02*
Y361340D01*
X76660Y381000D02*
X77841D01*
X77250Y380409D02*
Y381591D01*
X50909Y366000D02*
X52091D01*
X51500Y365409D02*
Y366590D01*
X50909Y353500D02*
X52091D01*
X51500Y352909D02*
Y354090D01*
X50909Y334500D02*
X52091D01*
X51500Y333910D02*
Y335090D01*
X50909Y319500D02*
X52091D01*
X51500Y318910D02*
Y320091D01*
X66909Y343500D02*
X68090D01*
X67500Y342910D02*
Y344091D01*
X66909Y353500D02*
X68090D01*
X67500Y352909D02*
Y354090D01*
X30409Y93000D02*
X31591D01*
X31000Y92409D02*
Y93590D01*
X315409Y98500D02*
X316590D01*
X316000Y97909D02*
Y99090D01*
X315409Y102000D02*
X316590D01*
X316000Y101409D02*
Y102591D01*
X315409Y105500D02*
X316590D01*
X316000Y104909D02*
Y106091D01*
X315409Y109000D02*
X316590D01*
X316000Y108409D02*
Y109591D01*
X311409Y98500D02*
X312591D01*
X312000Y97909D02*
Y99090D01*
X311409Y102000D02*
X312591D01*
X312000Y101409D02*
Y102591D01*
X311409Y105500D02*
X312591D01*
X312000Y104909D02*
Y106091D01*
X311409Y109000D02*
X312591D01*
X312000Y108409D02*
Y109591D01*
X304293Y162647D02*
X305474D01*
X304883Y162057D02*
Y163238D01*
X300410Y162000D02*
X301590D01*
X301000Y161409D02*
Y162591D01*
X304577Y172832D02*
X305758D01*
X305168Y172242D02*
Y173423D01*
X300535Y140220D02*
X301715D01*
X301125Y139630D02*
Y140811D01*
X304307Y146459D02*
X305488D01*
X304898Y145868D02*
Y147049D01*
X322909Y139180D02*
X324091D01*
X323500Y138590D02*
Y139771D01*
X322909Y148000D02*
X324091D01*
X323500Y147409D02*
Y148591D01*
X311409Y211500D02*
X312591D01*
X312000Y210910D02*
Y212090D01*
X311409Y208000D02*
X312591D01*
X312000Y207410D02*
Y208591D01*
X311409Y204500D02*
X312591D01*
X312000Y203909D02*
Y205090D01*
X311409Y201000D02*
X312591D01*
X312000Y200409D02*
Y201591D01*
X295718Y175000D02*
X296899D01*
X296309Y174409D02*
Y175591D01*
X315409Y211500D02*
X316590D01*
X316000Y210910D02*
Y212090D01*
X315409Y208000D02*
X316590D01*
X316000Y207410D02*
Y208591D01*
X315409Y204500D02*
X316590D01*
X316000Y203909D02*
Y205090D01*
X315409Y201000D02*
X316590D01*
X316000Y200409D02*
Y201591D01*
X331909Y139000D02*
X333090D01*
X332500Y138409D02*
Y139591D01*
X284910Y242500D02*
X286090D01*
X285500Y241910D02*
Y243091D01*
X299909Y255500D02*
X301091D01*
X300500Y254909D02*
Y256090D01*
X300244Y240500D02*
X301425D01*
X300835Y239909D02*
Y241090D01*
X315910Y230500D02*
X317091D01*
X316500Y229909D02*
Y231090D01*
X315910Y245500D02*
X317091D01*
X316500Y244910D02*
Y246091D01*
X272909Y160000D02*
X274091D01*
X273500Y159409D02*
Y160591D01*
X272909Y269500D02*
X274091D01*
X273500Y268910D02*
Y270091D01*
X308910Y252000D02*
X310090D01*
X309500Y251410D02*
Y252590D01*
X308910Y258500D02*
X310090D01*
X309500Y257909D02*
Y259090D01*
X308910Y245500D02*
X310090D01*
X309500Y244910D02*
Y246091D01*
X82910Y160000D02*
X84091D01*
X83500Y159409D02*
Y160591D01*
X82910Y219500D02*
X84091D01*
X83500Y218910D02*
Y220091D01*
X59909Y219500D02*
X61090D01*
X60500Y218910D02*
Y220091D01*
X59830Y241882D02*
X61011D01*
X60421Y241291D02*
Y242473D01*
X26409Y193000D02*
X27591D01*
X27000Y192409D02*
Y193591D01*
X26409Y228500D02*
X27591D01*
X27000Y227909D02*
Y229090D01*
X60409Y193000D02*
X61590D01*
X61000Y192409D02*
Y193591D01*
X60500Y150382D02*
X61681D01*
X61091Y149792D02*
Y150973D01*
X95410Y224000D02*
X96591D01*
X96000Y223410D02*
Y224590D01*
X280405Y125216D02*
X281587D01*
X280996Y124626D02*
Y125807D01*
X280110Y108299D02*
X281291D01*
X280701Y107709D02*
Y108890D01*
X280110Y162000D02*
X281291D01*
X280701Y161409D02*
Y162591D01*
X285181Y130112D02*
X286362D01*
X285771Y129521D02*
Y130702D01*
X289910Y136043D02*
X291090D01*
X290500Y135453D02*
Y136634D01*
X284909Y144157D02*
X286090D01*
X285500Y143567D02*
Y144748D01*
X292962Y149000D02*
X294143D01*
X293553Y148409D02*
Y149591D01*
X289616Y154000D02*
X290797D01*
X290206Y153409D02*
Y154591D01*
X289910Y166000D02*
X291090D01*
X290500Y165409D02*
Y166591D01*
X71909Y433500D02*
X73091D01*
X72500Y432909D02*
Y434091D01*
X215409Y85500D02*
X216590D01*
X216000Y84909D02*
Y86090D01*
X215409Y89000D02*
X216590D01*
X216000Y88410D02*
Y89591D01*
X215409Y92500D02*
X216590D01*
X216000Y91909D02*
Y93090D01*
X215409Y96000D02*
X216590D01*
X216000Y95410D02*
Y96591D01*
X211910Y85500D02*
X213090D01*
X212500Y84909D02*
Y86090D01*
X211910Y89000D02*
X213090D01*
X212500Y88410D02*
Y89591D01*
X211910Y92500D02*
X213090D01*
X212500Y91909D02*
Y93090D01*
X211910Y96000D02*
X213090D01*
X212500Y95410D02*
Y96591D01*
X179925Y229500D02*
X183075D01*
X181500Y227925D02*
Y231075D01*
X142425Y218500D02*
X145575D01*
X144000Y216925D02*
Y220075D01*
X120909Y181500D02*
X122091D01*
X121500Y180909D02*
Y182091D01*
X120909Y152000D02*
X122091D01*
X121500Y151409D02*
Y152591D01*
X24409Y174000D02*
X25591D01*
X25000Y173409D02*
Y174591D01*
X63650Y143260D02*
X64831D01*
X64240Y142669D02*
Y143850D01*
X63650Y166240D02*
X64831D01*
X64240Y165650D02*
Y166831D01*
X39409Y129500D02*
X40591D01*
X40000Y128909D02*
Y130091D01*
X39409Y159500D02*
X40591D01*
X40000Y158909D02*
Y160091D01*
X39409Y148000D02*
X40591D01*
X40000Y147409D02*
Y148591D01*
X123909Y104087D02*
X125091D01*
X124500Y103496D02*
Y104677D01*
X127133Y100688D02*
X128314D01*
X127723Y100098D02*
Y101279D01*
X218910Y139000D02*
X220091D01*
X219500Y138409D02*
Y139591D01*
X215910Y142500D02*
X217091D01*
X216500Y141909D02*
Y143091D01*
X159169Y372587D02*
X160350D01*
X159760Y371996D02*
Y373177D01*
X89909Y128000D02*
X91091D01*
X90500Y127409D02*
Y128591D01*
X104409Y165500D02*
X105591D01*
X105000Y164909D02*
Y166091D01*
X87410Y164500D02*
X88591D01*
X88000Y163909D02*
Y165091D01*
M02*
