G04*
G04 #@! TF.GenerationSoftware,Altium Limited,Altium Designer,21.2.1 (34)*
G04*
G04 Layer_Color=8388736*
%FSLAX25Y25*%
%MOIN*%
G70*
G04*
G04 #@! TF.SameCoordinates,E3247584-B976-4F33-B0A2-C8B4A793FEE3*
G04*
G04*
G04 #@! TF.FilePolarity,Positive*
G04*
G01*
G75*
%ADD10C,0.01181*%
%ADD12C,0.00787*%
%ADD96C,0.00394*%
%ADD97C,0.00591*%
G36*
X354618Y-101229D02*
X362618Y-102043D01*
X371431Y-103534D01*
X379296Y-105568D01*
X383228Y-106924D01*
X382550Y-107738D01*
X381736Y-109365D01*
X381601Y-110856D01*
X380109Y-110179D01*
X374957Y-108280D01*
X367906Y-105975D01*
X362211Y-104484D01*
X352313Y-102585D01*
X342279Y-101501D01*
X334279Y-101229D01*
X337262Y-100958D01*
X350143D01*
X354618Y-101229D01*
D02*
G37*
G36*
X388923Y-107060D02*
X390143Y-107873D01*
X391228Y-109636D01*
Y-112348D01*
X390685Y-113433D01*
X389736Y-114382D01*
X388380Y-115060D01*
X386482Y-115196D01*
X384719Y-114518D01*
X383906Y-113704D01*
X383092Y-112348D01*
X382957Y-110179D01*
X383228Y-109229D01*
X383906Y-108145D01*
X384991Y-107331D01*
X386211Y-106789D01*
X388109D01*
X388923Y-107060D01*
D02*
G37*
G36*
X351499Y-114382D02*
X352448Y-115602D01*
X352584Y-117365D01*
X352177Y-118179D01*
X350957Y-119128D01*
X348923D01*
X348245Y-118721D01*
X347431Y-117636D01*
X347431Y-115602D01*
X348109Y-114653D01*
X349329Y-113975D01*
X350550D01*
X351499Y-114382D01*
D02*
G37*
G36*
X342007Y-121975D02*
X343363Y-122518D01*
X343092Y-124280D01*
X342957Y-142314D01*
X339024D01*
Y-127399D01*
X338347Y-126585D01*
X336990Y-125636D01*
X335635Y-125501D01*
X335092Y-125772D01*
X334550Y-126721D01*
X334414Y-142314D01*
X330482D01*
X330618Y-124551D01*
X331296Y-123060D01*
X332380Y-122111D01*
X334008Y-121568D01*
X336448Y-121840D01*
X337804Y-122518D01*
X339160Y-123602D01*
X339296Y-122789D01*
X339702Y-121433D01*
X342007Y-121975D01*
D02*
G37*
G36*
X294279Y-122382D02*
X294007Y-124009D01*
X293872Y-142314D01*
X289804D01*
Y-127128D01*
X287906Y-125636D01*
X286143D01*
X285465Y-126585D01*
X285330Y-142314D01*
X281397D01*
X281533Y-124416D01*
X282075Y-123196D01*
X283296Y-122111D01*
X284923Y-121568D01*
X287363Y-121840D01*
X288448Y-122382D01*
X290075Y-123602D01*
X290618Y-121433D01*
X294279Y-122382D01*
D02*
G37*
G36*
X380923D02*
X380516Y-124416D01*
X380380Y-142314D01*
X376448D01*
Y-127263D01*
X375770Y-126585D01*
X374414Y-125636D01*
X373058Y-125501D01*
X372516Y-125772D01*
X371974Y-126721D01*
X371838Y-142314D01*
X367906D01*
Y-125365D01*
X368313Y-123738D01*
X368719Y-123060D01*
X369804Y-122111D01*
X371431Y-121568D01*
X372652D01*
X374279Y-121975D01*
X376041Y-123060D01*
X376584Y-123738D01*
X377126Y-121433D01*
X380923Y-122382D01*
D02*
G37*
G36*
X322482Y-121840D02*
X323567Y-122518D01*
X325194Y-124416D01*
X326008Y-126043D01*
X326685Y-128619D01*
Y-135399D01*
X326008Y-138111D01*
X324516Y-140687D01*
X323024Y-141907D01*
X321126Y-142721D01*
X318007D01*
X316380Y-142179D01*
X314889Y-141229D01*
X313804Y-140145D01*
X314347Y-138789D01*
X315296Y-137162D01*
X315567D01*
X316109Y-137840D01*
X317872Y-138924D01*
X319906Y-139060D01*
X320855Y-138653D01*
X321804Y-137704D01*
X322346Y-136348D01*
X322618Y-133229D01*
X313533D01*
X313804Y-127670D01*
X314482Y-125229D01*
X315431Y-123602D01*
X317058Y-122111D01*
X319092Y-121433D01*
X320294D01*
Y-124901D01*
X319499Y-124823D01*
X318685Y-125229D01*
X318279Y-125772D01*
X317872Y-126721D01*
X317601Y-129975D01*
X322618D01*
X322211Y-126721D01*
X321533Y-125365D01*
X320990Y-124958D01*
X320306Y-124901D01*
Y-121433D01*
X320990D01*
X322482Y-121840D01*
D02*
G37*
G36*
X389058Y-118314D02*
Y-142314D01*
X384991D01*
Y-117907D01*
X389058Y-118314D01*
D02*
G37*
G36*
X359228Y-113026D02*
X360855Y-113840D01*
X361804Y-115060D01*
X362618Y-117229D01*
Y-121975D01*
X363974D01*
Y-125501D01*
X362618D01*
Y-142314D01*
X358550D01*
Y-125501D01*
X355567D01*
X354889Y-121975D01*
X358550D01*
Y-118043D01*
X358008Y-116823D01*
X357601Y-116551D01*
X356109D01*
X355160Y-117094D01*
X354482Y-115467D01*
X354075Y-113840D01*
X354753Y-113433D01*
X356651Y-112891D01*
X359228Y-113026D01*
D02*
G37*
G36*
X351906Y-122111D02*
Y-142314D01*
X347838D01*
Y-121568D01*
X351906Y-122111D01*
D02*
G37*
G36*
X306482Y-121840D02*
X307974Y-122789D01*
X309330Y-124551D01*
X310008Y-125907D01*
X310821Y-128891D01*
X310957Y-134179D01*
X310550Y-136755D01*
X309736Y-139196D01*
X308923Y-140551D01*
X307702Y-141772D01*
X305804Y-142721D01*
X304360Y-142797D01*
X303228Y-142857D01*
X301601Y-142450D01*
X300109Y-141501D01*
X298753Y-139670D01*
X298211Y-138789D01*
X297262Y-135535D01*
X297126Y-129568D01*
X297397Y-127806D01*
X298211Y-125365D01*
X299431Y-123467D01*
X301058Y-122111D01*
X303092Y-121433D01*
X304991D01*
X306482Y-121840D01*
D02*
G37*
G36*
X394618Y-111941D02*
X398550Y-114382D01*
X402075Y-117094D01*
X405465Y-120619D01*
X407635Y-123602D01*
X408855Y-125907D01*
X409940Y-129433D01*
Y-134856D01*
X409262Y-137297D01*
X407635Y-140551D01*
X406550Y-142179D01*
X405330Y-143670D01*
X403431Y-145568D01*
X401330Y-147263D01*
X400041Y-148280D01*
X397872Y-149772D01*
X394889Y-151534D01*
X392041Y-153026D01*
X387024Y-155195D01*
X380787Y-157365D01*
X373194Y-159399D01*
X365736Y-160890D01*
X357058Y-162111D01*
X346889Y-162924D01*
X329804Y-163060D01*
X320177Y-162382D01*
X311906Y-161297D01*
X304041Y-159806D01*
X295228Y-157501D01*
X286821Y-154518D01*
X283024Y-152890D01*
X278685Y-150585D01*
X275024Y-148551D01*
X271770Y-146382D01*
X270143Y-145162D01*
X268787Y-144077D01*
X267974Y-143263D01*
X267838Y-142721D01*
X268245Y-142857D01*
X270414Y-144619D01*
X274618Y-147331D01*
X278008Y-149094D01*
X283567Y-151399D01*
X289804Y-153433D01*
X297397Y-155331D01*
X306347Y-156958D01*
X316652Y-158179D01*
X328584Y-158856D01*
X334414Y-158789D01*
X343726Y-158591D01*
X348245Y-158314D01*
X355431Y-157636D01*
X364245Y-156280D01*
X368855Y-155331D01*
X372109Y-154518D01*
X376855Y-153162D01*
X381329Y-151534D01*
X383906Y-150450D01*
X387024Y-148958D01*
X390143Y-147195D01*
X392041Y-145975D01*
X394346Y-144212D01*
X396245Y-142585D01*
X397601Y-141094D01*
X398550Y-139874D01*
X399499Y-138518D01*
X400448Y-136890D01*
X401126Y-135263D01*
X401804Y-132958D01*
X402075Y-129162D01*
X401669Y-127399D01*
X400584Y-124958D01*
X398821Y-122382D01*
X398007Y-121433D01*
X396787Y-120212D01*
X395024Y-118721D01*
X391363Y-116009D01*
X390685Y-115738D01*
X390550Y-115331D01*
X391092Y-115060D01*
X391906Y-113840D01*
X392448Y-112619D01*
X392719Y-110992D01*
X394618Y-111941D01*
D02*
G37*
%LPC*%
G36*
X303635Y-125094D02*
X302957Y-125365D01*
X302279Y-126179D01*
X301601Y-128077D01*
Y-135941D01*
X302143Y-137840D01*
X302685Y-138653D01*
X303635Y-139196D01*
X304313Y-139060D01*
X304855D01*
X305940Y-137840D01*
X306482Y-136213D01*
X306753Y-131060D01*
X306347Y-127399D01*
X305804Y-126043D01*
X304855Y-125229D01*
X303635Y-125094D01*
D02*
G37*
%LPD*%
D10*
X68268Y-106002D02*
Y-117811D01*
X61520D01*
X60227Y-113312D02*
X53479D01*
Y-112188D01*
X54041Y-111063D01*
X54604Y-110501D01*
X55728Y-109938D01*
X57415D01*
X58540Y-110501D01*
X59664Y-111625D01*
X60227Y-113312D01*
Y-114437D01*
X59664Y-116124D01*
X58540Y-117248D01*
X57415Y-117811D01*
X55728D01*
X54604Y-117248D01*
X53479Y-116124D01*
X44201Y-109938D02*
Y-117811D01*
Y-111625D02*
X45325Y-110501D01*
X46450Y-109938D01*
X48137D01*
X49262Y-110501D01*
X50386Y-111625D01*
X50949Y-113312D01*
Y-114437D01*
X50386Y-116124D01*
X49262Y-117248D01*
X48137Y-117811D01*
X46450D01*
X45325Y-117248D01*
X44201Y-116124D01*
X41052Y-109938D02*
Y-117811D01*
Y-113312D02*
X40490Y-111625D01*
X39365Y-110501D01*
X38240Y-109938D01*
X36553D01*
X35485D02*
Y-117811D01*
Y-112188D02*
X33798Y-110501D01*
X32673Y-109938D01*
X30987D01*
X29862Y-110501D01*
X29300Y-112188D01*
Y-117811D01*
X25082Y-106002D02*
X24520Y-106564D01*
X23958Y-106002D01*
X24520Y-105440D01*
X25082Y-106002D01*
X24520Y-109938D02*
Y-117811D01*
X21877Y-109938D02*
Y-117811D01*
Y-112188D02*
X20190Y-110501D01*
X19066Y-109938D01*
X17379D01*
X16254Y-110501D01*
X15692Y-112188D01*
Y-117811D01*
X5851Y-109938D02*
Y-118935D01*
X6414Y-120622D01*
X6976Y-121185D01*
X8101Y-121747D01*
X9788D01*
X10912Y-121185D01*
X5851Y-111625D02*
X6976Y-110501D01*
X8101Y-109938D01*
X9788D01*
X10912Y-110501D01*
X12037Y-111625D01*
X12599Y-113312D01*
Y-114437D01*
X12037Y-116124D01*
X10912Y-117248D01*
X9788Y-117811D01*
X8101D01*
X6976Y-117248D01*
X5851Y-116124D01*
X-6576Y-112188D02*
X-11636D01*
X-13323Y-111625D01*
X-13886Y-111063D01*
X-14448Y-109938D01*
Y-108251D01*
X-13886Y-107127D01*
X-13323Y-106564D01*
X-11636Y-106002D01*
X-6576D01*
Y-117811D01*
X-17091Y-106002D02*
Y-117811D01*
X-26313Y-109938D02*
Y-117811D01*
Y-111625D02*
X-25188Y-110501D01*
X-24063Y-109938D01*
X-22377D01*
X-21252Y-110501D01*
X-20127Y-111625D01*
X-19565Y-113312D01*
Y-114437D01*
X-20127Y-116124D01*
X-21252Y-117248D01*
X-22377Y-117811D01*
X-24063D01*
X-25188Y-117248D01*
X-26313Y-116124D01*
X-31148Y-106002D02*
Y-115561D01*
X-31711Y-117248D01*
X-32836Y-117811D01*
X-33960D01*
X-29462Y-109938D02*
X-33398D01*
X-40145Y-106002D02*
X-39021D01*
X-37896Y-106564D01*
X-37334Y-108251D01*
Y-117811D01*
X-35647Y-109938D02*
X-39583D01*
X-44644D02*
X-43519Y-110501D01*
X-42395Y-111625D01*
X-41832Y-113312D01*
Y-114437D01*
X-42395Y-116124D01*
X-43519Y-117248D01*
X-44644Y-117811D01*
X-46331D01*
X-47455Y-117248D01*
X-48580Y-116124D01*
X-49142Y-114437D01*
Y-113312D01*
X-48580Y-111625D01*
X-47455Y-110501D01*
X-46331Y-109938D01*
X-44644D01*
X-51729D02*
Y-117811D01*
Y-113312D02*
X-52291Y-111625D01*
X-53416Y-110501D01*
X-54541Y-109938D01*
X-56227D01*
X-57296D02*
Y-117811D01*
Y-112188D02*
X-58983Y-110501D01*
X-60107Y-109938D01*
X-61794D01*
X-62919Y-110501D01*
X-63481Y-112188D01*
Y-117811D01*
Y-112188D02*
X-65168Y-110501D01*
X-66293Y-109938D01*
X-67980D01*
X-69104Y-110501D01*
X-69667Y-112188D01*
Y-117811D01*
X-87155Y-106002D02*
X-86030D01*
X-84905Y-106564D01*
X-84343Y-108251D01*
Y-117811D01*
X-82656Y-109938D02*
X-86592D01*
X-91653D02*
X-90528Y-110501D01*
X-89404Y-111625D01*
X-88841Y-113312D01*
Y-114437D01*
X-89404Y-116124D01*
X-90528Y-117248D01*
X-91653Y-117811D01*
X-93340D01*
X-94464Y-117248D01*
X-95589Y-116124D01*
X-96152Y-114437D01*
Y-113312D01*
X-95589Y-111625D01*
X-94464Y-110501D01*
X-93340Y-109938D01*
X-91653D01*
X-98738D02*
Y-117811D01*
Y-113312D02*
X-99300Y-111625D01*
X-100425Y-110501D01*
X-101550Y-109938D01*
X-103237D01*
X60395Y-129192D02*
X61520Y-128068D01*
X63207Y-127505D01*
X65456D01*
X67143Y-128068D01*
X68268Y-129192D01*
Y-130317D01*
X67705Y-131442D01*
X67143Y-132004D01*
X66018Y-132566D01*
X62645Y-133691D01*
X61520Y-134253D01*
X60958Y-134816D01*
X60395Y-135940D01*
Y-137627D01*
X61520Y-138752D01*
X63207Y-139314D01*
X65456D01*
X67143Y-138752D01*
X68268Y-137627D01*
X57753Y-131442D02*
X55503Y-139314D01*
X53254Y-131442D02*
X55503Y-139314D01*
X53254Y-131442D02*
X51005Y-139314D01*
X48756Y-131442D02*
X51005Y-139314D01*
X44876Y-127505D02*
X44313Y-128068D01*
X43751Y-127505D01*
X44313Y-126943D01*
X44876Y-127505D01*
X44313Y-131442D02*
Y-139314D01*
X39984Y-127505D02*
Y-137065D01*
X39421Y-138752D01*
X38297Y-139314D01*
X37172D01*
X41671Y-131442D02*
X37734D01*
X28737Y-133128D02*
X29862Y-132004D01*
X30987Y-131442D01*
X32673D01*
X33798Y-132004D01*
X34923Y-133128D01*
X35485Y-134816D01*
Y-135940D01*
X34923Y-137627D01*
X33798Y-138752D01*
X32673Y-139314D01*
X30987D01*
X29862Y-138752D01*
X28737Y-137627D01*
X26207Y-127505D02*
Y-139314D01*
Y-133691D02*
X24520Y-132004D01*
X23395Y-131442D01*
X21709D01*
X20584Y-132004D01*
X20022Y-133691D01*
Y-139314D01*
X15804Y-127505D02*
X15242Y-128068D01*
X14680Y-127505D01*
X15242Y-126943D01*
X15804Y-127505D01*
X15242Y-131442D02*
Y-139314D01*
X12599Y-131442D02*
Y-139314D01*
Y-133691D02*
X10912Y-132004D01*
X9788Y-131442D01*
X8101D01*
X6976Y-132004D01*
X6414Y-133691D01*
Y-139314D01*
X-3427Y-131442D02*
Y-140439D01*
X-2864Y-142125D01*
X-2302Y-142688D01*
X-1178Y-143250D01*
X509D01*
X1634Y-142688D01*
X-3427Y-133128D02*
X-2302Y-132004D01*
X-1178Y-131442D01*
X509D01*
X1634Y-132004D01*
X2759Y-133128D01*
X3321Y-134816D01*
Y-135940D01*
X2759Y-137627D01*
X1634Y-138752D01*
X509Y-139314D01*
X-1178D01*
X-2302Y-138752D01*
X-3427Y-137627D01*
X-15854Y-127505D02*
Y-139314D01*
Y-127505D02*
X-20914D01*
X-22601Y-128068D01*
X-23164Y-128630D01*
X-23726Y-129755D01*
Y-130879D01*
X-23164Y-132004D01*
X-22601Y-132566D01*
X-20914Y-133128D01*
X-15854D01*
X-19790D02*
X-23726Y-139314D01*
X-26369Y-134816D02*
X-33117D01*
Y-133691D01*
X-32554Y-132566D01*
X-31992Y-132004D01*
X-30867Y-131442D01*
X-29180D01*
X-28056Y-132004D01*
X-26931Y-133128D01*
X-26369Y-134816D01*
Y-135940D01*
X-26931Y-137627D01*
X-28056Y-138752D01*
X-29180Y-139314D01*
X-30867D01*
X-31992Y-138752D01*
X-33117Y-137627D01*
X-42395Y-131442D02*
Y-140439D01*
X-41832Y-142125D01*
X-41270Y-142688D01*
X-40145Y-143250D01*
X-38459D01*
X-37334Y-142688D01*
X-42395Y-133128D02*
X-41270Y-132004D01*
X-40145Y-131442D01*
X-38459D01*
X-37334Y-132004D01*
X-36209Y-133128D01*
X-35647Y-134816D01*
Y-135940D01*
X-36209Y-137627D01*
X-37334Y-138752D01*
X-38459Y-139314D01*
X-40145D01*
X-41270Y-138752D01*
X-42395Y-137627D01*
X-45544Y-131442D02*
Y-137065D01*
X-46106Y-138752D01*
X-47231Y-139314D01*
X-48917D01*
X-50042Y-138752D01*
X-51729Y-137065D01*
Y-131442D02*
Y-139314D01*
X-54822Y-127505D02*
Y-139314D01*
X-64044Y-131442D02*
Y-139314D01*
Y-133128D02*
X-62919Y-132004D01*
X-61794Y-131442D01*
X-60107D01*
X-58983Y-132004D01*
X-57858Y-133128D01*
X-57296Y-134816D01*
Y-135940D01*
X-57858Y-137627D01*
X-58983Y-138752D01*
X-60107Y-139314D01*
X-61794D01*
X-62919Y-138752D01*
X-64044Y-137627D01*
X-68879Y-127505D02*
Y-137065D01*
X-69442Y-138752D01*
X-70566Y-139314D01*
X-71691D01*
X-67193Y-131442D02*
X-71129D01*
X-76190D02*
X-75065Y-132004D01*
X-73940Y-133128D01*
X-73378Y-134816D01*
Y-135940D01*
X-73940Y-137627D01*
X-75065Y-138752D01*
X-76190Y-139314D01*
X-77876D01*
X-79001Y-138752D01*
X-80126Y-137627D01*
X-80688Y-135940D01*
Y-134816D01*
X-80126Y-133128D01*
X-79001Y-132004D01*
X-77876Y-131442D01*
X-76190D01*
X-83275D02*
Y-139314D01*
Y-134816D02*
X-83837Y-133128D01*
X-84961Y-132004D01*
X-86086Y-131442D01*
X-87773D01*
X-95027Y-133128D02*
X-94464Y-132004D01*
X-92778Y-131442D01*
X-91091D01*
X-89404Y-132004D01*
X-88841Y-133128D01*
X-89404Y-134253D01*
X-90528Y-134816D01*
X-93340Y-135378D01*
X-94464Y-135940D01*
X-95027Y-137065D01*
Y-137627D01*
X-94464Y-138752D01*
X-92778Y-139314D01*
X-91091D01*
X-89404Y-138752D01*
X-88841Y-137627D01*
D12*
X-97087Y-214567D02*
Y-155512D01*
X250551Y-214567D02*
X430472D01*
Y-226378D02*
Y-96457D01*
X250551D02*
X430472D01*
X100551Y-125984D02*
X250551D01*
X-199449Y-214567D02*
X250551D01*
X-199449Y-185039D02*
X250551D01*
X-199449Y-155512D02*
X250551D01*
X100551Y-96457D02*
X250551D01*
X100551Y-154567D02*
Y-96457D01*
X-199449D02*
X100551D01*
X-199449Y-214567D02*
Y-94567D01*
X250551Y-214567D02*
Y-96457D01*
X-148268Y-214567D02*
Y-155512D01*
X100551Y-214567D02*
Y-154567D01*
X1355669Y-246063D02*
Y856299D01*
X-219134Y-246063D02*
X1355669D01*
X-219134D02*
Y856299D01*
X1355669D01*
X1335984Y-226063D02*
Y836614D01*
X-199449Y-226378D02*
X1335984D01*
X-199449D02*
Y836614D01*
X1335984D01*
X1158819D02*
Y856299D01*
X765118Y836614D02*
Y856299D01*
X568268Y836614D02*
Y856299D01*
X174567Y836614D02*
Y856299D01*
X-22284Y836614D02*
Y856299D01*
X1335984Y580709D02*
X1355669D01*
X1335984Y305118D02*
X1355669D01*
X1335984Y29528D02*
X1355669D01*
X1158819Y-246063D02*
Y-226378D01*
X961969Y-246063D02*
Y-226378D01*
X765118Y-246063D02*
Y-226378D01*
X568268Y-246063D02*
Y-226378D01*
X371417Y-246063D02*
Y-226378D01*
X174567Y-246063D02*
Y-226378D01*
X-22284Y-246063D02*
Y-226378D01*
X-219134Y580709D02*
X-199449D01*
X-219134Y305118D02*
X-199449D01*
X-219134Y29528D02*
X-199449D01*
X961969Y836614D02*
Y856299D01*
X371417Y836614D02*
Y856299D01*
D96*
X249173Y-220079D02*
G03*
X249173Y-220079I-2362J0D01*
G01*
X-104622Y-192913D02*
X-102823Y-188190D01*
X-101024Y-192913D01*
X-101698Y-191339D02*
X-103948D01*
X-105725Y-190664D02*
X-107749D01*
X-108424Y-190439D01*
X-108649Y-190214D01*
X-108873Y-189764D01*
Y-189090D01*
X-108649Y-188640D01*
X-108424Y-188415D01*
X-107749Y-188190D01*
X-105725D01*
Y-192913D01*
X-109931Y-188190D02*
Y-192913D01*
Y-188190D02*
X-111955D01*
X-112630Y-188415D01*
X-112855Y-188640D01*
X-113080Y-189090D01*
Y-189540D01*
X-112855Y-189989D01*
X-112630Y-190214D01*
X-111955Y-190439D01*
X-109931D01*
X-111505D02*
X-113080Y-192913D01*
X-114137Y-188190D02*
X-115936Y-192913D01*
X-117735Y-188190D02*
X-115936Y-192913D01*
X-118568Y-189764D02*
X-118343Y-189989D01*
X-118568Y-190214D01*
X-118793Y-189989D01*
X-118568Y-189764D01*
Y-192464D02*
X-118343Y-192689D01*
X-118568Y-192913D01*
X-118793Y-192689D01*
X-118568Y-192464D01*
X-101024Y-158662D02*
Y-163386D01*
Y-158662D02*
X-103048D01*
X-103723Y-158887D01*
X-103948Y-159112D01*
X-104173Y-159562D01*
Y-160012D01*
X-103948Y-160462D01*
X-103723Y-160687D01*
X-103048Y-160912D01*
X-101024D01*
X-102598D02*
X-104173Y-163386D01*
X-108154Y-158662D02*
X-105230D01*
Y-163386D01*
X-108154D01*
X-105230Y-160912D02*
X-107029D01*
X-108941Y-158662D02*
Y-163386D01*
X-111640D01*
X-112382Y-160237D02*
X-112157Y-160462D01*
X-112382Y-160687D01*
X-112607Y-160462D01*
X-112382Y-160237D01*
Y-162936D02*
X-112157Y-163161D01*
X-112382Y-163386D01*
X-112607Y-163161D01*
X-112382Y-162936D01*
X245551Y-158662D02*
Y-163386D01*
Y-158662D02*
X243977D01*
X243302Y-158887D01*
X242852Y-159337D01*
X242627Y-159787D01*
X242402Y-160462D01*
Y-161586D01*
X242627Y-162261D01*
X242852Y-162711D01*
X243302Y-163161D01*
X243977Y-163386D01*
X245551D01*
X237746D02*
X239546Y-158662D01*
X241345Y-163386D01*
X240670Y-161811D02*
X238421D01*
X235070Y-158662D02*
Y-163386D01*
X236644Y-158662D02*
X233495D01*
X230009D02*
X232933D01*
Y-163386D01*
X230009D01*
X232933Y-160912D02*
X231134D01*
X228997Y-160237D02*
X229222Y-160462D01*
X228997Y-160687D01*
X228772Y-160462D01*
X228997Y-160237D01*
Y-162936D02*
X229222Y-163161D01*
X228997Y-163386D01*
X228772Y-163161D01*
X228997Y-162936D01*
X-152205Y-158662D02*
Y-163386D01*
Y-158662D02*
X-154229D01*
X-154904Y-158887D01*
X-155129Y-159112D01*
X-155354Y-159562D01*
Y-160012D01*
X-155129Y-160462D01*
X-154904Y-160687D01*
X-154229Y-160912D01*
X-152205D01*
X-153779D02*
X-155354Y-163386D01*
X-159335Y-158662D02*
X-156411D01*
Y-163386D01*
X-159335D01*
X-156411Y-160912D02*
X-158210D01*
X-160122Y-158662D02*
X-161921Y-163386D01*
X-163721Y-158662D02*
X-161921Y-163386D01*
X-164553Y-160237D02*
X-164328Y-160462D01*
X-164553Y-160687D01*
X-164778Y-160462D01*
X-164553Y-160237D01*
Y-162936D02*
X-164328Y-163161D01*
X-164553Y-163386D01*
X-164778Y-163161D01*
X-164553Y-162936D01*
X95551Y-188190D02*
Y-192913D01*
Y-188190D02*
X92627D01*
X95551Y-190439D02*
X93752D01*
X92087Y-188190D02*
Y-192913D01*
X91098Y-188190D02*
Y-192913D01*
X88399D01*
X84957Y-188190D02*
X87881D01*
Y-192913D01*
X84957D01*
X87881Y-190439D02*
X86082D01*
X80459Y-188190D02*
Y-192913D01*
Y-188190D02*
X77310Y-192913D01*
Y-188190D02*
Y-192913D01*
X72407D02*
X74206Y-188190D01*
X76005Y-192913D01*
X75331Y-191339D02*
X73081D01*
X71304Y-188190D02*
Y-192913D01*
Y-188190D02*
X69505Y-192913D01*
X67706Y-188190D02*
X69505Y-192913D01*
X67706Y-188190D02*
Y-192913D01*
X63432Y-188190D02*
X66356D01*
Y-192913D01*
X63432D01*
X66356Y-190439D02*
X64557D01*
X62420Y-189764D02*
X62645Y-189989D01*
X62420Y-190214D01*
X62195Y-189989D01*
X62420Y-189764D01*
Y-192464D02*
X62645Y-192689D01*
X62420Y-192913D01*
X62195Y-192689D01*
X62420Y-192464D01*
X242627Y-99607D02*
X245551D01*
Y-104331D01*
X242627D01*
X245551Y-101857D02*
X243752D01*
X241840Y-99607D02*
Y-104331D01*
Y-99607D02*
X238691Y-104331D01*
Y-99607D02*
Y-104331D01*
X234013Y-100732D02*
X234238Y-100282D01*
X234687Y-99832D01*
X235137Y-99607D01*
X236037D01*
X236487Y-99832D01*
X236937Y-100282D01*
X237161Y-100732D01*
X237386Y-101407D01*
Y-102531D01*
X237161Y-103206D01*
X236937Y-103656D01*
X236487Y-104106D01*
X236037Y-104331D01*
X235137D01*
X234687Y-104106D01*
X234238Y-103656D01*
X234013Y-103206D01*
Y-102531D01*
X235137D02*
X234013D01*
X232933Y-99607D02*
Y-104331D01*
X231943Y-99607D02*
Y-104331D01*
Y-99607D02*
X228794Y-104331D01*
Y-99607D02*
Y-104331D01*
X224566Y-99607D02*
X227490D01*
Y-104331D01*
X224566D01*
X227490Y-101857D02*
X225690D01*
X220855Y-99607D02*
X223779D01*
Y-104331D01*
X220855D01*
X223779Y-101857D02*
X221979D01*
X220067Y-99607D02*
Y-104331D01*
Y-99607D02*
X218043D01*
X217368Y-99832D01*
X217143Y-100057D01*
X216918Y-100507D01*
Y-100957D01*
X217143Y-101407D01*
X217368Y-101632D01*
X218043Y-101857D01*
X220067D01*
X218493D02*
X216918Y-104331D01*
X215636Y-101182D02*
X215861Y-101407D01*
X215636Y-101632D01*
X215411Y-101407D01*
X215636Y-101182D01*
Y-103881D02*
X215861Y-104106D01*
X215636Y-104331D01*
X215411Y-104106D01*
X215636Y-103881D01*
X95551Y-161137D02*
X93527D01*
X92852Y-160912D01*
X92627Y-160687D01*
X92402Y-160237D01*
Y-159562D01*
X92627Y-159112D01*
X92852Y-158887D01*
X93527Y-158662D01*
X95551D01*
Y-163386D01*
X87746D02*
X89546Y-158662D01*
X91345Y-163386D01*
X90670Y-161811D02*
X88421D01*
X86644Y-158662D02*
Y-163386D01*
Y-158662D02*
X84620D01*
X83945Y-158887D01*
X83720Y-159112D01*
X83495Y-159562D01*
Y-160012D01*
X83720Y-160462D01*
X83945Y-160687D01*
X84620Y-160912D01*
X86644D01*
X85070D02*
X83495Y-163386D01*
X80864Y-158662D02*
Y-163386D01*
X82438Y-158662D02*
X79289D01*
X75016D02*
Y-163386D01*
Y-158662D02*
X71867Y-163386D01*
Y-158662D02*
Y-163386D01*
X69213Y-158662D02*
X69662Y-158887D01*
X70112Y-159337D01*
X70337Y-159787D01*
X70562Y-160462D01*
Y-161586D01*
X70337Y-162261D01*
X70112Y-162711D01*
X69662Y-163161D01*
X69213Y-163386D01*
X68313D01*
X67863Y-163161D01*
X67413Y-162711D01*
X67188Y-162261D01*
X66963Y-161586D01*
Y-160462D01*
X67188Y-159787D01*
X67413Y-159337D01*
X67863Y-158887D01*
X68313Y-158662D01*
X69213D01*
X65636Y-162936D02*
X65861Y-163161D01*
X65636Y-163386D01*
X65411Y-163161D01*
X65636Y-162936D01*
X64152Y-160237D02*
X64377Y-160462D01*
X64152Y-160687D01*
X63927Y-160462D01*
X64152Y-160237D01*
Y-162936D02*
X64377Y-163161D01*
X64152Y-163386D01*
X63927Y-163161D01*
X64152Y-162936D01*
X93977Y-99607D02*
Y-104331D01*
X95551Y-99607D02*
X92402D01*
X91840D02*
Y-104331D01*
X89276Y-99607D02*
Y-104331D01*
X90850Y-99607D02*
X87701D01*
X87139D02*
Y-104331D01*
X84440D01*
X80999Y-99607D02*
X83923D01*
Y-104331D01*
X80999D01*
X83923Y-101857D02*
X82123D01*
X79987Y-101182D02*
X80211Y-101407D01*
X79987Y-101632D01*
X79761Y-101407D01*
X79987Y-101182D01*
Y-103881D02*
X80211Y-104106D01*
X79987Y-104331D01*
X79761Y-104106D01*
X79987Y-103881D01*
X245551Y-131609D02*
X243527D01*
X242852Y-131384D01*
X242627Y-131159D01*
X242402Y-130709D01*
Y-130035D01*
X242627Y-129585D01*
X242852Y-129360D01*
X243527Y-129135D01*
X245551D01*
Y-133858D01*
X237971Y-130260D02*
X238196Y-129810D01*
X238646Y-129360D01*
X239096Y-129135D01*
X239996D01*
X240445Y-129360D01*
X240895Y-129810D01*
X241120Y-130260D01*
X241345Y-130934D01*
Y-132059D01*
X241120Y-132734D01*
X240895Y-133184D01*
X240445Y-133633D01*
X239996Y-133858D01*
X239096D01*
X238646Y-133633D01*
X238196Y-133184D01*
X237971Y-132734D01*
X236644Y-129135D02*
Y-133858D01*
Y-129135D02*
X234620D01*
X233945Y-129360D01*
X233720Y-129585D01*
X233495Y-130035D01*
Y-130484D01*
X233720Y-130934D01*
X233945Y-131159D01*
X234620Y-131384D01*
X236644D02*
X234620D01*
X233945Y-131609D01*
X233720Y-131834D01*
X233495Y-132284D01*
Y-132959D01*
X233720Y-133408D01*
X233945Y-133633D01*
X234620Y-133858D01*
X236644D01*
X228727Y-129135D02*
Y-133858D01*
Y-129135D02*
X227152D01*
X226478Y-129360D01*
X226028Y-129810D01*
X225803Y-130260D01*
X225578Y-130934D01*
Y-132059D01*
X225803Y-132734D01*
X226028Y-133184D01*
X226478Y-133633D01*
X227152Y-133858D01*
X228727D01*
X221597Y-129135D02*
X224521D01*
Y-133858D01*
X221597D01*
X224521Y-131384D02*
X222721D01*
X217661Y-129810D02*
X218110Y-129360D01*
X218785Y-129135D01*
X219685D01*
X220360Y-129360D01*
X220810Y-129810D01*
Y-130260D01*
X220585Y-130709D01*
X220360Y-130934D01*
X219910Y-131159D01*
X218560Y-131609D01*
X218110Y-131834D01*
X217886Y-132059D01*
X217661Y-132509D01*
Y-133184D01*
X218110Y-133633D01*
X218785Y-133858D01*
X219685D01*
X220360Y-133633D01*
X220810Y-133184D01*
X216603Y-129135D02*
Y-133858D01*
X212240Y-130260D02*
X212465Y-129810D01*
X212915Y-129360D01*
X213365Y-129135D01*
X214264D01*
X214714Y-129360D01*
X215164Y-129810D01*
X215389Y-130260D01*
X215614Y-130934D01*
Y-132059D01*
X215389Y-132734D01*
X215164Y-133184D01*
X214714Y-133633D01*
X214264Y-133858D01*
X213365D01*
X212915Y-133633D01*
X212465Y-133184D01*
X212240Y-132734D01*
Y-132059D01*
X213365D02*
X212240D01*
X211160Y-129135D02*
Y-133858D01*
Y-129135D02*
X208011Y-133858D01*
Y-129135D02*
Y-133858D01*
X203783Y-129135D02*
X206707D01*
Y-133858D01*
X203783D01*
X206707Y-131384D02*
X204907D01*
X202996Y-129135D02*
Y-133858D01*
Y-129135D02*
X200971D01*
X200297Y-129360D01*
X200072Y-129585D01*
X199847Y-130035D01*
Y-130484D01*
X200072Y-130934D01*
X200297Y-131159D01*
X200971Y-131384D01*
X202996D01*
X201421D02*
X199847Y-133858D01*
X198565Y-130709D02*
X198790Y-130934D01*
X198565Y-131159D01*
X198340Y-130934D01*
X198565Y-130709D01*
Y-133408D02*
X198790Y-133633D01*
X198565Y-133858D01*
X198340Y-133633D01*
X198565Y-133408D01*
X242402Y-188865D02*
X242852Y-188415D01*
X243527Y-188190D01*
X244427D01*
X245101Y-188415D01*
X245551Y-188865D01*
Y-189315D01*
X245326Y-189764D01*
X245101Y-189989D01*
X244652Y-190214D01*
X243302Y-190664D01*
X242852Y-190889D01*
X242627Y-191114D01*
X242402Y-191564D01*
Y-192239D01*
X242852Y-192689D01*
X243527Y-192913D01*
X244427D01*
X245101Y-192689D01*
X245551Y-192239D01*
X241345Y-188190D02*
X239546Y-192913D01*
X237746Y-188190D02*
X239546Y-192913D01*
X237139Y-188190D02*
Y-192913D01*
Y-188190D02*
X233990Y-192913D01*
Y-188190D02*
Y-192913D01*
X228974Y-188190D02*
Y-192913D01*
Y-188190D02*
X226950D01*
X226275Y-188415D01*
X226050Y-188640D01*
X225825Y-189090D01*
Y-189540D01*
X226050Y-189989D01*
X226275Y-190214D01*
X226950Y-190439D01*
X228974D01*
X227400D02*
X225825Y-192913D01*
X221844Y-188190D02*
X224768D01*
Y-192913D01*
X221844D01*
X224768Y-190439D02*
X222969D01*
X221057Y-188190D02*
X219258Y-192913D01*
X217458Y-188190D02*
X219258Y-192913D01*
X216851Y-188190D02*
Y-192913D01*
X212712Y-188865D02*
X213162Y-188415D01*
X213837Y-188190D01*
X214737D01*
X215411Y-188415D01*
X215861Y-188865D01*
Y-189315D01*
X215636Y-189764D01*
X215411Y-189989D01*
X214962Y-190214D01*
X213612Y-190664D01*
X213162Y-190889D01*
X212937Y-191114D01*
X212712Y-191564D01*
Y-192239D01*
X213162Y-192689D01*
X213837Y-192913D01*
X214737D01*
X215411Y-192689D01*
X215861Y-192239D01*
X211655Y-188190D02*
Y-192913D01*
X209316Y-188190D02*
X209766Y-188415D01*
X210216Y-188865D01*
X210441Y-189315D01*
X210665Y-189989D01*
Y-191114D01*
X210441Y-191789D01*
X210216Y-192239D01*
X209766Y-192689D01*
X209316Y-192913D01*
X208416D01*
X207966Y-192689D01*
X207517Y-192239D01*
X207292Y-191789D01*
X207067Y-191114D01*
Y-189989D01*
X207292Y-189315D01*
X207517Y-188865D01*
X207966Y-188415D01*
X208416Y-188190D01*
X209316D01*
X205965D02*
Y-192913D01*
Y-188190D02*
X202816Y-192913D01*
Y-188190D02*
Y-192913D01*
X201286Y-189764D02*
X201511Y-189989D01*
X201286Y-190214D01*
X201061Y-189989D01*
X201286Y-189764D01*
Y-192464D02*
X201511Y-192689D01*
X201286Y-192913D01*
X201061Y-192689D01*
X201286Y-192464D01*
X-155354Y-188865D02*
X-154904Y-188415D01*
X-154229Y-188190D01*
X-153329D01*
X-152655Y-188415D01*
X-152205Y-188865D01*
Y-189315D01*
X-152430Y-189764D01*
X-152655Y-189989D01*
X-153104Y-190214D01*
X-154454Y-190664D01*
X-154904Y-190889D01*
X-155129Y-191114D01*
X-155354Y-191564D01*
Y-192239D01*
X-154904Y-192689D01*
X-154229Y-192913D01*
X-153329D01*
X-152655Y-192689D01*
X-152205Y-192239D01*
X-159785Y-189315D02*
X-159560Y-188865D01*
X-159110Y-188415D01*
X-158660Y-188190D01*
X-157760D01*
X-157310Y-188415D01*
X-156861Y-188865D01*
X-156636Y-189315D01*
X-156411Y-189989D01*
Y-191114D01*
X-156636Y-191789D01*
X-156861Y-192239D01*
X-157310Y-192689D01*
X-157760Y-192913D01*
X-158660D01*
X-159110Y-192689D01*
X-159560Y-192239D01*
X-159785Y-191789D01*
X-164710Y-192913D02*
X-162911Y-188190D01*
X-161112Y-192913D01*
X-161786Y-191339D02*
X-164036D01*
X-165813Y-188190D02*
Y-192913D01*
X-168512D01*
X-171953Y-188190D02*
X-169029D01*
Y-192913D01*
X-171953D01*
X-169029Y-190439D02*
X-170828D01*
X-172965Y-189764D02*
X-172740Y-189989D01*
X-172965Y-190214D01*
X-173190Y-189989D01*
X-172965Y-189764D01*
Y-192464D02*
X-172740Y-192689D01*
X-172965Y-192913D01*
X-173190Y-192689D01*
X-172965Y-192464D01*
X245659Y-219151D02*
X245827Y-218814D01*
X246165Y-218477D01*
X246502Y-218308D01*
X247177D01*
X247514Y-218477D01*
X247852Y-218814D01*
X248020Y-219151D01*
X248189Y-219657D01*
Y-220501D01*
X248020Y-221007D01*
X247852Y-221344D01*
X247514Y-221682D01*
X247177Y-221850D01*
X246502D01*
X246165Y-221682D01*
X245827Y-221344D01*
X245659Y-221007D01*
X241496Y-218842D02*
Y-218617D01*
X241271Y-218167D01*
X241046Y-217943D01*
X240596Y-217718D01*
X239697D01*
X239247Y-217943D01*
X239022Y-218167D01*
X238797Y-218617D01*
Y-219067D01*
X239022Y-219517D01*
X239247Y-219742D01*
X240146Y-220192D01*
Y-220866D01*
Y-221991D02*
X240371Y-222216D01*
X240146Y-222441D01*
X239922Y-222216D01*
X240146Y-221991D01*
X234074Y-217718D02*
Y-222441D01*
X233084Y-219292D02*
Y-222441D01*
Y-220192D02*
X232409Y-219517D01*
X231959Y-219292D01*
X231284D01*
X230835Y-219517D01*
X230610Y-220192D01*
Y-222441D01*
X227573Y-217718D02*
X228023D01*
X228473Y-217943D01*
X228698Y-218617D01*
Y-222441D01*
X229373Y-219292D02*
X227798D01*
X226449Y-217718D02*
X226224Y-217943D01*
X225999Y-217718D01*
X226224Y-217493D01*
X226449Y-217718D01*
X226224Y-219292D02*
Y-222441D01*
X225167Y-219292D02*
Y-222441D01*
Y-220192D02*
X224492Y-219517D01*
X224042Y-219292D01*
X223367D01*
X222917Y-219517D01*
X222692Y-220192D01*
Y-222441D01*
X221455Y-220642D02*
X218756D01*
Y-220192D01*
X218981Y-219742D01*
X219206Y-219517D01*
X219656Y-219292D01*
X220331D01*
X220781Y-219517D01*
X221231Y-219967D01*
X221455Y-220642D01*
Y-221091D01*
X221231Y-221766D01*
X220781Y-222216D01*
X220331Y-222441D01*
X219656D01*
X219206Y-222216D01*
X218756Y-221766D01*
X216619Y-219292D02*
X217069Y-219517D01*
X217519Y-219967D01*
X217744Y-220642D01*
Y-221091D01*
X217519Y-221766D01*
X217069Y-222216D01*
X216619Y-222441D01*
X215945D01*
X215495Y-222216D01*
X215045Y-221766D01*
X214820Y-221091D01*
Y-220642D01*
X215045Y-219967D01*
X215495Y-219517D01*
X215945Y-219292D01*
X216619D01*
X213786D02*
Y-222441D01*
Y-220192D02*
X213111Y-219517D01*
X212661Y-219292D01*
X211986D01*
X211536Y-219517D01*
X211311Y-220192D01*
Y-222441D01*
X204788Y-217718D02*
Y-222441D01*
X206363Y-217718D02*
X203214D01*
X202652Y-220642D02*
X199953D01*
Y-220192D01*
X200178Y-219742D01*
X200402Y-219517D01*
X200852Y-219292D01*
X201527D01*
X201977Y-219517D01*
X202427Y-219967D01*
X202652Y-220642D01*
Y-221091D01*
X202427Y-221766D01*
X201977Y-222216D01*
X201527Y-222441D01*
X200852D01*
X200402Y-222216D01*
X199953Y-221766D01*
X196241Y-219967D02*
X196691Y-219517D01*
X197141Y-219292D01*
X197816D01*
X198266Y-219517D01*
X198716Y-219967D01*
X198941Y-220642D01*
Y-221091D01*
X198716Y-221766D01*
X198266Y-222216D01*
X197816Y-222441D01*
X197141D01*
X196691Y-222216D01*
X196241Y-221766D01*
X195229Y-217718D02*
Y-222441D01*
Y-220192D02*
X194554Y-219517D01*
X194105Y-219292D01*
X193430D01*
X192980Y-219517D01*
X192755Y-220192D01*
Y-222441D01*
X191518Y-219292D02*
Y-222441D01*
Y-220192D02*
X190843Y-219517D01*
X190393Y-219292D01*
X189719D01*
X189269Y-219517D01*
X189044Y-220192D01*
Y-222441D01*
X186682Y-219292D02*
X187132Y-219517D01*
X187582Y-219967D01*
X187807Y-220642D01*
Y-221091D01*
X187582Y-221766D01*
X187132Y-222216D01*
X186682Y-222441D01*
X186007D01*
X185557Y-222216D01*
X185108Y-221766D01*
X184883Y-221091D01*
Y-220642D01*
X185108Y-219967D01*
X185557Y-219517D01*
X186007Y-219292D01*
X186682D01*
X183848Y-217718D02*
Y-222441D01*
X181734Y-219292D02*
X182184Y-219517D01*
X182633Y-219967D01*
X182859Y-220642D01*
Y-221091D01*
X182633Y-221766D01*
X182184Y-222216D01*
X181734Y-222441D01*
X181059D01*
X180609Y-222216D01*
X180159Y-221766D01*
X179935Y-221091D01*
Y-220642D01*
X180159Y-219967D01*
X180609Y-219517D01*
X181059Y-219292D01*
X181734D01*
X176201D02*
Y-222891D01*
X176426Y-223566D01*
X176651Y-223791D01*
X177100Y-224015D01*
X177775D01*
X178225Y-223791D01*
X176201Y-219967D02*
X176651Y-219517D01*
X177100Y-219292D01*
X177775D01*
X178225Y-219517D01*
X178675Y-219967D01*
X178900Y-220642D01*
Y-221091D01*
X178675Y-221766D01*
X178225Y-222216D01*
X177775Y-222441D01*
X177100D01*
X176651Y-222216D01*
X176201Y-221766D01*
X174491Y-217718D02*
X174266Y-217943D01*
X174041Y-217718D01*
X174266Y-217493D01*
X174491Y-217718D01*
X174266Y-219292D02*
Y-222441D01*
X173209Y-220642D02*
X170510D01*
Y-220192D01*
X170735Y-219742D01*
X170960Y-219517D01*
X171410Y-219292D01*
X172085D01*
X172535Y-219517D01*
X172984Y-219967D01*
X173209Y-220642D01*
Y-221091D01*
X172984Y-221766D01*
X172535Y-222216D01*
X172085Y-222441D01*
X171410D01*
X170960Y-222216D01*
X170510Y-221766D01*
X167024Y-219967D02*
X167249Y-219517D01*
X167923Y-219292D01*
X168598D01*
X169273Y-219517D01*
X169498Y-219967D01*
X169273Y-220417D01*
X168823Y-220642D01*
X167699Y-220866D01*
X167249Y-221091D01*
X167024Y-221541D01*
Y-221766D01*
X167249Y-222216D01*
X167923Y-222441D01*
X168598D01*
X169273Y-222216D01*
X169498Y-221766D01*
X158724Y-222441D02*
X160523Y-217718D01*
X162323Y-222441D01*
X161648Y-220866D02*
X159399D01*
X154248Y-218842D02*
X154473Y-218392D01*
X154923Y-217943D01*
X155373Y-217718D01*
X156272D01*
X156722Y-217943D01*
X157172Y-218392D01*
X157397Y-218842D01*
X157622Y-219517D01*
Y-220642D01*
X157397Y-221316D01*
X157172Y-221766D01*
X156722Y-222216D01*
X156272Y-222441D01*
X155373D01*
X154923Y-222216D01*
X154473Y-221766D01*
X154248Y-221316D01*
Y-220642D01*
X155373D02*
X154248D01*
X149232Y-218842D02*
Y-218617D01*
X149007Y-218167D01*
X148783Y-217943D01*
X148333Y-217718D01*
X147433D01*
X146983Y-217943D01*
X146758Y-218167D01*
X146533Y-218617D01*
Y-219067D01*
X146758Y-219517D01*
X147208Y-220192D01*
X149457Y-222441D01*
X146308D01*
X143902Y-217718D02*
X144576Y-217943D01*
X145026Y-218617D01*
X145251Y-219742D01*
Y-220417D01*
X145026Y-221541D01*
X144576Y-222216D01*
X143902Y-222441D01*
X143452D01*
X142777Y-222216D01*
X142327Y-221541D01*
X142102Y-220417D01*
Y-219742D01*
X142327Y-218617D01*
X142777Y-217943D01*
X143452Y-217718D01*
X143902D01*
X140820Y-218842D02*
Y-218617D01*
X140595Y-218167D01*
X140370Y-217943D01*
X139920Y-217718D01*
X139021D01*
X138571Y-217943D01*
X138346Y-218167D01*
X138121Y-218617D01*
Y-219067D01*
X138346Y-219517D01*
X138796Y-220192D01*
X141045Y-222441D01*
X137896D01*
X136839Y-218617D02*
X136389Y-218392D01*
X135714Y-217718D01*
Y-222441D01*
X133150Y-221991D02*
X133375Y-222216D01*
X133150Y-222441D01*
X132925Y-222216D01*
X133150Y-221991D01*
X124581Y-222441D02*
X126380Y-217718D01*
X128180Y-222441D01*
X127505Y-220866D02*
X125256D01*
X123479Y-217718D02*
Y-222441D01*
X122489Y-217718D02*
Y-222441D01*
X117788Y-217718D02*
Y-222441D01*
Y-217718D02*
X115764D01*
X115089Y-217943D01*
X114864Y-218167D01*
X114639Y-218617D01*
Y-219067D01*
X114864Y-219517D01*
X115089Y-219742D01*
X115764Y-219967D01*
X117788D01*
X116214D02*
X114639Y-222441D01*
X113132Y-217718D02*
X112907Y-217943D01*
X112682Y-217718D01*
X112907Y-217493D01*
X113132Y-217718D01*
X112907Y-219292D02*
Y-222441D01*
X109151Y-219292D02*
Y-222891D01*
X109376Y-223566D01*
X109601Y-223791D01*
X110051Y-224015D01*
X110725D01*
X111175Y-223791D01*
X109151Y-219967D02*
X109601Y-219517D01*
X110051Y-219292D01*
X110725D01*
X111175Y-219517D01*
X111625Y-219967D01*
X111850Y-220642D01*
Y-221091D01*
X111625Y-221766D01*
X111175Y-222216D01*
X110725Y-222441D01*
X110051D01*
X109601Y-222216D01*
X109151Y-221766D01*
X107891Y-217718D02*
Y-222441D01*
Y-220192D02*
X107217Y-219517D01*
X106767Y-219292D01*
X106092D01*
X105642Y-219517D01*
X105417Y-220192D01*
Y-222441D01*
X103505Y-217718D02*
Y-221541D01*
X103280Y-222216D01*
X102831Y-222441D01*
X102381D01*
X104180Y-219292D02*
X102606D01*
X99232Y-219967D02*
X99457Y-219517D01*
X100131Y-219292D01*
X100806D01*
X101481Y-219517D01*
X101706Y-219967D01*
X101481Y-220417D01*
X101031Y-220642D01*
X99907Y-220866D01*
X99457Y-221091D01*
X99232Y-221541D01*
Y-221766D01*
X99457Y-222216D01*
X100131Y-222441D01*
X100806D01*
X101481Y-222216D01*
X101706Y-221766D01*
X94531Y-217718D02*
Y-222441D01*
Y-217718D02*
X92507D01*
X91832Y-217943D01*
X91607Y-218167D01*
X91382Y-218617D01*
Y-219067D01*
X91607Y-219517D01*
X91832Y-219742D01*
X92507Y-219967D01*
X94531D01*
X92957D02*
X91382Y-222441D01*
X90325Y-220642D02*
X87626D01*
Y-220192D01*
X87851Y-219742D01*
X88076Y-219517D01*
X88525Y-219292D01*
X89200D01*
X89650Y-219517D01*
X90100Y-219967D01*
X90325Y-220642D01*
Y-221091D01*
X90100Y-221766D01*
X89650Y-222216D01*
X89200Y-222441D01*
X88525D01*
X88076Y-222216D01*
X87626Y-221766D01*
X84140Y-219967D02*
X84364Y-219517D01*
X85039Y-219292D01*
X85714D01*
X86389Y-219517D01*
X86614Y-219967D01*
X86389Y-220417D01*
X85939Y-220642D01*
X84814Y-220866D01*
X84364Y-221091D01*
X84140Y-221541D01*
Y-221766D01*
X84364Y-222216D01*
X85039Y-222441D01*
X85714D01*
X86389Y-222216D01*
X86614Y-221766D01*
X83150Y-220642D02*
X80451D01*
Y-220192D01*
X80676Y-219742D01*
X80901Y-219517D01*
X81350Y-219292D01*
X82025D01*
X82475Y-219517D01*
X82925Y-219967D01*
X83150Y-220642D01*
Y-221091D01*
X82925Y-221766D01*
X82475Y-222216D01*
X82025Y-222441D01*
X81350D01*
X80901Y-222216D01*
X80451Y-221766D01*
X79439Y-219292D02*
Y-222441D01*
Y-220642D02*
X79214Y-219967D01*
X78764Y-219517D01*
X78314Y-219292D01*
X77639D01*
X77212D02*
X75862Y-222441D01*
X74513Y-219292D02*
X75862Y-222441D01*
X73748Y-220642D02*
X71049D01*
Y-220192D01*
X71274Y-219742D01*
X71499Y-219517D01*
X71949Y-219292D01*
X72623D01*
X73073Y-219517D01*
X73523Y-219967D01*
X73748Y-220642D01*
Y-221091D01*
X73523Y-221766D01*
X73073Y-222216D01*
X72623Y-222441D01*
X71949D01*
X71499Y-222216D01*
X71049Y-221766D01*
X67338Y-217718D02*
Y-222441D01*
Y-219967D02*
X67787Y-219517D01*
X68237Y-219292D01*
X68912D01*
X69362Y-219517D01*
X69812Y-219967D01*
X70037Y-220642D01*
Y-221091D01*
X69812Y-221766D01*
X69362Y-222216D01*
X68912Y-222441D01*
X68237D01*
X67787Y-222216D01*
X67338Y-221766D01*
X65853Y-221991D02*
X66078Y-222216D01*
X65853Y-222441D01*
X65628Y-222216D01*
X65853Y-221991D01*
D97*
X235498Y-151575D02*
X238497Y-143702D01*
X241496Y-151575D01*
X240371Y-148951D02*
X236623D01*
X229163Y-143702D02*
Y-151575D01*
Y-147451D02*
X229912Y-146702D01*
X230662Y-146327D01*
X231787D01*
X232537Y-146702D01*
X233286Y-147451D01*
X233661Y-148576D01*
Y-149326D01*
X233286Y-150450D01*
X232537Y-151200D01*
X231787Y-151575D01*
X230662D01*
X229912Y-151200D01*
X229163Y-150450D01*
X227063Y-146327D02*
Y-151575D01*
Y-148576D02*
X226689Y-147451D01*
X225939Y-146702D01*
X225189Y-146327D01*
X224064D01*
X222603Y-143702D02*
X222228Y-144077D01*
X221853Y-143702D01*
X222228Y-143328D01*
X222603Y-143702D01*
X222228Y-146327D02*
Y-151575D01*
X215967Y-146327D02*
Y-151575D01*
Y-147451D02*
X216717Y-146702D01*
X217467Y-146327D01*
X218591D01*
X219341Y-146702D01*
X220091Y-147451D01*
X220466Y-148576D01*
Y-149326D01*
X220091Y-150450D01*
X219341Y-151200D01*
X218591Y-151575D01*
X217467D01*
X216717Y-151200D01*
X215967Y-150450D01*
X213868Y-146327D02*
Y-151575D01*
Y-147826D02*
X212743Y-146702D01*
X211994Y-146327D01*
X210869D01*
X210119Y-146702D01*
X209744Y-147826D01*
Y-151575D01*
X201497Y-143702D02*
Y-151575D01*
X196249Y-143702D02*
X201497Y-148951D01*
X199623Y-147076D02*
X196249Y-151575D01*
X194487Y-148576D02*
X189989D01*
Y-147826D01*
X190363Y-147076D01*
X190738Y-146702D01*
X191488Y-146327D01*
X192613D01*
X193362Y-146702D01*
X194112Y-147451D01*
X194487Y-148576D01*
Y-149326D01*
X194112Y-150450D01*
X193362Y-151200D01*
X192613Y-151575D01*
X191488D01*
X190738Y-151200D01*
X189989Y-150450D01*
X187552Y-143702D02*
X187177Y-144077D01*
X186802Y-143702D01*
X187177Y-143328D01*
X187552Y-143702D01*
X187177Y-146327D02*
Y-151575D01*
X185415Y-143702D02*
Y-151575D01*
X-164016Y-200320D02*
X-164766Y-199945D01*
X-165890Y-198821D01*
Y-206693D01*
X-170164Y-201445D02*
X-169789Y-201820D01*
X-170164Y-202194D01*
X-170538Y-201820D01*
X-170164Y-201445D01*
Y-205943D02*
X-169789Y-206318D01*
X-170164Y-206693D01*
X-170538Y-206318D01*
X-170164Y-205943D01*
X-172263Y-200320D02*
X-173013Y-199945D01*
X-174137Y-198821D01*
Y-206693D01*
X-156142Y-171262D02*
X-159141Y-179134D01*
X-162140Y-171262D02*
X-159141Y-179134D01*
X-163152Y-172761D02*
X-163902Y-172386D01*
X-165026Y-171262D01*
Y-179134D01*
X-169300Y-178384D02*
X-168925Y-178759D01*
X-169300Y-179134D01*
X-169675Y-178759D01*
X-169300Y-178384D01*
X-171774Y-173136D02*
Y-172761D01*
X-172149Y-172011D01*
X-172524Y-171636D01*
X-173273Y-171262D01*
X-174773D01*
X-175523Y-171636D01*
X-175898Y-172011D01*
X-176272Y-172761D01*
Y-173511D01*
X-175898Y-174260D01*
X-175148Y-175385D01*
X-171399Y-179134D01*
X-176647D01*
X-104961Y-171262D02*
Y-179134D01*
Y-171262D02*
X-108335D01*
X-109459Y-171636D01*
X-109834Y-172011D01*
X-110209Y-172761D01*
Y-173511D01*
X-109834Y-174260D01*
X-109459Y-174635D01*
X-108335Y-175010D01*
X-104961D01*
X-107585D02*
X-110209Y-179134D01*
X-117594Y-173136D02*
X-117219Y-172386D01*
X-116469Y-171636D01*
X-115719Y-171262D01*
X-114220D01*
X-113470Y-171636D01*
X-112721Y-172386D01*
X-112346Y-173136D01*
X-111971Y-174260D01*
Y-176135D01*
X-112346Y-177260D01*
X-112721Y-178009D01*
X-113470Y-178759D01*
X-114220Y-179134D01*
X-115719D01*
X-116469Y-178759D01*
X-117219Y-178009D01*
X-117594Y-177260D01*
X-122055Y-171262D02*
X-120930Y-171636D01*
X-120180Y-172761D01*
X-119806Y-174635D01*
Y-175760D01*
X-120180Y-177634D01*
X-120930Y-178759D01*
X-122055Y-179134D01*
X-122805D01*
X-123929Y-178759D01*
X-124679Y-177634D01*
X-125054Y-175760D01*
Y-174635D01*
X-124679Y-172761D01*
X-123929Y-171636D01*
X-122805Y-171262D01*
X-122055D01*
X-126816Y-172761D02*
X-127566Y-172386D01*
X-128690Y-171262D01*
Y-179134D01*
X422494Y-202758D02*
X423618Y-203133D01*
X423993Y-203882D01*
Y-204632D01*
X423618Y-205382D01*
X422869Y-205757D01*
X421369Y-206131D01*
X420245Y-206506D01*
X419495Y-207256D01*
X419120Y-208006D01*
Y-209130D01*
X419495Y-209880D01*
X419870Y-210255D01*
X420994Y-210630D01*
X422494D01*
X423618Y-210255D01*
X423993Y-209880D01*
X424368Y-209130D01*
Y-208006D01*
X423993Y-207256D01*
X423244Y-206506D01*
X422119Y-206131D01*
X420619Y-205757D01*
X419870Y-205382D01*
X419495Y-204632D01*
Y-203882D01*
X419870Y-203133D01*
X420994Y-202758D01*
X422494D01*
X412860D02*
X416608D01*
X416983Y-206131D01*
X416608Y-205757D01*
X415484Y-205382D01*
X414359D01*
X413234Y-205757D01*
X412485Y-206506D01*
X412110Y-207631D01*
Y-208381D01*
X412485Y-209505D01*
X413234Y-210255D01*
X414359Y-210630D01*
X415484D01*
X416608Y-210255D01*
X416983Y-209880D01*
X417358Y-209130D01*
X405849Y-202758D02*
X409598D01*
X409973Y-206131D01*
X409598Y-205757D01*
X408473Y-205382D01*
X407349D01*
X406224Y-205757D01*
X405475Y-206506D01*
X405100Y-207631D01*
Y-208381D01*
X405475Y-209505D01*
X406224Y-210255D01*
X407349Y-210630D01*
X408473D01*
X409598Y-210255D01*
X409973Y-209880D01*
X410348Y-209130D01*
X398090Y-202758D02*
X401838Y-210630D01*
X403338Y-202758D02*
X398090D01*
X391454Y-205382D02*
X391829Y-206506D01*
X392579Y-207256D01*
X393704Y-207631D01*
X394078D01*
X395203Y-207256D01*
X395953Y-206506D01*
X396328Y-205382D01*
Y-205007D01*
X395953Y-203882D01*
X395203Y-203133D01*
X394078Y-202758D01*
X393704D01*
X392579Y-203133D01*
X391829Y-203882D01*
X391454Y-205382D01*
Y-207256D01*
X391829Y-209130D01*
X392579Y-210255D01*
X393704Y-210630D01*
X394453D01*
X395578Y-210255D01*
X395953Y-209505D01*
X383132Y-202758D02*
Y-210630D01*
Y-202758D02*
X377884Y-210630D01*
Y-202758D02*
Y-210630D01*
X370836Y-202758D02*
X375710D01*
Y-210630D01*
X370836D01*
X375710Y-206506D02*
X372711D01*
X369524Y-202758D02*
Y-208381D01*
X369149Y-209505D01*
X368400Y-210255D01*
X367275Y-210630D01*
X366525D01*
X365401Y-210255D01*
X364651Y-209505D01*
X364276Y-208381D01*
Y-202758D01*
X362102D02*
Y-210630D01*
Y-202758D02*
X358728D01*
X357603Y-203133D01*
X357228Y-203507D01*
X356854Y-204257D01*
Y-205007D01*
X357228Y-205757D01*
X357603Y-206131D01*
X358728Y-206506D01*
X362102D02*
X358728D01*
X357603Y-206881D01*
X357228Y-207256D01*
X356854Y-208006D01*
Y-209130D01*
X357228Y-209880D01*
X357603Y-210255D01*
X358728Y-210630D01*
X362102D01*
X355092Y-202758D02*
Y-210630D01*
X353442Y-202758D02*
Y-210630D01*
Y-202758D02*
X350068D01*
X348944Y-203133D01*
X348569Y-203507D01*
X348194Y-204257D01*
Y-205007D01*
X348569Y-205757D01*
X348944Y-206131D01*
X350068Y-206506D01*
X353442D02*
X350068D01*
X348944Y-206881D01*
X348569Y-207256D01*
X348194Y-208006D01*
Y-209130D01*
X348569Y-209880D01*
X348944Y-210255D01*
X350068Y-210630D01*
X353442D01*
X341559Y-202758D02*
X346432D01*
Y-210630D01*
X341559D01*
X346432Y-206506D02*
X343433D01*
X340247Y-202758D02*
Y-210630D01*
Y-202758D02*
X336873D01*
X335748Y-203133D01*
X335373Y-203507D01*
X334998Y-204257D01*
Y-205007D01*
X335373Y-205757D01*
X335748Y-206131D01*
X336873Y-206506D01*
X340247D01*
X337622D02*
X334998Y-210630D01*
X327613Y-204632D02*
X327988Y-203882D01*
X328738Y-203133D01*
X329488Y-202758D01*
X330987D01*
X331737Y-203133D01*
X332487Y-203882D01*
X332862Y-204632D01*
X333237Y-205757D01*
Y-207631D01*
X332862Y-208756D01*
X332487Y-209505D01*
X331737Y-210255D01*
X330987Y-210630D01*
X329488D01*
X328738Y-210255D01*
X327988Y-209505D01*
X327613Y-208756D01*
Y-207631D01*
X329488D02*
X327613D01*
X319629Y-207256D02*
X312881D01*
X298748Y-204632D02*
X299123Y-203882D01*
X299873Y-203133D01*
X300623Y-202758D01*
X302122D01*
X302872Y-203133D01*
X303622Y-203882D01*
X303996Y-204632D01*
X304371Y-205757D01*
Y-207631D01*
X303996Y-208756D01*
X303622Y-209505D01*
X302872Y-210255D01*
X302122Y-210630D01*
X300623D01*
X299873Y-210255D01*
X299123Y-209505D01*
X298748Y-208756D01*
Y-207631D01*
X300623D02*
X298748D01*
X292075Y-202758D02*
X296949D01*
Y-210630D01*
X292075D01*
X296949Y-206506D02*
X293950D01*
X290763Y-202758D02*
Y-210630D01*
Y-202758D02*
X287389D01*
X286265Y-203133D01*
X285890Y-203507D01*
X285515Y-204257D01*
Y-205007D01*
X285890Y-205757D01*
X286265Y-206131D01*
X287389Y-206506D01*
X290763D01*
X288139D02*
X285515Y-210630D01*
X283753Y-202758D02*
Y-210630D01*
Y-202758D02*
X280754Y-210630D01*
X277755Y-202758D02*
X280754Y-210630D01*
X277755Y-202758D02*
Y-210630D01*
X269508D02*
X272507Y-202758D01*
X275506Y-210630D01*
X274381Y-208006D02*
X270633D01*
X267671Y-202758D02*
Y-210630D01*
Y-202758D02*
X262423Y-210630D01*
Y-202758D02*
Y-210630D01*
X260249Y-202758D02*
X257250Y-206506D01*
Y-210630D01*
X254251Y-202758D02*
X257250Y-206506D01*
X386656Y-198819D02*
X389655Y-190947D01*
X392654Y-198819D01*
X391529Y-196195D02*
X387780D01*
X384819Y-193571D02*
Y-198819D01*
Y-195070D02*
X383694Y-193946D01*
X382945Y-193571D01*
X381820D01*
X381070Y-193946D01*
X380695Y-195070D01*
Y-198819D01*
Y-195070D02*
X379571Y-193946D01*
X378821Y-193571D01*
X377696D01*
X376947Y-193946D01*
X376572Y-195070D01*
Y-198819D01*
X362289Y-192821D02*
X362664Y-192071D01*
X363414Y-191322D01*
X364163Y-190947D01*
X365663D01*
X366413Y-191322D01*
X367162Y-192071D01*
X367537Y-192821D01*
X367912Y-193946D01*
Y-195820D01*
X367537Y-196944D01*
X367162Y-197694D01*
X366413Y-198444D01*
X365663Y-198819D01*
X364163D01*
X363414Y-198444D01*
X362664Y-197694D01*
X362289Y-196944D01*
X355579Y-193571D02*
Y-198819D01*
Y-194695D02*
X356329Y-193946D01*
X357078Y-193571D01*
X358203D01*
X358953Y-193946D01*
X359702Y-194695D01*
X360077Y-195820D01*
Y-196570D01*
X359702Y-197694D01*
X358953Y-198444D01*
X358203Y-198819D01*
X357078D01*
X356329Y-198444D01*
X355579Y-197694D01*
X353480Y-193571D02*
Y-198819D01*
Y-195070D02*
X352355Y-193946D01*
X351605Y-193571D01*
X350481D01*
X349731Y-193946D01*
X349356Y-195070D01*
Y-198819D01*
Y-195070D02*
X348231Y-193946D01*
X347482Y-193571D01*
X346357D01*
X345607Y-193946D01*
X345232Y-195070D01*
Y-198819D01*
X342758Y-193571D02*
Y-201443D01*
Y-194695D02*
X342008Y-193946D01*
X341259Y-193571D01*
X340134D01*
X339384Y-193946D01*
X338635Y-194695D01*
X338260Y-195820D01*
Y-196570D01*
X338635Y-197694D01*
X339384Y-198444D01*
X340134Y-198819D01*
X341259D01*
X342008Y-198444D01*
X342758Y-197694D01*
X336573Y-195820D02*
X332074D01*
Y-195070D01*
X332449Y-194320D01*
X332824Y-193946D01*
X333574Y-193571D01*
X334699D01*
X335448Y-193946D01*
X336198Y-194695D01*
X336573Y-195820D01*
Y-196570D01*
X336198Y-197694D01*
X335448Y-198444D01*
X334699Y-198819D01*
X333574D01*
X332824Y-198444D01*
X332074Y-197694D01*
X328513Y-193571D02*
X329263Y-193946D01*
X330013Y-194695D01*
X330387Y-195820D01*
Y-196570D01*
X330013Y-197694D01*
X329263Y-198444D01*
X328513Y-198819D01*
X327389D01*
X326639Y-198444D01*
X325889Y-197694D01*
X325514Y-196570D01*
Y-195820D01*
X325889Y-194695D01*
X326639Y-193946D01*
X327389Y-193571D01*
X328513D01*
X323790D02*
Y-198819D01*
Y-195070D02*
X322665Y-193946D01*
X321915Y-193571D01*
X320791D01*
X320041Y-193946D01*
X319666Y-195070D01*
Y-198819D01*
X311419Y-192446D02*
X310669Y-192071D01*
X309544Y-190947D01*
Y-198819D01*
X305646Y-195445D02*
X298898D01*
X296574Y-192446D02*
X295824Y-192071D01*
X294700Y-190947D01*
Y-198819D01*
X290426Y-192821D02*
Y-192446D01*
X290051Y-191696D01*
X289676Y-191322D01*
X288927Y-190947D01*
X287427D01*
X286677Y-191322D01*
X286302Y-191696D01*
X285928Y-192446D01*
Y-193196D01*
X286302Y-193946D01*
X287052Y-195070D01*
X290801Y-198819D01*
X285553D01*
X371417Y-179136D02*
Y-187008D01*
X369768Y-179136D02*
Y-187008D01*
Y-179136D02*
X364895D01*
X369768Y-182884D02*
X366769D01*
X357997Y-187008D02*
X360996Y-179136D01*
X363995Y-187008D01*
X362870Y-184384D02*
X359121D01*
X350537Y-181010D02*
X350912Y-180260D01*
X351661Y-179510D01*
X352411Y-179136D01*
X353911D01*
X354661Y-179510D01*
X355410Y-180260D01*
X355785Y-181010D01*
X356160Y-182134D01*
Y-184009D01*
X355785Y-185134D01*
X355410Y-185883D01*
X354661Y-186633D01*
X353911Y-187008D01*
X352411D01*
X351661Y-186633D01*
X350912Y-185883D01*
X350537Y-185134D01*
Y-184009D01*
X352411D02*
X350537D01*
X342552Y-179136D02*
Y-187008D01*
Y-179136D02*
X339928D01*
X338803Y-179510D01*
X338054Y-180260D01*
X337679Y-181010D01*
X337304Y-182134D01*
Y-184009D01*
X337679Y-185134D01*
X338054Y-185883D01*
X338803Y-186633D01*
X339928Y-187008D01*
X342552D01*
X330669Y-179136D02*
X335542D01*
Y-187008D01*
X330669D01*
X335542Y-182884D02*
X332543D01*
X324108Y-180260D02*
X324858Y-179510D01*
X325983Y-179136D01*
X327482D01*
X328607Y-179510D01*
X329357Y-180260D01*
Y-181010D01*
X328982Y-181760D01*
X328607Y-182134D01*
X327857Y-182509D01*
X325608Y-183259D01*
X324858Y-183634D01*
X324483Y-184009D01*
X324108Y-184759D01*
Y-185883D01*
X324858Y-186633D01*
X325983Y-187008D01*
X327482D01*
X328607Y-186633D01*
X329357Y-185883D01*
X310913Y-180260D02*
X311663Y-179510D01*
X312787Y-179136D01*
X314287D01*
X315411Y-179510D01*
X316161Y-180260D01*
Y-181010D01*
X315786Y-181760D01*
X315411Y-182134D01*
X314662Y-182509D01*
X312412Y-183259D01*
X311663Y-183634D01*
X311288Y-184009D01*
X310913Y-184759D01*
Y-185883D01*
X311663Y-186633D01*
X312787Y-187008D01*
X314287D01*
X315411Y-186633D01*
X316161Y-185883D01*
X309151Y-179136D02*
Y-187008D01*
Y-179136D02*
X306527D01*
X305402Y-179510D01*
X304652Y-180260D01*
X304278Y-181010D01*
X303903Y-182134D01*
Y-184009D01*
X304278Y-185134D01*
X304652Y-185883D01*
X305402Y-186633D01*
X306527Y-187008D01*
X309151D01*
X302141Y-179136D02*
Y-187008D01*
Y-179136D02*
X297267D01*
X302141Y-182884D02*
X299142D01*
X284934Y-180260D02*
X285684Y-179510D01*
X286808Y-179136D01*
X288308D01*
X289433Y-179510D01*
X290182Y-180260D01*
Y-181010D01*
X289808Y-181760D01*
X289433Y-182134D01*
X288683Y-182509D01*
X286434Y-183259D01*
X285684Y-183634D01*
X285309Y-184009D01*
X284934Y-184759D01*
Y-185883D01*
X285684Y-186633D01*
X286808Y-187008D01*
X288308D01*
X289433Y-186633D01*
X290182Y-185883D01*
X277549Y-181010D02*
X277924Y-180260D01*
X278674Y-179510D01*
X279423Y-179136D01*
X280923D01*
X281673Y-179510D01*
X282422Y-180260D01*
X282797Y-181010D01*
X283172Y-182134D01*
Y-184009D01*
X282797Y-185134D01*
X282422Y-185883D01*
X281673Y-186633D01*
X280923Y-187008D01*
X279423D01*
X278674Y-186633D01*
X277924Y-185883D01*
X277549Y-185134D01*
X270089Y-180260D02*
X270839Y-179510D01*
X271964Y-179136D01*
X273463D01*
X274588Y-179510D01*
X275337Y-180260D01*
Y-181010D01*
X274962Y-181760D01*
X274588Y-182134D01*
X273838Y-182509D01*
X271589Y-183259D01*
X270839Y-183634D01*
X270464Y-184009D01*
X270089Y-184759D01*
Y-185883D01*
X270839Y-186633D01*
X271964Y-187008D01*
X273463D01*
X274588Y-186633D01*
X275337Y-185883D01*
X257269Y-179136D02*
X262142D01*
Y-187008D01*
X257269D01*
X262142Y-182884D02*
X259143D01*
X255956Y-183259D02*
X252583D01*
X251458Y-182884D01*
X251083Y-182509D01*
X250708Y-181760D01*
Y-180635D01*
X251083Y-179885D01*
X251458Y-179510D01*
X252583Y-179136D01*
X255956D01*
Y-187008D01*
X244073Y-179136D02*
X248946D01*
Y-187008D01*
X244073D01*
X248946Y-182884D02*
X245947D01*
X414078Y-167324D02*
Y-175197D01*
X412428Y-169949D02*
Y-175197D01*
Y-171448D02*
X411304Y-170324D01*
X410554Y-169949D01*
X409430D01*
X408680Y-170324D01*
X408305Y-171448D01*
Y-175197D01*
X403244Y-167324D02*
X403994D01*
X404744Y-167699D01*
X405118Y-168824D01*
Y-175197D01*
X406243Y-169949D02*
X403619D01*
X401370Y-167324D02*
X400995Y-167699D01*
X400620Y-167324D01*
X400995Y-166950D01*
X401370Y-167324D01*
X400995Y-169949D02*
Y-175197D01*
X399233Y-169949D02*
Y-175197D01*
Y-171448D02*
X398108Y-170324D01*
X397359Y-169949D01*
X396234D01*
X395484Y-170324D01*
X395109Y-171448D01*
Y-175197D01*
X393047Y-172198D02*
X388549D01*
Y-171448D01*
X388924Y-170698D01*
X389299Y-170324D01*
X390049Y-169949D01*
X391173D01*
X391923Y-170324D01*
X392673Y-171073D01*
X393047Y-172198D01*
Y-172948D01*
X392673Y-174072D01*
X391923Y-174822D01*
X391173Y-175197D01*
X390049D01*
X389299Y-174822D01*
X388549Y-174072D01*
X384988Y-169949D02*
X385737Y-170324D01*
X386487Y-171073D01*
X386862Y-172198D01*
Y-172948D01*
X386487Y-174072D01*
X385737Y-174822D01*
X384988Y-175197D01*
X383863D01*
X383113Y-174822D01*
X382364Y-174072D01*
X381989Y-172948D01*
Y-172198D01*
X382364Y-171073D01*
X383113Y-170324D01*
X383863Y-169949D01*
X384988D01*
X380264D02*
Y-175197D01*
Y-171448D02*
X379140Y-170324D01*
X378390Y-169949D01*
X377265D01*
X376516Y-170324D01*
X376141Y-171448D01*
Y-175197D01*
X365269Y-167324D02*
Y-175197D01*
X367894Y-167324D02*
X362645D01*
X361708Y-172198D02*
X357210D01*
Y-171448D01*
X357585Y-170698D01*
X357959Y-170324D01*
X358709Y-169949D01*
X359834D01*
X360583Y-170324D01*
X361333Y-171073D01*
X361708Y-172198D01*
Y-172948D01*
X361333Y-174072D01*
X360583Y-174822D01*
X359834Y-175197D01*
X358709D01*
X357959Y-174822D01*
X357210Y-174072D01*
X351024Y-171073D02*
X351774Y-170324D01*
X352524Y-169949D01*
X353648D01*
X354398Y-170324D01*
X355148Y-171073D01*
X355523Y-172198D01*
Y-172948D01*
X355148Y-174072D01*
X354398Y-174822D01*
X353648Y-175197D01*
X352524D01*
X351774Y-174822D01*
X351024Y-174072D01*
X349337Y-167324D02*
Y-175197D01*
Y-171448D02*
X348213Y-170324D01*
X347463Y-169949D01*
X346338D01*
X345589Y-170324D01*
X345214Y-171448D01*
Y-175197D01*
X343152Y-169949D02*
Y-175197D01*
Y-171448D02*
X342027Y-170324D01*
X341278Y-169949D01*
X340153D01*
X339403Y-170324D01*
X339028Y-171448D01*
Y-175197D01*
X335092Y-169949D02*
X335842Y-170324D01*
X336592Y-171073D01*
X336967Y-172198D01*
Y-172948D01*
X336592Y-174072D01*
X335842Y-174822D01*
X335092Y-175197D01*
X333968D01*
X333218Y-174822D01*
X332468Y-174072D01*
X332093Y-172948D01*
Y-172198D01*
X332468Y-171073D01*
X333218Y-170324D01*
X333968Y-169949D01*
X335092D01*
X330369Y-167324D02*
Y-175197D01*
X326845Y-169949D02*
X327595Y-170324D01*
X328344Y-171073D01*
X328719Y-172198D01*
Y-172948D01*
X328344Y-174072D01*
X327595Y-174822D01*
X326845Y-175197D01*
X325720D01*
X324971Y-174822D01*
X324221Y-174072D01*
X323846Y-172948D01*
Y-172198D01*
X324221Y-171073D01*
X324971Y-170324D01*
X325720Y-169949D01*
X326845D01*
X317623D02*
Y-175947D01*
X317998Y-177071D01*
X318373Y-177446D01*
X319123Y-177821D01*
X320247D01*
X320997Y-177446D01*
X317623Y-171073D02*
X318373Y-170324D01*
X319123Y-169949D01*
X320247D01*
X320997Y-170324D01*
X321747Y-171073D01*
X322122Y-172198D01*
Y-172948D01*
X321747Y-174072D01*
X320997Y-174822D01*
X320247Y-175197D01*
X319123D01*
X318373Y-174822D01*
X317623Y-174072D01*
X314774Y-167324D02*
X314399Y-167699D01*
X314024Y-167324D01*
X314399Y-166950D01*
X314774Y-167324D01*
X314399Y-169949D02*
Y-175197D01*
X312637Y-172198D02*
X308139D01*
Y-171448D01*
X308514Y-170698D01*
X308889Y-170324D01*
X309638Y-169949D01*
X310763D01*
X311513Y-170324D01*
X312262Y-171073D01*
X312637Y-172198D01*
Y-172948D01*
X312262Y-174072D01*
X311513Y-174822D01*
X310763Y-175197D01*
X309638D01*
X308889Y-174822D01*
X308139Y-174072D01*
X302328Y-171073D02*
X302703Y-170324D01*
X303828Y-169949D01*
X304952D01*
X306077Y-170324D01*
X306452Y-171073D01*
X306077Y-171823D01*
X305327Y-172198D01*
X303453Y-172573D01*
X302703Y-172948D01*
X302328Y-173697D01*
Y-174072D01*
X302703Y-174822D01*
X303828Y-175197D01*
X304952D01*
X306077Y-174822D01*
X306452Y-174072D01*
X288495Y-175197D02*
X291494Y-167324D01*
X294494Y-175197D01*
X293369Y-172573D02*
X289620D01*
X281035Y-169199D02*
X281410Y-168449D01*
X282160Y-167699D01*
X282910Y-167324D01*
X284409D01*
X285159Y-167699D01*
X285909Y-168449D01*
X286284Y-169199D01*
X286659Y-170324D01*
Y-172198D01*
X286284Y-173322D01*
X285909Y-174072D01*
X285159Y-174822D01*
X284409Y-175197D01*
X282910D01*
X282160Y-174822D01*
X281410Y-174072D01*
X281035Y-173322D01*
Y-172198D01*
X282910D02*
X281035D01*
X240746Y-171262D02*
X236623D01*
X238872Y-174260D01*
X237747D01*
X236998Y-174635D01*
X236623Y-175010D01*
X236248Y-176135D01*
Y-176885D01*
X236623Y-178009D01*
X237372Y-178759D01*
X238497Y-179134D01*
X239622D01*
X240746Y-178759D01*
X241121Y-178384D01*
X241496Y-177634D01*
X232237Y-171262D02*
X233361Y-171636D01*
X234111Y-172761D01*
X234486Y-174635D01*
Y-175760D01*
X234111Y-177634D01*
X233361Y-178759D01*
X232237Y-179134D01*
X231487D01*
X230362Y-178759D01*
X229613Y-177634D01*
X229238Y-175760D01*
Y-174635D01*
X229613Y-172761D01*
X230362Y-171636D01*
X231487Y-171262D01*
X232237D01*
X227101Y-178384D02*
X227476Y-178759D01*
X227101Y-179134D01*
X226726Y-178759D01*
X227101Y-178384D01*
X222752Y-171262D02*
X223877Y-171636D01*
X224627Y-172761D01*
X225002Y-174635D01*
Y-175760D01*
X224627Y-177634D01*
X223877Y-178759D01*
X222752Y-179134D01*
X222003D01*
X220878Y-178759D01*
X220128Y-177634D01*
X219753Y-175760D01*
Y-174635D01*
X220128Y-172761D01*
X220878Y-171636D01*
X222003Y-171262D01*
X222752D01*
X213118Y-173886D02*
X213493Y-175010D01*
X214243Y-175760D01*
X215367Y-176135D01*
X215742D01*
X216867Y-175760D01*
X217617Y-175010D01*
X217991Y-173886D01*
Y-173511D01*
X217617Y-172386D01*
X216867Y-171636D01*
X215742Y-171262D01*
X215367D01*
X214243Y-171636D01*
X213493Y-172386D01*
X213118Y-173886D01*
Y-175760D01*
X213493Y-177634D01*
X214243Y-178759D01*
X215367Y-179134D01*
X216117D01*
X217242Y-178759D01*
X217617Y-178009D01*
X210607Y-178384D02*
X210981Y-178759D01*
X210607Y-179134D01*
X210232Y-178759D01*
X210607Y-178384D01*
X208132Y-173136D02*
Y-172761D01*
X207757Y-172011D01*
X207383Y-171636D01*
X206633Y-171262D01*
X205133D01*
X204384Y-171636D01*
X204009Y-172011D01*
X203634Y-172761D01*
Y-173511D01*
X204009Y-174260D01*
X204759Y-175385D01*
X208507Y-179134D01*
X203259D01*
X199248Y-171262D02*
X200373Y-171636D01*
X201122Y-172761D01*
X201497Y-174635D01*
Y-175760D01*
X201122Y-177634D01*
X200373Y-178759D01*
X199248Y-179134D01*
X198498D01*
X197373Y-178759D01*
X196624Y-177634D01*
X196249Y-175760D01*
Y-174635D01*
X196624Y-172761D01*
X197373Y-171636D01*
X198498Y-171262D01*
X199248D01*
X194112Y-173136D02*
Y-172761D01*
X193737Y-172011D01*
X193362Y-171636D01*
X192613Y-171262D01*
X191113D01*
X190363Y-171636D01*
X189989Y-172011D01*
X189614Y-172761D01*
Y-173511D01*
X189989Y-174260D01*
X190738Y-175385D01*
X194487Y-179134D01*
X189239D01*
X187477Y-172761D02*
X186727Y-172386D01*
X185602Y-171262D01*
Y-179134D01*
X236998Y-201445D02*
Y-206693D01*
Y-202569D02*
X237747Y-201820D01*
X238497Y-201445D01*
X239622D01*
X240371Y-201820D01*
X241121Y-202569D01*
X241496Y-203694D01*
Y-204444D01*
X241121Y-205568D01*
X240371Y-206318D01*
X239622Y-206693D01*
X238497D01*
X237747Y-206318D01*
X236998Y-205568D01*
X233024Y-198821D02*
X234149Y-199196D01*
X234523Y-199945D01*
Y-200695D01*
X234149Y-201445D01*
X233399Y-201820D01*
X231899Y-202194D01*
X230775Y-202569D01*
X230025Y-203319D01*
X229650Y-204069D01*
Y-205193D01*
X230025Y-205943D01*
X230400Y-206318D01*
X231524Y-206693D01*
X233024D01*
X234149Y-206318D01*
X234523Y-205943D01*
X234898Y-205193D01*
Y-204069D01*
X234523Y-203319D01*
X233774Y-202569D01*
X232649Y-202194D01*
X231150Y-201820D01*
X230400Y-201445D01*
X230025Y-200695D01*
Y-199945D01*
X230400Y-199196D01*
X231524Y-198821D01*
X233024D01*
X223015Y-201445D02*
X223390Y-202569D01*
X224139Y-203319D01*
X225264Y-203694D01*
X225639D01*
X226764Y-203319D01*
X227513Y-202569D01*
X227888Y-201445D01*
Y-201070D01*
X227513Y-199945D01*
X226764Y-199196D01*
X225639Y-198821D01*
X225264D01*
X224139Y-199196D01*
X223390Y-199945D01*
X223015Y-201445D01*
Y-203319D01*
X223390Y-205193D01*
X224139Y-206318D01*
X225264Y-206693D01*
X226014D01*
X227138Y-206318D01*
X227513Y-205568D01*
X216380Y-198821D02*
X220128D01*
X220503Y-202194D01*
X220128Y-201820D01*
X219004Y-201445D01*
X217879D01*
X216754Y-201820D01*
X216005Y-202569D01*
X215630Y-203694D01*
Y-204444D01*
X216005Y-205568D01*
X216754Y-206318D01*
X217879Y-206693D01*
X219004D01*
X220128Y-206318D01*
X220503Y-205943D01*
X220878Y-205193D01*
X209369Y-202569D02*
X210119Y-201820D01*
X210869Y-201445D01*
X211994D01*
X212743Y-201820D01*
X213493Y-202569D01*
X213868Y-203694D01*
Y-204444D01*
X213493Y-205568D01*
X212743Y-206318D01*
X211994Y-206693D01*
X210869D01*
X210119Y-206318D01*
X209369Y-205568D01*
X207682Y-200320D02*
X206933Y-199945D01*
X205808Y-198821D01*
Y-206693D01*
X197411Y-201445D02*
Y-206693D01*
Y-202569D02*
X198161Y-201820D01*
X198910Y-201445D01*
X200035D01*
X200785Y-201820D01*
X201535Y-202569D01*
X201909Y-203694D01*
Y-204444D01*
X201535Y-205568D01*
X200785Y-206318D01*
X200035Y-206693D01*
X198910D01*
X198161Y-206318D01*
X197411Y-205568D01*
X193062Y-198821D02*
X194187Y-199196D01*
X194937Y-200320D01*
X195312Y-202194D01*
Y-203319D01*
X194937Y-205193D01*
X194187Y-206318D01*
X193062Y-206693D01*
X192313D01*
X191188Y-206318D01*
X190438Y-205193D01*
X190064Y-203319D01*
Y-202194D01*
X190438Y-200320D01*
X191188Y-199196D01*
X192313Y-198821D01*
X193062D01*
X183428Y-201445D02*
X183803Y-202569D01*
X184553Y-203319D01*
X185678Y-203694D01*
X186052D01*
X187177Y-203319D01*
X187927Y-202569D01*
X188302Y-201445D01*
Y-201070D01*
X187927Y-199945D01*
X187177Y-199196D01*
X186052Y-198821D01*
X185678D01*
X184553Y-199196D01*
X183803Y-199945D01*
X183428Y-201445D01*
Y-203319D01*
X183803Y-205193D01*
X184553Y-206318D01*
X185678Y-206693D01*
X186427D01*
X187552Y-206318D01*
X187927Y-205568D01*
X176793Y-201445D02*
Y-206693D01*
Y-202569D02*
X177543Y-201820D01*
X178293Y-201445D01*
X179417D01*
X180167Y-201820D01*
X180917Y-202569D01*
X181291Y-203694D01*
Y-204444D01*
X180917Y-205568D01*
X180167Y-206318D01*
X179417Y-206693D01*
X178293D01*
X177543Y-206318D01*
X176793Y-205568D01*
X174694Y-203694D02*
X170195D01*
Y-202944D01*
X170570Y-202194D01*
X170945Y-201820D01*
X171695Y-201445D01*
X172819D01*
X173569Y-201820D01*
X174319Y-202569D01*
X174694Y-203694D01*
Y-204444D01*
X174319Y-205568D01*
X173569Y-206318D01*
X172819Y-206693D01*
X171695D01*
X170945Y-206318D01*
X170195Y-205568D01*
X168508Y-200320D02*
X167759Y-199945D01*
X166634Y-198821D01*
Y-206693D01*
X157862Y-201445D02*
X158237Y-202569D01*
X158986Y-203319D01*
X160111Y-203694D01*
X160486D01*
X161611Y-203319D01*
X162360Y-202569D01*
X162735Y-201445D01*
Y-201070D01*
X162360Y-199945D01*
X161611Y-199196D01*
X160486Y-198821D01*
X160111D01*
X158986Y-199196D01*
X158237Y-199945D01*
X157862Y-201445D01*
Y-203319D01*
X158237Y-205193D01*
X158986Y-206318D01*
X160111Y-206693D01*
X160861D01*
X161986Y-206318D01*
X162360Y-205568D01*
X154975Y-198821D02*
X150852D01*
X153101Y-201820D01*
X151976D01*
X151227Y-202194D01*
X150852Y-202569D01*
X150477Y-203694D01*
Y-204444D01*
X150852Y-205568D01*
X151602Y-206318D01*
X152726Y-206693D01*
X153851D01*
X154975Y-206318D01*
X155350Y-205943D01*
X155725Y-205193D01*
X146466Y-198821D02*
X147590Y-199196D01*
X148340Y-200320D01*
X148715Y-202194D01*
Y-203319D01*
X148340Y-205193D01*
X147590Y-206318D01*
X146466Y-206693D01*
X145716D01*
X144591Y-206318D01*
X143842Y-205193D01*
X143467Y-203319D01*
Y-202194D01*
X143842Y-200320D01*
X144591Y-199196D01*
X145716Y-198821D01*
X146466D01*
X137206Y-199945D02*
X137581Y-199196D01*
X138706Y-198821D01*
X139456D01*
X140580Y-199196D01*
X141330Y-200320D01*
X141705Y-202194D01*
Y-204069D01*
X141330Y-205568D01*
X140580Y-206318D01*
X139456Y-206693D01*
X139081D01*
X137956Y-206318D01*
X137206Y-205568D01*
X136831Y-204444D01*
Y-204069D01*
X137206Y-202944D01*
X137956Y-202194D01*
X139081Y-201820D01*
X139456D01*
X140580Y-202194D01*
X141330Y-202944D01*
X141705Y-204069D01*
X134357Y-198821D02*
X130234D01*
X132483Y-201820D01*
X131358D01*
X130609Y-202194D01*
X130234Y-202569D01*
X129859Y-203694D01*
Y-204444D01*
X130234Y-205568D01*
X130983Y-206318D01*
X132108Y-206693D01*
X133233D01*
X134357Y-206318D01*
X134732Y-205943D01*
X135107Y-205193D01*
X127347Y-198821D02*
X123224D01*
X125473Y-201820D01*
X124348D01*
X123599Y-202194D01*
X123224Y-202569D01*
X122849Y-203694D01*
Y-204444D01*
X123224Y-205568D01*
X123973Y-206318D01*
X125098Y-206693D01*
X126223D01*
X127347Y-206318D01*
X127722Y-205943D01*
X128097Y-205193D01*
X116588Y-202569D02*
X117338Y-201820D01*
X118088Y-201445D01*
X119212D01*
X119962Y-201820D01*
X120712Y-202569D01*
X121087Y-203694D01*
Y-204444D01*
X120712Y-205568D01*
X119962Y-206318D01*
X119212Y-206693D01*
X118088D01*
X117338Y-206318D01*
X116588Y-205568D01*
X111902Y-198821D02*
X112652D01*
X113402Y-199196D01*
X113777Y-200320D01*
Y-206693D01*
X114901Y-201445D02*
X112277D01*
X106279Y-198821D02*
Y-206693D01*
Y-202569D02*
X107029Y-201820D01*
X107779Y-201445D01*
X108904D01*
X109653Y-201820D01*
X110403Y-202569D01*
X110778Y-203694D01*
Y-204444D01*
X110403Y-205568D01*
X109653Y-206318D01*
X108904Y-206693D01*
X107779D01*
X107029Y-206318D01*
X106279Y-205568D01*
X104180Y-198821D02*
Y-206693D01*
Y-202569D02*
X103430Y-201820D01*
X102681Y-201445D01*
X101556D01*
X100806Y-201820D01*
X100057Y-202569D01*
X99682Y-203694D01*
Y-204444D01*
X100057Y-205568D01*
X100806Y-206318D01*
X101556Y-206693D01*
X102681D01*
X103430Y-206318D01*
X104180Y-205568D01*
X92747Y-198821D02*
X96495Y-206693D01*
X97995Y-198821D02*
X92747D01*
X90985D02*
Y-206693D01*
Y-202569D02*
X90235Y-201820D01*
X89485Y-201445D01*
X88360D01*
X87611Y-201820D01*
X86861Y-202569D01*
X86486Y-203694D01*
Y-204444D01*
X86861Y-205568D01*
X87611Y-206318D01*
X88360Y-206693D01*
X89485D01*
X90235Y-206318D01*
X90985Y-205568D01*
X84424Y-200695D02*
Y-200320D01*
X84049Y-199570D01*
X83675Y-199196D01*
X82925Y-198821D01*
X81425D01*
X80676Y-199196D01*
X80301Y-199570D01*
X79926Y-200320D01*
Y-201070D01*
X80301Y-201820D01*
X81050Y-202944D01*
X84799Y-206693D01*
X79551D01*
X72541Y-198821D02*
X76289Y-206693D01*
X77789Y-198821D02*
X72541D01*
X70779Y-203694D02*
X66280D01*
Y-202944D01*
X66655Y-202194D01*
X67030Y-201820D01*
X67780Y-201445D01*
X68905D01*
X69654Y-201820D01*
X70404Y-202569D01*
X70779Y-203694D01*
Y-204444D01*
X70404Y-205568D01*
X69654Y-206318D01*
X68905Y-206693D01*
X67780D01*
X67030Y-206318D01*
X66280Y-205568D01*
X60095Y-198821D02*
X63844D01*
X64219Y-202194D01*
X63844Y-201820D01*
X62719Y-201445D01*
X61594D01*
X60470Y-201820D01*
X59720Y-202569D01*
X59345Y-203694D01*
Y-204444D01*
X59720Y-205568D01*
X60470Y-206318D01*
X61594Y-206693D01*
X62719D01*
X63844Y-206318D01*
X64219Y-205943D01*
X64593Y-205193D01*
X53835Y-198821D02*
X57583Y-204069D01*
X51960D01*
X53835Y-198821D02*
Y-206693D01*
X45325Y-198821D02*
X49074Y-206693D01*
X50573Y-198821D02*
X45325D01*
X39065Y-199945D02*
X39439Y-199196D01*
X40564Y-198821D01*
X41314D01*
X42439Y-199196D01*
X43188Y-200320D01*
X43563Y-202194D01*
Y-204069D01*
X43188Y-205568D01*
X42439Y-206318D01*
X41314Y-206693D01*
X40939D01*
X39814Y-206318D01*
X39065Y-205568D01*
X38690Y-204444D01*
Y-204069D01*
X39065Y-202944D01*
X39814Y-202194D01*
X40939Y-201820D01*
X41314D01*
X42439Y-202194D01*
X43188Y-202944D01*
X43563Y-204069D01*
X33217Y-198821D02*
X36965Y-204069D01*
X31342D01*
X33217Y-198821D02*
Y-206693D01*
X24707Y-198821D02*
X28456Y-206693D01*
X29955Y-198821D02*
X24707D01*
X22570Y-200695D02*
Y-200320D01*
X22195Y-199570D01*
X21821Y-199196D01*
X21071Y-198821D01*
X19571D01*
X18822Y-199196D01*
X18447Y-199570D01*
X18072Y-200320D01*
Y-201070D01*
X18447Y-201820D01*
X19196Y-202944D01*
X22945Y-206693D01*
X17697D01*
X14061Y-198821D02*
X15185Y-199196D01*
X15560Y-199945D01*
Y-200695D01*
X15185Y-201445D01*
X14435Y-201820D01*
X12936Y-202194D01*
X11811Y-202569D01*
X11062Y-203319D01*
X10687Y-204069D01*
Y-205193D01*
X11062Y-205943D01*
X11436Y-206318D01*
X12561Y-206693D01*
X14061D01*
X15185Y-206318D01*
X15560Y-205943D01*
X15935Y-205193D01*
Y-204069D01*
X15560Y-203319D01*
X14810Y-202569D01*
X13686Y-202194D01*
X12186Y-201820D01*
X11436Y-201445D01*
X11062Y-200695D01*
Y-199945D01*
X11436Y-199196D01*
X12561Y-198821D01*
X14061D01*
X4426D02*
X8175D01*
X8550Y-202194D01*
X8175Y-201820D01*
X7050Y-201445D01*
X5926D01*
X4801Y-201820D01*
X4051Y-202569D01*
X3677Y-203694D01*
Y-204444D01*
X4051Y-205568D01*
X4801Y-206318D01*
X5926Y-206693D01*
X7050D01*
X8175Y-206318D01*
X8550Y-205943D01*
X8925Y-205193D01*
X-2584Y-199945D02*
X-2209Y-199196D01*
X-1084Y-198821D01*
X-335D01*
X790Y-199196D01*
X1540Y-200320D01*
X1915Y-202194D01*
Y-204069D01*
X1540Y-205568D01*
X790Y-206318D01*
X-335Y-206693D01*
X-709D01*
X-1834Y-206318D01*
X-2584Y-205568D01*
X-2959Y-204444D01*
Y-204069D01*
X-2584Y-202944D01*
X-1834Y-202194D01*
X-709Y-201820D01*
X-335D01*
X790Y-202194D01*
X1540Y-202944D01*
X1915Y-204069D01*
X-5433Y-198821D02*
X-9556D01*
X-7307Y-201820D01*
X-8432D01*
X-9182Y-202194D01*
X-9556Y-202569D01*
X-9931Y-203694D01*
Y-204444D01*
X-9556Y-205568D01*
X-8807Y-206318D01*
X-7682Y-206693D01*
X-6557D01*
X-5433Y-206318D01*
X-5058Y-205943D01*
X-4683Y-205193D01*
X-13568Y-198821D02*
X-12443Y-199196D01*
X-12068Y-199945D01*
Y-200695D01*
X-12443Y-201445D01*
X-13193Y-201820D01*
X-14692Y-202194D01*
X-15817Y-202569D01*
X-16567Y-203319D01*
X-16941Y-204069D01*
Y-205193D01*
X-16567Y-205943D01*
X-16192Y-206318D01*
X-15067Y-206693D01*
X-13568D01*
X-12443Y-206318D01*
X-12068Y-205943D01*
X-11693Y-205193D01*
Y-204069D01*
X-12068Y-203319D01*
X-12818Y-202569D01*
X-13942Y-202194D01*
X-15442Y-201820D01*
X-16192Y-201445D01*
X-16567Y-200695D01*
Y-199945D01*
X-16192Y-199196D01*
X-15067Y-198821D01*
X-13568D01*
X-21702D02*
X-20953D01*
X-20203Y-199196D01*
X-19828Y-200320D01*
Y-206693D01*
X-18703Y-201445D02*
X-21327D01*
X-29012Y-199570D02*
Y-207068D01*
X-29387Y-199570D02*
Y-207068D01*
X-29012Y-199570D02*
X-30887D01*
X-29012Y-207068D02*
X-30887D01*
X-31899Y-198821D02*
Y-206693D01*
X-36397D01*
X-39134Y-201445D02*
X-38384Y-201820D01*
X-37634Y-202569D01*
X-37260Y-203694D01*
Y-204444D01*
X-37634Y-205568D01*
X-38384Y-206318D01*
X-39134Y-206693D01*
X-40258D01*
X-41008Y-206318D01*
X-41758Y-205568D01*
X-42133Y-204444D01*
Y-203694D01*
X-41758Y-202569D01*
X-41008Y-201820D01*
X-40258Y-201445D01*
X-39134D01*
X-48356Y-202569D02*
X-47606Y-201820D01*
X-46856Y-201445D01*
X-45732D01*
X-44982Y-201820D01*
X-44232Y-202569D01*
X-43857Y-203694D01*
Y-204444D01*
X-44232Y-205568D01*
X-44982Y-206318D01*
X-45732Y-206693D01*
X-46856D01*
X-47606Y-206318D01*
X-48356Y-205568D01*
X-54541Y-201445D02*
Y-206693D01*
Y-202569D02*
X-53791Y-201820D01*
X-53042Y-201445D01*
X-51917D01*
X-51167Y-201820D01*
X-50418Y-202569D01*
X-50043Y-203694D01*
Y-204444D01*
X-50418Y-205568D01*
X-51167Y-206318D01*
X-51917Y-206693D01*
X-53042D01*
X-53791Y-206318D01*
X-54541Y-205568D01*
X-56640Y-198821D02*
Y-206693D01*
X-58290Y-198821D02*
Y-206693D01*
X-60314Y-201445D02*
X-62563Y-206693D01*
X-64813Y-201445D02*
X-62563Y-206693D01*
X-61814Y-208192D01*
X-61064Y-208942D01*
X-60314Y-209317D01*
X-59939D01*
X-72310Y-198821D02*
Y-206693D01*
Y-198821D02*
X-75309Y-206693D01*
X-78308Y-198821D02*
X-75309Y-206693D01*
X-78308Y-198821D02*
Y-206693D01*
X-82432Y-201445D02*
X-81682Y-201820D01*
X-80932Y-202569D01*
X-80557Y-203694D01*
Y-204444D01*
X-80932Y-205568D01*
X-81682Y-206318D01*
X-82432Y-206693D01*
X-83556D01*
X-84306Y-206318D01*
X-85056Y-205568D01*
X-85431Y-204444D01*
Y-203694D01*
X-85056Y-202569D01*
X-84306Y-201820D01*
X-83556Y-201445D01*
X-82432D01*
X-91654Y-198821D02*
Y-206693D01*
Y-202569D02*
X-90904Y-201820D01*
X-90154Y-201445D01*
X-89030D01*
X-88280Y-201820D01*
X-87530Y-202569D01*
X-87155Y-203694D01*
Y-204444D01*
X-87530Y-205568D01*
X-88280Y-206318D01*
X-89030Y-206693D01*
X-90154D01*
X-90904Y-206318D01*
X-91654Y-205568D01*
X-94503Y-198821D02*
X-94877Y-199196D01*
X-95252Y-198821D01*
X-94877Y-198446D01*
X-94503Y-198821D01*
X-94877Y-201445D02*
Y-206693D01*
X-99638Y-198821D02*
X-98889D01*
X-98139Y-199196D01*
X-97764Y-200320D01*
Y-206693D01*
X-96639Y-201445D02*
X-99264D01*
X-101513Y-198821D02*
X-101888Y-199196D01*
X-102262Y-198821D01*
X-101888Y-198446D01*
X-101513Y-198821D01*
X-101888Y-201445D02*
Y-206693D01*
X-103649Y-203694D02*
X-108148D01*
Y-202944D01*
X-107773Y-202194D01*
X-107398Y-201820D01*
X-106649Y-201445D01*
X-105524D01*
X-104774Y-201820D01*
X-104024Y-202569D01*
X-103649Y-203694D01*
Y-204444D01*
X-104024Y-205568D01*
X-104774Y-206318D01*
X-105524Y-206693D01*
X-106649D01*
X-107398Y-206318D01*
X-108148Y-205568D01*
X-114333Y-198821D02*
Y-206693D01*
Y-202569D02*
X-113584Y-201820D01*
X-112834Y-201445D01*
X-111709D01*
X-110959Y-201820D01*
X-110210Y-202569D01*
X-109835Y-203694D01*
Y-204444D01*
X-110210Y-205568D01*
X-110959Y-206318D01*
X-111709Y-206693D01*
X-112834D01*
X-113584Y-206318D01*
X-114333Y-205568D01*
X-117932Y-199570D02*
Y-207068D01*
X-118307Y-199570D02*
Y-207068D01*
X-116433Y-199570D02*
X-118307D01*
X-116433Y-207068D02*
X-118307D01*
X-207323Y-100395D02*
Y-108268D01*
Y-100395D02*
X-209947D01*
X-211072Y-100770D01*
X-211821Y-101520D01*
X-212196Y-102270D01*
X-212571Y-103394D01*
Y-105269D01*
X-212196Y-106393D01*
X-211821Y-107143D01*
X-211072Y-107893D01*
X-209947Y-108268D01*
X-207323D01*
X1341797Y718504D02*
X1344796Y726376D01*
X1347795Y718504D01*
X1346671Y721128D02*
X1342922D01*
X1347795Y450786D02*
Y442913D01*
Y450786D02*
X1344421D01*
X1343297Y450411D01*
X1342922Y450036D01*
X1342547Y449286D01*
Y448536D01*
X1342922Y447787D01*
X1343297Y447412D01*
X1344421Y447037D01*
X1347795D02*
X1344421D01*
X1343297Y446662D01*
X1342922Y446287D01*
X1342547Y445538D01*
Y444413D01*
X1342922Y443663D01*
X1343297Y443288D01*
X1344421Y442913D01*
X1347795D01*
X1342172Y173321D02*
X1342547Y174071D01*
X1343297Y174820D01*
X1344046Y175195D01*
X1345546D01*
X1346296Y174820D01*
X1347046Y174071D01*
X1347420Y173321D01*
X1347795Y172196D01*
Y170322D01*
X1347420Y169197D01*
X1347046Y168447D01*
X1346296Y167698D01*
X1345546Y167323D01*
X1344046D01*
X1343297Y167698D01*
X1342547Y168447D01*
X1342172Y169197D01*
X1347795Y-100395D02*
Y-108268D01*
Y-100395D02*
X1345171D01*
X1344046Y-100770D01*
X1343297Y-101520D01*
X1342922Y-102270D01*
X1342547Y-103394D01*
Y-105269D01*
X1342922Y-106393D01*
X1343297Y-107143D01*
X1344046Y-107893D01*
X1345171Y-108268D01*
X1347795D01*
X1257244Y848892D02*
X1256494Y849267D01*
X1255370Y850392D01*
Y842520D01*
X1060019Y848518D02*
Y848892D01*
X1059644Y849642D01*
X1059269Y850017D01*
X1058519Y850392D01*
X1057020D01*
X1056270Y850017D01*
X1055895Y849642D01*
X1055520Y848892D01*
Y848143D01*
X1055895Y847393D01*
X1056645Y846268D01*
X1060394Y842520D01*
X1055145D01*
X862794Y850392D02*
X858670D01*
X860919Y847393D01*
X859795D01*
X859045Y847018D01*
X858670Y846643D01*
X858295Y845519D01*
Y844769D01*
X858670Y843644D01*
X859420Y842894D01*
X860544Y842520D01*
X861669D01*
X862794Y842894D01*
X863168Y843269D01*
X863543Y844019D01*
X662944Y850392D02*
X666693Y845144D01*
X661070D01*
X662944Y850392D02*
Y842520D01*
X464595Y850391D02*
X469842D01*
Y846455D01*
X467219Y847767D01*
X465907D01*
X464595Y846455D01*
Y843832D01*
X465907Y842520D01*
X468531D01*
X469842Y843832D01*
X267744Y850391D02*
X270368Y849079D01*
X272992Y846455D01*
Y843832D01*
X271680Y842520D01*
X269056D01*
X267744Y843832D01*
Y845144D01*
X269056Y846455D01*
X272992D01*
X76142Y850391D02*
X70894D01*
Y849079D01*
X76142Y843832D01*
Y842520D01*
X-120709Y849079D02*
X-122021Y850391D01*
X-124644D01*
X-125956Y849079D01*
Y847767D01*
X-124644Y846455D01*
X-125956Y845144D01*
Y843832D01*
X-124644Y842520D01*
X-122021D01*
X-120709Y843832D01*
Y845144D01*
X-122021Y846455D01*
X-120709Y847767D01*
Y849079D01*
X-122021Y846455D02*
X-124644D01*
X1257244Y-233785D02*
X1256494Y-233410D01*
X1255370Y-232285D01*
Y-240158D01*
X1060019Y-234159D02*
Y-233785D01*
X1059644Y-233035D01*
X1059269Y-232660D01*
X1058519Y-232285D01*
X1057020D01*
X1056270Y-232660D01*
X1055895Y-233035D01*
X1055520Y-233785D01*
Y-234534D01*
X1055895Y-235284D01*
X1056645Y-236409D01*
X1060394Y-240158D01*
X1055145D01*
X862794Y-232285D02*
X858670D01*
X860919Y-235284D01*
X859795D01*
X859045Y-235659D01*
X858670Y-236034D01*
X858295Y-237158D01*
Y-237908D01*
X858670Y-239033D01*
X859420Y-239783D01*
X860544Y-240158D01*
X861669D01*
X862794Y-239783D01*
X863168Y-239408D01*
X863543Y-238658D01*
X662944Y-232285D02*
X666693Y-237533D01*
X661070D01*
X662944Y-232285D02*
Y-240158D01*
X464595Y-232286D02*
X469842D01*
Y-236222D01*
X467219Y-234910D01*
X465907D01*
X464595Y-236222D01*
Y-238846D01*
X465907Y-240158D01*
X468531D01*
X469842Y-238846D01*
X267744Y-232286D02*
X270368Y-233598D01*
X272992Y-236222D01*
Y-238846D01*
X271680Y-240158D01*
X269056D01*
X267744Y-238846D01*
Y-237534D01*
X269056Y-236222D01*
X272992D01*
X76142Y-232286D02*
X70894D01*
Y-233598D01*
X76142Y-238846D01*
Y-240158D01*
X-120709Y-233598D02*
X-122021Y-232286D01*
X-124644D01*
X-125956Y-233598D01*
Y-234910D01*
X-124644Y-236222D01*
X-125956Y-237534D01*
Y-238846D01*
X-124644Y-240158D01*
X-122021D01*
X-120709Y-238846D01*
Y-237534D01*
X-122021Y-236222D01*
X-120709Y-234910D01*
Y-233598D01*
X-122021Y-236222D02*
X-124644D01*
X-213321Y718504D02*
X-210322Y726376D01*
X-207323Y718504D01*
X-208448Y721128D02*
X-212196D01*
X-207323Y450786D02*
Y442913D01*
Y450786D02*
X-210697D01*
X-211821Y450411D01*
X-212196Y450036D01*
X-212571Y449286D01*
Y448536D01*
X-212196Y447787D01*
X-211821Y447412D01*
X-210697Y447037D01*
X-207323D02*
X-210697D01*
X-211821Y446662D01*
X-212196Y446287D01*
X-212571Y445538D01*
Y444413D01*
X-212196Y443663D01*
X-211821Y443288D01*
X-210697Y442913D01*
X-207323D01*
X-212946Y173321D02*
X-212571Y174071D01*
X-211821Y174820D01*
X-211072Y175195D01*
X-209572D01*
X-208822Y174820D01*
X-208073Y174071D01*
X-207698Y173321D01*
X-207323Y172196D01*
Y170322D01*
X-207698Y169197D01*
X-208073Y168447D01*
X-208822Y167698D01*
X-209572Y167323D01*
X-211072D01*
X-211821Y167698D01*
X-212571Y168447D01*
X-212946Y169197D01*
X91890Y-198821D02*
Y-206693D01*
Y-198821D02*
X88891Y-206693D01*
X85892Y-198821D02*
X88891Y-206693D01*
X85892Y-198821D02*
Y-206693D01*
X79144Y-201445D02*
Y-206693D01*
Y-202569D02*
X79894Y-201820D01*
X80644Y-201445D01*
X81768D01*
X82518Y-201820D01*
X83268Y-202569D01*
X83643Y-203694D01*
Y-204444D01*
X83268Y-205568D01*
X82518Y-206318D01*
X81768Y-206693D01*
X80644D01*
X79894Y-206318D01*
X79144Y-205568D01*
X76295Y-198821D02*
X75920Y-199196D01*
X75545Y-198821D01*
X75920Y-198446D01*
X76295Y-198821D01*
X75920Y-201445D02*
Y-206693D01*
X74158Y-201445D02*
Y-206693D01*
Y-202944D02*
X73034Y-201820D01*
X72284Y-201445D01*
X71159D01*
X70410Y-201820D01*
X70035Y-202944D01*
Y-206693D01*
X67973Y-198821D02*
Y-206693D01*
Y-202569D02*
X67223Y-201820D01*
X66473Y-201445D01*
X65349D01*
X64599Y-201820D01*
X63849Y-202569D01*
X63474Y-203694D01*
Y-204444D01*
X63849Y-205568D01*
X64599Y-206318D01*
X65349Y-206693D01*
X66473D01*
X67223Y-206318D01*
X67973Y-205568D01*
X59913Y-201445D02*
X60663Y-201820D01*
X61413Y-202569D01*
X61787Y-203694D01*
Y-204444D01*
X61413Y-205568D01*
X60663Y-206318D01*
X59913Y-206693D01*
X58789D01*
X58039Y-206318D01*
X57289Y-205568D01*
X56914Y-204444D01*
Y-203694D01*
X57289Y-202569D01*
X58039Y-201820D01*
X58789Y-201445D01*
X59913D01*
X50691D02*
Y-206693D01*
Y-202569D02*
X51441Y-201820D01*
X52191Y-201445D01*
X53315D01*
X54065Y-201820D01*
X54815Y-202569D01*
X55190Y-203694D01*
Y-204444D01*
X54815Y-205568D01*
X54065Y-206318D01*
X53315Y-206693D01*
X52191D01*
X51441Y-206318D01*
X50691Y-205568D01*
X48592Y-201445D02*
Y-206693D01*
Y-203694D02*
X48217Y-202569D01*
X47467Y-201820D01*
X46718Y-201445D01*
X45593D01*
X40382Y-198821D02*
Y-206693D01*
Y-202569D02*
X41132Y-201820D01*
X41882Y-201445D01*
X43006D01*
X43756Y-201820D01*
X44506Y-202569D01*
X44881Y-203694D01*
Y-204444D01*
X44506Y-205568D01*
X43756Y-206318D01*
X43006Y-206693D01*
X41882D01*
X41132Y-206318D01*
X40382Y-205568D01*
X37908Y-205943D02*
X38283Y-206318D01*
X37908Y-206693D01*
X37533Y-206318D01*
X37908Y-205943D01*
X35809Y-202944D02*
X32435D01*
X31310Y-202569D01*
X30935Y-202194D01*
X30561Y-201445D01*
Y-200320D01*
X30935Y-199570D01*
X31310Y-199196D01*
X32435Y-198821D01*
X35809D01*
Y-206693D01*
X24300Y-202569D02*
X25050Y-201820D01*
X25800Y-201445D01*
X26924D01*
X27674Y-201820D01*
X28424Y-202569D01*
X28799Y-203694D01*
Y-204444D01*
X28424Y-205568D01*
X27674Y-206318D01*
X26924Y-206693D01*
X25800D01*
X25050Y-206318D01*
X24300Y-205568D01*
X22613Y-198821D02*
Y-206693D01*
Y-202569D02*
X21863Y-201820D01*
X21114Y-201445D01*
X19989D01*
X19239Y-201820D01*
X18490Y-202569D01*
X18115Y-203694D01*
Y-204444D01*
X18490Y-205568D01*
X19239Y-206318D01*
X19989Y-206693D01*
X21114D01*
X21863Y-206318D01*
X22613Y-205568D01*
X16428Y-198821D02*
Y-206693D01*
Y-198821D02*
X13804D01*
X12679Y-199196D01*
X11929Y-199945D01*
X11554Y-200695D01*
X11180Y-201820D01*
Y-203694D01*
X11554Y-204819D01*
X11929Y-205568D01*
X12679Y-206318D01*
X13804Y-206693D01*
X16428D01*
X7543Y-201445D02*
X8293Y-201820D01*
X9043Y-202569D01*
X9418Y-203694D01*
Y-204444D01*
X9043Y-205568D01*
X8293Y-206318D01*
X7543Y-206693D01*
X6419D01*
X5669Y-206318D01*
X4919Y-205568D01*
X4544Y-204444D01*
Y-203694D01*
X4919Y-202569D01*
X5669Y-201820D01*
X6419Y-201445D01*
X7543D01*
X-1678Y-202569D02*
X-929Y-201820D01*
X-179Y-201445D01*
X946D01*
X1695Y-201820D01*
X2445Y-202569D01*
X2820Y-203694D01*
Y-204444D01*
X2445Y-205568D01*
X1695Y-206318D01*
X946Y-206693D01*
X-179D01*
X-929Y-206318D01*
X-1678Y-205568D01*
M02*
