G04*
G04 #@! TF.GenerationSoftware,Altium Limited,Altium Designer,21.2.1 (34)*
G04*
G04 Layer_Color=16711935*
%FSLAX25Y25*%
%MOIN*%
G70*
G04*
G04 #@! TF.SameCoordinates,E3247584-B976-4F33-B0A2-C8B4A793FEE3*
G04*
G04*
G04 #@! TF.FilePolarity,Positive*
G04*
G01*
G75*
%ADD96C,0.00394*%
D96*
X33043Y312024D02*
G03*
X33043Y312024I-1969J0D01*
G01*
X179106Y6600D02*
G03*
X179106Y6600I-1575J0D01*
G01*
X118606D02*
G03*
X118606Y6600I-1575J0D01*
G01*
X164681Y372488D02*
G03*
X164681Y372488I-984J0D01*
G01*
X128539Y274575D02*
G03*
X128539Y274575I-984J0D01*
G01*
X243734Y470472D02*
G03*
X243734Y470472I-1575J0D01*
G01*
X263315Y90169D02*
G03*
X263315Y90169I-984J0D01*
G01*
X58961Y421000D02*
G03*
X58961Y421000I-984J0D01*
G01*
X26929Y673228D02*
G03*
X26929Y673228I-11181J0D01*
G01*
X170667Y306000D02*
G03*
X170667Y306000I-1969J0D01*
G01*
X166591Y348500D02*
G03*
X166591Y348500I-1969J0D01*
G01*
X15740Y113500D02*
G03*
X15740Y113500I-6240J0D01*
G01*
X293768Y507500D02*
G03*
X293768Y507500I-1969J0D01*
G01*
X46331Y557500D02*
G03*
X46331Y557500I-1575J0D01*
G01*
X349468Y639087D02*
G03*
X349468Y639087I-1969J0D01*
G01*
X300468Y339024D02*
G03*
X300468Y339024I-1969J0D01*
G01*
X95651Y566500D02*
G03*
X95651Y566500I-1575J0D01*
G01*
X241811Y9650D02*
G03*
X241811Y9650I-1969J0D01*
G01*
X55590Y366500D02*
G03*
X55590Y366500I-25591J0D01*
G01*
X271611Y593500D02*
G03*
X271611Y593500I-1969J0D01*
G01*
X272111Y507500D02*
G03*
X272111Y507500I-1969J0D01*
G01*
X69211Y557500D02*
G03*
X69211Y557500I-1969J0D01*
G01*
Y647500D02*
G03*
X69211Y647500I-1969J0D01*
G01*
X63842Y501437D02*
G03*
X67779Y497500I3937J0D01*
G01*
Y757500D02*
G03*
X63842Y753563I0J-3937D01*
G01*
X273843D02*
G03*
X269905Y757500I-3937J0D01*
G01*
X87894Y353476D02*
G03*
X87894Y353476I-1969J0D01*
G01*
X15568Y473500D02*
G03*
X15568Y473500I-1969J0D01*
G01*
X69569Y102500D02*
G03*
X69569Y102500I-1969J0D01*
G01*
X10151Y65842D02*
G03*
X10151Y65842I-1575J0D01*
G01*
X58606Y6600D02*
G03*
X58606Y6600I-1575J0D01*
G01*
X235894Y681900D02*
G03*
X235894Y681900I-1575J0D01*
G01*
X121475Y533500D02*
G03*
X121475Y533500I-1575J0D01*
G01*
X293768Y593500D02*
G03*
X293768Y593500I-1969J0D01*
G01*
X123951Y645500D02*
G03*
X123951Y645500I-1575J0D01*
G01*
X95651Y611500D02*
G03*
X95651Y611500I-1575J0D01*
G01*
Y593500D02*
G03*
X95651Y593500I-1575J0D01*
G01*
X26929Y15748D02*
G03*
X26929Y15748I-11181J0D01*
G01*
X349764D02*
G03*
X349764Y15748I-11181J0D01*
G01*
Y673228D02*
G03*
X349764Y673228I-11181J0D01*
G01*
X174910Y452236D02*
G03*
X174910Y452236I-1969J0D01*
G01*
X228740Y55500D02*
G03*
X228740Y55500I-6240J0D01*
G01*
X243240Y402000D02*
G03*
X243240Y402000I-6240J0D01*
G01*
X146240Y122500D02*
G03*
X146240Y122500I-6240J0D01*
G01*
X217240Y285500D02*
G03*
X217240Y285500I-6240J0D01*
G01*
X151240Y649000D02*
G03*
X151240Y649000I-6240J0D01*
G01*
X9657Y333795D02*
X34146D01*
X9657Y308205D02*
Y333795D01*
Y308205D02*
X34146D01*
Y333795D01*
X204106Y4110D02*
Y17890D01*
X170642Y4110D02*
Y17890D01*
Y4110D02*
X204106D01*
X170642Y17890D02*
X204106D01*
X110142D02*
X143606D01*
X110142Y4110D02*
X143606D01*
X110142D02*
Y17890D01*
X143606Y4110D02*
Y17890D01*
X214787Y573189D02*
Y596811D01*
X191165Y573189D02*
X214787D01*
X191165D02*
Y596811D01*
X214787D01*
X154051Y367862D02*
Y374161D01*
Y367862D02*
X165469D01*
Y374161D01*
X154051D02*
X165469D01*
X129209Y269801D02*
Y276199D01*
X117791Y276197D02*
X129209Y276201D01*
X117791Y269803D02*
X129209Y269799D01*
X117791D02*
Y276197D01*
X189559Y370291D02*
Y381709D01*
X184441Y370291D02*
X189559D01*
X184441D02*
Y381709D01*
X189559D01*
X113752Y366941D02*
X125248D01*
X113752D02*
Y372059D01*
X125248D01*
Y366941D02*
Y372059D01*
X282941Y126791D02*
X288059D01*
Y138209D01*
X282941D02*
X288059D01*
X282941Y126791D02*
Y138209D01*
X227256Y620130D02*
Y628004D01*
X222334Y620130D02*
X227256D01*
X222334D02*
Y628004D01*
X227256D01*
X284405Y358205D02*
Y383795D01*
X298185D01*
Y358205D02*
Y383795D01*
X284405Y358205D02*
X298185D01*
X84315Y453657D02*
Y473343D01*
X101638D01*
Y453657D02*
Y473343D01*
X84315Y453657D02*
X101638D01*
X225157Y456315D02*
Y473638D01*
Y456315D02*
X244843D01*
Y473638D01*
X225157D02*
X244843D01*
X263906Y88594D02*
Y100406D01*
X252095Y88594D02*
X263906D01*
X252095D02*
Y100406D01*
X263906D01*
X56071Y411095D02*
Y422905D01*
X67882D01*
Y411095D02*
Y422905D01*
X56071Y411095D02*
X67882D01*
X108595Y91094D02*
Y102905D01*
Y91094D02*
X120405D01*
Y102905D01*
X108595D02*
X120405D01*
X239465Y362496D02*
Y375488D01*
X226472Y362496D02*
X239465D01*
X226472Y375488D02*
X239465D01*
X226472Y362496D02*
Y375488D01*
X297177Y141854D02*
Y161146D01*
X281823Y141854D02*
X297177D01*
X281823D02*
Y161146D01*
X297177D01*
X308299Y228354D02*
X323654D01*
Y247646D01*
X308299D02*
X323654D01*
X308299Y228354D02*
Y247646D01*
X193823Y446535D02*
X209177D01*
Y485512D01*
X193823D02*
X209177D01*
X193823Y446535D02*
Y485512D01*
X228891Y271924D02*
X238733D01*
Y256963D02*
Y271924D01*
X228891Y256963D02*
X238733D01*
X228891D02*
Y271924D01*
X152445Y353441D02*
Y358559D01*
X145555D02*
X152445D01*
X145555Y353441D02*
Y358559D01*
Y353441D02*
X152445D01*
X115594Y255350D02*
X127406D01*
X115594D02*
Y261649D01*
X127406D01*
Y255350D02*
Y261649D01*
X161240Y212000D02*
X173760D01*
X161240D02*
Y237000D01*
X173760D01*
Y212000D02*
Y237000D01*
X9732Y94673D02*
X15835D01*
X9732Y91327D02*
X15835D01*
Y94673D01*
X9732Y91327D02*
Y94673D01*
X210898Y137075D02*
X217197D01*
X210898Y133925D02*
Y137075D01*
Y133925D02*
X217197D01*
Y137075D01*
X193697Y282291D02*
Y308709D01*
X165980D02*
X193697D01*
X165980Y282291D02*
X193697D01*
X165980D02*
Y308709D01*
X21500Y94575D02*
X27799D01*
Y91425D02*
Y94575D01*
X21500Y91425D02*
X27799D01*
X21500D02*
Y94575D01*
X93480Y136004D02*
X106473D01*
X93480D02*
Y148996D01*
X106473D01*
Y136004D02*
Y148996D01*
X206402Y140008D02*
Y165992D01*
X231598D01*
X206402Y140008D02*
X231598D01*
Y165992D01*
X159189Y360311D02*
X182811D01*
Y336689D02*
Y360311D01*
X159189Y336689D02*
X182811D01*
X159189D02*
Y360311D01*
X152193Y126378D02*
Y173622D01*
X199437D01*
Y126378D02*
Y173622D01*
X152193Y126378D02*
X199437D01*
X221306Y250319D02*
Y273567D01*
X194318Y250319D02*
X221306D01*
X194318D02*
Y273567D01*
X221306D01*
X10291Y299795D02*
X15803D01*
X11276Y270268D02*
Y272236D01*
Y270268D02*
X14031D01*
Y272236D01*
X78205D01*
Y270268D02*
Y272236D01*
Y270268D02*
X80961D01*
Y272236D01*
X87457D01*
X81945Y301764D02*
X87457D01*
X81945Y299795D02*
Y301764D01*
X76827Y299795D02*
X81945D01*
X76827D02*
Y301764D01*
X15803D02*
X76827D01*
X15803Y299795D02*
Y301764D01*
X10291Y299795D02*
Y301764D01*
X4780D02*
X10291D01*
X4780Y272236D02*
Y301764D01*
Y272236D02*
X11276D01*
X87457D02*
Y301764D01*
X338697Y193705D02*
X344209D01*
X343224Y221264D02*
Y223232D01*
X340469D02*
X343224D01*
X340469Y221264D02*
Y223232D01*
X276295Y221264D02*
X340469D01*
X276295D02*
Y223232D01*
X273539D02*
X276295D01*
X273539Y221264D02*
Y223232D01*
X267043Y221264D02*
X273539D01*
X267043Y191736D02*
X272555D01*
Y193705D01*
X277673D01*
Y191736D02*
Y193705D01*
Y191736D02*
X338697D01*
Y193705D01*
X344209Y191736D02*
Y193705D01*
Y191736D02*
X349721D01*
Y221264D01*
X343224D02*
X349721D01*
X267043Y191736D02*
Y221264D01*
X151398Y338252D02*
Y344748D01*
X138602Y338252D02*
X151398D01*
X138602D02*
Y344748D01*
X151398D01*
X275500Y502500D02*
Y582500D01*
X295500D01*
Y502500D02*
Y582500D01*
X275500Y502500D02*
X295500D01*
X61843D02*
Y562500D01*
X41842Y502500D02*
X61843D01*
X41842D02*
Y562500D01*
X61843D01*
X352500Y522000D02*
Y642000D01*
X342500Y522000D02*
Y642000D01*
X352500D01*
X342500Y522000D02*
X352500D01*
X295500Y324024D02*
X315500D01*
X295500D02*
Y344024D01*
X315500D01*
Y324024D02*
Y344024D01*
X91976Y571500D02*
X121976D01*
X91976Y561500D02*
X121976D01*
X91976D02*
Y571500D01*
X121976Y561500D02*
Y571500D01*
X138500Y180000D02*
Y190000D01*
X158500D01*
Y180000D02*
Y190000D01*
X138500Y180000D02*
X158500D01*
X219764Y3547D02*
Y39374D01*
Y3547D02*
X299921D01*
Y39374D01*
X219764D02*
X299921D01*
X274701Y323350D02*
Y329650D01*
X287299D01*
Y323350D02*
Y329650D01*
X274701Y323350D02*
X287299D01*
X298149Y247925D02*
Y251075D01*
X291850Y247925D02*
X298149D01*
X291850D02*
Y251075D01*
X298149D01*
X267575Y360350D02*
Y366650D01*
X264425Y360350D02*
Y366650D01*
X267575D01*
X264425Y360350D02*
X267575D01*
X143905Y363850D02*
X147095D01*
X143905D02*
Y370150D01*
X147095D01*
Y363850D02*
Y370150D01*
X10850Y511449D02*
X17150D01*
X10850D02*
Y514598D01*
X17150D01*
Y511449D02*
Y514598D01*
X211225Y299724D02*
X251776D01*
X211225D02*
Y340276D01*
X251776D01*
Y299724D02*
Y340276D01*
X267843Y497500D02*
X273843Y503500D01*
X212842Y487500D02*
X222843Y497500D01*
X83842Y487500D02*
X212842D01*
X73842Y497500D02*
X83842Y487500D01*
X67779Y497500D02*
X73842D01*
X63842Y501437D02*
Y753563D01*
X67779Y757500D02*
X269905D01*
X273843Y503500D02*
Y753563D01*
X222843Y497500D02*
X267843D01*
X94406Y189850D02*
Y196150D01*
Y189850D02*
X97594D01*
Y196150D01*
X94406D02*
X97594D01*
X109724Y205224D02*
Y245776D01*
Y205224D02*
X150276D01*
Y245776D01*
X109724D02*
X150276D01*
X140799Y161350D02*
Y167649D01*
X128201Y161350D02*
X140799D01*
X128201D02*
Y167649D01*
X140799D01*
X39925Y589150D02*
X43075D01*
X39925Y582850D02*
Y589150D01*
Y582850D02*
X43075D01*
Y589150D01*
X103350Y382575D02*
X109650D01*
X103350Y379425D02*
Y382575D01*
Y379425D02*
X109650D01*
Y382575D01*
X244925Y365803D02*
Y372102D01*
X248075Y365803D02*
Y372102D01*
X244925Y365803D02*
X248075D01*
X244925Y372102D02*
X248075D01*
X269925Y360350D02*
X273075D01*
X269925Y366650D02*
X273075D01*
X269925Y360350D02*
Y366650D01*
X273075Y360350D02*
Y366650D01*
X217406Y365850D02*
X220595D01*
X217406D02*
Y372150D01*
X220595D01*
Y365850D02*
Y372150D01*
X83571Y150350D02*
Y156649D01*
X80382D02*
X83571D01*
X80382Y150350D02*
Y156649D01*
Y150350D02*
X83571D01*
X268882Y149850D02*
Y156149D01*
Y149850D02*
X272071D01*
Y156149D01*
X268882D02*
X272071D01*
X58327Y136906D02*
X64626D01*
Y140094D01*
X58327D02*
X64626D01*
X58327Y136906D02*
Y140094D01*
X280701Y167595D02*
X287000D01*
X280701Y164406D02*
Y167595D01*
Y164406D02*
X287000D01*
Y167595D01*
X70425Y245106D02*
Y251405D01*
Y245106D02*
X73575D01*
Y251405D01*
X70425D02*
X73575D01*
X58803Y235075D02*
X65102D01*
Y231925D02*
Y235075D01*
X58803Y231925D02*
X65102D01*
X58803D02*
Y235075D01*
X295402Y262150D02*
X298551D01*
X295402Y255850D02*
Y262150D01*
Y255850D02*
X298551D01*
Y262150D01*
X30201Y230095D02*
X36500D01*
X30201Y226906D02*
Y230095D01*
Y226906D02*
X36500D01*
Y230095D01*
X312827Y250406D02*
Y253594D01*
X319126D01*
Y250406D02*
Y253594D01*
X312827Y250406D02*
X319126D01*
X111850Y145992D02*
X118150D01*
X111850D02*
Y158590D01*
X118150D01*
Y145992D02*
Y158590D01*
X243650Y145201D02*
Y157799D01*
X237350D02*
X243650D01*
X237350Y145201D02*
Y157799D01*
Y145201D02*
X243650D01*
X61327Y449905D02*
X67626D01*
Y453094D01*
X61327D02*
X67626D01*
X61327Y449905D02*
Y453094D01*
X182374Y433095D02*
X188673D01*
X182374Y429906D02*
Y433095D01*
Y429906D02*
X188673D01*
Y433095D01*
X24094Y409350D02*
Y415650D01*
X20906D02*
X24094D01*
X20906Y409350D02*
Y415650D01*
Y409350D02*
X24094D01*
X137850Y412405D02*
X144150D01*
Y415594D01*
X137850D02*
X144150D01*
X137850Y412405D02*
Y415594D01*
X110906Y422350D02*
Y428650D01*
Y422350D02*
X114094D01*
Y428650D01*
X110906D02*
X114094D01*
X61351Y465095D02*
X67650D01*
X61351Y461905D02*
Y465095D01*
Y461905D02*
X67650D01*
Y465095D01*
X164350Y409094D02*
X170650D01*
X164350Y405905D02*
Y409094D01*
Y405905D02*
X170650D01*
Y409094D01*
X84351Y479095D02*
X90650D01*
X84351Y475906D02*
Y479095D01*
Y475906D02*
X90650D01*
Y479095D01*
X62850Y429595D02*
X69150D01*
X62850Y426405D02*
Y429595D01*
Y426405D02*
X69150D01*
Y429595D01*
X251095Y454350D02*
Y460649D01*
X247905D02*
X251095D01*
X247905Y454350D02*
Y460649D01*
Y454350D02*
X251095D01*
X116850Y449905D02*
X123150D01*
Y453094D01*
X116850D02*
X123150D01*
X116850Y449905D02*
Y453094D01*
X38850Y422905D02*
X45149D01*
Y426094D01*
X38850D02*
X45149D01*
X38850Y422905D02*
Y426094D01*
X78851Y424594D02*
X85150D01*
X78851Y421406D02*
Y424594D01*
Y421406D02*
X85150D01*
Y424594D01*
X208575Y421350D02*
Y427650D01*
X205425Y421350D02*
Y427650D01*
X208575D01*
X205425Y421350D02*
X208575D01*
X204350Y488406D02*
X210649D01*
Y491595D01*
X204350D02*
X210649D01*
X204350Y488406D02*
Y491595D01*
X137827Y427575D02*
X144126D01*
X137827Y424425D02*
X144126D01*
X137827D02*
Y427575D01*
X144126Y424425D02*
Y427575D01*
X348406Y372351D02*
X351594D01*
X348406D02*
Y378650D01*
X351594D01*
Y372351D02*
Y378650D01*
X121850Y286595D02*
X128149D01*
X121850Y283405D02*
Y286595D01*
Y283405D02*
X128149D01*
Y286595D01*
X266650Y103905D02*
Y107095D01*
X260350Y103905D02*
X266650D01*
X260350D02*
Y107095D01*
X266650D01*
X112150Y85405D02*
Y88595D01*
X105850Y85405D02*
X112150D01*
X105850D02*
Y88595D01*
X112150D01*
X242350Y270799D02*
X248650D01*
Y258201D02*
Y270799D01*
X242350Y258201D02*
X248650D01*
X242350D02*
Y270799D01*
X244776Y205224D02*
Y245776D01*
X204224D02*
X244776D01*
X204224Y205224D02*
Y245776D01*
Y205224D02*
X244776D01*
X274701Y343327D02*
X287299D01*
Y349626D01*
X274701D02*
X287299D01*
X274701Y343327D02*
Y349626D01*
Y333327D02*
X287299D01*
Y339626D01*
X274701D02*
X287299D01*
X274701Y333327D02*
Y339626D01*
X17350Y543575D02*
X23650D01*
Y540425D02*
Y543575D01*
X17350Y540425D02*
X23650D01*
X17350D02*
Y543575D01*
X75406Y25850D02*
X78594D01*
X75406D02*
Y32149D01*
X78594D01*
Y25850D02*
Y32149D01*
X136406Y25850D02*
X139594D01*
X136406D02*
Y32149D01*
X139594D01*
Y25850D02*
Y32149D01*
X196906Y25850D02*
X200095D01*
X196906D02*
Y32149D01*
X200095D01*
Y25850D02*
Y32149D01*
X242406Y525350D02*
X245595D01*
X242406D02*
Y531649D01*
X245595D01*
Y525350D02*
Y531649D01*
X243382Y588350D02*
Y594650D01*
Y588350D02*
X246571D01*
Y594650D01*
X243382D02*
X246571D01*
X216327Y646906D02*
Y650095D01*
X222626D01*
Y646906D02*
Y650095D01*
X216327Y646906D02*
X222626D01*
X34539Y490063D02*
X39461D01*
Y497937D01*
X34539D02*
X39461D01*
X34539Y490063D02*
Y497937D01*
X50063Y491539D02*
Y496461D01*
Y491539D02*
X57937D01*
Y496461D01*
X50063D02*
X57937D01*
X48791Y311941D02*
X60209D01*
X48791D02*
Y317059D01*
X60209D01*
Y311941D02*
Y317059D01*
X82531Y372532D02*
X93949D01*
Y367413D02*
Y372532D01*
X82531Y367413D02*
X93949D01*
X82531D02*
Y372532D01*
X54291Y341559D02*
X65709D01*
Y336441D02*
Y341559D01*
X54291Y336441D02*
X65709D01*
X54291D02*
Y341559D01*
X146506Y250376D02*
X173494D01*
Y273624D01*
X146506D02*
X173494D01*
X146506Y250376D02*
Y273624D01*
X68291Y367413D02*
X79709D01*
X68291D02*
Y372532D01*
X79709D01*
Y367413D02*
Y372532D01*
X36913Y156791D02*
Y168209D01*
X42032D01*
Y156791D02*
Y168209D01*
X36913Y156791D02*
X42032D01*
X308559Y126791D02*
Y138209D01*
X303441Y126791D02*
X308559D01*
X303441D02*
Y138209D01*
X308559D01*
X55441Y241291D02*
Y252709D01*
X60559D01*
Y241291D02*
Y252709D01*
X55441Y241291D02*
X60559D01*
X286268Y235441D02*
Y240559D01*
Y235441D02*
X297685D01*
Y240559D01*
X286268D02*
X297685D01*
X5791Y233441D02*
Y238559D01*
Y233441D02*
X17209D01*
Y238559D01*
X5791D02*
X17209D01*
X321709Y260441D02*
Y265559D01*
X310291D02*
X321709D01*
X310291Y260441D02*
Y265559D01*
Y260441D02*
X321709D01*
X35291Y410941D02*
X46709D01*
X35291D02*
Y416059D01*
X46709D01*
Y410941D02*
Y416059D01*
X77291Y409441D02*
X88709D01*
X77291D02*
Y414559D01*
X88709D01*
Y409441D02*
Y414559D01*
X342901Y471350D02*
Y477649D01*
X346051D01*
Y471350D02*
Y477649D01*
X342901Y471350D02*
X346051D01*
X342901Y453350D02*
X346051D01*
Y459650D01*
X342901D02*
X346051D01*
X342901Y453350D02*
Y459650D01*
Y435350D02*
Y441649D01*
X346051D01*
Y435350D02*
Y441649D01*
X342901Y435350D02*
X346051D01*
X342901Y417350D02*
Y423650D01*
X346051D01*
Y417350D02*
Y423650D01*
X342901Y417350D02*
X346051D01*
X84425Y52701D02*
Y59000D01*
X87575D01*
Y52701D02*
Y59000D01*
X84425Y52701D02*
X87575D01*
X144551Y52851D02*
Y59150D01*
X147701D01*
Y52851D02*
Y59150D01*
X144551Y52851D02*
X147701D01*
X204925Y52701D02*
Y59000D01*
X208075D01*
Y52701D02*
Y59000D01*
X204925Y52701D02*
X208075D01*
X57039Y35437D02*
X61961D01*
X57039Y27563D02*
Y35437D01*
Y27563D02*
X61961D01*
Y35437D01*
X117689Y35437D02*
X122610D01*
X117689Y27563D02*
Y35437D01*
Y27563D02*
X122610D01*
Y35437D01*
X177539Y35437D02*
X182460D01*
X177539Y27563D02*
Y35437D01*
Y27563D02*
X182460D01*
Y35437D01*
X200902Y542350D02*
Y548650D01*
X204051D01*
Y542350D02*
Y548650D01*
X200902Y542350D02*
X204051D01*
X200902Y558850D02*
Y565149D01*
X204051D01*
Y558850D02*
Y565149D01*
X200902Y558850D02*
X204051D01*
X201401Y604850D02*
Y611150D01*
X204551D01*
Y604850D02*
Y611150D01*
X201401Y604850D02*
X204551D01*
X201401Y621350D02*
Y627649D01*
X204551D01*
Y621350D02*
Y627649D01*
X201401Y621350D02*
X204551D01*
X179016Y647937D02*
X183937D01*
X179016Y640063D02*
Y647937D01*
Y640063D02*
X183937D01*
Y647937D01*
X41414Y676039D02*
Y680961D01*
X33539D02*
X41414D01*
X33539Y676039D02*
Y680961D01*
Y676039D02*
X41414D01*
X82854Y331705D02*
X107343D01*
Y357295D01*
X82854D02*
X107343D01*
X82854Y331705D02*
Y357295D01*
X100941Y363791D02*
Y375209D01*
X106059D01*
Y363791D02*
Y375209D01*
X100941Y363791D02*
X106059D01*
X259996Y154504D02*
Y167496D01*
X247004D02*
X259996D01*
X247004Y154504D02*
Y167496D01*
Y154504D02*
X259996D01*
X259973Y136004D02*
Y148996D01*
X246980D02*
X259973D01*
X246980Y136004D02*
Y148996D01*
Y136004D02*
X259973D01*
X321539Y472039D02*
X329413D01*
X321539D02*
Y476961D01*
X329413D01*
Y472039D02*
Y476961D01*
X321539Y454039D02*
X329413D01*
X321539D02*
Y458961D01*
X329413D01*
Y454039D02*
Y458961D01*
X321539Y436039D02*
X329413D01*
X321539D02*
Y440961D01*
X329413D01*
Y436039D02*
Y440961D01*
X321539Y418039D02*
X329413D01*
X321539D02*
Y422961D01*
X329413D01*
Y418039D02*
Y422961D01*
X236504Y44504D02*
X249496D01*
Y57496D01*
X236504D02*
X249496D01*
X236504Y44504D02*
Y57496D01*
X258504Y44504D02*
Y57496D01*
X271496D01*
Y44504D02*
Y57496D01*
X258504Y44504D02*
X271496D01*
X280346Y44472D02*
X293339D01*
Y57465D01*
X280346D02*
X293339D01*
X280346Y44472D02*
Y57465D01*
X62437Y47039D02*
Y51961D01*
X54563D02*
X62437D01*
X54563Y47039D02*
Y51961D01*
Y47039D02*
X62437D01*
X115622Y46189D02*
X123496D01*
X115622D02*
Y51110D01*
X123496D01*
Y46189D02*
Y51110D01*
X183437Y46039D02*
Y50961D01*
X175563D02*
X183437D01*
X175563Y46039D02*
Y50961D01*
Y46039D02*
X183437D01*
X222016Y549437D02*
X226937D01*
X222016Y541563D02*
Y549437D01*
Y541563D02*
X226937D01*
Y549437D01*
X222016Y565937D02*
X226937D01*
X222016Y558063D02*
Y565937D01*
Y558063D02*
X226937D01*
Y565937D01*
X222366Y610496D02*
X227287D01*
X222366Y602622D02*
Y610496D01*
Y602622D02*
X227287D01*
Y610496D01*
X301649Y88595D02*
Y100406D01*
X295350Y88595D02*
X301649D01*
X295350D02*
Y100406D01*
X301649D01*
X165949Y642327D02*
X172051D01*
X165949Y645673D02*
X172051D01*
X165949Y642327D02*
Y645673D01*
X172051Y642327D02*
Y645673D01*
X190327Y647051D02*
X193673D01*
X190327Y640949D02*
X193673D01*
X190327D02*
Y647051D01*
X193673Y640949D02*
Y647051D01*
X26551Y494327D02*
Y497673D01*
X20449Y494327D02*
Y497673D01*
X26551D01*
X20449Y494327D02*
X26551D01*
X20472Y488327D02*
X26575D01*
X20472Y491673D02*
X26575D01*
X20472Y488327D02*
Y491673D01*
X26575Y488327D02*
Y491673D01*
X44327Y682051D02*
X47673D01*
X44327Y675949D02*
X47673D01*
X44327D02*
Y682051D01*
X47673Y675949D02*
Y682051D01*
X282327Y484232D02*
Y490335D01*
X285673Y484232D02*
Y490335D01*
X282327D02*
X285673D01*
X282327Y484232D02*
X285673D01*
X52449Y673327D02*
X58551D01*
X52449Y676673D02*
X58551D01*
X52449Y673327D02*
Y676673D01*
X58551Y673327D02*
Y676673D01*
X52449Y679327D02*
Y682673D01*
X58551Y679327D02*
Y682673D01*
X52449Y679327D02*
X58551D01*
X52449Y682673D02*
X58551D01*
X68949Y379327D02*
Y382673D01*
X75051Y379327D02*
Y382673D01*
X68949Y379327D02*
X75051D01*
X68949Y382673D02*
X75051D01*
X62327Y371551D02*
X65673D01*
X62327Y365449D02*
X65673D01*
X62327D02*
Y371551D01*
X65673Y365449D02*
Y371551D01*
X39827Y571949D02*
Y578051D01*
X43173Y571949D02*
Y578051D01*
X39827D02*
X43173D01*
X39827Y571949D02*
X43173D01*
X58449Y351827D02*
X64551D01*
X58449Y355173D02*
X64551D01*
X58449Y351827D02*
Y355173D01*
X64551Y351827D02*
Y355173D01*
X62327Y381768D02*
X65673D01*
X62327Y375665D02*
X65673D01*
X62327D02*
Y381768D01*
X65673Y375665D02*
Y381768D01*
X45827Y571949D02*
Y578051D01*
X49173Y571949D02*
Y578051D01*
X45827D02*
X49173D01*
X45827Y571949D02*
X49173D01*
X52449Y322827D02*
Y326173D01*
X58551Y322827D02*
Y326173D01*
X52449Y322827D02*
X58551D01*
X52449Y326173D02*
X58551D01*
X91449Y379327D02*
X97551D01*
X91449Y382673D02*
X97551D01*
X91449Y379327D02*
Y382673D01*
X97551Y379327D02*
Y382673D01*
X115827Y352949D02*
X119173D01*
X115827Y359051D02*
X119173D01*
Y352949D02*
Y359051D01*
X115827Y352949D02*
Y359051D01*
X122327Y352949D02*
X125673D01*
X122327Y359051D02*
X125673D01*
Y352949D02*
Y359051D01*
X122327Y352949D02*
Y359051D01*
X85551Y379327D02*
Y382673D01*
X79449Y379327D02*
Y382673D01*
X85551D01*
X79449Y379327D02*
X85551D01*
X241449Y360173D02*
X247551D01*
X241449Y356827D02*
X247551D01*
Y360173D01*
X241449Y356827D02*
Y360173D01*
X86303Y160551D02*
X89650D01*
X86303Y154449D02*
X89650D01*
X86303D02*
Y160551D01*
X89650Y154449D02*
Y160551D01*
X262827Y153449D02*
X266173D01*
X262827Y159551D02*
X266173D01*
Y153449D02*
Y159551D01*
X262827Y153449D02*
Y159551D01*
X129095Y146350D02*
Y152649D01*
Y146350D02*
X140905D01*
Y152649D01*
X129095D02*
X140905D01*
X68232Y126327D02*
X74335D01*
X68232Y129673D02*
X74335D01*
X68232Y126327D02*
Y129673D01*
X74335Y126327D02*
Y129673D01*
X270051Y138327D02*
Y141673D01*
X263949Y138327D02*
Y141673D01*
X270051D01*
X263949Y138327D02*
X270051D01*
X201851Y104405D02*
X208150D01*
X201851Y92594D02*
Y104405D01*
Y92594D02*
X208150D01*
Y104405D01*
X70327Y238551D02*
X73673D01*
X70327Y232449D02*
X73673D01*
X70327D02*
Y238551D01*
X73673Y232449D02*
Y238551D01*
X289303Y254949D02*
Y261051D01*
X292650Y254949D02*
Y261051D01*
X289303D02*
X292650D01*
X289303Y254949D02*
X292650D01*
X48335Y226827D02*
Y230173D01*
X42232Y226827D02*
Y230173D01*
X48335D01*
X42232Y226827D02*
X48335D01*
X306673Y257232D02*
Y263335D01*
X303327Y257232D02*
Y263335D01*
Y257232D02*
X306673D01*
X303327Y263335D02*
X306673D01*
X62949Y472827D02*
Y476173D01*
X69051Y472827D02*
Y476173D01*
X62949Y472827D02*
X69051D01*
X62949Y476173D02*
X69051D01*
X61425Y455827D02*
Y459173D01*
X67528Y455827D02*
Y459173D01*
X61425Y455827D02*
X67528D01*
X61425Y459173D02*
X67528D01*
X188551Y417827D02*
Y421173D01*
X182449Y417827D02*
Y421173D01*
X188551D01*
X182449Y417827D02*
X188551D01*
X10827Y428551D02*
X14173D01*
X10827Y422449D02*
X14173D01*
X10827D02*
Y428551D01*
X14173Y422449D02*
Y428551D01*
X20827Y422449D02*
X24173D01*
X20827Y428551D02*
X24173D01*
Y422449D02*
Y428551D01*
X20827Y422449D02*
Y428551D01*
X137949Y406827D02*
Y410173D01*
X144051Y406827D02*
Y410173D01*
X137949Y406827D02*
X144051D01*
X137949Y410173D02*
X144051D01*
X110827Y408925D02*
X114173D01*
X110827Y415028D02*
X114173D01*
Y408925D02*
Y415028D01*
X110827Y408925D02*
Y415028D01*
X100827Y415051D02*
X104173D01*
X100827Y408949D02*
X104173D01*
X100827D02*
Y415051D01*
X104173Y408949D02*
Y415051D01*
X49732Y467327D02*
X55835D01*
X49732Y470673D02*
X55835D01*
X49732Y467327D02*
Y470673D01*
X55835Y467327D02*
Y470673D01*
X182449Y424327D02*
Y427673D01*
X188551Y424327D02*
Y427673D01*
X182449Y424327D02*
X188551D01*
X182449Y427673D02*
X188551D01*
X10827Y415551D02*
X14173D01*
X10827Y409449D02*
X14173D01*
X10827D02*
Y415551D01*
X14173Y409449D02*
Y415551D01*
X137949Y418327D02*
Y421673D01*
X144051Y418327D02*
Y421673D01*
X137949Y418327D02*
X144051D01*
X137949Y421673D02*
X144051D01*
X100827Y422449D02*
X104173D01*
X100827Y428551D02*
X104173D01*
Y422449D02*
Y428551D01*
X100827Y422449D02*
Y428551D01*
X10882Y449791D02*
Y476209D01*
Y449791D02*
X38598D01*
X10882Y476209D02*
X38598D01*
Y449791D02*
Y476209D01*
X72327Y463449D02*
Y469551D01*
X75673Y463449D02*
Y469551D01*
X72327D02*
X75673D01*
X72327Y463449D02*
X75673D01*
X182449Y405827D02*
X188551D01*
X182449Y409173D02*
X188551D01*
X182449Y405827D02*
Y409173D01*
X188551Y405827D02*
Y409173D01*
X110327Y462949D02*
X113673D01*
X110327Y469051D02*
X113673D01*
Y462949D02*
Y469051D01*
X110327Y462949D02*
Y469051D01*
X72327Y480051D02*
X75673D01*
X72327Y473949D02*
X75673D01*
X72327D02*
Y480051D01*
X75673Y473949D02*
Y480051D01*
X182449Y411827D02*
X188551D01*
X182449Y415173D02*
X188551D01*
X182449Y411827D02*
Y415173D01*
X188551Y411827D02*
Y415173D01*
X116949Y455327D02*
Y458673D01*
X123051Y455327D02*
Y458673D01*
X116949Y455327D02*
X123051D01*
X116949Y458673D02*
X123051D01*
X205327Y416268D02*
X208673D01*
X205327Y410165D02*
X208673D01*
X205327D02*
Y416268D01*
X208673Y410165D02*
Y416268D01*
X110327Y479051D02*
X113673D01*
X110327Y472949D02*
X113673D01*
X110327D02*
Y479051D01*
X113673Y472949D02*
Y479051D01*
X144051Y430327D02*
Y433673D01*
X137949Y430327D02*
Y433673D01*
X144051D01*
X137949Y430327D02*
X144051D01*
X38949Y428327D02*
Y431673D01*
X45051Y428327D02*
Y431673D01*
X38949Y428327D02*
X45051D01*
X38949Y431673D02*
X45051D01*
X85484Y426827D02*
Y430173D01*
X79382Y426827D02*
Y430173D01*
X85484D01*
X79382Y426827D02*
X85484D01*
X346173Y371949D02*
Y378051D01*
X342827Y371949D02*
Y378051D01*
Y371949D02*
X346173D01*
X342827Y378051D02*
X346173D01*
X332803Y471449D02*
Y477551D01*
X336150Y471449D02*
Y477551D01*
X332803D02*
X336150D01*
X332803Y471449D02*
X336150D01*
X332803Y453449D02*
Y459551D01*
X336150Y453449D02*
Y459551D01*
X332803D02*
X336150D01*
X332803Y453449D02*
X336150D01*
X332803Y435449D02*
X336150D01*
X332803Y441551D02*
X336150D01*
Y435449D02*
Y441551D01*
X332803Y435449D02*
Y441551D01*
X332803Y416449D02*
Y422551D01*
X336150Y416449D02*
Y422551D01*
X332803D02*
X336150D01*
X332803Y416449D02*
X336150D01*
X346173Y382665D02*
Y388768D01*
X342827Y382665D02*
Y388768D01*
Y382665D02*
X346173D01*
X342827Y388768D02*
X346173D01*
X287673Y99949D02*
Y106051D01*
X284327Y99949D02*
Y106051D01*
Y99949D02*
X287673D01*
X284327Y106051D02*
X287673D01*
X276673Y99449D02*
Y105551D01*
X273327Y99449D02*
Y105551D01*
Y99449D02*
X276673D01*
X273327Y105551D02*
X276673D01*
X284327Y86949D02*
Y93051D01*
X287673Y86949D02*
Y93051D01*
X284327D02*
X287673D01*
X284327Y86949D02*
X287673D01*
X239327Y98165D02*
Y104268D01*
X242673Y98165D02*
Y104268D01*
X239327D02*
X242673D01*
X239327Y98165D02*
X242673D01*
X92598Y78791D02*
Y105209D01*
X64882D02*
X92598D01*
X64882Y78791D02*
X92598D01*
X64882D02*
Y105209D01*
X17449Y558827D02*
Y562173D01*
X23551Y558827D02*
Y562173D01*
X17449Y558827D02*
X23551D01*
X17449Y562173D02*
X23551D01*
X17449Y552827D02*
Y556173D01*
X23551Y552827D02*
Y556173D01*
X17449Y552827D02*
X23551D01*
X17449Y556173D02*
X23551D01*
X17449Y546827D02*
Y550173D01*
X23551Y546827D02*
Y550173D01*
X17449Y546827D02*
X23551D01*
X17449Y550173D02*
X23551D01*
X76673Y52732D02*
Y58835D01*
X73327Y52732D02*
Y58835D01*
Y52732D02*
X76673D01*
X73327Y58835D02*
X76673D01*
X136673Y52949D02*
Y59051D01*
X133327Y52949D02*
Y59051D01*
Y52949D02*
X136673D01*
X133327Y59051D02*
X136673D01*
X196673Y52949D02*
Y59051D01*
X193327Y52949D02*
Y59051D01*
Y52949D02*
X196673D01*
X193327Y59051D02*
X196673D01*
X50547Y26949D02*
Y33051D01*
X47201Y26949D02*
Y33051D01*
Y26949D02*
X50547D01*
X47201Y33051D02*
X50547D01*
X110547Y27949D02*
Y34051D01*
X107201Y27949D02*
Y34051D01*
Y27949D02*
X110547D01*
X107201Y34051D02*
X110547D01*
X169673Y27949D02*
Y34051D01*
X166327Y27949D02*
Y34051D01*
Y27949D02*
X169673D01*
X166327Y34051D02*
X169673D01*
X69327Y25949D02*
Y32051D01*
X72673Y25949D02*
Y32051D01*
X69327D02*
X72673D01*
X69327Y25949D02*
X72673D01*
X130327Y25949D02*
Y32051D01*
X133673Y25949D02*
Y32051D01*
X130327D02*
X133673D01*
X130327Y25949D02*
X133673D01*
X190827D02*
Y32051D01*
X194173Y25949D02*
Y32051D01*
X190827D02*
X194173D01*
X190827Y25949D02*
X194173D01*
X212303Y542449D02*
Y548551D01*
X215650Y542449D02*
Y548551D01*
X212303D02*
X215650D01*
X212303Y542449D02*
X215650D01*
X212303Y558949D02*
Y565051D01*
X215650Y558949D02*
Y565051D01*
X212303D02*
X215650D01*
X212303Y558949D02*
X215650D01*
X213303Y603949D02*
Y610051D01*
X216650Y603949D02*
Y610051D01*
X213303D02*
X216650D01*
X213303Y603949D02*
X216650D01*
X213303Y621449D02*
Y627551D01*
X216650Y621449D02*
Y627551D01*
X213303D02*
X216650D01*
X213303Y621449D02*
X216650D01*
X242150Y542449D02*
Y548551D01*
X238803Y542449D02*
Y548551D01*
Y542449D02*
X242150D01*
X238803Y548551D02*
X242150D01*
Y558949D02*
Y565051D01*
X238803Y558949D02*
Y565051D01*
Y558949D02*
X242150D01*
X238803Y565051D02*
X242150D01*
X242650Y603949D02*
Y610051D01*
X239303Y603949D02*
Y610051D01*
Y603949D02*
X242650D01*
X239303Y610051D02*
X242650D01*
Y620449D02*
Y626551D01*
X239303Y620449D02*
Y626551D01*
Y620449D02*
X242650D01*
X239303Y626551D02*
X242650D01*
X239650Y525449D02*
Y531551D01*
X236303Y525449D02*
Y531551D01*
Y525449D02*
X239650D01*
X236303Y531551D02*
X239650D01*
X237327Y588449D02*
X240673D01*
X237327Y594551D02*
X240673D01*
Y588449D02*
Y594551D01*
X237327Y588449D02*
Y594551D01*
X228425Y650173D02*
X234527D01*
X228425Y646827D02*
X234527D01*
Y650173D01*
X228425Y646827D02*
Y650173D01*
X233650Y525449D02*
Y531551D01*
X230303Y525449D02*
Y531551D01*
Y525449D02*
X233650D01*
X230303Y531551D02*
X233650D01*
X231327Y588449D02*
X234673D01*
X231327Y594551D02*
X234673D01*
Y588449D02*
Y594551D01*
X231327Y588449D02*
Y594551D01*
X4665Y645311D02*
X28287D01*
Y621689D02*
Y645311D01*
X4665Y621689D02*
X28287D01*
X4665D02*
Y645311D01*
X19866Y39268D02*
Y72732D01*
X6087Y39268D02*
Y72732D01*
X19866D01*
X6087Y39268D02*
X19866D01*
X315689Y372189D02*
X339311D01*
X315689D02*
Y395811D01*
X339311D01*
Y372189D02*
Y395811D01*
X50142Y17890D02*
X83606D01*
X50142Y4110D02*
X83606D01*
X50142D02*
Y17890D01*
X83606Y4110D02*
Y17890D01*
X214787Y510689D02*
Y534311D01*
X191165Y510689D02*
X214787D01*
X191165D02*
Y534311D01*
X214787D01*
X207744Y670610D02*
X241209D01*
X207744Y684390D02*
X241209D01*
Y670610D02*
Y684390D01*
X207744Y670610D02*
Y684390D01*
X55299Y142854D02*
X70653D01*
Y162146D01*
X55299D02*
X70653D01*
X55299Y142854D02*
Y162146D01*
X42177Y233354D02*
Y252646D01*
X26823Y233354D02*
X42177D01*
X26823D02*
Y252646D01*
X42177D01*
X172661Y411657D02*
Y431343D01*
X155339Y411657D02*
X172661D01*
X155339D02*
Y431343D01*
X172661D01*
X92000Y528500D02*
Y538500D01*
X122000Y528500D02*
Y538500D01*
X92000D02*
X122000D01*
X92000Y528500D02*
X122000D01*
X338197Y289205D02*
X343709D01*
X342724Y316764D02*
Y318732D01*
X339968D02*
X342724D01*
X339968Y316764D02*
Y318732D01*
X275795Y316764D02*
X339968D01*
X275795D02*
Y318732D01*
X273039D02*
X275795D01*
X273039Y316764D02*
Y318732D01*
X266543Y316764D02*
X273039D01*
X266543Y287236D02*
X272055D01*
Y289205D01*
X277173D01*
Y287236D02*
Y289205D01*
Y287236D02*
X338197D01*
Y289205D01*
X343709Y287236D02*
Y289205D01*
Y287236D02*
X349220D01*
Y316764D01*
X342724D02*
X349220D01*
X266543Y287236D02*
Y316764D01*
X10842Y218795D02*
X16354D01*
X11827Y189268D02*
Y191236D01*
Y189268D02*
X14583D01*
Y191236D01*
X78756D01*
Y189268D02*
Y191236D01*
Y189268D02*
X81512D01*
Y191236D01*
X88008D01*
X82496Y220764D02*
X88008D01*
X82496Y218795D02*
Y220764D01*
X77378Y218795D02*
X82496D01*
X77378D02*
Y220764D01*
X16354D02*
X77378D01*
X16354Y218795D02*
Y220764D01*
X10842Y218795D02*
Y220764D01*
X5331D02*
X10842D01*
X5331Y191236D02*
Y220764D01*
Y191236D02*
X11827D01*
X88008D02*
Y220764D01*
X90476Y666500D02*
X110476D01*
Y676500D01*
X90476D02*
X110476D01*
X90476Y666500D02*
Y676500D01*
X118976Y666500D02*
X138976D01*
Y676500D01*
X118976D02*
X138976D01*
X118976Y666500D02*
Y676500D01*
X147976Y666500D02*
X167976D01*
Y676500D01*
X147976D02*
X167976D01*
X147976Y666500D02*
Y676500D01*
X275500Y588500D02*
Y668500D01*
X295500D01*
Y588500D02*
Y668500D01*
X275500Y588500D02*
X295500D01*
X94476Y640500D02*
X124476D01*
X94476Y650500D02*
X124476D01*
Y640500D02*
Y650500D01*
X94476Y640500D02*
Y650500D01*
X91976Y616500D02*
X121976D01*
X91976Y606500D02*
X121976D01*
X91976D02*
Y616500D01*
X121976Y606500D02*
Y616500D01*
X91976Y598500D02*
X121976D01*
X91976Y588500D02*
X121976D01*
X91976D02*
Y598500D01*
X121976Y588500D02*
Y598500D01*
X26000Y567000D02*
Y577000D01*
X6000Y567000D02*
X26000D01*
X6000D02*
Y577000D01*
X26000D01*
X9252Y154602D02*
X15748D01*
X9252D02*
Y167398D01*
X15748D01*
Y154602D02*
Y167398D01*
X345248Y155602D02*
Y168398D01*
X338752D02*
X345248D01*
X338752Y155602D02*
Y168398D01*
Y155602D02*
X345248D01*
X126398Y183752D02*
Y190248D01*
X113602Y183752D02*
X126398D01*
X113602D02*
Y190248D01*
X126398D01*
X229602Y184752D02*
X242398D01*
Y191248D01*
X229602D02*
X242398D01*
X229602Y184752D02*
Y191248D01*
X298079Y471252D02*
X310874D01*
Y477748D01*
X298079D02*
X310874D01*
X298079Y471252D02*
Y477748D01*
Y459748D02*
X310874D01*
X298079Y453252D02*
Y459748D01*
Y453252D02*
X310874D01*
Y459748D01*
X298079Y441748D02*
X310874D01*
X298079Y435252D02*
Y441748D01*
Y435252D02*
X310874D01*
Y441748D01*
X298079Y423748D02*
X310874D01*
X298079Y417252D02*
Y423748D01*
Y417252D02*
X310874D01*
Y423748D01*
X227752Y89102D02*
X234248D01*
X227752D02*
Y101898D01*
X234248D01*
Y89102D02*
Y101898D01*
X114102Y293252D02*
X126898D01*
Y299748D01*
X114102D02*
X126898D01*
X114102Y293252D02*
Y299748D01*
X139248Y91602D02*
Y104398D01*
X132752D02*
X139248D01*
X132752Y91602D02*
Y104398D01*
Y91602D02*
X139248D01*
X47252Y85602D02*
X53748D01*
X47252D02*
Y98398D01*
X53748D01*
Y85602D02*
Y98398D01*
X106473Y153004D02*
Y165996D01*
X93480Y153004D02*
X106473D01*
X93480D02*
Y165996D01*
X106473D01*
X147943Y449527D02*
Y475944D01*
Y449527D02*
X175660D01*
X147943Y475944D02*
X175660D01*
Y449527D02*
Y475944D01*
X129449Y466827D02*
Y470173D01*
X135551Y466827D02*
Y470173D01*
X129449Y466827D02*
X135551D01*
X129449Y470173D02*
X135551D01*
X123551Y471827D02*
Y475173D01*
X117449Y471827D02*
Y475173D01*
X123551D01*
X117449Y471827D02*
X123551D01*
X118201Y461906D02*
X124500D01*
Y465095D01*
X118201D02*
X124500D01*
X118201Y461906D02*
Y465095D01*
X22925Y136150D02*
X26075D01*
X22925Y129850D02*
X26075D01*
Y136150D01*
X22925Y129850D02*
Y136150D01*
X319925Y129350D02*
Y135650D01*
X323075Y129350D02*
Y135650D01*
X319925Y129350D02*
X323075D01*
X319925Y135650D02*
X323075D01*
X40941Y605945D02*
X46059D01*
X40941Y599055D02*
Y605945D01*
Y599055D02*
X46059D01*
Y605945D01*
X36941Y142291D02*
Y153709D01*
X42059D01*
Y142291D02*
Y153709D01*
X36941Y142291D02*
X42059D01*
X47059Y127791D02*
Y139209D01*
X41941Y127791D02*
X47059D01*
X41941D02*
Y139209D01*
X47059D01*
X312890Y168449D02*
X318008D01*
X312890Y157032D02*
Y168449D01*
Y157032D02*
X318008D01*
Y168449D01*
X312890Y142291D02*
X318008D01*
Y153709D01*
X312890D02*
X318008D01*
X312890Y142291D02*
Y153709D01*
X334791Y255441D02*
Y260559D01*
Y255441D02*
X346209D01*
Y260559D01*
X334791D02*
X346209D01*
X349209Y237941D02*
Y243059D01*
X337791D02*
X349209D01*
X337791Y237941D02*
Y243059D01*
Y237941D02*
X349209D01*
X79642Y136827D02*
X85744D01*
X79642Y140173D02*
X85744D01*
X79642Y136827D02*
Y140173D01*
X85744Y136827D02*
Y140173D01*
X69709Y136827D02*
X75811D01*
X69709Y140173D02*
X75811D01*
X69709Y136827D02*
Y140173D01*
X75811Y136827D02*
Y140173D01*
X23327Y171051D02*
X26673D01*
X23327Y164949D02*
X26673D01*
X23327D02*
Y171051D01*
X26673Y164949D02*
Y171051D01*
X22827Y141665D02*
Y147768D01*
X26173Y141665D02*
Y147768D01*
X22827D02*
X26173D01*
X22827Y141665D02*
X26173D01*
X309449Y171327D02*
X315551D01*
X309449Y174673D02*
X315551D01*
X309449Y171327D02*
Y174673D01*
X315551Y171327D02*
Y174673D01*
X330827Y135551D02*
X334173D01*
X330827Y129449D02*
X334173D01*
X330827D02*
Y135551D01*
X334173Y129449D02*
Y135551D01*
X4000Y528524D02*
X24000D01*
X4000Y518524D02*
Y528524D01*
Y518524D02*
X24000D01*
Y528524D01*
X234551Y640327D02*
Y643673D01*
X228449Y640327D02*
Y643673D01*
X234551D01*
X228449Y640327D02*
X234551D01*
X270406Y374500D02*
X273594D01*
X270406D02*
Y380799D01*
X273594D01*
Y374500D02*
Y380799D01*
X238102Y288748D02*
X250898D01*
X238102Y282252D02*
Y288748D01*
Y282252D02*
X250898D01*
Y288748D01*
X149752Y301898D02*
X156248D01*
Y289102D02*
Y301898D01*
X149752Y289102D02*
X156248D01*
X149752D02*
Y301898D01*
X97248Y501602D02*
Y514398D01*
X90752D02*
X97248D01*
X90752Y501602D02*
Y514398D01*
Y501602D02*
X97248D01*
X319898Y7752D02*
Y14248D01*
X307102Y7752D02*
X319898D01*
X307102D02*
Y14248D01*
X319898D01*
X182500Y87000D02*
Y107000D01*
Y87000D02*
X192500D01*
Y107000D01*
X182500D02*
X192500D01*
X173094Y368350D02*
Y374650D01*
X169905D02*
X173094D01*
X169905Y368350D02*
Y374650D01*
Y368350D02*
X173094D01*
X187350Y348701D02*
Y361299D01*
Y348701D02*
X193650D01*
Y361299D01*
X187350D02*
X193650D01*
X197350Y348701D02*
Y361299D01*
Y348701D02*
X203650D01*
Y361299D01*
X197350D02*
X203650D01*
X140650Y363992D02*
Y376590D01*
X134350D02*
X140650D01*
X134350Y363992D02*
Y376590D01*
Y363992D02*
X140650D01*
X152449Y381327D02*
Y384673D01*
X158551Y381327D02*
Y384673D01*
X152449Y381327D02*
X158551D01*
X152449Y384673D02*
X158551D01*
X180551Y381327D02*
Y384673D01*
X174449Y381327D02*
Y384673D01*
X180551D01*
X174449Y381327D02*
X180551D01*
X229949Y356827D02*
Y360173D01*
X236051Y356827D02*
Y360173D01*
X229949Y356827D02*
X236051D01*
X229949Y360173D02*
X236051D01*
X217732Y356827D02*
Y360173D01*
X223835Y356827D02*
Y360173D01*
X217732Y356827D02*
X223835D01*
X217732Y360173D02*
X223835D01*
X163949Y381327D02*
Y384673D01*
X170051Y381327D02*
Y384673D01*
X163949Y381327D02*
X170051D01*
X163949Y384673D02*
X170051D01*
X90252Y305602D02*
X96748D01*
X90252D02*
Y318398D01*
X96748D01*
Y305602D02*
Y318398D01*
X197300Y180500D02*
Y190500D01*
X217300D01*
Y180500D02*
Y190500D01*
X197300Y180500D02*
X217300D01*
X186500Y180000D02*
Y190000D01*
X166500Y180000D02*
X186500D01*
X166500D02*
Y190000D01*
X186500D01*
X180740Y212000D02*
X193260D01*
X180740D02*
Y237000D01*
X193260D01*
Y212000D02*
Y237000D01*
X126600Y256226D02*
Y257275D01*
X126075Y257800D01*
X125550Y257275D01*
Y256226D01*
X126400Y259526D02*
X125875D01*
X126138D01*
Y261100D01*
X126400D01*
X125875D01*
X116800Y259426D02*
X116275D01*
X116538D01*
Y261000D01*
X116800D01*
X116275D01*
X117100Y256026D02*
Y257075D01*
X116575Y257600D01*
X116051Y257075D01*
Y256026D01*
X25750Y91900D02*
Y93474D01*
X26537Y94261D01*
X27324Y93474D01*
Y91900D01*
Y93081D01*
X25750D01*
X21950Y94161D02*
Y91800D01*
Y92587D01*
X23524Y94161D01*
X22343Y92981D01*
X23524Y91800D01*
X16800Y366419D02*
X15226D01*
X44600Y366519D02*
X43026D01*
X43813Y365732D02*
Y367306D01*
X239800Y319919D02*
X238226D01*
X239013Y319132D02*
Y320706D01*
X225000Y320019D02*
X223426D01*
X136500Y225481D02*
X138074D01*
X121700Y225581D02*
X123274D01*
X122487Y226368D02*
Y224794D01*
X218000Y225519D02*
X216426D01*
X232800Y225419D02*
X231226D01*
X232013Y224632D02*
Y226206D01*
X345576Y475600D02*
X344002D01*
X343215Y476387D01*
X344002Y477174D01*
X345576D01*
X344396D01*
Y475600D01*
X343315Y471800D02*
X345676D01*
X344889D01*
X343315Y473374D01*
X344496Y472194D01*
X345676Y473374D01*
X343315Y453800D02*
X345676D01*
X344889D01*
X343315Y455374D01*
X344496Y454194D01*
X345676Y455374D01*
X345576Y457600D02*
X344002D01*
X343215Y458387D01*
X344002Y459174D01*
X345576D01*
X344396D01*
Y457600D01*
X345576Y439600D02*
X344002D01*
X343215Y440387D01*
X344002Y441174D01*
X345576D01*
X344396D01*
Y439600D01*
X343315Y435800D02*
X345676D01*
X344889D01*
X343315Y437374D01*
X344496Y436194D01*
X345676Y437374D01*
X345576Y421600D02*
X344002D01*
X343215Y422387D01*
X344002Y423174D01*
X345576D01*
X344396D01*
Y421600D01*
X343315Y417800D02*
X345676D01*
X344889D01*
X343315Y419374D01*
X344496Y418194D01*
X345676Y419374D01*
X87100Y56950D02*
X85526D01*
X84738Y57737D01*
X85526Y58525D01*
X87100D01*
X85919D01*
Y56950D01*
X84838Y53150D02*
X87200D01*
X86413D01*
X84838Y54725D01*
X86019Y53544D01*
X87200Y54725D01*
X147226Y57100D02*
X145652D01*
X144864Y57887D01*
X145652Y58674D01*
X147226D01*
X146045D01*
Y57100D01*
X144965Y53300D02*
X147326D01*
X146539D01*
X144965Y54874D01*
X146145Y53694D01*
X147326Y54874D01*
X207600Y56950D02*
X206026D01*
X205239Y57737D01*
X206026Y58525D01*
X207600D01*
X206419D01*
Y56950D01*
X205339Y53150D02*
X207700D01*
X206913D01*
X205339Y54725D01*
X206519Y53544D01*
X207700Y54725D01*
X203576Y546600D02*
X202002D01*
X201215Y547387D01*
X202002Y548174D01*
X203576D01*
X202396D01*
Y546600D01*
X201315Y542800D02*
X203676D01*
X202889D01*
X201315Y544374D01*
X202496Y543194D01*
X203676Y544374D01*
X203576Y563100D02*
X202002D01*
X201215Y563887D01*
X202002Y564674D01*
X203576D01*
X202396D01*
Y563100D01*
X201315Y559300D02*
X203676D01*
X202889D01*
X201315Y560874D01*
X202496Y559694D01*
X203676Y560874D01*
X204076Y609100D02*
X202502D01*
X201715Y609887D01*
X202502Y610674D01*
X204076D01*
X202896D01*
Y609100D01*
X201815Y605300D02*
X204176D01*
X203389D01*
X201815Y606874D01*
X202996Y605694D01*
X204176Y606874D01*
X204076Y625600D02*
X202502D01*
X201715Y626387D01*
X202502Y627174D01*
X204076D01*
X202896D01*
Y625600D01*
X201815Y621800D02*
X204176D01*
X203389D01*
X201815Y623374D01*
X202996Y622194D01*
X204176Y623374D01*
X300774Y99600D02*
X299725D01*
X299200Y99075D01*
X299725Y98550D01*
X300774D01*
X297474Y99400D02*
Y98875D01*
Y99138D01*
X295900D01*
Y99400D01*
Y98875D01*
X297574Y89800D02*
Y89275D01*
Y89538D01*
X296000D01*
Y89800D01*
Y89275D01*
X300974Y90100D02*
X299925D01*
X299400Y89575D01*
X299925Y89051D01*
X300974D01*
X139400Y151974D02*
Y150925D01*
X139925Y150400D01*
X140450Y150925D01*
Y151974D01*
X139700Y148574D02*
X140225D01*
X139962D01*
Y147000D01*
X139700D01*
X140225D01*
X130100Y148474D02*
X130625D01*
X130362D01*
Y146900D01*
X130100D01*
X130625D01*
X129900Y151774D02*
Y150725D01*
X130425Y150200D01*
X130949Y150725D01*
Y151774D01*
X207474Y94100D02*
X206425D01*
X205900Y93575D01*
X206425Y93050D01*
X207474D01*
X204074Y93800D02*
Y93275D01*
Y93538D01*
X202500D01*
Y93800D01*
Y93275D01*
X203974Y103400D02*
Y102875D01*
Y103138D01*
X202400D01*
Y103400D01*
Y102875D01*
X207274Y103600D02*
X206225D01*
X205700Y103075D01*
X206225Y102550D01*
X207274D01*
M02*
