G04*
G04 #@! TF.GenerationSoftware,Altium Limited,Altium Designer,22.2.1 (43)*
G04*
G04 Layer_Color=255*
%FSLAX25Y25*%
%MOIN*%
G70*
G04*
G04 #@! TF.SameCoordinates,5435AC76-14FC-4701-A4E6-3609E34239AB*
G04*
G04*
G04 #@! TF.FilePolarity,Positive*
G04*
G01*
G75*
%ADD14R,0.06299X0.04724*%
%ADD16R,0.03937X0.02362*%
%ADD17R,0.04134X0.07087*%
%ADD18R,0.03150X0.03543*%
%ADD19R,0.02362X0.04134*%
%ADD20R,0.07087X0.04134*%
%ADD21R,0.03150X0.03150*%
%ADD22R,0.02362X0.03937*%
%ADD23R,0.08661X0.04724*%
%ADD24R,0.25197X0.22835*%
%ADD26C,0.05512*%
%ADD27R,0.05512X0.05512*%
%ADD28R,0.08268X0.08268*%
%ADD29C,0.08268*%
%ADD30R,0.06693X0.06693*%
%ADD31C,0.06693*%
%ADD32C,0.08661*%
%ADD33R,0.06693X0.06693*%
%ADD34C,0.03937*%
D14*
X5906Y48425D02*
D03*
Y68110D02*
D03*
X16929Y58268D02*
D03*
D16*
X105709Y164764D02*
D03*
Y157283D02*
D03*
X114764Y161024D02*
D03*
X94291Y141339D02*
D03*
X85236Y137598D02*
D03*
Y145079D02*
D03*
D17*
X57087Y178740D02*
D03*
X68898D02*
D03*
X98032Y160630D02*
D03*
X86221D02*
D03*
X80709Y178740D02*
D03*
X92520D02*
D03*
X59842Y160630D02*
D03*
X71653D02*
D03*
X47244D02*
D03*
X35433D02*
D03*
X65354Y141339D02*
D03*
X53543D02*
D03*
X68504Y90551D02*
D03*
X56693D02*
D03*
X28346Y141339D02*
D03*
X40157D02*
D03*
D18*
X111417Y171653D02*
D03*
X107480Y180315D02*
D03*
X115354D02*
D03*
D19*
X36614Y176772D02*
D03*
X44094D02*
D03*
X40354Y185827D02*
D03*
D20*
X35039Y54331D02*
D03*
Y42520D02*
D03*
D21*
X27559Y63386D02*
D03*
Y69685D02*
D03*
D22*
X62205Y108858D02*
D03*
X65945Y99803D02*
D03*
X58465D02*
D03*
D23*
X47244Y104646D02*
D03*
Y86693D02*
D03*
X118504Y153858D02*
D03*
Y135906D02*
D03*
D24*
X22441Y95669D02*
D03*
X143307Y144882D02*
D03*
D26*
X118504Y52756D02*
D03*
D27*
Y72441D02*
D03*
D28*
X5906Y136614D02*
D03*
X4921Y102756D02*
D03*
D29*
X74803Y136614D02*
D03*
X73819Y102756D02*
D03*
D30*
X153150Y65630D02*
D03*
D31*
Y55630D02*
D03*
X103150Y5512D02*
D03*
X113150D02*
D03*
X123150D02*
D03*
D32*
X53150Y6693D02*
D03*
X72047Y7087D02*
D03*
X35039Y6693D02*
D03*
D33*
X93150Y5512D02*
D03*
D34*
X15748Y148031D02*
D03*
X131496Y181890D02*
D03*
X131102Y50000D02*
D03*
M02*
