G04*
G04 #@! TF.GenerationSoftware,Altium Limited,Altium Designer,22.2.1 (43)*
G04*
G04 Layer_Color=0*
%FSLAX25Y25*%
%MOIN*%
G70*
G04*
G04 #@! TF.SameCoordinates,5435AC76-14FC-4701-A4E6-3609E34239AB*
G04*
G04*
G04 #@! TF.FilePolarity,Positive*
G04*
G01*
G75*
%ADD48C,0.00394*%
D48*
X81102Y167717D02*
X85039D01*
X83071Y165748D02*
Y169685D01*
X74016Y163189D02*
Y172244D01*
Y163189D02*
X92126D01*
Y172244D01*
X74016D02*
X92126D01*
X116535Y111811D02*
X120472D01*
X118504Y109843D02*
Y113779D01*
X145276Y89173D02*
Y134449D01*
X91732D02*
X145276D01*
X91732Y89173D02*
Y134449D01*
Y89173D02*
X145276D01*
X55905Y187008D02*
X59842D01*
X57874Y185039D02*
Y188976D01*
X66929Y182480D02*
Y191535D01*
X48819D02*
X66929D01*
X48819Y182480D02*
Y191535D01*
Y182480D02*
X66929D01*
X60236Y161417D02*
Y165354D01*
X58268Y163386D02*
X62205D01*
X55709Y154331D02*
X64764D01*
Y172441D01*
X55709D02*
X64764D01*
X55709Y154331D02*
Y172441D01*
X38386Y136614D02*
X42323D01*
X40354Y134646D02*
Y138583D01*
X-197Y119882D02*
X88779D01*
X-197D02*
Y155315D01*
X88779Y119882D02*
Y155315D01*
X-197D02*
X88779D01*
X-1181Y86024D02*
X87795D01*
X-1181D02*
Y121457D01*
X87795Y86024D02*
Y121457D01*
X-1181D02*
X87795D01*
X39370Y100787D02*
Y104724D01*
X37402Y102756D02*
X41339D01*
X106693Y55905D02*
Y59842D01*
X104724Y57874D02*
X108661D01*
X101969Y48622D02*
X111417D01*
Y67126D01*
X101969D02*
X111417D01*
X101969Y48622D02*
Y67126D01*
X67913Y193504D02*
X96653D01*
Y171850D02*
Y193504D01*
X67913Y171850D02*
X96653D01*
X67913D02*
Y193504D01*
X82284Y180709D02*
Y184646D01*
X80315Y182677D02*
X84252D01*
X114075Y163386D02*
Y167323D01*
X112106Y165354D02*
X116043D01*
X101476Y156693D02*
Y174016D01*
X101476Y156693D02*
X126673D01*
X101476Y174016D02*
X126673D01*
X126673Y156693D02*
Y174016D01*
X103543Y179134D02*
X107480D01*
X105512Y177165D02*
Y181102D01*
X114567Y174606D02*
Y183661D01*
X96457D02*
X114567D01*
X96457Y174606D02*
Y183661D01*
Y174606D02*
X114567D01*
X49213Y183268D02*
X67323D01*
Y174213D02*
Y183268D01*
X49213Y174213D02*
X67323D01*
X49213D02*
Y183268D01*
X58268Y176772D02*
Y180709D01*
X56299Y178740D02*
X60236D01*
X97047Y48819D02*
Y66929D01*
X87992Y48819D02*
X97047D01*
X87992D02*
Y66929D01*
X97047D01*
X90551Y57874D02*
X94488D01*
X92520Y55905D02*
Y59842D01*
X83465Y38386D02*
Y76575D01*
X56693Y38386D02*
X83465D01*
X56693D02*
Y76575D01*
X83465D01*
X68110Y57480D02*
X72047D01*
X70079Y55512D02*
Y59449D01*
M02*
