G04*
G04 #@! TF.GenerationSoftware,Altium Limited,Altium Designer,22.2.1 (43)*
G04*
G04 Layer_Physical_Order=2*
G04 Layer_Color=16711680*
%FSLAX25Y25*%
%MOIN*%
G70*
G04*
G04 #@! TF.SameCoordinates,5435AC76-14FC-4701-A4E6-3609E34239AB*
G04*
G04*
G04 #@! TF.FilePolarity,Positive*
G04*
G01*
G75*
%ADD12C,0.01181*%
%ADD17R,0.04134X0.07087*%
%ADD20R,0.07087X0.04134*%
%ADD26C,0.05512*%
%ADD27R,0.05512X0.05512*%
%ADD28R,0.08268X0.08268*%
%ADD29C,0.08268*%
%ADD30R,0.06693X0.06693*%
%ADD31C,0.06693*%
%ADD32C,0.08661*%
%ADD33R,0.06693X0.06693*%
%ADD36C,0.03937*%
%ADD37C,0.01968*%
%ADD38C,0.03543*%
%ADD39C,0.03150*%
%ADD40R,0.16142X0.08268*%
%ADD41R,0.07480X0.05118*%
%ADD42R,0.05906X0.02362*%
%ADD43R,0.06890X0.04331*%
%ADD44R,0.04724X0.07087*%
%ADD45R,0.07087X0.04724*%
%ADD46R,0.12402X0.08661*%
%ADD47C,0.07874*%
G36*
X159843Y185951D02*
Y168128D01*
X159464Y167984D01*
X159343Y167975D01*
X158893Y168424D01*
X158309Y168761D01*
X157715Y168921D01*
Y166377D01*
X157322D01*
Y165983D01*
X154778D01*
X154937Y165389D01*
X155274Y164805D01*
X155682Y164397D01*
X155628Y164119D01*
X155499Y163897D01*
X134950D01*
Y177165D01*
X134950Y177165D01*
X134837Y177734D01*
X134515Y178216D01*
X134515Y178216D01*
X125866Y186864D01*
Y187454D01*
X125524Y188279D01*
X124893Y188910D01*
X124068Y189252D01*
X123176D01*
X122351Y188910D01*
X121720Y188279D01*
X121378Y187454D01*
Y186562D01*
X121720Y185737D01*
X122351Y185105D01*
X123176Y184764D01*
X123766D01*
X127306Y181224D01*
X127156Y180666D01*
X126806Y180572D01*
X126223Y180236D01*
X125746Y179759D01*
X125409Y179175D01*
X125250Y178581D01*
X127794D01*
Y178188D01*
X128188D01*
Y175644D01*
X128782Y175803D01*
X129365Y176140D01*
X129842Y176616D01*
X130179Y177200D01*
X130272Y177550D01*
X130830Y177699D01*
X131979Y176550D01*
Y163897D01*
X131006D01*
X130973Y163884D01*
X130939Y163893D01*
X130796Y163811D01*
X130644Y163747D01*
X130489Y163724D01*
X130068Y163826D01*
X129713Y164358D01*
X128905Y164898D01*
X127953Y165087D01*
X127953Y165087D01*
X123682D01*
X123406Y165472D01*
X123406Y165736D01*
Y170748D01*
X117718D01*
Y193602D01*
X117718Y193602D01*
X117635Y194017D01*
X117400Y194369D01*
X117400Y194369D01*
X112184Y199585D01*
X111832Y199820D01*
X111417Y199903D01*
X42913D01*
X42913Y199903D01*
X42499Y199820D01*
X42147Y199585D01*
X42147Y199585D01*
X41455Y198893D01*
X41220Y198542D01*
X41138Y198127D01*
Y170377D01*
X41220Y169962D01*
X41455Y169611D01*
X55533Y155533D01*
X55884Y155298D01*
X56221Y155231D01*
Y154941D01*
X64252D01*
Y160020D01*
X56221D01*
Y158564D01*
X55759Y158373D01*
X50814Y163318D01*
X51021Y163818D01*
X51359D01*
X52010Y163992D01*
X52594Y164329D01*
X53070Y164805D01*
X53407Y165389D01*
X53566Y165983D01*
X51022D01*
Y166377D01*
X50629D01*
Y168921D01*
X50035Y168761D01*
X49451Y168424D01*
X48975Y167948D01*
X48638Y167365D01*
X48463Y166714D01*
Y166375D01*
X47963Y166168D01*
X43305Y170826D01*
Y197678D01*
X43362Y197735D01*
X110968D01*
X115550Y193153D01*
Y169685D01*
X115571Y169580D01*
Y165736D01*
X115571Y165472D01*
X115571Y164972D01*
Y159961D01*
X117663D01*
X117998Y159461D01*
X117993Y159449D01*
X117992Y136221D01*
X118142Y135859D01*
X137122Y116879D01*
X136931Y116417D01*
X130213D01*
X111150Y135480D01*
Y159961D01*
X112579D01*
Y164972D01*
X112579Y165236D01*
X112579Y165736D01*
Y170748D01*
X107383D01*
Y174584D01*
X107874Y174606D01*
X107883Y174606D01*
X110827D01*
Y179134D01*
Y183661D01*
X107883D01*
X107874Y183661D01*
X107383Y183683D01*
Y194190D01*
X107383Y194190D01*
X107300Y194605D01*
X107066Y194956D01*
X107066Y194956D01*
X106374Y195648D01*
X106022Y195883D01*
X105607Y195966D01*
X58172D01*
X58172Y195966D01*
X57757Y195883D01*
X57406Y195648D01*
X57406Y195648D01*
X56714Y194956D01*
X56479Y194605D01*
X56397Y194190D01*
Y181456D01*
X56340Y181399D01*
X54902D01*
Y182480D01*
X55020D01*
Y186614D01*
X51968D01*
X48917D01*
Y182480D01*
X49823D01*
Y174724D01*
X54902D01*
Y179231D01*
X56788D01*
X57203Y179314D01*
X57555Y179549D01*
X58247Y180240D01*
X58247Y180240D01*
X58482Y180592D01*
X58564Y181007D01*
X58564Y181007D01*
Y193741D01*
X58621Y193798D01*
X105158D01*
X105215Y193741D01*
Y170748D01*
X104744D01*
Y165736D01*
X104744Y165472D01*
X104744Y164972D01*
Y159961D01*
X106173D01*
Y134449D01*
X106362Y133496D01*
X106902Y132689D01*
X125981Y113610D01*
X125774Y113110D01*
X119291D01*
X118930Y112960D01*
X101326Y95356D01*
X100826Y95563D01*
Y95847D01*
X100651Y96498D01*
X100314Y97082D01*
X99838Y97558D01*
X99254Y97895D01*
X98660Y98054D01*
Y95511D01*
X98267D01*
Y95117D01*
X95723D01*
X95882Y94523D01*
X96219Y93939D01*
X96695Y93463D01*
X97279Y93126D01*
X97930Y92952D01*
X98214D01*
X98421Y92452D01*
X82465Y76496D01*
X77264D01*
X76902Y76346D01*
X76902Y76346D01*
X76752Y76063D01*
X63406D01*
X63255Y76346D01*
X63255Y76346D01*
X62894Y76496D01*
X55905D01*
X55874Y76482D01*
X55374Y76817D01*
Y81142D01*
X55807Y81392D01*
X55940Y81315D01*
X56534Y81156D01*
Y83700D01*
Y86243D01*
X55940Y86084D01*
X55807Y86007D01*
X55374Y86257D01*
Y143307D01*
X56653Y144586D01*
X62232D01*
X62646Y144668D01*
X62998Y144903D01*
X84728Y166633D01*
X86437D01*
Y163701D01*
X91516D01*
Y171732D01*
X90060D01*
Y173280D01*
X90060Y173280D01*
X90260Y173524D01*
X96142D01*
Y176831D01*
X89291D01*
Y175151D01*
X88829Y174960D01*
X87698Y176091D01*
Y184292D01*
X87755Y184349D01*
X89291D01*
Y183524D01*
X96142D01*
Y186831D01*
X89291D01*
Y186517D01*
X87306D01*
X87306Y186517D01*
X86891Y186434D01*
X86540Y186199D01*
X86540Y186199D01*
X85848Y185508D01*
X85613Y185156D01*
X85530Y184741D01*
Y175642D01*
X85613Y175228D01*
X85848Y174876D01*
X87893Y172831D01*
Y171732D01*
X86437D01*
Y168800D01*
X84279D01*
X84279Y168800D01*
X83864Y168718D01*
X83513Y168483D01*
X83513Y168483D01*
X80167Y165137D01*
X79705Y165328D01*
Y171732D01*
X75794D01*
X75689Y171753D01*
X69150D01*
X66733Y174169D01*
Y177264D01*
X66733Y177264D01*
X67076Y177656D01*
X68642D01*
X69056Y177739D01*
X69408Y177974D01*
X69958Y178524D01*
X75276D01*
Y181831D01*
X68425D01*
Y180056D01*
X68193Y179824D01*
X66713D01*
X66713Y182756D01*
X66319Y183012D01*
X66319Y183256D01*
Y185924D01*
X67799D01*
X68425Y185298D01*
Y183524D01*
X75276D01*
Y186831D01*
X69958D01*
X69277Y187512D01*
X69484Y188012D01*
X71457D01*
Y189784D01*
X67913D01*
Y188092D01*
X66319D01*
Y191024D01*
X61240D01*
Y187400D01*
X60236D01*
X59821Y187317D01*
X59470Y187082D01*
X59235Y186731D01*
X59152Y186316D01*
Y171831D01*
X56221D01*
Y166752D01*
X64252D01*
Y171831D01*
X61320D01*
Y174354D01*
X61634Y174724D01*
X61820Y174724D01*
X64566D01*
Y173721D01*
X64648Y173306D01*
X64883Y172954D01*
X67934Y169903D01*
X68286Y169668D01*
X68701Y169586D01*
X74626D01*
Y163701D01*
X78077D01*
X78268Y163239D01*
X61783Y146753D01*
X56204D01*
X55789Y146671D01*
X55437Y146436D01*
X53524Y144522D01*
X53289Y144170D01*
X53206Y143756D01*
Y97653D01*
X52706Y97446D01*
X52594Y97558D01*
X52010Y97895D01*
X51416Y98054D01*
Y95511D01*
Y92967D01*
X52010Y93126D01*
X52594Y93463D01*
X52706Y93575D01*
X53206Y93368D01*
Y11496D01*
X52517D01*
X51296Y11169D01*
X50200Y10536D01*
X49306Y9642D01*
X48674Y8547D01*
X48346Y7325D01*
Y6061D01*
X48674Y4839D01*
X49306Y3744D01*
X50200Y2849D01*
X51296Y2217D01*
X52517Y1890D01*
X53782D01*
X55003Y2217D01*
X55694Y2616D01*
X57506Y804D01*
X57298Y304D01*
X14657D01*
X304Y14657D01*
Y97638D01*
X4528D01*
Y102756D01*
Y107874D01*
X304D01*
Y186131D01*
X17323Y203150D01*
X142913D01*
X159843Y185951D01*
D02*
G37*
G36*
X158268Y70472D02*
X157925Y70129D01*
X157480Y69961D01*
Y69961D01*
X157480Y69961D01*
X153543D01*
Y65630D01*
X152756D01*
Y69961D01*
X148819D01*
Y66535D01*
X115354D01*
Y68701D01*
X118110D01*
Y72441D01*
Y76181D01*
X115857D01*
X115643Y76681D01*
X146063Y108661D01*
X143780Y110945D01*
Y116417D01*
X138307D01*
X118504Y136221D01*
X118504Y159449D01*
X119095D01*
Y162598D01*
X119488D01*
Y162992D01*
X123917D01*
Y163386D01*
X124900D01*
X125202Y162992D01*
X130703D01*
X131006Y163386D01*
X131979D01*
Y129247D01*
X131562Y128830D01*
X131220Y128005D01*
Y127113D01*
X131562Y126288D01*
X132193Y125657D01*
X133018Y125315D01*
X133911D01*
X134736Y125657D01*
X135367Y126288D01*
X135709Y127113D01*
Y128005D01*
X135367Y128830D01*
X134950Y129247D01*
Y163386D01*
X158268D01*
Y70472D01*
D02*
G37*
G36*
X126181Y112205D02*
X135236D01*
Y111811D01*
X135630D01*
Y106693D01*
X136748D01*
X136940Y106231D01*
X109055Y78347D01*
Y67126D01*
X107087D01*
Y63583D01*
X106693D01*
Y63189D01*
X101969D01*
Y60630D01*
X97047D01*
Y63189D01*
X92520D01*
X87992D01*
Y60630D01*
X66929D01*
X55905Y71653D01*
Y75984D01*
X62894D01*
Y71654D01*
X70079D01*
Y71260D01*
D01*
Y71654D01*
X77264D01*
Y75984D01*
X82677D01*
X119291Y112598D01*
X126181D01*
Y112205D01*
D02*
G37*
G36*
X159464Y164769D02*
X159843Y164625D01*
Y55313D01*
X159343Y55117D01*
X159241Y55159D01*
X159068Y55236D01*
X157414Y55277D01*
X157082Y55491D01*
X156968Y55640D01*
Y56133D01*
X156708Y57104D01*
X156205Y57975D01*
X155494Y58686D01*
X154624Y59189D01*
X153652Y59449D01*
X152647D01*
X151676Y59189D01*
X150805Y58686D01*
X150094Y57975D01*
X149591Y57104D01*
X149331Y56133D01*
Y55821D01*
X149168Y55648D01*
X148859Y55494D01*
X148831Y55492D01*
X131797Y55917D01*
X131790Y55915D01*
X131784Y55918D01*
X131609Y55845D01*
X131432Y55777D01*
X131429Y55770D01*
X131422Y55768D01*
X116100Y40446D01*
X115638Y40637D01*
Y49679D01*
X116100Y49870D01*
X116207Y49763D01*
X117060Y49271D01*
X118011Y49016D01*
X118110D01*
Y52756D01*
Y56496D01*
X118011D01*
X117060Y56241D01*
X116207Y55749D01*
X116110Y55651D01*
X115568Y55816D01*
X115449Y56412D01*
X114927Y57193D01*
X114950Y57279D01*
X115198Y57639D01*
X115589Y57534D01*
Y60078D01*
Y62621D01*
X114995Y62462D01*
X114412Y62125D01*
X113935Y61649D01*
X113918Y61619D01*
X113422Y61554D01*
X110906Y64071D01*
Y66614D01*
X109896D01*
X109562Y67114D01*
X109566Y67126D01*
Y78135D01*
X137301Y105869D01*
X137340Y105963D01*
X137412Y106035D01*
Y106137D01*
X137451Y106231D01*
X137412Y106325D01*
Y106427D01*
X137297Y106705D01*
X137532Y107155D01*
X137590Y107205D01*
X143281D01*
X143496Y106705D01*
X115272Y77034D01*
X115237Y76942D01*
X115168Y76871D01*
X115169Y76766D01*
X115131Y76668D01*
X115172Y76578D01*
X115173Y76480D01*
X115306Y76169D01*
X115276Y75669D01*
X115276Y75448D01*
Y69213D01*
X114993Y69062D01*
X114993Y69062D01*
X114843Y68701D01*
Y66535D01*
X114993Y66174D01*
X115354Y66024D01*
X148819D01*
X148831Y66029D01*
X149331Y65695D01*
Y61811D01*
X156968D01*
Y69449D01*
X157468Y69449D01*
X157480D01*
X157568Y69485D01*
X157662Y69483D01*
X158106Y69651D01*
X158186Y69726D01*
X158286Y69768D01*
X158629Y70111D01*
X158779Y70472D01*
Y163386D01*
X158629Y163747D01*
X158742Y164242D01*
X158893Y164329D01*
X159343Y164779D01*
X159464Y164769D01*
D02*
G37*
G36*
X66567Y60268D02*
X66929Y60119D01*
X87992D01*
X88354Y60268D01*
X88503Y60630D01*
Y60633D01*
X88504Y60748D01*
X96535D01*
X96536Y60633D01*
Y60630D01*
X96686Y60268D01*
X97047Y60119D01*
X101969D01*
X102330Y60268D01*
X102330Y60268D01*
X102480Y60551D01*
X107386D01*
X109478Y58459D01*
Y56642D01*
X109587Y56095D01*
X109270Y55709D01*
X107087D01*
Y52165D01*
Y48622D01*
X110661D01*
Y36338D01*
X66535D01*
X66174Y36188D01*
X66024Y35827D01*
Y15315D01*
X66024Y15314D01*
X66024Y15314D01*
X66099Y15134D01*
X66174Y14953D01*
X66174Y14953D01*
X66175Y14953D01*
X66529Y14600D01*
X66530Y14600D01*
X66530Y14599D01*
X66713Y14524D01*
X66891Y14451D01*
X66891Y14451D01*
X66892Y14451D01*
X67245Y14452D01*
X67600Y14099D01*
Y8990D01*
X67571Y8941D01*
X67244Y7719D01*
Y6454D01*
X67571Y5233D01*
X68204Y4137D01*
X69098Y3243D01*
X70063Y2686D01*
X69929Y2186D01*
X59189D01*
X57227Y4149D01*
X57625Y4839D01*
X57953Y6061D01*
Y7325D01*
X57625Y8547D01*
X56993Y9642D01*
X56861Y9774D01*
X57068Y10274D01*
X57265D01*
X57916Y10449D01*
X58499Y10786D01*
X58976Y11262D01*
X59313Y11846D01*
X59472Y12440D01*
X56928D01*
Y12833D01*
X56534D01*
Y15377D01*
X55940Y15218D01*
X55807Y15141D01*
X55374Y15391D01*
Y33898D01*
X55807Y34148D01*
X55940Y34071D01*
X56534Y33912D01*
Y36456D01*
Y38999D01*
X55940Y38840D01*
X55807Y38763D01*
X55374Y39013D01*
Y57520D01*
X55807Y57770D01*
X55940Y57693D01*
X56534Y57534D01*
Y60078D01*
Y62621D01*
X55940Y62462D01*
X55807Y62385D01*
X55374Y62635D01*
Y70755D01*
X55874Y70962D01*
X66567Y60268D01*
D02*
G37*
G36*
X153543Y51299D02*
X153720D01*
X154821Y51594D01*
X155809Y52165D01*
X156615Y52971D01*
X157185Y53958D01*
X157402Y54766D01*
X159055Y54724D01*
Y15354D01*
X66890Y14962D01*
X66535Y15315D01*
Y35827D01*
X112205D01*
X131784Y55406D01*
X148840Y54980D01*
X149114Y53958D01*
X149684Y52971D01*
X150490Y52165D01*
X151478Y51594D01*
X152579Y51299D01*
X152756D01*
Y55630D01*
X153543D01*
Y51299D01*
D02*
G37*
G36*
X158830Y14342D02*
X144792Y304D01*
X100182D01*
X99975Y804D01*
X101326Y2155D01*
X101676Y1953D01*
X102647Y1693D01*
X103652D01*
X104624Y1953D01*
X105494Y2456D01*
X106205Y3167D01*
X106708Y4038D01*
X106968Y5009D01*
Y6015D01*
X106708Y6986D01*
X106205Y7857D01*
X105494Y8568D01*
X104624Y9070D01*
X103652Y9331D01*
X102647D01*
X101676Y9070D01*
X100805Y8568D01*
X100094Y7857D01*
X99591Y6986D01*
X99331Y6015D01*
Y5009D01*
X99591Y4038D01*
X99793Y3688D01*
X98291Y2186D01*
X96969D01*
Y9331D01*
X89331D01*
Y2186D01*
X74166D01*
X74032Y2686D01*
X74997Y3243D01*
X75891Y4137D01*
X76523Y5233D01*
X76850Y6454D01*
Y7719D01*
X76523Y8941D01*
X76495Y8990D01*
Y14492D01*
X77979Y14498D01*
X78268Y13999D01*
X78165Y13821D01*
X78006Y13227D01*
X83094D01*
X82935Y13821D01*
X82821Y14018D01*
X83109Y14520D01*
X89819Y14548D01*
X90108Y14050D01*
X89976Y13821D01*
X89817Y13227D01*
X94905D01*
X94746Y13821D01*
X94603Y14069D01*
X94891Y14570D01*
X101659Y14599D01*
X101948Y14100D01*
X101787Y13821D01*
X101628Y13227D01*
X106716D01*
X106557Y13821D01*
X106385Y14119D01*
X106673Y14620D01*
X108348Y14627D01*
X108702Y14274D01*
Y5512D01*
X108854Y4361D01*
X109298Y3288D01*
X110005Y2367D01*
X110926Y1660D01*
X111998Y1216D01*
X113150Y1064D01*
X114301Y1216D01*
X115373Y1660D01*
X116295Y2367D01*
X117001Y3288D01*
X117446Y4361D01*
X117597Y5512D01*
Y14667D01*
X125372Y14700D01*
X125628Y14201D01*
X125409Y13821D01*
X125250Y13227D01*
X130338D01*
X130179Y13821D01*
X129949Y14219D01*
X130190Y14720D01*
X137249Y14750D01*
X137469Y14251D01*
X137220Y13821D01*
X137061Y13227D01*
X142149D01*
X141990Y13821D01*
X141731Y14269D01*
X141936Y14770D01*
X149126Y14801D01*
X149309Y14301D01*
X149031Y13821D01*
X148872Y13227D01*
X153960D01*
X153801Y13821D01*
X153513Y14319D01*
X153681Y14820D01*
X158622Y14841D01*
X158830Y14342D01*
D02*
G37*
%LPC*%
G36*
X97873Y192543D02*
X97279Y192383D01*
X96695Y192046D01*
X96594Y191946D01*
X96142Y191831D01*
X96142Y191831D01*
Y191831D01*
X96142Y191831D01*
X89291D01*
Y191157D01*
X89109Y191088D01*
X88791Y191071D01*
X88503Y191570D01*
X88027Y192046D01*
X87443Y192383D01*
X86849Y192543D01*
Y189999D01*
Y187455D01*
X87443Y187614D01*
X88027Y187951D01*
X88503Y188427D01*
X88791Y188926D01*
X89109Y188909D01*
X89291Y188840D01*
Y188524D01*
X95717D01*
X96197Y188465D01*
X96219Y188427D01*
X96695Y187951D01*
X97279Y187614D01*
X97873Y187455D01*
Y189999D01*
Y192543D01*
D02*
G37*
G36*
X75787Y192342D02*
X72244D01*
Y190571D01*
X75787D01*
Y192342D01*
D02*
G37*
G36*
X71457D02*
X67913D01*
Y190571D01*
X71457D01*
Y192342D01*
D02*
G37*
G36*
X145904Y192543D02*
Y190392D01*
X148054D01*
X147895Y190987D01*
X147558Y191570D01*
X147082Y192046D01*
X146498Y192383D01*
X145904Y192543D01*
D02*
G37*
G36*
X145117D02*
X144523Y192383D01*
X143939Y192046D01*
X143463Y191570D01*
X143126Y190987D01*
X142967Y190392D01*
X145117D01*
Y192543D01*
D02*
G37*
G36*
X134093D02*
Y190392D01*
X136243D01*
X136084Y190987D01*
X135747Y191570D01*
X135271Y192046D01*
X134687Y192383D01*
X134093Y192543D01*
D02*
G37*
G36*
X133306D02*
X132712Y192383D01*
X132128Y192046D01*
X131652Y191570D01*
X131315Y190987D01*
X131156Y190392D01*
X133306D01*
Y192543D01*
D02*
G37*
G36*
X98660D02*
Y190392D01*
X100810D01*
X100651Y190987D01*
X100314Y191570D01*
X99838Y192046D01*
X99254Y192383D01*
X98660Y192543D01*
D02*
G37*
G36*
X86062D02*
X85468Y192383D01*
X84884Y192046D01*
X84408Y191570D01*
X84071Y190987D01*
X83912Y190392D01*
X86062D01*
Y192543D01*
D02*
G37*
G36*
X27794D02*
Y190392D01*
X29944D01*
X29785Y190987D01*
X29448Y191570D01*
X28972Y192046D01*
X28388Y192383D01*
X27794Y192543D01*
D02*
G37*
G36*
X27007D02*
X26413Y192383D01*
X25829Y192046D01*
X25353Y191570D01*
X25016Y190987D01*
X24857Y190392D01*
X27007D01*
Y192543D01*
D02*
G37*
G36*
X15983D02*
Y190392D01*
X18133D01*
X17974Y190987D01*
X17637Y191570D01*
X17161Y192046D01*
X16577Y192383D01*
X15983Y192543D01*
D02*
G37*
G36*
X15196D02*
X14602Y192383D01*
X14018Y192046D01*
X13542Y191570D01*
X13205Y190987D01*
X13046Y190392D01*
X15196D01*
Y192543D01*
D02*
G37*
G36*
X75787Y189784D02*
X72244D01*
Y188012D01*
X75787D01*
Y189784D01*
D02*
G37*
G36*
X148054Y189605D02*
X145904D01*
Y187455D01*
X146498Y187614D01*
X147082Y187951D01*
X147558Y188427D01*
X147895Y189011D01*
X148054Y189605D01*
D02*
G37*
G36*
X145117D02*
X142967D01*
X143126Y189011D01*
X143463Y188427D01*
X143939Y187951D01*
X144523Y187614D01*
X145117Y187455D01*
Y189605D01*
D02*
G37*
G36*
X136243D02*
X134093D01*
Y187455D01*
X134687Y187614D01*
X135271Y187951D01*
X135747Y188427D01*
X136084Y189011D01*
X136243Y189605D01*
D02*
G37*
G36*
X133306D02*
X131156D01*
X131315Y189011D01*
X131652Y188427D01*
X132128Y187951D01*
X132712Y187614D01*
X133306Y187455D01*
Y189605D01*
D02*
G37*
G36*
X86062D02*
X83912D01*
X84071Y189011D01*
X84408Y188427D01*
X84884Y187951D01*
X85468Y187614D01*
X86062Y187455D01*
Y189605D01*
D02*
G37*
G36*
X29944D02*
X27794D01*
Y187455D01*
X28388Y187614D01*
X28972Y187951D01*
X29448Y188427D01*
X29785Y189011D01*
X29944Y189605D01*
D02*
G37*
G36*
X27007D02*
X24857D01*
X25016Y189011D01*
X25353Y188427D01*
X25829Y187951D01*
X26413Y187614D01*
X27007Y187455D01*
Y189605D01*
D02*
G37*
G36*
X18133D02*
X15983D01*
Y187455D01*
X16577Y187614D01*
X17161Y187951D01*
X17637Y188427D01*
X17974Y189011D01*
X18133Y189605D01*
D02*
G37*
G36*
X15196D02*
X13046D01*
X13205Y189011D01*
X13542Y188427D01*
X14018Y187951D01*
X14602Y187614D01*
X15196Y187455D01*
Y189605D01*
D02*
G37*
G36*
X55020Y191535D02*
X52362D01*
Y187402D01*
X55020D01*
Y191535D01*
D02*
G37*
G36*
X51575D02*
X48917D01*
Y187402D01*
X51575D01*
Y191535D01*
D02*
G37*
G36*
X100810Y189605D02*
X98660D01*
Y187455D01*
X98730Y187474D01*
X99098Y187055D01*
X98937Y186667D01*
Y185774D01*
X99279Y184949D01*
X99395Y184833D01*
Y183150D01*
X96969D01*
Y181662D01*
X96142D01*
Y181831D01*
X89291D01*
Y178524D01*
X96142D01*
Y178692D01*
X96969D01*
Y175118D01*
X99623D01*
X99791Y174618D01*
X99279Y174106D01*
X98937Y173281D01*
Y172388D01*
X99279Y171563D01*
X99910Y170932D01*
X100097Y170855D01*
Y142181D01*
X96871Y138955D01*
X96659Y138638D01*
X96367Y138517D01*
X95735Y137885D01*
X95394Y137060D01*
Y136168D01*
X95735Y135343D01*
X96367Y134712D01*
X97191Y134370D01*
X98084D01*
X98909Y134712D01*
X99540Y135343D01*
X99882Y136168D01*
Y137060D01*
X99540Y137885D01*
X99204Y138222D01*
X101947Y140966D01*
X101947Y140966D01*
X102182Y141317D01*
X102265Y141732D01*
Y170855D01*
X102452Y170932D01*
X103084Y171563D01*
X103425Y172388D01*
Y173281D01*
X103084Y174106D01*
X102571Y174618D01*
X102638Y175118D01*
X102638Y175201D01*
Y183150D01*
X102365D01*
Y184282D01*
X102452Y184318D01*
X103084Y184949D01*
X103425Y185774D01*
Y186667D01*
X103084Y187492D01*
X102452Y188123D01*
X101628Y188465D01*
X100913D01*
X100621Y188862D01*
X100602Y188926D01*
X100651Y189011D01*
X100810Y189605D01*
D02*
G37*
G36*
X111614Y183661D02*
Y179527D01*
X114567D01*
Y183661D01*
X111614D01*
D02*
G37*
G36*
X33700Y180731D02*
Y178581D01*
X35850D01*
X35691Y179175D01*
X35354Y179759D01*
X34877Y180236D01*
X34294Y180572D01*
X33700Y180731D01*
D02*
G37*
G36*
X32912D02*
X32318Y180572D01*
X31735Y180236D01*
X31258Y179759D01*
X30921Y179175D01*
X30762Y178581D01*
X32912D01*
Y180731D01*
D02*
G37*
G36*
X21889D02*
Y178581D01*
X24039D01*
X23879Y179175D01*
X23543Y179759D01*
X23066Y180236D01*
X22483Y180572D01*
X21889Y180731D01*
D02*
G37*
G36*
X21101D02*
X20507Y180572D01*
X19924Y180236D01*
X19447Y179759D01*
X19110Y179175D01*
X18951Y178581D01*
X21101D01*
Y180731D01*
D02*
G37*
G36*
X127400Y177794D02*
X125250D01*
X125409Y177200D01*
X125746Y176616D01*
X126223Y176140D01*
X126806Y175803D01*
X127400Y175644D01*
Y177794D01*
D02*
G37*
G36*
X35850D02*
X33700D01*
Y175644D01*
X34294Y175803D01*
X34877Y176140D01*
X35354Y176616D01*
X35691Y177200D01*
X35850Y177794D01*
D02*
G37*
G36*
X32912D02*
X30762D01*
X30921Y177200D01*
X31258Y176616D01*
X31735Y176140D01*
X32318Y175803D01*
X32912Y175644D01*
Y177794D01*
D02*
G37*
G36*
X24039D02*
X21889D01*
Y175644D01*
X22483Y175803D01*
X23066Y176140D01*
X23543Y176616D01*
X23879Y177200D01*
X24039Y177794D01*
D02*
G37*
G36*
X21101D02*
X18951D01*
X19110Y177200D01*
X19447Y176616D01*
X19924Y176140D01*
X20507Y175803D01*
X21101Y175644D01*
Y177794D01*
D02*
G37*
G36*
X114567Y178740D02*
X111614D01*
Y174606D01*
X114567D01*
Y178740D01*
D02*
G37*
G36*
X75276Y176831D02*
X68425D01*
Y173524D01*
X75276D01*
Y176831D01*
D02*
G37*
G36*
X148698Y180787D02*
X147365D01*
X146056Y180527D01*
X144824Y180017D01*
X143715Y179276D01*
X142772Y178332D01*
X142031Y177223D01*
X141520Y175991D01*
X141260Y174683D01*
Y173349D01*
X141520Y172040D01*
X142031Y170808D01*
X142772Y169699D01*
X143715Y168756D01*
X144824Y168015D01*
X146056Y167504D01*
X147365Y167244D01*
X148698D01*
X150007Y167504D01*
X151239Y168015D01*
X152348Y168756D01*
X153291Y169699D01*
X154033Y170808D01*
X154543Y172040D01*
X154803Y173349D01*
Y174683D01*
X154543Y175991D01*
X154033Y177223D01*
X153291Y178332D01*
X152348Y179276D01*
X151239Y180017D01*
X150007Y180527D01*
X148698Y180787D01*
D02*
G37*
G36*
X12084D02*
X10750D01*
X9442Y180527D01*
X8210Y180017D01*
X7101Y179276D01*
X6157Y178332D01*
X5416Y177223D01*
X4906Y175991D01*
X4646Y174683D01*
Y173349D01*
X4906Y172040D01*
X5416Y170808D01*
X6157Y169699D01*
X7101Y168756D01*
X8210Y168015D01*
X9442Y167504D01*
X10750Y167244D01*
X12084D01*
X13393Y167504D01*
X14625Y168015D01*
X15734Y168756D01*
X16677Y169699D01*
X17418Y170808D01*
X17929Y172040D01*
X18189Y173349D01*
Y174683D01*
X17929Y175991D01*
X17418Y177223D01*
X16677Y178332D01*
X15734Y179276D01*
X14625Y180017D01*
X13393Y180527D01*
X12084Y180787D01*
D02*
G37*
G36*
X156928Y168921D02*
X156334Y168761D01*
X155750Y168424D01*
X155274Y167948D01*
X154937Y167365D01*
X154778Y166770D01*
X156928D01*
Y168921D01*
D02*
G37*
G36*
X51416D02*
Y166770D01*
X53566D01*
X53407Y167365D01*
X53070Y167948D01*
X52594Y168424D01*
X52010Y168761D01*
X51416Y168921D01*
D02*
G37*
G36*
X27794D02*
Y166770D01*
X29944D01*
X29785Y167365D01*
X29448Y167948D01*
X28972Y168424D01*
X28388Y168761D01*
X27794Y168921D01*
D02*
G37*
G36*
X27007D02*
X26413Y168761D01*
X25829Y168424D01*
X25353Y167948D01*
X25016Y167365D01*
X24857Y166770D01*
X27007D01*
Y168921D01*
D02*
G37*
G36*
X29944Y165983D02*
X27794D01*
Y163833D01*
X28388Y163992D01*
X28972Y164329D01*
X29448Y164805D01*
X29785Y165389D01*
X29944Y165983D01*
D02*
G37*
G36*
X27007D02*
X24857D01*
X25016Y165389D01*
X25353Y164805D01*
X25829Y164329D01*
X26413Y163992D01*
X27007Y163833D01*
Y165983D01*
D02*
G37*
G36*
X92755Y157109D02*
Y154959D01*
X94905D01*
X94746Y155553D01*
X94409Y156137D01*
X93932Y156613D01*
X93349Y156950D01*
X92755Y157109D01*
D02*
G37*
G36*
X91967D02*
X91373Y156950D01*
X90790Y156613D01*
X90313Y156137D01*
X89976Y155553D01*
X89817Y154959D01*
X91967D01*
Y157109D01*
D02*
G37*
G36*
X80944D02*
Y154959D01*
X83094D01*
X82935Y155553D01*
X82598Y156137D01*
X82121Y156613D01*
X81538Y156950D01*
X80944Y157109D01*
D02*
G37*
G36*
X80156D02*
X79562Y156950D01*
X78979Y156613D01*
X78502Y156137D01*
X78165Y155553D01*
X78006Y154959D01*
X80156D01*
Y157109D01*
D02*
G37*
G36*
X45511D02*
Y154959D01*
X47661D01*
X47502Y155553D01*
X47165Y156137D01*
X46688Y156613D01*
X46105Y156950D01*
X45511Y157109D01*
D02*
G37*
G36*
X44723D02*
X44129Y156950D01*
X43546Y156613D01*
X43069Y156137D01*
X42732Y155553D01*
X42573Y154959D01*
X44723D01*
Y157109D01*
D02*
G37*
G36*
X21889D02*
Y154959D01*
X24039D01*
X23879Y155553D01*
X23543Y156137D01*
X23066Y156613D01*
X22483Y156950D01*
X21889Y157109D01*
D02*
G37*
G36*
X21101D02*
X20507Y156950D01*
X19924Y156613D01*
X19447Y156137D01*
X19110Y155553D01*
X18951Y154959D01*
X21101D01*
Y157109D01*
D02*
G37*
G36*
X10078D02*
Y154959D01*
X12228D01*
X12069Y155553D01*
X11732Y156137D01*
X11255Y156613D01*
X10672Y156950D01*
X10078Y157109D01*
D02*
G37*
G36*
X9290D02*
X8696Y156950D01*
X8112Y156613D01*
X7636Y156137D01*
X7299Y155553D01*
X7140Y154959D01*
X9290D01*
Y157109D01*
D02*
G37*
G36*
X94905Y154172D02*
X92755D01*
Y152022D01*
X93349Y152181D01*
X93932Y152518D01*
X94409Y152994D01*
X94746Y153578D01*
X94905Y154172D01*
D02*
G37*
G36*
X91967D02*
X89817D01*
X89976Y153578D01*
X90313Y152994D01*
X90790Y152518D01*
X91373Y152181D01*
X91967Y152022D01*
Y154172D01*
D02*
G37*
G36*
X83094D02*
X80944D01*
Y152022D01*
X81538Y152181D01*
X82121Y152518D01*
X82598Y152994D01*
X82935Y153578D01*
X83094Y154172D01*
D02*
G37*
G36*
X80156D02*
X78006D01*
X78165Y153578D01*
X78502Y152994D01*
X78979Y152518D01*
X79562Y152181D01*
X80156Y152022D01*
Y154172D01*
D02*
G37*
G36*
X47661D02*
X45511D01*
Y152022D01*
X46105Y152181D01*
X46688Y152518D01*
X47165Y152994D01*
X47502Y153578D01*
X47661Y154172D01*
D02*
G37*
G36*
X44723D02*
X42573D01*
X42732Y153578D01*
X43069Y152994D01*
X43546Y152518D01*
X44129Y152181D01*
X44723Y152022D01*
Y154172D01*
D02*
G37*
G36*
X24039D02*
X21889D01*
Y152022D01*
X22483Y152181D01*
X23066Y152518D01*
X23543Y152994D01*
X23879Y153578D01*
X24039Y154172D01*
D02*
G37*
G36*
X21101D02*
X18951D01*
X19110Y153578D01*
X19447Y152994D01*
X19924Y152518D01*
X20507Y152181D01*
X21101Y152022D01*
Y154172D01*
D02*
G37*
G36*
X12228D02*
X10078D01*
Y152022D01*
X10672Y152181D01*
X11255Y152518D01*
X11732Y152994D01*
X12069Y153578D01*
X12228Y154172D01*
D02*
G37*
G36*
X9290D02*
X7140D01*
X7299Y153578D01*
X7636Y152994D01*
X8112Y152518D01*
X8696Y152181D01*
X9290Y152022D01*
Y154172D01*
D02*
G37*
G36*
X15983Y145299D02*
Y143148D01*
X18133D01*
X17974Y143742D01*
X17637Y144326D01*
X17161Y144802D01*
X16577Y145139D01*
X15983Y145299D01*
D02*
G37*
G36*
X15196D02*
X14602Y145139D01*
X14018Y144802D01*
X13542Y144326D01*
X13205Y143742D01*
X13046Y143148D01*
X15196D01*
Y145299D01*
D02*
G37*
G36*
X18133Y142361D02*
X15983D01*
Y140211D01*
X16577Y140370D01*
X17161Y140707D01*
X17637Y141183D01*
X17974Y141767D01*
X18133Y142361D01*
D02*
G37*
G36*
X15196D02*
X13046D01*
X13205Y141767D01*
X13542Y141183D01*
X14018Y140707D01*
X14602Y140370D01*
X15196Y140211D01*
Y142361D01*
D02*
G37*
G36*
X75410Y141220D02*
X74197D01*
X73025Y140907D01*
X71975Y140300D01*
X71117Y139443D01*
X70511Y138392D01*
X70197Y137221D01*
Y136008D01*
X70511Y134836D01*
X71117Y133786D01*
X71975Y132928D01*
X73025Y132322D01*
X74197Y132008D01*
X75410D01*
X76581Y132322D01*
X77631Y132928D01*
X78489Y133786D01*
X79096Y134836D01*
X79409Y136008D01*
Y137221D01*
X79096Y138392D01*
X78489Y139443D01*
X77631Y140300D01*
X76581Y140907D01*
X75410Y141220D01*
D02*
G37*
G36*
X10512D02*
X1299D01*
Y132008D01*
X10512D01*
Y141220D01*
D02*
G37*
G36*
X110827Y116929D02*
X102165D01*
Y112205D01*
X110827D01*
Y116929D01*
D02*
G37*
G36*
X101378D02*
X92716D01*
Y112205D01*
X101378D01*
Y116929D01*
D02*
G37*
G36*
X33124Y130984D02*
X32231D01*
X31406Y130643D01*
X30775Y130011D01*
X30433Y129186D01*
Y128294D01*
X30775Y127469D01*
X31406Y126838D01*
X31586Y126763D01*
Y118238D01*
X24981Y111634D01*
X24981Y111634D01*
X5643Y92296D01*
X5321Y91814D01*
X5208Y91245D01*
X5208Y91245D01*
Y67137D01*
X5208Y67136D01*
X5321Y66568D01*
X5643Y66086D01*
X6782Y64946D01*
Y60350D01*
X6365Y59933D01*
X6024Y59108D01*
Y58215D01*
X6365Y57390D01*
X6997Y56759D01*
X7821Y56417D01*
X8714D01*
X9539Y56759D01*
X10170Y57390D01*
X10512Y58215D01*
Y59108D01*
X10170Y59933D01*
X9753Y60350D01*
Y65562D01*
X9753Y65562D01*
X9640Y66130D01*
X9318Y66612D01*
X9318Y66612D01*
X8178Y67752D01*
Y90630D01*
X26646Y109098D01*
X27677D01*
Y109002D01*
X28019Y108178D01*
X28650Y107546D01*
X29475Y107205D01*
X30368D01*
X31192Y107546D01*
X31824Y108178D01*
X32165Y109002D01*
Y109895D01*
X31824Y110720D01*
X31192Y111351D01*
X30368Y111693D01*
X29948D01*
X29736Y112188D01*
X34121Y116573D01*
X34121Y116573D01*
X34443Y117055D01*
X34556Y117623D01*
Y127358D01*
X34556Y127358D01*
X34542Y127431D01*
X34580Y127469D01*
X34921Y128294D01*
Y129186D01*
X34580Y130011D01*
X33948Y130643D01*
X33124Y130984D01*
D02*
G37*
G36*
X110827Y111417D02*
X102165D01*
Y106693D01*
X110827D01*
Y111417D01*
D02*
G37*
G36*
X101378D02*
X92716D01*
Y106693D01*
X101378D01*
Y111417D01*
D02*
G37*
G36*
X74493Y107874D02*
X74213D01*
Y103150D01*
X78937D01*
Y103430D01*
X78588Y104731D01*
X77914Y105898D01*
X76961Y106851D01*
X75794Y107525D01*
X74493Y107874D01*
D02*
G37*
G36*
X73425D02*
X73145D01*
X71843Y107525D01*
X70676Y106851D01*
X69723Y105898D01*
X69050Y104731D01*
X68701Y103430D01*
Y103150D01*
X73425D01*
Y107874D01*
D02*
G37*
G36*
X10039D02*
X5315D01*
Y103150D01*
X10039D01*
Y107874D01*
D02*
G37*
G36*
Y102362D02*
X5315D01*
Y97638D01*
X10039D01*
Y102362D01*
D02*
G37*
G36*
X97873Y98054D02*
X97279Y97895D01*
X96695Y97558D01*
X96219Y97082D01*
X95882Y96498D01*
X95723Y95904D01*
X97873D01*
Y98054D01*
D02*
G37*
G36*
X86849D02*
Y95904D01*
X88999D01*
X88840Y96498D01*
X88503Y97082D01*
X88027Y97558D01*
X87443Y97895D01*
X86849Y98054D01*
D02*
G37*
G36*
X86062D02*
X85468Y97895D01*
X84884Y97558D01*
X84408Y97082D01*
X84071Y96498D01*
X83912Y95904D01*
X86062D01*
Y98054D01*
D02*
G37*
G36*
X78937Y102362D02*
X68701D01*
Y102082D01*
X69050Y100780D01*
X69723Y99613D01*
X70676Y98660D01*
X71843Y97987D01*
X72593Y97786D01*
X72743Y97228D01*
X72597Y97082D01*
X72260Y96498D01*
X72101Y95904D01*
X77188D01*
X77029Y96498D01*
X76692Y97082D01*
X76216Y97558D01*
X76134Y97605D01*
X76134Y98183D01*
X76961Y98660D01*
X77914Y99613D01*
X78588Y100780D01*
X78937Y102082D01*
Y102362D01*
D02*
G37*
G36*
X63227Y98054D02*
Y95904D01*
X65377D01*
X65218Y96498D01*
X64881Y97082D01*
X64405Y97558D01*
X63821Y97895D01*
X63227Y98054D01*
D02*
G37*
G36*
X62440D02*
X61846Y97895D01*
X61262Y97558D01*
X60786Y97082D01*
X60449Y96498D01*
X60290Y95904D01*
X62440D01*
Y98054D01*
D02*
G37*
G36*
X50629D02*
X50035Y97895D01*
X49451Y97558D01*
X48975Y97082D01*
X48638Y96498D01*
X48479Y95904D01*
X50629D01*
Y98054D01*
D02*
G37*
G36*
X39605D02*
Y95904D01*
X41755D01*
X41596Y96498D01*
X41259Y97082D01*
X40783Y97558D01*
X40199Y97895D01*
X39605Y98054D01*
D02*
G37*
G36*
X38818D02*
X38224Y97895D01*
X37640Y97558D01*
X37164Y97082D01*
X36827Y96498D01*
X36667Y95904D01*
X38818D01*
Y98054D01*
D02*
G37*
G36*
X88999Y95117D02*
X86849D01*
Y92967D01*
X87443Y93126D01*
X88027Y93463D01*
X88503Y93939D01*
X88840Y94523D01*
X88999Y95117D01*
D02*
G37*
G36*
X86062D02*
X83912D01*
X84071Y94523D01*
X84408Y93939D01*
X84884Y93463D01*
X85468Y93126D01*
X86062Y92967D01*
Y95117D01*
D02*
G37*
G36*
X77188D02*
X75038D01*
Y92967D01*
X75632Y93126D01*
X76216Y93463D01*
X76692Y93939D01*
X77029Y94523D01*
X77188Y95117D01*
D02*
G37*
G36*
X74251D02*
X72101D01*
X72260Y94523D01*
X72597Y93939D01*
X73073Y93463D01*
X73657Y93126D01*
X74251Y92967D01*
Y95117D01*
D02*
G37*
G36*
X65377D02*
X63227D01*
Y92967D01*
X63821Y93126D01*
X64405Y93463D01*
X64881Y93939D01*
X65218Y94523D01*
X65377Y95117D01*
D02*
G37*
G36*
X62440D02*
X60290D01*
X60449Y94523D01*
X60786Y93939D01*
X61262Y93463D01*
X61846Y93126D01*
X62440Y92967D01*
Y95117D01*
D02*
G37*
G36*
X50629D02*
X48479D01*
X48638Y94523D01*
X48975Y93939D01*
X49451Y93463D01*
X50035Y93126D01*
X50629Y92967D01*
Y95117D01*
D02*
G37*
G36*
X41755D02*
X39605D01*
Y92967D01*
X40199Y93126D01*
X40783Y93463D01*
X41259Y93939D01*
X41596Y94523D01*
X41755Y95117D01*
D02*
G37*
G36*
X38818D02*
X36667D01*
X36827Y94523D01*
X37164Y93939D01*
X37640Y93463D01*
X38224Y93126D01*
X38818Y92967D01*
Y95117D01*
D02*
G37*
G36*
X80944Y86243D02*
Y84093D01*
X83094D01*
X82935Y84687D01*
X82598Y85271D01*
X82121Y85747D01*
X81538Y86084D01*
X80944Y86243D01*
D02*
G37*
G36*
X80156D02*
X79562Y86084D01*
X78979Y85747D01*
X78502Y85271D01*
X78165Y84687D01*
X78006Y84093D01*
X80156D01*
Y86243D01*
D02*
G37*
G36*
X69133D02*
Y84093D01*
X71283D01*
X71124Y84687D01*
X70787Y85271D01*
X70310Y85747D01*
X69727Y86084D01*
X69133Y86243D01*
D02*
G37*
G36*
X68345D02*
X67751Y86084D01*
X67168Y85747D01*
X66691Y85271D01*
X66354Y84687D01*
X66195Y84093D01*
X68345D01*
Y86243D01*
D02*
G37*
G36*
X57322D02*
Y84093D01*
X59472D01*
X59313Y84687D01*
X58976Y85271D01*
X58499Y85747D01*
X57916Y86084D01*
X57322Y86243D01*
D02*
G37*
G36*
X83094Y83306D02*
X80944D01*
Y81156D01*
X81538Y81315D01*
X82121Y81652D01*
X82598Y82128D01*
X82935Y82712D01*
X83094Y83306D01*
D02*
G37*
G36*
X80156D02*
X78006D01*
X78165Y82712D01*
X78502Y82128D01*
X78979Y81652D01*
X79562Y81315D01*
X80156Y81156D01*
Y83306D01*
D02*
G37*
G36*
X71283D02*
X69133D01*
Y81156D01*
X69727Y81315D01*
X70310Y81652D01*
X70787Y82128D01*
X71124Y82712D01*
X71283Y83306D01*
D02*
G37*
G36*
X68345D02*
X66195D01*
X66354Y82712D01*
X66691Y82128D01*
X67168Y81652D01*
X67751Y81315D01*
X68345Y81156D01*
Y83306D01*
D02*
G37*
G36*
X59472D02*
X57322D01*
Y81156D01*
X57916Y81315D01*
X58499Y81652D01*
X58976Y82128D01*
X59313Y82712D01*
X59472Y83306D01*
D02*
G37*
G36*
X11864Y73898D02*
X10971D01*
X10146Y73556D01*
X9515Y72925D01*
X9173Y72100D01*
Y71207D01*
X9515Y70382D01*
X10146Y69751D01*
X10971Y69410D01*
X11864D01*
X12688Y69751D01*
X13320Y70382D01*
X13661Y71207D01*
Y72100D01*
X13320Y72925D01*
X12688Y73556D01*
X11864Y73898D01*
D02*
G37*
G36*
X39605Y50810D02*
Y48660D01*
X41755D01*
X41596Y49254D01*
X41259Y49838D01*
X40783Y50314D01*
X40199Y50651D01*
X39605Y50810D01*
D02*
G37*
G36*
X38818D02*
X38224Y50651D01*
X37640Y50314D01*
X37164Y49838D01*
X36827Y49254D01*
X36667Y48660D01*
X38818D01*
Y50810D01*
D02*
G37*
G36*
X27794D02*
Y48660D01*
X29944D01*
X29785Y49254D01*
X29448Y49838D01*
X28972Y50314D01*
X28388Y50651D01*
X27794Y50810D01*
D02*
G37*
G36*
X27007D02*
X26413Y50651D01*
X25829Y50314D01*
X25353Y49838D01*
X25016Y49254D01*
X24857Y48660D01*
X27007D01*
Y50810D01*
D02*
G37*
G36*
X15983D02*
Y48660D01*
X18133D01*
X17974Y49254D01*
X17637Y49838D01*
X17161Y50314D01*
X16577Y50651D01*
X15983Y50810D01*
D02*
G37*
G36*
X15196D02*
X14602Y50651D01*
X14018Y50314D01*
X13542Y49838D01*
X13205Y49254D01*
X13046Y48660D01*
X15196D01*
Y50810D01*
D02*
G37*
G36*
X41755Y47873D02*
X39605D01*
Y45723D01*
X40199Y45882D01*
X40783Y46219D01*
X41259Y46695D01*
X41596Y47279D01*
X41755Y47873D01*
D02*
G37*
G36*
X38818D02*
X36667D01*
X36827Y47279D01*
X37164Y46695D01*
X37640Y46219D01*
X38224Y45882D01*
X38818Y45723D01*
Y47873D01*
D02*
G37*
G36*
X29944D02*
X27794D01*
Y45723D01*
X28388Y45882D01*
X28972Y46219D01*
X29448Y46695D01*
X29785Y47279D01*
X29944Y47873D01*
D02*
G37*
G36*
X27007D02*
X24857D01*
X25016Y47279D01*
X25353Y46695D01*
X25829Y46219D01*
X26413Y45882D01*
X27007Y45723D01*
Y47873D01*
D02*
G37*
G36*
X18133D02*
X15983D01*
Y45723D01*
X16577Y45882D01*
X17161Y46219D01*
X17637Y46695D01*
X17974Y47279D01*
X18133Y47873D01*
D02*
G37*
G36*
X15196D02*
X13046D01*
X13205Y47279D01*
X13542Y46695D01*
X14018Y46219D01*
X14602Y45882D01*
X15196Y45723D01*
Y47873D01*
D02*
G37*
G36*
X11864Y47126D02*
X10971D01*
X10146Y46784D01*
X9515Y46153D01*
X9173Y45328D01*
Y44436D01*
X9515Y43611D01*
X10146Y42979D01*
X10971Y42638D01*
X11864D01*
X12688Y42979D01*
X13320Y43611D01*
X13661Y44436D01*
Y45328D01*
X13320Y46153D01*
X12688Y46784D01*
X11864Y47126D01*
D02*
G37*
G36*
X45511Y38999D02*
Y36849D01*
X47661D01*
X47502Y37443D01*
X47165Y38027D01*
X46688Y38503D01*
X46105Y38840D01*
X45511Y38999D01*
D02*
G37*
G36*
X44723D02*
X44129Y38840D01*
X43546Y38503D01*
X43069Y38027D01*
X42732Y37443D01*
X42573Y36849D01*
X44723D01*
Y38999D01*
D02*
G37*
G36*
X33700D02*
Y36849D01*
X35850D01*
X35691Y37443D01*
X35354Y38027D01*
X34877Y38503D01*
X34294Y38840D01*
X33700Y38999D01*
D02*
G37*
G36*
X32912D02*
X32318Y38840D01*
X31735Y38503D01*
X31258Y38027D01*
X30921Y37443D01*
X30762Y36849D01*
X32912D01*
Y38999D01*
D02*
G37*
G36*
X21889D02*
Y36849D01*
X24039D01*
X23879Y37443D01*
X23543Y38027D01*
X23066Y38503D01*
X22483Y38840D01*
X21889Y38999D01*
D02*
G37*
G36*
X21101D02*
X20507Y38840D01*
X19924Y38503D01*
X19447Y38027D01*
X19110Y37443D01*
X18951Y36849D01*
X21101D01*
Y38999D01*
D02*
G37*
G36*
X47661Y36062D02*
X45511D01*
Y33912D01*
X46105Y34071D01*
X46688Y34408D01*
X47165Y34884D01*
X47502Y35468D01*
X47661Y36062D01*
D02*
G37*
G36*
X44723D02*
X42573D01*
X42732Y35468D01*
X43069Y34884D01*
X43546Y34408D01*
X44129Y34071D01*
X44723Y33912D01*
Y36062D01*
D02*
G37*
G36*
X35850D02*
X33700D01*
Y33912D01*
X34294Y34071D01*
X34877Y34408D01*
X35354Y34884D01*
X35691Y35468D01*
X35850Y36062D01*
D02*
G37*
G36*
X32912D02*
X30762D01*
X30921Y35468D01*
X31258Y34884D01*
X31735Y34408D01*
X32318Y34071D01*
X32912Y33912D01*
Y36062D01*
D02*
G37*
G36*
X24039D02*
X21889D01*
Y33912D01*
X22483Y34071D01*
X23066Y34408D01*
X23543Y34884D01*
X23879Y35468D01*
X24039Y36062D01*
D02*
G37*
G36*
X21101D02*
X18951D01*
X19110Y35468D01*
X19447Y34884D01*
X19924Y34408D01*
X20507Y34071D01*
X21101Y33912D01*
Y36062D01*
D02*
G37*
G36*
X39605Y27188D02*
Y25038D01*
X41755D01*
X41596Y25632D01*
X41259Y26216D01*
X40783Y26692D01*
X40199Y27029D01*
X39605Y27188D01*
D02*
G37*
G36*
X38818D02*
X38224Y27029D01*
X37640Y26692D01*
X37164Y26216D01*
X36827Y25632D01*
X36667Y25038D01*
X38818D01*
Y27188D01*
D02*
G37*
G36*
X27794D02*
Y25038D01*
X29944D01*
X29785Y25632D01*
X29448Y26216D01*
X28972Y26692D01*
X28388Y27029D01*
X27794Y27188D01*
D02*
G37*
G36*
X27007D02*
X26413Y27029D01*
X25829Y26692D01*
X25353Y26216D01*
X25016Y25632D01*
X24857Y25038D01*
X27007D01*
Y27188D01*
D02*
G37*
G36*
X41755Y24251D02*
X39605D01*
Y22101D01*
X40199Y22260D01*
X40783Y22597D01*
X41259Y23073D01*
X41596Y23657D01*
X41755Y24251D01*
D02*
G37*
G36*
X38818D02*
X36667D01*
X36827Y23657D01*
X37164Y23073D01*
X37640Y22597D01*
X38224Y22260D01*
X38818Y22101D01*
Y24251D01*
D02*
G37*
G36*
X29944D02*
X27794D01*
Y22101D01*
X28388Y22260D01*
X28972Y22597D01*
X29448Y23073D01*
X29785Y23657D01*
X29944Y24251D01*
D02*
G37*
G36*
X27007D02*
X24857D01*
X25016Y23657D01*
X25353Y23073D01*
X25829Y22597D01*
X26413Y22260D01*
X27007Y22101D01*
Y24251D01*
D02*
G37*
G36*
X12084Y33937D02*
X10750D01*
X9442Y33677D01*
X8210Y33166D01*
X7101Y32425D01*
X6157Y31482D01*
X5416Y30373D01*
X4906Y29141D01*
X4646Y27832D01*
Y26498D01*
X4906Y25190D01*
X5416Y23958D01*
X6157Y22849D01*
X7101Y21905D01*
X8210Y21164D01*
X9442Y20654D01*
X10750Y20394D01*
X12084D01*
X13393Y20654D01*
X14625Y21164D01*
X15734Y21905D01*
X16677Y22849D01*
X17418Y23958D01*
X17929Y25190D01*
X18189Y26498D01*
Y27832D01*
X17929Y29141D01*
X17418Y30373D01*
X16677Y31482D01*
X15734Y32425D01*
X14625Y33166D01*
X13393Y33677D01*
X12084Y33937D01*
D02*
G37*
G36*
X45511Y15377D02*
Y13227D01*
X47661D01*
X47502Y13821D01*
X47165Y14405D01*
X46688Y14881D01*
X46105Y15218D01*
X45511Y15377D01*
D02*
G37*
G36*
X44723D02*
X44129Y15218D01*
X43546Y14881D01*
X43069Y14405D01*
X42732Y13821D01*
X42573Y13227D01*
X44723D01*
Y15377D01*
D02*
G37*
G36*
X21889D02*
Y13227D01*
X24039D01*
X23879Y13821D01*
X23543Y14405D01*
X23066Y14881D01*
X22483Y15218D01*
X21889Y15377D01*
D02*
G37*
G36*
X21101D02*
X20507Y15218D01*
X19924Y14881D01*
X19447Y14405D01*
X19110Y13821D01*
X18951Y13227D01*
X21101D01*
Y15377D01*
D02*
G37*
G36*
X10078D02*
Y13227D01*
X12228D01*
X12069Y13821D01*
X11732Y14405D01*
X11255Y14881D01*
X10672Y15218D01*
X10078Y15377D01*
D02*
G37*
G36*
X9290D02*
X8696Y15218D01*
X8112Y14881D01*
X7636Y14405D01*
X7299Y13821D01*
X7140Y13227D01*
X9290D01*
Y15377D01*
D02*
G37*
G36*
X47661Y12440D02*
X45511D01*
Y10290D01*
X46105Y10449D01*
X46688Y10786D01*
X47165Y11262D01*
X47502Y11846D01*
X47661Y12440D01*
D02*
G37*
G36*
X44723D02*
X42573D01*
X42732Y11846D01*
X43069Y11262D01*
X43546Y10786D01*
X44129Y10449D01*
X44723Y10290D01*
Y12440D01*
D02*
G37*
G36*
X24039D02*
X21889D01*
Y10290D01*
X22483Y10449D01*
X23066Y10786D01*
X23543Y11262D01*
X23879Y11846D01*
X24039Y12440D01*
D02*
G37*
G36*
X21101D02*
X18951D01*
X19110Y11846D01*
X19447Y11262D01*
X19924Y10786D01*
X20507Y10449D01*
X21101Y10290D01*
Y12440D01*
D02*
G37*
G36*
X12228D02*
X10078D01*
Y10290D01*
X10672Y10449D01*
X11255Y10786D01*
X11732Y11262D01*
X12069Y11846D01*
X12228Y12440D01*
D02*
G37*
G36*
X9290D02*
X7140D01*
X7299Y11846D01*
X7636Y11262D01*
X8112Y10786D01*
X8696Y10449D01*
X9290Y10290D01*
Y12440D01*
D02*
G37*
G36*
X35739Y12008D02*
X35433D01*
Y7086D01*
X40354D01*
Y7393D01*
X39992Y8744D01*
X39292Y9956D01*
X38303Y10946D01*
X37091Y11646D01*
X35739Y12008D01*
D02*
G37*
G36*
X34646D02*
X34340D01*
X32988Y11646D01*
X31776Y10946D01*
X30786Y9956D01*
X30087Y8744D01*
X29724Y7393D01*
Y7086D01*
X34646D01*
Y12008D01*
D02*
G37*
G36*
X40354Y6299D02*
X35433D01*
Y1378D01*
X35739D01*
X37091Y1740D01*
X38303Y2440D01*
X39292Y3430D01*
X39992Y4641D01*
X40354Y5993D01*
Y6299D01*
D02*
G37*
G36*
X34646D02*
X29724D01*
Y5993D01*
X30087Y4641D01*
X30786Y3430D01*
X31776Y2440D01*
X32988Y1740D01*
X34340Y1378D01*
X34646D01*
Y6299D01*
D02*
G37*
G36*
X130700Y162205D02*
X128347D01*
Y159851D01*
X129016Y160030D01*
X129645Y160393D01*
X130158Y160906D01*
X130521Y161535D01*
X130700Y162205D01*
D02*
G37*
G36*
X127559D02*
X125205D01*
X125385Y161535D01*
X125748Y160906D01*
X126261Y160393D01*
X126889Y160030D01*
X127559Y159851D01*
Y162205D01*
D02*
G37*
G36*
X123917Y162205D02*
X119882D01*
Y159449D01*
X123917D01*
Y162205D01*
D02*
G37*
G36*
X122244Y76181D02*
X118897D01*
Y72835D01*
X122244D01*
Y76181D01*
D02*
G37*
G36*
Y72047D02*
X118897D01*
Y68701D01*
X122244D01*
Y72047D01*
D02*
G37*
G36*
X134843Y111417D02*
X126181D01*
Y106693D01*
X134843D01*
Y111417D01*
D02*
G37*
G36*
X77264Y70866D02*
X70473D01*
Y65945D01*
X77264D01*
Y70866D01*
D02*
G37*
G36*
X69685D02*
X62894D01*
Y65945D01*
X69685D01*
Y70866D01*
D02*
G37*
G36*
X97047Y66929D02*
X92914D01*
Y63977D01*
X97047D01*
Y66929D01*
D02*
G37*
G36*
X92126D02*
X87992D01*
Y63977D01*
X92126D01*
Y66929D01*
D02*
G37*
G36*
X106299Y67126D02*
X101969D01*
Y63976D01*
X106299D01*
Y67126D01*
D02*
G37*
G36*
X139999Y62621D02*
Y60471D01*
X142149D01*
X141990Y61065D01*
X141653Y61649D01*
X141176Y62125D01*
X140593Y62462D01*
X139999Y62621D01*
D02*
G37*
G36*
X139211D02*
X138617Y62462D01*
X138034Y62125D01*
X137557Y61649D01*
X137220Y61065D01*
X137061Y60471D01*
X139211D01*
Y62621D01*
D02*
G37*
G36*
X128188D02*
Y60471D01*
X130338D01*
X130179Y61065D01*
X129842Y61649D01*
X129365Y62125D01*
X128782Y62462D01*
X128188Y62621D01*
D02*
G37*
G36*
X127400D02*
X126806Y62462D01*
X126223Y62125D01*
X125746Y61649D01*
X125409Y61065D01*
X125250Y60471D01*
X127400D01*
Y62621D01*
D02*
G37*
G36*
X116377D02*
Y60471D01*
X118527D01*
X118368Y61065D01*
X118031Y61649D01*
X117554Y62125D01*
X116971Y62462D01*
X116377Y62621D01*
D02*
G37*
G36*
X142149Y59684D02*
X139999D01*
Y57534D01*
X140593Y57693D01*
X141176Y58030D01*
X141653Y58506D01*
X141990Y59090D01*
X142149Y59684D01*
D02*
G37*
G36*
X139211D02*
X137061D01*
X137220Y59090D01*
X137557Y58506D01*
X138034Y58030D01*
X138617Y57693D01*
X139211Y57534D01*
Y59684D01*
D02*
G37*
G36*
X130338D02*
X128188D01*
Y57534D01*
X128782Y57693D01*
X129365Y58030D01*
X129842Y58506D01*
X130179Y59090D01*
X130338Y59684D01*
D02*
G37*
G36*
X127400D02*
X125250D01*
X125409Y59090D01*
X125746Y58506D01*
X126223Y58030D01*
X126806Y57693D01*
X127400Y57534D01*
Y59684D01*
D02*
G37*
G36*
X118527D02*
X116377D01*
Y57534D01*
X116971Y57693D01*
X117554Y58030D01*
X118031Y58506D01*
X118368Y59090D01*
X118527Y59684D01*
D02*
G37*
G36*
X118996Y56496D02*
X118897D01*
Y53149D01*
X122244D01*
Y53248D01*
X121989Y54199D01*
X121497Y55052D01*
X120800Y55749D01*
X119948Y56241D01*
X118996Y56496D01*
D02*
G37*
G36*
X122244Y52362D02*
X118897D01*
Y49016D01*
X118996D01*
X119948Y49271D01*
X120800Y49763D01*
X121497Y50459D01*
X121989Y51312D01*
X122244Y52263D01*
Y52362D01*
D02*
G37*
G36*
X57322Y62621D02*
Y60471D01*
X59472D01*
X59313Y61065D01*
X58976Y61649D01*
X58499Y62125D01*
X57916Y62462D01*
X57322Y62621D01*
D02*
G37*
G36*
X59472Y59684D02*
X57322D01*
Y57534D01*
X57916Y57693D01*
X58499Y58030D01*
X58976Y58506D01*
X59313Y59090D01*
X59472Y59684D01*
D02*
G37*
G36*
X106299Y55709D02*
X101969D01*
Y52559D01*
X106299D01*
Y55709D01*
D02*
G37*
G36*
X97047Y55512D02*
X92914D01*
Y52559D01*
X97047D01*
Y55512D01*
D02*
G37*
G36*
X92126D02*
X87992D01*
Y52559D01*
X92126D01*
Y55512D01*
D02*
G37*
G36*
Y51771D02*
X87992D01*
Y50834D01*
X87559Y50584D01*
X87443Y50651D01*
X86849Y50810D01*
Y48660D01*
X89058D01*
X89180Y48819D01*
X92126D01*
Y51771D01*
D02*
G37*
G36*
X97047D02*
X92914D01*
Y48819D01*
X97047D01*
Y51771D01*
D02*
G37*
G36*
X86062Y50810D02*
X85468Y50651D01*
X84884Y50314D01*
X84408Y49838D01*
X84071Y49254D01*
X83912Y48660D01*
X86062D01*
Y50810D01*
D02*
G37*
G36*
X106299Y51772D02*
X101969D01*
Y48622D01*
X106299D01*
Y51772D01*
D02*
G37*
G36*
X88999Y47873D02*
X86849D01*
Y45723D01*
X87443Y45882D01*
X88027Y46219D01*
X88503Y46695D01*
X88840Y47279D01*
X88999Y47873D01*
D02*
G37*
G36*
X86062D02*
X83912D01*
X84071Y47279D01*
X84408Y46695D01*
X84884Y46219D01*
X85468Y45882D01*
X86062Y45723D01*
Y47873D01*
D02*
G37*
G36*
X77264Y49016D02*
X70473D01*
Y44095D01*
X77264D01*
Y49016D01*
D02*
G37*
G36*
X69685D02*
X62894D01*
Y44095D01*
X69685D01*
Y49016D01*
D02*
G37*
G36*
X77264Y43307D02*
X70473D01*
Y38386D01*
X77264D01*
Y43307D01*
D02*
G37*
G36*
X69685D02*
X62894D01*
Y38386D01*
X69685D01*
Y43307D01*
D02*
G37*
G36*
X57322Y38999D02*
Y36849D01*
X59472D01*
X59313Y37443D01*
X58976Y38027D01*
X58499Y38503D01*
X57916Y38840D01*
X57322Y38999D01*
D02*
G37*
G36*
X59472Y36062D02*
X57322D01*
Y33912D01*
X57916Y34071D01*
X58499Y34408D01*
X58976Y34884D01*
X59313Y35468D01*
X59472Y36062D01*
D02*
G37*
G36*
X63227Y27188D02*
Y25038D01*
X65377D01*
X65218Y25632D01*
X64881Y26216D01*
X64405Y26692D01*
X63821Y27029D01*
X63227Y27188D01*
D02*
G37*
G36*
X62440D02*
X61846Y27029D01*
X61262Y26692D01*
X60786Y26216D01*
X60449Y25632D01*
X60290Y25038D01*
X62440D01*
Y27188D01*
D02*
G37*
G36*
X65377Y24251D02*
X63227D01*
Y22101D01*
X63821Y22260D01*
X64405Y22597D01*
X64881Y23073D01*
X65218Y23657D01*
X65377Y24251D01*
D02*
G37*
G36*
X62440D02*
X60290D01*
X60449Y23657D01*
X60786Y23073D01*
X61262Y22597D01*
X61846Y22260D01*
X62440Y22101D01*
Y24251D01*
D02*
G37*
G36*
X57322Y15377D02*
Y13227D01*
X59472D01*
X59313Y13821D01*
X58976Y14405D01*
X58499Y14881D01*
X57916Y15218D01*
X57322Y15377D01*
D02*
G37*
G36*
X149092Y33937D02*
X147758D01*
X146450Y33677D01*
X145218Y33166D01*
X144108Y32425D01*
X143165Y31482D01*
X142424Y30373D01*
X141914Y29141D01*
X141654Y27832D01*
Y26498D01*
X141914Y25190D01*
X142424Y23958D01*
X143165Y22849D01*
X144108Y21905D01*
X145218Y21164D01*
X146450Y20654D01*
X147758Y20394D01*
X149092D01*
X150400Y20654D01*
X151633Y21164D01*
X152742Y21905D01*
X153685Y22849D01*
X154426Y23958D01*
X154937Y25190D01*
X155197Y26498D01*
Y27832D01*
X154937Y29141D01*
X154426Y30373D01*
X153685Y31482D01*
X152742Y32425D01*
X151633Y33166D01*
X150400Y33677D01*
X149092Y33937D01*
D02*
G37*
G36*
X153960Y12440D02*
X151810D01*
Y10290D01*
X152404Y10449D01*
X152987Y10786D01*
X153464Y11262D01*
X153801Y11846D01*
X153960Y12440D01*
D02*
G37*
G36*
X151022D02*
X148872D01*
X149031Y11846D01*
X149368Y11262D01*
X149845Y10786D01*
X150428Y10449D01*
X151022Y10290D01*
Y12440D01*
D02*
G37*
G36*
X142149D02*
X139999D01*
Y10290D01*
X140593Y10449D01*
X141176Y10786D01*
X141653Y11262D01*
X141990Y11846D01*
X142149Y12440D01*
D02*
G37*
G36*
X139211D02*
X137061D01*
X137220Y11846D01*
X137557Y11262D01*
X138034Y10786D01*
X138617Y10449D01*
X139211Y10290D01*
Y12440D01*
D02*
G37*
G36*
X130338D02*
X128188D01*
Y10290D01*
X128782Y10449D01*
X129365Y10786D01*
X129842Y11262D01*
X130179Y11846D01*
X130338Y12440D01*
D02*
G37*
G36*
X127400D02*
X125250D01*
X125409Y11846D01*
X125746Y11262D01*
X126223Y10786D01*
X126806Y10449D01*
X127400Y10290D01*
Y12440D01*
D02*
G37*
G36*
X106716D02*
X104566D01*
Y10290D01*
X105160Y10449D01*
X105743Y10786D01*
X106220Y11262D01*
X106557Y11846D01*
X106716Y12440D01*
D02*
G37*
G36*
X103778D02*
X101628D01*
X101787Y11846D01*
X102124Y11262D01*
X102601Y10786D01*
X103184Y10449D01*
X103778Y10290D01*
Y12440D01*
D02*
G37*
G36*
X94905D02*
X92755D01*
Y10290D01*
X93349Y10449D01*
X93932Y10786D01*
X94409Y11262D01*
X94746Y11846D01*
X94905Y12440D01*
D02*
G37*
G36*
X91967D02*
X89817D01*
X89976Y11846D01*
X90313Y11262D01*
X90790Y10786D01*
X91373Y10449D01*
X91967Y10290D01*
Y12440D01*
D02*
G37*
G36*
X83094D02*
X80944D01*
Y10290D01*
X81538Y10449D01*
X82121Y10786D01*
X82598Y11262D01*
X82935Y11846D01*
X83094Y12440D01*
D02*
G37*
G36*
X80156D02*
X78006D01*
X78165Y11846D01*
X78502Y11262D01*
X78979Y10786D01*
X79562Y10449D01*
X80156Y10290D01*
Y12440D01*
D02*
G37*
G36*
X123720Y9843D02*
X123543D01*
Y5906D01*
X127480D01*
Y6082D01*
X127185Y7183D01*
X126615Y8171D01*
X125809Y8977D01*
X124821Y9547D01*
X123720Y9843D01*
D02*
G37*
G36*
X122756D02*
X122580D01*
X121478Y9547D01*
X120491Y8977D01*
X119684Y8171D01*
X119114Y7183D01*
X118819Y6082D01*
Y5906D01*
X122756D01*
Y9843D01*
D02*
G37*
G36*
X127480Y5118D02*
X123543D01*
Y1181D01*
X123720D01*
X124821Y1476D01*
X125809Y2046D01*
X126615Y2853D01*
X127185Y3840D01*
X127480Y4942D01*
Y5118D01*
D02*
G37*
G36*
X122756D02*
X118819D01*
Y4942D01*
X119114Y3840D01*
X119684Y2853D01*
X120491Y2046D01*
X121478Y1476D01*
X122580Y1181D01*
X122756D01*
Y5118D01*
D02*
G37*
%LPD*%
D12*
X54290Y143756D02*
X56204Y145669D01*
X53150Y6693D02*
X54290Y7833D01*
Y143756D01*
X56204Y145669D02*
X62232D01*
X84279Y167717D01*
X97638Y136614D02*
Y138189D01*
X101181Y141732D01*
Y172835D01*
X72047Y19291D02*
X72441Y19685D01*
X53150Y6693D02*
X58740Y1102D01*
X98740D01*
X103150Y5512D01*
X84279Y167717D02*
X88976D01*
X56299Y156299D02*
X59055D01*
X60236Y157480D01*
X42222Y170377D02*
X56299Y156299D01*
X42222Y170377D02*
Y198127D01*
X42913Y198819D01*
X111417D01*
X116634Y169685D02*
Y193602D01*
X111417Y198819D02*
X116634Y193602D01*
X118209Y168110D02*
X119488D01*
X116634Y169685D02*
X118209Y168110D01*
X58172Y194882D02*
X105607D01*
X57480Y181007D02*
Y194190D01*
X58172Y194882D01*
X105607D02*
X106299Y194190D01*
Y169685D02*
Y194190D01*
X92461Y185433D02*
X92716Y185177D01*
X87306Y185433D02*
X92461D01*
X86614Y184741D02*
X87306Y185433D01*
X86614Y175642D02*
Y184741D01*
X88976Y167717D02*
Y173280D01*
X86614Y175642D02*
X88976Y173280D01*
X68701Y170669D02*
X75689D01*
X65650Y173721D02*
X68701Y170669D01*
X65650Y173721D02*
Y177264D01*
X75689Y170669D02*
X77165Y169193D01*
Y167717D02*
Y169193D01*
X64173Y178740D02*
X65650Y177264D01*
X60236Y169291D02*
Y186316D01*
X63088D02*
X63779Y187008D01*
X60236Y186316D02*
X63088D01*
X107874Y168110D02*
X108661D01*
X106299Y169685D02*
X107874Y168110D01*
X53839Y180315D02*
X56788D01*
X57480Y181007D01*
X52362Y178740D02*
Y178839D01*
X53839Y180315D01*
X63779Y187008D02*
X68248D01*
X70079Y185177D01*
X71850D01*
X68642Y178740D02*
X70079Y180177D01*
X64173Y178740D02*
X68642D01*
X70079Y180177D02*
X71850D01*
D17*
X88976Y167717D02*
D03*
X77165D02*
D03*
X51968Y187008D02*
D03*
X63779D02*
D03*
X52362Y178740D02*
D03*
X64173D02*
D03*
D20*
X60236Y169291D02*
D03*
Y157480D02*
D03*
D26*
X118504Y52756D02*
D03*
D27*
Y72441D02*
D03*
D28*
X5906Y136614D02*
D03*
X4921Y102756D02*
D03*
D29*
X74803Y136614D02*
D03*
X73819Y102756D02*
D03*
D30*
X153150Y65630D02*
D03*
D31*
Y55630D02*
D03*
X103150Y5512D02*
D03*
X113150D02*
D03*
X123150D02*
D03*
D32*
X53150Y6693D02*
D03*
X72047Y7087D02*
D03*
X35039Y6693D02*
D03*
D33*
X93150Y5512D02*
D03*
D36*
X111967Y56642D02*
X113150Y55460D01*
Y19921D02*
Y55460D01*
X106693Y63583D02*
X107874D01*
X111967Y59489D01*
Y56642D02*
Y59489D01*
X127953Y162598D02*
X127953Y162598D01*
X119488Y162598D02*
X127953D01*
X131299Y111811D02*
X135236D01*
X108661Y134449D02*
Y162598D01*
Y134449D02*
X131299Y111811D01*
D37*
X26031Y110583D02*
X33071Y117623D01*
X6693Y91245D02*
X26031Y110583D01*
X28787D02*
X29921Y109449D01*
X26031Y110583D02*
X28787D01*
X33071Y117623D02*
Y127358D01*
X32978Y127451D02*
X33071Y127358D01*
X32978Y127451D02*
Y128439D01*
X32677Y128740D02*
X32978Y128439D01*
X133465Y127559D02*
Y177165D01*
X123622Y187008D02*
X133465Y177165D01*
X92716Y180177D02*
X98760D01*
X99803Y179134D01*
X100880Y180210D02*
Y185919D01*
X99803Y179134D02*
X100880Y180210D01*
Y185919D02*
X101181Y186221D01*
X6693Y67136D02*
Y91245D01*
Y67136D02*
X8268Y65562D01*
Y58661D02*
Y65562D01*
D38*
X29921Y109449D02*
D03*
X32677Y128740D02*
D03*
X97638Y136614D02*
D03*
X101181Y172835D02*
D03*
X127953Y162598D02*
D03*
X133465Y127559D02*
D03*
X101181Y186221D02*
D03*
X123622Y187008D02*
D03*
X8268Y58661D02*
D03*
D39*
X157322Y166377D02*
D03*
X151416Y12833D02*
D03*
X145511Y189999D02*
D03*
X139605Y60078D02*
D03*
Y12833D02*
D03*
X133700Y189999D02*
D03*
X127794Y178188D02*
D03*
Y60078D02*
D03*
Y12833D02*
D03*
X115983Y60078D02*
D03*
X104172Y12833D02*
D03*
X98267Y189999D02*
D03*
X92361Y154566D02*
D03*
X98267Y95511D02*
D03*
X92361Y12833D02*
D03*
X86456Y189999D02*
D03*
X80550Y154566D02*
D03*
X86456Y95511D02*
D03*
X80550Y83700D02*
D03*
X86456Y48267D02*
D03*
X80550Y12833D02*
D03*
X74644Y95511D02*
D03*
X68739Y83700D02*
D03*
X62833Y95511D02*
D03*
X56928Y83700D02*
D03*
Y60078D02*
D03*
Y36456D02*
D03*
X62833Y24645D02*
D03*
X56928Y12833D02*
D03*
X51022Y166377D02*
D03*
X45117Y154566D02*
D03*
X51022Y95511D02*
D03*
X45117Y36456D02*
D03*
Y12833D02*
D03*
X33306Y178188D02*
D03*
X39211Y95511D02*
D03*
Y48267D02*
D03*
X33306Y36456D02*
D03*
X39211Y24645D02*
D03*
X27400Y189999D02*
D03*
X21495Y178188D02*
D03*
X27400Y166377D02*
D03*
X21495Y154566D02*
D03*
X27400Y48267D02*
D03*
X21495Y36456D02*
D03*
X27400Y24645D02*
D03*
X21495Y12833D02*
D03*
X15589Y189999D02*
D03*
X9684Y154566D02*
D03*
X15589Y142755D02*
D03*
Y48267D02*
D03*
X9684Y12833D02*
D03*
D40*
X101772Y111811D02*
D03*
X135236D02*
D03*
D41*
X106693Y63583D02*
D03*
Y52165D02*
D03*
D42*
X71850Y175177D02*
D03*
Y180177D02*
D03*
Y185177D02*
D03*
Y190177D02*
D03*
X92716D02*
D03*
Y185177D02*
D03*
Y180177D02*
D03*
Y175177D02*
D03*
D43*
X108661Y162598D02*
D03*
X119488Y168110D02*
D03*
X108661D02*
D03*
X119488Y162598D02*
D03*
D44*
X99803Y179134D02*
D03*
X111221D02*
D03*
D45*
X92520Y63583D02*
D03*
Y52165D02*
D03*
D46*
X70079Y71260D02*
D03*
Y43701D02*
D03*
D47*
X72047Y7087D02*
Y19291D01*
X113150Y5512D02*
Y19921D01*
M02*
