G04*
G04 #@! TF.GenerationSoftware,Altium Limited,Altium Designer,22.2.1 (43)*
G04*
G04 Layer_Color=32896*
%FSLAX25Y25*%
%MOIN*%
G70*
G04*
G04 #@! TF.SameCoordinates,5435AC76-14FC-4701-A4E6-3609E34239AB*
G04*
G04*
G04 #@! TF.FilePolarity,Positive*
G04*
G01*
G75*
G36*
X85208Y166895D02*
X85147Y166808D01*
X85090Y166729D01*
X85033Y166663D01*
X84985Y166602D01*
X84941Y166559D01*
X84906Y166524D01*
X84884Y166502D01*
X84876Y166493D01*
X84841Y166467D01*
X84801Y166436D01*
X84723Y166388D01*
X84688Y166371D01*
X84662Y166353D01*
X84644Y166344D01*
X84635Y166340D01*
X84714Y166327D01*
X84788Y166314D01*
X84854Y166292D01*
X84919Y166274D01*
X84976Y166253D01*
X85029Y166226D01*
X85077Y166205D01*
X85120Y166183D01*
X85155Y166156D01*
X85190Y166135D01*
X85216Y166117D01*
X85238Y166100D01*
X85256Y166086D01*
X85269Y166073D01*
X85273Y166069D01*
X85278Y166065D01*
X85313Y166021D01*
X85348Y165977D01*
X85400Y165885D01*
X85435Y165794D01*
X85461Y165706D01*
X85479Y165632D01*
X85483Y165601D01*
Y165571D01*
X85488Y165549D01*
Y165532D01*
Y165523D01*
Y165518D01*
X85483Y165427D01*
X85470Y165344D01*
X85448Y165265D01*
X85426Y165199D01*
X85400Y165143D01*
X85383Y165099D01*
X85365Y165073D01*
X85361Y165068D01*
Y165064D01*
X85308Y164994D01*
X85256Y164933D01*
X85199Y164880D01*
X85147Y164841D01*
X85099Y164811D01*
X85059Y164793D01*
X85033Y164780D01*
X85029Y164776D01*
X85024D01*
X84985Y164762D01*
X84937Y164749D01*
X84841Y164727D01*
X84736Y164714D01*
X84640Y164701D01*
X84548Y164697D01*
X84509D01*
X84474Y164692D01*
X83071D01*
Y167717D01*
X83473D01*
Y166375D01*
X83989D01*
X84037Y166379D01*
X84072D01*
X84102Y166384D01*
X84124Y166388D01*
X84141D01*
X84150Y166392D01*
X84155D01*
X84224Y166414D01*
X84255Y166427D01*
X84281Y166440D01*
X84308Y166454D01*
X84325Y166462D01*
X84334Y166467D01*
X84338Y166471D01*
X84373Y166497D01*
X84408Y166528D01*
X84474Y166593D01*
X84504Y166624D01*
X84526Y166650D01*
X84539Y166668D01*
X84544Y166672D01*
X84587Y166733D01*
X84635Y166799D01*
X84683Y166869D01*
X84732Y166934D01*
X84771Y166996D01*
X84801Y167044D01*
X84815Y167061D01*
X84823Y167074D01*
X84832Y167083D01*
Y167087D01*
X85230Y167717D01*
X85728D01*
X85208Y166895D01*
D02*
G37*
G36*
X89359Y167765D02*
X89434Y167756D01*
X89508Y167743D01*
X89578Y167725D01*
X89643Y167703D01*
X89700Y167682D01*
X89757Y167655D01*
X89805Y167629D01*
X89853Y167607D01*
X89892Y167581D01*
X89927Y167559D01*
X89954Y167537D01*
X89976Y167520D01*
X89993Y167507D01*
X90002Y167498D01*
X90006Y167494D01*
X90058Y167441D01*
X90102Y167384D01*
X90141Y167328D01*
X90176Y167271D01*
X90203Y167218D01*
X90229Y167162D01*
X90264Y167057D01*
X90273Y167009D01*
X90281Y166965D01*
X90290Y166926D01*
X90294Y166891D01*
X90299Y166864D01*
Y166842D01*
Y166829D01*
Y166825D01*
X90294Y166720D01*
X90277Y166624D01*
X90251Y166541D01*
X90225Y166471D01*
X90198Y166414D01*
X90172Y166371D01*
X90155Y166344D01*
X90150Y166336D01*
X90089Y166270D01*
X90023Y166213D01*
X89954Y166170D01*
X89884Y166135D01*
X89823Y166108D01*
X89775Y166091D01*
X89757Y166086D01*
X89744Y166082D01*
X89735Y166078D01*
X89731D01*
X89805Y166038D01*
X89866Y165999D01*
X89919Y165955D01*
X89962Y165916D01*
X89997Y165881D01*
X90023Y165850D01*
X90037Y165833D01*
X90041Y165824D01*
X90076Y165763D01*
X90102Y165702D01*
X90124Y165641D01*
X90137Y165584D01*
X90146Y165536D01*
X90150Y165501D01*
Y165475D01*
Y165466D01*
X90146Y165392D01*
X90133Y165317D01*
X90115Y165252D01*
X90093Y165195D01*
X90072Y165147D01*
X90054Y165108D01*
X90041Y165086D01*
X90037Y165077D01*
X89993Y165012D01*
X89941Y164955D01*
X89888Y164907D01*
X89836Y164863D01*
X89792Y164832D01*
X89753Y164806D01*
X89726Y164793D01*
X89722Y164789D01*
X89718D01*
X89639Y164754D01*
X89560Y164727D01*
X89482Y164706D01*
X89412Y164692D01*
X89355Y164684D01*
X89307Y164679D01*
X89198D01*
X89136Y164688D01*
X89018Y164710D01*
X88918Y164745D01*
X88831Y164780D01*
X88791Y164802D01*
X88761Y164819D01*
X88730Y164837D01*
X88708Y164854D01*
X88691Y164867D01*
X88678Y164876D01*
X88669Y164880D01*
X88665Y164885D01*
X88581Y164968D01*
X88516Y165060D01*
X88463Y165156D01*
X88420Y165252D01*
X88393Y165335D01*
X88380Y165370D01*
X88372Y165400D01*
X88367Y165427D01*
X88363Y165444D01*
X88359Y165457D01*
Y165462D01*
X88730Y165527D01*
X88748Y165431D01*
X88774Y165348D01*
X88804Y165278D01*
X88835Y165221D01*
X88866Y165178D01*
X88892Y165147D01*
X88909Y165125D01*
X88914Y165121D01*
X88970Y165077D01*
X89032Y165042D01*
X89088Y165020D01*
X89145Y165003D01*
X89198Y164994D01*
X89237Y164985D01*
X89272D01*
X89351Y164990D01*
X89420Y165007D01*
X89482Y165029D01*
X89534Y165051D01*
X89573Y165077D01*
X89604Y165099D01*
X89626Y165116D01*
X89630Y165121D01*
X89678Y165173D01*
X89713Y165230D01*
X89735Y165287D01*
X89753Y165339D01*
X89761Y165387D01*
X89770Y165422D01*
Y165448D01*
Y165453D01*
Y165457D01*
Y165505D01*
X89761Y165549D01*
X89740Y165623D01*
X89709Y165689D01*
X89674Y165746D01*
X89639Y165785D01*
X89608Y165816D01*
X89587Y165833D01*
X89582Y165837D01*
X89578D01*
X89504Y165877D01*
X89434Y165907D01*
X89359Y165929D01*
X89294Y165942D01*
X89237Y165951D01*
X89189Y165960D01*
X89132D01*
X89115Y165955D01*
X89093D01*
X89049Y166283D01*
X89106Y166270D01*
X89158Y166261D01*
X89202Y166253D01*
X89241Y166248D01*
X89272Y166244D01*
X89311D01*
X89403Y166253D01*
X89486Y166270D01*
X89560Y166296D01*
X89622Y166327D01*
X89670Y166358D01*
X89705Y166384D01*
X89726Y166401D01*
X89735Y166410D01*
X89792Y166475D01*
X89836Y166545D01*
X89866Y166615D01*
X89884Y166685D01*
X89897Y166742D01*
X89901Y166790D01*
X89906Y166808D01*
Y166821D01*
Y166829D01*
Y166834D01*
X89897Y166930D01*
X89875Y167017D01*
X89849Y167092D01*
X89814Y167157D01*
X89779Y167210D01*
X89753Y167249D01*
X89731Y167275D01*
X89722Y167284D01*
X89652Y167345D01*
X89578Y167389D01*
X89504Y167419D01*
X89434Y167441D01*
X89372Y167454D01*
X89324Y167459D01*
X89307Y167463D01*
X89281D01*
X89202Y167459D01*
X89128Y167441D01*
X89062Y167419D01*
X89010Y167393D01*
X88966Y167371D01*
X88931Y167350D01*
X88914Y167332D01*
X88905Y167328D01*
X88852Y167266D01*
X88809Y167197D01*
X88769Y167122D01*
X88739Y167044D01*
X88717Y166978D01*
X88708Y166947D01*
X88704Y166921D01*
X88699Y166899D01*
X88695Y166882D01*
X88691Y166873D01*
Y166869D01*
X88319Y166917D01*
X88328Y166987D01*
X88341Y167052D01*
X88380Y167175D01*
X88428Y167280D01*
X88455Y167323D01*
X88481Y167367D01*
X88507Y167406D01*
X88533Y167437D01*
X88555Y167467D01*
X88577Y167489D01*
X88590Y167507D01*
X88603Y167520D01*
X88612Y167529D01*
X88616Y167533D01*
X88669Y167572D01*
X88721Y167612D01*
X88774Y167642D01*
X88831Y167668D01*
X88940Y167712D01*
X89045Y167738D01*
X89093Y167747D01*
X89136Y167756D01*
X89176Y167760D01*
X89211Y167765D01*
X89237Y167769D01*
X89276D01*
X89359Y167765D01*
D02*
G37*
G36*
X87096D02*
X87187Y167747D01*
X87270Y167730D01*
X87345Y167703D01*
X87401Y167682D01*
X87445Y167660D01*
X87463Y167655D01*
X87476Y167647D01*
X87480Y167642D01*
X87485D01*
X87559Y167590D01*
X87629Y167529D01*
X87686Y167467D01*
X87734Y167406D01*
X87773Y167350D01*
X87799Y167306D01*
X87808Y167288D01*
X87817Y167275D01*
X87821Y167271D01*
Y167266D01*
X87865Y167175D01*
X87895Y167078D01*
X87917Y166991D01*
X87930Y166908D01*
X87943Y166838D01*
Y166812D01*
X87948Y166786D01*
Y166764D01*
Y166751D01*
Y166742D01*
Y166738D01*
X87943Y166659D01*
X87935Y166585D01*
X87922Y166510D01*
X87909Y166445D01*
X87887Y166384D01*
X87865Y166323D01*
X87843Y166270D01*
X87817Y166222D01*
X87791Y166178D01*
X87769Y166139D01*
X87747Y166108D01*
X87725Y166078D01*
X87712Y166056D01*
X87699Y166043D01*
X87690Y166034D01*
X87686Y166030D01*
X87638Y165982D01*
X87585Y165938D01*
X87528Y165903D01*
X87476Y165872D01*
X87423Y165842D01*
X87371Y165820D01*
X87270Y165789D01*
X87227Y165776D01*
X87183Y165768D01*
X87148Y165763D01*
X87113Y165759D01*
X87087Y165754D01*
X87052D01*
X86973Y165759D01*
X86899Y165772D01*
X86829Y165785D01*
X86768Y165803D01*
X86715Y165824D01*
X86676Y165837D01*
X86650Y165850D01*
X86646Y165855D01*
X86641D01*
X86571Y165899D01*
X86510Y165947D01*
X86453Y165995D01*
X86410Y166047D01*
X86370Y166091D01*
X86340Y166126D01*
X86322Y166152D01*
X86318Y166156D01*
Y166078D01*
X86322Y165999D01*
X86326Y165929D01*
X86335Y165859D01*
X86340Y165798D01*
X86348Y165741D01*
X86357Y165689D01*
X86370Y165641D01*
X86379Y165597D01*
X86388Y165562D01*
X86396Y165532D01*
X86401Y165505D01*
X86410Y165488D01*
X86414Y165475D01*
X86418Y165466D01*
Y165462D01*
X86462Y165374D01*
X86506Y165296D01*
X86554Y165234D01*
X86598Y165182D01*
X86637Y165138D01*
X86667Y165108D01*
X86689Y165090D01*
X86698Y165086D01*
X86750Y165051D01*
X86803Y165029D01*
X86855Y165012D01*
X86908Y164998D01*
X86947Y164990D01*
X86982Y164985D01*
X87013D01*
X87091Y164994D01*
X87166Y165012D01*
X87227Y165038D01*
X87284Y165064D01*
X87327Y165094D01*
X87358Y165121D01*
X87375Y165138D01*
X87384Y165147D01*
X87415Y165186D01*
X87445Y165234D01*
X87471Y165287D01*
X87489Y165339D01*
X87506Y165387D01*
X87520Y165427D01*
X87524Y165453D01*
X87528Y165457D01*
Y165462D01*
X87900Y165431D01*
X87874Y165309D01*
X87834Y165199D01*
X87791Y165103D01*
X87742Y165025D01*
X87694Y164963D01*
X87677Y164937D01*
X87655Y164915D01*
X87642Y164902D01*
X87629Y164889D01*
X87624Y164885D01*
X87620Y164880D01*
X87576Y164845D01*
X87528Y164815D01*
X87432Y164762D01*
X87336Y164727D01*
X87244Y164706D01*
X87161Y164688D01*
X87126Y164684D01*
X87096D01*
X87069Y164679D01*
X87034D01*
X86947Y164684D01*
X86864Y164692D01*
X86785Y164710D01*
X86711Y164732D01*
X86646Y164762D01*
X86580Y164789D01*
X86523Y164824D01*
X86471Y164854D01*
X86427Y164885D01*
X86383Y164920D01*
X86348Y164946D01*
X86322Y164972D01*
X86300Y164998D01*
X86283Y165016D01*
X86274Y165025D01*
X86270Y165029D01*
X86213Y165108D01*
X86165Y165199D01*
X86121Y165296D01*
X86082Y165396D01*
X86051Y165501D01*
X86025Y165606D01*
X86003Y165715D01*
X85986Y165816D01*
X85973Y165916D01*
X85964Y166008D01*
X85955Y166091D01*
X85951Y166161D01*
Y166222D01*
X85946Y166266D01*
Y166283D01*
Y166296D01*
Y166301D01*
Y166305D01*
X85951Y166445D01*
X85959Y166576D01*
X85973Y166698D01*
X85994Y166812D01*
X86016Y166912D01*
X86038Y167004D01*
X86064Y167087D01*
X86095Y167162D01*
X86121Y167223D01*
X86147Y167280D01*
X86169Y167323D01*
X86195Y167363D01*
X86213Y167393D01*
X86226Y167411D01*
X86235Y167424D01*
X86239Y167428D01*
X86296Y167489D01*
X86357Y167542D01*
X86418Y167585D01*
X86480Y167625D01*
X86545Y167660D01*
X86606Y167686D01*
X86667Y167708D01*
X86729Y167725D01*
X86781Y167738D01*
X86833Y167752D01*
X86877Y167760D01*
X86917Y167765D01*
X86951D01*
X86973Y167769D01*
X86995D01*
X87096Y167765D01*
D02*
G37*
G36*
X92226Y166991D02*
X92637D01*
Y166650D01*
X92226D01*
Y164692D01*
X91925D01*
X90539Y166650D01*
Y166991D01*
X91855D01*
Y167717D01*
X92226D01*
Y166991D01*
D02*
G37*
G36*
X114567Y114844D02*
X114641Y114839D01*
X114711Y114826D01*
X114776Y114813D01*
X114838Y114796D01*
X114894Y114778D01*
X114947Y114756D01*
X114995Y114734D01*
X115039Y114713D01*
X115074Y114691D01*
X115104Y114673D01*
X115130Y114656D01*
X115152Y114643D01*
X115165Y114630D01*
X115174Y114625D01*
X115178Y114621D01*
X115222Y114577D01*
X115261Y114529D01*
X115301Y114477D01*
X115331Y114424D01*
X115384Y114319D01*
X115419Y114215D01*
X115432Y114166D01*
X115445Y114118D01*
X115454Y114079D01*
X115462Y114044D01*
X115467Y114014D01*
Y113992D01*
X115471Y113979D01*
Y113974D01*
X115091Y113935D01*
X115082Y114035D01*
X115065Y114123D01*
X115039Y114201D01*
X115008Y114263D01*
X114982Y114315D01*
X114955Y114350D01*
X114938Y114372D01*
X114929Y114381D01*
X114864Y114433D01*
X114794Y114472D01*
X114719Y114503D01*
X114654Y114520D01*
X114593Y114533D01*
X114540Y114538D01*
X114523Y114542D01*
X114497D01*
X114405Y114538D01*
X114322Y114520D01*
X114252Y114494D01*
X114191Y114468D01*
X114143Y114437D01*
X114112Y114416D01*
X114090Y114398D01*
X114082Y114389D01*
X114029Y114328D01*
X113990Y114267D01*
X113959Y114206D01*
X113942Y114145D01*
X113928Y114096D01*
X113924Y114053D01*
X113920Y114027D01*
Y114022D01*
Y114018D01*
X113928Y113939D01*
X113946Y113856D01*
X113977Y113782D01*
X114007Y113712D01*
X114042Y113655D01*
X114073Y113607D01*
X114082Y113590D01*
X114090Y113576D01*
X114099Y113572D01*
Y113568D01*
X114134Y113520D01*
X114178Y113472D01*
X114226Y113419D01*
X114278Y113367D01*
X114387Y113262D01*
X114497Y113157D01*
X114553Y113109D01*
X114602Y113065D01*
X114650Y113026D01*
X114689Y112991D01*
X114719Y112965D01*
X114746Y112943D01*
X114763Y112930D01*
X114768Y112925D01*
X114877Y112834D01*
X114977Y112746D01*
X115060Y112668D01*
X115126Y112602D01*
X115183Y112545D01*
X115222Y112506D01*
X115244Y112480D01*
X115253Y112475D01*
Y112471D01*
X115314Y112397D01*
X115362Y112327D01*
X115406Y112257D01*
X115441Y112196D01*
X115467Y112143D01*
X115484Y112104D01*
X115493Y112078D01*
X115497Y112073D01*
Y112069D01*
X115515Y112021D01*
X115524Y111977D01*
X115532Y111933D01*
X115537Y111894D01*
X115541Y111859D01*
Y111833D01*
Y111815D01*
Y111811D01*
X113535D01*
Y112169D01*
X115025D01*
X114973Y112244D01*
X114947Y112274D01*
X114925Y112305D01*
X114903Y112331D01*
X114886Y112348D01*
X114873Y112362D01*
X114868Y112366D01*
X114846Y112388D01*
X114820Y112410D01*
X114759Y112467D01*
X114689Y112532D01*
X114615Y112598D01*
X114545Y112654D01*
X114514Y112681D01*
X114488Y112707D01*
X114466Y112724D01*
X114449Y112738D01*
X114440Y112746D01*
X114436Y112751D01*
X114366Y112812D01*
X114296Y112869D01*
X114234Y112925D01*
X114178Y112973D01*
X114125Y113022D01*
X114082Y113065D01*
X114038Y113104D01*
X114003Y113139D01*
X113968Y113174D01*
X113942Y113201D01*
X113920Y113223D01*
X113898Y113244D01*
X113876Y113271D01*
X113867Y113279D01*
X113806Y113354D01*
X113754Y113419D01*
X113710Y113485D01*
X113675Y113537D01*
X113649Y113585D01*
X113631Y113620D01*
X113623Y113642D01*
X113618Y113651D01*
X113592Y113716D01*
X113575Y113782D01*
X113557Y113843D01*
X113548Y113895D01*
X113544Y113944D01*
X113540Y113979D01*
Y114000D01*
Y114009D01*
X113544Y114075D01*
X113553Y114136D01*
X113561Y114197D01*
X113579Y114250D01*
X113623Y114354D01*
X113666Y114437D01*
X113693Y114477D01*
X113714Y114507D01*
X113736Y114538D01*
X113758Y114560D01*
X113776Y114577D01*
X113784Y114595D01*
X113793Y114599D01*
X113797Y114603D01*
X113846Y114647D01*
X113898Y114687D01*
X113955Y114717D01*
X114012Y114743D01*
X114125Y114787D01*
X114239Y114818D01*
X114287Y114826D01*
X114335Y114835D01*
X114379Y114839D01*
X114414Y114844D01*
X114444Y114848D01*
X114488D01*
X114567Y114844D01*
D02*
G37*
G36*
X109864D02*
X109939Y114839D01*
X110009Y114826D01*
X110074Y114813D01*
X110135Y114796D01*
X110192Y114778D01*
X110245Y114756D01*
X110293Y114734D01*
X110336Y114713D01*
X110371Y114691D01*
X110402Y114673D01*
X110428Y114656D01*
X110450Y114643D01*
X110463Y114630D01*
X110472Y114625D01*
X110476Y114621D01*
X110520Y114577D01*
X110559Y114529D01*
X110599Y114477D01*
X110629Y114424D01*
X110682Y114319D01*
X110717Y114215D01*
X110730Y114166D01*
X110743Y114118D01*
X110752Y114079D01*
X110760Y114044D01*
X110765Y114014D01*
Y113992D01*
X110769Y113979D01*
Y113974D01*
X110389Y113935D01*
X110380Y114035D01*
X110363Y114123D01*
X110336Y114201D01*
X110306Y114263D01*
X110280Y114315D01*
X110253Y114350D01*
X110236Y114372D01*
X110227Y114381D01*
X110162Y114433D01*
X110092Y114472D01*
X110017Y114503D01*
X109952Y114520D01*
X109891Y114533D01*
X109838Y114538D01*
X109821Y114542D01*
X109794D01*
X109703Y114538D01*
X109620Y114520D01*
X109550Y114494D01*
X109489Y114468D01*
X109441Y114437D01*
X109410Y114416D01*
X109388Y114398D01*
X109379Y114389D01*
X109327Y114328D01*
X109288Y114267D01*
X109257Y114206D01*
X109239Y114145D01*
X109226Y114096D01*
X109222Y114053D01*
X109218Y114027D01*
Y114022D01*
Y114018D01*
X109226Y113939D01*
X109244Y113856D01*
X109274Y113782D01*
X109305Y113712D01*
X109340Y113655D01*
X109371Y113607D01*
X109379Y113590D01*
X109388Y113576D01*
X109397Y113572D01*
Y113568D01*
X109432Y113520D01*
X109476Y113472D01*
X109524Y113419D01*
X109576Y113367D01*
X109685Y113262D01*
X109794Y113157D01*
X109851Y113109D01*
X109899Y113065D01*
X109948Y113026D01*
X109987Y112991D01*
X110017Y112965D01*
X110044Y112943D01*
X110061Y112930D01*
X110065Y112925D01*
X110175Y112834D01*
X110275Y112746D01*
X110358Y112668D01*
X110424Y112602D01*
X110481Y112545D01*
X110520Y112506D01*
X110542Y112480D01*
X110550Y112475D01*
Y112471D01*
X110612Y112397D01*
X110660Y112327D01*
X110704Y112257D01*
X110738Y112196D01*
X110765Y112143D01*
X110782Y112104D01*
X110791Y112078D01*
X110795Y112073D01*
Y112069D01*
X110813Y112021D01*
X110821Y111977D01*
X110830Y111933D01*
X110835Y111894D01*
X110839Y111859D01*
Y111833D01*
Y111815D01*
Y111811D01*
X108833D01*
Y112169D01*
X110323D01*
X110271Y112244D01*
X110245Y112274D01*
X110223Y112305D01*
X110201Y112331D01*
X110184Y112348D01*
X110170Y112362D01*
X110166Y112366D01*
X110144Y112388D01*
X110118Y112410D01*
X110057Y112467D01*
X109987Y112532D01*
X109913Y112598D01*
X109843Y112654D01*
X109812Y112681D01*
X109786Y112707D01*
X109764Y112724D01*
X109747Y112738D01*
X109738Y112746D01*
X109733Y112751D01*
X109663Y112812D01*
X109593Y112869D01*
X109532Y112925D01*
X109476Y112973D01*
X109423Y113022D01*
X109379Y113065D01*
X109336Y113104D01*
X109301Y113139D01*
X109266Y113174D01*
X109239Y113201D01*
X109218Y113223D01*
X109196Y113244D01*
X109174Y113271D01*
X109165Y113279D01*
X109104Y113354D01*
X109052Y113419D01*
X109008Y113485D01*
X108973Y113537D01*
X108947Y113585D01*
X108929Y113620D01*
X108921Y113642D01*
X108916Y113651D01*
X108890Y113716D01*
X108872Y113782D01*
X108855Y113843D01*
X108846Y113895D01*
X108842Y113944D01*
X108837Y113979D01*
Y114000D01*
Y114009D01*
X108842Y114075D01*
X108851Y114136D01*
X108859Y114197D01*
X108877Y114250D01*
X108921Y114354D01*
X108964Y114437D01*
X108991Y114477D01*
X109012Y114507D01*
X109034Y114538D01*
X109056Y114560D01*
X109073Y114577D01*
X109082Y114595D01*
X109091Y114599D01*
X109095Y114603D01*
X109143Y114647D01*
X109196Y114687D01*
X109253Y114717D01*
X109309Y114743D01*
X109423Y114787D01*
X109537Y114818D01*
X109585Y114826D01*
X109633Y114835D01*
X109677Y114839D01*
X109712Y114844D01*
X109742Y114848D01*
X109786D01*
X109864Y114844D01*
D02*
G37*
G36*
X112023Y114774D02*
X112071Y114704D01*
X112128Y114634D01*
X112180Y114573D01*
X112233Y114520D01*
X112272Y114477D01*
X112290Y114464D01*
X112303Y114451D01*
X112307Y114446D01*
X112312Y114442D01*
X112403Y114367D01*
X112495Y114298D01*
X112583Y114236D01*
X112670Y114188D01*
X112744Y114145D01*
X112775Y114127D01*
X112801Y114114D01*
X112823Y114101D01*
X112840Y114096D01*
X112849Y114088D01*
X112854D01*
Y113729D01*
X112788Y113756D01*
X112722Y113786D01*
X112657Y113817D01*
X112596Y113847D01*
X112543Y113874D01*
X112500Y113895D01*
X112473Y113913D01*
X112469Y113917D01*
X112465D01*
X112386Y113965D01*
X112316Y114014D01*
X112255Y114057D01*
X112207Y114096D01*
X112163Y114127D01*
X112137Y114153D01*
X112115Y114171D01*
X112111Y114175D01*
Y111811D01*
X111739D01*
Y114848D01*
X111979D01*
X112023Y114774D01*
D02*
G37*
G36*
X117224Y114879D02*
X117363Y114857D01*
X117486Y114831D01*
X117543Y114813D01*
X117595Y114796D01*
X117643Y114778D01*
X117687Y114761D01*
X117722Y114748D01*
X117757Y114734D01*
X117779Y114721D01*
X117796Y114713D01*
X117809Y114708D01*
X117814Y114704D01*
X117931Y114630D01*
X118032Y114542D01*
X118119Y114455D01*
X118194Y114367D01*
X118251Y114289D01*
X118272Y114254D01*
X118290Y114223D01*
X118307Y114201D01*
X118316Y114184D01*
X118320Y114171D01*
X118325Y114166D01*
X118386Y114031D01*
X118430Y113891D01*
X118460Y113751D01*
X118482Y113625D01*
X118491Y113568D01*
X118495Y113511D01*
X118500Y113467D01*
Y113424D01*
X118504Y113393D01*
Y113367D01*
Y113349D01*
Y113345D01*
X118495Y113188D01*
X118478Y113035D01*
X118456Y112899D01*
X118438Y112834D01*
X118425Y112777D01*
X118412Y112724D01*
X118395Y112676D01*
X118382Y112633D01*
X118373Y112598D01*
X118360Y112571D01*
X118355Y112549D01*
X118347Y112536D01*
Y112532D01*
X118281Y112401D01*
X118207Y112283D01*
X118128Y112182D01*
X118089Y112143D01*
X118054Y112104D01*
X118019Y112069D01*
X117984Y112038D01*
X117953Y112012D01*
X117927Y111995D01*
X117910Y111977D01*
X117892Y111964D01*
X117883Y111960D01*
X117879Y111955D01*
X117818Y111920D01*
X117757Y111890D01*
X117626Y111842D01*
X117494Y111807D01*
X117368Y111785D01*
X117307Y111776D01*
X117254Y111767D01*
X117206Y111763D01*
X117167D01*
X117132Y111759D01*
X117084D01*
X116996Y111763D01*
X116913Y111772D01*
X116835Y111780D01*
X116760Y111798D01*
X116690Y111820D01*
X116625Y111842D01*
X116564Y111864D01*
X116507Y111890D01*
X116459Y111911D01*
X116411Y111933D01*
X116376Y111955D01*
X116341Y111977D01*
X116319Y111995D01*
X116297Y112003D01*
X116288Y112012D01*
X116284Y112016D01*
X116223Y112069D01*
X116170Y112121D01*
X116122Y112182D01*
X116074Y112244D01*
X115996Y112366D01*
X115934Y112488D01*
X115908Y112545D01*
X115886Y112598D01*
X115869Y112646D01*
X115856Y112685D01*
X115843Y112720D01*
X115834Y112746D01*
X115830Y112764D01*
Y112768D01*
X116232Y112869D01*
X116249Y112799D01*
X116271Y112733D01*
X116293Y112672D01*
X116315Y112615D01*
X116341Y112563D01*
X116367Y112519D01*
X116398Y112475D01*
X116424Y112436D01*
X116446Y112401D01*
X116472Y112375D01*
X116494Y112348D01*
X116511Y112327D01*
X116529Y112314D01*
X116542Y112301D01*
X116546Y112296D01*
X116551Y112292D01*
X116594Y112257D01*
X116642Y112231D01*
X116738Y112182D01*
X116830Y112147D01*
X116922Y112126D01*
X117001Y112108D01*
X117031Y112104D01*
X117062D01*
X117088Y112099D01*
X117119D01*
X117219Y112104D01*
X117315Y112121D01*
X117403Y112143D01*
X117481Y112169D01*
X117543Y112196D01*
X117569Y112209D01*
X117591Y112217D01*
X117608Y112226D01*
X117621Y112235D01*
X117630Y112239D01*
X117634D01*
X117717Y112301D01*
X117787Y112366D01*
X117848Y112440D01*
X117896Y112510D01*
X117936Y112571D01*
X117962Y112624D01*
X117971Y112646D01*
X117980Y112659D01*
X117984Y112668D01*
Y112672D01*
X118019Y112785D01*
X118045Y112899D01*
X118067Y113013D01*
X118080Y113118D01*
X118084Y113166D01*
X118089Y113209D01*
Y113249D01*
X118093Y113279D01*
Y113306D01*
Y113327D01*
Y113340D01*
Y113345D01*
X118089Y113459D01*
X118080Y113563D01*
X118063Y113660D01*
X118045Y113747D01*
X118032Y113821D01*
X118023Y113852D01*
X118015Y113878D01*
X118010Y113900D01*
X118006Y113913D01*
X118001Y113922D01*
Y113926D01*
X117958Y114027D01*
X117910Y114118D01*
X117857Y114193D01*
X117800Y114258D01*
X117752Y114311D01*
X117713Y114346D01*
X117682Y114367D01*
X117678Y114376D01*
X117674D01*
X117582Y114433D01*
X117481Y114477D01*
X117385Y114507D01*
X117294Y114525D01*
X117210Y114538D01*
X117175Y114542D01*
X117145D01*
X117123Y114547D01*
X117088D01*
X116979Y114542D01*
X116878Y114525D01*
X116795Y114499D01*
X116721Y114472D01*
X116664Y114442D01*
X116621Y114420D01*
X116594Y114402D01*
X116586Y114394D01*
X116516Y114328D01*
X116450Y114254D01*
X116398Y114175D01*
X116354Y114096D01*
X116319Y114027D01*
X116306Y113992D01*
X116297Y113965D01*
X116288Y113944D01*
X116280Y113926D01*
X116275Y113917D01*
Y113913D01*
X115882Y114005D01*
X115908Y114083D01*
X115934Y114153D01*
X115969Y114219D01*
X116000Y114284D01*
X116035Y114341D01*
X116074Y114394D01*
X116109Y114446D01*
X116144Y114490D01*
X116179Y114525D01*
X116210Y114560D01*
X116240Y114590D01*
X116262Y114612D01*
X116284Y114634D01*
X116302Y114647D01*
X116310Y114652D01*
X116315Y114656D01*
X116376Y114695D01*
X116437Y114734D01*
X116498Y114765D01*
X116564Y114791D01*
X116695Y114831D01*
X116813Y114857D01*
X116870Y114870D01*
X116918Y114874D01*
X116966Y114879D01*
X117005Y114883D01*
X117036Y114887D01*
X117079D01*
X117224Y114879D01*
D02*
G37*
G36*
X51809Y190036D02*
X51926Y190014D01*
X52027Y189980D01*
X52114Y189945D01*
X52154Y189923D01*
X52184Y189905D01*
X52215Y189888D01*
X52237Y189870D01*
X52254Y189857D01*
X52267Y189848D01*
X52276Y189844D01*
X52280Y189840D01*
X52364Y189757D01*
X52429Y189665D01*
X52481Y189569D01*
X52525Y189473D01*
X52551Y189390D01*
X52565Y189355D01*
X52573Y189324D01*
X52578Y189298D01*
X52582Y189280D01*
X52586Y189267D01*
Y189263D01*
X52215Y189197D01*
X52197Y189293D01*
X52171Y189376D01*
X52141Y189446D01*
X52110Y189503D01*
X52079Y189547D01*
X52053Y189577D01*
X52036Y189599D01*
X52031Y189604D01*
X51974Y189647D01*
X51913Y189682D01*
X51856Y189704D01*
X51800Y189722D01*
X51747Y189730D01*
X51708Y189739D01*
X51673D01*
X51594Y189735D01*
X51524Y189717D01*
X51463Y189695D01*
X51411Y189674D01*
X51372Y189647D01*
X51341Y189626D01*
X51319Y189608D01*
X51315Y189604D01*
X51267Y189551D01*
X51232Y189494D01*
X51210Y189438D01*
X51192Y189385D01*
X51184Y189337D01*
X51175Y189302D01*
Y189276D01*
Y189271D01*
Y189267D01*
Y189219D01*
X51184Y189175D01*
X51205Y189101D01*
X51236Y189035D01*
X51271Y188979D01*
X51306Y188939D01*
X51336Y188909D01*
X51358Y188891D01*
X51363Y188887D01*
X51367D01*
X51441Y188848D01*
X51511Y188817D01*
X51586Y188795D01*
X51651Y188782D01*
X51708Y188773D01*
X51756Y188765D01*
X51813D01*
X51830Y188769D01*
X51852D01*
X51896Y188441D01*
X51839Y188454D01*
X51787Y188463D01*
X51743Y188472D01*
X51704Y188476D01*
X51673Y188481D01*
X51634D01*
X51542Y188472D01*
X51459Y188454D01*
X51385Y188428D01*
X51323Y188398D01*
X51275Y188367D01*
X51240Y188341D01*
X51218Y188323D01*
X51210Y188314D01*
X51153Y188249D01*
X51109Y188179D01*
X51079Y188109D01*
X51061Y188039D01*
X51048Y187982D01*
X51044Y187934D01*
X51039Y187917D01*
Y187904D01*
Y187895D01*
Y187891D01*
X51048Y187794D01*
X51070Y187707D01*
X51096Y187633D01*
X51131Y187567D01*
X51166Y187515D01*
X51192Y187476D01*
X51214Y187449D01*
X51223Y187441D01*
X51293Y187379D01*
X51367Y187336D01*
X51441Y187305D01*
X51511Y187283D01*
X51573Y187270D01*
X51621Y187266D01*
X51638Y187261D01*
X51664D01*
X51743Y187266D01*
X51817Y187283D01*
X51883Y187305D01*
X51935Y187331D01*
X51979Y187353D01*
X52014Y187375D01*
X52031Y187392D01*
X52040Y187397D01*
X52092Y187458D01*
X52136Y187528D01*
X52175Y187602D01*
X52206Y187681D01*
X52228Y187746D01*
X52237Y187777D01*
X52241Y187803D01*
X52245Y187825D01*
X52250Y187843D01*
X52254Y187851D01*
Y187856D01*
X52626Y187808D01*
X52617Y187738D01*
X52604Y187672D01*
X52565Y187550D01*
X52516Y187445D01*
X52490Y187401D01*
X52464Y187357D01*
X52438Y187318D01*
X52412Y187288D01*
X52390Y187257D01*
X52368Y187235D01*
X52355Y187218D01*
X52342Y187205D01*
X52333Y187196D01*
X52328Y187191D01*
X52276Y187152D01*
X52224Y187113D01*
X52171Y187082D01*
X52114Y187056D01*
X52005Y187012D01*
X51900Y186986D01*
X51852Y186977D01*
X51809Y186969D01*
X51769Y186964D01*
X51734Y186960D01*
X51708Y186955D01*
X51669D01*
X51586Y186960D01*
X51511Y186969D01*
X51437Y186982D01*
X51367Y186999D01*
X51301Y187021D01*
X51245Y187043D01*
X51188Y187069D01*
X51140Y187095D01*
X51092Y187117D01*
X51052Y187143D01*
X51017Y187165D01*
X50991Y187187D01*
X50969Y187205D01*
X50952Y187218D01*
X50943Y187226D01*
X50939Y187231D01*
X50886Y187283D01*
X50843Y187340D01*
X50803Y187397D01*
X50768Y187454D01*
X50742Y187506D01*
X50716Y187563D01*
X50681Y187668D01*
X50672Y187716D01*
X50664Y187759D01*
X50655Y187799D01*
X50650Y187834D01*
X50646Y187860D01*
Y187882D01*
Y187895D01*
Y187899D01*
X50650Y188004D01*
X50668Y188100D01*
X50694Y188183D01*
X50720Y188253D01*
X50747Y188310D01*
X50773Y188354D01*
X50790Y188380D01*
X50795Y188389D01*
X50856Y188454D01*
X50921Y188511D01*
X50991Y188555D01*
X51061Y188590D01*
X51122Y188616D01*
X51170Y188634D01*
X51188Y188638D01*
X51201Y188642D01*
X51210Y188647D01*
X51214D01*
X51140Y188686D01*
X51079Y188725D01*
X51026Y188769D01*
X50982Y188808D01*
X50948Y188843D01*
X50921Y188874D01*
X50908Y188891D01*
X50904Y188900D01*
X50869Y188961D01*
X50843Y189022D01*
X50821Y189084D01*
X50808Y189140D01*
X50799Y189189D01*
X50795Y189224D01*
Y189250D01*
Y189258D01*
X50799Y189333D01*
X50812Y189407D01*
X50830Y189473D01*
X50851Y189529D01*
X50873Y189577D01*
X50891Y189617D01*
X50904Y189639D01*
X50908Y189647D01*
X50952Y189713D01*
X51004Y189770D01*
X51057Y189818D01*
X51109Y189862D01*
X51153Y189892D01*
X51192Y189918D01*
X51218Y189931D01*
X51223Y189936D01*
X51227D01*
X51306Y189971D01*
X51385Y189997D01*
X51463Y190019D01*
X51533Y190032D01*
X51590Y190041D01*
X51638Y190045D01*
X51747D01*
X51809Y190036D01*
D02*
G37*
G36*
X49357Y190041D02*
X49431Y190036D01*
X49501Y190023D01*
X49567Y190010D01*
X49628Y189993D01*
X49685Y189975D01*
X49737Y189953D01*
X49785Y189931D01*
X49829Y189910D01*
X49864Y189888D01*
X49894Y189870D01*
X49921Y189853D01*
X49942Y189840D01*
X49956Y189827D01*
X49964Y189822D01*
X49969Y189818D01*
X50012Y189774D01*
X50052Y189726D01*
X50091Y189674D01*
X50122Y189621D01*
X50174Y189516D01*
X50209Y189411D01*
X50222Y189363D01*
X50235Y189315D01*
X50244Y189276D01*
X50253Y189241D01*
X50257Y189210D01*
Y189189D01*
X50261Y189175D01*
Y189171D01*
X49881Y189132D01*
X49873Y189232D01*
X49855Y189320D01*
X49829Y189398D01*
X49798Y189459D01*
X49772Y189512D01*
X49746Y189547D01*
X49728Y189569D01*
X49720Y189577D01*
X49654Y189630D01*
X49584Y189669D01*
X49510Y189700D01*
X49444Y189717D01*
X49383Y189730D01*
X49331Y189735D01*
X49313Y189739D01*
X49287D01*
X49195Y189735D01*
X49112Y189717D01*
X49042Y189691D01*
X48981Y189665D01*
X48933Y189634D01*
X48902Y189612D01*
X48881Y189595D01*
X48872Y189586D01*
X48819Y189525D01*
X48780Y189464D01*
X48750Y189403D01*
X48732Y189341D01*
X48719Y189293D01*
X48715Y189250D01*
X48710Y189224D01*
Y189219D01*
Y189215D01*
X48719Y189136D01*
X48736Y189053D01*
X48767Y188979D01*
X48798Y188909D01*
X48832Y188852D01*
X48863Y188804D01*
X48872Y188786D01*
X48881Y188773D01*
X48889Y188769D01*
Y188765D01*
X48924Y188716D01*
X48968Y188669D01*
X49016Y188616D01*
X49068Y188564D01*
X49178Y188459D01*
X49287Y188354D01*
X49344Y188306D01*
X49392Y188262D01*
X49440Y188223D01*
X49479Y188188D01*
X49510Y188162D01*
X49536Y188140D01*
X49553Y188127D01*
X49558Y188122D01*
X49667Y188030D01*
X49768Y187943D01*
X49851Y187864D01*
X49916Y187799D01*
X49973Y187742D01*
X50012Y187703D01*
X50034Y187677D01*
X50043Y187672D01*
Y187668D01*
X50104Y187593D01*
X50152Y187523D01*
X50196Y187454D01*
X50231Y187392D01*
X50257Y187340D01*
X50275Y187301D01*
X50283Y187274D01*
X50288Y187270D01*
Y187266D01*
X50305Y187218D01*
X50314Y187174D01*
X50323Y187130D01*
X50327Y187091D01*
X50331Y187056D01*
Y187030D01*
Y187012D01*
Y187008D01*
X48326D01*
Y187366D01*
X49816D01*
X49763Y187441D01*
X49737Y187471D01*
X49715Y187502D01*
X49693Y187528D01*
X49676Y187545D01*
X49663Y187558D01*
X49658Y187563D01*
X49637Y187585D01*
X49610Y187607D01*
X49549Y187663D01*
X49479Y187729D01*
X49405Y187794D01*
X49335Y187851D01*
X49305Y187878D01*
X49278Y187904D01*
X49256Y187921D01*
X49239Y187934D01*
X49230Y187943D01*
X49226Y187947D01*
X49156Y188009D01*
X49086Y188065D01*
X49025Y188122D01*
X48968Y188170D01*
X48915Y188218D01*
X48872Y188262D01*
X48828Y188301D01*
X48793Y188336D01*
X48758Y188371D01*
X48732Y188398D01*
X48710Y188419D01*
X48688Y188441D01*
X48666Y188468D01*
X48658Y188476D01*
X48597Y188550D01*
X48544Y188616D01*
X48500Y188682D01*
X48465Y188734D01*
X48439Y188782D01*
X48422Y188817D01*
X48413Y188839D01*
X48409Y188848D01*
X48382Y188913D01*
X48365Y188979D01*
X48347Y189040D01*
X48339Y189092D01*
X48334Y189140D01*
X48330Y189175D01*
Y189197D01*
Y189206D01*
X48334Y189271D01*
X48343Y189333D01*
X48352Y189394D01*
X48369Y189446D01*
X48413Y189551D01*
X48457Y189634D01*
X48483Y189674D01*
X48505Y189704D01*
X48527Y189735D01*
X48548Y189757D01*
X48566Y189774D01*
X48575Y189792D01*
X48583Y189796D01*
X48588Y189800D01*
X48636Y189844D01*
X48688Y189883D01*
X48745Y189914D01*
X48802Y189940D01*
X48915Y189984D01*
X49029Y190014D01*
X49077Y190023D01*
X49125Y190032D01*
X49169Y190036D01*
X49204Y190041D01*
X49235Y190045D01*
X49278D01*
X49357Y190041D01*
D02*
G37*
G36*
X53998D02*
X54081Y190032D01*
X54159Y190014D01*
X54234Y189993D01*
X54299Y189962D01*
X54365Y189936D01*
X54422Y189901D01*
X54474Y189870D01*
X54518Y189840D01*
X54562Y189805D01*
X54597Y189778D01*
X54623Y189752D01*
X54645Y189726D01*
X54662Y189708D01*
X54671Y189700D01*
X54675Y189695D01*
X54732Y189617D01*
X54780Y189525D01*
X54824Y189429D01*
X54863Y189328D01*
X54894Y189224D01*
X54920Y189119D01*
X54942Y189009D01*
X54959Y188909D01*
X54972Y188808D01*
X54981Y188716D01*
X54990Y188634D01*
X54994Y188564D01*
Y188502D01*
X54999Y188459D01*
Y188441D01*
Y188428D01*
Y188424D01*
Y188419D01*
X54994Y188279D01*
X54985Y188148D01*
X54972Y188026D01*
X54950Y187912D01*
X54929Y187812D01*
X54907Y187720D01*
X54881Y187637D01*
X54850Y187563D01*
X54824Y187502D01*
X54798Y187445D01*
X54776Y187401D01*
X54750Y187362D01*
X54732Y187331D01*
X54719Y187314D01*
X54710Y187301D01*
X54706Y187296D01*
X54649Y187235D01*
X54588Y187183D01*
X54527Y187139D01*
X54465Y187100D01*
X54400Y187065D01*
X54339Y187039D01*
X54277Y187017D01*
X54216Y186999D01*
X54164Y186986D01*
X54111Y186973D01*
X54068Y186964D01*
X54028Y186960D01*
X53993D01*
X53972Y186955D01*
X53950D01*
X53849Y186960D01*
X53758Y186977D01*
X53675Y186995D01*
X53600Y187021D01*
X53543Y187043D01*
X53500Y187065D01*
X53482Y187069D01*
X53469Y187078D01*
X53465Y187082D01*
X53460D01*
X53386Y187135D01*
X53316Y187196D01*
X53259Y187257D01*
X53211Y187318D01*
X53172Y187375D01*
X53146Y187419D01*
X53137Y187436D01*
X53128Y187449D01*
X53124Y187454D01*
Y187458D01*
X53080Y187550D01*
X53049Y187646D01*
X53028Y187733D01*
X53015Y187816D01*
X53001Y187886D01*
Y187912D01*
X52997Y187939D01*
Y187961D01*
Y187974D01*
Y187982D01*
Y187987D01*
X53001Y188065D01*
X53010Y188140D01*
X53023Y188214D01*
X53036Y188279D01*
X53058Y188341D01*
X53080Y188402D01*
X53102Y188454D01*
X53128Y188502D01*
X53154Y188546D01*
X53176Y188585D01*
X53198Y188616D01*
X53220Y188647D01*
X53233Y188669D01*
X53246Y188682D01*
X53255Y188690D01*
X53259Y188695D01*
X53307Y188743D01*
X53360Y188786D01*
X53417Y188821D01*
X53469Y188852D01*
X53522Y188883D01*
X53574Y188904D01*
X53675Y188935D01*
X53718Y188948D01*
X53762Y188957D01*
X53797Y188961D01*
X53832Y188966D01*
X53858Y188970D01*
X53893D01*
X53972Y188966D01*
X54046Y188953D01*
X54116Y188939D01*
X54177Y188922D01*
X54229Y188900D01*
X54269Y188887D01*
X54295Y188874D01*
X54299Y188870D01*
X54304D01*
X54374Y188826D01*
X54435Y188778D01*
X54492Y188730D01*
X54535Y188677D01*
X54575Y188634D01*
X54605Y188599D01*
X54623Y188572D01*
X54627Y188568D01*
Y188647D01*
X54623Y188725D01*
X54618Y188795D01*
X54610Y188865D01*
X54605Y188926D01*
X54597Y188983D01*
X54588Y189035D01*
X54575Y189084D01*
X54566Y189127D01*
X54557Y189162D01*
X54549Y189193D01*
X54544Y189219D01*
X54535Y189237D01*
X54531Y189250D01*
X54527Y189258D01*
Y189263D01*
X54483Y189350D01*
X54439Y189429D01*
X54391Y189490D01*
X54347Y189542D01*
X54308Y189586D01*
X54277Y189617D01*
X54256Y189634D01*
X54247Y189639D01*
X54194Y189674D01*
X54142Y189695D01*
X54090Y189713D01*
X54037Y189726D01*
X53998Y189735D01*
X53963Y189739D01*
X53932D01*
X53854Y189730D01*
X53779Y189713D01*
X53718Y189687D01*
X53661Y189661D01*
X53618Y189630D01*
X53587Y189604D01*
X53570Y189586D01*
X53561Y189577D01*
X53530Y189538D01*
X53500Y189490D01*
X53473Y189438D01*
X53456Y189385D01*
X53439Y189337D01*
X53425Y189298D01*
X53421Y189271D01*
X53417Y189267D01*
Y189263D01*
X53045Y189293D01*
X53071Y189416D01*
X53111Y189525D01*
X53154Y189621D01*
X53202Y189700D01*
X53251Y189761D01*
X53268Y189787D01*
X53290Y189809D01*
X53303Y189822D01*
X53316Y189835D01*
X53320Y189840D01*
X53325Y189844D01*
X53369Y189879D01*
X53417Y189910D01*
X53513Y189962D01*
X53609Y189997D01*
X53701Y190019D01*
X53784Y190036D01*
X53819Y190041D01*
X53849D01*
X53875Y190045D01*
X53910D01*
X53998Y190041D01*
D02*
G37*
G36*
X57874Y187008D02*
X57472D01*
Y188349D01*
X56956D01*
X56908Y188345D01*
X56873D01*
X56843Y188341D01*
X56821Y188336D01*
X56803D01*
X56795Y188332D01*
X56790D01*
X56720Y188310D01*
X56690Y188297D01*
X56664Y188284D01*
X56637Y188271D01*
X56620Y188262D01*
X56611Y188258D01*
X56607Y188253D01*
X56572Y188227D01*
X56537Y188197D01*
X56471Y188131D01*
X56441Y188100D01*
X56419Y188074D01*
X56406Y188057D01*
X56401Y188052D01*
X56358Y187991D01*
X56310Y187926D01*
X56261Y187856D01*
X56213Y187790D01*
X56174Y187729D01*
X56143Y187681D01*
X56130Y187663D01*
X56122Y187650D01*
X56113Y187642D01*
Y187637D01*
X55715Y187008D01*
X55217D01*
X55737Y187829D01*
X55798Y187917D01*
X55855Y187996D01*
X55912Y188061D01*
X55960Y188122D01*
X56004Y188166D01*
X56039Y188201D01*
X56060Y188223D01*
X56069Y188232D01*
X56104Y188258D01*
X56143Y188288D01*
X56222Y188336D01*
X56257Y188354D01*
X56283Y188371D01*
X56301Y188380D01*
X56310Y188384D01*
X56231Y188398D01*
X56157Y188411D01*
X56091Y188433D01*
X56025Y188450D01*
X55969Y188472D01*
X55916Y188498D01*
X55868Y188520D01*
X55825Y188542D01*
X55790Y188568D01*
X55755Y188590D01*
X55728Y188607D01*
X55707Y188625D01*
X55689Y188638D01*
X55676Y188651D01*
X55672Y188655D01*
X55667Y188660D01*
X55632Y188703D01*
X55597Y188747D01*
X55545Y188839D01*
X55510Y188931D01*
X55484Y189018D01*
X55466Y189092D01*
X55462Y189123D01*
Y189154D01*
X55457Y189175D01*
Y189193D01*
Y189202D01*
Y189206D01*
X55462Y189298D01*
X55475Y189381D01*
X55497Y189459D01*
X55519Y189525D01*
X55545Y189582D01*
X55562Y189626D01*
X55580Y189652D01*
X55584Y189656D01*
Y189661D01*
X55637Y189730D01*
X55689Y189792D01*
X55746Y189844D01*
X55798Y189883D01*
X55846Y189914D01*
X55886Y189931D01*
X55912Y189945D01*
X55916Y189949D01*
X55921D01*
X55960Y189962D01*
X56008Y189975D01*
X56104Y189997D01*
X56209Y190010D01*
X56305Y190023D01*
X56397Y190027D01*
X56436D01*
X56471Y190032D01*
X57874D01*
Y187008D01*
D02*
G37*
G36*
X63273Y172139D02*
X63199Y172095D01*
X63129Y172047D01*
X63059Y171990D01*
X62998Y171938D01*
X62946Y171886D01*
X62902Y171846D01*
X62889Y171829D01*
X62876Y171816D01*
X62871Y171811D01*
X62867Y171807D01*
X62793Y171715D01*
X62723Y171623D01*
X62662Y171536D01*
X62613Y171449D01*
X62570Y171374D01*
X62552Y171344D01*
X62539Y171317D01*
X62526Y171295D01*
X62522Y171278D01*
X62513Y171269D01*
Y171265D01*
X62155D01*
X62181Y171330D01*
X62212Y171396D01*
X62242Y171462D01*
X62273Y171523D01*
X62299Y171575D01*
X62321Y171619D01*
X62338Y171645D01*
X62343Y171650D01*
Y171654D01*
X62391Y171732D01*
X62439Y171802D01*
X62482Y171864D01*
X62522Y171912D01*
X62552Y171955D01*
X62578Y171982D01*
X62596Y172003D01*
X62600Y172008D01*
X60236D01*
Y172379D01*
X63273D01*
Y172139D01*
D02*
G37*
G36*
X61233Y170609D02*
X61329Y170592D01*
X61412Y170566D01*
X61482Y170539D01*
X61538Y170513D01*
X61582Y170487D01*
X61608Y170470D01*
X61617Y170465D01*
X61683Y170404D01*
X61739Y170338D01*
X61783Y170269D01*
X61818Y170199D01*
X61844Y170138D01*
X61862Y170089D01*
X61866Y170072D01*
X61871Y170059D01*
X61875Y170050D01*
Y170046D01*
X61914Y170120D01*
X61954Y170181D01*
X61997Y170234D01*
X62037Y170277D01*
X62072Y170312D01*
X62102Y170338D01*
X62120Y170352D01*
X62128Y170356D01*
X62190Y170391D01*
X62251Y170417D01*
X62312Y170439D01*
X62369Y170452D01*
X62417Y170461D01*
X62452Y170465D01*
X62478D01*
X62487D01*
X62561Y170461D01*
X62635Y170448D01*
X62701Y170430D01*
X62758Y170408D01*
X62806Y170387D01*
X62845Y170369D01*
X62867Y170356D01*
X62876Y170352D01*
X62941Y170308D01*
X62998Y170255D01*
X63046Y170203D01*
X63090Y170151D01*
X63120Y170107D01*
X63147Y170068D01*
X63160Y170041D01*
X63164Y170037D01*
Y170033D01*
X63199Y169954D01*
X63225Y169875D01*
X63247Y169797D01*
X63260Y169727D01*
X63269Y169670D01*
X63273Y169622D01*
Y169513D01*
X63265Y169451D01*
X63243Y169333D01*
X63208Y169233D01*
X63173Y169146D01*
X63151Y169106D01*
X63134Y169076D01*
X63116Y169045D01*
X63099Y169023D01*
X63086Y169006D01*
X63077Y168992D01*
X63072Y168984D01*
X63068Y168979D01*
X62985Y168896D01*
X62893Y168831D01*
X62797Y168778D01*
X62701Y168735D01*
X62618Y168709D01*
X62583Y168695D01*
X62552Y168687D01*
X62526Y168682D01*
X62509Y168678D01*
X62495Y168674D01*
X62491D01*
X62426Y169045D01*
X62522Y169062D01*
X62605Y169089D01*
X62675Y169119D01*
X62731Y169150D01*
X62775Y169180D01*
X62806Y169207D01*
X62828Y169224D01*
X62832Y169228D01*
X62876Y169285D01*
X62911Y169346D01*
X62932Y169403D01*
X62950Y169460D01*
X62959Y169513D01*
X62967Y169552D01*
Y169587D01*
X62963Y169666D01*
X62946Y169735D01*
X62924Y169797D01*
X62902Y169849D01*
X62876Y169888D01*
X62854Y169919D01*
X62836Y169941D01*
X62832Y169945D01*
X62780Y169993D01*
X62723Y170028D01*
X62666Y170050D01*
X62613Y170068D01*
X62565Y170076D01*
X62530Y170085D01*
X62504D01*
X62500D01*
X62495D01*
X62447D01*
X62404Y170076D01*
X62329Y170054D01*
X62264Y170024D01*
X62207Y169989D01*
X62168Y169954D01*
X62137Y169923D01*
X62120Y169902D01*
X62115Y169897D01*
Y169893D01*
X62076Y169818D01*
X62045Y169749D01*
X62024Y169674D01*
X62010Y169609D01*
X62002Y169552D01*
X61993Y169504D01*
Y169447D01*
X61997Y169430D01*
Y169408D01*
X61670Y169364D01*
X61683Y169421D01*
X61691Y169473D01*
X61700Y169517D01*
X61704Y169556D01*
X61709Y169587D01*
Y169626D01*
X61700Y169718D01*
X61683Y169801D01*
X61656Y169875D01*
X61626Y169937D01*
X61595Y169984D01*
X61569Y170019D01*
X61552Y170041D01*
X61543Y170050D01*
X61477Y170107D01*
X61407Y170151D01*
X61338Y170181D01*
X61268Y170199D01*
X61211Y170212D01*
X61163Y170216D01*
X61145Y170220D01*
X61132D01*
X61123D01*
X61119D01*
X61023Y170212D01*
X60935Y170190D01*
X60861Y170164D01*
X60796Y170129D01*
X60743Y170094D01*
X60704Y170068D01*
X60678Y170046D01*
X60669Y170037D01*
X60608Y169967D01*
X60564Y169893D01*
X60533Y169818D01*
X60511Y169749D01*
X60498Y169687D01*
X60494Y169639D01*
X60490Y169622D01*
Y169596D01*
X60494Y169517D01*
X60511Y169443D01*
X60533Y169377D01*
X60560Y169325D01*
X60581Y169281D01*
X60603Y169246D01*
X60621Y169228D01*
X60625Y169220D01*
X60686Y169167D01*
X60756Y169124D01*
X60830Y169084D01*
X60909Y169054D01*
X60975Y169032D01*
X61005Y169023D01*
X61032Y169019D01*
X61053Y169014D01*
X61071Y169010D01*
X61080Y169006D01*
X61084D01*
X61036Y168634D01*
X60966Y168643D01*
X60900Y168656D01*
X60778Y168695D01*
X60673Y168744D01*
X60629Y168770D01*
X60586Y168796D01*
X60546Y168822D01*
X60516Y168848D01*
X60485Y168870D01*
X60464Y168892D01*
X60446Y168905D01*
X60433Y168918D01*
X60424Y168927D01*
X60420Y168931D01*
X60380Y168984D01*
X60341Y169036D01*
X60311Y169089D01*
X60284Y169146D01*
X60241Y169255D01*
X60214Y169360D01*
X60206Y169408D01*
X60197Y169451D01*
X60193Y169491D01*
X60188Y169526D01*
X60184Y169552D01*
Y169591D01*
X60188Y169674D01*
X60197Y169749D01*
X60210Y169823D01*
X60228Y169893D01*
X60249Y169958D01*
X60271Y170015D01*
X60297Y170072D01*
X60324Y170120D01*
X60346Y170168D01*
X60372Y170207D01*
X60394Y170242D01*
X60415Y170269D01*
X60433Y170290D01*
X60446Y170308D01*
X60455Y170317D01*
X60459Y170321D01*
X60511Y170373D01*
X60568Y170417D01*
X60625Y170457D01*
X60682Y170492D01*
X60734Y170518D01*
X60791Y170544D01*
X60896Y170579D01*
X60944Y170588D01*
X60988Y170596D01*
X61027Y170605D01*
X61062Y170609D01*
X61088Y170614D01*
X61110D01*
X61123D01*
X61128D01*
X61233Y170609D01*
D02*
G37*
G36*
X61294Y168258D02*
X61368Y168250D01*
X61442Y168236D01*
X61508Y168223D01*
X61569Y168202D01*
X61630Y168180D01*
X61683Y168158D01*
X61731Y168132D01*
X61774Y168105D01*
X61814Y168084D01*
X61844Y168062D01*
X61875Y168040D01*
X61897Y168027D01*
X61910Y168014D01*
X61919Y168005D01*
X61923Y168000D01*
X61971Y167953D01*
X62015Y167900D01*
X62050Y167843D01*
X62080Y167791D01*
X62111Y167738D01*
X62133Y167686D01*
X62163Y167585D01*
X62177Y167542D01*
X62185Y167498D01*
X62190Y167463D01*
X62194Y167428D01*
X62198Y167402D01*
Y167367D01*
X62194Y167288D01*
X62181Y167214D01*
X62168Y167144D01*
X62150Y167083D01*
X62128Y167030D01*
X62115Y166991D01*
X62102Y166965D01*
X62098Y166961D01*
Y166956D01*
X62054Y166886D01*
X62006Y166825D01*
X61958Y166768D01*
X61906Y166725D01*
X61862Y166685D01*
X61827Y166655D01*
X61801Y166637D01*
X61796Y166633D01*
X61875D01*
X61954Y166637D01*
X62024Y166641D01*
X62094Y166650D01*
X62155Y166655D01*
X62212Y166663D01*
X62264Y166672D01*
X62312Y166685D01*
X62356Y166694D01*
X62391Y166703D01*
X62421Y166711D01*
X62447Y166716D01*
X62465Y166725D01*
X62478Y166729D01*
X62487Y166733D01*
X62491D01*
X62578Y166777D01*
X62657Y166821D01*
X62718Y166869D01*
X62771Y166912D01*
X62814Y166952D01*
X62845Y166982D01*
X62863Y167004D01*
X62867Y167013D01*
X62902Y167065D01*
X62924Y167118D01*
X62941Y167170D01*
X62954Y167223D01*
X62963Y167262D01*
X62967Y167297D01*
Y167328D01*
X62959Y167406D01*
X62941Y167481D01*
X62915Y167542D01*
X62889Y167598D01*
X62858Y167642D01*
X62832Y167673D01*
X62814Y167690D01*
X62806Y167699D01*
X62766Y167730D01*
X62718Y167760D01*
X62666Y167786D01*
X62613Y167804D01*
X62565Y167821D01*
X62526Y167834D01*
X62500Y167839D01*
X62495Y167843D01*
X62491D01*
X62522Y168215D01*
X62644Y168189D01*
X62753Y168149D01*
X62849Y168105D01*
X62928Y168057D01*
X62989Y168009D01*
X63016Y167992D01*
X63037Y167970D01*
X63051Y167957D01*
X63064Y167944D01*
X63068Y167939D01*
X63072Y167935D01*
X63107Y167891D01*
X63138Y167843D01*
X63190Y167747D01*
X63225Y167651D01*
X63247Y167559D01*
X63265Y167476D01*
X63269Y167441D01*
Y167411D01*
X63273Y167384D01*
Y167349D01*
X63269Y167262D01*
X63260Y167179D01*
X63243Y167100D01*
X63221Y167026D01*
X63190Y166961D01*
X63164Y166895D01*
X63129Y166838D01*
X63099Y166786D01*
X63068Y166742D01*
X63033Y166698D01*
X63007Y166663D01*
X62981Y166637D01*
X62954Y166615D01*
X62937Y166598D01*
X62928Y166589D01*
X62924Y166585D01*
X62845Y166528D01*
X62753Y166480D01*
X62657Y166436D01*
X62557Y166397D01*
X62452Y166366D01*
X62347Y166340D01*
X62238Y166318D01*
X62137Y166301D01*
X62037Y166288D01*
X61945Y166279D01*
X61862Y166270D01*
X61792Y166266D01*
X61731D01*
X61687Y166261D01*
X61670D01*
X61656D01*
X61652D01*
X61648D01*
X61508Y166266D01*
X61377Y166274D01*
X61254Y166288D01*
X61141Y166309D01*
X61040Y166331D01*
X60948Y166353D01*
X60865Y166379D01*
X60791Y166410D01*
X60730Y166436D01*
X60673Y166462D01*
X60629Y166484D01*
X60590Y166510D01*
X60560Y166528D01*
X60542Y166541D01*
X60529Y166550D01*
X60525Y166554D01*
X60464Y166611D01*
X60411Y166672D01*
X60367Y166733D01*
X60328Y166794D01*
X60293Y166860D01*
X60267Y166921D01*
X60245Y166982D01*
X60228Y167043D01*
X60214Y167096D01*
X60201Y167148D01*
X60193Y167192D01*
X60188Y167231D01*
Y167266D01*
X60184Y167288D01*
Y167310D01*
X60188Y167411D01*
X60206Y167502D01*
X60223Y167585D01*
X60249Y167660D01*
X60271Y167717D01*
X60293Y167760D01*
X60297Y167778D01*
X60306Y167791D01*
X60311Y167795D01*
Y167799D01*
X60363Y167874D01*
X60424Y167944D01*
X60485Y168000D01*
X60546Y168049D01*
X60603Y168088D01*
X60647Y168114D01*
X60664Y168123D01*
X60678Y168132D01*
X60682Y168136D01*
X60686D01*
X60778Y168180D01*
X60874Y168210D01*
X60962Y168232D01*
X61045Y168245D01*
X61115Y168258D01*
X61141D01*
X61167Y168263D01*
X61189D01*
X61202D01*
X61211D01*
X61215D01*
X61294Y168258D01*
D02*
G37*
G36*
X61058Y165523D02*
X61145Y165462D01*
X61224Y165405D01*
X61289Y165348D01*
X61351Y165300D01*
X61394Y165256D01*
X61429Y165221D01*
X61451Y165199D01*
X61460Y165191D01*
X61486Y165156D01*
X61517Y165116D01*
X61565Y165038D01*
X61582Y165003D01*
X61600Y164977D01*
X61608Y164959D01*
X61613Y164950D01*
X61626Y165029D01*
X61639Y165103D01*
X61661Y165169D01*
X61678Y165234D01*
X61700Y165291D01*
X61726Y165344D01*
X61748Y165392D01*
X61770Y165435D01*
X61796Y165470D01*
X61818Y165505D01*
X61836Y165532D01*
X61853Y165553D01*
X61866Y165571D01*
X61879Y165584D01*
X61884Y165588D01*
X61888Y165593D01*
X61932Y165628D01*
X61976Y165663D01*
X62067Y165715D01*
X62159Y165750D01*
X62246Y165776D01*
X62321Y165794D01*
X62351Y165798D01*
X62382D01*
X62404Y165802D01*
X62421D01*
X62430D01*
X62434D01*
X62526Y165798D01*
X62609Y165785D01*
X62688Y165763D01*
X62753Y165741D01*
X62810Y165715D01*
X62854Y165698D01*
X62880Y165680D01*
X62884Y165676D01*
X62889D01*
X62959Y165623D01*
X63020Y165571D01*
X63072Y165514D01*
X63112Y165462D01*
X63142Y165413D01*
X63160Y165374D01*
X63173Y165348D01*
X63177Y165344D01*
Y165339D01*
X63190Y165300D01*
X63203Y165252D01*
X63225Y165156D01*
X63238Y165051D01*
X63252Y164955D01*
X63256Y164863D01*
Y164824D01*
X63260Y164789D01*
Y163386D01*
X60236D01*
Y163788D01*
X61578D01*
Y164304D01*
X61573Y164352D01*
Y164387D01*
X61569Y164417D01*
X61565Y164439D01*
Y164456D01*
X61560Y164465D01*
Y164470D01*
X61538Y164540D01*
X61525Y164570D01*
X61512Y164596D01*
X61499Y164622D01*
X61490Y164640D01*
X61486Y164649D01*
X61482Y164653D01*
X61455Y164688D01*
X61425Y164723D01*
X61359Y164789D01*
X61329Y164819D01*
X61303Y164841D01*
X61285Y164854D01*
X61281Y164858D01*
X61220Y164902D01*
X61154Y164950D01*
X61084Y164998D01*
X61018Y165046D01*
X60957Y165086D01*
X60909Y165116D01*
X60892Y165129D01*
X60879Y165138D01*
X60870Y165147D01*
X60865D01*
X60236Y165545D01*
Y166043D01*
X61058Y165523D01*
D02*
G37*
G36*
X97329Y182721D02*
X97412Y182712D01*
X97491Y182699D01*
X97561Y182682D01*
X97618Y182664D01*
X97662Y182651D01*
X97688Y182642D01*
X97692Y182638D01*
X97697D01*
X97771Y182598D01*
X97832Y182559D01*
X97884Y182516D01*
X97932Y182476D01*
X97967Y182441D01*
X97989Y182411D01*
X98007Y182393D01*
X98011Y182384D01*
X98046Y182323D01*
X98072Y182258D01*
X98094Y182201D01*
X98107Y182148D01*
X98116Y182100D01*
X98120Y182065D01*
Y182044D01*
Y182035D01*
X98116Y181965D01*
X98107Y181904D01*
X98090Y181851D01*
X98077Y181803D01*
X98059Y181764D01*
X98042Y181738D01*
X98033Y181720D01*
X98029Y181716D01*
X97994Y181672D01*
X97954Y181633D01*
X97915Y181598D01*
X97876Y181572D01*
X97836Y181550D01*
X97810Y181537D01*
X97793Y181528D01*
X97784Y181524D01*
X97753Y181510D01*
X97718Y181497D01*
X97686Y181485D01*
X97703Y181424D01*
X97720Y181358D01*
X97746Y181214D01*
X97765Y181088D01*
X98037Y181052D01*
X98020Y180977D01*
X98002Y180912D01*
X97980Y180855D01*
X97959Y180802D01*
X97937Y180768D01*
X97919Y180737D01*
X97911Y180719D01*
X97906Y180715D01*
X97867Y180671D01*
X97823Y180632D01*
X97794Y180611D01*
X97790Y180471D01*
X97781Y180327D01*
X97768Y180196D01*
X97746Y180073D01*
X97724Y179960D01*
X97698Y179859D01*
X97672Y179768D01*
X97646Y179689D01*
X97620Y179619D01*
X97589Y179558D01*
X97567Y179505D01*
X97545Y179466D01*
X97523Y179431D01*
X97510Y179409D01*
X97502Y179396D01*
X97497Y179392D01*
X97449Y179339D01*
X97397Y179291D01*
X97340Y179247D01*
X97283Y179212D01*
X97226Y179182D01*
X97170Y179156D01*
X97113Y179138D01*
X97060Y179121D01*
X97008Y179108D01*
X96960Y179099D01*
X96916Y179090D01*
X96881Y179086D01*
X96851Y179081D01*
X96807D01*
X96689Y179090D01*
X96579Y179108D01*
X96488Y179138D01*
X96409Y179169D01*
X96344Y179199D01*
X96322Y179217D01*
X96300Y179230D01*
X96282Y179239D01*
X96269Y179247D01*
X96265Y179256D01*
X96260D01*
X96182Y179331D01*
X96116Y179409D01*
X96060Y179497D01*
X96016Y179575D01*
X95981Y179649D01*
X95963Y179680D01*
X95955Y179711D01*
X95946Y179733D01*
X95937Y179750D01*
X95933Y179759D01*
Y179763D01*
X95911Y179829D01*
X95893Y179894D01*
X95867Y180034D01*
X95845Y180178D01*
X95832Y180318D01*
X95828Y180379D01*
X95824Y180436D01*
Y180483D01*
X95704D01*
Y179719D01*
X95332Y179941D01*
Y180483D01*
X95057D01*
Y180772D01*
X95332D01*
Y182039D01*
Y182100D01*
Y182153D01*
X95337Y182201D01*
X95341Y182249D01*
Y182288D01*
X95345Y182323D01*
X95354Y182380D01*
X95363Y182424D01*
X95367Y182454D01*
X95376Y182472D01*
Y182476D01*
X95394Y182516D01*
X95420Y182546D01*
X95446Y182577D01*
X95468Y182598D01*
X95494Y182620D01*
X95512Y182633D01*
X95525Y182642D01*
X95529Y182647D01*
X95577Y182668D01*
X95625Y182682D01*
X95678Y182695D01*
X95730Y182699D01*
X95774Y182703D01*
X95809Y182708D01*
X95844D01*
X95940Y182703D01*
X95988Y182699D01*
X96031Y182690D01*
X96071Y182686D01*
X96101Y182682D01*
X96119Y182677D01*
X96128D01*
X96080Y182349D01*
X96045Y182354D01*
X96010Y182358D01*
X95979D01*
X95957Y182362D01*
X95913D01*
X95857Y182358D01*
X95817Y182349D01*
X95796Y182341D01*
X95787Y182336D01*
X95756Y182315D01*
X95739Y182293D01*
X95726Y182275D01*
X95721Y182266D01*
X95717Y182245D01*
X95713Y182214D01*
X95708Y182144D01*
X95704Y182113D01*
Y182087D01*
Y182070D01*
Y182061D01*
Y180772D01*
X95823D01*
X95824Y180786D01*
Y180856D01*
X95828Y180926D01*
X95837Y180987D01*
X95841Y181048D01*
X95845Y181100D01*
X95854Y181148D01*
X95859Y181192D01*
X95867Y181231D01*
X95872Y181262D01*
X95876Y181288D01*
X95880Y181310D01*
X95885Y181323D01*
X95889Y181332D01*
Y181336D01*
X95915Y181432D01*
X95946Y181520D01*
X95981Y181594D01*
X96007Y181660D01*
X96038Y181717D01*
X96055Y181756D01*
X96073Y181778D01*
X96077Y181786D01*
X96125Y181852D01*
X96173Y181909D01*
X96226Y181957D01*
X96274Y182001D01*
X96303Y182021D01*
X96298Y182022D01*
X96329Y182144D01*
X96368Y182253D01*
X96416Y182341D01*
X96464Y182415D01*
X96508Y182476D01*
X96547Y182516D01*
X96573Y182542D01*
X96578Y182546D01*
X96582Y182550D01*
X96626Y182581D01*
X96674Y182607D01*
X96779Y182651D01*
X96888Y182682D01*
X96993Y182703D01*
X97041Y182712D01*
X97085Y182717D01*
X97128Y182721D01*
X97163D01*
X97194Y182725D01*
X97233D01*
X97329Y182721D01*
D02*
G37*
G36*
X99615Y182717D02*
X99737Y182695D01*
X99847Y182668D01*
X99890Y182651D01*
X99934Y182633D01*
X99973Y182616D01*
X100008Y182598D01*
X100034Y182585D01*
X100061Y182572D01*
X100078Y182559D01*
X100091Y182550D01*
X100100Y182542D01*
X100104D01*
X100192Y182463D01*
X100262Y182380D01*
X100323Y182293D01*
X100366Y182210D01*
X100401Y182135D01*
X100415Y182100D01*
X100428Y182074D01*
X100436Y182048D01*
X100441Y182030D01*
X100445Y182022D01*
Y182017D01*
X100061Y181969D01*
X100026Y182052D01*
X99986Y182122D01*
X99947Y182183D01*
X99912Y182231D01*
X99882Y182266D01*
X99855Y182293D01*
X99833Y182310D01*
X99829Y182315D01*
X99772Y182349D01*
X99715Y182376D01*
X99654Y182393D01*
X99602Y182406D01*
X99554Y182415D01*
X99514Y182419D01*
X99479D01*
X99427Y182415D01*
X99379Y182411D01*
X99291Y182389D01*
X99213Y182358D01*
X99143Y182323D01*
X99090Y182293D01*
X99051Y182262D01*
X99025Y182240D01*
X99021Y182231D01*
X99016D01*
X98955Y182153D01*
X98946Y182136D01*
X98979Y182145D01*
X99049Y182158D01*
X99105Y182167D01*
X99154Y182171D01*
X99263D01*
X99324Y182162D01*
X99442Y182140D01*
X99542Y182106D01*
X99630Y182071D01*
X99669Y182049D01*
X99700Y182031D01*
X99730Y182014D01*
X99752Y181996D01*
X99770Y181983D01*
X99783Y181974D01*
X99792Y181970D01*
X99796Y181966D01*
X99879Y181883D01*
X99944Y181791D01*
X99997Y181695D01*
X100005Y181676D01*
X100454D01*
X100458Y181633D01*
Y181602D01*
Y181585D01*
Y181580D01*
X100454Y181480D01*
X100445Y181388D01*
X100432Y181301D01*
X100415Y181218D01*
X100393Y181143D01*
X100371Y181073D01*
X100345Y181012D01*
X100319Y180955D01*
X100292Y180903D01*
X100266Y180859D01*
X100244Y180824D01*
X100222Y180794D01*
X100205Y180768D01*
X100192Y180750D01*
X100183Y180741D01*
X100179Y180737D01*
X100126Y180684D01*
X100069Y180636D01*
X100008Y180597D01*
X99947Y180562D01*
X99886Y180532D01*
X99829Y180510D01*
X99768Y180488D01*
X99715Y180475D01*
X99659Y180462D01*
X99611Y180453D01*
X99567Y180444D01*
X99532Y180440D01*
X99501Y180435D01*
X99458D01*
X99375Y180440D01*
X99296Y180448D01*
X99222Y180462D01*
X99152Y180483D01*
X99086Y180505D01*
X99025Y180532D01*
X98968Y180558D01*
X98948Y180571D01*
X98900Y180554D01*
X98839Y180524D01*
X98791Y180493D01*
X98756Y180467D01*
X98734Y180449D01*
X98725Y180440D01*
X98668Y180375D01*
X98625Y180305D01*
X98594Y180235D01*
X98577Y180165D01*
X98563Y180108D01*
X98559Y180060D01*
X98555Y180043D01*
Y180030D01*
Y180021D01*
Y180017D01*
X98563Y179920D01*
X98585Y179833D01*
X98612Y179759D01*
X98646Y179693D01*
X98681Y179641D01*
X98708Y179601D01*
X98730Y179575D01*
X98738Y179567D01*
X98808Y179505D01*
X98883Y179462D01*
X98957Y179431D01*
X99027Y179409D01*
X99088Y179396D01*
X99136Y179392D01*
X99154Y179387D01*
X99180D01*
X99258Y179392D01*
X99333Y179409D01*
X99398Y179431D01*
X99451Y179457D01*
X99494Y179479D01*
X99529Y179501D01*
X99547Y179518D01*
X99555Y179523D01*
X99608Y179584D01*
X99652Y179654D01*
X99691Y179728D01*
X99722Y179807D01*
X99743Y179872D01*
X99752Y179903D01*
X99756Y179929D01*
X99761Y179951D01*
X99765Y179969D01*
X99770Y179977D01*
Y179982D01*
X100141Y179934D01*
X100132Y179864D01*
X100119Y179798D01*
X100080Y179676D01*
X100032Y179571D01*
X100006Y179527D01*
X99979Y179483D01*
X99953Y179444D01*
X99927Y179413D01*
X99905Y179383D01*
X99883Y179361D01*
X99870Y179344D01*
X99857Y179331D01*
X99848Y179322D01*
X99844Y179317D01*
X99792Y179278D01*
X99739Y179239D01*
X99687Y179208D01*
X99630Y179182D01*
X99520Y179138D01*
X99416Y179112D01*
X99368Y179103D01*
X99324Y179095D01*
X99285Y179090D01*
X99250Y179086D01*
X99223Y179081D01*
X99184D01*
X99101Y179086D01*
X99027Y179095D01*
X98952Y179108D01*
X98883Y179125D01*
X98817Y179147D01*
X98760Y179169D01*
X98703Y179195D01*
X98655Y179221D01*
X98607Y179243D01*
X98568Y179269D01*
X98533Y179291D01*
X98507Y179313D01*
X98485Y179331D01*
X98467Y179344D01*
X98459Y179352D01*
X98454Y179357D01*
X98402Y179409D01*
X98358Y179466D01*
X98319Y179523D01*
X98284Y179580D01*
X98258Y179632D01*
X98231Y179689D01*
X98196Y179794D01*
X98188Y179842D01*
X98179Y179885D01*
X98170Y179925D01*
X98166Y179960D01*
X98162Y179986D01*
Y180008D01*
Y180021D01*
Y180025D01*
X98166Y180130D01*
X98183Y180226D01*
X98210Y180309D01*
X98236Y180379D01*
X98262Y180436D01*
X98288Y180480D01*
X98306Y180506D01*
X98310Y180515D01*
X98371Y180580D01*
X98437Y180637D01*
X98507Y180681D01*
X98577Y180716D01*
X98638Y180742D01*
X98686Y180760D01*
X98702Y180763D01*
X98671Y180802D01*
X98670Y180804D01*
X98655Y180812D01*
X98594Y180851D01*
X98542Y180895D01*
X98498Y180934D01*
X98463Y180969D01*
X98437Y181000D01*
X98424Y181017D01*
X98419Y181026D01*
X98384Y181087D01*
X98358Y181148D01*
X98336Y181210D01*
X98323Y181266D01*
X98314Y181315D01*
X98310Y181350D01*
Y181376D01*
Y181384D01*
X98314Y181459D01*
X98327Y181533D01*
X98345Y181598D01*
X98367Y181655D01*
X98389Y181703D01*
X98406Y181743D01*
X98419Y181765D01*
X98424Y181773D01*
X98452Y181816D01*
X98461Y181877D01*
X98479Y181956D01*
X98501Y182030D01*
X98522Y182100D01*
X98549Y182161D01*
X98575Y182218D01*
X98601Y182266D01*
X98627Y182310D01*
X98649Y182345D01*
X98671Y182376D01*
X98689Y182402D01*
X98702Y182419D01*
X98710Y182428D01*
X98715Y182432D01*
X98772Y182485D01*
X98828Y182529D01*
X98889Y182568D01*
X98955Y182603D01*
X99016Y182629D01*
X99082Y182655D01*
X99204Y182690D01*
X99261Y182699D01*
X99313Y182708D01*
X99361Y182717D01*
X99401Y182721D01*
X99431Y182725D01*
X99479D01*
X99615Y182717D01*
D02*
G37*
G36*
X91622D02*
X91745Y182695D01*
X91854Y182668D01*
X91897Y182651D01*
X91941Y182633D01*
X91980Y182616D01*
X92015Y182598D01*
X92042Y182585D01*
X92068Y182572D01*
X92085Y182559D01*
X92098Y182550D01*
X92107Y182542D01*
X92112D01*
X92199Y182463D01*
X92269Y182380D01*
X92330Y182293D01*
X92374Y182210D01*
X92409Y182135D01*
X92422Y182100D01*
X92435Y182074D01*
X92444Y182048D01*
X92448Y182030D01*
X92453Y182022D01*
Y182017D01*
X92068Y181969D01*
X92033Y182052D01*
X91994Y182122D01*
X91954Y182183D01*
X91919Y182231D01*
X91889Y182266D01*
X91862Y182293D01*
X91841Y182310D01*
X91836Y182315D01*
X91780Y182349D01*
X91723Y182376D01*
X91662Y182393D01*
X91609Y182406D01*
X91561Y182415D01*
X91522Y182419D01*
X91487D01*
X91434Y182415D01*
X91386Y182411D01*
X91299Y182389D01*
X91220Y182358D01*
X91150Y182323D01*
X91098Y182293D01*
X91058Y182262D01*
X91032Y182240D01*
X91028Y182231D01*
X91023D01*
X90962Y182153D01*
X90914Y182065D01*
X90879Y181969D01*
X90853Y181882D01*
X90840Y181803D01*
X90831Y181768D01*
X90827Y181738D01*
Y181711D01*
X90822Y181694D01*
Y181681D01*
Y181676D01*
X92461D01*
X92466Y181633D01*
Y181602D01*
Y181585D01*
Y181580D01*
X92461Y181480D01*
X92453Y181388D01*
X92439Y181301D01*
X92422Y181218D01*
X92400Y181143D01*
X92378Y181073D01*
X92352Y181012D01*
X92326Y180955D01*
X92299Y180903D01*
X92273Y180859D01*
X92251Y180824D01*
X92230Y180794D01*
X92212Y180768D01*
X92199Y180750D01*
X92190Y180741D01*
X92186Y180737D01*
X92133Y180684D01*
X92077Y180636D01*
X92015Y180597D01*
X91954Y180562D01*
X91893Y180532D01*
X91836Y180510D01*
X91775Y180488D01*
X91723Y180475D01*
X91666Y180462D01*
X91618Y180453D01*
X91574Y180444D01*
X91539Y180440D01*
X91509Y180435D01*
X91465D01*
X91382Y180440D01*
X91303Y180448D01*
X91229Y180462D01*
X91159Y180483D01*
X91093Y180505D01*
X91032Y180532D01*
X90975Y180558D01*
X90927Y180588D01*
X90879Y180614D01*
X90840Y180645D01*
X90805Y180671D01*
X90779Y180693D01*
X90757Y180715D01*
X90739Y180728D01*
X90731Y180737D01*
X90726Y180741D01*
X90678Y180802D01*
X90635Y180868D01*
X90595Y180933D01*
X90560Y181003D01*
X90534Y181078D01*
X90512Y181148D01*
X90477Y181288D01*
X90464Y181349D01*
X90455Y181410D01*
X90451Y181462D01*
X90447Y181510D01*
X90442Y181550D01*
Y181576D01*
Y181598D01*
Y181602D01*
X90447Y181698D01*
X90455Y181790D01*
X90469Y181877D01*
X90486Y181956D01*
X90508Y182030D01*
X90530Y182100D01*
X90556Y182161D01*
X90582Y182218D01*
X90608Y182266D01*
X90635Y182310D01*
X90656Y182345D01*
X90678Y182376D01*
X90696Y182402D01*
X90709Y182419D01*
X90718Y182428D01*
X90722Y182432D01*
X90779Y182485D01*
X90836Y182529D01*
X90897Y182568D01*
X90962Y182603D01*
X91023Y182629D01*
X91089Y182655D01*
X91211Y182690D01*
X91268Y182699D01*
X91321Y182708D01*
X91369Y182717D01*
X91408Y182721D01*
X91439Y182725D01*
X91487D01*
X91622Y182717D01*
D02*
G37*
G36*
X110212Y179653D02*
X109775D01*
X108622Y182677D01*
X109045D01*
X109373Y181760D01*
X110640D01*
X110994Y182677D01*
X111449D01*
X110212Y179653D01*
D02*
G37*
G36*
X83791Y182725D02*
X83874Y182717D01*
X83953Y182708D01*
X84027Y182690D01*
X84097Y182668D01*
X84163Y182647D01*
X84224Y182625D01*
X84281Y182598D01*
X84329Y182577D01*
X84377Y182555D01*
X84412Y182533D01*
X84447Y182511D01*
X84469Y182494D01*
X84490Y182485D01*
X84499Y182476D01*
X84503Y182472D01*
X84565Y182419D01*
X84617Y182367D01*
X84665Y182306D01*
X84713Y182245D01*
X84792Y182122D01*
X84853Y182000D01*
X84879Y181943D01*
X84901Y181891D01*
X84919Y181843D01*
X84932Y181803D01*
X84945Y181768D01*
X84953Y181742D01*
X84958Y181725D01*
Y181720D01*
X84556Y181620D01*
X84538Y181690D01*
X84517Y181755D01*
X84495Y181816D01*
X84473Y181873D01*
X84447Y181925D01*
X84420Y181969D01*
X84390Y182013D01*
X84364Y182052D01*
X84342Y182087D01*
X84316Y182113D01*
X84294Y182140D01*
X84276Y182161D01*
X84259Y182175D01*
X84246Y182188D01*
X84241Y182192D01*
X84237Y182196D01*
X84193Y182231D01*
X84145Y182258D01*
X84049Y182306D01*
X83957Y182341D01*
X83865Y182362D01*
X83787Y182380D01*
X83756Y182384D01*
X83726D01*
X83699Y182389D01*
X83669D01*
X83568Y182384D01*
X83472Y182367D01*
X83385Y182345D01*
X83306Y182319D01*
X83245Y182293D01*
X83219Y182280D01*
X83197Y182271D01*
X83179Y182262D01*
X83166Y182253D01*
X83157Y182249D01*
X83153D01*
X83070Y182188D01*
X83000Y182122D01*
X82939Y182048D01*
X82891Y181978D01*
X82852Y181917D01*
X82825Y181864D01*
X82817Y181843D01*
X82808Y181829D01*
X82803Y181821D01*
Y181816D01*
X82768Y181703D01*
X82742Y181589D01*
X82721Y181475D01*
X82707Y181370D01*
X82703Y181323D01*
X82699Y181279D01*
Y181239D01*
X82694Y181209D01*
Y181183D01*
Y181161D01*
Y181148D01*
Y181143D01*
X82699Y181030D01*
X82707Y180925D01*
X82725Y180829D01*
X82742Y180741D01*
X82755Y180667D01*
X82764Y180636D01*
X82773Y180610D01*
X82777Y180588D01*
X82782Y180575D01*
X82786Y180567D01*
Y180562D01*
X82830Y180462D01*
X82878Y180370D01*
X82930Y180296D01*
X82987Y180230D01*
X83035Y180177D01*
X83074Y180143D01*
X83105Y180121D01*
X83109Y180112D01*
X83114D01*
X83205Y180055D01*
X83306Y180011D01*
X83402Y179981D01*
X83494Y179963D01*
X83577Y179950D01*
X83612Y179946D01*
X83643D01*
X83664Y179941D01*
X83699D01*
X83809Y179946D01*
X83909Y179963D01*
X83992Y179990D01*
X84066Y180016D01*
X84123Y180046D01*
X84167Y180068D01*
X84193Y180086D01*
X84202Y180095D01*
X84272Y180160D01*
X84337Y180234D01*
X84390Y180313D01*
X84434Y180392D01*
X84469Y180462D01*
X84482Y180497D01*
X84490Y180523D01*
X84499Y180545D01*
X84508Y180562D01*
X84512Y180571D01*
Y180575D01*
X84905Y180483D01*
X84879Y180405D01*
X84853Y180335D01*
X84818Y180269D01*
X84787Y180204D01*
X84753Y180147D01*
X84713Y180095D01*
X84678Y180042D01*
X84643Y179998D01*
X84608Y179963D01*
X84578Y179928D01*
X84547Y179898D01*
X84525Y179876D01*
X84503Y179854D01*
X84486Y179841D01*
X84477Y179837D01*
X84473Y179832D01*
X84412Y179793D01*
X84351Y179754D01*
X84289Y179723D01*
X84224Y179697D01*
X84093Y179657D01*
X83975Y179631D01*
X83918Y179618D01*
X83870Y179614D01*
X83822Y179609D01*
X83782Y179605D01*
X83752Y179601D01*
X83708D01*
X83564Y179609D01*
X83424Y179631D01*
X83302Y179657D01*
X83245Y179675D01*
X83192Y179692D01*
X83144Y179710D01*
X83101Y179727D01*
X83066Y179741D01*
X83031Y179754D01*
X83009Y179767D01*
X82991Y179776D01*
X82978Y179780D01*
X82974Y179784D01*
X82856Y179859D01*
X82755Y179946D01*
X82668Y180033D01*
X82594Y180121D01*
X82537Y180199D01*
X82515Y180234D01*
X82498Y180265D01*
X82480Y180287D01*
X82471Y180304D01*
X82467Y180317D01*
X82463Y180322D01*
X82402Y180457D01*
X82358Y180597D01*
X82327Y180737D01*
X82305Y180864D01*
X82297Y180920D01*
X82292Y180977D01*
X82288Y181021D01*
Y181065D01*
X82284Y181095D01*
Y181121D01*
Y181139D01*
Y181143D01*
X82292Y181301D01*
X82310Y181454D01*
X82332Y181589D01*
X82349Y181655D01*
X82362Y181711D01*
X82375Y181764D01*
X82393Y181812D01*
X82406Y181856D01*
X82415Y181891D01*
X82428Y181917D01*
X82432Y181939D01*
X82441Y181952D01*
Y181956D01*
X82506Y182087D01*
X82581Y182205D01*
X82659Y182306D01*
X82699Y182345D01*
X82734Y182384D01*
X82768Y182419D01*
X82803Y182450D01*
X82834Y182476D01*
X82860Y182494D01*
X82878Y182511D01*
X82895Y182524D01*
X82904Y182529D01*
X82908Y182533D01*
X82970Y182568D01*
X83031Y182598D01*
X83162Y182647D01*
X83293Y182682D01*
X83420Y182703D01*
X83481Y182712D01*
X83533Y182721D01*
X83581Y182725D01*
X83621D01*
X83656Y182730D01*
X83704D01*
X83791Y182725D01*
D02*
G37*
G36*
X106432Y182717D02*
X106554Y182695D01*
X106664Y182668D01*
X106707Y182651D01*
X106751Y182633D01*
X106790Y182616D01*
X106825Y182598D01*
X106852Y182585D01*
X106878Y182572D01*
X106895Y182559D01*
X106908Y182550D01*
X106917Y182542D01*
X106922D01*
X107009Y182463D01*
X107079Y182380D01*
X107140Y182293D01*
X107184Y182210D01*
X107219Y182135D01*
X107232Y182100D01*
X107245Y182074D01*
X107254Y182048D01*
X107258Y182030D01*
X107262Y182022D01*
Y182017D01*
X106878Y181969D01*
X106843Y182052D01*
X106804Y182122D01*
X106764Y182183D01*
X106729Y182231D01*
X106699Y182266D01*
X106672Y182293D01*
X106651Y182310D01*
X106646Y182315D01*
X106589Y182349D01*
X106533Y182376D01*
X106471Y182393D01*
X106419Y182406D01*
X106371Y182415D01*
X106332Y182419D01*
X106297D01*
X106244Y182415D01*
X106196Y182411D01*
X106109Y182389D01*
X106030Y182358D01*
X105960Y182323D01*
X105908Y182293D01*
X105868Y182262D01*
X105842Y182240D01*
X105838Y182231D01*
X105833D01*
X105772Y182153D01*
X105724Y182065D01*
X105689Y181969D01*
X105663Y181882D01*
X105650Y181803D01*
X105641Y181768D01*
X105637Y181738D01*
Y181711D01*
X105632Y181694D01*
Y181681D01*
Y181676D01*
X107271D01*
X107275Y181633D01*
Y181602D01*
Y181585D01*
Y181580D01*
X107271Y181480D01*
X107262Y181388D01*
X107249Y181301D01*
X107232Y181218D01*
X107210Y181143D01*
X107188Y181073D01*
X107162Y181012D01*
X107136Y180955D01*
X107109Y180903D01*
X107083Y180859D01*
X107061Y180824D01*
X107039Y180794D01*
X107022Y180768D01*
X107009Y180750D01*
X107000Y180741D01*
X106996Y180737D01*
X106943Y180684D01*
X106887Y180636D01*
X106825Y180597D01*
X106764Y180562D01*
X106703Y180532D01*
X106646Y180510D01*
X106585Y180488D01*
X106533Y180475D01*
X106476Y180462D01*
X106428Y180453D01*
X106384Y180444D01*
X106349Y180440D01*
X106318Y180435D01*
X106275D01*
X106192Y180440D01*
X106113Y180448D01*
X106039Y180462D01*
X105969Y180483D01*
X105903Y180505D01*
X105842Y180532D01*
X105785Y180558D01*
X105737Y180588D01*
X105689Y180614D01*
X105650Y180645D01*
X105615Y180671D01*
X105589Y180693D01*
X105567Y180715D01*
X105549Y180728D01*
X105541Y180737D01*
X105536Y180741D01*
X105507Y180778D01*
Y180746D01*
X105512Y180716D01*
Y180690D01*
Y180672D01*
Y180668D01*
X105503Y180510D01*
X105486Y180358D01*
X105464Y180222D01*
X105446Y180156D01*
X105433Y180100D01*
X105420Y180047D01*
X105403Y179999D01*
X105389Y179955D01*
X105381Y179920D01*
X105368Y179894D01*
X105363Y179872D01*
X105354Y179859D01*
Y179855D01*
X105289Y179724D01*
X105215Y179606D01*
X105136Y179505D01*
X105097Y179466D01*
X105062Y179427D01*
X105027Y179392D01*
X104992Y179361D01*
X104961Y179335D01*
X104935Y179317D01*
X104918Y179300D01*
X104900Y179287D01*
X104891Y179282D01*
X104887Y179278D01*
X104826Y179243D01*
X104764Y179212D01*
X104633Y179165D01*
X104502Y179130D01*
X104376Y179108D01*
X104314Y179099D01*
X104262Y179090D01*
X104214Y179086D01*
X104175D01*
X104140Y179081D01*
X104092D01*
X104004Y179086D01*
X103921Y179095D01*
X103842Y179103D01*
X103768Y179121D01*
X103698Y179143D01*
X103633Y179165D01*
X103571Y179186D01*
X103515Y179212D01*
X103467Y179234D01*
X103419Y179256D01*
X103384Y179278D01*
X103349Y179300D01*
X103327Y179317D01*
X103305Y179326D01*
X103296Y179335D01*
X103292Y179339D01*
X103231Y179392D01*
X103178Y179444D01*
X103130Y179505D01*
X103082Y179567D01*
X103003Y179689D01*
X102942Y179811D01*
X102916Y179868D01*
X102894Y179920D01*
X102877Y179969D01*
X102864Y180008D01*
X102850Y180043D01*
X102842Y180069D01*
X102837Y180087D01*
Y180091D01*
X103239Y180191D01*
X103257Y180122D01*
X103279Y180056D01*
X103301Y179995D01*
X103322Y179938D01*
X103349Y179885D01*
X103375Y179842D01*
X103405Y179798D01*
X103432Y179759D01*
X103454Y179724D01*
X103480Y179698D01*
X103502Y179671D01*
X103519Y179649D01*
X103537Y179636D01*
X103550Y179623D01*
X103554Y179619D01*
X103558Y179615D01*
X103602Y179580D01*
X103650Y179553D01*
X103746Y179505D01*
X103838Y179470D01*
X103930Y179448D01*
X104008Y179431D01*
X104039Y179427D01*
X104070D01*
X104096Y179422D01*
X104127D01*
X104227Y179427D01*
X104323Y179444D01*
X104411Y179466D01*
X104489Y179492D01*
X104550Y179518D01*
X104577Y179532D01*
X104598Y179540D01*
X104616Y179549D01*
X104629Y179558D01*
X104638Y179562D01*
X104642D01*
X104725Y179623D01*
X104795Y179689D01*
X104856Y179763D01*
X104904Y179833D01*
X104944Y179894D01*
X104970Y179947D01*
X104979Y179969D01*
X104987Y179982D01*
X104992Y179990D01*
Y179995D01*
X105027Y180108D01*
X105053Y180222D01*
X105075Y180336D01*
X105088Y180440D01*
X105092Y180489D01*
X105097Y180532D01*
Y180572D01*
X105101Y180602D01*
Y180628D01*
Y180650D01*
Y180663D01*
Y180668D01*
X105097Y180781D01*
X105088Y180886D01*
X105070Y180982D01*
X105053Y181070D01*
X105040Y181144D01*
X105031Y181175D01*
X105022Y181201D01*
X105018Y181223D01*
X105014Y181236D01*
X105009Y181245D01*
Y181249D01*
X104966Y181350D01*
X104918Y181441D01*
X104865Y181516D01*
X104808Y181581D01*
X104766Y181628D01*
X104732Y181598D01*
X104693Y181572D01*
X104654Y181550D01*
X104627Y181537D01*
X104610Y181528D01*
X104601Y181524D01*
X104570Y181510D01*
X104535Y181497D01*
X104453Y181467D01*
X104361Y181436D01*
X104269Y181410D01*
X104186Y181384D01*
X104147Y181375D01*
X104116Y181366D01*
X104090Y181357D01*
X104068Y181353D01*
X104055Y181349D01*
X104050D01*
X104002Y181336D01*
X103959Y181323D01*
X103919Y181314D01*
X103884Y181301D01*
X103828Y181288D01*
X103784Y181274D01*
X103753Y181261D01*
X103736Y181257D01*
X103727Y181253D01*
X103723D01*
X103688Y181235D01*
X103657Y181222D01*
X103631Y181204D01*
X103613Y181191D01*
X103596Y181178D01*
X103587Y181165D01*
X103583Y181161D01*
X103578Y181156D01*
X103552Y181113D01*
X103539Y181069D01*
Y181052D01*
X103535Y181038D01*
Y181030D01*
Y181025D01*
X103539Y180986D01*
X103552Y180947D01*
X103570Y180912D01*
X103592Y180886D01*
X103609Y180859D01*
X103627Y180842D01*
X103640Y180833D01*
X103644Y180829D01*
X103692Y180798D01*
X103749Y180776D01*
X103810Y180763D01*
X103867Y180750D01*
X103924Y180746D01*
X103967Y180741D01*
X104011D01*
X104085Y180746D01*
X104155Y180754D01*
X104212Y180772D01*
X104256Y180789D01*
X104295Y180807D01*
X104321Y180824D01*
X104339Y180833D01*
X104343Y180837D01*
X104387Y180877D01*
X104418Y180920D01*
X104444Y180964D01*
X104466Y181003D01*
X104479Y181043D01*
X104487Y181073D01*
X104492Y181091D01*
Y181100D01*
X104855Y181052D01*
X104837Y180977D01*
X104820Y180912D01*
X104798Y180855D01*
X104776Y180802D01*
X104754Y180768D01*
X104736Y180737D01*
X104728Y180719D01*
X104723Y180715D01*
X104684Y180671D01*
X104640Y180632D01*
X104592Y180597D01*
X104544Y180567D01*
X104500Y180545D01*
X104466Y180527D01*
X104444Y180518D01*
X104439Y180514D01*
X104435D01*
X104361Y180488D01*
X104282Y180470D01*
X104208Y180453D01*
X104138Y180444D01*
X104072Y180440D01*
X104024Y180435D01*
X103919D01*
X103858Y180444D01*
X103806Y180448D01*
X103758Y180457D01*
X103718Y180466D01*
X103688Y180475D01*
X103670Y180479D01*
X103662Y180483D01*
X103609Y180501D01*
X103561Y180518D01*
X103522Y180536D01*
X103487Y180553D01*
X103461Y180567D01*
X103443Y180580D01*
X103430Y180584D01*
X103426Y180588D01*
X103382Y180619D01*
X103347Y180654D01*
X103316Y180693D01*
X103290Y180724D01*
X103268Y180754D01*
X103255Y180776D01*
X103246Y180794D01*
X103242Y180798D01*
X103220Y180846D01*
X103203Y180890D01*
X103194Y180938D01*
X103185Y180977D01*
X103181Y181017D01*
X103176Y181043D01*
Y181060D01*
Y181069D01*
X103181Y181130D01*
X103190Y181183D01*
X103203Y181235D01*
X103208Y181253D01*
X102890Y181328D01*
X102916Y181406D01*
X102942Y181476D01*
X102977Y181542D01*
X103008Y181607D01*
X103043Y181664D01*
X103082Y181717D01*
X103117Y181769D01*
X103152Y181813D01*
X103187Y181848D01*
X103218Y181883D01*
X103248Y181913D01*
X103270Y181935D01*
X103292Y181957D01*
X103309Y181970D01*
X103318Y181974D01*
X103322Y181979D01*
X103336Y181988D01*
X103115Y182022D01*
X103146Y182144D01*
X103185Y182253D01*
X103233Y182341D01*
X103281Y182415D01*
X103325Y182476D01*
X103364Y182516D01*
X103391Y182542D01*
X103395Y182546D01*
X103399Y182550D01*
X103443Y182581D01*
X103491Y182607D01*
X103596Y182651D01*
X103705Y182682D01*
X103810Y182703D01*
X103858Y182712D01*
X103902Y182717D01*
X103946Y182721D01*
X103981D01*
X104011Y182725D01*
X104050D01*
X104147Y182721D01*
X104230Y182712D01*
X104308Y182699D01*
X104378Y182682D01*
X104435Y182664D01*
X104479Y182651D01*
X104505Y182642D01*
X104509Y182638D01*
X104514D01*
X104588Y182598D01*
X104649Y182559D01*
X104702Y182516D01*
X104750Y182476D01*
X104785Y182441D01*
X104806Y182411D01*
X104824Y182393D01*
X104828Y182384D01*
X104863Y182323D01*
X104890Y182258D01*
X104911Y182201D01*
X104924Y182148D01*
X104933Y182100D01*
X104938Y182065D01*
Y182044D01*
Y182035D01*
X104933Y181965D01*
X104932Y181957D01*
X104939Y181953D01*
X105040Y181865D01*
X105127Y181778D01*
X105201Y181690D01*
X105253Y181619D01*
X105257Y181698D01*
X105265Y181790D01*
X105278Y181877D01*
X105296Y181956D01*
X105318Y182030D01*
X105340Y182100D01*
X105366Y182161D01*
X105392Y182218D01*
X105418Y182266D01*
X105445Y182310D01*
X105466Y182345D01*
X105488Y182376D01*
X105506Y182402D01*
X105519Y182419D01*
X105527Y182428D01*
X105532Y182432D01*
X105589Y182485D01*
X105646Y182529D01*
X105707Y182568D01*
X105772Y182603D01*
X105833Y182629D01*
X105899Y182655D01*
X106021Y182690D01*
X106078Y182699D01*
X106131Y182708D01*
X106179Y182717D01*
X106218Y182721D01*
X106249Y182725D01*
X106297D01*
X106432Y182717D01*
D02*
G37*
G36*
X102691Y181331D02*
Y181239D01*
X102687Y181165D01*
X102683Y181104D01*
Y181052D01*
X102678Y181017D01*
X102674Y180990D01*
X102670Y180973D01*
Y180968D01*
X102656Y180912D01*
X102635Y180859D01*
X102617Y180815D01*
X102600Y180772D01*
X102578Y180741D01*
X102565Y180719D01*
X102556Y180702D01*
X102551Y180698D01*
X102517Y180654D01*
X102510Y180648D01*
Y180628D01*
X102514Y180585D01*
Y180567D01*
Y180554D01*
Y180550D01*
Y180545D01*
X102510Y180405D01*
X102501Y180274D01*
X102488Y180152D01*
X102466Y180038D01*
X102444Y179938D01*
X102422Y179846D01*
X102396Y179763D01*
X102365Y179689D01*
X102339Y179628D01*
X102313Y179571D01*
X102291Y179527D01*
X102265Y179488D01*
X102247Y179457D01*
X102234Y179440D01*
X102226Y179427D01*
X102221Y179422D01*
X102164Y179361D01*
X102103Y179309D01*
X102042Y179265D01*
X101981Y179226D01*
X101915Y179191D01*
X101854Y179165D01*
X101793Y179143D01*
X101732Y179125D01*
X101679Y179112D01*
X101627Y179099D01*
X101583Y179090D01*
X101544Y179086D01*
X101509D01*
X101487Y179081D01*
X101465D01*
X101365Y179086D01*
X101273Y179103D01*
X101190Y179121D01*
X101116Y179147D01*
X101059Y179169D01*
X101015Y179191D01*
X100998Y179195D01*
X100985Y179204D01*
X100980Y179208D01*
X100976D01*
X100901Y179261D01*
X100831Y179322D01*
X100775Y179383D01*
X100727Y179444D01*
X100687Y179501D01*
X100661Y179545D01*
X100652Y179562D01*
X100644Y179575D01*
X100639Y179580D01*
Y179584D01*
X100596Y179676D01*
X100565Y179772D01*
X100543Y179859D01*
X100530Y179942D01*
X100517Y180012D01*
Y180038D01*
X100513Y180065D01*
Y180087D01*
Y180100D01*
Y180108D01*
Y180113D01*
X100517Y180191D01*
X100526Y180266D01*
X100539Y180340D01*
X100552Y180405D01*
X100574Y180467D01*
X100596Y180528D01*
X100617Y180580D01*
X100644Y180628D01*
X100670Y180672D01*
X100692Y180711D01*
X100714Y180742D01*
X100735Y180773D01*
X100749Y180795D01*
X100762Y180808D01*
X100770Y180816D01*
X100775Y180821D01*
X100823Y180869D01*
X100875Y180912D01*
X100913Y180936D01*
Y181390D01*
X100561Y181419D01*
X100587Y181542D01*
X100626Y181651D01*
X100670Y181747D01*
X100718Y181826D01*
X100766Y181887D01*
X100784Y181913D01*
X100805Y181935D01*
X100818Y181948D01*
X100831Y181961D01*
X100836Y181966D01*
X100840Y181970D01*
X100884Y182005D01*
X100913Y182023D01*
Y182677D01*
X101284D01*
Y182159D01*
X101299Y182162D01*
X101334Y182167D01*
X101365D01*
X101391Y182171D01*
X101426D01*
X101513Y182167D01*
X101596Y182158D01*
X101675Y182140D01*
X101749Y182119D01*
X101815Y182088D01*
X101880Y182062D01*
X101937Y182027D01*
X101990Y181996D01*
X102033Y181966D01*
X102077Y181931D01*
X102112Y181904D01*
X102138Y181878D01*
X102160Y181852D01*
X102178Y181834D01*
X102186Y181826D01*
X102191Y181821D01*
X102247Y181743D01*
X102295Y181651D01*
X102320Y181597D01*
Y182677D01*
X102691D01*
Y181331D01*
D02*
G37*
G36*
X114696Y181174D02*
Y181104D01*
X114687Y181043D01*
X114678Y180982D01*
X114670Y180929D01*
X114656Y180877D01*
X114639Y180833D01*
X114626Y180794D01*
X114608Y180754D01*
X114591Y180724D01*
X114578Y180693D01*
X114547Y180654D01*
X114530Y180628D01*
X114521Y180619D01*
X114451Y180558D01*
X114368Y180514D01*
X114285Y180479D01*
X114206Y180457D01*
X114132Y180444D01*
X114101Y180440D01*
X114071D01*
X114049Y180435D01*
X114018D01*
X113940Y180440D01*
X113870Y180453D01*
X113800Y180470D01*
X113734Y180497D01*
X113673Y180527D01*
X113616Y180558D01*
X113568Y180593D01*
X113520Y180628D01*
X113477Y180667D01*
X113442Y180702D01*
X113411Y180733D01*
X113385Y180763D01*
X113363Y180789D01*
X113350Y180807D01*
X113341Y180820D01*
X113337Y180824D01*
X113311Y180759D01*
X113276Y180702D01*
X113236Y180654D01*
X113201Y180614D01*
X113166Y180580D01*
X113140Y180558D01*
X113123Y180545D01*
X113114Y180540D01*
X113053Y180505D01*
X112987Y180479D01*
X112922Y180462D01*
X112856Y180448D01*
X112803Y180440D01*
X112756Y180435D01*
X112716D01*
X112637Y180440D01*
X112563Y180453D01*
X112498Y180466D01*
X112441Y180483D01*
X112393Y180505D01*
X112358Y180518D01*
X112336Y180532D01*
X112327Y180536D01*
X112266Y180575D01*
X112214Y180619D01*
X112165Y180663D01*
X112126Y180706D01*
X112096Y180741D01*
X112069Y180772D01*
X112056Y180789D01*
X112052Y180798D01*
Y180483D01*
X111720D01*
Y182677D01*
X112091D01*
Y181541D01*
X112096Y181436D01*
X112100Y181344D01*
X112109Y181266D01*
X112122Y181200D01*
X112135Y181152D01*
X112144Y181117D01*
X112148Y181095D01*
X112152Y181087D01*
X112179Y181030D01*
X112209Y180982D01*
X112240Y180938D01*
X112270Y180903D01*
X112301Y180877D01*
X112323Y180859D01*
X112340Y180846D01*
X112345Y180842D01*
X112397Y180815D01*
X112445Y180794D01*
X112498Y180781D01*
X112541Y180768D01*
X112576Y180763D01*
X112607Y180759D01*
X112633D01*
X112707Y180763D01*
X112769Y180776D01*
X112821Y180798D01*
X112860Y180820D01*
X112891Y180846D01*
X112913Y180864D01*
X112926Y180881D01*
X112930Y180886D01*
X112961Y180938D01*
X112983Y180995D01*
X113000Y181056D01*
X113009Y181117D01*
X113018Y181169D01*
X113022Y181218D01*
Y181235D01*
Y181244D01*
Y181253D01*
Y181257D01*
Y182677D01*
X113393D01*
Y181405D01*
X113402Y181288D01*
X113420Y181187D01*
X113442Y181104D01*
X113472Y181034D01*
X113498Y180982D01*
X113525Y180947D01*
X113542Y180925D01*
X113547Y180916D01*
X113608Y180864D01*
X113673Y180824D01*
X113739Y180798D01*
X113800Y180776D01*
X113852Y180768D01*
X113896Y180763D01*
X113914Y180759D01*
X113935D01*
X113983Y180763D01*
X114023Y180768D01*
X114062Y180776D01*
X114093Y180789D01*
X114123Y180802D01*
X114141Y180811D01*
X114154Y180815D01*
X114158Y180820D01*
X114193Y180846D01*
X114219Y180872D01*
X114241Y180899D01*
X114259Y180925D01*
X114272Y180947D01*
X114281Y180964D01*
X114289Y180977D01*
Y180982D01*
X114303Y181021D01*
X114311Y181073D01*
X114316Y181126D01*
X114320Y181178D01*
X114324Y181226D01*
Y181266D01*
Y181292D01*
Y181296D01*
Y181301D01*
Y182677D01*
X114696D01*
Y181174D01*
D02*
G37*
G36*
X94699Y181331D02*
Y181239D01*
X94694Y181165D01*
X94690Y181104D01*
Y181052D01*
X94686Y181017D01*
X94681Y180990D01*
X94677Y180973D01*
Y180968D01*
X94664Y180912D01*
X94642Y180859D01*
X94624Y180815D01*
X94607Y180772D01*
X94585Y180741D01*
X94572Y180719D01*
X94563Y180702D01*
X94559Y180698D01*
X94524Y180654D01*
X94485Y180619D01*
X94445Y180584D01*
X94402Y180558D01*
X94367Y180536D01*
X94336Y180523D01*
X94318Y180514D01*
X94310Y180510D01*
X94248Y180483D01*
X94183Y180466D01*
X94122Y180453D01*
X94065Y180444D01*
X94017Y180440D01*
X93982Y180435D01*
X93947D01*
X93864Y180440D01*
X93785Y180453D01*
X93715Y180470D01*
X93646Y180492D01*
X93584Y180518D01*
X93528Y180549D01*
X93475Y180584D01*
X93431Y180614D01*
X93388Y180649D01*
X93353Y180684D01*
X93322Y180715D01*
X93296Y180741D01*
X93278Y180763D01*
X93265Y180781D01*
X93256Y180794D01*
X93252Y180798D01*
Y180483D01*
X92920D01*
Y182677D01*
X93291D01*
Y181484D01*
Y181410D01*
X93300Y181336D01*
X93309Y181274D01*
X93318Y181218D01*
X93331Y181165D01*
X93344Y181117D01*
X93361Y181073D01*
X93379Y181038D01*
X93392Y181008D01*
X93410Y180982D01*
X93423Y180960D01*
X93436Y180942D01*
X93453Y180920D01*
X93462Y180912D01*
X93528Y180859D01*
X93597Y180824D01*
X93667Y180798D01*
X93729Y180776D01*
X93785Y180768D01*
X93829Y180763D01*
X93846Y180759D01*
X93868D01*
X93921Y180763D01*
X93973Y180768D01*
X94017Y180781D01*
X94052Y180794D01*
X94082Y180807D01*
X94109Y180815D01*
X94122Y180824D01*
X94126Y180829D01*
X94165Y180855D01*
X94200Y180886D01*
X94227Y180916D01*
X94248Y180942D01*
X94262Y180968D01*
X94275Y180990D01*
X94283Y181003D01*
Y181008D01*
X94297Y181056D01*
X94310Y181108D01*
X94318Y181165D01*
X94323Y181222D01*
X94327Y181270D01*
Y181309D01*
Y181340D01*
Y181344D01*
Y181349D01*
Y182677D01*
X94699D01*
Y181331D01*
D02*
G37*
G36*
X86221Y182721D02*
X86300Y182708D01*
X86369Y182690D01*
X86439Y182668D01*
X86501Y182638D01*
X86557Y182607D01*
X86610Y182577D01*
X86658Y182542D01*
X86702Y182507D01*
X86737Y182476D01*
X86767Y182441D01*
X86793Y182415D01*
X86815Y182393D01*
X86828Y182376D01*
X86837Y182362D01*
X86841Y182358D01*
Y182677D01*
X87173D01*
Y180483D01*
X86802D01*
Y181659D01*
X86798Y181760D01*
X86793Y181847D01*
X86785Y181921D01*
X86772Y181982D01*
X86758Y182030D01*
X86750Y182065D01*
X86745Y182083D01*
X86741Y182092D01*
X86715Y182144D01*
X86684Y182188D01*
X86649Y182227D01*
X86614Y182262D01*
X86584Y182288D01*
X86557Y182306D01*
X86540Y182319D01*
X86531Y182323D01*
X86474Y182349D01*
X86418Y182371D01*
X86365Y182384D01*
X86317Y182397D01*
X86278Y182402D01*
X86247Y182406D01*
X86216D01*
X86155Y182402D01*
X86103Y182393D01*
X86055Y182380D01*
X86015Y182362D01*
X85980Y182349D01*
X85959Y182336D01*
X85941Y182328D01*
X85937Y182323D01*
X85897Y182288D01*
X85867Y182253D01*
X85841Y182214D01*
X85819Y182179D01*
X85806Y182144D01*
X85797Y182118D01*
X85788Y182100D01*
Y182096D01*
X85780Y182048D01*
X85775Y181991D01*
X85771Y181925D01*
Y181860D01*
X85766Y181799D01*
Y181751D01*
Y181729D01*
Y181716D01*
Y181707D01*
Y181703D01*
Y180483D01*
X85395D01*
Y181843D01*
Y181925D01*
X85399Y182000D01*
X85404Y182057D01*
X85408Y182109D01*
Y182144D01*
X85412Y182170D01*
X85417Y182188D01*
Y182192D01*
X85430Y182249D01*
X85447Y182301D01*
X85465Y182349D01*
X85487Y182389D01*
X85504Y182424D01*
X85517Y182446D01*
X85526Y182463D01*
X85530Y182467D01*
X85565Y182507D01*
X85605Y182542D01*
X85644Y182572D01*
X85688Y182598D01*
X85723Y182620D01*
X85753Y182638D01*
X85771Y182647D01*
X85780Y182651D01*
X85845Y182677D01*
X85906Y182695D01*
X85967Y182708D01*
X86024Y182717D01*
X86072Y182721D01*
X86112Y182725D01*
X86142D01*
X86221Y182721D01*
D02*
G37*
G36*
X115618Y182450D02*
X115653Y182494D01*
X115692Y182533D01*
X115736Y182568D01*
X115771Y182594D01*
X115806Y182620D01*
X115832Y182638D01*
X115854Y182647D01*
X115858Y182651D01*
X115915Y182677D01*
X115972Y182695D01*
X116029Y182708D01*
X116081Y182717D01*
X116125Y182721D01*
X116160Y182725D01*
X116190D01*
X116282Y182721D01*
X116374Y182703D01*
X116453Y182682D01*
X116527Y182655D01*
X116588Y182629D01*
X116632Y182607D01*
X116649Y182598D01*
X116662Y182590D01*
X116667Y182585D01*
X116671D01*
X116754Y182524D01*
X116824Y182459D01*
X116885Y182393D01*
X116933Y182328D01*
X116972Y182266D01*
X117003Y182218D01*
X117012Y182201D01*
X117021Y182188D01*
X117025Y182179D01*
Y182175D01*
X117064Y182070D01*
X117095Y181965D01*
X117117Y181864D01*
X117134Y181768D01*
X117143Y181690D01*
Y181655D01*
X117147Y181624D01*
Y181598D01*
Y181580D01*
Y181572D01*
Y181567D01*
X117143Y181454D01*
X117130Y181344D01*
X117112Y181248D01*
X117090Y181161D01*
X117069Y181091D01*
X117060Y181060D01*
X117051Y181034D01*
X117043Y181017D01*
X117038Y181003D01*
X117034Y180995D01*
Y180990D01*
X116990Y180899D01*
X116938Y180815D01*
X116885Y180746D01*
X116833Y180689D01*
X116785Y180645D01*
X116745Y180610D01*
X116719Y180593D01*
X116715Y180584D01*
X116710D01*
X116627Y180536D01*
X116544Y180497D01*
X116461Y180470D01*
X116383Y180453D01*
X116317Y180444D01*
X116286Y180440D01*
X116265Y180435D01*
X116217D01*
X116138Y180440D01*
X116068Y180448D01*
X116007Y180462D01*
X115954Y180479D01*
X115911Y180497D01*
X115876Y180510D01*
X115858Y180518D01*
X115849Y180523D01*
X115797Y180558D01*
X115745Y180597D01*
X115701Y180636D01*
X115662Y180680D01*
X115627Y180715D01*
X115605Y180746D01*
X115587Y180763D01*
X115583Y180772D01*
Y180483D01*
X115246D01*
Y183516D01*
X115618D01*
Y182450D01*
D02*
G37*
G36*
X89529Y181532D02*
X89533Y181445D01*
X89538Y181366D01*
X89546Y181292D01*
X89560Y181226D01*
X89573Y181174D01*
X89581Y181134D01*
X89586Y181108D01*
X89590Y181100D01*
X89608Y181052D01*
X89629Y181012D01*
X89651Y180977D01*
X89673Y180947D01*
X89695Y180925D01*
X89708Y180907D01*
X89721Y180899D01*
X89726Y180894D01*
X89761Y180868D01*
X89800Y180851D01*
X89839Y180837D01*
X89870Y180829D01*
X89900Y180824D01*
X89922Y180820D01*
X89944D01*
X89992Y180824D01*
X90040Y180833D01*
X90088Y180846D01*
X90128Y180859D01*
X90163Y180872D01*
X90189Y180886D01*
X90206Y180894D01*
X90211Y180899D01*
X90346Y180558D01*
X90272Y180518D01*
X90202Y180488D01*
X90141Y180466D01*
X90084Y180448D01*
X90036Y180440D01*
X89996Y180435D01*
X89966D01*
X89918Y180440D01*
X89874Y180448D01*
X89830Y180462D01*
X89796Y180475D01*
X89769Y180488D01*
X89743Y180501D01*
X89730Y180510D01*
X89726Y180514D01*
X89686Y180549D01*
X89647Y180593D01*
X89608Y180645D01*
X89573Y180693D01*
X89538Y180741D01*
X89516Y180781D01*
X89498Y180811D01*
X89494Y180815D01*
Y180483D01*
X89157D01*
Y182677D01*
X89529D01*
Y181532D01*
D02*
G37*
G36*
X88122D02*
X88126Y181445D01*
X88130Y181366D01*
X88139Y181292D01*
X88152Y181226D01*
X88165Y181174D01*
X88174Y181134D01*
X88179Y181108D01*
X88183Y181100D01*
X88200Y181052D01*
X88222Y181012D01*
X88244Y180977D01*
X88266Y180947D01*
X88288Y180925D01*
X88301Y180907D01*
X88314Y180899D01*
X88318Y180894D01*
X88353Y180868D01*
X88393Y180851D01*
X88432Y180837D01*
X88463Y180829D01*
X88493Y180824D01*
X88515Y180820D01*
X88537D01*
X88585Y180824D01*
X88633Y180833D01*
X88681Y180846D01*
X88721Y180859D01*
X88755Y180872D01*
X88782Y180886D01*
X88799Y180894D01*
X88803Y180899D01*
X88939Y180558D01*
X88865Y180518D01*
X88795Y180488D01*
X88734Y180466D01*
X88677Y180448D01*
X88629Y180440D01*
X88589Y180435D01*
X88559D01*
X88511Y180440D01*
X88467Y180448D01*
X88423Y180462D01*
X88388Y180475D01*
X88362Y180488D01*
X88336Y180501D01*
X88323Y180510D01*
X88318Y180514D01*
X88279Y180549D01*
X88240Y180593D01*
X88200Y180645D01*
X88165Y180693D01*
X88130Y180741D01*
X88109Y180781D01*
X88091Y180811D01*
X88087Y180815D01*
Y180483D01*
X87750D01*
Y182677D01*
X88122D01*
Y181532D01*
D02*
G37*
G36*
X55033Y137187D02*
X52573D01*
Y137453D01*
X55033D01*
Y137187D01*
D02*
G37*
G36*
X43842Y133590D02*
X43457D01*
Y135967D01*
X41871Y133590D01*
X41460D01*
Y136614D01*
X41844D01*
Y134241D01*
X43426Y136614D01*
X43842D01*
Y133590D01*
D02*
G37*
G36*
X57773D02*
X57367D01*
X56545Y135788D01*
X56510Y135880D01*
X56480Y135967D01*
X56453Y136050D01*
X56432Y136125D01*
X56410Y136190D01*
X56397Y136238D01*
X56392Y136256D01*
X56388Y136269D01*
X56384Y136278D01*
Y136282D01*
X56331Y136107D01*
X56305Y136024D01*
X56279Y135950D01*
X56257Y135884D01*
X56248Y135858D01*
X56244Y135832D01*
X56235Y135814D01*
X56230Y135801D01*
X56226Y135793D01*
Y135788D01*
X55440Y133590D01*
X55003D01*
X56174Y136614D01*
X56593D01*
X57773Y133590D01*
D02*
G37*
G36*
X51555Y133949D02*
X52551D01*
Y133590D01*
X50156D01*
Y133949D01*
X51153D01*
Y136614D01*
X51555D01*
Y133949D01*
D02*
G37*
G36*
X48688Y136658D02*
X48758Y136649D01*
X48823Y136640D01*
X48889Y136627D01*
X48946Y136614D01*
X48998Y136601D01*
X49046Y136584D01*
X49090Y136566D01*
X49125Y136553D01*
X49160Y136540D01*
X49186Y136527D01*
X49208Y136514D01*
X49221Y136509D01*
X49230Y136501D01*
X49234D01*
X49330Y136435D01*
X49409Y136361D01*
X49470Y136291D01*
X49523Y136221D01*
X49562Y136160D01*
X49588Y136112D01*
X49597Y136094D01*
X49606Y136081D01*
X49610Y136072D01*
Y136068D01*
X49628Y136015D01*
X49645Y135959D01*
X49671Y135841D01*
X49689Y135718D01*
X49702Y135600D01*
X49706Y135548D01*
X49711Y135495D01*
Y135452D01*
X49715Y135412D01*
Y135382D01*
Y135360D01*
Y135343D01*
Y135338D01*
Y133590D01*
X49313D01*
Y135338D01*
Y135439D01*
X49304Y135535D01*
X49295Y135618D01*
X49282Y135696D01*
X49269Y135766D01*
X49252Y135832D01*
X49238Y135889D01*
X49221Y135937D01*
X49204Y135976D01*
X49186Y136015D01*
X49169Y136042D01*
X49156Y136068D01*
X49142Y136085D01*
X49134Y136099D01*
X49129Y136103D01*
X49125Y136107D01*
X49086Y136142D01*
X49042Y136173D01*
X48946Y136221D01*
X48845Y136256D01*
X48740Y136278D01*
X48644Y136295D01*
X48605Y136300D01*
X48566D01*
X48539Y136304D01*
X48496D01*
X48404Y136300D01*
X48321Y136286D01*
X48242Y136273D01*
X48181Y136251D01*
X48129Y136234D01*
X48089Y136221D01*
X48067Y136208D01*
X48059Y136203D01*
X47997Y136164D01*
X47945Y136116D01*
X47901Y136068D01*
X47871Y136024D01*
X47844Y135980D01*
X47823Y135950D01*
X47814Y135928D01*
X47810Y135919D01*
X47796Y135880D01*
X47788Y135841D01*
X47770Y135749D01*
X47757Y135653D01*
X47748Y135557D01*
X47744Y135474D01*
Y135434D01*
X47740Y135404D01*
Y135378D01*
Y135356D01*
Y135343D01*
Y135338D01*
Y133590D01*
X47338D01*
Y135338D01*
Y135425D01*
X47342Y135509D01*
X47346Y135587D01*
X47355Y135661D01*
X47364Y135727D01*
X47373Y135788D01*
X47386Y135845D01*
X47394Y135898D01*
X47403Y135946D01*
X47416Y135985D01*
X47425Y136020D01*
X47434Y136046D01*
X47442Y136068D01*
X47447Y136085D01*
X47451Y136094D01*
Y136099D01*
X47499Y136195D01*
X47561Y136282D01*
X47622Y136352D01*
X47687Y136413D01*
X47744Y136461D01*
X47792Y136496D01*
X47810Y136505D01*
X47823Y136514D01*
X47831Y136522D01*
X47836D01*
X47945Y136571D01*
X48059Y136605D01*
X48177Y136632D01*
X48286Y136649D01*
X48334Y136653D01*
X48382Y136658D01*
X48426Y136662D01*
X48461D01*
X48491Y136667D01*
X48531D01*
X48688Y136658D01*
D02*
G37*
G36*
X44917Y135386D02*
X45690D01*
X45804Y135382D01*
X45913Y135373D01*
X46009Y135360D01*
X46097Y135343D01*
X46180Y135325D01*
X46249Y135303D01*
X46315Y135277D01*
X46372Y135251D01*
X46420Y135229D01*
X46464Y135203D01*
X46499Y135181D01*
X46525Y135159D01*
X46547Y135146D01*
X46560Y135133D01*
X46569Y135124D01*
X46573Y135120D01*
X46617Y135067D01*
X46656Y135015D01*
X46687Y134962D01*
X46717Y134906D01*
X46743Y134849D01*
X46761Y134796D01*
X46791Y134696D01*
X46800Y134648D01*
X46809Y134604D01*
X46813Y134565D01*
X46818Y134534D01*
X46822Y134503D01*
Y134486D01*
Y134473D01*
Y134468D01*
X46818Y134386D01*
X46809Y134307D01*
X46791Y134237D01*
X46778Y134176D01*
X46761Y134123D01*
X46743Y134084D01*
X46734Y134062D01*
X46730Y134053D01*
X46695Y133988D01*
X46652Y133931D01*
X46612Y133879D01*
X46573Y133839D01*
X46538Y133809D01*
X46512Y133782D01*
X46494Y133769D01*
X46485Y133765D01*
X46429Y133730D01*
X46363Y133699D01*
X46302Y133673D01*
X46245Y133651D01*
X46193Y133638D01*
X46153Y133630D01*
X46123Y133621D01*
X46114D01*
X46048Y133612D01*
X45974Y133603D01*
X45895Y133599D01*
X45821Y133595D01*
X45756Y133590D01*
X44515D01*
Y136614D01*
X44917D01*
Y135386D01*
D02*
G37*
G36*
X40756Y133590D02*
X40354D01*
Y136614D01*
X40756D01*
Y133590D01*
D02*
G37*
G36*
X41039Y102804D02*
X41157Y102791D01*
X41267Y102769D01*
X41363Y102747D01*
X41402Y102738D01*
X41442Y102730D01*
X41476Y102717D01*
X41507Y102708D01*
X41529Y102699D01*
X41546Y102695D01*
X41555Y102690D01*
X41559D01*
X41677Y102642D01*
X41787Y102585D01*
X41892Y102524D01*
X41983Y102468D01*
X42023Y102441D01*
X42062Y102415D01*
X42093Y102393D01*
X42119Y102376D01*
X42141Y102358D01*
X42158Y102345D01*
X42167Y102341D01*
X42171Y102336D01*
Y101213D01*
X40887D01*
Y101572D01*
X41778D01*
Y102140D01*
X41726Y102183D01*
X41664Y102223D01*
X41599Y102258D01*
X41538Y102288D01*
X41485Y102314D01*
X41437Y102336D01*
X41420Y102345D01*
X41411Y102349D01*
X41402Y102354D01*
X41398D01*
X41306Y102384D01*
X41214Y102411D01*
X41131Y102428D01*
X41052Y102437D01*
X40987Y102446D01*
X40961D01*
X40935Y102450D01*
X40891D01*
X40782Y102446D01*
X40677Y102428D01*
X40581Y102406D01*
X40493Y102384D01*
X40423Y102358D01*
X40393Y102349D01*
X40371Y102341D01*
X40349Y102332D01*
X40336Y102323D01*
X40327Y102319D01*
X40323D01*
X40231Y102262D01*
X40148Y102201D01*
X40078Y102135D01*
X40021Y102070D01*
X39973Y102009D01*
X39942Y101961D01*
X39929Y101943D01*
X39925Y101930D01*
X39916Y101921D01*
Y101917D01*
X39873Y101808D01*
X39838Y101694D01*
X39816Y101580D01*
X39798Y101471D01*
X39794Y101423D01*
X39790Y101379D01*
X39785Y101336D01*
Y101301D01*
X39781Y101275D01*
Y101253D01*
Y101240D01*
Y101235D01*
X39785Y101113D01*
X39798Y101004D01*
X39816Y100899D01*
X39838Y100807D01*
X39846Y100768D01*
X39860Y100733D01*
X39868Y100702D01*
X39877Y100676D01*
X39886Y100654D01*
X39890Y100641D01*
X39895Y100632D01*
Y100628D01*
X39925Y100566D01*
X39956Y100510D01*
X39986Y100457D01*
X40017Y100414D01*
X40043Y100379D01*
X40065Y100348D01*
X40082Y100331D01*
X40087Y100326D01*
X40135Y100278D01*
X40187Y100234D01*
X40244Y100199D01*
X40297Y100164D01*
X40340Y100143D01*
X40375Y100121D01*
X40401Y100112D01*
X40410Y100108D01*
X40489Y100077D01*
X40567Y100055D01*
X40650Y100042D01*
X40725Y100029D01*
X40790Y100025D01*
X40817D01*
X40838Y100020D01*
X40887D01*
X40969Y100025D01*
X41048Y100033D01*
X41118Y100047D01*
X41179Y100060D01*
X41232Y100077D01*
X41271Y100090D01*
X41293Y100099D01*
X41302Y100103D01*
X41367Y100134D01*
X41424Y100169D01*
X41476Y100204D01*
X41516Y100239D01*
X41546Y100269D01*
X41573Y100291D01*
X41586Y100309D01*
X41590Y100313D01*
X41629Y100365D01*
X41660Y100427D01*
X41691Y100484D01*
X41717Y100545D01*
X41734Y100597D01*
X41747Y100636D01*
X41752Y100654D01*
X41756Y100667D01*
X41761Y100671D01*
Y100676D01*
X42123Y100580D01*
X42093Y100470D01*
X42053Y100374D01*
X42014Y100287D01*
X41979Y100217D01*
X41944Y100160D01*
X41918Y100121D01*
X41900Y100095D01*
X41892Y100086D01*
X41830Y100016D01*
X41765Y99959D01*
X41695Y99907D01*
X41629Y99863D01*
X41568Y99832D01*
X41520Y99806D01*
X41503Y99797D01*
X41489Y99793D01*
X41481Y99789D01*
X41476D01*
X41376Y99754D01*
X41271Y99727D01*
X41175Y99706D01*
X41083Y99692D01*
X41000Y99684D01*
X40965D01*
X40939Y99679D01*
X40799D01*
X40720Y99688D01*
X40567Y99710D01*
X40497Y99723D01*
X40432Y99741D01*
X40371Y99754D01*
X40314Y99771D01*
X40262Y99789D01*
X40218Y99806D01*
X40178Y99824D01*
X40144Y99837D01*
X40117Y99850D01*
X40100Y99859D01*
X40087Y99863D01*
X40082Y99867D01*
X40021Y99907D01*
X39960Y99946D01*
X39855Y100038D01*
X39763Y100129D01*
X39689Y100226D01*
X39628Y100309D01*
X39606Y100344D01*
X39589Y100379D01*
X39571Y100405D01*
X39562Y100422D01*
X39558Y100435D01*
X39554Y100440D01*
X39492Y100584D01*
X39449Y100728D01*
X39414Y100868D01*
X39405Y100934D01*
X39392Y100995D01*
X39388Y101052D01*
X39379Y101100D01*
X39375Y101148D01*
Y101187D01*
X39370Y101218D01*
Y101240D01*
Y101257D01*
Y101261D01*
X39379Y101423D01*
X39401Y101576D01*
X39414Y101646D01*
X39427Y101711D01*
X39444Y101777D01*
X39462Y101834D01*
X39479Y101886D01*
X39497Y101930D01*
X39510Y101974D01*
X39523Y102004D01*
X39536Y102035D01*
X39545Y102052D01*
X39554Y102065D01*
Y102070D01*
X39632Y102197D01*
X39720Y102306D01*
X39812Y102402D01*
X39899Y102481D01*
X39982Y102542D01*
X40012Y102564D01*
X40043Y102585D01*
X40069Y102599D01*
X40087Y102612D01*
X40100Y102616D01*
X40104Y102620D01*
X40174Y102655D01*
X40244Y102682D01*
X40384Y102730D01*
X40519Y102760D01*
X40646Y102787D01*
X40703Y102791D01*
X40755Y102800D01*
X40803Y102804D01*
X40843D01*
X40873Y102808D01*
X40917D01*
X41039Y102804D01*
D02*
G37*
G36*
X45138Y99732D02*
X44754D01*
Y102109D01*
X43168Y99732D01*
X42757D01*
Y102756D01*
X43141D01*
Y100383D01*
X44723Y102756D01*
X45138D01*
Y99732D01*
D02*
G37*
G36*
X47000Y102752D02*
X47092Y102747D01*
X47175Y102738D01*
X47245Y102730D01*
X47306Y102721D01*
X47350Y102717D01*
X47363Y102712D01*
X47376Y102708D01*
X47385D01*
X47463Y102686D01*
X47533Y102660D01*
X47594Y102638D01*
X47647Y102612D01*
X47691Y102590D01*
X47721Y102572D01*
X47739Y102559D01*
X47747Y102555D01*
X47804Y102516D01*
X47852Y102468D01*
X47900Y102424D01*
X47940Y102380D01*
X47975Y102341D01*
X48001Y102310D01*
X48018Y102288D01*
X48023Y102280D01*
X48066Y102210D01*
X48110Y102135D01*
X48145Y102065D01*
X48171Y101996D01*
X48197Y101934D01*
X48215Y101886D01*
X48219Y101869D01*
X48224Y101856D01*
X48228Y101847D01*
Y101843D01*
X48254Y101738D01*
X48276Y101633D01*
X48289Y101532D01*
X48302Y101436D01*
X48307Y101353D01*
Y101318D01*
X48311Y101288D01*
Y101266D01*
Y101244D01*
Y101235D01*
Y101231D01*
X48307Y101082D01*
X48294Y100947D01*
X48272Y100824D01*
X48263Y100768D01*
X48250Y100719D01*
X48237Y100671D01*
X48228Y100632D01*
X48219Y100597D01*
X48206Y100566D01*
X48202Y100540D01*
X48193Y100523D01*
X48189Y100514D01*
Y100510D01*
X48141Y100396D01*
X48084Y100296D01*
X48023Y100208D01*
X47966Y100134D01*
X47913Y100073D01*
X47870Y100029D01*
X47852Y100016D01*
X47839Y100003D01*
X47835Y99998D01*
X47830Y99994D01*
X47760Y99937D01*
X47686Y99894D01*
X47612Y99854D01*
X47542Y99824D01*
X47481Y99802D01*
X47433Y99789D01*
X47415Y99780D01*
X47402D01*
X47393Y99776D01*
X47389D01*
X47315Y99762D01*
X47227Y99749D01*
X47140Y99741D01*
X47052Y99736D01*
X46974Y99732D01*
X45812D01*
Y102756D01*
X46900D01*
X47000Y102752D01*
D02*
G37*
G36*
X107689Y67571D02*
X107785Y67554D01*
X107868Y67527D01*
X107938Y67501D01*
X107995Y67475D01*
X108039Y67449D01*
X108065Y67431D01*
X108074Y67427D01*
X108139Y67366D01*
X108196Y67300D01*
X108240Y67230D01*
X108275Y67160D01*
X108301Y67099D01*
X108319Y67051D01*
X108323Y67033D01*
X108327Y67020D01*
X108332Y67012D01*
Y67007D01*
X108371Y67082D01*
X108410Y67143D01*
X108454Y67195D01*
X108493Y67239D01*
X108528Y67274D01*
X108559Y67300D01*
X108576Y67313D01*
X108585Y67318D01*
X108646Y67352D01*
X108707Y67379D01*
X108769Y67401D01*
X108826Y67414D01*
X108873Y67422D01*
X108908Y67427D01*
X108935D01*
X108943D01*
X109018Y67422D01*
X109092Y67409D01*
X109158Y67392D01*
X109214Y67370D01*
X109263Y67348D01*
X109302Y67331D01*
X109324Y67318D01*
X109332Y67313D01*
X109398Y67269D01*
X109455Y67217D01*
X109503Y67165D01*
X109546Y67112D01*
X109577Y67068D01*
X109603Y67029D01*
X109616Y67003D01*
X109621Y66999D01*
Y66994D01*
X109656Y66916D01*
X109682Y66837D01*
X109704Y66758D01*
X109717Y66688D01*
X109726Y66632D01*
X109730Y66583D01*
Y66474D01*
X109721Y66413D01*
X109699Y66295D01*
X109664Y66194D01*
X109629Y66107D01*
X109608Y66068D01*
X109590Y66037D01*
X109573Y66007D01*
X109555Y65985D01*
X109542Y65967D01*
X109533Y65954D01*
X109529Y65945D01*
X109525Y65941D01*
X109442Y65858D01*
X109350Y65793D01*
X109254Y65740D01*
X109158Y65696D01*
X109075Y65670D01*
X109040Y65657D01*
X109009Y65648D01*
X108983Y65644D01*
X108965Y65640D01*
X108952Y65635D01*
X108948D01*
X108882Y66007D01*
X108978Y66024D01*
X109061Y66050D01*
X109131Y66081D01*
X109188Y66111D01*
X109232Y66142D01*
X109263Y66168D01*
X109284Y66186D01*
X109289Y66190D01*
X109332Y66247D01*
X109367Y66308D01*
X109389Y66365D01*
X109407Y66422D01*
X109415Y66474D01*
X109424Y66514D01*
Y66549D01*
X109420Y66627D01*
X109402Y66697D01*
X109380Y66758D01*
X109359Y66811D01*
X109332Y66850D01*
X109310Y66881D01*
X109293Y66902D01*
X109289Y66907D01*
X109236Y66955D01*
X109179Y66990D01*
X109123Y67012D01*
X109070Y67029D01*
X109022Y67038D01*
X108987Y67047D01*
X108961D01*
X108957D01*
X108952D01*
X108904D01*
X108860Y67038D01*
X108786Y67016D01*
X108721Y66985D01*
X108664Y66951D01*
X108624Y66916D01*
X108594Y66885D01*
X108576Y66863D01*
X108572Y66859D01*
Y66854D01*
X108533Y66780D01*
X108502Y66710D01*
X108480Y66636D01*
X108467Y66570D01*
X108458Y66514D01*
X108450Y66465D01*
Y66409D01*
X108454Y66391D01*
Y66369D01*
X108126Y66326D01*
X108139Y66382D01*
X108148Y66435D01*
X108157Y66479D01*
X108161Y66518D01*
X108166Y66549D01*
Y66588D01*
X108157Y66680D01*
X108139Y66763D01*
X108113Y66837D01*
X108083Y66898D01*
X108052Y66946D01*
X108026Y66981D01*
X108008Y67003D01*
X108000Y67012D01*
X107934Y67068D01*
X107864Y67112D01*
X107794Y67143D01*
X107724Y67160D01*
X107667Y67173D01*
X107619Y67178D01*
X107602Y67182D01*
X107589D01*
X107580D01*
X107576D01*
X107480Y67173D01*
X107392Y67151D01*
X107318Y67125D01*
X107252Y67090D01*
X107200Y67055D01*
X107160Y67029D01*
X107134Y67007D01*
X107125Y66999D01*
X107064Y66929D01*
X107021Y66854D01*
X106990Y66780D01*
X106968Y66710D01*
X106955Y66649D01*
X106951Y66601D01*
X106946Y66583D01*
Y66557D01*
X106951Y66479D01*
X106968Y66404D01*
X106990Y66339D01*
X107016Y66286D01*
X107038Y66243D01*
X107060Y66208D01*
X107078Y66190D01*
X107082Y66181D01*
X107143Y66129D01*
X107213Y66085D01*
X107287Y66046D01*
X107366Y66015D01*
X107431Y65993D01*
X107462Y65985D01*
X107488Y65980D01*
X107510Y65976D01*
X107528Y65972D01*
X107536Y65967D01*
X107541D01*
X107493Y65596D01*
X107423Y65605D01*
X107357Y65618D01*
X107235Y65657D01*
X107130Y65705D01*
X107086Y65731D01*
X107043Y65758D01*
X107003Y65784D01*
X106973Y65810D01*
X106942Y65832D01*
X106920Y65854D01*
X106903Y65867D01*
X106890Y65880D01*
X106881Y65889D01*
X106876Y65893D01*
X106837Y65945D01*
X106798Y65998D01*
X106767Y66050D01*
X106741Y66107D01*
X106697Y66216D01*
X106671Y66321D01*
X106662Y66369D01*
X106654Y66413D01*
X106649Y66452D01*
X106645Y66487D01*
X106641Y66514D01*
Y66553D01*
X106645Y66636D01*
X106654Y66710D01*
X106667Y66785D01*
X106684Y66854D01*
X106706Y66920D01*
X106728Y66977D01*
X106754Y67033D01*
X106780Y67082D01*
X106802Y67130D01*
X106828Y67169D01*
X106850Y67204D01*
X106872Y67230D01*
X106890Y67252D01*
X106903Y67269D01*
X106911Y67278D01*
X106916Y67283D01*
X106968Y67335D01*
X107025Y67379D01*
X107082Y67418D01*
X107139Y67453D01*
X107191Y67479D01*
X107248Y67506D01*
X107353Y67541D01*
X107401Y67549D01*
X107445Y67558D01*
X107484Y67567D01*
X107519Y67571D01*
X107545Y67575D01*
X107567D01*
X107580D01*
X107584D01*
X107689Y67571D01*
D02*
G37*
G36*
X109730Y64398D02*
X109656Y64355D01*
X109586Y64307D01*
X109516Y64250D01*
X109455Y64197D01*
X109402Y64145D01*
X109359Y64106D01*
X109345Y64088D01*
X109332Y64075D01*
X109328Y64071D01*
X109324Y64066D01*
X109249Y63974D01*
X109179Y63883D01*
X109118Y63795D01*
X109070Y63708D01*
X109027Y63634D01*
X109009Y63603D01*
X108996Y63577D01*
X108983Y63555D01*
X108978Y63538D01*
X108970Y63529D01*
Y63524D01*
X108611D01*
X108638Y63590D01*
X108668Y63656D01*
X108699Y63721D01*
X108729Y63782D01*
X108756Y63835D01*
X108777Y63878D01*
X108795Y63905D01*
X108799Y63909D01*
Y63913D01*
X108847Y63992D01*
X108895Y64062D01*
X108939Y64123D01*
X108978Y64171D01*
X109009Y64215D01*
X109035Y64241D01*
X109053Y64263D01*
X109057Y64267D01*
X106693D01*
Y64639D01*
X109730D01*
Y64398D01*
D02*
G37*
G36*
X107051Y61352D02*
X107125Y61405D01*
X107156Y61431D01*
X107187Y61453D01*
X107213Y61475D01*
X107230Y61492D01*
X107244Y61506D01*
X107248Y61510D01*
X107270Y61532D01*
X107292Y61558D01*
X107348Y61619D01*
X107414Y61689D01*
X107480Y61763D01*
X107536Y61833D01*
X107562Y61864D01*
X107589Y61890D01*
X107606Y61912D01*
X107619Y61929D01*
X107628Y61938D01*
X107633Y61942D01*
X107694Y62012D01*
X107750Y62082D01*
X107807Y62143D01*
X107855Y62200D01*
X107903Y62253D01*
X107947Y62296D01*
X107986Y62340D01*
X108021Y62375D01*
X108056Y62410D01*
X108083Y62436D01*
X108104Y62458D01*
X108126Y62480D01*
X108152Y62502D01*
X108161Y62511D01*
X108236Y62572D01*
X108301Y62624D01*
X108367Y62668D01*
X108419Y62703D01*
X108467Y62729D01*
X108502Y62747D01*
X108524Y62755D01*
X108533Y62760D01*
X108598Y62786D01*
X108664Y62803D01*
X108725Y62821D01*
X108777Y62830D01*
X108826Y62834D01*
X108860Y62838D01*
X108882D01*
X108891D01*
X108957Y62834D01*
X109018Y62825D01*
X109079Y62817D01*
X109131Y62799D01*
X109236Y62755D01*
X109319Y62712D01*
X109359Y62685D01*
X109389Y62664D01*
X109420Y62642D01*
X109442Y62620D01*
X109459Y62602D01*
X109477Y62594D01*
X109481Y62585D01*
X109485Y62581D01*
X109529Y62532D01*
X109568Y62480D01*
X109599Y62423D01*
X109625Y62366D01*
X109669Y62253D01*
X109699Y62139D01*
X109708Y62091D01*
X109717Y62043D01*
X109721Y61999D01*
X109726Y61964D01*
X109730Y61934D01*
Y61890D01*
X109726Y61811D01*
X109721Y61737D01*
X109708Y61667D01*
X109695Y61602D01*
X109678Y61540D01*
X109660Y61484D01*
X109638Y61431D01*
X109616Y61383D01*
X109595Y61339D01*
X109573Y61304D01*
X109555Y61274D01*
X109538Y61248D01*
X109525Y61226D01*
X109512Y61213D01*
X109507Y61204D01*
X109503Y61200D01*
X109459Y61156D01*
X109411Y61117D01*
X109359Y61077D01*
X109306Y61047D01*
X109201Y60994D01*
X109096Y60959D01*
X109048Y60946D01*
X109000Y60933D01*
X108961Y60924D01*
X108926Y60915D01*
X108895Y60911D01*
X108873D01*
X108860Y60907D01*
X108856D01*
X108817Y61287D01*
X108917Y61296D01*
X109005Y61313D01*
X109083Y61339D01*
X109144Y61370D01*
X109197Y61396D01*
X109232Y61422D01*
X109254Y61440D01*
X109263Y61449D01*
X109315Y61514D01*
X109354Y61584D01*
X109385Y61658D01*
X109402Y61724D01*
X109415Y61785D01*
X109420Y61838D01*
X109424Y61855D01*
Y61881D01*
X109420Y61973D01*
X109402Y62056D01*
X109376Y62126D01*
X109350Y62187D01*
X109319Y62235D01*
X109297Y62266D01*
X109280Y62288D01*
X109271Y62296D01*
X109210Y62349D01*
X109149Y62388D01*
X109088Y62419D01*
X109027Y62436D01*
X108978Y62449D01*
X108935Y62454D01*
X108908Y62458D01*
X108904D01*
X108900D01*
X108821Y62449D01*
X108738Y62432D01*
X108664Y62401D01*
X108594Y62371D01*
X108537Y62336D01*
X108489Y62305D01*
X108472Y62296D01*
X108458Y62288D01*
X108454Y62279D01*
X108450D01*
X108402Y62244D01*
X108353Y62200D01*
X108301Y62152D01*
X108249Y62100D01*
X108144Y61991D01*
X108039Y61881D01*
X107991Y61825D01*
X107947Y61776D01*
X107908Y61728D01*
X107873Y61689D01*
X107847Y61658D01*
X107825Y61632D01*
X107812Y61615D01*
X107807Y61610D01*
X107715Y61501D01*
X107628Y61401D01*
X107549Y61318D01*
X107484Y61252D01*
X107427Y61195D01*
X107388Y61156D01*
X107361Y61134D01*
X107357Y61125D01*
X107353D01*
X107279Y61064D01*
X107209Y61016D01*
X107139Y60972D01*
X107078Y60937D01*
X107025Y60911D01*
X106986Y60894D01*
X106959Y60885D01*
X106955Y60881D01*
X106951D01*
X106903Y60863D01*
X106859Y60854D01*
X106815Y60846D01*
X106776Y60841D01*
X106741Y60837D01*
X106715D01*
X106697D01*
X106693D01*
Y62843D01*
X107051D01*
Y61352D01*
D02*
G37*
G36*
X107750Y60146D02*
X107680Y60129D01*
X107615Y60107D01*
X107554Y60085D01*
X107497Y60063D01*
X107445Y60037D01*
X107401Y60011D01*
X107357Y59980D01*
X107318Y59954D01*
X107283Y59932D01*
X107257Y59906D01*
X107230Y59884D01*
X107209Y59867D01*
X107195Y59849D01*
X107182Y59836D01*
X107178Y59832D01*
X107174Y59827D01*
X107139Y59784D01*
X107112Y59736D01*
X107064Y59640D01*
X107029Y59548D01*
X107008Y59456D01*
X106990Y59377D01*
X106986Y59347D01*
Y59316D01*
X106981Y59290D01*
Y59259D01*
X106986Y59159D01*
X107003Y59063D01*
X107025Y58975D01*
X107051Y58897D01*
X107078Y58835D01*
X107091Y58809D01*
X107099Y58787D01*
X107108Y58770D01*
X107117Y58757D01*
X107121Y58748D01*
Y58744D01*
X107182Y58661D01*
X107248Y58591D01*
X107322Y58530D01*
X107392Y58481D01*
X107453Y58442D01*
X107506Y58416D01*
X107528Y58407D01*
X107541Y58398D01*
X107549Y58394D01*
X107554D01*
X107667Y58359D01*
X107781Y58333D01*
X107895Y58311D01*
X108000Y58298D01*
X108048Y58293D01*
X108091Y58289D01*
X108131D01*
X108161Y58285D01*
X108187D01*
X108209D01*
X108222D01*
X108227D01*
X108340Y58289D01*
X108445Y58298D01*
X108541Y58315D01*
X108629Y58333D01*
X108703Y58346D01*
X108734Y58355D01*
X108760Y58363D01*
X108782Y58368D01*
X108795Y58372D01*
X108804Y58377D01*
X108808D01*
X108908Y58420D01*
X109000Y58468D01*
X109075Y58521D01*
X109140Y58578D01*
X109193Y58626D01*
X109228Y58665D01*
X109249Y58696D01*
X109258Y58700D01*
Y58704D01*
X109315Y58796D01*
X109359Y58897D01*
X109389Y58993D01*
X109407Y59084D01*
X109420Y59167D01*
X109424Y59202D01*
Y59233D01*
X109429Y59255D01*
Y59290D01*
X109424Y59399D01*
X109407Y59500D01*
X109380Y59583D01*
X109354Y59657D01*
X109324Y59714D01*
X109302Y59758D01*
X109284Y59784D01*
X109276Y59792D01*
X109210Y59862D01*
X109136Y59928D01*
X109057Y59980D01*
X108978Y60024D01*
X108908Y60059D01*
X108873Y60072D01*
X108847Y60081D01*
X108826Y60090D01*
X108808Y60098D01*
X108799Y60103D01*
X108795D01*
X108887Y60496D01*
X108965Y60470D01*
X109035Y60444D01*
X109101Y60409D01*
X109166Y60378D01*
X109223Y60343D01*
X109276Y60304D01*
X109328Y60269D01*
X109372Y60234D01*
X109407Y60199D01*
X109442Y60168D01*
X109472Y60138D01*
X109494Y60116D01*
X109516Y60094D01*
X109529Y60076D01*
X109533Y60068D01*
X109538Y60063D01*
X109577Y60002D01*
X109616Y59941D01*
X109647Y59880D01*
X109673Y59814D01*
X109713Y59683D01*
X109739Y59565D01*
X109752Y59508D01*
X109756Y59460D01*
X109761Y59412D01*
X109765Y59373D01*
X109769Y59342D01*
Y59299D01*
X109761Y59154D01*
X109739Y59015D01*
X109713Y58892D01*
X109695Y58835D01*
X109678Y58783D01*
X109660Y58735D01*
X109643Y58691D01*
X109629Y58656D01*
X109616Y58621D01*
X109603Y58599D01*
X109595Y58582D01*
X109590Y58569D01*
X109586Y58565D01*
X109512Y58447D01*
X109424Y58346D01*
X109337Y58259D01*
X109249Y58184D01*
X109171Y58127D01*
X109136Y58106D01*
X109105Y58088D01*
X109083Y58071D01*
X109066Y58062D01*
X109053Y58058D01*
X109048Y58053D01*
X108913Y57992D01*
X108773Y57948D01*
X108633Y57918D01*
X108507Y57896D01*
X108450Y57887D01*
X108393Y57883D01*
X108349Y57878D01*
X108305D01*
X108275Y57874D01*
X108249D01*
X108231D01*
X108227D01*
X108070Y57883D01*
X107916Y57900D01*
X107781Y57922D01*
X107715Y57940D01*
X107659Y57953D01*
X107606Y57966D01*
X107558Y57983D01*
X107515Y57996D01*
X107480Y58005D01*
X107453Y58018D01*
X107431Y58023D01*
X107418Y58031D01*
X107414D01*
X107283Y58097D01*
X107165Y58171D01*
X107064Y58250D01*
X107025Y58289D01*
X106986Y58324D01*
X106951Y58359D01*
X106920Y58394D01*
X106894Y58425D01*
X106876Y58451D01*
X106859Y58468D01*
X106846Y58486D01*
X106842Y58495D01*
X106837Y58499D01*
X106802Y58560D01*
X106772Y58621D01*
X106723Y58752D01*
X106688Y58884D01*
X106667Y59010D01*
X106658Y59071D01*
X106649Y59124D01*
X106645Y59172D01*
Y59211D01*
X106641Y59246D01*
Y59294D01*
X106645Y59382D01*
X106654Y59465D01*
X106662Y59543D01*
X106680Y59618D01*
X106702Y59688D01*
X106723Y59753D01*
X106745Y59814D01*
X106772Y59871D01*
X106793Y59919D01*
X106815Y59967D01*
X106837Y60002D01*
X106859Y60037D01*
X106876Y60059D01*
X106885Y60081D01*
X106894Y60090D01*
X106898Y60094D01*
X106951Y60155D01*
X107003Y60208D01*
X107064Y60256D01*
X107125Y60304D01*
X107248Y60382D01*
X107370Y60444D01*
X107427Y60470D01*
X107480Y60492D01*
X107528Y60509D01*
X107567Y60522D01*
X107602Y60535D01*
X107628Y60544D01*
X107646Y60549D01*
X107650D01*
X107750Y60146D01*
D02*
G37*
G36*
X124703Y165381D02*
X124751Y165376D01*
X124794Y165367D01*
X124834Y165363D01*
X124864Y165359D01*
X124882Y165354D01*
X124891D01*
X124843Y165027D01*
X124808Y165031D01*
X124773Y165035D01*
X124742D01*
X124720Y165040D01*
X124676D01*
X124620Y165035D01*
X124580Y165027D01*
X124558Y165018D01*
X124550Y165014D01*
X124519Y164992D01*
X124502Y164970D01*
X124488Y164952D01*
X124484Y164944D01*
X124480Y164922D01*
X124475Y164891D01*
X124471Y164821D01*
X124467Y164791D01*
Y164764D01*
Y164747D01*
Y164738D01*
Y163449D01*
X124843D01*
Y163161D01*
X124467D01*
Y162396D01*
X124095Y162619D01*
Y163161D01*
X123820D01*
Y163449D01*
X124095D01*
Y164716D01*
Y164778D01*
Y164830D01*
X124100Y164878D01*
X124104Y164926D01*
Y164965D01*
X124108Y165000D01*
X124117Y165057D01*
X124126Y165101D01*
X124130Y165131D01*
X124139Y165149D01*
Y165153D01*
X124156Y165193D01*
X124183Y165223D01*
X124209Y165254D01*
X124231Y165276D01*
X124257Y165297D01*
X124274Y165311D01*
X124287Y165319D01*
X124292Y165324D01*
X124340Y165346D01*
X124388Y165359D01*
X124441Y165372D01*
X124493Y165376D01*
X124537Y165381D01*
X124572Y165385D01*
X124607D01*
X124703Y165381D01*
D02*
G37*
G36*
X123462Y164008D02*
Y163917D01*
X123457Y163842D01*
X123453Y163781D01*
Y163729D01*
X123449Y163694D01*
X123444Y163668D01*
X123440Y163650D01*
Y163646D01*
X123427Y163589D01*
X123405Y163536D01*
X123387Y163493D01*
X123370Y163449D01*
X123348Y163418D01*
X123335Y163397D01*
X123326Y163379D01*
X123322Y163375D01*
X123287Y163331D01*
X123247Y163296D01*
X123208Y163261D01*
X123164Y163235D01*
X123129Y163213D01*
X123099Y163200D01*
X123081Y163191D01*
X123073Y163187D01*
X123012Y163161D01*
X122946Y163143D01*
X122885Y163130D01*
X122828Y163121D01*
X122780Y163117D01*
X122745Y163112D01*
X122710D01*
X122627Y163117D01*
X122548Y163130D01*
X122478Y163147D01*
X122408Y163169D01*
X122347Y163196D01*
X122290Y163226D01*
X122238Y163261D01*
X122194Y163292D01*
X122151Y163327D01*
X122116Y163362D01*
X122085Y163392D01*
X122059Y163418D01*
X122041Y163440D01*
X122028Y163458D01*
X122020Y163471D01*
X122015Y163475D01*
Y163161D01*
X121683D01*
Y165354D01*
X122054D01*
Y164161D01*
Y164087D01*
X122063Y164013D01*
X122072Y163952D01*
X122081Y163895D01*
X122094Y163842D01*
X122107Y163794D01*
X122124Y163751D01*
X122142Y163716D01*
X122155Y163685D01*
X122172Y163659D01*
X122186Y163637D01*
X122199Y163619D01*
X122216Y163598D01*
X122225Y163589D01*
X122290Y163536D01*
X122360Y163501D01*
X122430Y163475D01*
X122491Y163453D01*
X122548Y163445D01*
X122592Y163440D01*
X122609Y163436D01*
X122631D01*
X122684Y163440D01*
X122736Y163445D01*
X122780Y163458D01*
X122815Y163471D01*
X122845Y163484D01*
X122872Y163493D01*
X122885Y163501D01*
X122889Y163506D01*
X122928Y163532D01*
X122963Y163563D01*
X122990Y163593D01*
X123012Y163619D01*
X123025Y163646D01*
X123038Y163668D01*
X123046Y163681D01*
Y163685D01*
X123059Y163733D01*
X123073Y163786D01*
X123081Y163842D01*
X123086Y163899D01*
X123090Y163947D01*
Y163987D01*
Y164017D01*
Y164022D01*
Y164026D01*
Y165354D01*
X123462D01*
Y164008D01*
D02*
G37*
G36*
X118759Y163969D02*
X118755Y163855D01*
X118746Y163755D01*
X118733Y163672D01*
X118720Y163602D01*
X118707Y163545D01*
X118694Y163506D01*
X118685Y163484D01*
X118681Y163475D01*
X118646Y163414D01*
X118606Y163362D01*
X118563Y163318D01*
X118524Y163279D01*
X118484Y163248D01*
X118454Y163226D01*
X118432Y163213D01*
X118423Y163209D01*
X118353Y163178D01*
X118283Y163152D01*
X118213Y163134D01*
X118148Y163126D01*
X118091Y163117D01*
X118043Y163112D01*
X118003D01*
X117933Y163117D01*
X117864Y163126D01*
X117798Y163139D01*
X117737Y163161D01*
X117623Y163209D01*
X117575Y163235D01*
X117532Y163261D01*
X117492Y163292D01*
X117453Y163318D01*
X117422Y163344D01*
X117400Y163366D01*
X117378Y163388D01*
X117365Y163401D01*
X117357Y163410D01*
X117352Y163414D01*
Y162330D01*
X116981D01*
Y165354D01*
X117352D01*
Y164157D01*
X117357Y164065D01*
X117361Y163987D01*
X117370Y163917D01*
X117383Y163860D01*
X117396Y163816D01*
X117405Y163781D01*
X117409Y163764D01*
X117413Y163755D01*
X117440Y163702D01*
X117470Y163654D01*
X117505Y163615D01*
X117540Y163580D01*
X117571Y163554D01*
X117597Y163536D01*
X117614Y163523D01*
X117619Y163519D01*
X117676Y163488D01*
X117728Y163467D01*
X117781Y163453D01*
X117824Y163440D01*
X117868Y163436D01*
X117899Y163432D01*
X117925D01*
X118003Y163436D01*
X118073Y163453D01*
X118130Y163471D01*
X118178Y163497D01*
X118218Y163519D01*
X118244Y163541D01*
X118261Y163558D01*
X118266Y163563D01*
X118305Y163615D01*
X118336Y163681D01*
X118357Y163746D01*
X118375Y163812D01*
X118384Y163873D01*
X118388Y163921D01*
Y163938D01*
Y163952D01*
Y163960D01*
Y163965D01*
Y165354D01*
X118759D01*
Y163969D01*
D02*
G37*
G36*
X120149Y165398D02*
X120228Y165385D01*
X120298Y165367D01*
X120368Y165346D01*
X120429Y165315D01*
X120486Y165284D01*
X120538Y165254D01*
X120586Y165219D01*
X120630Y165184D01*
X120665Y165153D01*
X120695Y165118D01*
X120722Y165092D01*
X120743Y165070D01*
X120756Y165053D01*
X120765Y165040D01*
X120770Y165035D01*
Y165354D01*
X121102D01*
Y163161D01*
X120730D01*
Y164336D01*
X120726Y164437D01*
X120722Y164524D01*
X120713Y164598D01*
X120700Y164660D01*
X120687Y164708D01*
X120678Y164743D01*
X120674Y164760D01*
X120669Y164769D01*
X120643Y164821D01*
X120612Y164865D01*
X120577Y164904D01*
X120542Y164939D01*
X120512Y164965D01*
X120486Y164983D01*
X120468Y164996D01*
X120459Y165000D01*
X120403Y165027D01*
X120346Y165048D01*
X120293Y165061D01*
X120245Y165075D01*
X120206Y165079D01*
X120175Y165083D01*
X120145D01*
X120084Y165079D01*
X120031Y165070D01*
X119983Y165057D01*
X119944Y165040D01*
X119909Y165027D01*
X119887Y165014D01*
X119869Y165005D01*
X119865Y165000D01*
X119826Y164965D01*
X119795Y164930D01*
X119769Y164891D01*
X119747Y164856D01*
X119734Y164821D01*
X119725Y164795D01*
X119717Y164778D01*
Y164773D01*
X119708Y164725D01*
X119703Y164668D01*
X119699Y164603D01*
Y164537D01*
X119695Y164476D01*
Y164428D01*
Y164406D01*
Y164393D01*
Y164384D01*
Y164380D01*
Y163161D01*
X119323D01*
Y164520D01*
Y164603D01*
X119327Y164677D01*
X119332Y164734D01*
X119336Y164786D01*
Y164821D01*
X119341Y164847D01*
X119345Y164865D01*
Y164869D01*
X119358Y164926D01*
X119376Y164979D01*
X119393Y165027D01*
X119415Y165066D01*
X119432Y165101D01*
X119446Y165123D01*
X119454Y165140D01*
X119459Y165145D01*
X119494Y165184D01*
X119533Y165219D01*
X119572Y165249D01*
X119616Y165276D01*
X119651Y165297D01*
X119682Y165315D01*
X119699Y165324D01*
X119708Y165328D01*
X119773Y165354D01*
X119834Y165372D01*
X119896Y165385D01*
X119952Y165394D01*
X120001Y165398D01*
X120040Y165402D01*
X120071D01*
X120149Y165398D01*
D02*
G37*
G36*
X115478Y165402D02*
X115587Y165389D01*
X115687Y165367D01*
X115770Y165346D01*
X115840Y165328D01*
X115871Y165315D01*
X115897Y165306D01*
X115915Y165297D01*
X115928Y165293D01*
X115936Y165289D01*
X115941D01*
X116033Y165241D01*
X116111Y165188D01*
X116181Y165131D01*
X116238Y165079D01*
X116282Y165035D01*
X116312Y164996D01*
X116334Y164970D01*
X116339Y164965D01*
Y164961D01*
X116386Y164878D01*
X116421Y164799D01*
X116443Y164725D01*
X116461Y164655D01*
X116470Y164594D01*
X116478Y164546D01*
Y164528D01*
Y164515D01*
Y164511D01*
Y164506D01*
X116474Y164419D01*
X116461Y164336D01*
X116439Y164262D01*
X116417Y164201D01*
X116391Y164148D01*
X116373Y164109D01*
X116356Y164087D01*
X116352Y164078D01*
X116299Y164013D01*
X116238Y163952D01*
X116172Y163899D01*
X116107Y163851D01*
X116050Y163816D01*
X116002Y163790D01*
X115984Y163781D01*
X115971Y163772D01*
X115963Y163768D01*
X115958D01*
X115923Y163751D01*
X115880Y163737D01*
X115831Y163720D01*
X115779Y163702D01*
X115670Y163672D01*
X115556Y163641D01*
X115504Y163628D01*
X115456Y163615D01*
X115408Y163602D01*
X115368Y163593D01*
X115338Y163584D01*
X115312Y163580D01*
X115294Y163576D01*
X115290D01*
X115202Y163554D01*
X115124Y163536D01*
X115054Y163515D01*
X114992Y163497D01*
X114936Y163475D01*
X114888Y163458D01*
X114844Y163440D01*
X114805Y163427D01*
X114774Y163410D01*
X114748Y163397D01*
X114730Y163388D01*
X114713Y163375D01*
X114691Y163362D01*
X114687Y163357D01*
X114647Y163313D01*
X114621Y163270D01*
X114599Y163226D01*
X114586Y163182D01*
X114577Y163147D01*
X114573Y163117D01*
Y163099D01*
Y163091D01*
X114582Y163021D01*
X114599Y162960D01*
X114625Y162907D01*
X114656Y162859D01*
X114682Y162824D01*
X114708Y162794D01*
X114726Y162776D01*
X114735Y162772D01*
X114770Y162750D01*
X114805Y162728D01*
X114888Y162693D01*
X114975Y162671D01*
X115062Y162654D01*
X115141Y162645D01*
X115176Y162641D01*
X115202Y162636D01*
X115263D01*
X115386Y162641D01*
X115495Y162658D01*
X115583Y162684D01*
X115657Y162710D01*
X115714Y162737D01*
X115757Y162763D01*
X115779Y162780D01*
X115788Y162785D01*
X115849Y162846D01*
X115897Y162911D01*
X115936Y162981D01*
X115963Y163051D01*
X115980Y163117D01*
X115993Y163165D01*
X115998Y163187D01*
X116002Y163200D01*
Y163209D01*
Y163213D01*
X116386Y163182D01*
X116378Y163086D01*
X116356Y162999D01*
X116334Y162916D01*
X116304Y162846D01*
X116277Y162789D01*
X116255Y162745D01*
X116247Y162732D01*
X116238Y162719D01*
X116234Y162715D01*
Y162710D01*
X116177Y162636D01*
X116116Y162571D01*
X116050Y162514D01*
X115984Y162470D01*
X115928Y162431D01*
X115884Y162409D01*
X115866Y162400D01*
X115853Y162391D01*
X115845Y162387D01*
X115840D01*
X115744Y162352D01*
X115639Y162326D01*
X115543Y162304D01*
X115451Y162291D01*
X115368Y162282D01*
X115338D01*
X115307Y162278D01*
X115250D01*
X115137Y162282D01*
X115036Y162295D01*
X114940Y162313D01*
X114857Y162330D01*
X114792Y162348D01*
X114761Y162356D01*
X114739Y162365D01*
X114722Y162374D01*
X114708Y162378D01*
X114700Y162383D01*
X114695D01*
X114608Y162426D01*
X114529Y162475D01*
X114464Y162527D01*
X114411Y162575D01*
X114372Y162619D01*
X114341Y162654D01*
X114320Y162680D01*
X114315Y162684D01*
Y162689D01*
X114271Y162763D01*
X114241Y162837D01*
X114219Y162911D01*
X114206Y162977D01*
X114197Y163034D01*
X114188Y163077D01*
Y163095D01*
Y163108D01*
Y163112D01*
Y163117D01*
X114193Y163191D01*
X114206Y163261D01*
X114223Y163327D01*
X114241Y163383D01*
X114258Y163427D01*
X114276Y163462D01*
X114289Y163484D01*
X114293Y163493D01*
X114337Y163554D01*
X114390Y163611D01*
X114442Y163659D01*
X114494Y163698D01*
X114538Y163733D01*
X114577Y163755D01*
X114604Y163772D01*
X114608Y163777D01*
X114612D01*
X114647Y163794D01*
X114687Y163812D01*
X114774Y163842D01*
X114874Y163873D01*
X114971Y163903D01*
X115058Y163930D01*
X115097Y163938D01*
X115132Y163947D01*
X115159Y163956D01*
X115180Y163960D01*
X115193Y163965D01*
X115198D01*
X115272Y163982D01*
X115342Y164000D01*
X115403Y164017D01*
X115456Y164030D01*
X115508Y164043D01*
X115552Y164056D01*
X115591Y164065D01*
X115622Y164078D01*
X115652Y164087D01*
X115674Y164091D01*
X115709Y164104D01*
X115731Y164109D01*
X115735Y164113D01*
X115801Y164139D01*
X115858Y164170D01*
X115906Y164201D01*
X115941Y164227D01*
X115971Y164253D01*
X115989Y164271D01*
X116002Y164284D01*
X116006Y164288D01*
X116037Y164327D01*
X116059Y164371D01*
X116072Y164415D01*
X116085Y164450D01*
X116089Y164485D01*
X116094Y164511D01*
Y164533D01*
Y164537D01*
X116089Y164590D01*
X116081Y164638D01*
X116068Y164681D01*
X116050Y164716D01*
X116033Y164751D01*
X116019Y164773D01*
X116011Y164791D01*
X116006Y164795D01*
X115971Y164839D01*
X115928Y164874D01*
X115884Y164904D01*
X115845Y164935D01*
X115805Y164952D01*
X115775Y164970D01*
X115753Y164979D01*
X115744Y164983D01*
X115679Y165005D01*
X115609Y165022D01*
X115539Y165031D01*
X115478Y165040D01*
X115425Y165044D01*
X115381Y165048D01*
X115342D01*
X115246Y165044D01*
X115159Y165035D01*
X115080Y165022D01*
X115010Y165005D01*
X114953Y164987D01*
X114910Y164974D01*
X114896Y164970D01*
X114883Y164965D01*
X114879Y164961D01*
X114874D01*
X114805Y164926D01*
X114739Y164887D01*
X114691Y164847D01*
X114647Y164808D01*
X114612Y164778D01*
X114591Y164747D01*
X114577Y164729D01*
X114573Y164725D01*
X114542Y164668D01*
X114512Y164607D01*
X114494Y164541D01*
X114477Y164485D01*
X114464Y164428D01*
X114455Y164389D01*
Y164371D01*
X114451Y164358D01*
Y164354D01*
Y164349D01*
X114075Y164384D01*
X114084Y164493D01*
X114101Y164598D01*
X114127Y164690D01*
X114158Y164773D01*
X114188Y164839D01*
X114201Y164865D01*
X114210Y164887D01*
X114223Y164904D01*
X114228Y164917D01*
X114236Y164926D01*
Y164930D01*
X114302Y165014D01*
X114372Y165088D01*
X114446Y165149D01*
X114516Y165201D01*
X114577Y165241D01*
X114630Y165267D01*
X114647Y165276D01*
X114660Y165284D01*
X114669Y165289D01*
X114673D01*
X114783Y165328D01*
X114896Y165359D01*
X115010Y165376D01*
X115119Y165394D01*
X115172Y165398D01*
X115215Y165402D01*
X115255D01*
X115290Y165407D01*
X115360D01*
X115478Y165402D01*
D02*
G37*
G36*
X60405Y177919D02*
X60343Y177831D01*
X60287Y177752D01*
X60230Y177687D01*
X60182Y177626D01*
X60138Y177582D01*
X60103Y177547D01*
X60081Y177525D01*
X60072Y177517D01*
X60038Y177490D01*
X59998Y177460D01*
X59920Y177412D01*
X59885Y177394D01*
X59858Y177377D01*
X59841Y177368D01*
X59832Y177364D01*
X59911Y177350D01*
X59985Y177337D01*
X60051Y177315D01*
X60116Y177298D01*
X60173Y177276D01*
X60225Y177250D01*
X60274Y177228D01*
X60317Y177206D01*
X60352Y177180D01*
X60387Y177158D01*
X60413Y177141D01*
X60435Y177123D01*
X60453Y177110D01*
X60466Y177097D01*
X60470Y177093D01*
X60475Y177088D01*
X60510Y177045D01*
X60545Y177001D01*
X60597Y176909D01*
X60632Y176817D01*
X60658Y176730D01*
X60676Y176656D01*
X60680Y176625D01*
Y176594D01*
X60684Y176573D01*
Y176555D01*
Y176546D01*
Y176542D01*
X60680Y176450D01*
X60667Y176367D01*
X60645Y176289D01*
X60623Y176223D01*
X60597Y176166D01*
X60579Y176122D01*
X60562Y176096D01*
X60558Y176092D01*
Y176088D01*
X60505Y176018D01*
X60453Y175956D01*
X60396Y175904D01*
X60343Y175865D01*
X60295Y175834D01*
X60256Y175817D01*
X60230Y175803D01*
X60225Y175799D01*
X60221D01*
X60182Y175786D01*
X60134Y175773D01*
X60038Y175751D01*
X59933Y175738D01*
X59837Y175725D01*
X59745Y175721D01*
X59705D01*
X59671Y175716D01*
X58268D01*
Y178740D01*
X58670D01*
Y177399D01*
X59185D01*
X59233Y177403D01*
X59268D01*
X59299Y177407D01*
X59321Y177412D01*
X59338D01*
X59347Y177416D01*
X59351D01*
X59421Y177438D01*
X59452Y177451D01*
X59478Y177464D01*
X59504Y177477D01*
X59522Y177486D01*
X59531Y177490D01*
X59535Y177495D01*
X59570Y177521D01*
X59605Y177551D01*
X59671Y177617D01*
X59701Y177648D01*
X59723Y177674D01*
X59736Y177691D01*
X59740Y177696D01*
X59784Y177757D01*
X59832Y177822D01*
X59880Y177892D01*
X59928Y177958D01*
X59968Y178019D01*
X59998Y178067D01*
X60011Y178085D01*
X60020Y178098D01*
X60029Y178106D01*
Y178111D01*
X60426Y178740D01*
X60925D01*
X60405Y177919D01*
D02*
G37*
G36*
X66907Y178788D02*
X66982Y178779D01*
X67056Y178766D01*
X67126Y178749D01*
X67191Y178727D01*
X67248Y178705D01*
X67305Y178679D01*
X67353Y178653D01*
X67401Y178631D01*
X67440Y178605D01*
X67475Y178583D01*
X67501Y178561D01*
X67523Y178543D01*
X67541Y178530D01*
X67550Y178522D01*
X67554Y178517D01*
X67606Y178465D01*
X67650Y178408D01*
X67689Y178351D01*
X67724Y178294D01*
X67751Y178242D01*
X67777Y178185D01*
X67812Y178080D01*
X67821Y178032D01*
X67829Y177989D01*
X67838Y177949D01*
X67842Y177914D01*
X67847Y177888D01*
Y177866D01*
Y177853D01*
Y177849D01*
X67842Y177744D01*
X67825Y177648D01*
X67799Y177565D01*
X67773Y177495D01*
X67746Y177438D01*
X67720Y177394D01*
X67703Y177368D01*
X67698Y177359D01*
X67637Y177294D01*
X67572Y177237D01*
X67501Y177193D01*
X67432Y177158D01*
X67370Y177132D01*
X67322Y177114D01*
X67305Y177110D01*
X67292Y177106D01*
X67283Y177101D01*
X67279D01*
X67353Y177062D01*
X67414Y177023D01*
X67467Y176979D01*
X67510Y176940D01*
X67545Y176905D01*
X67572Y176874D01*
X67585Y176857D01*
X67589Y176848D01*
X67624Y176787D01*
X67650Y176726D01*
X67672Y176664D01*
X67685Y176608D01*
X67694Y176559D01*
X67698Y176525D01*
Y176498D01*
Y176490D01*
X67694Y176415D01*
X67681Y176341D01*
X67663Y176276D01*
X67641Y176219D01*
X67620Y176171D01*
X67602Y176131D01*
X67589Y176109D01*
X67585Y176101D01*
X67541Y176035D01*
X67488Y175978D01*
X67436Y175930D01*
X67383Y175887D01*
X67340Y175856D01*
X67300Y175830D01*
X67274Y175817D01*
X67270Y175812D01*
X67265D01*
X67187Y175777D01*
X67108Y175751D01*
X67030Y175729D01*
X66960Y175716D01*
X66903Y175707D01*
X66855Y175703D01*
X66746D01*
X66684Y175712D01*
X66566Y175734D01*
X66466Y175769D01*
X66378Y175803D01*
X66339Y175825D01*
X66308Y175843D01*
X66278Y175860D01*
X66256Y175878D01*
X66239Y175891D01*
X66225Y175900D01*
X66217Y175904D01*
X66212Y175908D01*
X66129Y175991D01*
X66064Y176083D01*
X66011Y176179D01*
X65968Y176276D01*
X65941Y176358D01*
X65928Y176393D01*
X65920Y176424D01*
X65915Y176450D01*
X65911Y176468D01*
X65907Y176481D01*
Y176485D01*
X66278Y176551D01*
X66295Y176455D01*
X66322Y176372D01*
X66352Y176302D01*
X66383Y176245D01*
X66413Y176201D01*
X66440Y176171D01*
X66457Y176149D01*
X66461Y176144D01*
X66518Y176101D01*
X66580Y176066D01*
X66636Y176044D01*
X66693Y176026D01*
X66746Y176018D01*
X66785Y176009D01*
X66820D01*
X66899Y176013D01*
X66968Y176031D01*
X67030Y176053D01*
X67082Y176075D01*
X67121Y176101D01*
X67152Y176122D01*
X67174Y176140D01*
X67178Y176144D01*
X67226Y176197D01*
X67261Y176254D01*
X67283Y176310D01*
X67300Y176363D01*
X67309Y176411D01*
X67318Y176446D01*
Y176472D01*
Y176477D01*
Y176481D01*
Y176529D01*
X67309Y176573D01*
X67287Y176647D01*
X67257Y176713D01*
X67222Y176769D01*
X67187Y176809D01*
X67156Y176839D01*
X67134Y176857D01*
X67130Y176861D01*
X67126D01*
X67051Y176900D01*
X66982Y176931D01*
X66907Y176953D01*
X66842Y176966D01*
X66785Y176975D01*
X66737Y176983D01*
X66680D01*
X66663Y176979D01*
X66641D01*
X66597Y177307D01*
X66654Y177294D01*
X66706Y177285D01*
X66750Y177276D01*
X66789Y177272D01*
X66820Y177268D01*
X66859D01*
X66951Y177276D01*
X67034Y177294D01*
X67108Y177320D01*
X67169Y177350D01*
X67217Y177381D01*
X67252Y177407D01*
X67274Y177425D01*
X67283Y177434D01*
X67340Y177499D01*
X67383Y177569D01*
X67414Y177639D01*
X67432Y177709D01*
X67445Y177766D01*
X67449Y177814D01*
X67453Y177831D01*
Y177844D01*
Y177853D01*
Y177857D01*
X67445Y177954D01*
X67423Y178041D01*
X67397Y178115D01*
X67362Y178181D01*
X67327Y178233D01*
X67300Y178273D01*
X67279Y178299D01*
X67270Y178307D01*
X67200Y178369D01*
X67126Y178412D01*
X67051Y178443D01*
X66982Y178465D01*
X66920Y178478D01*
X66872Y178482D01*
X66855Y178487D01*
X66829D01*
X66750Y178482D01*
X66676Y178465D01*
X66610Y178443D01*
X66558Y178417D01*
X66514Y178395D01*
X66479Y178373D01*
X66461Y178356D01*
X66453Y178351D01*
X66400Y178290D01*
X66357Y178220D01*
X66317Y178146D01*
X66287Y178067D01*
X66265Y178002D01*
X66256Y177971D01*
X66252Y177945D01*
X66247Y177923D01*
X66243Y177905D01*
X66239Y177897D01*
Y177892D01*
X65867Y177940D01*
X65876Y178010D01*
X65889Y178076D01*
X65928Y178198D01*
X65976Y178303D01*
X66003Y178347D01*
X66029Y178391D01*
X66055Y178430D01*
X66081Y178461D01*
X66103Y178491D01*
X66125Y178513D01*
X66138Y178530D01*
X66151Y178543D01*
X66160Y178552D01*
X66164Y178557D01*
X66217Y178596D01*
X66269Y178635D01*
X66322Y178666D01*
X66378Y178692D01*
X66488Y178736D01*
X66593Y178762D01*
X66641Y178771D01*
X66684Y178779D01*
X66724Y178784D01*
X66759Y178788D01*
X66785Y178793D01*
X66824D01*
X66907Y178788D01*
D02*
G37*
G36*
X64556D02*
X64630Y178779D01*
X64705Y178766D01*
X64775Y178749D01*
X64840Y178727D01*
X64897Y178705D01*
X64954Y178679D01*
X65002Y178653D01*
X65050Y178631D01*
X65089Y178605D01*
X65124Y178583D01*
X65150Y178561D01*
X65172Y178543D01*
X65190Y178530D01*
X65198Y178522D01*
X65203Y178517D01*
X65255Y178465D01*
X65299Y178408D01*
X65338Y178351D01*
X65373Y178294D01*
X65400Y178242D01*
X65426Y178185D01*
X65461Y178080D01*
X65469Y178032D01*
X65478Y177989D01*
X65487Y177949D01*
X65491Y177914D01*
X65496Y177888D01*
Y177866D01*
Y177853D01*
Y177849D01*
X65491Y177744D01*
X65474Y177648D01*
X65448Y177565D01*
X65421Y177495D01*
X65395Y177438D01*
X65369Y177394D01*
X65351Y177368D01*
X65347Y177359D01*
X65286Y177294D01*
X65220Y177237D01*
X65150Y177193D01*
X65081Y177158D01*
X65019Y177132D01*
X64971Y177114D01*
X64954Y177110D01*
X64941Y177106D01*
X64932Y177101D01*
X64928D01*
X65002Y177062D01*
X65063Y177023D01*
X65115Y176979D01*
X65159Y176940D01*
X65194Y176905D01*
X65220Y176874D01*
X65233Y176857D01*
X65238Y176848D01*
X65273Y176787D01*
X65299Y176726D01*
X65321Y176664D01*
X65334Y176608D01*
X65343Y176559D01*
X65347Y176525D01*
Y176498D01*
Y176490D01*
X65343Y176415D01*
X65330Y176341D01*
X65312Y176276D01*
X65290Y176219D01*
X65268Y176171D01*
X65251Y176131D01*
X65238Y176109D01*
X65233Y176101D01*
X65190Y176035D01*
X65137Y175978D01*
X65085Y175930D01*
X65033Y175887D01*
X64989Y175856D01*
X64950Y175830D01*
X64923Y175817D01*
X64919Y175812D01*
X64915D01*
X64836Y175777D01*
X64757Y175751D01*
X64679Y175729D01*
X64609Y175716D01*
X64552Y175707D01*
X64504Y175703D01*
X64394D01*
X64333Y175712D01*
X64215Y175734D01*
X64115Y175769D01*
X64027Y175803D01*
X63988Y175825D01*
X63958Y175843D01*
X63927Y175860D01*
X63905Y175878D01*
X63888Y175891D01*
X63874Y175900D01*
X63866Y175904D01*
X63861Y175908D01*
X63778Y175991D01*
X63713Y176083D01*
X63660Y176179D01*
X63617Y176276D01*
X63590Y176358D01*
X63577Y176393D01*
X63569Y176424D01*
X63564Y176450D01*
X63560Y176468D01*
X63555Y176481D01*
Y176485D01*
X63927Y176551D01*
X63944Y176455D01*
X63971Y176372D01*
X64001Y176302D01*
X64032Y176245D01*
X64062Y176201D01*
X64089Y176171D01*
X64106Y176149D01*
X64110Y176144D01*
X64167Y176101D01*
X64228Y176066D01*
X64285Y176044D01*
X64342Y176026D01*
X64394Y176018D01*
X64434Y176009D01*
X64469D01*
X64547Y176013D01*
X64617Y176031D01*
X64679Y176053D01*
X64731Y176075D01*
X64770Y176101D01*
X64801Y176122D01*
X64823Y176140D01*
X64827Y176144D01*
X64875Y176197D01*
X64910Y176254D01*
X64932Y176310D01*
X64950Y176363D01*
X64958Y176411D01*
X64967Y176446D01*
Y176472D01*
Y176477D01*
Y176481D01*
Y176529D01*
X64958Y176573D01*
X64936Y176647D01*
X64906Y176713D01*
X64871Y176769D01*
X64836Y176809D01*
X64805Y176839D01*
X64783Y176857D01*
X64779Y176861D01*
X64775D01*
X64700Y176900D01*
X64630Y176931D01*
X64556Y176953D01*
X64491Y176966D01*
X64434Y176975D01*
X64386Y176983D01*
X64329D01*
X64311Y176979D01*
X64290D01*
X64246Y177307D01*
X64303Y177294D01*
X64355Y177285D01*
X64399Y177276D01*
X64438Y177272D01*
X64469Y177268D01*
X64508D01*
X64600Y177276D01*
X64683Y177294D01*
X64757Y177320D01*
X64818Y177350D01*
X64866Y177381D01*
X64901Y177407D01*
X64923Y177425D01*
X64932Y177434D01*
X64989Y177499D01*
X65033Y177569D01*
X65063Y177639D01*
X65081Y177709D01*
X65094Y177766D01*
X65098Y177814D01*
X65102Y177831D01*
Y177844D01*
Y177853D01*
Y177857D01*
X65094Y177954D01*
X65072Y178041D01*
X65046Y178115D01*
X65011Y178181D01*
X64976Y178233D01*
X64950Y178273D01*
X64928Y178299D01*
X64919Y178307D01*
X64849Y178369D01*
X64775Y178412D01*
X64700Y178443D01*
X64630Y178465D01*
X64569Y178478D01*
X64521Y178482D01*
X64504Y178487D01*
X64477D01*
X64399Y178482D01*
X64324Y178465D01*
X64259Y178443D01*
X64207Y178417D01*
X64163Y178395D01*
X64128Y178373D01*
X64110Y178356D01*
X64102Y178351D01*
X64049Y178290D01*
X64006Y178220D01*
X63966Y178146D01*
X63936Y178067D01*
X63914Y178002D01*
X63905Y177971D01*
X63901Y177945D01*
X63896Y177923D01*
X63892Y177905D01*
X63888Y177897D01*
Y177892D01*
X63516Y177940D01*
X63525Y178010D01*
X63538Y178076D01*
X63577Y178198D01*
X63625Y178303D01*
X63652Y178347D01*
X63678Y178391D01*
X63704Y178430D01*
X63730Y178461D01*
X63752Y178491D01*
X63774Y178513D01*
X63787Y178530D01*
X63800Y178543D01*
X63809Y178552D01*
X63813Y178557D01*
X63866Y178596D01*
X63918Y178635D01*
X63971Y178666D01*
X64027Y178692D01*
X64137Y178736D01*
X64241Y178762D01*
X64290Y178771D01*
X64333Y178779D01*
X64373Y178784D01*
X64408Y178788D01*
X64434Y178793D01*
X64473D01*
X64556Y178788D01*
D02*
G37*
G36*
X62292D02*
X62384Y178771D01*
X62467Y178753D01*
X62542Y178727D01*
X62598Y178705D01*
X62642Y178683D01*
X62660Y178679D01*
X62673Y178670D01*
X62677Y178666D01*
X62681D01*
X62756Y178613D01*
X62826Y178552D01*
X62882Y178491D01*
X62931Y178430D01*
X62970Y178373D01*
X62996Y178329D01*
X63005Y178312D01*
X63013Y178299D01*
X63018Y178294D01*
Y178290D01*
X63062Y178198D01*
X63092Y178102D01*
X63114Y178015D01*
X63127Y177932D01*
X63140Y177862D01*
Y177836D01*
X63145Y177809D01*
Y177787D01*
Y177774D01*
Y177766D01*
Y177761D01*
X63140Y177683D01*
X63131Y177608D01*
X63118Y177534D01*
X63105Y177469D01*
X63083Y177407D01*
X63062Y177346D01*
X63040Y177294D01*
X63013Y177246D01*
X62987Y177202D01*
X62966Y177163D01*
X62944Y177132D01*
X62922Y177101D01*
X62909Y177080D01*
X62896Y177067D01*
X62887Y177058D01*
X62882Y177053D01*
X62834Y177005D01*
X62782Y176962D01*
X62725Y176927D01*
X62673Y176896D01*
X62620Y176865D01*
X62568Y176844D01*
X62467Y176813D01*
X62424Y176800D01*
X62380Y176791D01*
X62345Y176787D01*
X62310Y176782D01*
X62284Y176778D01*
X62249D01*
X62170Y176782D01*
X62096Y176795D01*
X62026Y176809D01*
X61965Y176826D01*
X61912Y176848D01*
X61873Y176861D01*
X61847Y176874D01*
X61842Y176878D01*
X61838D01*
X61768Y176922D01*
X61707Y176970D01*
X61650Y177018D01*
X61606Y177071D01*
X61567Y177114D01*
X61537Y177149D01*
X61519Y177176D01*
X61515Y177180D01*
Y177101D01*
X61519Y177023D01*
X61523Y176953D01*
X61532Y176883D01*
X61537Y176822D01*
X61545Y176765D01*
X61554Y176713D01*
X61567Y176664D01*
X61576Y176621D01*
X61585Y176586D01*
X61593Y176555D01*
X61598Y176529D01*
X61606Y176512D01*
X61611Y176498D01*
X61615Y176490D01*
Y176485D01*
X61659Y176398D01*
X61703Y176319D01*
X61751Y176258D01*
X61794Y176206D01*
X61834Y176162D01*
X61864Y176131D01*
X61886Y176114D01*
X61895Y176109D01*
X61947Y176075D01*
X62000Y176053D01*
X62052Y176035D01*
X62105Y176022D01*
X62144Y176013D01*
X62179Y176009D01*
X62209D01*
X62288Y176018D01*
X62362Y176035D01*
X62424Y176061D01*
X62480Y176088D01*
X62524Y176118D01*
X62555Y176144D01*
X62572Y176162D01*
X62581Y176171D01*
X62612Y176210D01*
X62642Y176258D01*
X62668Y176310D01*
X62686Y176363D01*
X62703Y176411D01*
X62716Y176450D01*
X62721Y176477D01*
X62725Y176481D01*
Y176485D01*
X63097Y176455D01*
X63070Y176332D01*
X63031Y176223D01*
X62987Y176127D01*
X62939Y176048D01*
X62891Y175987D01*
X62874Y175961D01*
X62852Y175939D01*
X62839Y175926D01*
X62826Y175913D01*
X62821Y175908D01*
X62817Y175904D01*
X62773Y175869D01*
X62725Y175838D01*
X62629Y175786D01*
X62533Y175751D01*
X62441Y175729D01*
X62358Y175712D01*
X62323Y175707D01*
X62292D01*
X62266Y175703D01*
X62231D01*
X62144Y175707D01*
X62061Y175716D01*
X61982Y175734D01*
X61908Y175755D01*
X61842Y175786D01*
X61777Y175812D01*
X61720Y175847D01*
X61668Y175878D01*
X61624Y175908D01*
X61580Y175943D01*
X61545Y175970D01*
X61519Y175996D01*
X61497Y176022D01*
X61480Y176040D01*
X61471Y176048D01*
X61467Y176053D01*
X61410Y176131D01*
X61362Y176223D01*
X61318Y176319D01*
X61279Y176420D01*
X61248Y176525D01*
X61222Y176629D01*
X61200Y176739D01*
X61182Y176839D01*
X61169Y176940D01*
X61161Y177032D01*
X61152Y177114D01*
X61148Y177184D01*
Y177246D01*
X61143Y177289D01*
Y177307D01*
Y177320D01*
Y177324D01*
Y177329D01*
X61148Y177469D01*
X61156Y177600D01*
X61169Y177722D01*
X61191Y177836D01*
X61213Y177936D01*
X61235Y178028D01*
X61261Y178111D01*
X61292Y178185D01*
X61318Y178246D01*
X61344Y178303D01*
X61366Y178347D01*
X61392Y178386D01*
X61410Y178417D01*
X61423Y178434D01*
X61432Y178447D01*
X61436Y178452D01*
X61493Y178513D01*
X61554Y178565D01*
X61615Y178609D01*
X61676Y178648D01*
X61742Y178683D01*
X61803Y178710D01*
X61864Y178731D01*
X61925Y178749D01*
X61978Y178762D01*
X62030Y178775D01*
X62074Y178784D01*
X62113Y178788D01*
X62148D01*
X62170Y178793D01*
X62192D01*
X62292Y178788D01*
D02*
G37*
G36*
X91143Y57865D02*
X91296Y57848D01*
X91432Y57826D01*
X91497Y57809D01*
X91554Y57795D01*
X91606Y57782D01*
X91654Y57765D01*
X91698Y57752D01*
X91733Y57743D01*
X91759Y57730D01*
X91781Y57725D01*
X91794Y57717D01*
X91799D01*
X91930Y57651D01*
X92048Y57577D01*
X92148Y57498D01*
X92188Y57459D01*
X92227Y57424D01*
X92262Y57389D01*
X92292Y57354D01*
X92319Y57323D01*
X92336Y57297D01*
X92354Y57280D01*
X92367Y57262D01*
X92371Y57253D01*
X92375Y57249D01*
X92410Y57188D01*
X92441Y57127D01*
X92489Y56996D01*
X92524Y56865D01*
X92546Y56738D01*
X92555Y56677D01*
X92563Y56624D01*
X92568Y56576D01*
Y56537D01*
X92572Y56502D01*
Y56454D01*
X92568Y56366D01*
X92559Y56283D01*
X92550Y56205D01*
X92533Y56130D01*
X92511Y56060D01*
X92489Y55995D01*
X92467Y55934D01*
X92441Y55877D01*
X92419Y55829D01*
X92397Y55781D01*
X92375Y55746D01*
X92354Y55711D01*
X92336Y55689D01*
X92327Y55667D01*
X92319Y55658D01*
X92314Y55654D01*
X92262Y55593D01*
X92209Y55540D01*
X92148Y55492D01*
X92087Y55444D01*
X91965Y55366D01*
X91842Y55304D01*
X91786Y55278D01*
X91733Y55256D01*
X91685Y55239D01*
X91646Y55226D01*
X91611Y55213D01*
X91584Y55204D01*
X91567Y55200D01*
X91563D01*
X91462Y55602D01*
X91532Y55619D01*
X91598Y55641D01*
X91659Y55663D01*
X91716Y55685D01*
X91768Y55711D01*
X91812Y55737D01*
X91855Y55768D01*
X91895Y55794D01*
X91930Y55816D01*
X91956Y55842D01*
X91982Y55864D01*
X92004Y55881D01*
X92017Y55899D01*
X92030Y55912D01*
X92035Y55916D01*
X92039Y55921D01*
X92074Y55964D01*
X92100Y56012D01*
X92148Y56108D01*
X92183Y56200D01*
X92205Y56292D01*
X92222Y56371D01*
X92227Y56401D01*
Y56432D01*
X92231Y56458D01*
Y56489D01*
X92227Y56589D01*
X92209Y56685D01*
X92188Y56773D01*
X92161Y56851D01*
X92135Y56913D01*
X92122Y56939D01*
X92113Y56961D01*
X92105Y56978D01*
X92096Y56991D01*
X92091Y57000D01*
Y57004D01*
X92030Y57087D01*
X91965Y57157D01*
X91890Y57218D01*
X91821Y57267D01*
X91759Y57306D01*
X91707Y57332D01*
X91685Y57341D01*
X91672Y57350D01*
X91663Y57354D01*
X91659D01*
X91545Y57389D01*
X91432Y57415D01*
X91318Y57437D01*
X91213Y57450D01*
X91165Y57455D01*
X91121Y57459D01*
X91082D01*
X91051Y57463D01*
X91025D01*
X91003D01*
X90990D01*
X90986D01*
X90872Y57459D01*
X90767Y57450D01*
X90671Y57433D01*
X90584Y57415D01*
X90509Y57402D01*
X90479Y57393D01*
X90453Y57385D01*
X90431Y57380D01*
X90418Y57376D01*
X90409Y57371D01*
X90405D01*
X90304Y57328D01*
X90212Y57280D01*
X90138Y57227D01*
X90073Y57170D01*
X90020Y57122D01*
X89985Y57083D01*
X89963Y57052D01*
X89955Y57048D01*
Y57044D01*
X89898Y56952D01*
X89854Y56851D01*
X89823Y56755D01*
X89806Y56664D01*
X89793Y56581D01*
X89788Y56546D01*
Y56515D01*
X89784Y56493D01*
Y56458D01*
X89788Y56349D01*
X89806Y56248D01*
X89832Y56165D01*
X89858Y56091D01*
X89889Y56034D01*
X89911Y55990D01*
X89928Y55964D01*
X89937Y55956D01*
X90003Y55886D01*
X90077Y55820D01*
X90156Y55768D01*
X90234Y55724D01*
X90304Y55689D01*
X90339Y55676D01*
X90365Y55667D01*
X90387Y55658D01*
X90405Y55650D01*
X90413Y55645D01*
X90418D01*
X90326Y55252D01*
X90247Y55278D01*
X90177Y55304D01*
X90112Y55339D01*
X90046Y55370D01*
X89990Y55405D01*
X89937Y55444D01*
X89885Y55479D01*
X89841Y55514D01*
X89806Y55549D01*
X89771Y55580D01*
X89740Y55610D01*
X89719Y55632D01*
X89697Y55654D01*
X89684Y55672D01*
X89679Y55680D01*
X89675Y55685D01*
X89635Y55746D01*
X89596Y55807D01*
X89566Y55868D01*
X89539Y55934D01*
X89500Y56065D01*
X89474Y56183D01*
X89461Y56240D01*
X89456Y56288D01*
X89452Y56336D01*
X89448Y56375D01*
X89443Y56406D01*
Y56449D01*
X89452Y56594D01*
X89474Y56734D01*
X89500Y56856D01*
X89517Y56913D01*
X89535Y56965D01*
X89552Y57013D01*
X89570Y57057D01*
X89583Y57092D01*
X89596Y57127D01*
X89609Y57149D01*
X89618Y57166D01*
X89622Y57179D01*
X89627Y57184D01*
X89701Y57301D01*
X89788Y57402D01*
X89876Y57490D01*
X89963Y57564D01*
X90042Y57621D01*
X90077Y57642D01*
X90107Y57660D01*
X90129Y57677D01*
X90147Y57686D01*
X90160Y57691D01*
X90164Y57695D01*
X90300Y57756D01*
X90440Y57800D01*
X90579Y57830D01*
X90706Y57852D01*
X90763Y57861D01*
X90820Y57865D01*
X90864Y57870D01*
X90907D01*
X90938Y57874D01*
X90964D01*
X90981D01*
X90986D01*
X91143Y57865D01*
D02*
G37*
G36*
X92520Y52905D02*
X92161D01*
Y54396D01*
X92087Y54343D01*
X92057Y54317D01*
X92026Y54295D01*
X92000Y54273D01*
X91982Y54256D01*
X91969Y54243D01*
X91965Y54238D01*
X91943Y54216D01*
X91921Y54190D01*
X91864Y54129D01*
X91799Y54059D01*
X91733Y53985D01*
X91676Y53915D01*
X91650Y53884D01*
X91624Y53858D01*
X91606Y53836D01*
X91593Y53819D01*
X91584Y53810D01*
X91580Y53806D01*
X91519Y53736D01*
X91462Y53666D01*
X91405Y53605D01*
X91357Y53548D01*
X91309Y53495D01*
X91265Y53452D01*
X91226Y53408D01*
X91191Y53373D01*
X91156Y53338D01*
X91130Y53312D01*
X91108Y53290D01*
X91086Y53268D01*
X91060Y53246D01*
X91051Y53237D01*
X90977Y53176D01*
X90912Y53124D01*
X90846Y53080D01*
X90794Y53045D01*
X90746Y53019D01*
X90711Y53001D01*
X90689Y52993D01*
X90680Y52988D01*
X90614Y52962D01*
X90549Y52945D01*
X90488Y52927D01*
X90435Y52918D01*
X90387Y52914D01*
X90352Y52910D01*
X90330D01*
X90322D01*
X90256Y52914D01*
X90195Y52923D01*
X90134Y52932D01*
X90081Y52949D01*
X89976Y52993D01*
X89893Y53036D01*
X89854Y53063D01*
X89823Y53084D01*
X89793Y53106D01*
X89771Y53128D01*
X89754Y53146D01*
X89736Y53154D01*
X89732Y53163D01*
X89727Y53167D01*
X89684Y53216D01*
X89644Y53268D01*
X89614Y53325D01*
X89587Y53382D01*
X89544Y53495D01*
X89513Y53609D01*
X89504Y53657D01*
X89496Y53705D01*
X89491Y53749D01*
X89487Y53784D01*
X89482Y53814D01*
Y53858D01*
X89487Y53937D01*
X89491Y54011D01*
X89504Y54081D01*
X89517Y54146D01*
X89535Y54208D01*
X89552Y54264D01*
X89574Y54317D01*
X89596Y54365D01*
X89618Y54409D01*
X89640Y54444D01*
X89657Y54474D01*
X89675Y54500D01*
X89688Y54522D01*
X89701Y54535D01*
X89705Y54544D01*
X89710Y54549D01*
X89754Y54592D01*
X89802Y54632D01*
X89854Y54671D01*
X89906Y54701D01*
X90011Y54754D01*
X90116Y54789D01*
X90164Y54802D01*
X90212Y54815D01*
X90252Y54824D01*
X90287Y54833D01*
X90317Y54837D01*
X90339D01*
X90352Y54841D01*
X90356D01*
X90396Y54461D01*
X90295Y54452D01*
X90208Y54435D01*
X90129Y54409D01*
X90068Y54378D01*
X90016Y54352D01*
X89981Y54326D01*
X89959Y54308D01*
X89950Y54299D01*
X89898Y54234D01*
X89858Y54164D01*
X89828Y54090D01*
X89810Y54024D01*
X89797Y53963D01*
X89793Y53910D01*
X89788Y53893D01*
Y53867D01*
X89793Y53775D01*
X89810Y53692D01*
X89837Y53622D01*
X89863Y53561D01*
X89893Y53513D01*
X89915Y53482D01*
X89933Y53460D01*
X89941Y53452D01*
X90003Y53399D01*
X90064Y53360D01*
X90125Y53329D01*
X90186Y53312D01*
X90234Y53299D01*
X90278Y53294D01*
X90304Y53290D01*
X90308D01*
X90313D01*
X90391Y53299D01*
X90474Y53316D01*
X90549Y53347D01*
X90619Y53377D01*
X90675Y53412D01*
X90724Y53443D01*
X90741Y53452D01*
X90754Y53460D01*
X90759Y53469D01*
X90763D01*
X90811Y53504D01*
X90859Y53548D01*
X90912Y53596D01*
X90964Y53648D01*
X91069Y53758D01*
X91174Y53867D01*
X91222Y53923D01*
X91265Y53972D01*
X91305Y54020D01*
X91340Y54059D01*
X91366Y54090D01*
X91388Y54116D01*
X91401Y54133D01*
X91405Y54138D01*
X91497Y54247D01*
X91584Y54347D01*
X91663Y54431D01*
X91729Y54496D01*
X91786Y54553D01*
X91825Y54592D01*
X91851Y54614D01*
X91855Y54623D01*
X91860D01*
X91934Y54684D01*
X92004Y54732D01*
X92074Y54776D01*
X92135Y54811D01*
X92188Y54837D01*
X92227Y54854D01*
X92253Y54863D01*
X92257Y54868D01*
X92262D01*
X92310Y54885D01*
X92354Y54894D01*
X92397Y54902D01*
X92437Y54907D01*
X92472Y54911D01*
X92498D01*
X92515D01*
X92520D01*
Y52905D01*
D02*
G37*
G36*
Y50554D02*
X92161D01*
Y52044D01*
X92087Y51992D01*
X92057Y51966D01*
X92026Y51944D01*
X92000Y51922D01*
X91982Y51905D01*
X91969Y51891D01*
X91965Y51887D01*
X91943Y51865D01*
X91921Y51839D01*
X91864Y51778D01*
X91799Y51708D01*
X91733Y51634D01*
X91676Y51564D01*
X91650Y51533D01*
X91624Y51507D01*
X91606Y51485D01*
X91593Y51468D01*
X91584Y51459D01*
X91580Y51455D01*
X91519Y51385D01*
X91462Y51315D01*
X91405Y51253D01*
X91357Y51197D01*
X91309Y51144D01*
X91265Y51100D01*
X91226Y51057D01*
X91191Y51022D01*
X91156Y50987D01*
X91130Y50961D01*
X91108Y50939D01*
X91086Y50917D01*
X91060Y50895D01*
X91051Y50886D01*
X90977Y50825D01*
X90912Y50773D01*
X90846Y50729D01*
X90794Y50694D01*
X90746Y50668D01*
X90711Y50650D01*
X90689Y50642D01*
X90680Y50637D01*
X90614Y50611D01*
X90549Y50594D01*
X90488Y50576D01*
X90435Y50567D01*
X90387Y50563D01*
X90352Y50559D01*
X90330D01*
X90322D01*
X90256Y50563D01*
X90195Y50572D01*
X90134Y50581D01*
X90081Y50598D01*
X89976Y50642D01*
X89893Y50685D01*
X89854Y50712D01*
X89823Y50733D01*
X89793Y50755D01*
X89771Y50777D01*
X89754Y50795D01*
X89736Y50803D01*
X89732Y50812D01*
X89727Y50817D01*
X89684Y50864D01*
X89644Y50917D01*
X89614Y50974D01*
X89587Y51031D01*
X89544Y51144D01*
X89513Y51258D01*
X89504Y51306D01*
X89496Y51354D01*
X89491Y51398D01*
X89487Y51433D01*
X89482Y51463D01*
Y51507D01*
X89487Y51586D01*
X89491Y51660D01*
X89504Y51730D01*
X89517Y51795D01*
X89535Y51856D01*
X89552Y51913D01*
X89574Y51966D01*
X89596Y52014D01*
X89618Y52058D01*
X89640Y52092D01*
X89657Y52123D01*
X89675Y52149D01*
X89688Y52171D01*
X89701Y52184D01*
X89705Y52193D01*
X89710Y52197D01*
X89754Y52241D01*
X89802Y52280D01*
X89854Y52320D01*
X89906Y52350D01*
X90011Y52403D01*
X90116Y52438D01*
X90164Y52451D01*
X90212Y52464D01*
X90252Y52473D01*
X90287Y52481D01*
X90317Y52486D01*
X90339D01*
X90352Y52490D01*
X90356D01*
X90396Y52110D01*
X90295Y52101D01*
X90208Y52084D01*
X90129Y52058D01*
X90068Y52027D01*
X90016Y52001D01*
X89981Y51974D01*
X89959Y51957D01*
X89950Y51948D01*
X89898Y51883D01*
X89858Y51813D01*
X89828Y51739D01*
X89810Y51673D01*
X89797Y51612D01*
X89793Y51559D01*
X89788Y51542D01*
Y51516D01*
X89793Y51424D01*
X89810Y51341D01*
X89837Y51271D01*
X89863Y51210D01*
X89893Y51162D01*
X89915Y51131D01*
X89933Y51109D01*
X89941Y51100D01*
X90003Y51048D01*
X90064Y51009D01*
X90125Y50978D01*
X90186Y50961D01*
X90234Y50948D01*
X90278Y50943D01*
X90304Y50939D01*
X90308D01*
X90313D01*
X90391Y50948D01*
X90474Y50965D01*
X90549Y50996D01*
X90619Y51026D01*
X90675Y51061D01*
X90724Y51092D01*
X90741Y51100D01*
X90754Y51109D01*
X90759Y51118D01*
X90763D01*
X90811Y51153D01*
X90859Y51197D01*
X90912Y51245D01*
X90964Y51297D01*
X91069Y51406D01*
X91174Y51516D01*
X91222Y51573D01*
X91265Y51621D01*
X91305Y51669D01*
X91340Y51708D01*
X91366Y51739D01*
X91388Y51765D01*
X91401Y51782D01*
X91405Y51787D01*
X91497Y51896D01*
X91584Y51996D01*
X91663Y52079D01*
X91729Y52145D01*
X91786Y52202D01*
X91825Y52241D01*
X91851Y52263D01*
X91855Y52272D01*
X91860D01*
X91934Y52333D01*
X92004Y52381D01*
X92074Y52425D01*
X92135Y52460D01*
X92188Y52486D01*
X92227Y52503D01*
X92253Y52512D01*
X92257Y52516D01*
X92262D01*
X92310Y52534D01*
X92354Y52543D01*
X92397Y52551D01*
X92437Y52556D01*
X92472Y52560D01*
X92498D01*
X92515D01*
X92520D01*
Y50554D01*
D02*
G37*
G36*
X91183Y50152D02*
X91327Y50143D01*
X91458Y50130D01*
X91580Y50108D01*
X91694Y50087D01*
X91794Y50060D01*
X91886Y50034D01*
X91965Y50008D01*
X92035Y49982D01*
X92096Y49951D01*
X92148Y49929D01*
X92188Y49907D01*
X92222Y49886D01*
X92244Y49873D01*
X92257Y49864D01*
X92262Y49859D01*
X92314Y49811D01*
X92362Y49759D01*
X92406Y49702D01*
X92441Y49645D01*
X92472Y49589D01*
X92498Y49532D01*
X92515Y49475D01*
X92533Y49422D01*
X92546Y49370D01*
X92555Y49322D01*
X92563Y49278D01*
X92568Y49243D01*
X92572Y49213D01*
Y49169D01*
X92563Y49051D01*
X92546Y48942D01*
X92515Y48850D01*
X92485Y48771D01*
X92454Y48706D01*
X92437Y48684D01*
X92424Y48662D01*
X92415Y48645D01*
X92406Y48632D01*
X92397Y48627D01*
Y48623D01*
X92323Y48544D01*
X92244Y48478D01*
X92157Y48422D01*
X92078Y48378D01*
X92004Y48343D01*
X91973Y48326D01*
X91943Y48317D01*
X91921Y48308D01*
X91904Y48299D01*
X91895Y48295D01*
X91890D01*
X91825Y48273D01*
X91759Y48256D01*
X91619Y48229D01*
X91475Y48208D01*
X91335Y48195D01*
X91274Y48190D01*
X91217Y48186D01*
X91165D01*
X91117Y48181D01*
X91082D01*
X91051D01*
X91034D01*
X91030D01*
X90947D01*
X90868Y48186D01*
X90798D01*
X90728Y48190D01*
X90667Y48199D01*
X90606Y48203D01*
X90553Y48208D01*
X90505Y48216D01*
X90461Y48221D01*
X90422Y48229D01*
X90391Y48234D01*
X90365Y48238D01*
X90343Y48243D01*
X90330Y48247D01*
X90322Y48251D01*
X90317D01*
X90221Y48278D01*
X90134Y48308D01*
X90059Y48343D01*
X89994Y48369D01*
X89937Y48400D01*
X89898Y48417D01*
X89876Y48435D01*
X89867Y48439D01*
X89802Y48487D01*
X89745Y48535D01*
X89697Y48588D01*
X89653Y48636D01*
X89622Y48680D01*
X89600Y48715D01*
X89587Y48736D01*
X89583Y48741D01*
Y48745D01*
X89548Y48815D01*
X89526Y48889D01*
X89509Y48959D01*
X89496Y49025D01*
X89487Y49082D01*
X89482Y49130D01*
Y49169D01*
X89491Y49287D01*
X89509Y49396D01*
X89539Y49488D01*
X89570Y49567D01*
X89605Y49632D01*
X89618Y49658D01*
X89635Y49680D01*
X89644Y49698D01*
X89653Y49711D01*
X89662Y49715D01*
Y49720D01*
X89732Y49798D01*
X89815Y49864D01*
X89898Y49921D01*
X89976Y49964D01*
X90051Y49999D01*
X90081Y50017D01*
X90112Y50025D01*
X90134Y50034D01*
X90151Y50043D01*
X90160Y50047D01*
X90164D01*
X90230Y50065D01*
X90295Y50082D01*
X90440Y50108D01*
X90584Y50130D01*
X90719Y50143D01*
X90785Y50148D01*
X90842Y50152D01*
X90894D01*
X90942Y50157D01*
X90977D01*
X91008D01*
X91025D01*
X91030D01*
X91183Y50152D01*
D02*
G37*
G36*
X70079Y56392D02*
X70074Y56292D01*
X70070Y56200D01*
X70061Y56117D01*
X70052Y56047D01*
X70044Y55986D01*
X70039Y55942D01*
X70035Y55929D01*
X70031Y55916D01*
Y55907D01*
X70009Y55828D01*
X69983Y55759D01*
X69961Y55697D01*
X69934Y55645D01*
X69913Y55601D01*
X69895Y55571D01*
X69882Y55553D01*
X69878Y55544D01*
X69838Y55488D01*
X69790Y55440D01*
X69747Y55392D01*
X69703Y55352D01*
X69664Y55317D01*
X69633Y55291D01*
X69611Y55273D01*
X69602Y55269D01*
X69533Y55225D01*
X69458Y55182D01*
X69388Y55147D01*
X69318Y55120D01*
X69257Y55094D01*
X69209Y55077D01*
X69192Y55072D01*
X69178Y55068D01*
X69170Y55064D01*
X69165D01*
X69060Y55037D01*
X68956Y55016D01*
X68855Y55002D01*
X68759Y54989D01*
X68676Y54985D01*
X68641D01*
X68610Y54981D01*
X68589D01*
X68567D01*
X68558D01*
X68554D01*
X68405Y54985D01*
X68270Y54998D01*
X68147Y55020D01*
X68090Y55029D01*
X68042Y55042D01*
X67994Y55055D01*
X67955Y55064D01*
X67920Y55072D01*
X67889Y55086D01*
X67863Y55090D01*
X67846Y55099D01*
X67837Y55103D01*
X67833D01*
X67719Y55151D01*
X67618Y55208D01*
X67531Y55269D01*
X67457Y55326D01*
X67396Y55378D01*
X67352Y55422D01*
X67339Y55440D01*
X67326Y55453D01*
X67321Y55457D01*
X67317Y55461D01*
X67260Y55531D01*
X67216Y55606D01*
X67177Y55680D01*
X67146Y55750D01*
X67125Y55811D01*
X67111Y55859D01*
X67103Y55876D01*
Y55890D01*
X67098Y55898D01*
Y55903D01*
X67085Y55977D01*
X67072Y56064D01*
X67063Y56152D01*
X67059Y56239D01*
X67055Y56318D01*
Y57480D01*
X70079D01*
Y56392D01*
D02*
G37*
G36*
Y52630D02*
X69720D01*
Y54120D01*
X69646Y54067D01*
X69616Y54041D01*
X69585Y54019D01*
X69559Y53997D01*
X69541Y53980D01*
X69528Y53967D01*
X69524Y53962D01*
X69502Y53941D01*
X69480Y53914D01*
X69423Y53853D01*
X69358Y53783D01*
X69292Y53709D01*
X69235Y53639D01*
X69209Y53609D01*
X69183Y53582D01*
X69165Y53560D01*
X69152Y53543D01*
X69144Y53534D01*
X69139Y53530D01*
X69078Y53460D01*
X69021Y53390D01*
X68964Y53329D01*
X68916Y53272D01*
X68868Y53220D01*
X68824Y53176D01*
X68785Y53132D01*
X68750Y53097D01*
X68715Y53062D01*
X68689Y53036D01*
X68667Y53014D01*
X68645Y52992D01*
X68619Y52970D01*
X68610Y52962D01*
X68536Y52901D01*
X68471Y52848D01*
X68405Y52804D01*
X68353Y52770D01*
X68305Y52743D01*
X68270Y52726D01*
X68248Y52717D01*
X68239Y52713D01*
X68173Y52686D01*
X68108Y52669D01*
X68047Y52652D01*
X67994Y52643D01*
X67946Y52638D01*
X67911Y52634D01*
X67889D01*
X67881D01*
X67815Y52638D01*
X67754Y52647D01*
X67693Y52656D01*
X67640Y52673D01*
X67535Y52717D01*
X67452Y52761D01*
X67413Y52787D01*
X67382Y52809D01*
X67352Y52831D01*
X67330Y52852D01*
X67313Y52870D01*
X67295Y52879D01*
X67291Y52887D01*
X67286Y52892D01*
X67243Y52940D01*
X67203Y52992D01*
X67173Y53049D01*
X67146Y53106D01*
X67103Y53220D01*
X67072Y53333D01*
X67063Y53381D01*
X67055Y53429D01*
X67050Y53473D01*
X67046Y53508D01*
X67042Y53539D01*
Y53582D01*
X67046Y53661D01*
X67050Y53735D01*
X67063Y53805D01*
X67076Y53871D01*
X67094Y53932D01*
X67111Y53989D01*
X67133Y54041D01*
X67155Y54089D01*
X67177Y54133D01*
X67199Y54168D01*
X67216Y54198D01*
X67234Y54225D01*
X67247Y54246D01*
X67260Y54260D01*
X67264Y54268D01*
X67269Y54273D01*
X67313Y54316D01*
X67361Y54356D01*
X67413Y54395D01*
X67466Y54426D01*
X67570Y54478D01*
X67675Y54513D01*
X67723Y54526D01*
X67771Y54539D01*
X67811Y54548D01*
X67846Y54557D01*
X67876Y54561D01*
X67898D01*
X67911Y54566D01*
X67916D01*
X67955Y54185D01*
X67854Y54177D01*
X67767Y54159D01*
X67688Y54133D01*
X67627Y54102D01*
X67575Y54076D01*
X67540Y54050D01*
X67518Y54032D01*
X67509Y54024D01*
X67457Y53958D01*
X67417Y53888D01*
X67387Y53814D01*
X67369Y53748D01*
X67356Y53687D01*
X67352Y53635D01*
X67348Y53617D01*
Y53591D01*
X67352Y53499D01*
X67369Y53416D01*
X67396Y53346D01*
X67422Y53285D01*
X67452Y53237D01*
X67474Y53206D01*
X67492Y53185D01*
X67500Y53176D01*
X67562Y53123D01*
X67623Y53084D01*
X67684Y53053D01*
X67745Y53036D01*
X67793Y53023D01*
X67837Y53019D01*
X67863Y53014D01*
X67867D01*
X67872D01*
X67950Y53023D01*
X68034Y53040D01*
X68108Y53071D01*
X68178Y53102D01*
X68235Y53136D01*
X68283Y53167D01*
X68300Y53176D01*
X68313Y53185D01*
X68318Y53193D01*
X68322D01*
X68370Y53228D01*
X68418Y53272D01*
X68471Y53320D01*
X68523Y53373D01*
X68628Y53482D01*
X68733Y53591D01*
X68781Y53648D01*
X68824Y53696D01*
X68864Y53744D01*
X68899Y53783D01*
X68925Y53814D01*
X68947Y53840D01*
X68960Y53858D01*
X68964Y53862D01*
X69056Y53971D01*
X69144Y54072D01*
X69222Y54155D01*
X69288Y54220D01*
X69345Y54277D01*
X69384Y54316D01*
X69410Y54338D01*
X69415Y54347D01*
X69419D01*
X69493Y54408D01*
X69563Y54456D01*
X69633Y54500D01*
X69694Y54535D01*
X69747Y54561D01*
X69786Y54579D01*
X69812Y54587D01*
X69816Y54592D01*
X69821D01*
X69869Y54609D01*
X69913Y54618D01*
X69956Y54627D01*
X69996Y54631D01*
X70031Y54636D01*
X70057D01*
X70074D01*
X70079D01*
Y52630D01*
D02*
G37*
G36*
X68134Y51882D02*
X68103Y51817D01*
X68073Y51751D01*
X68042Y51690D01*
X68016Y51638D01*
X67994Y51594D01*
X67977Y51568D01*
X67972Y51563D01*
Y51559D01*
X67924Y51480D01*
X67876Y51410D01*
X67833Y51349D01*
X67793Y51301D01*
X67763Y51257D01*
X67736Y51231D01*
X67719Y51209D01*
X67715Y51205D01*
X70079D01*
Y50834D01*
X67042D01*
Y51074D01*
X67116Y51118D01*
X67186Y51166D01*
X67256Y51222D01*
X67317Y51275D01*
X67369Y51327D01*
X67413Y51367D01*
X67426Y51384D01*
X67439Y51397D01*
X67444Y51402D01*
X67448Y51406D01*
X67522Y51498D01*
X67592Y51590D01*
X67653Y51677D01*
X67702Y51764D01*
X67745Y51839D01*
X67763Y51869D01*
X67776Y51895D01*
X67789Y51917D01*
X67793Y51935D01*
X67802Y51943D01*
Y51948D01*
X68160D01*
X68134Y51882D01*
D02*
G37*
G36*
Y49531D02*
X68103Y49466D01*
X68073Y49400D01*
X68042Y49339D01*
X68016Y49287D01*
X67994Y49243D01*
X67977Y49217D01*
X67972Y49212D01*
Y49208D01*
X67924Y49129D01*
X67876Y49059D01*
X67833Y48998D01*
X67793Y48950D01*
X67763Y48906D01*
X67736Y48880D01*
X67719Y48858D01*
X67715Y48854D01*
X70079D01*
Y48482D01*
X67042D01*
Y48723D01*
X67116Y48766D01*
X67186Y48815D01*
X67256Y48871D01*
X67317Y48924D01*
X67369Y48976D01*
X67413Y49016D01*
X67426Y49033D01*
X67439Y49046D01*
X67444Y49051D01*
X67448Y49055D01*
X67522Y49147D01*
X67592Y49238D01*
X67653Y49326D01*
X67702Y49413D01*
X67745Y49488D01*
X67763Y49518D01*
X67776Y49544D01*
X67789Y49566D01*
X67793Y49584D01*
X67802Y49593D01*
Y49597D01*
X68160D01*
X68134Y49531D01*
D02*
G37*
%LPC*%
G36*
X84373Y166030D02*
X83473D01*
Y165029D01*
X84426D01*
X84544Y165033D01*
X84644Y165051D01*
X84732Y165073D01*
X84797Y165099D01*
X84854Y165125D01*
X84889Y165147D01*
X84911Y165164D01*
X84919Y165169D01*
X84972Y165226D01*
X85011Y165282D01*
X85037Y165344D01*
X85059Y165396D01*
X85068Y165448D01*
X85072Y165488D01*
X85077Y165514D01*
Y165518D01*
Y165523D01*
X85072Y165575D01*
X85064Y165628D01*
X85050Y165671D01*
X85037Y165711D01*
X85020Y165746D01*
X85007Y165772D01*
X84998Y165789D01*
X84994Y165794D01*
X84963Y165837D01*
X84924Y165877D01*
X84884Y165907D01*
X84845Y165934D01*
X84810Y165951D01*
X84784Y165964D01*
X84766Y165973D01*
X84758Y165977D01*
X84697Y165995D01*
X84627Y166008D01*
X84557Y166017D01*
X84487Y166021D01*
X84426Y166025D01*
X84373Y166030D01*
D02*
G37*
G36*
X87013Y167463D02*
X86991D01*
X86930Y167459D01*
X86873Y167450D01*
X86820Y167432D01*
X86777Y167415D01*
X86737Y167402D01*
X86707Y167384D01*
X86689Y167376D01*
X86681Y167371D01*
X86628Y167332D01*
X86584Y167293D01*
X86545Y167245D01*
X86514Y167205D01*
X86488Y167166D01*
X86471Y167135D01*
X86458Y167113D01*
X86453Y167105D01*
X86427Y167039D01*
X86410Y166974D01*
X86392Y166912D01*
X86383Y166856D01*
X86379Y166808D01*
X86375Y166768D01*
Y166746D01*
Y166738D01*
X86383Y166633D01*
X86401Y166541D01*
X86431Y166458D01*
X86462Y166392D01*
X86493Y166336D01*
X86523Y166296D01*
X86541Y166274D01*
X86549Y166266D01*
X86619Y166205D01*
X86689Y166161D01*
X86764Y166126D01*
X86829Y166104D01*
X86890Y166091D01*
X86934Y166086D01*
X86951Y166082D01*
X86978D01*
X87069Y166091D01*
X87152Y166113D01*
X87222Y166139D01*
X87284Y166174D01*
X87332Y166209D01*
X87367Y166235D01*
X87388Y166257D01*
X87397Y166266D01*
X87454Y166340D01*
X87498Y166419D01*
X87528Y166502D01*
X87546Y166580D01*
X87559Y166650D01*
X87563Y166681D01*
Y166707D01*
X87568Y166729D01*
Y166746D01*
Y166755D01*
Y166760D01*
X87559Y166877D01*
X87541Y166978D01*
X87515Y167065D01*
X87485Y167140D01*
X87450Y167197D01*
X87423Y167240D01*
X87406Y167266D01*
X87397Y167271D01*
Y167275D01*
X87367Y167310D01*
X87332Y167336D01*
X87262Y167384D01*
X87192Y167415D01*
X87131Y167441D01*
X87074Y167454D01*
X87030Y167459D01*
X87013Y167463D01*
D02*
G37*
G36*
X91855Y166650D02*
X90902D01*
X91855Y165296D01*
Y166650D01*
D02*
G37*
G36*
X53993Y188642D02*
X53967D01*
X53875Y188634D01*
X53792Y188612D01*
X53723Y188585D01*
X53661Y188550D01*
X53613Y188515D01*
X53578Y188489D01*
X53557Y188468D01*
X53548Y188459D01*
X53491Y188384D01*
X53447Y188306D01*
X53417Y188223D01*
X53399Y188144D01*
X53386Y188074D01*
X53382Y188044D01*
Y188017D01*
X53377Y187996D01*
Y187978D01*
Y187969D01*
Y187965D01*
X53386Y187847D01*
X53404Y187746D01*
X53430Y187659D01*
X53460Y187585D01*
X53495Y187528D01*
X53522Y187484D01*
X53539Y187458D01*
X53548Y187454D01*
Y187449D01*
X53578Y187414D01*
X53613Y187388D01*
X53683Y187340D01*
X53753Y187309D01*
X53814Y187283D01*
X53871Y187270D01*
X53915Y187266D01*
X53932Y187261D01*
X53954D01*
X54015Y187266D01*
X54072Y187274D01*
X54125Y187292D01*
X54168Y187309D01*
X54208Y187322D01*
X54238Y187340D01*
X54256Y187349D01*
X54264Y187353D01*
X54317Y187392D01*
X54361Y187432D01*
X54400Y187480D01*
X54431Y187519D01*
X54457Y187558D01*
X54474Y187589D01*
X54487Y187611D01*
X54492Y187620D01*
X54518Y187685D01*
X54535Y187751D01*
X54553Y187812D01*
X54562Y187869D01*
X54566Y187917D01*
X54570Y187956D01*
Y187978D01*
Y187987D01*
X54562Y188092D01*
X54544Y188183D01*
X54514Y188266D01*
X54483Y188332D01*
X54452Y188389D01*
X54422Y188428D01*
X54404Y188450D01*
X54396Y188459D01*
X54326Y188520D01*
X54256Y188564D01*
X54181Y188599D01*
X54116Y188620D01*
X54055Y188634D01*
X54011Y188638D01*
X53993Y188642D01*
D02*
G37*
G36*
X57472Y189695D02*
X56519D01*
X56401Y189691D01*
X56301Y189674D01*
X56213Y189652D01*
X56148Y189626D01*
X56091Y189599D01*
X56056Y189577D01*
X56034Y189560D01*
X56025Y189556D01*
X55973Y189499D01*
X55934Y189442D01*
X55907Y189381D01*
X55886Y189328D01*
X55877Y189276D01*
X55873Y189237D01*
X55868Y189210D01*
Y189206D01*
Y189202D01*
X55873Y189149D01*
X55881Y189097D01*
X55894Y189053D01*
X55907Y189014D01*
X55925Y188979D01*
X55938Y188953D01*
X55947Y188935D01*
X55951Y188931D01*
X55982Y188887D01*
X56021Y188848D01*
X56060Y188817D01*
X56100Y188791D01*
X56135Y188773D01*
X56161Y188760D01*
X56178Y188751D01*
X56187Y188747D01*
X56248Y188730D01*
X56318Y188716D01*
X56388Y188708D01*
X56458Y188703D01*
X56519Y188699D01*
X56572Y188695D01*
X57472D01*
Y189695D01*
D02*
G37*
G36*
X61224Y167883D02*
X61206D01*
X61198D01*
X61193D01*
X61075Y167874D01*
X60975Y167856D01*
X60887Y167830D01*
X60813Y167799D01*
X60756Y167765D01*
X60712Y167738D01*
X60686Y167721D01*
X60682Y167712D01*
X60678D01*
X60643Y167682D01*
X60616Y167647D01*
X60568Y167577D01*
X60538Y167507D01*
X60511Y167446D01*
X60498Y167389D01*
X60494Y167345D01*
X60490Y167328D01*
Y167306D01*
X60494Y167245D01*
X60503Y167188D01*
X60520Y167135D01*
X60538Y167092D01*
X60551Y167052D01*
X60568Y167022D01*
X60577Y167004D01*
X60581Y166996D01*
X60621Y166943D01*
X60660Y166899D01*
X60708Y166860D01*
X60747Y166829D01*
X60787Y166803D01*
X60817Y166786D01*
X60839Y166773D01*
X60848Y166768D01*
X60914Y166742D01*
X60979Y166725D01*
X61040Y166707D01*
X61097Y166698D01*
X61145Y166694D01*
X61185Y166690D01*
X61206D01*
X61215D01*
X61320Y166698D01*
X61412Y166716D01*
X61495Y166746D01*
X61560Y166777D01*
X61617Y166807D01*
X61656Y166838D01*
X61678Y166856D01*
X61687Y166864D01*
X61748Y166934D01*
X61792Y167004D01*
X61827Y167078D01*
X61849Y167144D01*
X61862Y167205D01*
X61866Y167249D01*
X61871Y167266D01*
Y167293D01*
X61862Y167384D01*
X61840Y167467D01*
X61814Y167537D01*
X61779Y167598D01*
X61744Y167647D01*
X61718Y167682D01*
X61696Y167703D01*
X61687Y167712D01*
X61613Y167769D01*
X61534Y167813D01*
X61451Y167843D01*
X61372Y167861D01*
X61303Y167874D01*
X61272Y167878D01*
X61246D01*
X61224Y167883D01*
D02*
G37*
G36*
X62439Y165392D02*
X62434D01*
X62430D01*
X62378Y165387D01*
X62325Y165378D01*
X62281Y165365D01*
X62242Y165352D01*
X62207Y165335D01*
X62181Y165322D01*
X62163Y165313D01*
X62159Y165309D01*
X62115Y165278D01*
X62076Y165239D01*
X62045Y165199D01*
X62019Y165160D01*
X62002Y165125D01*
X61989Y165099D01*
X61980Y165081D01*
X61976Y165073D01*
X61958Y165012D01*
X61945Y164942D01*
X61936Y164872D01*
X61932Y164802D01*
X61927Y164741D01*
X61923Y164688D01*
Y163788D01*
X62924D01*
Y164741D01*
X62919Y164858D01*
X62902Y164959D01*
X62880Y165046D01*
X62854Y165112D01*
X62828Y165169D01*
X62806Y165204D01*
X62788Y165226D01*
X62784Y165234D01*
X62727Y165287D01*
X62670Y165326D01*
X62609Y165352D01*
X62557Y165374D01*
X62504Y165383D01*
X62465Y165387D01*
X62439Y165392D01*
D02*
G37*
G36*
X97277Y182419D02*
X97233D01*
X97141Y182415D01*
X97063Y182402D01*
X96997Y182384D01*
X96940Y182362D01*
X96897Y182341D01*
X96862Y182323D01*
X96844Y182310D01*
X96836Y182306D01*
X96788Y182258D01*
X96748Y182201D01*
X96733Y182168D01*
X96767Y182171D01*
X96807D01*
X96925Y182162D01*
X97034Y182145D01*
X97126Y182114D01*
X97204Y182084D01*
X97270Y182049D01*
X97296Y182036D01*
X97318Y182018D01*
X97335Y182009D01*
X97349Y182001D01*
X97353Y181992D01*
X97357D01*
X97436Y181922D01*
X97502Y181839D01*
X97509Y181828D01*
X97552Y181843D01*
X97587Y181856D01*
X97609Y181869D01*
X97622Y181873D01*
X97627Y181877D01*
X97666Y181904D01*
X97692Y181939D01*
X97714Y181969D01*
X97727Y182000D01*
X97736Y182030D01*
X97740Y182052D01*
Y182070D01*
Y182074D01*
X97736Y182126D01*
X97723Y182170D01*
X97701Y182214D01*
X97679Y182249D01*
X97653Y182280D01*
X97635Y182301D01*
X97618Y182315D01*
X97613Y182319D01*
X97561Y182354D01*
X97504Y182376D01*
X97439Y182393D01*
X97377Y182406D01*
X97321Y182415D01*
X97277Y182419D01*
D02*
G37*
G36*
X97329Y181375D02*
X97299Y181366D01*
X97273Y181357D01*
X97251Y181353D01*
X97238Y181349D01*
X97233D01*
X97185Y181336D01*
X97141Y181323D01*
X97102Y181314D01*
X97067Y181301D01*
X97010Y181288D01*
X96967Y181274D01*
X96936Y181261D01*
X96919Y181257D01*
X96910Y181253D01*
X96905D01*
X96870Y181235D01*
X96840Y181222D01*
X96814Y181204D01*
X96796Y181191D01*
X96779Y181178D01*
X96770Y181165D01*
X96766Y181161D01*
X96761Y181156D01*
X96735Y181113D01*
X96722Y181069D01*
Y181052D01*
X96718Y181038D01*
Y181030D01*
Y181025D01*
X96722Y180986D01*
X96735Y180947D01*
X96753Y180912D01*
X96774Y180886D01*
X96792Y180859D01*
X96809Y180842D01*
X96823Y180833D01*
X96827Y180829D01*
X96875Y180798D01*
X96932Y180776D01*
X96993Y180763D01*
X97050Y180750D01*
X97106Y180746D01*
X97150Y180741D01*
X97194D01*
X97268Y180746D01*
X97338Y180754D01*
X97395Y180772D01*
X97409Y180778D01*
X97405Y180882D01*
X97397Y180996D01*
X97384Y181100D01*
X97370Y181192D01*
X97353Y181275D01*
X97335Y181350D01*
X97329Y181375D01*
D02*
G37*
G36*
X96837Y181865D02*
X96811D01*
X96763Y181861D01*
X96715Y181856D01*
X96671Y181843D01*
X96632Y181826D01*
X96558Y181786D01*
X96492Y181743D01*
X96444Y181695D01*
X96405Y181655D01*
X96392Y181638D01*
X96383Y181625D01*
X96374Y181620D01*
Y181616D01*
X96344Y181564D01*
X96317Y181502D01*
X96291Y181432D01*
X96274Y181358D01*
X96256Y181280D01*
X96243Y181196D01*
X96221Y181030D01*
X96213Y180947D01*
X96208Y180873D01*
X96204Y180803D01*
Y180746D01*
X96199Y180694D01*
Y180655D01*
Y180633D01*
Y180628D01*
Y180624D01*
Y180489D01*
X96208Y180366D01*
X96217Y180257D01*
X96226Y180152D01*
X96239Y180065D01*
X96256Y179982D01*
X96274Y179912D01*
X96287Y179846D01*
X96304Y179794D01*
X96322Y179750D01*
X96335Y179711D01*
X96352Y179680D01*
X96361Y179658D01*
X96370Y179645D01*
X96378Y179636D01*
Y179632D01*
X96413Y179588D01*
X96448Y179553D01*
X96483Y179518D01*
X96518Y179492D01*
X96593Y179448D01*
X96658Y179418D01*
X96719Y179400D01*
X96763Y179392D01*
X96781Y179387D01*
X96807D01*
X96855Y179392D01*
X96899Y179396D01*
X96982Y179427D01*
X97056Y179466D01*
X97121Y179510D01*
X97170Y179553D01*
X97209Y179593D01*
X97231Y179623D01*
X97239Y179628D01*
Y179632D01*
X97270Y179684D01*
X97296Y179746D01*
X97322Y179816D01*
X97340Y179890D01*
X97357Y179969D01*
X97370Y180052D01*
X97392Y180222D01*
X97401Y180301D01*
X97405Y180375D01*
X97410Y180445D01*
Y180457D01*
X97391Y180453D01*
X97321Y180444D01*
X97255Y180440D01*
X97207Y180435D01*
X97102D01*
X97041Y180444D01*
X96988Y180448D01*
X96940Y180457D01*
X96901Y180466D01*
X96870Y180475D01*
X96853Y180479D01*
X96844Y180483D01*
X96792Y180501D01*
X96744Y180518D01*
X96705Y180536D01*
X96670Y180553D01*
X96643Y180567D01*
X96626Y180580D01*
X96613Y180584D01*
X96608Y180588D01*
X96565Y180619D01*
X96530Y180654D01*
X96499Y180693D01*
X96473Y180724D01*
X96451Y180754D01*
X96438Y180776D01*
X96429Y180794D01*
X96425Y180798D01*
X96403Y180846D01*
X96386Y180890D01*
X96377Y180938D01*
X96368Y180977D01*
X96364Y181017D01*
X96359Y181043D01*
Y181060D01*
Y181069D01*
X96364Y181130D01*
X96372Y181183D01*
X96386Y181235D01*
X96399Y181279D01*
X96412Y181314D01*
X96425Y181344D01*
X96434Y181362D01*
X96438Y181366D01*
X96473Y181414D01*
X96512Y181454D01*
X96552Y181489D01*
X96591Y181519D01*
X96626Y181541D01*
X96652Y181558D01*
X96670Y181567D01*
X96678Y181572D01*
X96709Y181585D01*
X96748Y181602D01*
X96836Y181633D01*
X96927Y181659D01*
X97023Y181690D01*
X97106Y181711D01*
X97146Y181725D01*
X97157Y181727D01*
X97130Y181747D01*
X97095Y181773D01*
X97025Y181813D01*
X96960Y181839D01*
X96903Y181852D01*
X96855Y181861D01*
X96837Y181865D01*
D02*
G37*
G36*
X99223D02*
X99188D01*
X99110Y181861D01*
X99040Y181843D01*
X98979Y181821D01*
X98926Y181800D01*
X98887Y181773D01*
X98856Y181752D01*
X98835Y181734D01*
X98830Y181730D01*
X98820Y181718D01*
Y181711D01*
X98815Y181694D01*
Y181681D01*
Y181676D01*
X99592D01*
X99569Y181703D01*
X99551Y181725D01*
X99547Y181730D01*
X99490Y181773D01*
X99429Y181808D01*
X99372Y181830D01*
X99315Y181848D01*
X99263Y181856D01*
X99223Y181865D01*
D02*
G37*
G36*
X100065Y181370D02*
X99998D01*
X99730Y181323D01*
X99722Y181370D01*
X98837D01*
X98850Y181270D01*
X98876Y181178D01*
X98907Y181100D01*
X98942Y181038D01*
X98972Y180986D01*
X98995Y180957D01*
X99027Y180943D01*
X99101Y180921D01*
X99167Y180908D01*
X99223Y180899D01*
X99272Y180891D01*
X99328D01*
X99346Y180895D01*
X99368D01*
X99387Y180748D01*
X99418Y180746D01*
X99436Y180741D01*
X99462D01*
X99514Y180746D01*
X99563Y180750D01*
X99654Y180776D01*
X99733Y180811D01*
X99798Y180851D01*
X99851Y180890D01*
X99890Y180925D01*
X99912Y180951D01*
X99921Y180955D01*
Y180960D01*
X99960Y181017D01*
X99995Y181082D01*
X100017Y181148D01*
X100039Y181218D01*
X100052Y181274D01*
X100061Y181327D01*
Y181344D01*
X100065Y181357D01*
Y181366D01*
Y181370D01*
D02*
G37*
G36*
X92072D02*
X90844D01*
X90857Y181270D01*
X90884Y181178D01*
X90914Y181100D01*
X90949Y181038D01*
X90980Y180986D01*
X91010Y180947D01*
X91028Y180925D01*
X91037Y180916D01*
X91106Y180859D01*
X91176Y180815D01*
X91251Y180785D01*
X91321Y180763D01*
X91377Y180750D01*
X91426Y180746D01*
X91443Y180741D01*
X91469D01*
X91522Y180746D01*
X91570Y180750D01*
X91662Y180776D01*
X91740Y180811D01*
X91806Y180851D01*
X91858Y180890D01*
X91897Y180925D01*
X91919Y180951D01*
X91928Y180955D01*
Y180960D01*
X91967Y181017D01*
X92002Y181082D01*
X92024Y181148D01*
X92046Y181218D01*
X92059Y181274D01*
X92068Y181327D01*
Y181344D01*
X92072Y181357D01*
Y181366D01*
Y181370D01*
D02*
G37*
G36*
X110514Y181432D02*
X109491D01*
X109819Y180549D01*
X109858Y180440D01*
X109889Y180335D01*
X109919Y180239D01*
X109941Y180151D01*
X109959Y180077D01*
X109967Y180046D01*
X109972Y180016D01*
X109980Y179998D01*
Y179981D01*
X109985Y179972D01*
Y179968D01*
X110015Y180068D01*
X110050Y180173D01*
X110085Y180278D01*
X110120Y180378D01*
X110138Y180422D01*
X110151Y180466D01*
X110164Y180505D01*
X110177Y180536D01*
X110186Y180562D01*
X110195Y180584D01*
X110199Y180597D01*
Y180601D01*
X110514Y181432D01*
D02*
G37*
G36*
X104094Y182419D02*
X104050D01*
X103959Y182415D01*
X103880Y182402D01*
X103814Y182384D01*
X103758Y182362D01*
X103714Y182341D01*
X103679Y182323D01*
X103662Y182310D01*
X103653Y182306D01*
X103605Y182258D01*
X103565Y182201D01*
X103539Y182144D01*
X103518Y182093D01*
X103571Y182114D01*
X103703Y182153D01*
X103821Y182180D01*
X103877Y182193D01*
X103926Y182197D01*
X103974Y182202D01*
X104013Y182206D01*
X104043Y182210D01*
X104087D01*
X104231Y182202D01*
X104371Y182180D01*
X104494Y182153D01*
X104550Y182136D01*
X104540Y182170D01*
X104518Y182214D01*
X104496Y182249D01*
X104470Y182280D01*
X104453Y182301D01*
X104435Y182315D01*
X104431Y182319D01*
X104378Y182354D01*
X104321Y182376D01*
X104256Y182393D01*
X104195Y182406D01*
X104138Y182415D01*
X104094Y182419D01*
D02*
G37*
G36*
X104131Y181869D02*
X104096D01*
X103987Y181865D01*
X103886Y181848D01*
X103803Y181821D01*
X103729Y181795D01*
X103672Y181765D01*
X103628Y181743D01*
X103602Y181725D01*
X103593Y181717D01*
X103524Y181651D01*
X103458Y181577D01*
X103428Y181531D01*
X103443Y181541D01*
X103469Y181558D01*
X103487Y181567D01*
X103496Y181572D01*
X103526Y181585D01*
X103565Y181602D01*
X103653Y181633D01*
X103744Y181659D01*
X103841Y181690D01*
X103924Y181711D01*
X103963Y181725D01*
X103998Y181733D01*
X104024Y181742D01*
X104046Y181746D01*
X104059Y181751D01*
X104064D01*
X104120Y181764D01*
X104168Y181777D01*
X104212Y181790D01*
X104252Y181803D01*
X104286Y181812D01*
X104317Y181825D01*
X104355Y181837D01*
X104301Y181848D01*
X104218Y181861D01*
X104183Y181865D01*
X104153D01*
X104131Y181869D01*
D02*
G37*
G36*
X106882Y181370D02*
X105654D01*
X105667Y181270D01*
X105694Y181178D01*
X105724Y181100D01*
X105759Y181038D01*
X105790Y180986D01*
X105820Y180947D01*
X105838Y180925D01*
X105847Y180916D01*
X105916Y180859D01*
X105986Y180815D01*
X106061Y180785D01*
X106131Y180763D01*
X106187Y180750D01*
X106235Y180746D01*
X106253Y180741D01*
X106279D01*
X106332Y180746D01*
X106380Y180750D01*
X106471Y180776D01*
X106550Y180811D01*
X106616Y180851D01*
X106668Y180890D01*
X106707Y180925D01*
X106729Y180951D01*
X106738Y180955D01*
Y180960D01*
X106777Y181017D01*
X106812Y181082D01*
X106834Y181148D01*
X106856Y181218D01*
X106869Y181274D01*
X106878Y181327D01*
Y181344D01*
X106882Y181357D01*
Y181366D01*
Y181370D01*
D02*
G37*
G36*
X101478Y181865D02*
X101448D01*
X101369Y181856D01*
X101295Y181839D01*
X101284Y181834D01*
Y181484D01*
Y181410D01*
X101293Y181336D01*
X101302Y181274D01*
X101311Y181218D01*
X101324Y181165D01*
X101337Y181117D01*
X101347Y181092D01*
X101347Y181092D01*
X101373Y181096D01*
X101408D01*
X101487Y181092D01*
X101561Y181079D01*
X101631Y181065D01*
X101692Y181048D01*
X101745Y181026D01*
X101784Y181013D01*
X101810Y181000D01*
X101815Y180996D01*
X101819D01*
X101889Y180952D01*
X101950Y180904D01*
X102007Y180856D01*
X102051Y180803D01*
X102055Y180798D01*
X102075Y180807D01*
X102101Y180815D01*
X102114Y180824D01*
X102119Y180829D01*
X102139Y180842D01*
X102138Y180851D01*
X102134Y180921D01*
X102125Y180991D01*
X102121Y181052D01*
X102112Y181109D01*
X102103Y181161D01*
X102090Y181210D01*
X102081Y181253D01*
X102073Y181288D01*
X102064Y181319D01*
X102059Y181345D01*
X102051Y181363D01*
X102046Y181376D01*
X102042Y181384D01*
Y181389D01*
X101998Y181476D01*
X101955Y181555D01*
X101907Y181616D01*
X101863Y181668D01*
X101823Y181712D01*
X101793Y181743D01*
X101771Y181760D01*
X101762Y181765D01*
X101710Y181800D01*
X101657Y181821D01*
X101605Y181839D01*
X101553Y181852D01*
X101513Y181861D01*
X101478Y181865D01*
D02*
G37*
G36*
X101296Y180733D02*
X101245Y180714D01*
Y180483D01*
X100991D01*
X100963Y180432D01*
X100932Y180349D01*
X100915Y180270D01*
X100901Y180200D01*
X100897Y180170D01*
Y180143D01*
X100893Y180122D01*
Y180104D01*
Y180095D01*
Y180091D01*
X100901Y179973D01*
X100919Y179872D01*
X100945Y179785D01*
X100976Y179711D01*
X101011Y179654D01*
X101037Y179610D01*
X101054Y179584D01*
X101063Y179580D01*
Y179575D01*
X101094Y179540D01*
X101129Y179514D01*
X101199Y179466D01*
X101268Y179435D01*
X101330Y179409D01*
X101386Y179396D01*
X101430Y179392D01*
X101448Y179387D01*
X101470D01*
X101531Y179392D01*
X101587Y179400D01*
X101640Y179418D01*
X101684Y179435D01*
X101723Y179448D01*
X101754Y179466D01*
X101771Y179475D01*
X101780Y179479D01*
X101832Y179518D01*
X101876Y179558D01*
X101915Y179606D01*
X101946Y179645D01*
X101972Y179684D01*
X101990Y179715D01*
X102003Y179737D01*
X102007Y179746D01*
X102033Y179811D01*
X102051Y179877D01*
X102068Y179938D01*
X102077Y179995D01*
X102081Y180043D01*
X102086Y180082D01*
Y180104D01*
Y180113D01*
X102077Y180218D01*
X102059Y180309D01*
X102029Y180392D01*
X102007Y180439D01*
X101975Y180435D01*
X101940D01*
X101857Y180440D01*
X101778Y180453D01*
X101708Y180470D01*
X101638Y180492D01*
X101577Y180518D01*
X101520Y180549D01*
X101468Y180584D01*
X101424Y180614D01*
X101380Y180649D01*
X101345Y180684D01*
X101315Y180715D01*
X101296Y180733D01*
D02*
G37*
G36*
X116190Y182419D02*
X116164D01*
X116120Y182415D01*
X116077Y182411D01*
X115998Y182389D01*
X115928Y182354D01*
X115867Y182319D01*
X115819Y182284D01*
X115784Y182249D01*
X115762Y182227D01*
X115753Y182218D01*
X115723Y182179D01*
X115697Y182135D01*
X115653Y182035D01*
X115627Y181934D01*
X115605Y181829D01*
X115592Y181738D01*
X115587Y181698D01*
Y181663D01*
X115583Y181633D01*
Y181611D01*
Y181598D01*
Y181593D01*
Y181515D01*
X115592Y181445D01*
X115600Y181379D01*
X115609Y181314D01*
X115627Y181257D01*
X115640Y181204D01*
X115657Y181156D01*
X115675Y181113D01*
X115688Y181078D01*
X115705Y181043D01*
X115723Y181017D01*
X115736Y180990D01*
X115745Y180973D01*
X115753Y180960D01*
X115762Y180955D01*
Y180951D01*
X115797Y180912D01*
X115832Y180877D01*
X115867Y180846D01*
X115906Y180820D01*
X115976Y180781D01*
X116042Y180754D01*
X116098Y180741D01*
X116142Y180733D01*
X116160Y180728D01*
X116182D01*
X116225Y180733D01*
X116269Y180737D01*
X116348Y180759D01*
X116418Y180794D01*
X116479Y180833D01*
X116527Y180872D01*
X116562Y180903D01*
X116584Y180929D01*
X116592Y180933D01*
Y180938D01*
X116623Y180977D01*
X116649Y181025D01*
X116693Y181126D01*
X116723Y181226D01*
X116745Y181327D01*
X116758Y181419D01*
X116763Y181458D01*
Y181493D01*
X116767Y181524D01*
Y181545D01*
Y181558D01*
Y181563D01*
Y181641D01*
X116758Y181716D01*
X116750Y181786D01*
X116741Y181851D01*
X116728Y181908D01*
X116710Y181960D01*
X116693Y182013D01*
X116680Y182052D01*
X116662Y182092D01*
X116645Y182122D01*
X116632Y182153D01*
X116614Y182175D01*
X116605Y182192D01*
X116597Y182205D01*
X116588Y182210D01*
Y182214D01*
X116553Y182249D01*
X116518Y182280D01*
X116448Y182332D01*
X116378Y182367D01*
X116313Y182393D01*
X116252Y182406D01*
X116208Y182415D01*
X116190Y182419D01*
D02*
G37*
G36*
X45729Y135028D02*
X44917D01*
Y133949D01*
X45782D01*
X45860Y133953D01*
X45926Y133957D01*
X45979Y133962D01*
X46014Y133970D01*
X46040Y133975D01*
X46057Y133979D01*
X46062D01*
X46118Y134001D01*
X46166Y134027D01*
X46210Y134053D01*
X46249Y134084D01*
X46276Y134115D01*
X46297Y134136D01*
X46311Y134154D01*
X46315Y134158D01*
X46346Y134211D01*
X46372Y134263D01*
X46389Y134320D01*
X46398Y134368D01*
X46407Y134412D01*
X46411Y134451D01*
Y134473D01*
Y134477D01*
Y134482D01*
X46402Y134573D01*
X46385Y134652D01*
X46359Y134722D01*
X46328Y134779D01*
X46297Y134822D01*
X46271Y134857D01*
X46254Y134875D01*
X46245Y134884D01*
X46215Y134910D01*
X46175Y134932D01*
X46092Y134967D01*
X46000Y134993D01*
X45909Y135010D01*
X45826Y135019D01*
X45791Y135023D01*
X45760D01*
X45729Y135028D01*
D02*
G37*
G36*
X46930Y102398D02*
X46213D01*
Y100090D01*
X46913D01*
X46970Y100095D01*
X47026D01*
X47079Y100099D01*
X47166Y100112D01*
X47236Y100121D01*
X47293Y100134D01*
X47332Y100147D01*
X47354Y100151D01*
X47363Y100156D01*
X47442Y100195D01*
X47516Y100243D01*
X47581Y100300D01*
X47638Y100357D01*
X47682Y100409D01*
X47717Y100453D01*
X47725Y100470D01*
X47734Y100484D01*
X47743Y100492D01*
Y100497D01*
X47769Y100545D01*
X47795Y100601D01*
X47835Y100715D01*
X47861Y100838D01*
X47883Y100955D01*
X47887Y101008D01*
X47892Y101060D01*
X47896Y101104D01*
Y101143D01*
X47900Y101178D01*
Y101200D01*
Y101218D01*
Y101222D01*
X47896Y101344D01*
X47887Y101458D01*
X47874Y101558D01*
X47861Y101646D01*
X47852Y101681D01*
X47844Y101711D01*
X47835Y101742D01*
X47830Y101764D01*
X47826Y101781D01*
X47822Y101795D01*
X47817Y101803D01*
Y101808D01*
X47787Y101891D01*
X47752Y101965D01*
X47712Y102031D01*
X47677Y102087D01*
X47647Y102131D01*
X47621Y102162D01*
X47603Y102179D01*
X47599Y102188D01*
X47555Y102223D01*
X47511Y102253D01*
X47468Y102280D01*
X47424Y102306D01*
X47385Y102323D01*
X47354Y102336D01*
X47332Y102341D01*
X47324Y102345D01*
X47258Y102363D01*
X47179Y102376D01*
X47101Y102384D01*
X47026Y102389D01*
X46961Y102393D01*
X46930Y102398D01*
D02*
G37*
G36*
X59570Y177053D02*
X58670D01*
Y176053D01*
X59622D01*
X59740Y176057D01*
X59841Y176075D01*
X59928Y176096D01*
X59994Y176122D01*
X60051Y176149D01*
X60086Y176171D01*
X60107Y176188D01*
X60116Y176192D01*
X60169Y176249D01*
X60208Y176306D01*
X60234Y176367D01*
X60256Y176420D01*
X60265Y176472D01*
X60269Y176512D01*
X60274Y176538D01*
Y176542D01*
Y176546D01*
X60269Y176599D01*
X60260Y176651D01*
X60247Y176695D01*
X60234Y176734D01*
X60217Y176769D01*
X60204Y176795D01*
X60195Y176813D01*
X60190Y176817D01*
X60160Y176861D01*
X60121Y176900D01*
X60081Y176931D01*
X60042Y176957D01*
X60007Y176975D01*
X59981Y176988D01*
X59963Y176997D01*
X59955Y177001D01*
X59893Y177018D01*
X59823Y177032D01*
X59754Y177040D01*
X59684Y177045D01*
X59622Y177049D01*
X59570Y177053D01*
D02*
G37*
G36*
X62209Y178487D02*
X62188D01*
X62126Y178482D01*
X62070Y178474D01*
X62017Y178456D01*
X61974Y178439D01*
X61934Y178426D01*
X61904Y178408D01*
X61886Y178399D01*
X61877Y178395D01*
X61825Y178356D01*
X61781Y178316D01*
X61742Y178268D01*
X61711Y178229D01*
X61685Y178190D01*
X61668Y178159D01*
X61655Y178137D01*
X61650Y178128D01*
X61624Y178063D01*
X61606Y177997D01*
X61589Y177936D01*
X61580Y177879D01*
X61576Y177831D01*
X61571Y177792D01*
Y177770D01*
Y177761D01*
X61580Y177656D01*
X61598Y177565D01*
X61628Y177482D01*
X61659Y177416D01*
X61689Y177359D01*
X61720Y177320D01*
X61738Y177298D01*
X61746Y177289D01*
X61816Y177228D01*
X61886Y177184D01*
X61960Y177149D01*
X62026Y177128D01*
X62087Y177114D01*
X62131Y177110D01*
X62148Y177106D01*
X62174D01*
X62266Y177114D01*
X62349Y177136D01*
X62419Y177163D01*
X62480Y177198D01*
X62529Y177233D01*
X62563Y177259D01*
X62585Y177281D01*
X62594Y177289D01*
X62651Y177364D01*
X62695Y177442D01*
X62725Y177525D01*
X62743Y177604D01*
X62756Y177674D01*
X62760Y177705D01*
Y177731D01*
X62764Y177752D01*
Y177770D01*
Y177779D01*
Y177783D01*
X62756Y177901D01*
X62738Y178002D01*
X62712Y178089D01*
X62681Y178163D01*
X62647Y178220D01*
X62620Y178264D01*
X62603Y178290D01*
X62594Y178294D01*
Y178299D01*
X62563Y178334D01*
X62529Y178360D01*
X62459Y178408D01*
X62389Y178439D01*
X62327Y178465D01*
X62271Y178478D01*
X62227Y178482D01*
X62209Y178487D01*
D02*
G37*
G36*
X91099Y49776D02*
X91060D01*
X91038D01*
X91030D01*
X90894Y49772D01*
X90772Y49768D01*
X90658Y49759D01*
X90553Y49746D01*
X90461Y49733D01*
X90378Y49715D01*
X90304Y49698D01*
X90238Y49680D01*
X90182Y49663D01*
X90134Y49650D01*
X90094Y49632D01*
X90059Y49619D01*
X90038Y49606D01*
X90020Y49597D01*
X90011Y49589D01*
X90007D01*
X89968Y49558D01*
X89933Y49527D01*
X89906Y49492D01*
X89880Y49457D01*
X89841Y49387D01*
X89815Y49322D01*
X89802Y49265D01*
X89793Y49217D01*
X89788Y49200D01*
Y49173D01*
X89793Y49125D01*
X89797Y49077D01*
X89810Y49033D01*
X89828Y48994D01*
X89867Y48920D01*
X89911Y48854D01*
X89959Y48806D01*
X89998Y48767D01*
X90016Y48754D01*
X90029Y48745D01*
X90033Y48736D01*
X90038D01*
X90090Y48706D01*
X90151Y48680D01*
X90221Y48653D01*
X90295Y48636D01*
X90374Y48618D01*
X90457Y48605D01*
X90623Y48583D01*
X90706Y48575D01*
X90780Y48570D01*
X90850Y48566D01*
X90907D01*
X90960Y48561D01*
X90999D01*
X91021D01*
X91025D01*
X91030D01*
X91165D01*
X91287Y48570D01*
X91397Y48579D01*
X91501Y48588D01*
X91589Y48601D01*
X91672Y48618D01*
X91742Y48636D01*
X91807Y48649D01*
X91860Y48666D01*
X91904Y48684D01*
X91943Y48697D01*
X91973Y48715D01*
X91995Y48723D01*
X92008Y48732D01*
X92017Y48741D01*
X92022D01*
X92065Y48776D01*
X92100Y48811D01*
X92135Y48846D01*
X92161Y48881D01*
X92205Y48955D01*
X92236Y49020D01*
X92253Y49082D01*
X92262Y49125D01*
X92266Y49143D01*
Y49169D01*
X92262Y49217D01*
X92257Y49261D01*
X92227Y49344D01*
X92188Y49418D01*
X92144Y49484D01*
X92100Y49532D01*
X92061Y49571D01*
X92030Y49593D01*
X92026Y49602D01*
X92022D01*
X91969Y49632D01*
X91908Y49658D01*
X91838Y49685D01*
X91764Y49702D01*
X91685Y49720D01*
X91602Y49733D01*
X91432Y49755D01*
X91353Y49763D01*
X91279Y49768D01*
X91209Y49772D01*
X91152D01*
X91099Y49776D01*
D02*
G37*
G36*
X69720Y57078D02*
X67413D01*
Y56379D01*
X67417Y56322D01*
Y56265D01*
X67422Y56213D01*
X67435Y56126D01*
X67444Y56056D01*
X67457Y55999D01*
X67470Y55960D01*
X67474Y55938D01*
X67479Y55929D01*
X67518Y55850D01*
X67566Y55776D01*
X67623Y55711D01*
X67680Y55654D01*
X67732Y55610D01*
X67776Y55575D01*
X67793Y55566D01*
X67806Y55558D01*
X67815Y55549D01*
X67819D01*
X67867Y55523D01*
X67924Y55496D01*
X68038Y55457D01*
X68160Y55431D01*
X68278Y55409D01*
X68331Y55405D01*
X68383Y55400D01*
X68427Y55396D01*
X68466D01*
X68501Y55392D01*
X68523D01*
X68541D01*
X68545D01*
X68667Y55396D01*
X68781Y55405D01*
X68881Y55418D01*
X68969Y55431D01*
X69004Y55440D01*
X69034Y55448D01*
X69065Y55457D01*
X69087Y55461D01*
X69104Y55466D01*
X69117Y55470D01*
X69126Y55475D01*
X69130D01*
X69213Y55505D01*
X69288Y55540D01*
X69353Y55579D01*
X69410Y55614D01*
X69454Y55645D01*
X69484Y55671D01*
X69502Y55689D01*
X69511Y55693D01*
X69546Y55737D01*
X69576Y55780D01*
X69602Y55824D01*
X69629Y55868D01*
X69646Y55907D01*
X69659Y55938D01*
X69664Y55960D01*
X69668Y55968D01*
X69685Y56034D01*
X69699Y56112D01*
X69707Y56191D01*
X69712Y56265D01*
X69716Y56331D01*
X69720Y56362D01*
Y57078D01*
D02*
G37*
%LPD*%
M02*
