G04*
G04 #@! TF.GenerationSoftware,Altium Limited,Altium Designer,22.2.1 (43)*
G04*
G04 Layer_Color=32768*
%FSLAX25Y25*%
%MOIN*%
G70*
G04*
G04 #@! TF.SameCoordinates,5435AC76-14FC-4701-A4E6-3609E34239AB*
G04*
G04*
G04 #@! TF.FilePolarity,Positive*
G04*
G01*
G75*
%ADD48C,0.00394*%
D48*
X145669Y62598D02*
G03*
X145669Y62598I-27165J0D01*
G01*
X61358Y6693D02*
G03*
X61358Y6693I-8209J0D01*
G01*
X161181Y174016D02*
G03*
X161181Y174016I-13150J0D01*
G01*
X24567Y27165D02*
G03*
X24567Y27165I-13150J0D01*
G01*
X80256Y7087D02*
G03*
X80256Y7087I-8209J0D01*
G01*
X43248Y6693D02*
G03*
X43248Y6693I-8209J0D01*
G01*
X24567Y174016D02*
G03*
X24567Y174016I-13150J0D01*
G01*
X161575Y27165D02*
G03*
X161575Y27165I-13150J0D01*
G01*
X116535Y62598D02*
X120472D01*
X118504Y60630D02*
Y64567D01*
X9449Y58268D02*
X13386D01*
X11417Y56299D02*
Y60236D01*
X22047Y39370D02*
Y77165D01*
X787Y39370D02*
X22047D01*
X787D02*
Y77165D01*
X22047D01*
X32874Y95669D02*
X36811D01*
X34843Y93701D02*
Y97638D01*
X53543Y80709D02*
Y110630D01*
X7874Y80709D02*
X53543D01*
X7874D02*
Y110630D01*
X7874D02*
X53543D01*
X161024Y47638D02*
Y73622D01*
X145276Y47638D02*
X161024D01*
X145276D02*
Y73622D01*
X161024D01*
X153150Y58661D02*
Y62598D01*
X151181Y60630D02*
X155118D01*
X102756Y154134D02*
X117717D01*
Y167913D01*
X102756D02*
X117717D01*
X102756Y154134D02*
Y167913D01*
X110236Y159055D02*
Y162992D01*
X108268Y161024D02*
X112205D01*
X61024Y178740D02*
X64961D01*
X62992Y176772D02*
Y180709D01*
X72047Y174213D02*
Y183268D01*
X53937Y174213D02*
X72047D01*
X53937D02*
Y183268D01*
X72047D01*
X111417Y174016D02*
Y177953D01*
X109449Y175984D02*
X113386D01*
X104528Y183661D02*
X118307D01*
Y168307D02*
Y183661D01*
X104528Y168307D02*
X118307D01*
X104528D02*
Y183661D01*
X47441Y173622D02*
Y188976D01*
X33268D02*
X47441D01*
X33268Y173622D02*
Y188976D01*
Y173622D02*
X47441D01*
X38386Y181299D02*
X42323D01*
X40354Y179331D02*
Y183268D01*
X53150Y4724D02*
Y8661D01*
X51181Y6693D02*
X55118D01*
X86299Y-591D02*
X130000D01*
Y11614D01*
X86299D02*
X130000D01*
X86299Y-591D02*
Y11614D01*
X108150Y3543D02*
Y7480D01*
X106181Y5512D02*
X110118D01*
X30512Y39370D02*
Y57480D01*
Y39370D02*
X39567D01*
Y57480D01*
X30512D02*
X39567D01*
X33071Y48425D02*
X37008D01*
X35039Y46457D02*
Y50394D01*
X24016Y59842D02*
X31102D01*
Y73228D01*
X24016D02*
X31102D01*
X24016Y59842D02*
Y73228D01*
X27559Y64567D02*
Y68504D01*
X25591Y66535D02*
X29528D01*
X112205Y129921D02*
X157874D01*
X157874D02*
Y159843D01*
X112205D02*
X157874D01*
X112205Y129921D02*
Y159843D01*
X130905Y142913D02*
Y146850D01*
X128937Y144882D02*
X132874D01*
X87795Y141339D02*
X91732D01*
X89764Y139370D02*
Y143307D01*
X82284Y134449D02*
Y148228D01*
X97244D01*
Y134449D02*
Y148228D01*
X82284Y134449D02*
X97244D01*
X83071Y165157D02*
X101181D01*
X83071Y156102D02*
Y165157D01*
Y156102D02*
X101181D01*
Y165157D01*
X92126Y158661D02*
Y162598D01*
X90158Y160630D02*
X94095D01*
X77559Y174213D02*
X95669D01*
Y183268D01*
X77559D02*
X95669D01*
X77559Y174213D02*
Y183268D01*
X86614Y176772D02*
Y180709D01*
X84646Y178740D02*
X88583D01*
X56693Y156102D02*
X74803D01*
Y165157D01*
X56693D02*
X74803D01*
X56693Y156102D02*
Y165157D01*
X65748Y158661D02*
Y162598D01*
X63779Y160630D02*
X67716D01*
X32283Y165157D02*
X50394D01*
X32283Y156102D02*
Y165157D01*
Y156102D02*
X50394D01*
Y165157D01*
X41339Y158661D02*
Y162598D01*
X39370Y160630D02*
X43307D01*
X50394Y145866D02*
X68504D01*
X50394Y136811D02*
Y145866D01*
Y136811D02*
X68504D01*
Y145866D01*
X59449Y139370D02*
Y143307D01*
X57480Y141339D02*
X61417D01*
X53543Y95079D02*
X71653D01*
X53543Y86024D02*
Y95079D01*
Y86024D02*
X71653D01*
Y95079D01*
X62598Y88583D02*
Y92520D01*
X60630Y90551D02*
X64567D01*
X25197Y136811D02*
X43307D01*
Y145866D01*
X25197D02*
X43307D01*
X25197Y136811D02*
Y145866D01*
X34252Y139370D02*
Y143307D01*
X32283Y141339D02*
X36220D01*
X62205Y102362D02*
Y106299D01*
X60236Y104331D02*
X64173D01*
X55315Y96850D02*
X69095D01*
X55315D02*
Y111811D01*
X69095D01*
Y96850D02*
Y111811D01*
X148031Y172047D02*
Y175984D01*
X146063Y174016D02*
X150000D01*
X11417Y25197D02*
Y29134D01*
X9449Y27165D02*
X13386D01*
X72047Y5118D02*
Y9055D01*
X70079Y7087D02*
X74016D01*
X35039Y4724D02*
Y8661D01*
X33071Y6693D02*
X37008D01*
X11417Y172047D02*
Y175984D01*
X9449Y174016D02*
X13386D01*
X148425Y25197D02*
Y29134D01*
X146457Y27165D02*
X150394D01*
M02*
