G04*
G04 #@! TF.GenerationSoftware,Altium Limited,Altium Designer,22.2.1 (43)*
G04*
G04 Layer_Physical_Order=1*
G04 Layer_Color=255*
%FSLAX25Y25*%
%MOIN*%
G70*
G04*
G04 #@! TF.SameCoordinates,5435AC76-14FC-4701-A4E6-3609E34239AB*
G04*
G04*
G04 #@! TF.FilePolarity,Positive*
G04*
G01*
G75*
%ADD12C,0.01181*%
%ADD14R,0.06299X0.04724*%
%ADD16R,0.03937X0.02362*%
%ADD17R,0.04134X0.07087*%
%ADD18R,0.03150X0.03543*%
%ADD19R,0.02362X0.04134*%
%ADD20R,0.07087X0.04134*%
%ADD21R,0.03150X0.03150*%
%ADD22R,0.02362X0.03937*%
%ADD23R,0.08661X0.04724*%
%ADD24R,0.25197X0.22835*%
%ADD26C,0.05512*%
%ADD27R,0.05512X0.05512*%
%ADD28R,0.08268X0.08268*%
%ADD29C,0.08268*%
%ADD30R,0.06693X0.06693*%
%ADD31C,0.06693*%
%ADD32C,0.08661*%
%ADD33R,0.06693X0.06693*%
%ADD34C,0.03937*%
%ADD35C,0.11811*%
%ADD36C,0.03937*%
%ADD37C,0.01968*%
%ADD38C,0.03543*%
%ADD39C,0.03150*%
G36*
X159843Y185951D02*
Y168128D01*
X159464Y167984D01*
X159343Y167975D01*
X158893Y168424D01*
X158309Y168761D01*
X157715Y168921D01*
Y166377D01*
Y163833D01*
X158309Y163992D01*
X158893Y164329D01*
X159343Y164779D01*
X159464Y164769D01*
X159843Y164625D01*
Y15354D01*
X144792Y304D01*
X14657D01*
X304Y14657D01*
Y97638D01*
X4528D01*
Y102756D01*
Y107874D01*
X304D01*
Y186131D01*
X17323Y203150D01*
X142913D01*
X159843Y185951D01*
D02*
G37*
%LPC*%
G36*
X145904Y192543D02*
Y190392D01*
X148054D01*
X147895Y190987D01*
X147558Y191570D01*
X147082Y192046D01*
X146498Y192383D01*
X145904Y192543D01*
D02*
G37*
G36*
X145117D02*
X144523Y192383D01*
X143939Y192046D01*
X143463Y191570D01*
X143126Y190987D01*
X142967Y190392D01*
X145117D01*
Y192543D01*
D02*
G37*
G36*
X134093D02*
Y190392D01*
X136243D01*
X136084Y190987D01*
X135747Y191570D01*
X135271Y192046D01*
X134687Y192383D01*
X134093Y192543D01*
D02*
G37*
G36*
X133306D02*
X132712Y192383D01*
X132128Y192046D01*
X131652Y191570D01*
X131315Y190987D01*
X131156Y190392D01*
X133306D01*
Y192543D01*
D02*
G37*
G36*
X98660D02*
Y190392D01*
X100810D01*
X100651Y190987D01*
X100314Y191570D01*
X99838Y192046D01*
X99254Y192383D01*
X98660Y192543D01*
D02*
G37*
G36*
X97873D02*
X97279Y192383D01*
X96695Y192046D01*
X96219Y191570D01*
X95882Y190987D01*
X95723Y190392D01*
X97873D01*
Y192543D01*
D02*
G37*
G36*
X86849D02*
Y190392D01*
X88999D01*
X88840Y190987D01*
X88503Y191570D01*
X88027Y192046D01*
X87443Y192383D01*
X86849Y192543D01*
D02*
G37*
G36*
X86062D02*
X85468Y192383D01*
X84884Y192046D01*
X84408Y191570D01*
X84071Y190987D01*
X83912Y190392D01*
X86062D01*
Y192543D01*
D02*
G37*
G36*
X27794D02*
Y190392D01*
X29944D01*
X29785Y190987D01*
X29448Y191570D01*
X28972Y192046D01*
X28388Y192383D01*
X27794Y192543D01*
D02*
G37*
G36*
X27007D02*
X26413Y192383D01*
X25829Y192046D01*
X25353Y191570D01*
X25016Y190987D01*
X24857Y190392D01*
X27007D01*
Y192543D01*
D02*
G37*
G36*
X15983D02*
Y190392D01*
X18133D01*
X17974Y190987D01*
X17637Y191570D01*
X17161Y192046D01*
X16577Y192383D01*
X15983Y192543D01*
D02*
G37*
G36*
X15196D02*
X14602Y192383D01*
X14018Y192046D01*
X13542Y191570D01*
X13205Y190987D01*
X13046Y190392D01*
X15196D01*
Y192543D01*
D02*
G37*
G36*
X148054Y189605D02*
X145904D01*
Y187455D01*
X146498Y187614D01*
X147082Y187951D01*
X147558Y188427D01*
X147895Y189011D01*
X148054Y189605D01*
D02*
G37*
G36*
X145117D02*
X142967D01*
X143126Y189011D01*
X143463Y188427D01*
X143939Y187951D01*
X144523Y187614D01*
X145117Y187455D01*
Y189605D01*
D02*
G37*
G36*
X136243D02*
X134093D01*
Y187455D01*
X134687Y187614D01*
X135271Y187951D01*
X135747Y188427D01*
X136084Y189011D01*
X136243Y189605D01*
D02*
G37*
G36*
X133306D02*
X131156D01*
X131315Y189011D01*
X131652Y188427D01*
X132128Y187951D01*
X132712Y187614D01*
X133306Y187455D01*
Y189605D01*
D02*
G37*
G36*
X97873D02*
X95723D01*
X95882Y189011D01*
X96219Y188427D01*
X96695Y187951D01*
X97279Y187614D01*
X97873Y187455D01*
Y189605D01*
D02*
G37*
G36*
X88999D02*
X86849D01*
Y187455D01*
X87443Y187614D01*
X88027Y187951D01*
X88503Y188427D01*
X88840Y189011D01*
X88999Y189605D01*
D02*
G37*
G36*
X86062D02*
X83912D01*
X84071Y189011D01*
X84408Y188427D01*
X84884Y187951D01*
X85468Y187614D01*
X86062Y187455D01*
Y189605D01*
D02*
G37*
G36*
X29944D02*
X27794D01*
Y187455D01*
X28388Y187614D01*
X28972Y187951D01*
X29448Y188427D01*
X29785Y189011D01*
X29944Y189605D01*
D02*
G37*
G36*
X27007D02*
X24857D01*
X25016Y189011D01*
X25353Y188427D01*
X25829Y187951D01*
X26413Y187614D01*
X27007Y187455D01*
Y189605D01*
D02*
G37*
G36*
X18133D02*
X15983D01*
Y187455D01*
X16577Y187614D01*
X17161Y187951D01*
X17637Y188427D01*
X17974Y189011D01*
X18133Y189605D01*
D02*
G37*
G36*
X15196D02*
X13046D01*
X13205Y189011D01*
X13542Y188427D01*
X14018Y187951D01*
X14602Y187614D01*
X15196Y187455D01*
Y189605D01*
D02*
G37*
G36*
X42520Y188878D02*
X40748D01*
Y186220D01*
X42520D01*
Y188878D01*
D02*
G37*
G36*
X39961D02*
X38189D01*
Y186220D01*
X39961D01*
Y188878D01*
D02*
G37*
G36*
X100810Y189605D02*
X98660D01*
Y187455D01*
X98730Y187474D01*
X99098Y187055D01*
X98937Y186667D01*
Y185774D01*
X99279Y184949D01*
X99910Y184318D01*
X100735Y183976D01*
X101628D01*
X102452Y184318D01*
X103084Y184949D01*
X103125Y185050D01*
X103626Y185150D01*
X104107Y185472D01*
X104158Y185523D01*
X121934D01*
X122351Y185105D01*
X123176Y184764D01*
X124068D01*
X124893Y185105D01*
X125524Y185737D01*
X125866Y186562D01*
Y187454D01*
X125524Y188279D01*
X124893Y188910D01*
X124068Y189252D01*
X123176D01*
X122351Y188910D01*
X121934Y188493D01*
X103543D01*
X102975Y188380D01*
X102507Y188068D01*
X102452Y188123D01*
X101628Y188465D01*
X100913D01*
X100621Y188862D01*
X100602Y188926D01*
X100651Y189011D01*
X100810Y189605D01*
D02*
G37*
G36*
X42520Y185433D02*
X40748D01*
Y182776D01*
X42520D01*
Y185433D01*
D02*
G37*
G36*
X39961D02*
X38189D01*
Y182776D01*
X39961D01*
Y185433D01*
D02*
G37*
G36*
X60233Y184447D02*
X59819Y184365D01*
X59467Y184130D01*
X58093Y182756D01*
X54547D01*
Y181002D01*
X38875D01*
X38875Y181002D01*
X38460Y180920D01*
X38109Y180685D01*
X38109Y180685D01*
X36735Y179311D01*
X35612D01*
X35354Y179759D01*
X34877Y180236D01*
X34294Y180572D01*
X33700Y180731D01*
Y178188D01*
Y175644D01*
X34294Y175803D01*
X34461Y175900D01*
X34961Y175611D01*
Y174232D01*
X38268D01*
Y177778D01*
X39324Y178834D01*
X42441D01*
Y174232D01*
X44215D01*
X46160Y172287D01*
Y164646D01*
X44705D01*
Y157105D01*
X44129Y156950D01*
X43546Y156613D01*
X43069Y156137D01*
X42732Y155553D01*
X42573Y154959D01*
X47661D01*
X47502Y155553D01*
X47178Y156114D01*
X47203Y156217D01*
X47394Y156614D01*
X49784D01*
Y159546D01*
X57303D01*
Y156614D01*
X60849D01*
X64271Y153193D01*
Y145354D01*
X62815D01*
Y143031D01*
X56083D01*
Y145354D01*
X51004D01*
Y142422D01*
X42697D01*
Y145354D01*
X37618D01*
Y143031D01*
X31398D01*
X31386Y143026D01*
X30886Y143360D01*
Y145354D01*
X25807D01*
Y137323D01*
X25307Y137322D01*
X25295D01*
X25161Y137267D01*
X25017Y137240D01*
X24986Y137194D01*
X24934Y137173D01*
X24878Y137038D01*
X24795Y136918D01*
X24697Y136459D01*
X24707Y136404D01*
X24686Y136352D01*
Y124913D01*
X22157D01*
Y126772D01*
X22034Y128022D01*
X21669Y129224D01*
X21077Y130332D01*
X20280Y131303D01*
X19309Y132100D01*
X18201Y132693D01*
X16998Y133057D01*
X15748Y133180D01*
X14498Y133057D01*
X13335Y132704D01*
X10512Y135528D01*
Y141220D01*
X1299D01*
Y132008D01*
X6992D01*
X9815Y129185D01*
X9462Y128022D01*
X9339Y126772D01*
Y118504D01*
Y107874D01*
X5315D01*
Y102756D01*
Y97638D01*
X9370D01*
Y83780D01*
X35512D01*
Y104607D01*
X41929D01*
X41941Y104612D01*
X42441Y104278D01*
Y101811D01*
X52047D01*
Y104278D01*
X52547Y104612D01*
X52559Y104607D01*
X68606D01*
X68910Y104210D01*
X68701Y103430D01*
Y103150D01*
X78937D01*
Y103430D01*
X78728Y104210D01*
X79032Y104607D01*
X122441D01*
X122802Y104756D01*
X122952Y105118D01*
Y132559D01*
X122947Y132571D01*
X123282Y133071D01*
X123307D01*
Y138740D01*
X123282D01*
X122947Y139240D01*
X122952Y139252D01*
Y142520D01*
X122802Y142881D01*
X122441Y143031D01*
X112115D01*
Y156274D01*
X114830Y158989D01*
X115084Y159370D01*
X116822D01*
Y156693D01*
X113701D01*
Y151024D01*
X119787D01*
X123889Y146922D01*
Y101031D01*
X100544Y77686D01*
X24016D01*
X23063Y77496D01*
X22256Y76957D01*
X13536Y68237D01*
X10086D01*
X9527Y68795D01*
Y69716D01*
X9990Y69908D01*
X10146Y69751D01*
X10971Y69410D01*
X11864D01*
X12688Y69751D01*
X13320Y70382D01*
X13661Y71207D01*
Y72100D01*
X13320Y72925D01*
X12688Y73556D01*
X11864Y73898D01*
X10971D01*
X10146Y73556D01*
X9515Y72925D01*
X9173Y72100D01*
Y71207D01*
X8998Y70945D01*
X2283D01*
Y65276D01*
X6008D01*
X7295Y63988D01*
X8103Y63449D01*
X9055Y63259D01*
X14567D01*
X15519Y63449D01*
X16327Y63988D01*
X25047Y72708D01*
X101575D01*
X102527Y72897D01*
X103335Y73437D01*
X128138Y98240D01*
X128677Y99048D01*
X128867Y100000D01*
Y147953D01*
X128677Y148905D01*
X128138Y149713D01*
X123307Y154543D01*
Y156693D01*
X119792D01*
Y170275D01*
X119792Y170276D01*
X119679Y170844D01*
X119357Y171326D01*
X119357Y171326D01*
X117979Y172704D01*
X117498Y173026D01*
X116929Y173139D01*
X116929Y173139D01*
X113465D01*
Y173898D01*
X110116D01*
X109925Y174360D01*
X113607Y178042D01*
X114764D01*
X114764Y178042D01*
X114907Y178071D01*
X117402D01*
Y182559D01*
X113307D01*
Y181013D01*
X112992D01*
X112424Y180900D01*
X111942Y180578D01*
X111942Y180578D01*
X109990Y178625D01*
X109528Y178817D01*
Y182559D01*
X105433D01*
Y179824D01*
X95059D01*
Y182756D01*
X89980D01*
Y174724D01*
X93891D01*
X93996Y174704D01*
X93996Y174704D01*
X97779D01*
X99015Y173468D01*
X98937Y173281D01*
Y172388D01*
X99279Y171563D01*
X99910Y170932D01*
X100735Y170591D01*
X101628D01*
X102452Y170932D01*
X103084Y171563D01*
X103425Y172388D01*
Y173281D01*
X103084Y174106D01*
X102452Y174737D01*
X101628Y175079D01*
X100735D01*
X100547Y175001D01*
X98995Y176554D01*
X98643Y176789D01*
X98228Y176871D01*
X95059D01*
Y177656D01*
X106102D01*
X106517Y177739D01*
X106869Y177974D01*
X106966Y178071D01*
X108782D01*
X108973Y177609D01*
X104658Y173294D01*
X104337Y172812D01*
X104223Y172244D01*
X104223Y172244D01*
Y166417D01*
X103268D01*
Y166249D01*
X102183D01*
X97303Y171129D01*
X96821Y171451D01*
X96253Y171564D01*
X96253Y171564D01*
X72662D01*
X70383Y173844D01*
Y174724D01*
X71437D01*
Y182279D01*
X77113D01*
X78169Y181223D01*
Y174724D01*
X83248D01*
Y182756D01*
X79702D01*
X78328Y184130D01*
X77977Y184365D01*
X77562Y184447D01*
X60233D01*
X60233Y184447D01*
D02*
G37*
G36*
X131982Y184331D02*
X131010D01*
X130113Y183959D01*
X129427Y183272D01*
X129055Y182375D01*
Y181404D01*
X129280Y180862D01*
X128883Y180514D01*
X128782Y180572D01*
X128188Y180731D01*
Y178581D01*
X130338D01*
X130179Y179175D01*
X130121Y179276D01*
X130469Y179673D01*
X131010Y179449D01*
X131982D01*
X132879Y179820D01*
X133565Y180507D01*
X133937Y181404D01*
Y182375D01*
X133565Y183272D01*
X132879Y183959D01*
X131982Y184331D01*
D02*
G37*
G36*
X127400Y180731D02*
X126806Y180572D01*
X126223Y180236D01*
X125746Y179759D01*
X125409Y179175D01*
X125250Y178581D01*
X127400D01*
Y180731D01*
D02*
G37*
G36*
X32912D02*
X32318Y180572D01*
X31735Y180236D01*
X31258Y179759D01*
X30921Y179175D01*
X30762Y178581D01*
X32912D01*
Y180731D01*
D02*
G37*
G36*
X21889D02*
Y178581D01*
X24039D01*
X23879Y179175D01*
X23543Y179759D01*
X23066Y180236D01*
X22483Y180572D01*
X21889Y180731D01*
D02*
G37*
G36*
X21101D02*
X20507Y180572D01*
X19924Y180236D01*
X19447Y179759D01*
X19110Y179175D01*
X18951Y178581D01*
X21101D01*
Y180731D01*
D02*
G37*
G36*
X130338Y177794D02*
X128188D01*
Y175644D01*
X128782Y175803D01*
X129365Y176140D01*
X129842Y176616D01*
X130179Y177200D01*
X130338Y177794D01*
D02*
G37*
G36*
X127400D02*
X125250D01*
X125409Y177200D01*
X125746Y176616D01*
X126223Y176140D01*
X126806Y175803D01*
X127400Y175644D01*
Y177794D01*
D02*
G37*
G36*
X32912D02*
X30762D01*
X30921Y177200D01*
X31258Y176616D01*
X31735Y176140D01*
X32318Y175803D01*
X32912Y175644D01*
Y177794D01*
D02*
G37*
G36*
X24039D02*
X21889D01*
Y175644D01*
X22483Y175803D01*
X23066Y176140D01*
X23543Y176616D01*
X23879Y177200D01*
X24039Y177794D01*
D02*
G37*
G36*
X21101D02*
X18951D01*
X19110Y177200D01*
X19447Y176616D01*
X19924Y176140D01*
X20507Y175803D01*
X21101Y175644D01*
Y177794D01*
D02*
G37*
G36*
X148698Y180787D02*
X147365D01*
X146056Y180527D01*
X144824Y180017D01*
X143715Y179276D01*
X142772Y178332D01*
X142031Y177223D01*
X141520Y175991D01*
X141260Y174683D01*
Y173349D01*
X141520Y172040D01*
X142031Y170808D01*
X142772Y169699D01*
X143715Y168756D01*
X144824Y168015D01*
X146056Y167504D01*
X147365Y167244D01*
X148698D01*
X150007Y167504D01*
X151239Y168015D01*
X152348Y168756D01*
X153291Y169699D01*
X154033Y170808D01*
X154543Y172040D01*
X154803Y173349D01*
Y174683D01*
X154543Y175991D01*
X154033Y177223D01*
X153291Y178332D01*
X152348Y179276D01*
X151239Y180017D01*
X150007Y180527D01*
X148698Y180787D01*
D02*
G37*
G36*
X12084D02*
X10750D01*
X9442Y180527D01*
X8210Y180017D01*
X7101Y179276D01*
X6157Y178332D01*
X5416Y177223D01*
X4906Y175991D01*
X4646Y174683D01*
Y173349D01*
X4906Y172040D01*
X5416Y170808D01*
X6157Y169699D01*
X7101Y168756D01*
X8210Y168015D01*
X9442Y167504D01*
X10750Y167244D01*
X12084D01*
X13393Y167504D01*
X14625Y168015D01*
X15734Y168756D01*
X16677Y169699D01*
X17418Y170808D01*
X17929Y172040D01*
X18189Y173349D01*
Y174683D01*
X17929Y175991D01*
X17418Y177223D01*
X16677Y178332D01*
X15734Y179276D01*
X14625Y180017D01*
X13393Y180527D01*
X12084Y180787D01*
D02*
G37*
G36*
X156928Y168921D02*
X156334Y168761D01*
X155750Y168424D01*
X155274Y167948D01*
X154937Y167365D01*
X154778Y166770D01*
X156928D01*
Y168921D01*
D02*
G37*
G36*
X27794D02*
Y166770D01*
X29944D01*
X29785Y167365D01*
X29448Y167948D01*
X28972Y168424D01*
X28388Y168761D01*
X27794Y168921D01*
D02*
G37*
G36*
X27007D02*
X26413Y168761D01*
X25829Y168424D01*
X25353Y167948D01*
X25016Y167365D01*
X24857Y166770D01*
X27007D01*
Y168921D01*
D02*
G37*
G36*
X156928Y165983D02*
X154778D01*
X154937Y165389D01*
X155274Y164805D01*
X155750Y164329D01*
X156334Y163992D01*
X156928Y163833D01*
Y165983D01*
D02*
G37*
G36*
X29944D02*
X27794D01*
Y163833D01*
X28388Y163992D01*
X28972Y164329D01*
X29448Y164805D01*
X29785Y165389D01*
X29944Y165983D01*
D02*
G37*
G36*
X27007D02*
X24857D01*
X25016Y165389D01*
X25353Y164805D01*
X25829Y164329D01*
X26413Y163992D01*
X27007Y163833D01*
Y165983D01*
D02*
G37*
G36*
X38484Y165157D02*
X35827D01*
Y161024D01*
X38484D01*
Y165157D01*
D02*
G37*
G36*
X35039D02*
X32382D01*
Y161024D01*
X35039D01*
Y165157D01*
D02*
G37*
G36*
X38484Y160236D02*
X35827D01*
Y156102D01*
X38484D01*
Y160236D01*
D02*
G37*
G36*
X35039D02*
X32382D01*
Y156102D01*
X35039D01*
Y160236D01*
D02*
G37*
G36*
X21889Y157109D02*
Y154959D01*
X24039D01*
X23879Y155553D01*
X23543Y156137D01*
X23066Y156613D01*
X22483Y156950D01*
X21889Y157109D01*
D02*
G37*
G36*
X21101D02*
X20507Y156950D01*
X19924Y156613D01*
X19447Y156137D01*
X19110Y155553D01*
X18951Y154959D01*
X21101D01*
Y157109D01*
D02*
G37*
G36*
X10078D02*
Y154959D01*
X12228D01*
X12069Y155553D01*
X11732Y156137D01*
X11255Y156613D01*
X10672Y156950D01*
X10078Y157109D01*
D02*
G37*
G36*
X9290D02*
X8696Y156950D01*
X8112Y156613D01*
X7636Y156137D01*
X7299Y155553D01*
X7140Y154959D01*
X9290D01*
Y157109D01*
D02*
G37*
G36*
X47661Y154172D02*
X45511D01*
Y152022D01*
X46105Y152181D01*
X46688Y152518D01*
X47165Y152994D01*
X47502Y153578D01*
X47661Y154172D01*
D02*
G37*
G36*
X44723D02*
X42573D01*
X42732Y153578D01*
X43069Y152994D01*
X43546Y152518D01*
X44129Y152181D01*
X44723Y152022D01*
Y154172D01*
D02*
G37*
G36*
X24039D02*
X21889D01*
Y152022D01*
X22483Y152181D01*
X23066Y152518D01*
X23543Y152994D01*
X23879Y153578D01*
X24039Y154172D01*
D02*
G37*
G36*
X21101D02*
X18951D01*
X19110Y153578D01*
X19447Y152994D01*
X19924Y152518D01*
X20507Y152181D01*
X21101Y152022D01*
Y154172D01*
D02*
G37*
G36*
X12228D02*
X10078D01*
Y152022D01*
X10672Y152181D01*
X11255Y152518D01*
X11732Y152994D01*
X12069Y153578D01*
X12228Y154172D01*
D02*
G37*
G36*
X9290D02*
X7140D01*
X7299Y153578D01*
X7636Y152994D01*
X8112Y152518D01*
X8696Y152181D01*
X9290Y152022D01*
Y154172D01*
D02*
G37*
G36*
X16234Y150472D02*
X15262D01*
X14365Y150101D01*
X13679Y149414D01*
X13307Y148517D01*
Y147546D01*
X13679Y146649D01*
X14365Y145962D01*
X14906Y145738D01*
X14871Y145212D01*
X14602Y145139D01*
X14018Y144802D01*
X13542Y144326D01*
X13205Y143742D01*
X13046Y143148D01*
X18133D01*
X17974Y143742D01*
X17637Y144326D01*
X17161Y144802D01*
X16577Y145139D01*
X16500Y145160D01*
X16466Y145687D01*
X17131Y145962D01*
X17817Y146649D01*
X18189Y147546D01*
Y148517D01*
X17817Y149414D01*
X17131Y150101D01*
X16234Y150472D01*
D02*
G37*
G36*
X18133Y142361D02*
X15983D01*
Y140211D01*
X16577Y140370D01*
X17161Y140707D01*
X17637Y141183D01*
X17974Y141767D01*
X18133Y142361D01*
D02*
G37*
G36*
X15196D02*
X13046D01*
X13205Y141767D01*
X13542Y141183D01*
X14018Y140707D01*
X14602Y140370D01*
X15196Y140211D01*
Y142361D01*
D02*
G37*
G36*
X127953Y165087D02*
X127000Y164898D01*
X126193Y164358D01*
X125653Y163551D01*
X125464Y162598D01*
Y159055D01*
X125653Y158103D01*
X126193Y157295D01*
X130236Y153252D01*
Y132992D01*
X156378D01*
Y156772D01*
X133756D01*
X130441Y160086D01*
Y162598D01*
X130252Y163551D01*
X129713Y164358D01*
X128905Y164898D01*
X127953Y165087D01*
D02*
G37*
G36*
X67598Y102244D02*
X64291D01*
Y98170D01*
X63886Y97896D01*
X63791Y97903D01*
X63227Y98054D01*
Y95511D01*
Y92967D01*
X63821Y93126D01*
X64405Y93463D01*
X64881Y93939D01*
X64953Y94063D01*
X65453Y93929D01*
Y90945D01*
X68110D01*
Y95079D01*
X65871D01*
X65442Y95164D01*
X65393Y95554D01*
Y95847D01*
X65218Y96498D01*
X65008Y96862D01*
X65275Y97362D01*
X67598D01*
Y102244D01*
D02*
G37*
G36*
X98660Y98054D02*
Y95904D01*
X100810D01*
X100651Y96498D01*
X100314Y97082D01*
X99838Y97558D01*
X99254Y97895D01*
X98660Y98054D01*
D02*
G37*
G36*
X97873D02*
X97279Y97895D01*
X96695Y97558D01*
X96219Y97082D01*
X95882Y96498D01*
X95723Y95904D01*
X97873D01*
Y98054D01*
D02*
G37*
G36*
X86849D02*
Y95904D01*
X88999D01*
X88840Y96498D01*
X88503Y97082D01*
X88027Y97558D01*
X87443Y97895D01*
X86849Y98054D01*
D02*
G37*
G36*
X86062D02*
X85468Y97895D01*
X84884Y97558D01*
X84408Y97082D01*
X84071Y96498D01*
X83912Y95904D01*
X86062D01*
Y98054D01*
D02*
G37*
G36*
X78937Y102362D02*
X68701D01*
Y102082D01*
X69050Y100780D01*
X69723Y99613D01*
X70676Y98660D01*
X71843Y97987D01*
X72593Y97786D01*
X72743Y97228D01*
X72597Y97082D01*
X72260Y96498D01*
X72101Y95904D01*
X77188D01*
X77029Y96498D01*
X76692Y97082D01*
X76216Y97558D01*
X76134Y97605D01*
X76134Y98183D01*
X76961Y98660D01*
X77914Y99613D01*
X78588Y100780D01*
X78937Y102082D01*
Y102362D01*
D02*
G37*
G36*
X62440Y98054D02*
X61846Y97895D01*
X61262Y97558D01*
X60786Y97082D01*
X60449Y96498D01*
X60290Y95904D01*
X62440D01*
Y98054D01*
D02*
G37*
G36*
X51416D02*
Y95904D01*
X53566D01*
X53407Y96498D01*
X53070Y97082D01*
X52594Y97558D01*
X52010Y97895D01*
X51416Y98054D01*
D02*
G37*
G36*
X50629D02*
X50035Y97895D01*
X49451Y97558D01*
X48975Y97082D01*
X48638Y96498D01*
X48479Y95904D01*
X50629D01*
Y98054D01*
D02*
G37*
G36*
X39605D02*
Y95904D01*
X41755D01*
X41596Y96498D01*
X41259Y97082D01*
X40783Y97558D01*
X40199Y97895D01*
X39605Y98054D01*
D02*
G37*
G36*
X38818D02*
X38224Y97895D01*
X37640Y97558D01*
X37164Y97082D01*
X36827Y96498D01*
X36667Y95904D01*
X38818D01*
Y98054D01*
D02*
G37*
G36*
X100810Y95117D02*
X98660D01*
Y92967D01*
X99254Y93126D01*
X99838Y93463D01*
X100314Y93939D01*
X100651Y94523D01*
X100810Y95117D01*
D02*
G37*
G36*
X97873D02*
X95723D01*
X95882Y94523D01*
X96219Y93939D01*
X96695Y93463D01*
X97279Y93126D01*
X97873Y92967D01*
Y95117D01*
D02*
G37*
G36*
X88999D02*
X86849D01*
Y92967D01*
X87443Y93126D01*
X88027Y93463D01*
X88503Y93939D01*
X88840Y94523D01*
X88999Y95117D01*
D02*
G37*
G36*
X86062D02*
X83912D01*
X84071Y94523D01*
X84408Y93939D01*
X84884Y93463D01*
X85468Y93126D01*
X86062Y92967D01*
Y95117D01*
D02*
G37*
G36*
X77188D02*
X75038D01*
Y92967D01*
X75632Y93126D01*
X76216Y93463D01*
X76692Y93939D01*
X77029Y94523D01*
X77188Y95117D01*
D02*
G37*
G36*
X74251D02*
X72101D01*
X72260Y94523D01*
X72597Y93939D01*
X73073Y93463D01*
X73657Y93126D01*
X74251Y92967D01*
Y95117D01*
D02*
G37*
G36*
X62440D02*
X60290D01*
X60449Y94523D01*
X60786Y93939D01*
X61262Y93463D01*
X61846Y93126D01*
X62440Y92967D01*
Y95117D01*
D02*
G37*
G36*
X53566D02*
X51416D01*
Y92967D01*
X52010Y93126D01*
X52594Y93463D01*
X53070Y93939D01*
X53407Y94523D01*
X53566Y95117D01*
D02*
G37*
G36*
X50629D02*
X48479D01*
X48638Y94523D01*
X48975Y93939D01*
X49451Y93463D01*
X50035Y93126D01*
X50629Y92967D01*
Y95117D01*
D02*
G37*
G36*
X41755D02*
X39605D01*
Y92967D01*
X40199Y93126D01*
X40783Y93463D01*
X41259Y93939D01*
X41596Y94523D01*
X41755Y95117D01*
D02*
G37*
G36*
X38818D02*
X36667D01*
X36827Y94523D01*
X37164Y93939D01*
X37640Y93463D01*
X38224Y93126D01*
X38818Y92967D01*
Y95117D01*
D02*
G37*
G36*
X71555Y95079D02*
X68897D01*
Y90945D01*
X71555D01*
Y95079D01*
D02*
G37*
G36*
X80944Y86243D02*
Y84093D01*
X83094D01*
X82935Y84687D01*
X82598Y85271D01*
X82121Y85747D01*
X81538Y86084D01*
X80944Y86243D01*
D02*
G37*
G36*
X80156D02*
X79562Y86084D01*
X78979Y85747D01*
X78502Y85271D01*
X78165Y84687D01*
X78006Y84093D01*
X80156D01*
Y86243D01*
D02*
G37*
G36*
X71555Y90157D02*
X68504D01*
X65453D01*
Y86024D01*
X66737D01*
X66944Y85524D01*
X66691Y85271D01*
X66354Y84687D01*
X66195Y84093D01*
X71283D01*
X71124Y84687D01*
X70787Y85271D01*
X70534Y85524D01*
X70741Y86024D01*
X71555D01*
Y90157D01*
D02*
G37*
G36*
X60118Y102244D02*
X56811D01*
Y97362D01*
X57381D01*
Y96501D01*
X57168Y96183D01*
X57086Y95768D01*
Y94567D01*
X54154D01*
Y92860D01*
X53916Y92812D01*
X53564Y92577D01*
X50515Y89527D01*
X42441D01*
Y83858D01*
X52047D01*
Y87995D01*
X53692Y89639D01*
X54154Y89448D01*
Y86535D01*
X55769D01*
X55838Y86353D01*
X55856Y86035D01*
X55357Y85747D01*
X54880Y85271D01*
X54543Y84687D01*
X54384Y84093D01*
X59472D01*
X59313Y84687D01*
X58976Y85271D01*
X58499Y85747D01*
X58000Y86035D01*
X58017Y86353D01*
X58086Y86535D01*
X59232D01*
Y91923D01*
X59253Y92028D01*
X59253Y92028D01*
Y95330D01*
X59466Y95648D01*
X59548Y96063D01*
Y97362D01*
X60118D01*
Y102244D01*
D02*
G37*
G36*
X83094Y83306D02*
X80944D01*
Y81156D01*
X81538Y81315D01*
X82121Y81652D01*
X82598Y82128D01*
X82935Y82712D01*
X83094Y83306D01*
D02*
G37*
G36*
X80156D02*
X78006D01*
X78165Y82712D01*
X78502Y82128D01*
X78979Y81652D01*
X79562Y81315D01*
X80156Y81156D01*
Y83306D01*
D02*
G37*
G36*
X71283D02*
X69133D01*
Y81156D01*
X69727Y81315D01*
X70310Y81652D01*
X70787Y82128D01*
X71124Y82712D01*
X71283Y83306D01*
D02*
G37*
G36*
X68345D02*
X66195D01*
X66354Y82712D01*
X66691Y82128D01*
X67168Y81652D01*
X67751Y81315D01*
X68345Y81156D01*
Y83306D01*
D02*
G37*
G36*
X59472D02*
X57322D01*
Y81156D01*
X57916Y81315D01*
X58499Y81652D01*
X58976Y82128D01*
X59313Y82712D01*
X59472Y83306D01*
D02*
G37*
G36*
X56534D02*
X54384D01*
X54543Y82712D01*
X54880Y82128D01*
X55357Y81652D01*
X55940Y81315D01*
X56534Y81156D01*
Y83306D01*
D02*
G37*
G36*
X133911Y129803D02*
X133018D01*
X132193Y129462D01*
X131562Y128830D01*
X131220Y128005D01*
Y127113D01*
X131562Y126288D01*
X131979Y125871D01*
Y67910D01*
X131696Y67627D01*
X112992D01*
X112992Y67627D01*
X112424Y67514D01*
X111942Y67192D01*
X111942Y67192D01*
X98950Y54200D01*
X98628Y53718D01*
X98515Y53150D01*
X98515Y53149D01*
Y12977D01*
X94868Y9331D01*
X89331D01*
Y1693D01*
X96969D01*
Y7230D01*
X101050Y11312D01*
X101050Y11312D01*
X101313Y11705D01*
X101442Y11744D01*
X101624Y11751D01*
X101865Y11710D01*
X102124Y11262D01*
X102601Y10786D01*
X103184Y10449D01*
X103778Y10290D01*
Y12833D01*
Y15377D01*
X103184Y15218D01*
X102601Y14881D01*
X102124Y14405D01*
X101985Y14164D01*
X101485Y14298D01*
Y52534D01*
X113607Y64657D01*
X132311D01*
X132311Y64657D01*
X132880Y64770D01*
X133362Y65092D01*
X134515Y66245D01*
X134515Y66245D01*
X134837Y66726D01*
X134950Y67295D01*
Y125871D01*
X135367Y126288D01*
X135709Y127113D01*
Y128005D01*
X135367Y128830D01*
X134736Y129462D01*
X133911Y129803D01*
D02*
G37*
G36*
X121732Y75669D02*
X115276D01*
Y74142D01*
X109843D01*
X108890Y73953D01*
X108083Y73413D01*
X106843Y72174D01*
X27559D01*
X26607Y71984D01*
X26229Y71732D01*
X25512D01*
Y71015D01*
X25260Y70638D01*
X25070Y69685D01*
X25260Y68733D01*
X25512Y68355D01*
Y67638D01*
X26229D01*
X26607Y67386D01*
X27559Y67196D01*
X107874D01*
X108826Y67386D01*
X109634Y67925D01*
X110873Y69165D01*
X117717D01*
X117957Y69213D01*
X121732D01*
Y75669D01*
D02*
G37*
G36*
X156968Y69449D02*
X149331D01*
Y61811D01*
X156968D01*
Y69449D01*
D02*
G37*
G36*
X139999Y62621D02*
Y60471D01*
X142149D01*
X141990Y61065D01*
X141653Y61649D01*
X141176Y62125D01*
X140593Y62462D01*
X139999Y62621D01*
D02*
G37*
G36*
X139211D02*
X138617Y62462D01*
X138034Y62125D01*
X137557Y61649D01*
X137220Y61065D01*
X137061Y60471D01*
X139211D01*
Y62621D01*
D02*
G37*
G36*
X128188D02*
Y60471D01*
X130338D01*
X130179Y61065D01*
X129842Y61649D01*
X129365Y62125D01*
X128782Y62462D01*
X128188Y62621D01*
D02*
G37*
G36*
X127400D02*
X126806Y62462D01*
X126223Y62125D01*
X125746Y61649D01*
X125409Y61065D01*
X125250Y60471D01*
X127400D01*
Y62621D01*
D02*
G37*
G36*
X116377D02*
Y60471D01*
X118527D01*
X118368Y61065D01*
X118031Y61649D01*
X117554Y62125D01*
X116971Y62462D01*
X116377Y62621D01*
D02*
G37*
G36*
X115589D02*
X114995Y62462D01*
X114412Y62125D01*
X113935Y61649D01*
X113598Y61065D01*
X113439Y60471D01*
X115589D01*
Y62621D01*
D02*
G37*
G36*
X57322D02*
Y60471D01*
X59472D01*
X59313Y61065D01*
X58976Y61649D01*
X58499Y62125D01*
X57916Y62462D01*
X57322Y62621D01*
D02*
G37*
G36*
X56534D02*
X55940Y62462D01*
X55357Y62125D01*
X54880Y61649D01*
X54543Y61065D01*
X54384Y60471D01*
X56534D01*
Y62621D01*
D02*
G37*
G36*
X20551Y61102D02*
X13307D01*
Y59753D01*
X10245D01*
X10170Y59933D01*
X9539Y60564D01*
X8714Y60905D01*
X7821D01*
X6997Y60564D01*
X6365Y59933D01*
X6024Y59108D01*
Y58215D01*
X6365Y57390D01*
X6997Y56759D01*
X7821Y56417D01*
X8714D01*
X9539Y56759D01*
X9609Y56829D01*
X9843Y56783D01*
X9843Y56783D01*
X13307D01*
Y55433D01*
X20551D01*
Y61102D01*
D02*
G37*
G36*
X142149Y59684D02*
X139999D01*
Y57534D01*
X140593Y57693D01*
X141176Y58030D01*
X141653Y58506D01*
X141990Y59090D01*
X142149Y59684D01*
D02*
G37*
G36*
X139211D02*
X137061D01*
X137220Y59090D01*
X137557Y58506D01*
X138034Y58030D01*
X138617Y57693D01*
X139211Y57534D01*
Y59684D01*
D02*
G37*
G36*
X130338D02*
X128188D01*
Y57534D01*
X128782Y57693D01*
X129365Y58030D01*
X129842Y58506D01*
X130179Y59090D01*
X130338Y59684D01*
D02*
G37*
G36*
X127400D02*
X125250D01*
X125409Y59090D01*
X125746Y58506D01*
X126223Y58030D01*
X126806Y57693D01*
X127400Y57534D01*
Y59684D01*
D02*
G37*
G36*
X118527D02*
X116377D01*
Y57534D01*
X116971Y57693D01*
X117554Y58030D01*
X118031Y58506D01*
X118368Y59090D01*
X118527Y59684D01*
D02*
G37*
G36*
X115589D02*
X113439D01*
X113598Y59090D01*
X113935Y58506D01*
X114412Y58030D01*
X114995Y57693D01*
X115589Y57534D01*
Y59684D01*
D02*
G37*
G36*
X59472D02*
X57322D01*
Y57534D01*
X57916Y57693D01*
X58499Y58030D01*
X58976Y58506D01*
X59313Y59090D01*
X59472Y59684D01*
D02*
G37*
G36*
X56534D02*
X54384D01*
X54543Y59090D01*
X54880Y58506D01*
X55357Y58030D01*
X55940Y57693D01*
X56534Y57534D01*
Y59684D01*
D02*
G37*
G36*
X118996Y56496D02*
X118897D01*
Y53149D01*
X122244D01*
Y53248D01*
X121989Y54199D01*
X121497Y55052D01*
X120800Y55749D01*
X119948Y56241D01*
X118996Y56496D01*
D02*
G37*
G36*
X118110D02*
X118011D01*
X117060Y56241D01*
X116207Y55749D01*
X115511Y55052D01*
X115019Y54199D01*
X114764Y53248D01*
Y53149D01*
X118110D01*
Y56496D01*
D02*
G37*
G36*
X153652Y59449D02*
X152647D01*
X151676Y59189D01*
X150805Y58686D01*
X150094Y57975D01*
X149591Y57104D01*
X149331Y56133D01*
Y55127D01*
X149591Y54156D01*
X150094Y53285D01*
X150805Y52574D01*
X151676Y52071D01*
X152647Y51811D01*
X153652D01*
X154624Y52071D01*
X155494Y52574D01*
X156205Y53285D01*
X156708Y54156D01*
X156968Y55127D01*
Y56133D01*
X156708Y57104D01*
X156205Y57975D01*
X155494Y58686D01*
X154624Y59189D01*
X153652Y59449D01*
D02*
G37*
G36*
X29606Y65433D02*
X25512D01*
Y61339D01*
X29606D01*
Y62302D01*
X33213D01*
X38183Y57332D01*
X37991Y56870D01*
X31024D01*
Y51791D01*
X39055D01*
Y53247D01*
X40354D01*
X40769Y53329D01*
X41121Y53564D01*
X41813Y54256D01*
X41813Y54256D01*
X42048Y54608D01*
X42130Y55023D01*
X42130Y55023D01*
Y56001D01*
X42048Y56416D01*
X41813Y56767D01*
X34428Y64152D01*
X34076Y64387D01*
X33661Y64470D01*
X29606D01*
Y65433D01*
D02*
G37*
G36*
X122244Y52362D02*
X118897D01*
Y49016D01*
X118996D01*
X119948Y49271D01*
X120800Y49763D01*
X121497Y50459D01*
X121989Y51312D01*
X122244Y52263D01*
Y52362D01*
D02*
G37*
G36*
X118110D02*
X114764D01*
Y52263D01*
X115019Y51312D01*
X115511Y50459D01*
X116207Y49763D01*
X117060Y49271D01*
X118011Y49016D01*
X118110D01*
Y52362D01*
D02*
G37*
G36*
X86849Y50810D02*
Y48660D01*
X88999D01*
X88840Y49254D01*
X88503Y49838D01*
X88027Y50314D01*
X87443Y50651D01*
X86849Y50810D01*
D02*
G37*
G36*
X86062D02*
X85468Y50651D01*
X84884Y50314D01*
X84408Y49838D01*
X84071Y49254D01*
X83912Y48660D01*
X86062D01*
Y50810D01*
D02*
G37*
G36*
X39605D02*
Y48660D01*
X41755D01*
X41596Y49254D01*
X41259Y49838D01*
X40783Y50314D01*
X40199Y50651D01*
X39605Y50810D01*
D02*
G37*
G36*
X38818D02*
X38224Y50651D01*
X37640Y50314D01*
X37164Y49838D01*
X36827Y49254D01*
X36667Y48660D01*
X38818D01*
Y50810D01*
D02*
G37*
G36*
X27794D02*
Y48660D01*
X29944D01*
X29785Y49254D01*
X29448Y49838D01*
X28972Y50314D01*
X28388Y50651D01*
X27794Y50810D01*
D02*
G37*
G36*
X27007D02*
X26413Y50651D01*
X25829Y50314D01*
X25353Y49838D01*
X25016Y49254D01*
X24857Y48660D01*
X27007D01*
Y50810D01*
D02*
G37*
G36*
X15983D02*
Y48660D01*
X18133D01*
X17974Y49254D01*
X17637Y49838D01*
X17161Y50314D01*
X16577Y50651D01*
X15983Y50810D01*
D02*
G37*
G36*
X15196D02*
X14602Y50651D01*
X14018Y50314D01*
X13542Y49838D01*
X13205Y49254D01*
X13046Y48660D01*
X15196D01*
Y50810D01*
D02*
G37*
G36*
X131588Y52441D02*
X130617D01*
X129720Y52069D01*
X129033Y51383D01*
X128661Y50485D01*
Y49514D01*
X129033Y48617D01*
X129720Y47931D01*
X130617Y47559D01*
X131588D01*
X132485Y47931D01*
X133172Y48617D01*
X133543Y49514D01*
Y50485D01*
X133172Y51383D01*
X132485Y52069D01*
X131588Y52441D01*
D02*
G37*
G36*
X88999Y47873D02*
X86849D01*
Y45723D01*
X87443Y45882D01*
X88027Y46219D01*
X88503Y46695D01*
X88840Y47279D01*
X88999Y47873D01*
D02*
G37*
G36*
X86062D02*
X83912D01*
X84071Y47279D01*
X84408Y46695D01*
X84884Y46219D01*
X85468Y45882D01*
X86062Y45723D01*
Y47873D01*
D02*
G37*
G36*
X29944D02*
X27794D01*
Y45723D01*
X28388Y45882D01*
X28972Y46219D01*
X29448Y46695D01*
X29785Y47279D01*
X29944Y47873D01*
D02*
G37*
G36*
X27007D02*
X24857D01*
X25016Y47279D01*
X25353Y46695D01*
X25829Y46219D01*
X26413Y45882D01*
X27007Y45723D01*
Y47873D01*
D02*
G37*
G36*
X18133D02*
X15983D01*
Y45723D01*
X16577Y45882D01*
X17161Y46219D01*
X17637Y46695D01*
X17974Y47279D01*
X18133Y47873D01*
D02*
G37*
G36*
X15196D02*
X13046D01*
X13205Y47279D01*
X13542Y46695D01*
X14018Y46219D01*
X14602Y45882D01*
X15196Y45723D01*
Y47873D01*
D02*
G37*
G36*
X41755D02*
X36667D01*
X36827Y47279D01*
X37164Y46695D01*
X37640Y46219D01*
X37896Y46071D01*
X37762Y45571D01*
X35433D01*
Y42913D01*
X39567D01*
Y45215D01*
X39567Y45571D01*
X39964Y45819D01*
X40199Y45882D01*
X40783Y46219D01*
X41259Y46695D01*
X41596Y47279D01*
X41755Y47873D01*
D02*
G37*
G36*
X34646Y45571D02*
X30512D01*
Y42913D01*
X34646D01*
Y45571D01*
D02*
G37*
G36*
X9527Y51260D02*
X2283D01*
Y45591D01*
X8998D01*
X9173Y45328D01*
Y44436D01*
X9515Y43611D01*
X10146Y42979D01*
X10971Y42638D01*
X11864D01*
X12688Y42979D01*
X13320Y43611D01*
X13661Y44436D01*
Y45328D01*
X13320Y46153D01*
X12688Y46784D01*
X11864Y47126D01*
X10971D01*
X10146Y46784D01*
X9990Y46628D01*
X9527Y46819D01*
Y51260D01*
D02*
G37*
G36*
X39567Y42126D02*
X35433D01*
Y39469D01*
X39567D01*
Y42126D01*
D02*
G37*
G36*
X57322Y38999D02*
Y36849D01*
X59472D01*
X59313Y37443D01*
X58976Y38027D01*
X58499Y38503D01*
X57916Y38840D01*
X57322Y38999D01*
D02*
G37*
G36*
X56534D02*
X55940Y38840D01*
X55357Y38503D01*
X54880Y38027D01*
X54543Y37443D01*
X54384Y36849D01*
X56534D01*
Y38999D01*
D02*
G37*
G36*
X45511D02*
Y36849D01*
X47661D01*
X47502Y37443D01*
X47165Y38027D01*
X46688Y38503D01*
X46105Y38840D01*
X45511Y38999D01*
D02*
G37*
G36*
X44723D02*
X44129Y38840D01*
X43546Y38503D01*
X43069Y38027D01*
X42732Y37443D01*
X42573Y36849D01*
X44723D01*
Y38999D01*
D02*
G37*
G36*
X34646Y42126D02*
X30512D01*
Y39469D01*
X32731D01*
X32797Y38969D01*
X32318Y38840D01*
X31735Y38503D01*
X31258Y38027D01*
X30921Y37443D01*
X30762Y36849D01*
X35850D01*
X35691Y37443D01*
X35354Y38027D01*
X34877Y38503D01*
X34294Y38840D01*
X33814Y38969D01*
X33880Y39469D01*
X34646D01*
Y42126D01*
D02*
G37*
G36*
X21889Y38999D02*
Y36849D01*
X24039D01*
X23879Y37443D01*
X23543Y38027D01*
X23066Y38503D01*
X22483Y38840D01*
X21889Y38999D01*
D02*
G37*
G36*
X21101D02*
X20507Y38840D01*
X19924Y38503D01*
X19447Y38027D01*
X19110Y37443D01*
X18951Y36849D01*
X21101D01*
Y38999D01*
D02*
G37*
G36*
X59472Y36062D02*
X57322D01*
Y33912D01*
X57916Y34071D01*
X58499Y34408D01*
X58976Y34884D01*
X59313Y35468D01*
X59472Y36062D01*
D02*
G37*
G36*
X56534D02*
X54384D01*
X54543Y35468D01*
X54880Y34884D01*
X55357Y34408D01*
X55940Y34071D01*
X56534Y33912D01*
Y36062D01*
D02*
G37*
G36*
X47661D02*
X45511D01*
Y33912D01*
X46105Y34071D01*
X46688Y34408D01*
X47165Y34884D01*
X47502Y35468D01*
X47661Y36062D01*
D02*
G37*
G36*
X44723D02*
X42573D01*
X42732Y35468D01*
X43069Y34884D01*
X43546Y34408D01*
X44129Y34071D01*
X44723Y33912D01*
Y36062D01*
D02*
G37*
G36*
X35850D02*
X33700D01*
Y33912D01*
X34294Y34071D01*
X34877Y34408D01*
X35354Y34884D01*
X35691Y35468D01*
X35850Y36062D01*
D02*
G37*
G36*
X32912D02*
X30762D01*
X30921Y35468D01*
X31258Y34884D01*
X31735Y34408D01*
X32318Y34071D01*
X32912Y33912D01*
Y36062D01*
D02*
G37*
G36*
X24039D02*
X21889D01*
Y33912D01*
X22483Y34071D01*
X23066Y34408D01*
X23543Y34884D01*
X23879Y35468D01*
X24039Y36062D01*
D02*
G37*
G36*
X21101D02*
X18951D01*
X19110Y35468D01*
X19447Y34884D01*
X19924Y34408D01*
X20507Y34071D01*
X21101Y33912D01*
Y36062D01*
D02*
G37*
G36*
X63227Y27188D02*
Y25038D01*
X65377D01*
X65218Y25632D01*
X64881Y26216D01*
X64405Y26692D01*
X63821Y27029D01*
X63227Y27188D01*
D02*
G37*
G36*
X62440D02*
X61846Y27029D01*
X61262Y26692D01*
X60786Y26216D01*
X60449Y25632D01*
X60290Y25038D01*
X62440D01*
Y27188D01*
D02*
G37*
G36*
X39605D02*
Y25038D01*
X41755D01*
X41596Y25632D01*
X41259Y26216D01*
X40783Y26692D01*
X40199Y27029D01*
X39605Y27188D01*
D02*
G37*
G36*
X38818D02*
X38224Y27029D01*
X37640Y26692D01*
X37164Y26216D01*
X36827Y25632D01*
X36667Y25038D01*
X38818D01*
Y27188D01*
D02*
G37*
G36*
X27794D02*
Y25038D01*
X29944D01*
X29785Y25632D01*
X29448Y26216D01*
X28972Y26692D01*
X28388Y27029D01*
X27794Y27188D01*
D02*
G37*
G36*
X27007D02*
X26413Y27029D01*
X25829Y26692D01*
X25353Y26216D01*
X25016Y25632D01*
X24857Y25038D01*
X27007D01*
Y27188D01*
D02*
G37*
G36*
X65377Y24251D02*
X63227D01*
Y22101D01*
X63821Y22260D01*
X64405Y22597D01*
X64881Y23073D01*
X65218Y23657D01*
X65377Y24251D01*
D02*
G37*
G36*
X62440D02*
X60290D01*
X60449Y23657D01*
X60786Y23073D01*
X61262Y22597D01*
X61846Y22260D01*
X62440Y22101D01*
Y24251D01*
D02*
G37*
G36*
X41755D02*
X39605D01*
Y22101D01*
X40199Y22260D01*
X40783Y22597D01*
X41259Y23073D01*
X41596Y23657D01*
X41755Y24251D01*
D02*
G37*
G36*
X38818D02*
X36667D01*
X36827Y23657D01*
X37164Y23073D01*
X37640Y22597D01*
X38224Y22260D01*
X38818Y22101D01*
Y24251D01*
D02*
G37*
G36*
X29944D02*
X27794D01*
Y22101D01*
X28388Y22260D01*
X28972Y22597D01*
X29448Y23073D01*
X29785Y23657D01*
X29944Y24251D01*
D02*
G37*
G36*
X27007D02*
X24857D01*
X25016Y23657D01*
X25353Y23073D01*
X25829Y22597D01*
X26413Y22260D01*
X27007Y22101D01*
Y24251D01*
D02*
G37*
G36*
X149092Y33937D02*
X147758D01*
X146450Y33677D01*
X145218Y33166D01*
X144108Y32425D01*
X143165Y31482D01*
X142424Y30373D01*
X141914Y29141D01*
X141654Y27832D01*
Y26498D01*
X141914Y25190D01*
X142424Y23958D01*
X143165Y22849D01*
X144108Y21905D01*
X145218Y21164D01*
X146450Y20654D01*
X147758Y20394D01*
X149092D01*
X150400Y20654D01*
X151633Y21164D01*
X152742Y21905D01*
X153685Y22849D01*
X154426Y23958D01*
X154937Y25190D01*
X155197Y26498D01*
Y27832D01*
X154937Y29141D01*
X154426Y30373D01*
X153685Y31482D01*
X152742Y32425D01*
X151633Y33166D01*
X150400Y33677D01*
X149092Y33937D01*
D02*
G37*
G36*
X12084D02*
X10750D01*
X9442Y33677D01*
X8210Y33166D01*
X7101Y32425D01*
X6157Y31482D01*
X5416Y30373D01*
X4906Y29141D01*
X4646Y27832D01*
Y26498D01*
X4906Y25190D01*
X5416Y23958D01*
X6157Y22849D01*
X7101Y21905D01*
X8210Y21164D01*
X9442Y20654D01*
X10750Y20394D01*
X12084D01*
X13393Y20654D01*
X14625Y21164D01*
X15734Y21905D01*
X16677Y22849D01*
X17418Y23958D01*
X17929Y25190D01*
X18189Y26498D01*
Y27832D01*
X17929Y29141D01*
X17418Y30373D01*
X16677Y31482D01*
X15734Y32425D01*
X14625Y33166D01*
X13393Y33677D01*
X12084Y33937D01*
D02*
G37*
G36*
X151810Y15377D02*
Y13227D01*
X153960D01*
X153801Y13821D01*
X153464Y14405D01*
X152987Y14881D01*
X152404Y15218D01*
X151810Y15377D01*
D02*
G37*
G36*
X151022D02*
X150428Y15218D01*
X149845Y14881D01*
X149368Y14405D01*
X149031Y13821D01*
X148872Y13227D01*
X151022D01*
Y15377D01*
D02*
G37*
G36*
X139999D02*
Y13227D01*
X142149D01*
X141990Y13821D01*
X141653Y14405D01*
X141176Y14881D01*
X140593Y15218D01*
X139999Y15377D01*
D02*
G37*
G36*
X139211D02*
X138617Y15218D01*
X138034Y14881D01*
X137557Y14405D01*
X137220Y13821D01*
X137061Y13227D01*
X139211D01*
Y15377D01*
D02*
G37*
G36*
X128188D02*
Y13227D01*
X130338D01*
X130179Y13821D01*
X129842Y14405D01*
X129365Y14881D01*
X128782Y15218D01*
X128188Y15377D01*
D02*
G37*
G36*
X127400D02*
X126806Y15218D01*
X126223Y14881D01*
X125746Y14405D01*
X125409Y13821D01*
X125250Y13227D01*
X127400D01*
Y15377D01*
D02*
G37*
G36*
X104566D02*
Y13227D01*
X106716D01*
X106557Y13821D01*
X106220Y14405D01*
X105743Y14881D01*
X105160Y15218D01*
X104566Y15377D01*
D02*
G37*
G36*
X92755D02*
Y13227D01*
X94905D01*
X94746Y13821D01*
X94409Y14405D01*
X93932Y14881D01*
X93349Y15218D01*
X92755Y15377D01*
D02*
G37*
G36*
X91967D02*
X91373Y15218D01*
X90790Y14881D01*
X90313Y14405D01*
X89976Y13821D01*
X89817Y13227D01*
X91967D01*
Y15377D01*
D02*
G37*
G36*
X80944D02*
Y13227D01*
X83094D01*
X82935Y13821D01*
X82598Y14405D01*
X82121Y14881D01*
X81538Y15218D01*
X80944Y15377D01*
D02*
G37*
G36*
X80156D02*
X79562Y15218D01*
X78979Y14881D01*
X78502Y14405D01*
X78165Y13821D01*
X78006Y13227D01*
X80156D01*
Y15377D01*
D02*
G37*
G36*
X57322D02*
Y13227D01*
X59472D01*
X59313Y13821D01*
X58976Y14405D01*
X58499Y14881D01*
X57916Y15218D01*
X57322Y15377D01*
D02*
G37*
G36*
X56534D02*
X55940Y15218D01*
X55357Y14881D01*
X54880Y14405D01*
X54543Y13821D01*
X54384Y13227D01*
X56534D01*
Y15377D01*
D02*
G37*
G36*
X45511D02*
Y13227D01*
X47661D01*
X47502Y13821D01*
X47165Y14405D01*
X46688Y14881D01*
X46105Y15218D01*
X45511Y15377D01*
D02*
G37*
G36*
X44723D02*
X44129Y15218D01*
X43546Y14881D01*
X43069Y14405D01*
X42732Y13821D01*
X42573Y13227D01*
X44723D01*
Y15377D01*
D02*
G37*
G36*
X21889D02*
Y13227D01*
X24039D01*
X23879Y13821D01*
X23543Y14405D01*
X23066Y14881D01*
X22483Y15218D01*
X21889Y15377D01*
D02*
G37*
G36*
X21101D02*
X20507Y15218D01*
X19924Y14881D01*
X19447Y14405D01*
X19110Y13821D01*
X18951Y13227D01*
X21101D01*
Y15377D01*
D02*
G37*
G36*
X10078D02*
Y13227D01*
X12228D01*
X12069Y13821D01*
X11732Y14405D01*
X11255Y14881D01*
X10672Y15218D01*
X10078Y15377D01*
D02*
G37*
G36*
X9290D02*
X8696Y15218D01*
X8112Y14881D01*
X7636Y14405D01*
X7299Y13821D01*
X7140Y13227D01*
X9290D01*
Y15377D01*
D02*
G37*
G36*
X59472Y12440D02*
X54384D01*
X54543Y11846D01*
X54568Y11803D01*
X54238Y11374D01*
X53782Y11496D01*
X52517D01*
X51296Y11169D01*
X50200Y10536D01*
X49306Y9642D01*
X48674Y8547D01*
X48346Y7325D01*
Y6061D01*
X48674Y4839D01*
X49306Y3744D01*
X50200Y2849D01*
X51296Y2217D01*
X52517Y1890D01*
X53782D01*
X55003Y2217D01*
X56099Y2849D01*
X56993Y3744D01*
X57625Y4839D01*
X57953Y6061D01*
Y7325D01*
X57625Y8547D01*
X56993Y9642D01*
X56861Y9774D01*
X57068Y10274D01*
X57265D01*
X57916Y10449D01*
X58499Y10786D01*
X58976Y11262D01*
X59313Y11846D01*
X59472Y12440D01*
D02*
G37*
G36*
X153960D02*
X151810D01*
Y10290D01*
X152404Y10449D01*
X152987Y10786D01*
X153464Y11262D01*
X153801Y11846D01*
X153960Y12440D01*
D02*
G37*
G36*
X151022D02*
X148872D01*
X149031Y11846D01*
X149368Y11262D01*
X149845Y10786D01*
X150428Y10449D01*
X151022Y10290D01*
Y12440D01*
D02*
G37*
G36*
X142149D02*
X139999D01*
Y10290D01*
X140593Y10449D01*
X141176Y10786D01*
X141653Y11262D01*
X141990Y11846D01*
X142149Y12440D01*
D02*
G37*
G36*
X139211D02*
X137061D01*
X137220Y11846D01*
X137557Y11262D01*
X138034Y10786D01*
X138617Y10449D01*
X139211Y10290D01*
Y12440D01*
D02*
G37*
G36*
X130338D02*
X128188D01*
Y10290D01*
X128782Y10449D01*
X129365Y10786D01*
X129842Y11262D01*
X130179Y11846D01*
X130338Y12440D01*
D02*
G37*
G36*
X127400D02*
X125250D01*
X125409Y11846D01*
X125746Y11262D01*
X126223Y10786D01*
X126806Y10449D01*
X127400Y10290D01*
Y12440D01*
D02*
G37*
G36*
X106716D02*
X104566D01*
Y10290D01*
X105160Y10449D01*
X105743Y10786D01*
X106220Y11262D01*
X106557Y11846D01*
X106716Y12440D01*
D02*
G37*
G36*
X94905D02*
X92755D01*
Y10290D01*
X93349Y10449D01*
X93932Y10786D01*
X94409Y11262D01*
X94746Y11846D01*
X94905Y12440D01*
D02*
G37*
G36*
X91967D02*
X89817D01*
X89976Y11846D01*
X90313Y11262D01*
X90790Y10786D01*
X91373Y10449D01*
X91967Y10290D01*
Y12440D01*
D02*
G37*
G36*
X83094D02*
X80944D01*
Y10290D01*
X81538Y10449D01*
X82121Y10786D01*
X82598Y11262D01*
X82935Y11846D01*
X83094Y12440D01*
D02*
G37*
G36*
X80156D02*
X78006D01*
X78165Y11846D01*
X78502Y11262D01*
X78979Y10786D01*
X79562Y10449D01*
X80156Y10290D01*
Y12440D01*
D02*
G37*
G36*
X47661D02*
X45511D01*
Y10290D01*
X46105Y10449D01*
X46688Y10786D01*
X47165Y11262D01*
X47502Y11846D01*
X47661Y12440D01*
D02*
G37*
G36*
X44723D02*
X42573D01*
X42732Y11846D01*
X43069Y11262D01*
X43546Y10786D01*
X44129Y10449D01*
X44723Y10290D01*
Y12440D01*
D02*
G37*
G36*
X24039D02*
X21889D01*
Y10290D01*
X22483Y10449D01*
X23066Y10786D01*
X23543Y11262D01*
X23879Y11846D01*
X24039Y12440D01*
D02*
G37*
G36*
X21101D02*
X18951D01*
X19110Y11846D01*
X19447Y11262D01*
X19924Y10786D01*
X20507Y10449D01*
X21101Y10290D01*
Y12440D01*
D02*
G37*
G36*
X12228D02*
X10078D01*
Y10290D01*
X10672Y10449D01*
X11255Y10786D01*
X11732Y11262D01*
X12069Y11846D01*
X12228Y12440D01*
D02*
G37*
G36*
X9290D02*
X7140D01*
X7299Y11846D01*
X7636Y11262D01*
X8112Y10786D01*
X8696Y10449D01*
X9290Y10290D01*
Y12440D01*
D02*
G37*
G36*
X35739Y12008D02*
X35433D01*
Y7086D01*
X40354D01*
Y7393D01*
X39992Y8744D01*
X39292Y9956D01*
X38303Y10946D01*
X37091Y11646D01*
X35739Y12008D01*
D02*
G37*
G36*
X34646D02*
X34340D01*
X32988Y11646D01*
X31776Y10946D01*
X30786Y9956D01*
X30087Y8744D01*
X29724Y7393D01*
Y7086D01*
X34646D01*
Y12008D01*
D02*
G37*
G36*
X123720Y9843D02*
X123543D01*
Y5906D01*
X127480D01*
Y6082D01*
X127185Y7183D01*
X126615Y8171D01*
X125809Y8977D01*
X124821Y9547D01*
X123720Y9843D01*
D02*
G37*
G36*
X122756D02*
X122580D01*
X121478Y9547D01*
X120491Y8977D01*
X119684Y8171D01*
X119114Y7183D01*
X118819Y6082D01*
Y5906D01*
X122756D01*
Y9843D01*
D02*
G37*
G36*
X72680Y11890D02*
X71415D01*
X70193Y11562D01*
X69098Y10930D01*
X68204Y10036D01*
X67571Y8941D01*
X67244Y7719D01*
Y6454D01*
X67571Y5233D01*
X68204Y4137D01*
X69098Y3243D01*
X70193Y2611D01*
X71415Y2283D01*
X72680D01*
X73901Y2611D01*
X74997Y3243D01*
X75891Y4137D01*
X76523Y5233D01*
X76850Y6454D01*
Y7719D01*
X76523Y8941D01*
X75891Y10036D01*
X74997Y10930D01*
X73901Y11562D01*
X72680Y11890D01*
D02*
G37*
G36*
X113652Y9331D02*
X112647D01*
X111676Y9070D01*
X110805Y8568D01*
X110094Y7857D01*
X109591Y6986D01*
X109331Y6015D01*
Y5009D01*
X109591Y4038D01*
X110094Y3167D01*
X110805Y2456D01*
X111676Y1953D01*
X112647Y1693D01*
X113652D01*
X114624Y1953D01*
X115495Y2456D01*
X116206Y3167D01*
X116708Y4038D01*
X116969Y5009D01*
Y6015D01*
X116708Y6986D01*
X116206Y7857D01*
X115495Y8568D01*
X114624Y9070D01*
X113652Y9331D01*
D02*
G37*
G36*
X103652D02*
X102647D01*
X101676Y9070D01*
X100805Y8568D01*
X100094Y7857D01*
X99591Y6986D01*
X99331Y6015D01*
Y5009D01*
X99591Y4038D01*
X100094Y3167D01*
X100805Y2456D01*
X101676Y1953D01*
X102647Y1693D01*
X103652D01*
X104624Y1953D01*
X105494Y2456D01*
X106205Y3167D01*
X106708Y4038D01*
X106968Y5009D01*
Y6015D01*
X106708Y6986D01*
X106205Y7857D01*
X105494Y8568D01*
X104624Y9070D01*
X103652Y9331D01*
D02*
G37*
G36*
X40354Y6299D02*
X35433D01*
Y1378D01*
X35739D01*
X37091Y1740D01*
X38303Y2440D01*
X39292Y3430D01*
X39992Y4641D01*
X40354Y5993D01*
Y6299D01*
D02*
G37*
G36*
X34646D02*
X29724D01*
Y5993D01*
X30087Y4641D01*
X30786Y3430D01*
X31776Y2440D01*
X32988Y1740D01*
X34340Y1378D01*
X34646D01*
Y6299D01*
D02*
G37*
G36*
X127480Y5118D02*
X123543D01*
Y1181D01*
X123720D01*
X124821Y1476D01*
X125809Y2046D01*
X126615Y2853D01*
X127185Y3840D01*
X127480Y4942D01*
Y5118D01*
D02*
G37*
G36*
X122756D02*
X118819D01*
Y4942D01*
X119114Y3840D01*
X119684Y2853D01*
X120491Y2046D01*
X121478Y1476D01*
X122580Y1181D01*
X122756D01*
Y5118D01*
D02*
G37*
%LPD*%
G36*
X66358Y174724D02*
X67412D01*
Y173228D01*
X67412Y173228D01*
X67526Y172660D01*
X67847Y172178D01*
X70997Y169028D01*
X70997Y169028D01*
X71479Y168707D01*
X72047Y168594D01*
X72047Y168594D01*
X95638D01*
X98612Y165619D01*
X98425Y165169D01*
Y160630D01*
Y156102D01*
X98427D01*
X98619Y155640D01*
X89542Y146564D01*
X87677D01*
Y146732D01*
X87214D01*
Y156614D01*
X88760D01*
Y164646D01*
X83681D01*
Y161714D01*
X74193D01*
Y164646D01*
X69114D01*
Y156614D01*
X74193D01*
Y159546D01*
X83681D01*
Y156614D01*
X84243D01*
Y146732D01*
X82795D01*
Y143425D01*
X82540Y143031D01*
X78313D01*
X78187Y142979D01*
X78051Y142958D01*
X78012Y142906D01*
X77952Y142881D01*
X77901Y142757D01*
X77899Y142754D01*
X77817Y142644D01*
X77399Y142458D01*
X77256Y142535D01*
X76053Y142900D01*
X74803Y143023D01*
X73553Y142900D01*
X72351Y142535D01*
X71243Y141943D01*
X70271Y141146D01*
X69267Y140142D01*
X68471Y139171D01*
X68394Y139027D01*
X67894Y139152D01*
Y145354D01*
X66438D01*
Y153642D01*
X66438Y153642D01*
X66356Y154057D01*
X66121Y154408D01*
X66121Y154408D01*
X62382Y158147D01*
Y164646D01*
X57303D01*
Y161714D01*
X49784D01*
Y163602D01*
X50283Y163925D01*
X50629Y163833D01*
Y166377D01*
Y168921D01*
X50035Y168761D01*
X49451Y168424D01*
X48975Y167948D01*
X48828Y167694D01*
X48328Y167828D01*
Y172736D01*
X48328Y172736D01*
X48245Y173151D01*
X48011Y173503D01*
X48010Y173503D01*
X45748Y175765D01*
Y178834D01*
X54547D01*
Y174724D01*
X59626D01*
Y181223D01*
X60682Y182279D01*
X66358D01*
Y174724D01*
D02*
G37*
G36*
X122441Y139252D02*
X118898D01*
Y135906D01*
Y132559D01*
X122441D01*
Y105118D01*
X77774D01*
X77505Y105584D01*
X76647Y106442D01*
X75597Y107048D01*
X74425Y107362D01*
X73212D01*
X72041Y107048D01*
X70991Y106442D01*
X70133Y105584D01*
X69864Y105118D01*
X52559D01*
Y107992D01*
X47638D01*
Y104646D01*
X46850D01*
Y107992D01*
X41929D01*
Y105118D01*
X35512D01*
Y107559D01*
X32590D01*
X32301Y108059D01*
X32489Y108385D01*
X32669Y109055D01*
X29921D01*
Y109843D01*
X32669D01*
X32489Y110513D01*
X32127Y111141D01*
X31672Y111595D01*
X31713Y111841D01*
X31850Y112095D01*
X57150D01*
X58400Y112218D01*
X59602Y112583D01*
X60710Y113175D01*
X61681Y113972D01*
X78331Y130622D01*
X79128Y131593D01*
X79492Y132274D01*
X80132Y133054D01*
X80724Y134162D01*
X81089Y135364D01*
X81212Y136614D01*
X81089Y137864D01*
X80724Y139067D01*
X80132Y140175D01*
X79335Y141146D01*
X78364Y141943D01*
X78192Y142035D01*
X78313Y142520D01*
X91339D01*
Y141732D01*
X97244D01*
Y142520D01*
X122441D01*
Y139252D01*
D02*
G37*
G36*
X62815Y137323D02*
X66252D01*
X66443Y136861D01*
X54495Y124913D01*
X25197D01*
Y136352D01*
X25295Y136811D01*
X27953D01*
Y141339D01*
X28346D01*
Y141733D01*
X31398D01*
Y142520D01*
X37618D01*
Y137323D01*
X42697D01*
Y140255D01*
X51004D01*
Y137323D01*
X56083D01*
Y142520D01*
X62815D01*
Y137323D01*
D02*
G37*
%LPC*%
G36*
X51416Y168921D02*
Y166770D01*
X53566D01*
X53407Y167365D01*
X53070Y167948D01*
X52594Y168424D01*
X52010Y168761D01*
X51416Y168921D01*
D02*
G37*
G36*
X53566Y165983D02*
X51416D01*
Y163833D01*
X52010Y163992D01*
X52594Y164329D01*
X53070Y164805D01*
X53407Y165389D01*
X53566Y165983D01*
D02*
G37*
G36*
X97638Y165157D02*
X94980D01*
Y161024D01*
X97638D01*
Y165157D01*
D02*
G37*
G36*
Y160236D02*
X94980D01*
Y156592D01*
X94980Y156588D01*
X94980Y156588D01*
X94980Y156558D01*
X94489Y156126D01*
X94409Y156137D01*
X94366Y156180D01*
X93932Y156613D01*
X93349Y156950D01*
X92755Y157109D01*
Y154959D01*
X94905D01*
X94797Y155363D01*
X94746Y155553D01*
X94761Y155627D01*
X94817Y155804D01*
X94919Y156019D01*
X94977Y156075D01*
X95370Y156102D01*
X95462Y156102D01*
X97638D01*
Y160236D01*
D02*
G37*
G36*
X91967Y157109D02*
X91373Y156950D01*
X90790Y156613D01*
X90313Y156137D01*
X89976Y155553D01*
X89817Y154959D01*
X91967D01*
Y157109D01*
D02*
G37*
G36*
X80944D02*
Y154959D01*
X83094D01*
X82935Y155553D01*
X82598Y156137D01*
X82121Y156613D01*
X81538Y156950D01*
X80944Y157109D01*
D02*
G37*
G36*
X80156D02*
X79562Y156950D01*
X78979Y156613D01*
X78502Y156137D01*
X78165Y155553D01*
X78006Y154959D01*
X80156D01*
Y157109D01*
D02*
G37*
G36*
X94905Y154172D02*
X92755D01*
Y152022D01*
X93349Y152181D01*
X93932Y152518D01*
X94409Y152994D01*
X94746Y153578D01*
X94905Y154172D01*
D02*
G37*
G36*
X91967D02*
X89817D01*
X89976Y153578D01*
X90313Y152994D01*
X90790Y152518D01*
X91373Y152181D01*
X91967Y152022D01*
Y154172D01*
D02*
G37*
G36*
X83094D02*
X80944D01*
Y152022D01*
X81538Y152181D01*
X82121Y152518D01*
X82598Y152994D01*
X82935Y153578D01*
X83094Y154172D01*
D02*
G37*
G36*
X80156D02*
X78006D01*
X78165Y153578D01*
X78502Y152994D01*
X78979Y152518D01*
X79562Y152181D01*
X80156Y152022D01*
Y154172D01*
D02*
G37*
G36*
X93898Y140945D02*
X91339D01*
Y139173D01*
X93898D01*
Y140945D01*
D02*
G37*
G36*
X98032Y139362D02*
Y137008D01*
X100385D01*
X100206Y137678D01*
X99843Y138306D01*
X99330Y138819D01*
X98702Y139182D01*
X98032Y139362D01*
D02*
G37*
G36*
X97244Y140945D02*
X94685D01*
Y139173D01*
X95593D01*
X95799Y138673D01*
X95433Y138306D01*
X95070Y137678D01*
X94890Y137008D01*
X97244D01*
Y139394D01*
X97244Y139394D01*
Y140945D01*
D02*
G37*
G36*
X118110Y139252D02*
X113189D01*
Y136299D01*
X118110D01*
Y139252D01*
D02*
G37*
G36*
X87677D02*
X82795D01*
Y135945D01*
X87677D01*
Y139252D01*
D02*
G37*
G36*
X100385Y136221D02*
X98032D01*
Y133867D01*
X98702Y134046D01*
X99330Y134409D01*
X99843Y134922D01*
X100206Y135550D01*
X100385Y136221D01*
D02*
G37*
G36*
X97244D02*
X94890D01*
X95070Y135550D01*
X95433Y134922D01*
X95946Y134409D01*
X96574Y134046D01*
X97244Y133867D01*
Y136221D01*
D02*
G37*
G36*
X118110Y135512D02*
X113189D01*
Y132559D01*
X118110D01*
Y135512D01*
D02*
G37*
G36*
X64370Y111811D02*
X62598D01*
Y109252D01*
X64370D01*
Y111811D01*
D02*
G37*
G36*
X61811D02*
X60039D01*
Y109252D01*
X61811D01*
Y111811D01*
D02*
G37*
G36*
X64370Y108465D02*
X62598D01*
Y105905D01*
X64370D01*
Y108465D01*
D02*
G37*
G36*
X61811D02*
X60039D01*
Y105905D01*
X61811D01*
Y108465D01*
D02*
G37*
G36*
X31398Y140945D02*
X28740D01*
Y136811D01*
X31398D01*
Y140945D01*
D02*
G37*
G36*
X33071Y131488D02*
Y129134D01*
X35425D01*
X35245Y129804D01*
X34882Y130432D01*
X34369Y130945D01*
X33741Y131308D01*
X33071Y131488D01*
D02*
G37*
G36*
X32283D02*
X31613Y131308D01*
X30985Y130945D01*
X30472Y130432D01*
X30109Y129804D01*
X29930Y129134D01*
X32283D01*
Y131488D01*
D02*
G37*
G36*
X35425Y128347D02*
X33071D01*
Y125993D01*
X33741Y126172D01*
X34369Y126535D01*
X34882Y127048D01*
X35245Y127676D01*
X35425Y128347D01*
D02*
G37*
G36*
X32283D02*
X29930D01*
X30109Y127676D01*
X30472Y127048D01*
X30985Y126535D01*
X31613Y126172D01*
X32283Y125993D01*
Y128347D01*
D02*
G37*
%LPD*%
D12*
X92520Y177264D02*
Y178740D01*
Y177264D02*
X93996Y175787D01*
X98228D01*
X101181Y172835D01*
X58169Y92028D02*
Y95768D01*
X58465Y96063D01*
X56693Y90551D02*
X58169Y92028D01*
X58465Y96063D02*
Y99803D01*
X27559Y63386D02*
X33661D01*
X41046Y56001D01*
Y55023D02*
Y56001D01*
X40354Y54331D02*
X41046Y55023D01*
X35039Y54331D02*
X40354D01*
X54331Y91811D02*
X55433D01*
X56693Y90551D01*
X49213Y86693D02*
X54331Y91811D01*
X47244Y86693D02*
X49213D01*
X60233Y183363D02*
X77562D01*
X57087Y180217D02*
X60233Y183363D01*
X77562D02*
X80709Y180217D01*
X57087Y178740D02*
Y180217D01*
X80709Y178740D02*
Y180217D01*
X106102Y178740D02*
X107480Y180118D01*
Y180315D01*
X92520Y178740D02*
X106102D01*
X71653Y160630D02*
X86221D01*
X36614Y176772D02*
Y177657D01*
X38875Y179918D02*
X55908D01*
X36614Y177657D02*
X38875Y179918D01*
X55908D02*
X57087Y178740D01*
X47244Y160630D02*
Y172736D01*
X44094Y175886D02*
X47244Y172736D01*
X44094Y175886D02*
Y176772D01*
X47244Y160630D02*
X59842D01*
X65354Y141339D02*
Y153642D01*
X59842Y159153D02*
X65354Y153642D01*
X59842Y159153D02*
Y160630D01*
X40157Y141339D02*
X53543D01*
D14*
X5906Y48425D02*
D03*
Y68110D02*
D03*
X16929Y58268D02*
D03*
D16*
X105709Y164764D02*
D03*
Y157283D02*
D03*
X114764Y161024D02*
D03*
X94291Y141339D02*
D03*
X85236Y137598D02*
D03*
Y145079D02*
D03*
D17*
X57087Y178740D02*
D03*
X68898D02*
D03*
X98032Y160630D02*
D03*
X86221D02*
D03*
X80709Y178740D02*
D03*
X92520D02*
D03*
X59842Y160630D02*
D03*
X71653D02*
D03*
X47244D02*
D03*
X35433D02*
D03*
X65354Y141339D02*
D03*
X53543D02*
D03*
X68504Y90551D02*
D03*
X56693D02*
D03*
X28346Y141339D02*
D03*
X40157D02*
D03*
D18*
X111417Y171653D02*
D03*
X107480Y180315D02*
D03*
X115354D02*
D03*
D19*
X36614Y176772D02*
D03*
X44094D02*
D03*
X40354Y185827D02*
D03*
D20*
X35039Y54331D02*
D03*
Y42520D02*
D03*
D21*
X27559Y63386D02*
D03*
Y69685D02*
D03*
D22*
X62205Y108858D02*
D03*
X65945Y99803D02*
D03*
X58465D02*
D03*
D23*
X47244Y104646D02*
D03*
Y86693D02*
D03*
X118504Y153858D02*
D03*
Y135906D02*
D03*
D24*
X22441Y95669D02*
D03*
X143307Y144882D02*
D03*
D26*
X118504Y52756D02*
D03*
D27*
Y72441D02*
D03*
D28*
X5906Y136614D02*
D03*
X4921Y102756D02*
D03*
D29*
X74803Y136614D02*
D03*
X73819Y102756D02*
D03*
D30*
X153150Y65630D02*
D03*
D31*
Y55630D02*
D03*
X103150Y5512D02*
D03*
X113150D02*
D03*
X123150D02*
D03*
D32*
X53150Y6693D02*
D03*
X72047Y7087D02*
D03*
X35039Y6693D02*
D03*
D33*
X93150Y5512D02*
D03*
D34*
X15748Y148031D02*
D03*
X131496Y181890D02*
D03*
X131102Y50000D02*
D03*
D35*
X15748Y118504D02*
Y126772D01*
Y101181D02*
Y118504D01*
X57150D01*
X73799Y135153D01*
Y135610D01*
X74803Y136614D01*
X15748Y101181D02*
X21260Y95669D01*
X22441D01*
D36*
X107874Y69685D02*
X109843Y71653D01*
X27559Y69685D02*
X107874D01*
X117717Y71653D02*
X118504Y72441D01*
X109843Y71653D02*
X117717D01*
X5906Y136614D02*
X15748Y126772D01*
X142126Y144882D02*
X143307D01*
X127953Y159055D02*
X142126Y144882D01*
X127953Y159055D02*
Y162598D01*
X14567Y65748D02*
X24016Y75197D01*
X101575D02*
X126378Y100000D01*
X24016Y75197D02*
X101575D01*
X118504Y153858D02*
X120473D01*
X126378Y147953D01*
Y100000D02*
Y147953D01*
X6693Y68110D02*
X9055Y65748D01*
X14567D01*
X5906Y68110D02*
X6693D01*
D37*
X133465Y67295D02*
Y127559D01*
X112992Y66142D02*
X132311D01*
X133465Y67295D01*
X100000Y53150D02*
X112992Y66142D01*
X100000Y12362D02*
Y53150D01*
X68898Y173228D02*
Y178740D01*
Y173228D02*
X72047Y170079D01*
X96253D02*
X101568Y164764D01*
X72047Y170079D02*
X96253D01*
X101568Y164764D02*
X105709D01*
X118307Y154055D02*
Y170276D01*
Y154055D02*
X118504Y153858D01*
X116929Y171653D02*
X118307Y170276D01*
X111417Y171653D02*
X116929D01*
X101181Y186221D02*
X101482Y186522D01*
X103057D01*
X103543Y187008D01*
X123622D01*
X93150Y5512D02*
X100000Y12362D01*
X8569Y58360D02*
X9750D01*
X8268Y58661D02*
X8569Y58360D01*
X9750D02*
X9843Y58268D01*
X16929D01*
X85532Y145079D02*
X90158D01*
X85236D02*
X85532D01*
X111417Y165263D02*
Y171653D01*
X90158Y145079D02*
X101555Y156476D01*
Y158340D02*
X105086Y161870D01*
X108025D01*
X111417Y165263D01*
X101555Y156476D02*
Y158340D01*
X112992Y179527D02*
X114764D01*
X105709Y172244D02*
X112992Y179527D01*
X105709Y164764D02*
Y172244D01*
X114764Y179527D02*
X115354Y180118D01*
Y180315D01*
X85532Y145079D02*
X85728Y145276D01*
Y160138D01*
X86221Y160630D01*
X110630Y142126D02*
Y156890D01*
X109843Y141339D02*
X110630Y142126D01*
Y156890D02*
X113779Y160039D01*
D38*
X29921Y109449D02*
D03*
X32677Y128740D02*
D03*
X97638Y136614D02*
D03*
X101181Y172835D02*
D03*
X127953Y162598D02*
D03*
X133465Y127559D02*
D03*
X101181Y186221D02*
D03*
X123622Y187008D02*
D03*
X8268Y58661D02*
D03*
D39*
X157322Y166377D02*
D03*
X151416Y12833D02*
D03*
X145511Y189999D02*
D03*
X139605Y60078D02*
D03*
Y12833D02*
D03*
X133700Y189999D02*
D03*
X127794Y178188D02*
D03*
Y60078D02*
D03*
Y12833D02*
D03*
X115983Y60078D02*
D03*
X104172Y12833D02*
D03*
X98267Y189999D02*
D03*
X92361Y154566D02*
D03*
X98267Y95511D02*
D03*
X92361Y12833D02*
D03*
X86456Y189999D02*
D03*
X80550Y154566D02*
D03*
X86456Y95511D02*
D03*
X80550Y83700D02*
D03*
X86456Y48267D02*
D03*
X80550Y12833D02*
D03*
X74644Y95511D02*
D03*
X68739Y83700D02*
D03*
X62833Y95511D02*
D03*
X56928Y83700D02*
D03*
Y60078D02*
D03*
Y36456D02*
D03*
X62833Y24645D02*
D03*
X56928Y12833D02*
D03*
X51022Y166377D02*
D03*
X45117Y154566D02*
D03*
X51022Y95511D02*
D03*
X45117Y36456D02*
D03*
Y12833D02*
D03*
X33306Y178188D02*
D03*
X39211Y95511D02*
D03*
Y48267D02*
D03*
X33306Y36456D02*
D03*
X39211Y24645D02*
D03*
X27400Y189999D02*
D03*
X21495Y178188D02*
D03*
X27400Y166377D02*
D03*
X21495Y154566D02*
D03*
X27400Y48267D02*
D03*
X21495Y36456D02*
D03*
X27400Y24645D02*
D03*
X21495Y12833D02*
D03*
X15589Y189999D02*
D03*
X9684Y154566D02*
D03*
X15589Y142755D02*
D03*
Y48267D02*
D03*
X9684Y12833D02*
D03*
M02*
