G04*
G04 #@! TF.GenerationSoftware,Altium Limited,Altium Designer,22.2.1 (43)*
G04*
G04 Layer_Color=255*
%FSLAX25Y25*%
%MOIN*%
G70*
G04*
G04 #@! TF.SameCoordinates,5435AC76-14FC-4701-A4E6-3609E34239AB*
G04*
G04*
G04 #@! TF.FilePolarity,Positive*
G04*
G01*
G75*
%ADD17R,0.04134X0.07087*%
%ADD20R,0.07087X0.04134*%
%ADD26C,0.05512*%
%ADD27R,0.05512X0.05512*%
%ADD28R,0.08268X0.08268*%
%ADD29C,0.08268*%
%ADD30R,0.06693X0.06693*%
%ADD31C,0.06693*%
%ADD32C,0.08661*%
%ADD33R,0.06693X0.06693*%
%ADD40R,0.16142X0.08268*%
%ADD41R,0.07480X0.05118*%
%ADD42R,0.05906X0.02362*%
%ADD43R,0.06890X0.04331*%
%ADD44R,0.04724X0.07087*%
%ADD45R,0.07087X0.04724*%
%ADD46R,0.12402X0.08661*%
D17*
X88976Y167717D02*
D03*
X77165D02*
D03*
X51968Y187008D02*
D03*
X63779D02*
D03*
X52362Y178740D02*
D03*
X64173D02*
D03*
D20*
X60236Y169291D02*
D03*
Y157480D02*
D03*
D26*
X118504Y52756D02*
D03*
D27*
Y72441D02*
D03*
D28*
X5906Y136614D02*
D03*
X4921Y102756D02*
D03*
D29*
X74803Y136614D02*
D03*
X73819Y102756D02*
D03*
D30*
X153150Y65630D02*
D03*
D31*
Y55630D02*
D03*
X103150Y5512D02*
D03*
X113150D02*
D03*
X123150D02*
D03*
D32*
X53150Y6693D02*
D03*
X72047Y7087D02*
D03*
X35039Y6693D02*
D03*
D33*
X93150Y5512D02*
D03*
D40*
X101772Y111811D02*
D03*
X135236D02*
D03*
D41*
X106693Y63583D02*
D03*
Y52165D02*
D03*
D42*
X71850Y175177D02*
D03*
Y180177D02*
D03*
Y185177D02*
D03*
Y190177D02*
D03*
X92716D02*
D03*
Y185177D02*
D03*
Y180177D02*
D03*
Y175177D02*
D03*
D43*
X108661Y162598D02*
D03*
X119488Y168110D02*
D03*
X108661D02*
D03*
X119488Y162598D02*
D03*
D44*
X99803Y179134D02*
D03*
X111221D02*
D03*
D45*
X92520Y63583D02*
D03*
Y52165D02*
D03*
D46*
X70079Y71260D02*
D03*
Y43701D02*
D03*
M02*
