%TF.GenerationSoftware,Altium Limited,Altium Designer,25.2.1 (25)*%
G04 Layer_Color=0*
%FSLAX45Y45*%
%MOMM*%
%TF.SameCoordinates,EF3F7739-EB0C-4DF3-8AA3-BEF7F1336093*%
%TF.FilePolarity,Positive*%
%TF.FileFunction,Plated,1,2,PTH,Drill*%
%TF.Part,Single*%
G01*
G75*
%TA.AperFunction,ComponentDrill*%
%ADD130C,0.85000*%
%ADD131C,0.81000*%
%ADD132C,1.85000*%
%ADD133C,1.60000*%
%ADD134C,1.60000*%
%ADD135C,0.69000*%
%ADD136C,1.10000*%
%ADD137C,1.50000*%
%ADD138C,0.80000*%
%ADD139C,1.10000*%
%TA.AperFunction,ViaDrill,NotFilled*%
%ADD140C,0.30000*%
D130*
X10833000Y2609201D02*
D03*
Y2863201D02*
D03*
X6007000Y1186801D02*
D03*
Y424801D02*
D03*
X10833000Y3625201D02*
D03*
X6007000Y678801D02*
D03*
Y932801D02*
D03*
Y1440801D02*
D03*
Y1694801D02*
D03*
Y1948801D02*
D03*
Y2202801D02*
D03*
Y2456801D02*
D03*
Y3117201D02*
D03*
Y2710801D02*
D03*
Y3371201D02*
D03*
Y3625201D02*
D03*
Y3879201D02*
D03*
Y4133201D02*
D03*
Y4387201D02*
D03*
Y4641201D02*
D03*
X10833000Y4895201D02*
D03*
X6007000D02*
D03*
X10833000Y4641201D02*
D03*
Y4387201D02*
D03*
Y4133201D02*
D03*
Y3879201D02*
D03*
Y3117201D02*
D03*
Y2355201D02*
D03*
Y2101201D02*
D03*
Y1847201D02*
D03*
Y1593201D02*
D03*
Y1339201D02*
D03*
D131*
X203925Y6214128D02*
D03*
Y5960128D02*
D03*
Y5706128D02*
D03*
Y5452128D02*
D03*
Y5198128D02*
D03*
D132*
X399925Y7870127D02*
D03*
Y8340127D02*
D03*
Y8810127D02*
D03*
X1509553Y1402178D02*
D03*
Y932178D02*
D03*
Y462178D02*
D03*
X4870000Y3547732D02*
D03*
Y3077732D02*
D03*
Y2607732D02*
D03*
X4705628Y1408051D02*
D03*
Y938051D02*
D03*
Y468051D02*
D03*
X3105628Y462151D02*
D03*
Y932151D02*
D03*
Y1402151D02*
D03*
X3450000Y3540000D02*
D03*
Y3070000D02*
D03*
Y2600000D02*
D03*
D133*
X1140000Y2600000D02*
D03*
Y3300000D02*
D03*
Y4000000D02*
D03*
X9150000Y7360000D02*
D03*
X6750000Y7990000D02*
D03*
X11340000Y5630000D02*
D03*
X4080000Y9320000D02*
D03*
X2990000Y4140000D02*
D03*
X10090000Y7240000D02*
D03*
X6946000Y10236000D02*
D03*
X7730000Y6170000D02*
D03*
X213925Y6644127D02*
D03*
D134*
X1579925Y9810127D02*
D03*
X4582746Y5272729D02*
D03*
X3470000Y5980000D02*
D03*
D135*
X5090000Y4970000D02*
D03*
X4836000Y4716000D02*
D03*
X5090000Y4462000D02*
D03*
D136*
X10398000Y858233D02*
D03*
Y604233D02*
D03*
X10144000Y858233D02*
D03*
Y604233D02*
D03*
X9890000Y858233D02*
D03*
Y604233D02*
D03*
X9636000Y858233D02*
D03*
X9382000D02*
D03*
X9636000Y604233D02*
D03*
X9382000D02*
D03*
X6806000Y8429000D02*
D03*
Y8683000D02*
D03*
X7255999Y8429000D02*
D03*
Y8683000D02*
D03*
D137*
X3150000Y9850000D02*
D03*
Y11600000D02*
D03*
X5051700Y9850000D02*
D03*
Y11600000D02*
D03*
D138*
X1864000Y8804000D02*
D03*
Y8304000D02*
D03*
D139*
X11313000Y2750000D02*
D03*
X11567000D02*
D03*
X6445180Y5680420D02*
D03*
X6191180D02*
D03*
D140*
X9770000Y9170000D02*
D03*
X3930000Y11100000D02*
D03*
X3940000Y10860000D02*
D03*
X2990000Y7000000D02*
D03*
X3080000Y6610000D02*
D03*
X3550000Y7480000D02*
D03*
X5598580Y7640000D02*
D03*
X2909980Y6730000D02*
D03*
X7920000Y11170000D02*
D03*
X5890000Y10570000D02*
D03*
X5590000Y10590000D02*
D03*
X2650000Y11010000D02*
D03*
X4480000Y11130000D02*
D03*
X2211693Y11320000D02*
D03*
X1960000Y11320000D02*
D03*
X1843214Y11151047D02*
D03*
X6110000Y8500000D02*
D03*
X4460000Y8900000D02*
D03*
X4230000Y8650000D02*
D03*
X4090000Y8640000D02*
D03*
X4617576Y8860000D02*
D03*
X4430000Y8750000D02*
D03*
X5090000Y9070000D02*
D03*
X5030000Y8500000D02*
D03*
X5257948Y8535642D02*
D03*
X5333931Y8293575D02*
D03*
X5610000Y8160000D02*
D03*
X5790000Y8400000D02*
D03*
X5870000Y8090000D02*
D03*
X5710000D02*
D03*
X6370000Y8500000D02*
D03*
X5530000Y7890000D02*
D03*
X6060000Y6370000D02*
D03*
X6840000Y6510000D02*
D03*
X6815283Y6767575D02*
D03*
X6925000Y6280000D02*
D03*
X6093563Y6558384D02*
D03*
X11410000Y2390000D02*
D03*
X5560000Y480000D02*
D03*
X2110000Y3920000D02*
D03*
X2120000Y1680000D02*
D03*
X2920000Y5270000D02*
D03*
X4840000Y8580000D02*
D03*
X4680000Y8500000D02*
D03*
X2330000Y6262359D02*
D03*
X1220000Y6670000D02*
D03*
X1340000Y6340000D02*
D03*
Y6550000D02*
D03*
X1860000Y5880000D02*
D03*
X1210000Y6030000D02*
D03*
X1380000Y7080000D02*
D03*
X1968987Y10219268D02*
D03*
X2087794Y10119718D02*
D03*
X2230000Y10420000D02*
D03*
X2320000Y10370000D02*
D03*
X2580000Y10170000D02*
D03*
X2460000Y11030000D02*
D03*
X610000Y10460000D02*
D03*
X1020000Y10830000D02*
D03*
X8440000Y5740000D02*
D03*
X7590000Y8430000D02*
D03*
X8820000Y8260000D02*
D03*
X9190000Y8630000D02*
D03*
X10890000Y9150000D02*
D03*
X10620000Y9480000D02*
D03*
X11380000Y8230000D02*
D03*
X11530000Y9610000D02*
D03*
Y9010000D02*
D03*
X11650000Y8960000D02*
D03*
X11400000Y9720000D02*
D03*
X11700000Y9710000D02*
D03*
X11790000Y9560000D02*
D03*
X11160000Y9500000D02*
D03*
X11360000D02*
D03*
X10846967Y9513033D02*
D03*
X11150000Y9800000D02*
D03*
X11018299Y9780000D02*
D03*
X10880000Y9870000D02*
D03*
X10728442Y9619887D02*
D03*
X11820000Y10490000D02*
D03*
X11471695Y11384636D02*
D03*
X11480000Y11290000D02*
D03*
X10540000Y11010000D02*
D03*
Y10770000D02*
D03*
X9760000Y10700000D02*
D03*
X8750000Y11300000D02*
D03*
X8440000Y11100000D02*
D03*
X9030000Y9800000D02*
D03*
X8770000Y10290000D02*
D03*
X8300000Y10100000D02*
D03*
X8270000Y9800000D02*
D03*
X10070000Y10160000D02*
D03*
X10280000Y9830000D02*
D03*
X10330000Y9500000D02*
D03*
X10170000Y9020000D02*
D03*
X10460000Y9000000D02*
D03*
X10050000Y8850000D02*
D03*
X10040000Y8520000D02*
D03*
X10590000Y7850000D02*
D03*
X11410000Y7650000D02*
D03*
Y7010000D02*
D03*
X11430000Y6350000D02*
D03*
X7010000Y7340000D02*
D03*
X8480000Y6940000D02*
D03*
X8370000Y6840000D02*
D03*
X7890000Y6690000D02*
D03*
X4020000Y6430000D02*
D03*
X4040000Y6720000D02*
D03*
X3670000Y6800000D02*
D03*
X3830000Y6810000D02*
D03*
X2860000Y6280000D02*
D03*
X2950000Y6360000D02*
D03*
X1960000Y6540000D02*
D03*
X2160000Y6630000D02*
D03*
X4060000Y5080000D02*
D03*
X3460000D02*
D03*
X2928925Y4690557D02*
D03*
X1240000Y4660000D02*
D03*
X1100000Y5110000D02*
D03*
X2340000Y5080000D02*
D03*
X1730000Y5090000D02*
D03*
X5210000Y2900000D02*
D03*
X5480000Y2720000D02*
D03*
X5620000Y2430000D02*
D03*
X5530000Y2590000D02*
D03*
X5560000Y1060000D02*
D03*
X3810000Y1120000D02*
D03*
X5780000Y900000D02*
D03*
Y770000D02*
D03*
Y640000D02*
D03*
X4150000Y890000D02*
D03*
Y630000D02*
D03*
Y760000D02*
D03*
X3940000Y470000D02*
D03*
X2556460Y874776D02*
D03*
X2340000Y470000D02*
D03*
X2560000Y620000D02*
D03*
Y750000D02*
D03*
X2220000Y1130000D02*
D03*
X7730000Y6750000D02*
D03*
X2160000Y6500000D02*
D03*
X2320000Y6540000D02*
D03*
X10590000Y1300000D02*
D03*
X5320000Y3860000D02*
D03*
X5610000Y5670000D02*
D03*
X5630000Y4010000D02*
D03*
X11760000Y7950000D02*
D03*
X11826116Y10078890D02*
D03*
X11583535Y10043536D02*
D03*
X11580000Y10520000D02*
D03*
X10030000Y9990000D02*
D03*
X7930000Y4850000D02*
D03*
X11208737Y10259500D02*
D03*
X5410000Y7340000D02*
D03*
X11370000Y8702300D02*
D03*
X11230000Y8775000D02*
D03*
X10910000Y8825434D02*
D03*
X11970000Y8540000D02*
D03*
X11630000Y6830000D02*
D03*
X11305017Y10304509D02*
D03*
X11050000Y9150000D02*
D03*
X10819000Y11137929D02*
D03*
X5140000Y10160000D02*
D03*
X1200000Y11250000D02*
D03*
X1510000Y11360000D02*
D03*
X6600000Y7430000D02*
D03*
X6810000Y7490000D02*
D03*
X6360000Y4920000D02*
D03*
Y3840000D02*
D03*
X5900000Y2870000D02*
D03*
X5640000Y2840000D02*
D03*
X5455387Y3471219D02*
D03*
X5582911Y2920000D02*
D03*
X5990000Y2950000D02*
D03*
X2420000Y5870000D02*
D03*
X2430000Y5210000D02*
D03*
X2520000Y5770000D02*
D03*
X2320000Y5750000D02*
D03*
X2520000Y5280000D02*
D03*
X2320116Y5287971D02*
D03*
X10010000Y6371842D02*
D03*
X6850000Y11160000D02*
D03*
X8570000Y5800000D02*
D03*
X9220000Y5510000D02*
D03*
X2630000Y10320000D02*
D03*
X6610000Y5020000D02*
D03*
Y5500000D02*
D03*
X6510000Y7330000D02*
D03*
X5315000Y6273587D02*
D03*
X5290000Y9350000D02*
D03*
X5296881Y9474082D02*
D03*
X5230000Y9270000D02*
D03*
X5160000Y9500000D02*
D03*
X5120000Y9330000D02*
D03*
X5060000Y9430000D02*
D03*
X6760000Y9760000D02*
D03*
X11070000Y10600000D02*
D03*
X10897737Y10362962D02*
D03*
X11469465Y8629037D02*
D03*
X7580000Y7460000D02*
D03*
X2380000Y7050000D02*
D03*
X2460000Y6880000D02*
D03*
X2260000Y6940000D02*
D03*
X1550000Y7490000D02*
D03*
X1610000Y7360000D02*
D03*
X1350000Y7370000D02*
D03*
X1502496Y7244324D02*
D03*
X370000Y3610000D02*
D03*
X9220000Y3880000D02*
D03*
X5240102Y1520000D02*
D03*
X5100000Y2480000D02*
D03*
Y2280000D02*
D03*
X5620000Y1940000D02*
D03*
X2930000Y4390000D02*
D03*
X8970000Y10760000D02*
D03*
X11150000Y9210000D02*
D03*
X1963201Y10907541D02*
D03*
X2949925Y10450127D02*
D03*
X2650000Y9250000D02*
D03*
X8420000Y5860000D02*
D03*
X9830000Y9990000D02*
D03*
X5740000Y5420000D02*
D03*
Y5600000D02*
D03*
X11373446Y10633087D02*
D03*
X11280000Y10068866D02*
D03*
X11050000Y8220000D02*
D03*
X9190000Y9700000D02*
D03*
X10630000Y9110000D02*
D03*
X10660000Y10130000D02*
D03*
X11680000Y11030000D02*
D03*
X2239925Y8671294D02*
D03*
X2440000Y6490000D02*
D03*
X11814000Y7304000D02*
D03*
X11704000Y10374000D02*
D03*
X2840503Y10395127D02*
D03*
X2459921Y10590105D02*
D03*
X4439925Y10890127D02*
D03*
X4460000Y11340000D02*
D03*
X2410000Y9860000D02*
D03*
X2913200Y9687836D02*
D03*
X2235000Y10975000D02*
D03*
X2800000Y11330000D02*
D03*
X2180000Y11150000D02*
D03*
X2910000Y11540000D02*
D03*
%TF.MD5,611ddab9d9ebeb93349b92f078120882*%
M02*
