%TF.GenerationSoftware,Altium Limited,Altium Designer,25.2.1 (25)*%
G04 Layer_Physical_Order=2*
G04 Layer_Color=16711680*
%FSLAX45Y45*%
%MOMM*%
%TF.SameCoordinates,EF3F7739-EB0C-4DF3-8AA3-BEF7F1336093*%
%TF.FilePolarity,Positive*%
%TF.FileFunction,Copper,L2,Bot,Signal*%
%TF.Part,Single*%
G01*
G75*
%TA.AperFunction,SMDPad,CuDef*%
%ADD27R,1.35000X1.85000*%
%ADD38R,1.80000X1.20000*%
%ADD39R,1.90000X1.30000*%
%TA.AperFunction,Conductor*%
%ADD58C,0.30000*%
%ADD59C,0.40000*%
%ADD60C,1.00000*%
%ADD61C,0.50000*%
%ADD63C,2.00000*%
%ADD64C,3.00000*%
%ADD65C,0.60000*%
%TA.AperFunction,ComponentPad*%
%ADD66O,2.84500X1.42200*%
%ADD67R,2.84500X1.42200*%
%ADD68C,1.31000*%
%ADD69R,2.77500X2.77500*%
%ADD70C,2.77500*%
%ADD71C,2.20000*%
%ADD72C,1.29000*%
%ADD73R,1.29000X1.29000*%
%ADD74R,1.70000X1.70000*%
%ADD75C,1.70000*%
%ADD76C,2.10000*%
%ADD77R,2.10000X2.10000*%
%ADD78R,1.40000X1.40000*%
%ADD79C,1.40000*%
%ADD80C,1.60000*%
G04:AMPARAMS|DCode=81|XSize=1.6mm|YSize=1.6mm|CornerRadius=0.4mm|HoleSize=0mm|Usage=FLASHONLY|Rotation=180.000|XOffset=0mm|YOffset=0mm|HoleType=Round|Shape=RoundedRectangle|*
%AMROUNDEDRECTD81*
21,1,1.60000,0.80000,0,0,180.0*
21,1,0.80000,1.60000,0,0,180.0*
1,1,0.80000,-0.40000,0.40000*
1,1,0.80000,0.40000,0.40000*
1,1,0.80000,0.40000,-0.40000*
1,1,0.80000,-0.40000,-0.40000*
%
%ADD81ROUNDEDRECTD81*%
%ADD82R,1.70000X1.70000*%
%TA.AperFunction,ViaPad*%
%ADD83C,0.80000*%
%TA.AperFunction,SMDPad,CuDef*%
%ADD84R,2.20000X1.20000*%
%ADD85R,6.40000X5.80000*%
%ADD86R,1.20000X1.80000*%
%ADD87R,1.00000X1.60000*%
%ADD88R,1.90415X1.50328*%
%ADD89R,1.50328X1.90415*%
%ADD90R,1.65822X1.10573*%
%ADD91R,0.92500X0.50000*%
%TA.AperFunction,SMDPad,SMDef*%
%ADD92R,0.80000X0.60000*%
%TA.AperFunction,Conductor*%
%ADD93C,0.75000*%
G36*
X12070000Y0D02*
X-10000D01*
Y11760000D01*
X12070000D01*
Y0D01*
D02*
G37*
%LPC*%
G36*
X11797236Y11635000D02*
X11762764D01*
X11728954Y11628275D01*
X11697106Y11615083D01*
X11668444Y11595932D01*
X11644069Y11571556D01*
X11624917Y11542894D01*
X11611725Y11511046D01*
X11605000Y11477236D01*
Y11442764D01*
X11611725Y11408955D01*
X11624917Y11377107D01*
X11644069Y11348444D01*
X11668444Y11324069D01*
X11697106Y11304917D01*
X11728954Y11291725D01*
X11762764Y11285000D01*
X11797236D01*
X11831046Y11291725D01*
X11862894Y11304917D01*
X11891556Y11324069D01*
X11915931Y11348444D01*
X11935083Y11377107D01*
X11948275Y11408955D01*
X11955000Y11442764D01*
Y11477236D01*
X11948275Y11511046D01*
X11935083Y11542894D01*
X11915931Y11571556D01*
X11891556Y11595932D01*
X11862894Y11615083D01*
X11831046Y11628275D01*
X11797236Y11635000D01*
D02*
G37*
G36*
X307236D02*
X272764D01*
X238954Y11628275D01*
X207106Y11615083D01*
X178444Y11595932D01*
X154069Y11571556D01*
X134917Y11542894D01*
X121725Y11511046D01*
X115000Y11477236D01*
Y11442764D01*
X121725Y11408955D01*
X134917Y11377107D01*
X154069Y11348444D01*
X178444Y11324069D01*
X207106Y11304917D01*
X238954Y11291725D01*
X272764Y11285000D01*
X307236D01*
X341046Y11291725D01*
X372894Y11304917D01*
X401556Y11324069D01*
X425931Y11348444D01*
X445083Y11377107D01*
X458275Y11408955D01*
X465000Y11442764D01*
Y11477236D01*
X458275Y11511046D01*
X445083Y11542894D01*
X425931Y11571556D01*
X401556Y11595932D01*
X372894Y11615083D01*
X341046Y11628275D01*
X307236Y11635000D01*
D02*
G37*
G36*
X2222633Y11375000D02*
X2200753D01*
X2180538Y11366627D01*
X2165066Y11351155D01*
X2156693Y11330940D01*
Y11309060D01*
X2165066Y11288845D01*
X2169825Y11284086D01*
Y11268083D01*
X2158371Y11256629D01*
X2151741Y11246705D01*
X2149412Y11235000D01*
X2149412Y11234999D01*
Y11196862D01*
X2148845Y11196627D01*
X2133373Y11181155D01*
X2125000Y11160940D01*
Y11139060D01*
X2133373Y11118845D01*
X2148845Y11103374D01*
X2169060Y11095000D01*
X2190940D01*
X2211155Y11103374D01*
X2226626Y11118845D01*
X2235000Y11139060D01*
Y11160940D01*
X2226626Y11181155D01*
X2211155Y11196627D01*
X2210588Y11196862D01*
Y11222330D01*
X2223754Y11235496D01*
X2223755Y11235497D01*
X2230385Y11245420D01*
X2232714Y11257126D01*
X2232713Y11257127D01*
Y11269176D01*
X2242847Y11273374D01*
X2258319Y11288845D01*
X2266692Y11309060D01*
Y11330940D01*
X2258319Y11351155D01*
X2242847Y11366627D01*
X2222633Y11375000D01*
D02*
G37*
G36*
X10829940Y11192929D02*
X10808060D01*
X10787845Y11184555D01*
X10772374Y11169084D01*
X10764000Y11148869D01*
Y11133258D01*
X10708371Y11077629D01*
X10701741Y11067705D01*
X10699412Y11056000D01*
X10699412Y11055999D01*
Y10918184D01*
X10696748Y10916000D01*
X10681629Y10911629D01*
X10681628Y10911629D01*
X10594765Y10998493D01*
X10595000Y10999060D01*
Y11020940D01*
X10586627Y11041155D01*
X10571155Y11056627D01*
X10550940Y11065000D01*
X10529060D01*
X10508845Y11056627D01*
X10493373Y11041155D01*
X10485000Y11020940D01*
Y10999060D01*
X10493373Y10978845D01*
X10508845Y10963374D01*
X10529060Y10955000D01*
X10550940D01*
X10551507Y10955235D01*
X10629412Y10877330D01*
Y10176862D01*
X10628845Y10176627D01*
X10613373Y10161155D01*
X10605000Y10140940D01*
Y10119060D01*
X10613373Y10098845D01*
X10627854Y10084364D01*
Y9590894D01*
X10627854Y9590893D01*
X10630183Y9579187D01*
X10636813Y9569264D01*
X10653264Y9552813D01*
X10644767Y9540096D01*
X10636969Y9543327D01*
X10620000Y9545561D01*
X10603032Y9543327D01*
X10587220Y9536777D01*
X10573642Y9526358D01*
X10563223Y9512780D01*
X10556673Y9496969D01*
X10554439Y9480000D01*
Y9418848D01*
X10548300D01*
Y9208848D01*
X10664378D01*
X10670591Y9193849D01*
X10641507Y9164765D01*
X10640940Y9165000D01*
X10619060D01*
X10598845Y9156627D01*
X10583374Y9141155D01*
X10575000Y9120940D01*
Y9099060D01*
X10583374Y9078845D01*
X10598845Y9063374D01*
X10619060Y9055000D01*
X10640940D01*
X10661155Y9063374D01*
X10676627Y9078845D01*
X10685000Y9099060D01*
Y9120940D01*
X10684765Y9121507D01*
X10734928Y9171670D01*
X10734928Y9171671D01*
X10741559Y9181594D01*
X10743888Y9193300D01*
X10743887Y9193301D01*
Y9536034D01*
X10743888Y9536035D01*
X10741559Y9547740D01*
X10739964Y9550128D01*
X10739873Y9552423D01*
X10745229Y9567013D01*
X10745830Y9567558D01*
X10759597Y9573261D01*
X10763554Y9577217D01*
X10778553Y9571004D01*
Y9550400D01*
X10781406D01*
Y9513033D01*
X10783640Y9496065D01*
X10790190Y9480253D01*
X10800609Y9466675D01*
X10814187Y9456256D01*
X10829998Y9449707D01*
X10846967Y9447473D01*
X10863935Y9449707D01*
X10879747Y9456256D01*
X10893325Y9466675D01*
X10903744Y9480253D01*
X10910294Y9496065D01*
X10912528Y9513033D01*
Y9550400D01*
X10928553D01*
Y9760400D01*
X10778553D01*
Y9683601D01*
X10763554Y9675583D01*
X10760588Y9677565D01*
Y9894997D01*
X10770389Y9905937D01*
X10775588Y9905937D01*
X10819119D01*
X10829141Y9890937D01*
X10825000Y9880940D01*
Y9859060D01*
X10833374Y9838845D01*
X10848845Y9823374D01*
X10869060Y9815000D01*
X10890940D01*
X10911155Y9823374D01*
X10926627Y9838845D01*
X10935000Y9859060D01*
Y9880940D01*
X10930859Y9890937D01*
X10940882Y9905937D01*
X10966210D01*
Y10008128D01*
X10975610Y10015756D01*
X10985297Y10014921D01*
X10987712Y10012340D01*
Y9826861D01*
X10987144Y9826627D01*
X10971673Y9811155D01*
X10963299Y9790940D01*
Y9769060D01*
X10971673Y9748845D01*
X10987144Y9733373D01*
X10987712Y9733139D01*
Y9418848D01*
X10838300D01*
Y9208848D01*
X10851469D01*
X10852652Y9206888D01*
X10856067Y9193849D01*
X10843374Y9181155D01*
X10835000Y9160940D01*
Y9139060D01*
X10835235Y9138493D01*
X10727330Y9030588D01*
X10506861D01*
X10506626Y9031155D01*
X10491155Y9046627D01*
X10470940Y9055000D01*
X10449060D01*
X10428845Y9046627D01*
X10413373Y9031155D01*
X10405000Y9010940D01*
Y8989060D01*
X10413373Y8968845D01*
X10428845Y8953374D01*
X10429845Y8952959D01*
Y8902178D01*
X10429412Y8899999D01*
X10429412Y8899998D01*
Y7512670D01*
X10214647Y7297905D01*
X10199776Y7299863D01*
X10190025Y7316752D01*
X10166752Y7340025D01*
X10138248Y7356482D01*
X10106457Y7365000D01*
X10073543D01*
X10041752Y7356482D01*
X10013248Y7340025D01*
X9989975Y7316752D01*
X9973518Y7288249D01*
X9965000Y7256457D01*
Y7223544D01*
X9973518Y7191752D01*
X9989975Y7163248D01*
X10013248Y7139975D01*
X10041752Y7123519D01*
X10073543Y7115000D01*
X10106457D01*
X10138248Y7123519D01*
X10166752Y7139975D01*
X10190025Y7163248D01*
X10206481Y7191752D01*
X10211765Y7211472D01*
X10220698Y7217440D01*
X10481628Y7478371D01*
X10481629Y7478371D01*
X10488259Y7488295D01*
X10490588Y7500000D01*
Y8898256D01*
X10491021Y8900433D01*
Y8953318D01*
X10491155Y8953374D01*
X10506626Y8968845D01*
X10506861Y8969412D01*
X10739999D01*
X10740000Y8969412D01*
X10751705Y8971741D01*
X10761629Y8978371D01*
X10878493Y9095235D01*
X10879060Y9095000D01*
X10900940D01*
X10921155Y9103373D01*
X10923345Y9105564D01*
X10938345Y9099351D01*
Y8899379D01*
X10919400Y8880434D01*
X10899060D01*
X10878845Y8872060D01*
X10863373Y8856589D01*
X10855000Y8836374D01*
Y8814494D01*
X10863373Y8794279D01*
X10878845Y8778807D01*
X10899060Y8770434D01*
X10920940D01*
X10941155Y8778807D01*
X10956627Y8794279D01*
X10965000Y8814494D01*
Y8836374D01*
X10964079Y8838597D01*
X10990562Y8865080D01*
X10997192Y8875003D01*
X10999521Y8886709D01*
X10999521Y8886710D01*
Y9088895D01*
X11014521Y9096823D01*
X11019412Y9093488D01*
Y8662300D01*
X10970701D01*
Y8452300D01*
X11019412D01*
Y8266862D01*
X11018845Y8266627D01*
X11003373Y8251155D01*
X10995000Y8230940D01*
Y8209060D01*
X11003373Y8188845D01*
X11018845Y8173374D01*
X11039060Y8165000D01*
X11060940D01*
X11081155Y8173374D01*
X11096627Y8188845D01*
X11105000Y8209060D01*
Y8230940D01*
X11096627Y8251155D01*
X11081155Y8266627D01*
X11080588Y8266862D01*
Y8452300D01*
X11120701D01*
Y8662300D01*
X11080588D01*
Y9103139D01*
X11081155Y9103373D01*
X11096627Y9118845D01*
X11105000Y9139060D01*
Y9156006D01*
X11117704Y9162767D01*
X11119022Y9163300D01*
X11139060Y9155000D01*
X11160940D01*
X11170000Y9148946D01*
Y9075000D01*
X11199412D01*
Y8821862D01*
X11198845Y8821627D01*
X11183373Y8806155D01*
X11175000Y8785940D01*
Y8764060D01*
X11183373Y8743845D01*
X11198845Y8728374D01*
X11219060Y8720000D01*
X11240940D01*
X11261155Y8728374D01*
X11276626Y8743845D01*
X11285000Y8764060D01*
Y8785940D01*
X11276626Y8806155D01*
X11261155Y8821627D01*
X11260588Y8821862D01*
Y9075000D01*
X11314314D01*
X11320000Y9075000D01*
X11329314Y9063858D01*
Y8739396D01*
X11323374Y8733455D01*
X11315000Y8713240D01*
Y8691360D01*
X11320824Y8677300D01*
X11312621Y8662300D01*
X11260701D01*
Y8452300D01*
X11410701D01*
Y8531739D01*
X11437727D01*
X11454696Y8533973D01*
X11470508Y8540522D01*
X11484086Y8550941D01*
X11515823Y8582679D01*
X11526242Y8596257D01*
X11532791Y8612069D01*
X11535025Y8629037D01*
X11532791Y8646006D01*
X11526242Y8661817D01*
X11515823Y8675395D01*
X11502245Y8685814D01*
X11486433Y8692364D01*
X11469465Y8694598D01*
X11452496Y8692364D01*
X11438858Y8686715D01*
X11434943Y8688027D01*
X11432308Y8689538D01*
X11425000Y8695756D01*
Y8713240D01*
X11416627Y8733455D01*
X11401155Y8748927D01*
X11400686Y8749121D01*
Y9462904D01*
X11406626Y9468845D01*
X11415000Y9489060D01*
Y9510940D01*
X11406626Y9531155D01*
X11391155Y9546627D01*
X11387974Y9547944D01*
X11385316Y9561310D01*
X11377580Y9572887D01*
X11345686Y9604782D01*
Y9767650D01*
X11343985Y9776199D01*
Y9973518D01*
X11405250Y10034783D01*
X11412986Y10046360D01*
X11415702Y10060017D01*
Y10597561D01*
X11420073Y10601932D01*
X11428446Y10622147D01*
Y10644027D01*
X11420073Y10664242D01*
X11404601Y10679713D01*
X11384386Y10688087D01*
X11362506D01*
X11342292Y10679713D01*
X11326820Y10664242D01*
X11318447Y10644027D01*
Y10622147D01*
X11326820Y10601932D01*
X11342292Y10586460D01*
X11344331Y10585616D01*
Y10362575D01*
X11329331Y10353970D01*
X11315957Y10359509D01*
X11294076D01*
X11273862Y10351136D01*
X11258390Y10335664D01*
X11250534Y10316698D01*
X11248566Y10314743D01*
X11235016Y10308146D01*
X11219677Y10314500D01*
X11201139D01*
X11197763Y10314534D01*
X11186199Y10325933D01*
Y10464647D01*
X11153860D01*
Y10581701D01*
X11151626Y10598669D01*
X11145077Y10614481D01*
X11135561Y10626882D01*
Y10763393D01*
X11315456Y10943288D01*
X11318299D01*
X11322560Y10943849D01*
X11433299D01*
Y11093848D01*
X11223300D01*
Y11036565D01*
X11023642Y10836907D01*
X11013223Y10823329D01*
X11006673Y10807517D01*
X11004439Y10790549D01*
Y10600000D01*
X11006673Y10583032D01*
X11013223Y10567220D01*
X11022739Y10554819D01*
Y10464647D01*
X10976200D01*
Y10454409D01*
X10923623D01*
X10906655Y10452175D01*
X10890843Y10445626D01*
X10877265Y10435207D01*
X10851379Y10409321D01*
X10840960Y10395742D01*
X10834410Y10379931D01*
X10832176Y10362962D01*
Y10316057D01*
X10817715Y10301759D01*
X10775588D01*
X10770389Y10301759D01*
X10760588Y10312700D01*
Y11043330D01*
X10802493Y11085235D01*
X10808060Y11082929D01*
X10829940D01*
X10850155Y11091302D01*
X10865627Y11106774D01*
X10874000Y11126989D01*
Y11148869D01*
X10865627Y11169084D01*
X10850155Y11184555D01*
X10829940Y11192929D01*
D02*
G37*
G36*
X1520940Y11415000D02*
X1499060D01*
X1478845Y11406626D01*
X1463374Y11391155D01*
X1455000Y11370940D01*
Y11349060D01*
X1463374Y11328845D01*
X1478845Y11313373D01*
X1479412Y11313138D01*
Y11167575D01*
X1479412Y11167574D01*
X1481740Y11155868D01*
X1488371Y11145945D01*
X1505944Y11128372D01*
X1505945Y11128371D01*
X1515868Y11121741D01*
X1527574Y11119412D01*
X1527575Y11119412D01*
X1797067D01*
X1812059Y11104421D01*
X1832274Y11096047D01*
X1854154D01*
X1874369Y11104421D01*
X1879439Y11109491D01*
X1894439Y11103278D01*
Y10950000D01*
X1896673Y10933032D01*
X1903223Y10917220D01*
X1908201Y10910732D01*
Y10896601D01*
X1916575Y10876386D01*
X1932046Y10860915D01*
X1952261Y10852541D01*
X1974141D01*
X1994356Y10860915D01*
X2009828Y10876386D01*
X2018201Y10896601D01*
Y10918481D01*
X2017750Y10919570D01*
X2023327Y10933032D01*
X2025561Y10950000D01*
Y11320000D01*
X2023327Y11336968D01*
X2016777Y11352780D01*
X2006358Y11366358D01*
X1992780Y11376777D01*
X1976968Y11383327D01*
X1960000Y11385561D01*
X1943031Y11383327D01*
X1927220Y11376777D01*
X1913642Y11366358D01*
X1903223Y11352780D01*
X1896673Y11336968D01*
X1894439Y11320000D01*
Y11198817D01*
X1879439Y11192603D01*
X1874369Y11197674D01*
X1854154Y11206047D01*
X1832274D01*
X1812059Y11197674D01*
X1796587Y11182202D01*
X1795919Y11180588D01*
X1540587D01*
Y11313138D01*
X1541155Y11313373D01*
X1556627Y11328845D01*
X1565000Y11349060D01*
Y11370940D01*
X1556627Y11391155D01*
X1541155Y11406626D01*
X1520940Y11415000D01*
D02*
G37*
G36*
X1210940Y11305000D02*
X1189060D01*
X1168845Y11296627D01*
X1153373Y11281155D01*
X1145000Y11260940D01*
Y11252677D01*
X991162Y11098839D01*
X982321Y11085607D01*
X979216Y11070000D01*
X979216Y11069999D01*
Y10866998D01*
X973373Y10861155D01*
X965000Y10840940D01*
Y10819060D01*
X973373Y10798845D01*
X988845Y10783373D01*
X1009060Y10775000D01*
X1030940D01*
X1051155Y10783373D01*
X1066627Y10798845D01*
X1075000Y10819060D01*
Y10840940D01*
X1066627Y10861155D01*
X1060784Y10866998D01*
Y11053107D01*
X1202677Y11195000D01*
X1210940D01*
X1231155Y11203374D01*
X1246626Y11218845D01*
X1255000Y11239060D01*
Y11260940D01*
X1246626Y11281155D01*
X1231155Y11296627D01*
X1210940Y11305000D01*
D02*
G37*
G36*
X2470940Y11085000D02*
X2449060D01*
X2428845Y11076627D01*
X2413373Y11061155D01*
X2405000Y11040940D01*
Y11019060D01*
X2413373Y10998845D01*
X2428845Y10983374D01*
X2429373Y10983155D01*
Y10636983D01*
X2428766Y10636732D01*
X2413294Y10621260D01*
X2404921Y10601045D01*
Y10579165D01*
X2413294Y10558950D01*
X2418658Y10553587D01*
X2415138Y10535893D01*
X2402004Y10530453D01*
X2377981Y10512019D01*
X2298858Y10432896D01*
X2282272Y10437524D01*
X2276626Y10451155D01*
X2275783Y10451998D01*
Y10938002D01*
X2281626Y10943845D01*
X2290000Y10964060D01*
Y10985940D01*
X2281626Y11006155D01*
X2266155Y11021626D01*
X2245940Y11030000D01*
X2224060D01*
X2203845Y11021626D01*
X2188373Y11006155D01*
X2180000Y10985940D01*
Y10964060D01*
X2188373Y10943845D01*
X2194216Y10938002D01*
Y10461998D01*
X2183373Y10451155D01*
X2175000Y10430940D01*
Y10409060D01*
X2183373Y10388845D01*
X2198845Y10373373D01*
X2212476Y10367727D01*
X2217103Y10351142D01*
X1994085Y10128124D01*
X1975652Y10104101D01*
X1964064Y10076126D01*
X1960112Y10046105D01*
X1960112Y10046103D01*
Y10035359D01*
X1854699Y9929946D01*
X1615717D01*
X1596382Y9935127D01*
X1563468D01*
X1531677Y9926609D01*
X1503173Y9910152D01*
X1479900Y9886879D01*
X1463443Y9858376D01*
X1454925Y9826584D01*
Y9793671D01*
X1463443Y9761879D01*
X1463933Y9761032D01*
Y8588077D01*
X1463932Y8588075D01*
X1467885Y8558054D01*
X1479473Y8530079D01*
X1497906Y8506056D01*
X1781981Y8221981D01*
X1806004Y8203548D01*
X1833979Y8191960D01*
X1864000Y8188008D01*
X1894021Y8191960D01*
X1921996Y8203548D01*
X1946019Y8221981D01*
X1964453Y8246004D01*
X1976040Y8273979D01*
X1979993Y8304000D01*
X1976040Y8334021D01*
X1964453Y8361996D01*
X1946019Y8386019D01*
X1695917Y8636121D01*
Y9697962D01*
X1902743D01*
X1902745Y9697961D01*
X1932766Y9701914D01*
X1960741Y9713502D01*
X1984764Y9731935D01*
X2158122Y9905294D01*
X2158123Y9905294D01*
X2176557Y9929317D01*
X2188144Y9957293D01*
X2192097Y9987314D01*
X2192097Y9987316D01*
Y9998059D01*
X2542019Y10347981D01*
X2560452Y10372004D01*
X2572040Y10399979D01*
X2574216Y10416510D01*
X2589216Y10415527D01*
Y10356998D01*
X2583373Y10351155D01*
X2575000Y10330940D01*
Y10309060D01*
X2583373Y10288845D01*
X2598845Y10273373D01*
X2619060Y10265000D01*
X2640940D01*
X2661155Y10273373D01*
X2676626Y10288845D01*
X2685000Y10309060D01*
Y10330940D01*
X2676626Y10351155D01*
X2670783Y10356998D01*
Y10959077D01*
X2681155Y10963374D01*
X2696627Y10978845D01*
X2705000Y10999060D01*
Y11020940D01*
X2696627Y11041155D01*
X2681155Y11056627D01*
X2660940Y11065000D01*
X2639060D01*
X2618845Y11056627D01*
X2603374Y11041155D01*
X2595000Y11020940D01*
Y11001499D01*
X2592321Y10997489D01*
X2589216Y10981882D01*
X2589216Y10981880D01*
Y10444474D01*
X2574216Y10443491D01*
X2572040Y10460021D01*
X2560452Y10487997D01*
X2542019Y10512019D01*
X2517996Y10530453D01*
X2504750Y10535940D01*
X2501230Y10553633D01*
X2506547Y10558950D01*
X2514921Y10579165D01*
Y10601045D01*
X2506547Y10621260D01*
X2491076Y10636732D01*
X2490548Y10636950D01*
Y10983122D01*
X2491155Y10983374D01*
X2506626Y10998845D01*
X2515000Y11019060D01*
Y11040940D01*
X2506626Y11061155D01*
X2491155Y11076627D01*
X2470940Y11085000D01*
D02*
G37*
G36*
X2920940Y11595000D02*
X2899060D01*
X2878845Y11586627D01*
X2863373Y11571155D01*
X2855000Y11550940D01*
Y11529060D01*
X2863373Y11508845D01*
X2878845Y11493374D01*
X2899060Y11485000D01*
X2908212D01*
X2919337Y11473875D01*
Y10496989D01*
X2918770Y10496754D01*
X2903298Y10481282D01*
X2894925Y10461067D01*
Y10439700D01*
X2893465Y10438337D01*
X2881846Y10431566D01*
X2871658Y10441754D01*
X2851443Y10450127D01*
X2842291D01*
X2830587Y10461831D01*
Y11283138D01*
X2831155Y11283373D01*
X2846626Y11298845D01*
X2855000Y11319060D01*
Y11340940D01*
X2846626Y11361155D01*
X2831155Y11376626D01*
X2810940Y11385000D01*
X2789060D01*
X2768845Y11376626D01*
X2753373Y11361155D01*
X2745000Y11340940D01*
Y11319060D01*
X2753373Y11298845D01*
X2768845Y11283373D01*
X2769412Y11283138D01*
Y10449162D01*
X2769412Y10449161D01*
X2771740Y10437455D01*
X2778371Y10427532D01*
X2789701Y10416201D01*
X2785503Y10406067D01*
Y10384187D01*
X2793877Y10363972D01*
X2809348Y10348501D01*
X2829563Y10340127D01*
X2851443D01*
X2867612Y10346825D01*
X2882612Y10339856D01*
Y9734698D01*
X2882045Y9734463D01*
X2866574Y9718991D01*
X2858200Y9698776D01*
Y9676896D01*
X2866574Y9656681D01*
X2882045Y9641210D01*
X2902260Y9632836D01*
X2924140D01*
X2944355Y9641210D01*
X2959827Y9656681D01*
X2968200Y9676896D01*
Y9698776D01*
X2959827Y9718991D01*
X2944355Y9734463D01*
X2943788Y9734698D01*
Y10387202D01*
X2951713Y10395127D01*
X2960865D01*
X2981080Y10403501D01*
X2996552Y10418972D01*
X3004925Y10439187D01*
Y10461067D01*
X2996552Y10481282D01*
X2981080Y10496754D01*
X2980513Y10496989D01*
Y11486543D01*
X2980513Y11486545D01*
X2978184Y11498250D01*
X2971554Y11508174D01*
X2971553Y11508174D01*
X2960802Y11518925D01*
X2965000Y11529060D01*
Y11550940D01*
X2956626Y11571155D01*
X2941155Y11586627D01*
X2920940Y11595000D01*
D02*
G37*
G36*
X5900940Y10625000D02*
X5879060D01*
X5858845Y10616626D01*
X5843373Y10601155D01*
X5835000Y10580940D01*
Y10559060D01*
X5843373Y10538845D01*
X5851717Y10530502D01*
Y10515000D01*
X5820000D01*
Y10305000D01*
X5970000D01*
Y10515000D01*
X5933284D01*
Y10535502D01*
X5936626Y10538845D01*
X5945000Y10559060D01*
Y10580940D01*
X5936626Y10601155D01*
X5921155Y10616626D01*
X5900940Y10625000D01*
D02*
G37*
G36*
X5171700Y11720000D02*
X4931700D01*
Y11586363D01*
X3479925D01*
X3468444Y11581608D01*
X3463689Y11570127D01*
Y11130127D01*
X3468444Y11118647D01*
X3775204Y10811887D01*
X3775758Y10810061D01*
X3777387Y10793518D01*
X3786823Y10762415D01*
X3802144Y10733751D01*
X3822763Y10708626D01*
X3998499Y10532890D01*
X4023623Y10512271D01*
X4052288Y10496950D01*
X4083390Y10487515D01*
X4115736Y10484329D01*
X4869925D01*
X4902271Y10487515D01*
X4933373Y10496950D01*
X4962038Y10512271D01*
X4987162Y10532890D01*
X5007781Y10558015D01*
X5016267Y10573891D01*
X5530127D01*
X5534888Y10575864D01*
X5536186Y10576197D01*
X5543373Y10558845D01*
X5558845Y10543373D01*
X5559412Y10543138D01*
Y10515000D01*
X5530000D01*
Y10305000D01*
X5680000D01*
Y10515000D01*
X5620588D01*
Y10543138D01*
X5621155Y10543373D01*
X5636627Y10558845D01*
X5645000Y10579060D01*
Y10600940D01*
X5636627Y10621155D01*
X5621155Y10636626D01*
X5600940Y10645000D01*
X5579060D01*
X5568862Y10640776D01*
X5555214Y10651358D01*
X5574020Y10783891D01*
X6489925Y10783892D01*
X6501406Y10788647D01*
X6506161Y10800128D01*
Y11410127D01*
X6501406Y11421608D01*
X6341405Y11581608D01*
X6329925Y11586363D01*
X5171700D01*
Y11720000D01*
D02*
G37*
G36*
X1979927Y10274268D02*
X1958047D01*
X1937833Y10265894D01*
X1922361Y10250423D01*
X1913988Y10230208D01*
Y10208328D01*
X1922361Y10188113D01*
X1937833Y10172641D01*
X1958047Y10164268D01*
X1979927D01*
X2000142Y10172641D01*
X2015614Y10188113D01*
X2023987Y10208328D01*
Y10230208D01*
X2015614Y10250423D01*
X2000142Y10265894D01*
X1979927Y10274268D01*
D02*
G37*
G36*
X8450940Y11155000D02*
X8429060D01*
X8408845Y11146626D01*
X8393373Y11131155D01*
X8385000Y11110940D01*
Y11089060D01*
X8393373Y11068845D01*
X8399689Y11062530D01*
Y10168756D01*
X8335472D01*
Y10161074D01*
X8320472Y10151052D01*
X8310940Y10155000D01*
X8289060D01*
X8268845Y10146627D01*
X8253373Y10131155D01*
X8245000Y10110940D01*
Y10089060D01*
X8253373Y10068845D01*
X8268845Y10053374D01*
X8289060Y10045000D01*
X8310940D01*
X8320472Y10048949D01*
X8335472Y10038926D01*
Y10018757D01*
X8545472D01*
Y10168756D01*
X8481256D01*
Y11063474D01*
X8486626Y11068845D01*
X8495000Y11089060D01*
Y11110940D01*
X8486626Y11131155D01*
X8471155Y11146626D01*
X8450940Y11155000D01*
D02*
G37*
G36*
X3270000Y11720000D02*
X3030000D01*
Y11480000D01*
X3177283D01*
X3194364Y11462918D01*
Y9990735D01*
X3171975Y9968345D01*
X3165798Y9970000D01*
X3134202D01*
X3103681Y9961822D01*
X3076318Y9946024D01*
X3053976Y9923682D01*
X3038178Y9896318D01*
X3030000Y9865798D01*
Y9834202D01*
X3038178Y9803681D01*
X3053976Y9776318D01*
X3076318Y9753976D01*
X3103681Y9738178D01*
X3134202Y9730000D01*
X3165798D01*
X3196318Y9738178D01*
X3223682Y9753976D01*
X3246024Y9776318D01*
X3261822Y9803681D01*
X3270000Y9834202D01*
Y9865798D01*
X3266801Y9877737D01*
X3306283Y9917220D01*
X3316703Y9930798D01*
X3323252Y9946610D01*
X3325486Y9963578D01*
Y11490075D01*
X3323252Y11507043D01*
X3316703Y11522855D01*
X3306283Y11536433D01*
X3270000Y11572717D01*
Y11720000D01*
D02*
G37*
G36*
X9770940Y10755000D02*
X9749060D01*
X9728845Y10746626D01*
X9713374Y10731155D01*
X9705000Y10710940D01*
Y10689060D01*
X9713374Y10668845D01*
X9728845Y10653373D01*
X9729412Y10653138D01*
Y10004524D01*
X9729412Y10004522D01*
X9729412Y10004520D01*
Y9599027D01*
X9729412Y9599026D01*
X9731741Y9587321D01*
X9738371Y9577397D01*
X9739412Y9576356D01*
Y9216861D01*
X9738845Y9216626D01*
X9723373Y9201155D01*
X9715000Y9180940D01*
Y9159060D01*
X9723373Y9138845D01*
X9738845Y9123373D01*
X9759060Y9115000D01*
X9780940D01*
X9801155Y9123373D01*
X9816627Y9138845D01*
X9825000Y9159060D01*
Y9180940D01*
X9816627Y9201155D01*
X9801155Y9216626D01*
X9800588Y9216861D01*
Y9589025D01*
X9800588Y9589026D01*
X9798259Y9600731D01*
X9791629Y9610655D01*
X9790587Y9611696D01*
Y9932032D01*
X9805588Y9940581D01*
X9819060Y9935000D01*
X9840940D01*
X9861155Y9943374D01*
X9876626Y9958845D01*
X9876861Y9959412D01*
X9983139D01*
X9983373Y9958845D01*
X9998845Y9943374D01*
X10019060Y9935000D01*
X10040940D01*
X10061155Y9943374D01*
X10076627Y9958845D01*
X10085000Y9979060D01*
Y10000940D01*
X10076627Y10021155D01*
X10061155Y10036627D01*
X10040940Y10045000D01*
X10019060D01*
X9998845Y10036627D01*
X9983373Y10021155D01*
X9983139Y10020588D01*
X9876861D01*
X9876626Y10021155D01*
X9861155Y10036627D01*
X9840940Y10045000D01*
X9819060D01*
X9805588Y10039420D01*
X9790588Y10047968D01*
Y10653138D01*
X9791155Y10653373D01*
X9806627Y10668845D01*
X9815000Y10689060D01*
Y10710940D01*
X9806627Y10731155D01*
X9791155Y10746626D01*
X9770940Y10755000D01*
D02*
G37*
G36*
X8545472Y9878756D02*
X8335472D01*
Y9830588D01*
X8316861D01*
X8316626Y9831155D01*
X8301155Y9846626D01*
X8280940Y9855000D01*
X8259060D01*
X8238845Y9846626D01*
X8223373Y9831155D01*
X8215000Y9810940D01*
Y9789060D01*
X8223373Y9768845D01*
X8238845Y9753373D01*
X8259060Y9745000D01*
X8280940D01*
X8301155Y9753373D01*
X8316626Y9768845D01*
X8316861Y9769412D01*
X8335472D01*
Y9728757D01*
X8545472D01*
Y9878756D01*
D02*
G37*
G36*
X2420940Y9915000D02*
X2399060D01*
X2378845Y9906626D01*
X2363373Y9891155D01*
X2355000Y9870940D01*
Y9849060D01*
X2355235Y9848492D01*
X2218296Y9711554D01*
X2211666Y9701630D01*
X2209337Y9689925D01*
X2209337Y9689924D01*
Y8718155D01*
X2208770Y8717920D01*
X2193298Y8702448D01*
X2184925Y8682234D01*
Y8660354D01*
X2193298Y8640139D01*
X2208770Y8624667D01*
X2228985Y8616294D01*
X2250865D01*
X2271080Y8624667D01*
X2286551Y8640139D01*
X2294925Y8660354D01*
Y8682234D01*
X2286551Y8702448D01*
X2271080Y8717920D01*
X2270513Y8718155D01*
Y9677255D01*
X2398492Y9805235D01*
X2399060Y9805000D01*
X2420940D01*
X2441155Y9813373D01*
X2456626Y9828845D01*
X2465000Y9849060D01*
Y9870940D01*
X2456626Y9891155D01*
X2441155Y9906626D01*
X2420940Y9915000D01*
D02*
G37*
G36*
X8980940Y10815000D02*
X8959060D01*
X8938845Y10806627D01*
X8923374Y10791155D01*
X8915000Y10770940D01*
Y10749060D01*
X8923374Y10728845D01*
X8938845Y10713374D01*
X8959060Y10705000D01*
X8980940D01*
X8981360Y10705174D01*
X8999412Y10687122D01*
Y9846861D01*
X8998845Y9846626D01*
X8983373Y9831155D01*
X8975000Y9810940D01*
Y9789060D01*
X8983373Y9768845D01*
X8998845Y9753373D01*
X9019060Y9745000D01*
X9040940D01*
X9061155Y9753373D01*
X9076626Y9768845D01*
X9085000Y9789060D01*
Y9810940D01*
X9076626Y9831155D01*
X9061155Y9846626D01*
X9060588Y9846861D01*
Y10699791D01*
X9060588Y10699792D01*
X9058259Y10711497D01*
X9051629Y10721421D01*
X9051628Y10721421D01*
X9024704Y10748346D01*
X9025000Y10749060D01*
Y10770940D01*
X9016627Y10791155D01*
X9001155Y10806627D01*
X8980940Y10815000D01*
D02*
G37*
G36*
X5067498Y9970000D02*
X5035902D01*
X5005381Y9961822D01*
X4978018Y9946024D01*
X4955676Y9923682D01*
X4939878Y9896318D01*
X4931700Y9865798D01*
Y9834202D01*
X4939878Y9803681D01*
X4955676Y9776318D01*
X4978018Y9753976D01*
X5005381Y9738178D01*
X5035902Y9730000D01*
X5067498D01*
X5098018Y9738178D01*
X5125382Y9753976D01*
X5147724Y9776318D01*
X5163522Y9803681D01*
X5171700Y9834202D01*
Y9865798D01*
X5163522Y9896318D01*
X5147724Y9923682D01*
X5125382Y9946024D01*
X5098018Y9961822D01*
X5067498Y9970000D01*
D02*
G37*
G36*
X6860940Y11215000D02*
X6839060D01*
X6818845Y11206627D01*
X6803373Y11191155D01*
X6795000Y11170940D01*
Y11149060D01*
X6803373Y11128845D01*
X6818845Y11113374D01*
X6839060Y11105000D01*
X6847323D01*
X6905216Y11047107D01*
Y10354482D01*
X6897752Y10352481D01*
X6869248Y10336025D01*
X6845975Y10312752D01*
X6829518Y10284248D01*
X6821000Y10252457D01*
Y10219543D01*
X6829518Y10187752D01*
X6845975Y10159248D01*
X6869248Y10135975D01*
X6872688Y10133989D01*
Y10068912D01*
X6481162Y9677385D01*
X6472321Y9664154D01*
X6469216Y9648547D01*
X6469216Y9648545D01*
Y8440208D01*
X6435561D01*
Y8500000D01*
X6433327Y8516968D01*
X6426777Y8532780D01*
X6416358Y8546358D01*
X6402780Y8556777D01*
X6386968Y8563327D01*
X6370000Y8565561D01*
X6353031Y8563327D01*
X6337220Y8556777D01*
X6323642Y8546358D01*
X6313223Y8532780D01*
X6306673Y8516968D01*
X6304439Y8500000D01*
Y8440208D01*
X6294880D01*
Y8219793D01*
X6469216D01*
Y7366998D01*
X6463373Y7361155D01*
X6455000Y7340940D01*
Y7319060D01*
X6463373Y7298845D01*
X6478845Y7283374D01*
X6499060Y7275000D01*
X6520940D01*
X6541155Y7283374D01*
X6556626Y7298845D01*
X6565000Y7319060D01*
Y7340940D01*
X6556626Y7361155D01*
X6551418Y7366364D01*
X6552927Y7381110D01*
X6565783Y7386435D01*
X6568845Y7383374D01*
X6589060Y7375000D01*
X6610940D01*
X6631155Y7383374D01*
X6646627Y7398845D01*
X6655000Y7419060D01*
Y7440940D01*
X6646627Y7461155D01*
X6631155Y7476627D01*
X6610940Y7485000D01*
X6610588D01*
Y9607330D01*
X6722738Y9719480D01*
X6728845Y9713374D01*
X6749060Y9705000D01*
X6770940D01*
X6791155Y9713374D01*
X6806626Y9728845D01*
X6815000Y9749060D01*
Y9770940D01*
X6806626Y9791155D01*
X6791155Y9806627D01*
X6770940Y9815000D01*
X6755343D01*
X6749130Y9830000D01*
X6942309Y10023180D01*
X6942310Y10023180D01*
X6951151Y10036411D01*
X6954256Y10052019D01*
X6954255Y10052020D01*
Y10111000D01*
X6962456D01*
X6994248Y10119518D01*
X7022752Y10135975D01*
X7046025Y10159248D01*
X7062481Y10187752D01*
X7071000Y10219543D01*
Y10252457D01*
X7062481Y10284248D01*
X7046025Y10312752D01*
X7022752Y10336025D01*
X6994248Y10352481D01*
X6986783Y10354482D01*
Y11063999D01*
X6986784Y11064000D01*
X6983679Y11079608D01*
X6974838Y11092839D01*
X6974837Y11092839D01*
X6905000Y11162677D01*
Y11170940D01*
X6896627Y11191155D01*
X6881155Y11206627D01*
X6860940Y11215000D01*
D02*
G37*
G36*
X11403300Y9939534D02*
X11389643Y9936817D01*
X11378066Y9929082D01*
X11370330Y9917504D01*
X11367614Y9903848D01*
Y9885078D01*
X11367031Y9884205D01*
X11364314Y9870549D01*
Y9720000D01*
X11367031Y9706344D01*
X11374766Y9694766D01*
X11386344Y9687031D01*
X11400000Y9684314D01*
X11413656Y9687031D01*
X11425234Y9694766D01*
X11432969Y9706344D01*
X11435686Y9720000D01*
Y9859319D01*
X11436269Y9860192D01*
X11438985Y9873848D01*
Y9903848D01*
X11436269Y9917504D01*
X11428533Y9929082D01*
X11416956Y9936817D01*
X11403300Y9939534D01*
D02*
G37*
G36*
X11482635Y11439636D02*
X11460755D01*
X11440540Y11431263D01*
X11425069Y11415791D01*
X11416695Y11395576D01*
Y11373696D01*
X11425069Y11353481D01*
X11440540Y11338010D01*
X11460755Y11329636D01*
X11482635D01*
X11492157Y11333581D01*
X11519412Y11306325D01*
Y10624528D01*
X11488371Y10593487D01*
X11481741Y10583563D01*
X11479412Y10571858D01*
X11479412Y10571857D01*
Y9864722D01*
X11479412Y9864721D01*
X11481741Y9853016D01*
X11488371Y9843092D01*
X11579412Y9752051D01*
Y9672922D01*
X11564412Y9665525D01*
X11562780Y9666777D01*
X11546969Y9673327D01*
X11530000Y9675561D01*
X11513032Y9673327D01*
X11497220Y9666777D01*
X11483642Y9656358D01*
X11473223Y9642781D01*
X11466673Y9626969D01*
X11464439Y9610000D01*
Y9555000D01*
X11460000D01*
Y9345000D01*
X11469439D01*
Y9285000D01*
X11460000D01*
Y9075000D01*
X11464439D01*
Y9010000D01*
X11466673Y8993032D01*
X11473223Y8977220D01*
X11483642Y8963642D01*
X11497220Y8953223D01*
X11513032Y8946673D01*
X11530000Y8944439D01*
X11546969Y8946673D01*
X11562780Y8953223D01*
X11576358Y8963642D01*
X11580000Y8968388D01*
X11595000Y8963296D01*
Y8949060D01*
X11603374Y8928845D01*
X11618845Y8913374D01*
X11619412Y8913139D01*
Y7922454D01*
X11608371Y7911412D01*
X11601741Y7901489D01*
X11599412Y7889784D01*
X11599412Y7889782D01*
Y6876862D01*
X11598845Y6876627D01*
X11583374Y6861155D01*
X11575000Y6840940D01*
Y6819060D01*
X11583374Y6798845D01*
X11598845Y6783374D01*
X11619060Y6775000D01*
X11640940D01*
X11661155Y6783374D01*
X11676627Y6798845D01*
X11685000Y6819060D01*
Y6840940D01*
X11676627Y6861155D01*
X11661155Y6876627D01*
X11660588Y6876862D01*
Y7877114D01*
X11671629Y7888155D01*
X11678259Y7898078D01*
X11680588Y7909784D01*
Y8913139D01*
X11681155Y8913374D01*
X11696627Y8928845D01*
X11705000Y8949060D01*
Y8970940D01*
X11696627Y8991155D01*
X11681155Y9006627D01*
X11680588Y9006862D01*
Y9527425D01*
X11680588Y9527426D01*
X11678259Y9539132D01*
X11671629Y9549055D01*
X11671628Y9549056D01*
X11640588Y9580096D01*
Y9656014D01*
X11647930Y9660304D01*
X11655588Y9662148D01*
X11667219Y9653223D01*
X11683031Y9646673D01*
X11700000Y9644439D01*
X11716968Y9646673D01*
X11732780Y9653223D01*
X11746358Y9663642D01*
X11747911Y9665665D01*
X11762911Y9660573D01*
Y9608310D01*
X11758845Y9606626D01*
X11743374Y9591155D01*
X11735000Y9570940D01*
Y9549060D01*
X11743374Y9528845D01*
X11758845Y9513373D01*
X11759412Y9513138D01*
Y8006200D01*
X11758212Y8005000D01*
X11749060D01*
X11728845Y7996627D01*
X11713374Y7981155D01*
X11705000Y7960940D01*
Y7939060D01*
X11713374Y7918845D01*
X11728845Y7903374D01*
X11749060Y7895000D01*
X11770940D01*
X11791155Y7903374D01*
X11806627Y7918845D01*
X11815000Y7939060D01*
X11829412Y7937641D01*
Y7376200D01*
X11812212Y7359000D01*
X11803060D01*
X11782845Y7350627D01*
X11767373Y7335155D01*
X11759000Y7314940D01*
Y7293060D01*
X11767373Y7272845D01*
X11782845Y7257374D01*
X11803060Y7249000D01*
X11824940D01*
X11845155Y7257374D01*
X11860627Y7272845D01*
X11869000Y7293060D01*
Y7314940D01*
X11864802Y7325075D01*
X11881628Y7341901D01*
X11881629Y7341902D01*
X11888259Y7351825D01*
X11890588Y7363531D01*
Y9991863D01*
X11888259Y10003569D01*
X11881629Y10013492D01*
X11881628Y10013493D01*
X11866270Y10028851D01*
Y10041263D01*
X11872742Y10047735D01*
X11881115Y10067950D01*
Y10089830D01*
X11872742Y10110045D01*
X11857270Y10125516D01*
X11837056Y10133890D01*
X11815176D01*
X11794961Y10125516D01*
X11779489Y10110045D01*
X11771116Y10089830D01*
Y10081579D01*
X11756116Y10075366D01*
X11732887Y10098594D01*
Y10326435D01*
X11735155Y10327374D01*
X11750626Y10342845D01*
X11759000Y10363060D01*
Y10384940D01*
X11750626Y10405155D01*
X11735155Y10420627D01*
X11714940Y10429000D01*
X11693060D01*
X11672845Y10420627D01*
X11657373Y10405155D01*
X11649000Y10384940D01*
Y10363060D01*
X11657373Y10342845D01*
X11671712Y10328507D01*
Y10085926D01*
X11671711Y10085924D01*
X11674040Y10074219D01*
X11680671Y10064296D01*
X11751118Y9993848D01*
X11744905Y9978848D01*
X11618300D01*
Y9819278D01*
X11604442Y9813537D01*
X11540588Y9877391D01*
Y9989103D01*
X11555588Y9995580D01*
X11572595Y9988536D01*
X11594475D01*
X11614690Y9996909D01*
X11630162Y10012381D01*
X11638535Y10032596D01*
Y10054476D01*
X11630162Y10074691D01*
X11614690Y10090162D01*
X11614123Y10090397D01*
Y10476342D01*
X11626626Y10488845D01*
X11635000Y10509060D01*
Y10530940D01*
X11626626Y10551155D01*
X11611155Y10566627D01*
X11590940Y10575000D01*
X11577613D01*
X11571400Y10590000D01*
X11571628Y10590229D01*
X11571629Y10590229D01*
X11578259Y10600152D01*
X11580588Y10611858D01*
Y11318994D01*
X11580588Y11318995D01*
X11578259Y11330700D01*
X11571629Y11340624D01*
X11571628Y11340624D01*
X11526695Y11385558D01*
Y11395576D01*
X11518322Y11415791D01*
X11502850Y11431263D01*
X11482635Y11439636D01*
D02*
G37*
G36*
X2590940Y10225000D02*
X2569060D01*
X2548845Y10216627D01*
X2533373Y10201155D01*
X2525000Y10180940D01*
Y10159060D01*
X2533373Y10138845D01*
X2539216Y10133002D01*
Y9328120D01*
X2539216Y9328118D01*
X2542321Y9312511D01*
X2551162Y9299280D01*
X2595000Y9255441D01*
Y9239060D01*
X2603374Y9218845D01*
X2618845Y9203374D01*
X2639060Y9195000D01*
X2660940D01*
X2681155Y9203374D01*
X2696627Y9218845D01*
X2705000Y9239060D01*
Y9260940D01*
X2696627Y9281155D01*
X2681155Y9296627D01*
X2660940Y9305000D01*
X2660795D01*
X2620783Y9345012D01*
Y10133002D01*
X2626626Y10138845D01*
X2635000Y10159060D01*
Y10180940D01*
X2626626Y10201155D01*
X2611155Y10216627D01*
X2590940Y10225000D01*
D02*
G37*
G36*
X4096457Y9445000D02*
X4063543D01*
X4031752Y9436482D01*
X4003248Y9420025D01*
X3979975Y9396752D01*
X3963518Y9368248D01*
X3955000Y9336457D01*
Y9303543D01*
X3963518Y9271752D01*
X3979975Y9243248D01*
X4003248Y9219975D01*
X4031752Y9203518D01*
X4063543Y9195000D01*
X4096457D01*
X4128248Y9203518D01*
X4156752Y9219975D01*
X4180025Y9243248D01*
X4196482Y9271752D01*
X4205000Y9303543D01*
Y9336457D01*
X4196482Y9368248D01*
X4180025Y9396752D01*
X4156752Y9420025D01*
X4128248Y9436482D01*
X4096457Y9445000D01*
D02*
G37*
G36*
X5170940Y9555000D02*
X5149060D01*
X5128845Y9546627D01*
X5113374Y9531155D01*
X5110575Y9524398D01*
X5106552Y9523178D01*
X5077887Y9507856D01*
X5052763Y9487237D01*
X5050526Y9485000D01*
X5049060D01*
X5028845Y9476626D01*
X5013374Y9461155D01*
X5005000Y9440940D01*
Y9439474D01*
X4902763Y9337237D01*
X4882144Y9312113D01*
X4866823Y9283448D01*
X4857388Y9252346D01*
X4854202Y9220000D01*
Y9105798D01*
X4690000D01*
X4660421Y9102885D01*
X4630842Y9105798D01*
X4429804D01*
X4397459Y9102612D01*
X4366356Y9093177D01*
X4337692Y9077856D01*
X4312567Y9057237D01*
X4057975Y8802644D01*
X4057654Y8802613D01*
X4026552Y8793177D01*
X3997887Y8777856D01*
X3972763Y8757237D01*
X3952144Y8732113D01*
X3936822Y8703448D01*
X3927387Y8672346D01*
X3924202Y8640000D01*
X3927387Y8607654D01*
X3936822Y8576552D01*
X3952144Y8547887D01*
X3972763Y8522763D01*
X3997887Y8502144D01*
X4026552Y8486822D01*
X4057654Y8477387D01*
X4090000Y8474202D01*
X4129805D01*
X4162150Y8477387D01*
X4193253Y8486822D01*
X4221917Y8502144D01*
X4247042Y8522763D01*
X4419279Y8695000D01*
X4440940D01*
X4461155Y8703373D01*
X4476627Y8718845D01*
X4485000Y8739060D01*
Y8760721D01*
X4498480Y8774202D01*
X4630842D01*
X4660421Y8777115D01*
X4690000Y8774202D01*
X4878096D01*
X4910442Y8777387D01*
X4941544Y8786822D01*
X4949048Y8790833D01*
X4956552Y8786822D01*
X4987654Y8777387D01*
X5020000Y8774202D01*
X5052346Y8777387D01*
X5083448Y8786822D01*
X5112113Y8802144D01*
X5137237Y8822763D01*
X5155487Y8845000D01*
X5230000D01*
Y9005000D01*
X5185798D01*
Y9151324D01*
X5255509Y9221035D01*
X5261155Y9223373D01*
X5276626Y9238845D01*
X5278965Y9244491D01*
X5287237Y9252763D01*
X5307856Y9277887D01*
X5321850Y9304069D01*
X5336627Y9318845D01*
X5345000Y9339060D01*
Y9360940D01*
X5336627Y9381155D01*
X5334489Y9383293D01*
X5332613Y9402346D01*
X5325335Y9426336D01*
X5328036Y9427455D01*
X5343508Y9442927D01*
X5351881Y9463142D01*
Y9485022D01*
X5343508Y9505237D01*
X5328036Y9520708D01*
X5307821Y9529082D01*
X5285941D01*
X5265726Y9520708D01*
X5256092Y9511074D01*
X5233448Y9523178D01*
X5206398Y9531383D01*
X5191155Y9546627D01*
X5170940Y9555000D01*
D02*
G37*
G36*
X610000Y10525561D02*
X593032Y10523327D01*
X577220Y10516777D01*
X563642Y10506358D01*
X553223Y10492780D01*
X546673Y10476968D01*
X544439Y10460000D01*
Y8897588D01*
X529439Y8893038D01*
X519350Y8908137D01*
X497935Y8929553D01*
X472753Y8946379D01*
X444772Y8957969D01*
X415068Y8963877D01*
X384782D01*
X355078Y8957969D01*
X327097Y8946379D01*
X301915Y8929553D01*
X280500Y8908137D01*
X263674Y8882955D01*
X252084Y8854974D01*
X246175Y8825270D01*
Y8794984D01*
X252084Y8765280D01*
X263674Y8737299D01*
X280500Y8712117D01*
X301915Y8690702D01*
X327097Y8673876D01*
X355078Y8662286D01*
X384782Y8656377D01*
X415068D01*
X444772Y8662286D01*
X472753Y8673876D01*
X497935Y8690702D01*
X519350Y8712117D01*
X529439Y8727216D01*
X544439Y8722666D01*
Y8577359D01*
X452039Y8484959D01*
X444772Y8487969D01*
X415068Y8493877D01*
X384782D01*
X355078Y8487969D01*
X327097Y8476379D01*
X301915Y8459553D01*
X280500Y8438137D01*
X263674Y8412955D01*
X252084Y8384975D01*
X246175Y8355270D01*
Y8324984D01*
X252084Y8295280D01*
X263674Y8267299D01*
X280500Y8242117D01*
X301915Y8220702D01*
X327097Y8203876D01*
X355078Y8192286D01*
X384782Y8186377D01*
X415068D01*
X444772Y8192286D01*
X472753Y8203876D01*
X497935Y8220702D01*
X519350Y8242117D01*
X536176Y8267299D01*
X547766Y8295280D01*
X553675Y8324984D01*
Y8355270D01*
X547766Y8384975D01*
X544756Y8392242D01*
X656358Y8503844D01*
X666777Y8517422D01*
X673327Y8533234D01*
X675561Y8550202D01*
Y10460000D01*
X673327Y10476968D01*
X666777Y10492780D01*
X656358Y10506358D01*
X642781Y10516777D01*
X626969Y10523327D01*
X610000Y10525561D01*
D02*
G37*
G36*
X1949000Y8889000D02*
X1779000D01*
Y8719000D01*
X1949000D01*
Y8889000D01*
D02*
G37*
G36*
X7269165Y8783000D02*
X7242834D01*
X7217401Y8776185D01*
X7194598Y8763020D01*
X7175980Y8744401D01*
X7162814Y8721598D01*
X7156000Y8696165D01*
Y8669835D01*
X7162814Y8644402D01*
X7175980Y8621599D01*
X7194598Y8602980D01*
X7217401Y8589815D01*
X7242834Y8583000D01*
X7269165D01*
X7294598Y8589815D01*
X7317401Y8602980D01*
X7336019Y8621599D01*
X7349184Y8644402D01*
X7355999Y8669835D01*
Y8696165D01*
X7349184Y8721598D01*
X7336019Y8744401D01*
X7317401Y8763020D01*
X7294598Y8776185D01*
X7269165Y8783000D01*
D02*
G37*
G36*
X6819165D02*
X6792834D01*
X6767401Y8776185D01*
X6744598Y8763020D01*
X6725980Y8744401D01*
X6712815Y8721598D01*
X6706000Y8696165D01*
Y8669835D01*
X6712815Y8644402D01*
X6725980Y8621599D01*
X6744598Y8602980D01*
X6767401Y8589815D01*
X6792834Y8583000D01*
X6819165D01*
X6844598Y8589815D01*
X6867401Y8602980D01*
X6886019Y8621599D01*
X6899185Y8644402D01*
X6905999Y8669835D01*
Y8696165D01*
X6899185Y8721598D01*
X6886019Y8744401D01*
X6867401Y8763020D01*
X6844598Y8776185D01*
X6819165Y8783000D01*
D02*
G37*
G36*
X9200940Y9755000D02*
X9179060D01*
X9158845Y9746627D01*
X9143373Y9731155D01*
X9135000Y9710940D01*
Y9689060D01*
X9143373Y9668845D01*
X9158845Y9653374D01*
X9159412Y9653139D01*
Y8676861D01*
X9158845Y8676627D01*
X9143373Y8661155D01*
X9135000Y8640940D01*
Y8619060D01*
X9143373Y8598845D01*
X9158845Y8583373D01*
X9179060Y8575000D01*
X9200940D01*
X9221155Y8583373D01*
X9236626Y8598845D01*
X9245000Y8619060D01*
Y8640940D01*
X9236626Y8661155D01*
X9221155Y8676627D01*
X9220588Y8676861D01*
Y9653139D01*
X9221155Y9653374D01*
X9236626Y9668845D01*
X9245000Y9689060D01*
Y9710940D01*
X9236626Y9731155D01*
X9221155Y9746627D01*
X9200940Y9755000D01*
D02*
G37*
G36*
X11690940Y11085000D02*
X11669060D01*
X11648845Y11076627D01*
X11633373Y11061155D01*
X11625000Y11040940D01*
Y11019060D01*
X11633373Y10998845D01*
X11648845Y10983374D01*
X11669060Y10975000D01*
X11690940D01*
X11691507Y10975235D01*
X11789412Y10877330D01*
Y10536862D01*
X11788845Y10536627D01*
X11773373Y10521155D01*
X11765000Y10500940D01*
Y10479060D01*
X11773373Y10458845D01*
X11788845Y10443374D01*
X11809060Y10435000D01*
X11830940D01*
X11831507Y10435235D01*
X11939412Y10327330D01*
Y8586861D01*
X11938845Y8586626D01*
X11923373Y8571155D01*
X11915000Y8550940D01*
Y8529060D01*
X11923373Y8508845D01*
X11938845Y8493373D01*
X11959060Y8485000D01*
X11980940D01*
X12001155Y8493373D01*
X12016626Y8508845D01*
X12025000Y8529060D01*
Y8550940D01*
X12016626Y8571155D01*
X12001155Y8586626D01*
X12000588Y8586861D01*
Y10340000D01*
X11998259Y10351705D01*
X11991629Y10361629D01*
X11991628Y10361630D01*
X11874765Y10478493D01*
X11875000Y10479060D01*
Y10500940D01*
X11866627Y10521155D01*
X11851155Y10536627D01*
X11850588Y10536862D01*
Y10889999D01*
X11850588Y10890000D01*
X11848259Y10901705D01*
X11841629Y10911629D01*
X11841628Y10911629D01*
X11734765Y11018493D01*
X11735000Y11019060D01*
Y11040940D01*
X11726627Y11061155D01*
X11711155Y11076627D01*
X11690940Y11085000D01*
D02*
G37*
G36*
X5230000Y8715000D02*
X5010000D01*
Y8598941D01*
X5009216Y8595000D01*
X5009216Y8594999D01*
Y8581893D01*
X5006902Y8579579D01*
X4998061Y8566348D01*
X4994956Y8550740D01*
X4994957Y8550739D01*
Y8542738D01*
X4983374Y8531155D01*
X4975000Y8510940D01*
Y8489060D01*
X4983374Y8468845D01*
X4998845Y8453373D01*
X5019060Y8445000D01*
X5040940D01*
X5059880Y8452845D01*
X5074880Y8447499D01*
Y8340000D01*
X5204879D01*
Y8437511D01*
X5212307Y8449217D01*
X5227914Y8452321D01*
X5241145Y8461162D01*
X5260625Y8480642D01*
X5268888D01*
X5289103Y8489015D01*
X5304574Y8504487D01*
X5312948Y8524702D01*
Y8546582D01*
X5304574Y8566796D01*
X5289103Y8582268D01*
X5268888Y8590641D01*
X5247008D01*
X5242472Y8588763D01*
X5230000Y8597096D01*
Y8715000D01*
D02*
G37*
G36*
X4795000Y8710000D02*
X4585000D01*
Y8560000D01*
X4639217D01*
Y8536998D01*
X4633374Y8531155D01*
X4625000Y8510940D01*
Y8489060D01*
X4633374Y8468845D01*
X4648845Y8453373D01*
X4669060Y8445000D01*
X4690940D01*
X4711155Y8453373D01*
X4726627Y8468845D01*
X4735000Y8489060D01*
Y8510940D01*
X4726627Y8531155D01*
X4720784Y8536998D01*
Y8560000D01*
X4788753D01*
X4793373Y8548845D01*
X4797219Y8545000D01*
X4794479Y8530000D01*
X4774880D01*
Y8340000D01*
X4904879D01*
Y8530000D01*
X4885692D01*
X4882781Y8545000D01*
X4886626Y8548845D01*
X4895000Y8569060D01*
Y8590940D01*
X4886626Y8611155D01*
X4871155Y8626627D01*
X4850940Y8635000D01*
X4829060D01*
X4810000Y8627105D01*
X4795000Y8632380D01*
Y8710000D01*
D02*
G37*
G36*
X5640000Y8385000D02*
X5420000D01*
Y8359136D01*
X5333931D01*
X5316963Y8356902D01*
X5301151Y8350352D01*
X5287573Y8339934D01*
X5277154Y8326355D01*
X5270604Y8310544D01*
X5268370Y8293575D01*
X5270604Y8276607D01*
X5277154Y8260795D01*
X5287573Y8247217D01*
X5301151Y8236798D01*
X5316963Y8230248D01*
X5333931Y8228015D01*
X5420000D01*
Y8225000D01*
X5640000D01*
Y8385000D01*
D02*
G37*
G36*
X6110000Y8565561D02*
X6093032Y8563327D01*
X6077220Y8556777D01*
X6063642Y8546358D01*
X6053223Y8532780D01*
X6046673Y8516968D01*
X6044439Y8500000D01*
Y8440208D01*
X6024793D01*
Y8219793D01*
X6205120D01*
Y8440208D01*
X6175561D01*
Y8500000D01*
X6173327Y8516968D01*
X6166777Y8532780D01*
X6156358Y8546358D01*
X6142780Y8556777D01*
X6126968Y8563327D01*
X6110000Y8565561D01*
D02*
G37*
G36*
X5640000Y8095000D02*
X5420000D01*
Y7935000D01*
X5464439D01*
Y7890000D01*
X5466673Y7873031D01*
X5473223Y7857219D01*
X5483642Y7843642D01*
X5497220Y7833223D01*
X5513032Y7826673D01*
X5530000Y7824439D01*
X5546969Y7826673D01*
X5562781Y7833223D01*
X5576358Y7843642D01*
X5586777Y7857219D01*
X5593327Y7873031D01*
X5595561Y7890000D01*
Y7935000D01*
X5640000D01*
Y8095000D01*
D02*
G37*
G36*
X553675Y8023877D02*
X246175D01*
Y7716377D01*
X553675D01*
Y8023877D01*
D02*
G37*
G36*
X5910208Y7745120D02*
X5689793D01*
Y7680783D01*
X5635578D01*
X5629735Y7686626D01*
X5609520Y7695000D01*
X5587640D01*
X5567425Y7686626D01*
X5551953Y7671155D01*
X5543580Y7650940D01*
Y7629060D01*
X5551953Y7608845D01*
X5567425Y7593373D01*
X5587640Y7585000D01*
X5609520D01*
X5629735Y7593373D01*
X5635578Y7599216D01*
X5689793D01*
Y7564793D01*
X5910208D01*
Y7745120D01*
D02*
G37*
G36*
X2187500Y7717500D02*
X2022500D01*
Y7520530D01*
X2007500Y7513435D01*
X2002113Y7517856D01*
X1973448Y7533178D01*
X1942346Y7542613D01*
X1910000Y7545798D01*
X1882500D01*
Y7717500D01*
X1717500D01*
Y7545798D01*
X1460000D01*
X1427654Y7542613D01*
X1396552Y7533178D01*
X1367887Y7517856D01*
X1342763Y7497237D01*
X1322144Y7472113D01*
X1306822Y7443448D01*
X1297387Y7412346D01*
X1294202Y7380000D01*
X1295000Y7371892D01*
Y7359060D01*
X1296658Y7355057D01*
X1297387Y7347655D01*
X1306822Y7316552D01*
X1322144Y7287888D01*
X1342763Y7262763D01*
X1367887Y7242144D01*
X1396552Y7226823D01*
X1427654Y7217388D01*
X1455248Y7214670D01*
X1455869Y7213169D01*
X1471341Y7197698D01*
X1491556Y7189324D01*
X1513436D01*
X1533651Y7197698D01*
X1549122Y7213169D01*
X1549550Y7214202D01*
X1841324D01*
X2250118Y6805409D01*
X2244953Y6791326D01*
X1948012Y6766834D01*
X1943036Y6764275D01*
X1937867Y6762133D01*
X1937594Y6761476D01*
X1936962Y6761151D01*
X1935252Y6755822D01*
X1933111Y6750653D01*
Y6736236D01*
X1495000D01*
Y6740000D01*
X1285000D01*
Y6736236D01*
X1010000D01*
X998519Y6731481D01*
X978520Y6711481D01*
X973764Y6700000D01*
X978520Y6688520D01*
X993764Y6673275D01*
Y6250000D01*
X995999Y6244606D01*
X997962Y6239105D01*
X998354Y6238920D01*
X998519Y6238520D01*
X1003915Y6236285D01*
X1009192Y6233784D01*
X1090000Y6229759D01*
Y6075000D01*
X1094008D01*
Y6030000D01*
X1097960Y5999979D01*
X1109548Y5972004D01*
X1127981Y5947981D01*
X1152004Y5929547D01*
X1179979Y5917960D01*
X1210000Y5914007D01*
X1240021Y5917960D01*
X1267996Y5929547D01*
X1292019Y5947981D01*
X1310453Y5972004D01*
X1322040Y5999979D01*
X1325993Y6030000D01*
Y6090000D01*
X1322040Y6120021D01*
X1310453Y6147996D01*
X1310000Y6148587D01*
Y6207921D01*
X1320867Y6218260D01*
X2009637Y6183953D01*
X2012860Y6185103D01*
X2016282Y6185018D01*
X2018481Y6187110D01*
X2021340Y6188131D01*
X2022805Y6191224D01*
X2025285Y6193584D01*
X2031369Y6207295D01*
X2031454Y6210717D01*
X2032764Y6213879D01*
X2031602Y6216683D01*
X2031678Y6219717D01*
X2029318Y6222197D01*
X2028008Y6225360D01*
X1996236Y6257132D01*
Y6281101D01*
X2006852Y6291698D01*
X2206456Y6291326D01*
X2216335Y6280039D01*
X2214008Y6262359D01*
X2217960Y6232338D01*
X2229547Y6204362D01*
X2247981Y6180339D01*
X2272004Y6161906D01*
X2299979Y6150318D01*
X2330000Y6146366D01*
X2447356D01*
X2447358Y6146366D01*
X2477379Y6150318D01*
X2505355Y6161906D01*
X2509387Y6165000D01*
X2530000D01*
Y6180962D01*
X2537019Y6187981D01*
X2555452Y6212004D01*
X2567040Y6239979D01*
X2570993Y6270000D01*
X2569760Y6279363D01*
X2579661Y6290631D01*
X2659353Y6290482D01*
X2659361Y6290486D01*
X2659368Y6290482D01*
X2665066Y6292836D01*
X2670843Y6295217D01*
X2670846Y6295224D01*
X2670853Y6295227D01*
X2681470Y6305824D01*
X2681473Y6305831D01*
X2681481Y6305834D01*
X2683841Y6311533D01*
X2686236Y6317300D01*
X2686233Y6317307D01*
X2686236Y6317315D01*
Y6358764D01*
X2803764D01*
Y6337963D01*
X2804666Y6335783D01*
X2801747Y6327996D01*
X2798132Y6323421D01*
X2795981Y6321464D01*
X2795282Y6321058D01*
X2794644Y6320783D01*
X2755000D01*
X2739392Y6317679D01*
X2726161Y6308838D01*
X2726161Y6308838D01*
X2716161Y6298839D01*
X2707321Y6285607D01*
X2704216Y6270000D01*
X2707321Y6254393D01*
X2709530Y6251086D01*
X2709314Y6250000D01*
Y6220000D01*
X2712031Y6206344D01*
X2719766Y6194767D01*
X2731344Y6187031D01*
X2745000Y6184315D01*
X2758656Y6187031D01*
X2770233Y6194767D01*
X2777969Y6206344D01*
X2780686Y6220000D01*
Y6239216D01*
X2860000D01*
X2875607Y6242321D01*
X2888839Y6251161D01*
X2894216Y6259210D01*
X2909216Y6254660D01*
Y6212980D01*
X2831142Y6134905D01*
X2822301Y6121674D01*
X2819196Y6106067D01*
X2819197Y6106065D01*
Y5872103D01*
X2819196Y5872102D01*
X2822301Y5856494D01*
X2831142Y5843263D01*
X3079217Y5595188D01*
Y4246546D01*
X3064217Y4241489D01*
X3038248Y4256482D01*
X3006457Y4265000D01*
X2973543D01*
X2941752Y4256482D01*
X2913248Y4240025D01*
X2889975Y4216752D01*
X2873519Y4188248D01*
X2865000Y4156457D01*
Y4123543D01*
X2873519Y4091752D01*
X2889975Y4063248D01*
X2913248Y4039975D01*
X2941752Y4023518D01*
X2973543Y4015000D01*
X3006457D01*
X3038248Y4023518D01*
X3064217Y4038511D01*
X3079217Y4033454D01*
Y3400001D01*
X3079216Y3400000D01*
X3082321Y3384393D01*
X3091162Y3371162D01*
X3316051Y3146273D01*
X3313749Y3142828D01*
X3302158Y3114847D01*
X3296250Y3085143D01*
Y3054857D01*
X3302158Y3025153D01*
X3313749Y2997172D01*
X3330574Y2971990D01*
X3351990Y2950575D01*
X3377172Y2933749D01*
X3405153Y2922159D01*
X3434857Y2916250D01*
X3465143D01*
X3494847Y2922159D01*
X3522828Y2933749D01*
X3548010Y2950575D01*
X3569425Y2971990D01*
X3586251Y2997172D01*
X3597841Y3025153D01*
X3603750Y3054857D01*
Y3085143D01*
X3597841Y3114847D01*
X3586251Y3142828D01*
X3569425Y3168010D01*
X3548010Y3189426D01*
X3522828Y3206252D01*
X3494847Y3217842D01*
X3465143Y3223750D01*
X3434857D01*
X3405153Y3217842D01*
X3377172Y3206252D01*
X3373727Y3203950D01*
X3160784Y3416893D01*
Y5612080D01*
X3160784Y5612081D01*
X3157679Y5627689D01*
X3148839Y5640920D01*
X3148838Y5640920D01*
X2900764Y5888995D01*
Y6089173D01*
X2978838Y6167248D01*
X2987679Y6180479D01*
X2990784Y6196086D01*
X2990783Y6196088D01*
Y6279249D01*
X3001400Y6289845D01*
X4139353Y6287726D01*
X4139361Y6287729D01*
X4139368Y6287726D01*
X4145066Y6290079D01*
X4150843Y6292460D01*
X4150846Y6292467D01*
X4150854Y6292470D01*
X4161470Y6303067D01*
X4161473Y6303075D01*
X4161481Y6303078D01*
X4163841Y6308776D01*
X4166236Y6314543D01*
X4166233Y6314550D01*
X4166236Y6314558D01*
Y6740000D01*
X4164990Y6743008D01*
X4164979Y6746264D01*
X4162706Y6748521D01*
X4161481Y6751481D01*
X4158473Y6752726D01*
X4156163Y6755021D01*
X3766163Y6915021D01*
X3762322Y6915008D01*
X3758665Y6916181D01*
X3167602Y6867429D01*
X3167547Y6867401D01*
X3167489Y6867419D01*
X3153552Y6866171D01*
X3148641Y6863601D01*
X3143519Y6861480D01*
X3143519Y6861480D01*
X3143224Y6860768D01*
X3142541Y6860411D01*
X3140886Y6855122D01*
X3138764Y6850000D01*
X2945000D01*
Y6850000D01*
X2930860Y6847901D01*
X2628075Y6822927D01*
X2618652Y6834597D01*
X2622612Y6847655D01*
X2625798Y6880000D01*
X2622612Y6912346D01*
X2613177Y6943448D01*
X2597856Y6972113D01*
X2577237Y6997237D01*
X2552112Y7017856D01*
X2523448Y7033178D01*
X2492346Y7042613D01*
X2480716Y7043758D01*
X2433332Y7091142D01*
X2439072Y7105000D01*
X2959412D01*
Y7046861D01*
X2958845Y7046626D01*
X2943374Y7031155D01*
X2935000Y7010940D01*
Y6989060D01*
X2943374Y6968845D01*
X2958845Y6953373D01*
X2979060Y6945000D01*
X3000940D01*
X3021155Y6953373D01*
X3036627Y6968845D01*
X3045000Y6989060D01*
Y7010940D01*
X3036627Y7031155D01*
X3021155Y7046626D01*
X3020588Y7046861D01*
Y7105000D01*
X3087000D01*
Y7715000D01*
X2417000D01*
Y7640588D01*
X2187500D01*
Y7717500D01*
D02*
G37*
G36*
X3507000Y7713000D02*
X3257000D01*
Y7563000D01*
X3463742D01*
X3509481Y7517262D01*
X3503373Y7511155D01*
X3495000Y7490940D01*
Y7469060D01*
X3503373Y7448845D01*
X3518845Y7433374D01*
X3539060Y7425000D01*
X3560940D01*
X3581155Y7433374D01*
X3596627Y7448845D01*
X3605000Y7469060D01*
Y7490940D01*
X3596627Y7511155D01*
X3581155Y7526627D01*
X3570749Y7530937D01*
X3568692Y7541272D01*
X3562062Y7551196D01*
X3562061Y7551196D01*
X3507000Y7606258D01*
Y7713000D01*
D02*
G37*
G36*
X8480000Y7005561D02*
X8463032Y7003327D01*
X8447220Y6996777D01*
X8433642Y6986358D01*
X8423223Y6972781D01*
X8416673Y6956969D01*
X8414439Y6940000D01*
Y6892941D01*
X8399439Y6887337D01*
X8380940Y6895000D01*
X8359060D01*
X8338845Y6886627D01*
X8333002Y6880784D01*
X8245000D01*
Y6895000D01*
X8115000D01*
Y6705000D01*
X8245000D01*
Y6799217D01*
X8333002D01*
X8338845Y6793374D01*
X8359060Y6785000D01*
X8380940D01*
X8400000Y6792895D01*
X8406054Y6790766D01*
X8415000Y6786005D01*
Y6705000D01*
X8545000D01*
Y6795740D01*
X8545561Y6800000D01*
Y6940000D01*
X8543327Y6956969D01*
X8536777Y6972781D01*
X8526358Y6986358D01*
X8512781Y6996777D01*
X8496969Y7003327D01*
X8480000Y7005561D01*
D02*
G37*
G36*
X1380000Y7195992D02*
X1349979Y7192040D01*
X1322004Y7180452D01*
X1297981Y7162019D01*
X1279548Y7137996D01*
X1267960Y7110021D01*
X1264008Y7080000D01*
Y6965002D01*
X1264007Y6965000D01*
X1267960Y6934979D01*
X1279548Y6907004D01*
X1285000Y6899898D01*
Y6880000D01*
X1300962D01*
X1307981Y6872981D01*
X1332004Y6854548D01*
X1359979Y6842960D01*
X1390000Y6839007D01*
X1420021Y6842960D01*
X1447996Y6854548D01*
X1472019Y6872981D01*
X1477405Y6880000D01*
X1495000D01*
Y6907982D01*
X1502040Y6924979D01*
X1505993Y6955000D01*
X1502040Y6985021D01*
X1495992Y6999622D01*
Y7080000D01*
X1492040Y7110021D01*
X1480452Y7137996D01*
X1462019Y7162019D01*
X1437996Y7180452D01*
X1410021Y7192040D01*
X1380000Y7195992D01*
D02*
G37*
G36*
X6820940Y7545000D02*
X6799060D01*
X6778845Y7536627D01*
X6763374Y7521155D01*
X6755000Y7500940D01*
Y7479060D01*
X6763374Y7458845D01*
X6778845Y7443373D01*
X6799060Y7435000D01*
X6812401D01*
X6894412Y7352989D01*
Y6755120D01*
X6879412Y6752895D01*
X6873178Y6773448D01*
X6869642Y6780063D01*
X6861910Y6798730D01*
X6854786Y6805854D01*
X6837237Y6827237D01*
X6812113Y6847856D01*
X6783448Y6863178D01*
X6752346Y6872613D01*
X6720000Y6875798D01*
X6687654Y6872613D01*
X6656552Y6863178D01*
X6627887Y6847856D01*
X6602763Y6827237D01*
X6582144Y6802113D01*
X6566823Y6773448D01*
X6557387Y6742346D01*
X6554202Y6710000D01*
Y5988676D01*
X6412763Y5847237D01*
X6392144Y5822113D01*
X6376822Y5793448D01*
X6367387Y5762346D01*
X6365388Y5742049D01*
X6365160Y5741821D01*
X6351995Y5719019D01*
X6350798Y5714552D01*
X6335798Y5716527D01*
Y6441324D01*
X6357237Y6462763D01*
X6377856Y6487887D01*
X6393177Y6516552D01*
X6402613Y6547654D01*
X6405798Y6580000D01*
X6402613Y6612346D01*
X6393177Y6643448D01*
X6377856Y6672113D01*
X6357237Y6697237D01*
X6332113Y6717856D01*
X6303448Y6733178D01*
X6272346Y6742613D01*
X6240000Y6745798D01*
X6207654Y6742613D01*
X6176552Y6733178D01*
X6147887Y6717856D01*
X6122763Y6697237D01*
X6052763Y6627237D01*
X6032144Y6602113D01*
X6016823Y6573448D01*
X6007388Y6542346D01*
X6004202Y6510000D01*
Y5701600D01*
X6007388Y5669255D01*
X6016823Y5638152D01*
X6032144Y5609488D01*
X6052763Y5584363D01*
X6077888Y5563744D01*
X6106552Y5548423D01*
X6137654Y5538988D01*
X6170000Y5535802D01*
X6202346Y5538988D01*
X6233448Y5548423D01*
X6262113Y5563744D01*
X6282432Y5580420D01*
X6291180D01*
Y5589168D01*
X6307856Y5609488D01*
X6323178Y5638152D01*
X6330756Y5663133D01*
X6346353Y5662878D01*
X6351995Y5641822D01*
X6365160Y5619019D01*
X6383779Y5600401D01*
X6406582Y5587235D01*
X6432015Y5580420D01*
X6458345D01*
X6459328Y5580684D01*
X6466552Y5576822D01*
X6497654Y5567387D01*
X6530000Y5564202D01*
X6562346Y5567387D01*
X6593448Y5576822D01*
X6622112Y5592144D01*
X6647237Y5612763D01*
X6837237Y5802763D01*
X6857856Y5827888D01*
X6873178Y5856552D01*
X6882613Y5887654D01*
X6885798Y5920000D01*
Y6221822D01*
X6900798Y6230493D01*
X6914060Y6225000D01*
X6935940D01*
X6956155Y6233373D01*
X6971627Y6248845D01*
X6980000Y6269060D01*
Y6290940D01*
X6971627Y6311155D01*
X6956155Y6326626D01*
X6955588Y6326861D01*
Y7365657D01*
X6955588Y7365658D01*
X6953259Y7377364D01*
X6946629Y7387287D01*
X6946628Y7387288D01*
X6862029Y7471887D01*
X6865000Y7479060D01*
Y7500940D01*
X6856627Y7521155D01*
X6841155Y7536627D01*
X6820940Y7545000D01*
D02*
G37*
G36*
X230382Y6769127D02*
X197469D01*
X165677Y6760609D01*
X137173Y6744152D01*
X113900Y6720879D01*
X97444Y6692376D01*
X88925Y6660584D01*
Y6627671D01*
X97444Y6595879D01*
X113900Y6567375D01*
X137173Y6544102D01*
X165677Y6527646D01*
X197469Y6519127D01*
X230382D01*
X262174Y6527646D01*
X290677Y6544102D01*
X313950Y6567375D01*
X330407Y6595879D01*
X338925Y6627671D01*
Y6660584D01*
X330407Y6692376D01*
X313950Y6720879D01*
X290677Y6744152D01*
X262174Y6760609D01*
X230382Y6769127D01*
D02*
G37*
G36*
X5420940Y7395000D02*
X5399060D01*
X5378845Y7386627D01*
X5363374Y7371155D01*
X5355000Y7350940D01*
Y7329060D01*
X5363374Y7308845D01*
X5369217Y7303002D01*
Y6318365D01*
X5354217Y6312152D01*
X5346155Y6320214D01*
X5325940Y6328587D01*
X5304060D01*
X5283845Y6320214D01*
X5268373Y6304742D01*
X5260000Y6284527D01*
Y6262647D01*
X5268373Y6242433D01*
X5283845Y6226961D01*
X5286912Y6225690D01*
Y3904693D01*
X5273374Y3891155D01*
X5265000Y3870940D01*
Y3849060D01*
X5273374Y3828845D01*
X5288845Y3813373D01*
X5309060Y3805000D01*
X5330940D01*
X5351155Y3813373D01*
X5366627Y3828845D01*
X5375000Y3849060D01*
Y3870940D01*
X5366627Y3891155D01*
X5351155Y3906626D01*
X5348088Y3907897D01*
Y6221553D01*
X5354217Y6226138D01*
X5369217Y6218627D01*
Y5870001D01*
X5369216Y5870000D01*
X5372321Y5854393D01*
X5381162Y5841162D01*
X5555000Y5667323D01*
Y5659060D01*
X5563373Y5638845D01*
X5578845Y5623374D01*
X5589216Y5619078D01*
Y4046998D01*
X5583373Y4041155D01*
X5575000Y4020940D01*
Y3999060D01*
X5583373Y3978845D01*
X5598845Y3963374D01*
X5619060Y3955000D01*
X5640940D01*
X5661155Y3963374D01*
X5664412Y3966631D01*
X5679412Y3960418D01*
Y2467968D01*
X5674885Y2465555D01*
X5664412Y2463369D01*
X5651155Y2476626D01*
X5630940Y2485000D01*
X5609060D01*
X5588845Y2476626D01*
X5573373Y2461155D01*
X5565000Y2440940D01*
Y2419060D01*
X5573373Y2398845D01*
X5588845Y2383373D01*
X5589412Y2383138D01*
Y1986861D01*
X5588845Y1986626D01*
X5573373Y1971155D01*
X5565000Y1950940D01*
Y1929060D01*
X5573373Y1908845D01*
X5588845Y1893373D01*
X5609060Y1885000D01*
X5630940D01*
X5651155Y1893373D01*
X5664412Y1906631D01*
X5674885Y1904445D01*
X5679412Y1902032D01*
Y1398680D01*
X5501320Y1220588D01*
X2280209D01*
X2280208Y1220588D01*
X2268502Y1218259D01*
X2258579Y1211629D01*
X2231654Y1184704D01*
X2230940Y1185000D01*
X2209060D01*
X2188845Y1176627D01*
X2173373Y1161155D01*
X2165000Y1140940D01*
Y1119060D01*
X2173373Y1098845D01*
X2188845Y1083373D01*
X2209060Y1075000D01*
X2230940D01*
X2251155Y1083373D01*
X2266626Y1098845D01*
X2275000Y1119060D01*
Y1140940D01*
X2274826Y1141360D01*
X2292878Y1159412D01*
X3752032D01*
X3760580Y1144412D01*
X3755000Y1130940D01*
Y1109060D01*
X3763373Y1088845D01*
X3778845Y1073374D01*
X3799060Y1065000D01*
X3820940D01*
X3841155Y1073374D01*
X3856627Y1088845D01*
X3858933Y1094412D01*
X4642153D01*
X4645137Y1079412D01*
X4632800Y1074302D01*
X4607618Y1057476D01*
X4586202Y1036061D01*
X4569376Y1010879D01*
X4557786Y982898D01*
X4551878Y953194D01*
Y922908D01*
X4557786Y893203D01*
X4569376Y865223D01*
X4586202Y840041D01*
X4607618Y818625D01*
X4632800Y801799D01*
X4660780Y790209D01*
X4690485Y784301D01*
X4720771D01*
X4750475Y790209D01*
X4778456Y801799D01*
X4803638Y818625D01*
X4825053Y840041D01*
X4841879Y865223D01*
X4853469Y893203D01*
X4859378Y922908D01*
Y953194D01*
X4853469Y982898D01*
X4841879Y1010879D01*
X4825053Y1036061D01*
X4803638Y1057476D01*
X4778456Y1074302D01*
X4766118Y1079412D01*
X4769102Y1094412D01*
X5498487D01*
X5508509Y1079412D01*
X5505000Y1070940D01*
Y1049060D01*
X5513374Y1028845D01*
X5528845Y1013373D01*
X5549060Y1005000D01*
X5570940D01*
X5591155Y1013373D01*
X5606627Y1028845D01*
X5615000Y1049060D01*
Y1070940D01*
X5614765Y1071507D01*
X5831907Y1288650D01*
X5831908Y1288650D01*
X5838538Y1298574D01*
X5840867Y1310279D01*
X5840867Y1310280D01*
Y1405923D01*
X5855867Y1408906D01*
X5860642Y1397379D01*
X5874442Y1379393D01*
X5892428Y1365592D01*
X5913373Y1356917D01*
X5935850Y1353958D01*
X6078150D01*
X6100626Y1356917D01*
X6121571Y1365592D01*
X6139557Y1379393D01*
X6153358Y1397379D01*
X6162033Y1418324D01*
X6164992Y1440801D01*
X6162033Y1463277D01*
X6153358Y1484222D01*
X6139557Y1502208D01*
X6121571Y1516009D01*
X6100626Y1524684D01*
X6078150Y1527643D01*
X5935850D01*
X5913373Y1524684D01*
X5892428Y1516009D01*
X5874442Y1502208D01*
X5860642Y1484222D01*
X5855867Y1472695D01*
X5840867Y1475679D01*
Y1659923D01*
X5855867Y1662906D01*
X5860642Y1651379D01*
X5874442Y1633393D01*
X5892428Y1619592D01*
X5913373Y1610917D01*
X5935850Y1607958D01*
X6078150D01*
X6100626Y1610917D01*
X6121571Y1619592D01*
X6139557Y1633393D01*
X6153358Y1651379D01*
X6162033Y1672324D01*
X6164992Y1694801D01*
X6162033Y1717277D01*
X6153358Y1738222D01*
X6139557Y1756208D01*
X6121571Y1770009D01*
X6100626Y1778684D01*
X6078150Y1781643D01*
X5935850D01*
X5913373Y1778684D01*
X5892428Y1770009D01*
X5874442Y1756208D01*
X5860642Y1738222D01*
X5855867Y1726695D01*
X5840867Y1729679D01*
Y1913923D01*
X5855867Y1916906D01*
X5860642Y1905379D01*
X5874442Y1887393D01*
X5892428Y1873592D01*
X5913373Y1864917D01*
X5935850Y1861958D01*
X6078150D01*
X6100626Y1864917D01*
X6121571Y1873592D01*
X6139557Y1887393D01*
X6153358Y1905379D01*
X6162033Y1926324D01*
X6164992Y1948801D01*
X6162033Y1971277D01*
X6153358Y1992222D01*
X6139557Y2010208D01*
X6121571Y2024009D01*
X6100626Y2032684D01*
X6078150Y2035643D01*
X5935850D01*
X5913373Y2032684D01*
X5892428Y2024009D01*
X5874442Y2010208D01*
X5860642Y1992222D01*
X5855867Y1980695D01*
X5840867Y1983679D01*
Y2167923D01*
X5855867Y2170906D01*
X5860642Y2159379D01*
X5874442Y2141393D01*
X5892428Y2127592D01*
X5913373Y2118917D01*
X5935850Y2115958D01*
X6078150D01*
X6100626Y2118917D01*
X6121571Y2127592D01*
X6139557Y2141393D01*
X6153358Y2159379D01*
X6162033Y2180324D01*
X6164992Y2202801D01*
X6162033Y2225277D01*
X6153358Y2246222D01*
X6139557Y2264208D01*
X6121571Y2278009D01*
X6100626Y2286684D01*
X6078150Y2289643D01*
X5935850D01*
X5913373Y2286684D01*
X5892428Y2278009D01*
X5874442Y2264208D01*
X5860642Y2246222D01*
X5855867Y2234695D01*
X5840867Y2237679D01*
Y2421923D01*
X5855867Y2424906D01*
X5860642Y2413379D01*
X5874442Y2395393D01*
X5892428Y2381592D01*
X5913373Y2372917D01*
X5935850Y2369958D01*
X6078150D01*
X6100626Y2372917D01*
X6121571Y2381592D01*
X6139557Y2395393D01*
X6153358Y2413379D01*
X6162033Y2434324D01*
X6164992Y2456801D01*
X6162033Y2479277D01*
X6153358Y2500222D01*
X6139557Y2518208D01*
X6121571Y2532009D01*
X6100626Y2540684D01*
X6078150Y2543643D01*
X5935850D01*
X5913373Y2540684D01*
X5892428Y2532009D01*
X5874442Y2518208D01*
X5860642Y2500222D01*
X5855867Y2488695D01*
X5840867Y2491679D01*
Y2613380D01*
X5849750Y2624700D01*
X5855867Y2624701D01*
X6164250D01*
Y2796900D01*
X5855867D01*
X5849750Y2796901D01*
X5840867Y2808221D01*
Y3082323D01*
X5855867Y3085306D01*
X5860642Y3073779D01*
X5874442Y3055793D01*
X5892428Y3041992D01*
X5913373Y3033317D01*
X5935850Y3030358D01*
X6078150D01*
X6100626Y3033317D01*
X6121571Y3041992D01*
X6139557Y3055793D01*
X6153358Y3073779D01*
X6162033Y3094724D01*
X6164992Y3117201D01*
X6162033Y3139677D01*
X6153358Y3160622D01*
X6139557Y3178608D01*
X6121571Y3192409D01*
X6100626Y3201084D01*
X6078150Y3204043D01*
X5935850D01*
X5913373Y3201084D01*
X5892428Y3192409D01*
X5874442Y3178608D01*
X5860642Y3160622D01*
X5855867Y3149095D01*
X5840867Y3152079D01*
Y3336323D01*
X5855867Y3339306D01*
X5860642Y3327779D01*
X5874442Y3309793D01*
X5892428Y3295992D01*
X5913373Y3287317D01*
X5935850Y3284358D01*
X6078150D01*
X6100626Y3287317D01*
X6121571Y3295992D01*
X6139557Y3309793D01*
X6153358Y3327779D01*
X6162033Y3348724D01*
X6164992Y3371201D01*
X6162033Y3393677D01*
X6153358Y3414622D01*
X6139557Y3432608D01*
X6121571Y3446409D01*
X6100626Y3455084D01*
X6078150Y3458043D01*
X5935850D01*
X5913373Y3455084D01*
X5892428Y3446409D01*
X5874442Y3432608D01*
X5860642Y3414622D01*
X5855867Y3403095D01*
X5840867Y3406079D01*
Y3590323D01*
X5855867Y3593306D01*
X5860642Y3581779D01*
X5874442Y3563793D01*
X5892428Y3549992D01*
X5913373Y3541317D01*
X5935850Y3538358D01*
X6078150D01*
X6100626Y3541317D01*
X6121571Y3549992D01*
X6139557Y3563793D01*
X6153358Y3581779D01*
X6162033Y3602724D01*
X6164992Y3625201D01*
X6162033Y3647677D01*
X6153358Y3668622D01*
X6139557Y3686608D01*
X6121571Y3700409D01*
X6100626Y3709084D01*
X6078150Y3712043D01*
X5935850D01*
X5913373Y3709084D01*
X5892428Y3700409D01*
X5874442Y3686608D01*
X5860642Y3668622D01*
X5855867Y3657095D01*
X5840867Y3660079D01*
Y3844323D01*
X5855867Y3847306D01*
X5860642Y3835779D01*
X5874442Y3817793D01*
X5892428Y3803992D01*
X5913373Y3795317D01*
X5935850Y3792358D01*
X6078150D01*
X6100626Y3795317D01*
X6121571Y3803992D01*
X6139557Y3817793D01*
X6153358Y3835779D01*
X6162033Y3856724D01*
X6164992Y3879201D01*
X6162033Y3901677D01*
X6153358Y3922622D01*
X6139557Y3940608D01*
X6121571Y3954409D01*
X6100626Y3963084D01*
X6078150Y3966043D01*
X5935850D01*
X5913373Y3963084D01*
X5892428Y3954409D01*
X5874442Y3940608D01*
X5860642Y3922622D01*
X5855867Y3911095D01*
X5840867Y3914079D01*
Y4098323D01*
X5855867Y4101306D01*
X5860642Y4089779D01*
X5874442Y4071793D01*
X5892428Y4057992D01*
X5913373Y4049317D01*
X5935850Y4046358D01*
X6078150D01*
X6100626Y4049317D01*
X6121571Y4057992D01*
X6139557Y4071793D01*
X6153358Y4089779D01*
X6162033Y4110724D01*
X6164992Y4133201D01*
X6162033Y4155677D01*
X6153358Y4176622D01*
X6139557Y4194608D01*
X6121571Y4208409D01*
X6100626Y4217084D01*
X6078150Y4220043D01*
X5935850D01*
X5913373Y4217084D01*
X5892428Y4208409D01*
X5874442Y4194608D01*
X5860642Y4176622D01*
X5855867Y4165095D01*
X5840867Y4168079D01*
Y4248960D01*
X5900539Y4308633D01*
X5913373Y4303317D01*
X5935850Y4300358D01*
X6078150D01*
X6100626Y4303317D01*
X6121571Y4311992D01*
X6139557Y4325793D01*
X6153358Y4343779D01*
X6162033Y4364724D01*
X6164992Y4387201D01*
X6162033Y4409677D01*
X6153358Y4430622D01*
X6139557Y4448608D01*
X6121571Y4462409D01*
X6100626Y4471084D01*
X6078150Y4474043D01*
X5935850D01*
X5913373Y4471084D01*
X5892428Y4462409D01*
X5874442Y4448608D01*
X5860642Y4430622D01*
X5851966Y4409677D01*
X5849007Y4387201D01*
X5851966Y4364724D01*
X5857282Y4351890D01*
X5809725Y4304334D01*
X5795867Y4310074D01*
Y4467330D01*
X5893914Y4565377D01*
X5913373Y4557317D01*
X5935850Y4554358D01*
X6078150D01*
X6100626Y4557317D01*
X6121571Y4565992D01*
X6139557Y4579793D01*
X6153358Y4597779D01*
X6162033Y4618724D01*
X6164992Y4641201D01*
X6162033Y4663677D01*
X6153358Y4684622D01*
X6139557Y4702608D01*
X6121571Y4716409D01*
X6100626Y4725084D01*
X6078150Y4728043D01*
X5935850D01*
X5913373Y4725084D01*
X5892428Y4716409D01*
X5874442Y4702608D01*
X5860642Y4684622D01*
X5851966Y4663677D01*
X5849007Y4641201D01*
X5851966Y4618724D01*
X5854537Y4612516D01*
X5755588Y4513566D01*
X5740588Y4519780D01*
Y4656681D01*
X5893008Y4809101D01*
X6164250D01*
Y4981300D01*
X5849750D01*
Y4852358D01*
X5688371Y4690980D01*
X5685783Y4687107D01*
X5670783Y4691657D01*
Y5407169D01*
X5685000Y5409060D01*
X5693373Y5388845D01*
X5708845Y5373374D01*
X5729060Y5365000D01*
X5750940D01*
X5771155Y5373374D01*
X5786626Y5388845D01*
X5795000Y5409060D01*
Y5430940D01*
X5786626Y5451155D01*
X5780783Y5456998D01*
Y5563002D01*
X5786626Y5568845D01*
X5795000Y5589060D01*
Y5610940D01*
X5786626Y5631155D01*
X5771155Y5646627D01*
X5750940Y5655000D01*
X5729060D01*
X5708845Y5646627D01*
X5693373Y5631155D01*
X5685000Y5610941D01*
X5670783Y5612832D01*
Y5641882D01*
X5667679Y5657489D01*
X5665000Y5661499D01*
Y5680940D01*
X5656626Y5701155D01*
X5641155Y5716627D01*
X5620940Y5725000D01*
X5612677D01*
X5450784Y5886893D01*
Y7303002D01*
X5456627Y7308845D01*
X5465000Y7329060D01*
Y7350940D01*
X5456627Y7371155D01*
X5441155Y7386627D01*
X5420940Y7395000D01*
D02*
G37*
G36*
X214523Y6294627D02*
X193327D01*
X172853Y6289142D01*
X154497Y6278544D01*
X139509Y6263556D01*
X128911Y6245199D01*
X123425Y6224726D01*
Y6203529D01*
X128911Y6183056D01*
X139509Y6164699D01*
X154497Y6149711D01*
X172853Y6139113D01*
X193327Y6133628D01*
X214523D01*
X234997Y6139113D01*
X253353Y6149711D01*
X268341Y6164699D01*
X278939Y6183056D01*
X284425Y6203529D01*
Y6224726D01*
X278939Y6245199D01*
X268341Y6263556D01*
X253353Y6278544D01*
X234997Y6289142D01*
X214523Y6294627D01*
D02*
G37*
G36*
X7170000Y8545799D02*
X6920000D01*
X6887654Y8542613D01*
X6856552Y8533178D01*
X6848736Y8529000D01*
X6706000D01*
Y8329000D01*
X6737255D01*
X6737387Y8327654D01*
X6746822Y8296552D01*
X6762144Y8267887D01*
X6782763Y8242763D01*
X6807887Y8222144D01*
X6836552Y8206823D01*
X6867654Y8197387D01*
X6900000Y8194202D01*
X6932346Y8197387D01*
X6963448Y8206823D01*
X6977254Y8214202D01*
X7004202D01*
Y7488726D01*
X7007387Y7456381D01*
X7016822Y7425278D01*
X7032144Y7396614D01*
X7052763Y7371489D01*
X7179197Y7245055D01*
X7182144Y7239542D01*
X7202763Y7214418D01*
X7324418Y7092763D01*
X7349542Y7072144D01*
X7378207Y7056823D01*
X7409309Y7047387D01*
X7441655Y7044202D01*
X7444202D01*
Y6870000D01*
X7447387Y6837654D01*
X7456823Y6806552D01*
X7472144Y6777887D01*
X7492763Y6752763D01*
X7564202Y6681324D01*
Y6170000D01*
X7567387Y6137654D01*
X7576823Y6106552D01*
X7592144Y6077888D01*
X7612763Y6052763D01*
X7637887Y6032144D01*
X7666552Y6016823D01*
X7697654Y6007388D01*
X7730000Y6004202D01*
X7762346Y6007388D01*
X7793448Y6016823D01*
X7822113Y6032144D01*
X7847237Y6052763D01*
X7867856Y6077888D01*
X7883178Y6106552D01*
X7892613Y6137654D01*
X7895798Y6170000D01*
Y6635000D01*
X7900940D01*
X7921155Y6643374D01*
X7936626Y6658845D01*
X7945000Y6679060D01*
Y6700940D01*
X7936626Y6721155D01*
X7921155Y6736627D01*
X7905491Y6743115D01*
X7902613Y6772346D01*
X7893178Y6803448D01*
X7877856Y6832113D01*
X7857237Y6857237D01*
X7847238Y6867236D01*
X7847237Y6867237D01*
X7775798Y6938676D01*
Y7145000D01*
X7772613Y7177346D01*
X7763178Y7208448D01*
X7747856Y7237113D01*
X7727237Y7262237D01*
X7662237Y7327237D01*
X7637113Y7347856D01*
X7608448Y7363178D01*
X7585958Y7370000D01*
X7588183Y7385000D01*
X7690000D01*
Y7545000D01*
X7470000D01*
Y7438800D01*
X7469319Y7438353D01*
X7455000Y7434319D01*
X7437237Y7455963D01*
X7335798Y7557402D01*
Y8329000D01*
X7355999D01*
Y8529000D01*
X7241264D01*
X7233448Y8533178D01*
X7202346Y8542613D01*
X7170000Y8545799D01*
D02*
G37*
G36*
X214523Y6040627D02*
X193327D01*
X172853Y6035142D01*
X154497Y6024544D01*
X139509Y6009556D01*
X128911Y5991199D01*
X123425Y5970726D01*
Y5949529D01*
X128911Y5929056D01*
X139509Y5910699D01*
X154497Y5895711D01*
X172853Y5885113D01*
X193327Y5879628D01*
X214523D01*
X234997Y5885113D01*
X253353Y5895711D01*
X268341Y5910699D01*
X278939Y5929056D01*
X284425Y5949529D01*
Y5970726D01*
X278939Y5991199D01*
X268341Y6009556D01*
X253353Y6024544D01*
X234997Y6035142D01*
X214523Y6040627D01*
D02*
G37*
G36*
X3486457Y6105000D02*
X3453543D01*
X3421752Y6096482D01*
X3393248Y6080025D01*
X3369975Y6056752D01*
X3353518Y6028248D01*
X3345000Y5996457D01*
Y5963543D01*
X3353518Y5931752D01*
X3369975Y5903248D01*
X3393248Y5879975D01*
X3421752Y5863518D01*
X3453543Y5855000D01*
X3486457D01*
X3518248Y5863518D01*
X3546752Y5879975D01*
X3570025Y5903248D01*
X3586482Y5931752D01*
X3595000Y5963543D01*
Y5996457D01*
X3586482Y6028248D01*
X3570025Y6056752D01*
X3546752Y6080025D01*
X3518248Y6096482D01*
X3486457Y6105000D01*
D02*
G37*
G36*
X1963539Y6083986D02*
X1743539D01*
Y5973932D01*
X1741499Y5969007D01*
X1737546Y5938986D01*
X1741499Y5908965D01*
X1744008Y5902907D01*
Y5880000D01*
X1747960Y5849979D01*
X1759548Y5822004D01*
X1777981Y5797981D01*
X1802004Y5779547D01*
X1829979Y5767960D01*
X1860000Y5764008D01*
X1890021Y5767960D01*
X1917996Y5779547D01*
X1942019Y5797981D01*
X1960453Y5822004D01*
X1972040Y5849979D01*
X1975992Y5880000D01*
Y5932522D01*
X1975993Y5932524D01*
X1972040Y5962545D01*
X1963539Y5983070D01*
Y6083986D01*
D02*
G37*
G36*
X214523Y5786627D02*
X193327D01*
X172853Y5781142D01*
X154497Y5770544D01*
X139509Y5755556D01*
X128911Y5737199D01*
X123425Y5716726D01*
Y5695529D01*
X128911Y5675056D01*
X139509Y5656699D01*
X154497Y5641711D01*
X172853Y5631113D01*
X193327Y5625628D01*
X214523D01*
X234997Y5631113D01*
X253353Y5641711D01*
X268341Y5656699D01*
X278939Y5675056D01*
X284425Y5695529D01*
Y5716726D01*
X278939Y5737199D01*
X268341Y5755556D01*
X253353Y5770544D01*
X234997Y5781142D01*
X214523Y5786627D01*
D02*
G37*
G36*
X11356457Y5755000D02*
X11323543D01*
X11291752Y5746482D01*
X11263248Y5730025D01*
X11239975Y5706752D01*
X11223518Y5678248D01*
X11215000Y5646457D01*
Y5613543D01*
X11223518Y5581752D01*
X11239975Y5553248D01*
X11263248Y5529975D01*
X11291752Y5513518D01*
X11323543Y5505000D01*
X11356457D01*
X11388248Y5513518D01*
X11416752Y5529975D01*
X11440025Y5553248D01*
X11456482Y5581752D01*
X11465000Y5613543D01*
Y5646457D01*
X11456482Y5678248D01*
X11440025Y5706752D01*
X11416752Y5730025D01*
X11388248Y5746482D01*
X11356457Y5755000D01*
D02*
G37*
G36*
X2420000Y5945798D02*
X2387654Y5942613D01*
X2356552Y5933178D01*
X2327887Y5917856D01*
X2302763Y5897237D01*
X2282144Y5872113D01*
X2266822Y5843448D01*
X2257387Y5812346D01*
X2254202Y5780000D01*
Y5320000D01*
X2257387Y5287654D01*
X2266822Y5256552D01*
X2282144Y5227887D01*
X2302763Y5202763D01*
X2327887Y5182144D01*
X2356552Y5166823D01*
X2387654Y5157387D01*
X2420000Y5154202D01*
X2428106Y5155000D01*
X2440940D01*
X2444944Y5156658D01*
X2452346Y5157387D01*
X2483448Y5166823D01*
X2512113Y5182144D01*
X2537237Y5202763D01*
X2557856Y5227887D01*
X2573177Y5256552D01*
X2582613Y5287654D01*
X2585798Y5320000D01*
Y5780000D01*
X2582613Y5812346D01*
X2573177Y5843448D01*
X2557856Y5872113D01*
X2537237Y5897237D01*
X2512113Y5917856D01*
X2483448Y5933178D01*
X2452346Y5942613D01*
X2420000Y5945798D01*
D02*
G37*
G36*
X214523Y5278627D02*
X193327D01*
X172853Y5273142D01*
X154497Y5262544D01*
X139509Y5247556D01*
X128911Y5229199D01*
X123425Y5208726D01*
Y5187529D01*
X128911Y5167056D01*
X139509Y5148699D01*
X154497Y5133711D01*
X172853Y5123113D01*
X193327Y5117628D01*
X214523D01*
X234997Y5123113D01*
X253353Y5133711D01*
X268341Y5148699D01*
X278939Y5167056D01*
X284425Y5187529D01*
Y5208726D01*
X278939Y5229199D01*
X268341Y5247556D01*
X253353Y5262544D01*
X234997Y5273142D01*
X214523Y5278627D01*
D02*
G37*
G36*
X1365000Y5200000D02*
X1155000D01*
Y5180561D01*
X1105000D01*
X1088032Y5178327D01*
X1072220Y5171778D01*
X1058642Y5161358D01*
X1053642Y5156358D01*
X1043223Y5142780D01*
X1036674Y5126968D01*
X1034440Y5110000D01*
X1036673Y5093032D01*
X1043223Y5077220D01*
X1053642Y5063642D01*
X1067220Y5053223D01*
X1083032Y5046673D01*
X1100000Y5044439D01*
X1116969Y5046673D01*
X1123647Y5049439D01*
X1250000D01*
X1254260Y5050000D01*
X1365000D01*
Y5200000D01*
D02*
G37*
G36*
X2920000Y5385992D02*
X2889979Y5382040D01*
X2862004Y5370452D01*
X2837981Y5352019D01*
X2819548Y5327996D01*
X2807960Y5300021D01*
X2804008Y5270000D01*
Y5145000D01*
X2807960Y5114979D01*
X2819548Y5087004D01*
X2825000Y5079898D01*
Y5060000D01*
X2841866D01*
X2862004Y5044548D01*
X2889979Y5032960D01*
X2920000Y5029008D01*
X2950021Y5032960D01*
X2977996Y5044548D01*
X2998134Y5060000D01*
X3035000D01*
Y5137460D01*
X3035992Y5145000D01*
Y5270000D01*
X3032040Y5300021D01*
X3020452Y5327996D01*
X3002019Y5352019D01*
X2977996Y5370452D01*
X2950021Y5382040D01*
X2920000Y5385992D01*
D02*
G37*
G36*
X6620940Y5555000D02*
X6599060D01*
X6578845Y5546626D01*
X6563373Y5531155D01*
X6555000Y5510940D01*
Y5489060D01*
X6563373Y5468845D01*
X6578845Y5453373D01*
X6579412Y5453138D01*
Y5066862D01*
X6578845Y5066627D01*
X6563373Y5051155D01*
X6555000Y5030940D01*
Y5009060D01*
X6563373Y4988845D01*
X6578845Y4973374D01*
X6599060Y4965000D01*
X6620940D01*
X6641155Y4973374D01*
X6656627Y4988845D01*
X6665000Y5009060D01*
Y5030940D01*
X6656627Y5051155D01*
X6641155Y5066627D01*
X6640588Y5066862D01*
Y5453138D01*
X6641155Y5453373D01*
X6656627Y5468845D01*
X6665000Y5489060D01*
Y5510940D01*
X6656627Y5531155D01*
X6641155Y5546626D01*
X6620940Y5555000D01*
D02*
G37*
G36*
X7930940Y11225000D02*
X7909060D01*
X7888845Y11216627D01*
X7873373Y11201155D01*
X7865000Y11180940D01*
Y11159060D01*
X7873373Y11138845D01*
X7888845Y11123373D01*
X7909060Y11115000D01*
X7917323D01*
X8009216Y11023107D01*
Y4986893D01*
X7927323Y4905000D01*
X7919060D01*
X7898845Y4896626D01*
X7883373Y4881155D01*
X7875000Y4860940D01*
Y4839060D01*
X7883373Y4818845D01*
X7898845Y4803373D01*
X7919060Y4795000D01*
X7940940D01*
X7961155Y4803373D01*
X7976626Y4818845D01*
X7985000Y4839060D01*
Y4847323D01*
X8078838Y4941161D01*
X8078838Y4941162D01*
X8087679Y4954393D01*
X8090783Y4970000D01*
Y11039999D01*
X8090784Y11040000D01*
X8087679Y11055607D01*
X8078838Y11068838D01*
X7975000Y11172677D01*
Y11180940D01*
X7966626Y11201155D01*
X7951155Y11216627D01*
X7930940Y11225000D01*
D02*
G37*
G36*
X4582746Y5399088D02*
X4575913Y5397729D01*
X4566289D01*
X4534497Y5389210D01*
X4505994Y5372754D01*
X4482721Y5349481D01*
X4466264Y5320977D01*
X4457746Y5289186D01*
Y5256272D01*
X4466264Y5224481D01*
X4482721Y5195977D01*
X4505994Y5172704D01*
X4534497Y5156247D01*
X4552158Y5151515D01*
Y4976255D01*
X4552158Y4976254D01*
X4554486Y4964549D01*
X4561117Y4954625D01*
X4764531Y4751211D01*
X4761918Y4746686D01*
X4756500Y4726466D01*
Y4705534D01*
X4761918Y4685314D01*
X4772384Y4667186D01*
X4787186Y4652384D01*
X4805314Y4641918D01*
X4825534Y4636500D01*
X4846466D01*
X4866686Y4641918D01*
X4884814Y4652384D01*
X4899616Y4667186D01*
X4910082Y4685314D01*
X4915500Y4705534D01*
Y4726466D01*
X4910082Y4746686D01*
X4899616Y4764814D01*
X4884814Y4779616D01*
X4866686Y4790082D01*
X4846466Y4795500D01*
X4825534D01*
X4810725Y4791532D01*
X4613333Y4988924D01*
Y5151515D01*
X4630994Y5156247D01*
X4659498Y5172704D01*
X4682771Y5195977D01*
X4699227Y5224481D01*
X4707746Y5256272D01*
Y5289186D01*
X4699227Y5320977D01*
X4682771Y5349481D01*
X4659498Y5372754D01*
X4630994Y5389210D01*
X4599202Y5397729D01*
X4589578D01*
X4582746Y5399088D01*
D02*
G37*
G36*
X1365000Y4910000D02*
X1155000D01*
Y4760000D01*
X1209412D01*
Y4706862D01*
X1208845Y4706627D01*
X1193374Y4691155D01*
X1185000Y4670940D01*
Y4649060D01*
X1193374Y4628845D01*
X1208845Y4613374D01*
X1229060Y4605000D01*
X1250940D01*
X1271155Y4613374D01*
X1286627Y4628845D01*
X1295000Y4649060D01*
Y4670940D01*
X1286627Y4691155D01*
X1271155Y4706627D01*
X1270588Y4706862D01*
Y4760000D01*
X1365000D01*
Y4910000D01*
D02*
G37*
G36*
X10020940Y6426842D02*
X9999060D01*
X9978845Y6418468D01*
X9963374Y6402997D01*
X9955000Y6382782D01*
Y6360902D01*
X9963374Y6340687D01*
X9978845Y6325215D01*
X9979412Y6324980D01*
Y5570001D01*
X9979412Y5570000D01*
X9981741Y5558295D01*
X9988371Y5548371D01*
X10649601Y4887142D01*
X10659524Y4880511D01*
X10671230Y4878183D01*
X10677247D01*
X10677966Y4872724D01*
X10686642Y4851779D01*
X10700442Y4833793D01*
X10718428Y4819992D01*
X10719114Y4819708D01*
Y4791770D01*
X10568371Y4641028D01*
X10561741Y4631104D01*
X10559412Y4619399D01*
X10559412Y4619398D01*
X10559412Y1459239D01*
X10559471Y1458942D01*
X10559412Y1458645D01*
Y1346861D01*
X10558845Y1346626D01*
X10543373Y1331155D01*
X10535000Y1310940D01*
Y1289060D01*
X10543373Y1268845D01*
X10558845Y1253373D01*
X10579060Y1245000D01*
X10600940D01*
X10621155Y1253373D01*
X10636626Y1268845D01*
X10645000Y1289060D01*
Y1310940D01*
X10636626Y1331155D01*
X10621155Y1346626D01*
X10620587Y1346861D01*
Y1458645D01*
X10620528Y1458942D01*
X10620587Y1459239D01*
X10620588Y4606729D01*
X10660608Y4646749D01*
X10671829Y4642425D01*
X10675154Y4640082D01*
X10677966Y4618724D01*
X10686642Y4597779D01*
X10700442Y4579793D01*
X10718428Y4565992D01*
X10739373Y4557317D01*
X10761850Y4554358D01*
X10904150D01*
X10926626Y4557317D01*
X10947571Y4565992D01*
X10965557Y4579793D01*
X10979358Y4597779D01*
X10988033Y4618724D01*
X10990992Y4641201D01*
X10988033Y4663677D01*
X10979358Y4684622D01*
X10965557Y4702608D01*
X10947571Y4716409D01*
X10926626Y4725084D01*
X10904150Y4728043D01*
X10763115D01*
X10760787Y4730800D01*
X10756301Y4742442D01*
X10771330Y4757472D01*
X10777961Y4767395D01*
X10780289Y4779100D01*
Y4808358D01*
X10904150D01*
X10926626Y4811317D01*
X10947571Y4819992D01*
X10965557Y4833793D01*
X10979358Y4851779D01*
X10988033Y4872724D01*
X10990992Y4895201D01*
X10988033Y4917677D01*
X10979358Y4938622D01*
X10965557Y4956608D01*
X10947571Y4970409D01*
X10926626Y4979084D01*
X10904150Y4982043D01*
X10761850D01*
X10739373Y4979084D01*
X10718428Y4970409D01*
X10700442Y4956608D01*
X10694800Y4949255D01*
X10675193Y4948065D01*
X10040588Y5582670D01*
Y6324980D01*
X10041155Y6325215D01*
X10056627Y6340687D01*
X10065000Y6360902D01*
Y6382782D01*
X10056627Y6402997D01*
X10041155Y6418468D01*
X10020940Y6426842D01*
D02*
G37*
G36*
X5169500Y4541500D02*
X5010500D01*
Y4382500D01*
X5169500D01*
Y4541500D01*
D02*
G37*
G36*
X3035000Y4920000D02*
X2825000D01*
Y4770000D01*
X2898338D01*
Y4737418D01*
X2897770Y4737183D01*
X2882299Y4721712D01*
X2873925Y4701497D01*
Y4679617D01*
X2882299Y4659402D01*
X2897770Y4643930D01*
X2898338Y4643695D01*
Y4436119D01*
X2883373Y4421155D01*
X2875000Y4400940D01*
Y4379060D01*
X2883373Y4358845D01*
X2898845Y4343374D01*
X2919060Y4335000D01*
X2940940D01*
X2961155Y4343374D01*
X2976627Y4358845D01*
X2985000Y4379060D01*
Y4400940D01*
X2976627Y4421155D01*
X2961155Y4436627D01*
X2959513Y4437307D01*
Y4643695D01*
X2960080Y4643930D01*
X2975552Y4659402D01*
X2983925Y4679617D01*
Y4701497D01*
X2975552Y4721712D01*
X2960080Y4737183D01*
X2959513Y4737418D01*
Y4770000D01*
X3035000D01*
Y4920000D01*
D02*
G37*
G36*
X10904150Y4474043D02*
X10761850D01*
X10739373Y4471084D01*
X10718428Y4462409D01*
X10700442Y4448608D01*
X10686642Y4430622D01*
X10677966Y4409677D01*
X10675007Y4387201D01*
X10677966Y4364724D01*
X10686642Y4343779D01*
X10700442Y4325793D01*
X10718428Y4311992D01*
X10739373Y4303317D01*
X10761850Y4300358D01*
X10904150D01*
X10926626Y4303317D01*
X10947571Y4311992D01*
X10965557Y4325793D01*
X10979358Y4343779D01*
X10988033Y4364724D01*
X10990992Y4387201D01*
X10988033Y4409677D01*
X10979358Y4430622D01*
X10965557Y4448608D01*
X10947571Y4462409D01*
X10926626Y4471084D01*
X10904150Y4474043D01*
D02*
G37*
G36*
Y4220043D02*
X10761850D01*
X10739373Y4217084D01*
X10718428Y4208409D01*
X10700442Y4194608D01*
X10686642Y4176622D01*
X10677966Y4155677D01*
X10675007Y4133201D01*
X10677966Y4110724D01*
X10686642Y4089779D01*
X10700442Y4071793D01*
X10718428Y4057992D01*
X10739373Y4049317D01*
X10761850Y4046358D01*
X10904150D01*
X10926626Y4049317D01*
X10947571Y4057992D01*
X10965557Y4071793D01*
X10979358Y4089779D01*
X10988033Y4110724D01*
X10990992Y4133201D01*
X10988033Y4155677D01*
X10979358Y4176622D01*
X10965557Y4194608D01*
X10947571Y4208409D01*
X10926626Y4217084D01*
X10904150Y4220043D01*
D02*
G37*
G36*
X1156457Y4125000D02*
X1123543D01*
X1091752Y4116481D01*
X1063248Y4100025D01*
X1039975Y4076752D01*
X1023518Y4048248D01*
X1015000Y4016457D01*
Y3983543D01*
X1023518Y3951752D01*
X1039975Y3923248D01*
X1063248Y3899975D01*
X1091752Y3883518D01*
X1123543Y3875000D01*
X1156457D01*
X1188248Y3883518D01*
X1216752Y3899975D01*
X1240025Y3923248D01*
X1256482Y3951752D01*
X1265000Y3983543D01*
Y4016457D01*
X1256482Y4048248D01*
X1240025Y4076752D01*
X1216752Y4100025D01*
X1188248Y4116481D01*
X1156457Y4125000D01*
D02*
G37*
G36*
X8830940Y8315000D02*
X8809060D01*
X8788845Y8306627D01*
X8773373Y8291155D01*
X8765000Y8270940D01*
Y8249060D01*
X8773373Y8228845D01*
X8779216Y8223002D01*
Y7670001D01*
X8779216Y7670000D01*
X8782321Y7654393D01*
X8791161Y7641162D01*
X9031523Y7400800D01*
X9025000Y7376457D01*
Y7343543D01*
X9033518Y7311752D01*
X9049975Y7283248D01*
X9073248Y7259975D01*
X9101752Y7243518D01*
X9133543Y7235000D01*
X9166457D01*
X9166818Y7235097D01*
X9179217Y7224733D01*
Y5546998D01*
X9173374Y5541155D01*
X9165000Y5520940D01*
Y5499060D01*
X9173374Y5478845D01*
X9179217Y5473002D01*
Y3916998D01*
X9173374Y3911155D01*
X9165000Y3890940D01*
Y3869060D01*
X9173374Y3848845D01*
X9188845Y3833374D01*
X9209060Y3825000D01*
X9230940D01*
X9251155Y3833374D01*
X9266627Y3848845D01*
X9275000Y3869060D01*
Y3890940D01*
X9266627Y3911155D01*
X9260784Y3916998D01*
Y5473002D01*
X9266627Y5478845D01*
X9275000Y5499060D01*
Y5520940D01*
X9266627Y5541155D01*
X9260784Y5546998D01*
Y7245710D01*
X9257679Y7261318D01*
X9248838Y7274549D01*
X9250025Y7283248D01*
X9266482Y7311752D01*
X9275000Y7343543D01*
Y7376457D01*
X9266482Y7408248D01*
X9250025Y7436752D01*
X9226752Y7460025D01*
X9198248Y7476482D01*
X9166457Y7485000D01*
X9133543D01*
X9101752Y7476482D01*
X9082380Y7465297D01*
X8860783Y7686893D01*
Y8223002D01*
X8866626Y8228845D01*
X8875000Y8249060D01*
Y8270940D01*
X8866626Y8291155D01*
X8851155Y8306627D01*
X8830940Y8315000D01*
D02*
G37*
G36*
X10904150Y3966043D02*
X10761850D01*
X10739373Y3963084D01*
X10718428Y3954409D01*
X10700442Y3940608D01*
X10686642Y3922622D01*
X10677966Y3901677D01*
X10675007Y3879201D01*
X10677966Y3856724D01*
X10686642Y3835779D01*
X10700442Y3817793D01*
X10718428Y3803992D01*
X10739373Y3795317D01*
X10761850Y3792358D01*
X10904150D01*
X10926626Y3795317D01*
X10947571Y3803992D01*
X10965557Y3817793D01*
X10979358Y3835779D01*
X10988033Y3856724D01*
X10990992Y3879201D01*
X10988033Y3901677D01*
X10979358Y3922622D01*
X10965557Y3940608D01*
X10947571Y3954409D01*
X10926626Y3963084D01*
X10904150Y3966043D01*
D02*
G37*
G36*
X6360000Y4975798D02*
X6351894Y4975000D01*
X6349060D01*
X6348176Y4974634D01*
X6327654Y4972613D01*
X6296552Y4963178D01*
X6267887Y4947856D01*
X6242763Y4927237D01*
X6222144Y4902113D01*
X6206822Y4873448D01*
X6197387Y4842346D01*
X6194202Y4810000D01*
Y3840000D01*
X6197387Y3807654D01*
X6206822Y3776552D01*
X6222144Y3747887D01*
X6242763Y3722763D01*
X6267887Y3702144D01*
X6296552Y3686822D01*
X6327654Y3677387D01*
X6360000Y3674202D01*
X6392346Y3677387D01*
X6423448Y3686822D01*
X6452113Y3702144D01*
X6477237Y3722763D01*
X6497856Y3747887D01*
X6513177Y3776552D01*
X6522613Y3807654D01*
X6525798Y3840000D01*
Y4810000D01*
X6522613Y4842346D01*
X6513177Y4873448D01*
X6497856Y4902113D01*
X6477237Y4927237D01*
X6452113Y4947856D01*
X6423448Y4963178D01*
X6392346Y4972613D01*
X6371824Y4974634D01*
X6370940Y4975000D01*
X6368106D01*
X6360000Y4975798D01*
D02*
G37*
G36*
X214523Y5532627D02*
X193327D01*
X172853Y5527142D01*
X154497Y5516544D01*
X139509Y5501556D01*
X128911Y5483199D01*
X123425Y5462726D01*
Y5441529D01*
X128911Y5421056D01*
X139509Y5402699D01*
X154497Y5387711D01*
X172853Y5377113D01*
X193327Y5371628D01*
X214523D01*
X234997Y5377113D01*
X235431Y5377364D01*
X339412Y5273383D01*
Y3656861D01*
X338845Y3656626D01*
X323373Y3641155D01*
X315000Y3620940D01*
Y3599060D01*
X323373Y3578845D01*
X338845Y3563373D01*
X359060Y3555000D01*
X380940D01*
X401155Y3563373D01*
X416627Y3578845D01*
X425000Y3599060D01*
Y3620940D01*
X416627Y3641155D01*
X401155Y3656626D01*
X400588Y3656861D01*
Y5286051D01*
X400588Y5286053D01*
X398259Y5297758D01*
X391629Y5307682D01*
X391628Y5307682D01*
X278689Y5420622D01*
X278939Y5421056D01*
X284425Y5441529D01*
Y5462726D01*
X278939Y5483199D01*
X268341Y5501556D01*
X253353Y5516544D01*
X234997Y5527142D01*
X214523Y5532627D01*
D02*
G37*
G36*
X10990250Y3711300D02*
X10675750D01*
Y3539101D01*
X10990250D01*
Y3711300D01*
D02*
G37*
G36*
X5023750Y3701482D02*
X4716250D01*
Y3393982D01*
X5023750D01*
Y3701482D01*
D02*
G37*
G36*
X3465143Y3693750D02*
X3434857D01*
X3405153Y3687841D01*
X3377172Y3676251D01*
X3351990Y3659425D01*
X3330574Y3638010D01*
X3313749Y3612828D01*
X3302158Y3584847D01*
X3296250Y3555143D01*
Y3524857D01*
X3302158Y3495153D01*
X3313749Y3467172D01*
X3330574Y3441990D01*
X3351990Y3420575D01*
X3377172Y3403749D01*
X3405153Y3392159D01*
X3434857Y3386250D01*
X3465143D01*
X3494847Y3392159D01*
X3522828Y3403749D01*
X3548010Y3420575D01*
X3569425Y3441990D01*
X3586251Y3467172D01*
X3597841Y3495153D01*
X3603750Y3524857D01*
Y3555143D01*
X3597841Y3584847D01*
X3586251Y3612828D01*
X3569425Y3638010D01*
X3548010Y3659425D01*
X3522828Y3676251D01*
X3494847Y3687841D01*
X3465143Y3693750D01*
D02*
G37*
G36*
X1156457Y3425000D02*
X1123543D01*
X1091752Y3416482D01*
X1063248Y3400025D01*
X1039975Y3376752D01*
X1023518Y3348248D01*
X1015000Y3316457D01*
Y3283543D01*
X1023518Y3251752D01*
X1039975Y3223248D01*
X1063248Y3199975D01*
X1091752Y3183518D01*
X1123543Y3175000D01*
X1156457D01*
X1188248Y3183518D01*
X1216752Y3199975D01*
X1240025Y3223248D01*
X1256482Y3251752D01*
X1265000Y3283543D01*
Y3316457D01*
X1256482Y3348248D01*
X1240025Y3376752D01*
X1216752Y3400025D01*
X1188248Y3416482D01*
X1156457Y3425000D01*
D02*
G37*
G36*
X10904150Y3204043D02*
X10761850D01*
X10739373Y3201084D01*
X10718428Y3192409D01*
X10700442Y3178608D01*
X10686642Y3160622D01*
X10677966Y3139677D01*
X10675007Y3117201D01*
X10677966Y3094724D01*
X10686642Y3073779D01*
X10700442Y3055793D01*
X10718428Y3041992D01*
X10739373Y3033317D01*
X10761850Y3030358D01*
X10904150D01*
X10926626Y3033317D01*
X10947571Y3041992D01*
X10965557Y3055793D01*
X10979358Y3073779D01*
X10988033Y3094724D01*
X10990992Y3117201D01*
X10988033Y3139677D01*
X10979358Y3160622D01*
X10965557Y3178608D01*
X10947571Y3192409D01*
X10926626Y3201084D01*
X10904150Y3204043D01*
D02*
G37*
G36*
X5466327Y3526219D02*
X5444447D01*
X5424232Y3517846D01*
X5408760Y3502374D01*
X5400387Y3482159D01*
Y3460279D01*
X5408760Y3440064D01*
X5424232Y3424593D01*
X5444447Y3416219D01*
X5449095D01*
X5464314Y3401000D01*
Y2950000D01*
X5255000D01*
X5255000Y2950000D01*
X5240000Y2947105D01*
X5220940Y2955000D01*
X5199060D01*
X5178845Y2946627D01*
X5163373Y2931155D01*
X5155000Y2910940D01*
Y2889060D01*
X5163373Y2868845D01*
X5178845Y2853374D01*
X5179412Y2853139D01*
Y2775001D01*
X5179412Y2775000D01*
X5181741Y2763295D01*
X5188371Y2753371D01*
X5189412Y2752330D01*
Y1553633D01*
X5189412Y1553632D01*
X5191063Y1545332D01*
X5185102Y1530940D01*
Y1509060D01*
X5193475Y1488845D01*
X5208947Y1473373D01*
X5229161Y1465000D01*
X5251042D01*
X5271256Y1473373D01*
X5286728Y1488845D01*
X5295101Y1509060D01*
Y1530940D01*
X5286728Y1551155D01*
X5271256Y1566627D01*
X5251042Y1575000D01*
X5250588D01*
Y2496828D01*
X5255000Y2510000D01*
X5265588Y2510000D01*
X5465000D01*
Y2524439D01*
X5530000D01*
X5546969Y2526673D01*
X5562781Y2533223D01*
X5576358Y2543642D01*
X5586777Y2557219D01*
X5593327Y2573031D01*
X5595561Y2590000D01*
X5593327Y2606968D01*
X5586777Y2622780D01*
X5576358Y2636358D01*
X5562781Y2646777D01*
X5546969Y2653327D01*
X5530000Y2655561D01*
X5507348D01*
X5504364Y2670561D01*
X5511155Y2673373D01*
X5526626Y2688845D01*
X5535000Y2709060D01*
Y2730940D01*
X5532630Y2736661D01*
X5532969Y2737168D01*
X5535686Y2750824D01*
Y3415782D01*
X5532969Y3429438D01*
X5525234Y3441015D01*
X5509093Y3457156D01*
X5510386Y3460279D01*
Y3482159D01*
X5502013Y3502374D01*
X5486541Y3517846D01*
X5466327Y3526219D01*
D02*
G37*
G36*
X4885143Y3231482D02*
X4854857D01*
X4825153Y3225574D01*
X4797172Y3213984D01*
X4771990Y3197158D01*
X4750574Y3175742D01*
X4733748Y3150560D01*
X4722158Y3122579D01*
X4716250Y3092875D01*
Y3062589D01*
X4722158Y3032885D01*
X4733748Y3004904D01*
X4750574Y2979722D01*
X4771990Y2958307D01*
X4797172Y2941481D01*
X4825153Y2929891D01*
X4854857Y2923982D01*
X4885143D01*
X4914847Y2929891D01*
X4942828Y2941481D01*
X4968010Y2958307D01*
X4989425Y2979722D01*
X5006251Y3004904D01*
X5017841Y3032885D01*
X5023750Y3062589D01*
Y3092875D01*
X5017841Y3122579D01*
X5006251Y3150560D01*
X4989425Y3175742D01*
X4968010Y3197158D01*
X4942828Y3213984D01*
X4914847Y3225574D01*
X4885143Y3231482D01*
D02*
G37*
G36*
X10904150Y2950043D02*
X10761850D01*
X10739373Y2947084D01*
X10718428Y2938409D01*
X10700442Y2924608D01*
X10686642Y2906622D01*
X10677966Y2885677D01*
X10675007Y2863201D01*
X10677966Y2840724D01*
X10686642Y2819779D01*
X10700442Y2801793D01*
X10718428Y2787992D01*
X10739373Y2779317D01*
X10761850Y2776358D01*
X10904150D01*
X10926626Y2779317D01*
X10947571Y2787992D01*
X10965557Y2801793D01*
X10979358Y2819779D01*
X10988033Y2840724D01*
X10990992Y2863201D01*
X10988033Y2885677D01*
X10979358Y2906622D01*
X10965557Y2924608D01*
X10947571Y2938409D01*
X10926626Y2947084D01*
X10904150Y2950043D01*
D02*
G37*
G36*
X11325507Y2845000D02*
X11300493D01*
X11276332Y2838526D01*
X11254669Y2826019D01*
X11236981Y2808331D01*
X11224474Y2786669D01*
X11218000Y2762507D01*
Y2737493D01*
X11224474Y2713332D01*
X11236981Y2691669D01*
X11254669Y2673981D01*
X11276332Y2661474D01*
X11300493Y2655000D01*
X11325507D01*
X11349668Y2661474D01*
X11371331Y2673981D01*
X11389019Y2691669D01*
X11401526Y2713332D01*
X11408000Y2737493D01*
Y2762507D01*
X11401526Y2786669D01*
X11389019Y2808331D01*
X11371331Y2826019D01*
X11349668Y2838526D01*
X11325507Y2845000D01*
D02*
G37*
G36*
X11607000Y2846077D02*
X11527000D01*
X11505540Y2841809D01*
X11487347Y2829653D01*
X11475191Y2811460D01*
X11470923Y2790000D01*
Y2710000D01*
X11475191Y2688540D01*
X11487347Y2670347D01*
X11505540Y2658192D01*
X11527000Y2653923D01*
X11607000D01*
X11628460Y2658192D01*
X11646653Y2670347D01*
X11658809Y2688540D01*
X11663077Y2710000D01*
Y2790000D01*
X11658809Y2811460D01*
X11646653Y2829653D01*
X11628460Y2841809D01*
X11607000Y2846077D01*
D02*
G37*
G36*
X4870000Y2665686D02*
X4856344Y2662970D01*
X4844766Y2655234D01*
X4837031Y2643657D01*
X4834314Y2630000D01*
Y2607732D01*
X4837031Y2594076D01*
X4844766Y2582499D01*
X4856344Y2574763D01*
X4870000Y2572047D01*
X4883656Y2574763D01*
X4895234Y2582499D01*
X4902969Y2594076D01*
X4905686Y2607732D01*
Y2630000D01*
X4902969Y2643657D01*
X4895234Y2655234D01*
X4883656Y2662970D01*
X4870000Y2665686D01*
D02*
G37*
G36*
X10904150Y2696043D02*
X10761850D01*
X10739373Y2693084D01*
X10718428Y2684409D01*
X10700442Y2670608D01*
X10686642Y2652622D01*
X10677966Y2631677D01*
X10675007Y2609201D01*
X10677966Y2586724D01*
X10686642Y2565779D01*
X10700442Y2547793D01*
X10718428Y2533992D01*
X10739373Y2525317D01*
X10761850Y2522358D01*
X10904150D01*
X10926626Y2525317D01*
X10947571Y2533992D01*
X10965557Y2547793D01*
X10979358Y2565779D01*
X10988033Y2586724D01*
X10990992Y2609201D01*
X10988033Y2631677D01*
X10979358Y2652622D01*
X10965557Y2670608D01*
X10947571Y2684409D01*
X10926626Y2693084D01*
X10904150Y2696043D01*
D02*
G37*
G36*
X1156457Y2725000D02*
X1123543D01*
X1091752Y2716481D01*
X1063248Y2700025D01*
X1039975Y2676752D01*
X1023518Y2648248D01*
X1015000Y2616457D01*
Y2583543D01*
X1023518Y2551752D01*
X1039975Y2523248D01*
X1063248Y2499975D01*
X1091752Y2483518D01*
X1123543Y2475000D01*
X1156457D01*
X1188248Y2483518D01*
X1216752Y2499975D01*
X1240025Y2523248D01*
X1256482Y2551752D01*
X1265000Y2583543D01*
Y2616457D01*
X1256482Y2648248D01*
X1240025Y2676752D01*
X1216752Y2700025D01*
X1188248Y2716481D01*
X1156457Y2725000D01*
D02*
G37*
G36*
X3603750Y2753750D02*
X3296250D01*
Y2446250D01*
X3603750D01*
Y2753750D01*
D02*
G37*
G36*
X10904150Y2442043D02*
X10761850D01*
X10739373Y2439084D01*
X10718428Y2430409D01*
X10700442Y2416608D01*
X10686642Y2398622D01*
X10677966Y2377677D01*
X10675007Y2355201D01*
X10677966Y2332724D01*
X10686642Y2311779D01*
X10700442Y2293793D01*
X10718428Y2279992D01*
X10739373Y2271317D01*
X10761850Y2268358D01*
X10904150D01*
X10926626Y2271317D01*
X10947571Y2279992D01*
X10965557Y2293793D01*
X10979358Y2311779D01*
X10988033Y2332724D01*
X10990992Y2355201D01*
X10988033Y2377677D01*
X10979358Y2398622D01*
X10965557Y2416608D01*
X10947571Y2430409D01*
X10926626Y2439084D01*
X10904150Y2442043D01*
D02*
G37*
G36*
X5110940Y2535000D02*
X5089060D01*
X5068845Y2526627D01*
X5053373Y2511155D01*
X5045000Y2490940D01*
Y2469060D01*
X5053373Y2448845D01*
X5068845Y2433374D01*
X5069412Y2433139D01*
Y2326861D01*
X5068845Y2326627D01*
X5053373Y2311155D01*
X5045000Y2290940D01*
Y2269060D01*
X5053373Y2248845D01*
X5068845Y2233373D01*
X5089060Y2225000D01*
X5110940D01*
X5131155Y2233373D01*
X5146626Y2248845D01*
X5155000Y2269060D01*
Y2290940D01*
X5146626Y2311155D01*
X5131155Y2326627D01*
X5130588Y2326861D01*
Y2433139D01*
X5131155Y2433374D01*
X5146626Y2448845D01*
X5155000Y2469060D01*
Y2490940D01*
X5146626Y2511155D01*
X5131155Y2526627D01*
X5110940Y2535000D01*
D02*
G37*
G36*
X10904150Y2188043D02*
X10761850D01*
X10739373Y2185084D01*
X10718428Y2176409D01*
X10700442Y2162608D01*
X10686642Y2144622D01*
X10677966Y2123677D01*
X10675007Y2101201D01*
X10677966Y2078724D01*
X10686642Y2057779D01*
X10700442Y2039793D01*
X10718428Y2025992D01*
X10739373Y2017317D01*
X10761850Y2014358D01*
X10904150D01*
X10926626Y2017317D01*
X10947571Y2025992D01*
X10965557Y2039793D01*
X10979358Y2057779D01*
X10988033Y2078724D01*
X10990992Y2101201D01*
X10988033Y2123677D01*
X10979358Y2144622D01*
X10965557Y2162608D01*
X10947571Y2176409D01*
X10926626Y2185084D01*
X10904150Y2188043D01*
D02*
G37*
G36*
Y1934043D02*
X10761850D01*
X10739373Y1931084D01*
X10718428Y1922409D01*
X10700442Y1908608D01*
X10686642Y1890622D01*
X10677966Y1869677D01*
X10675007Y1847201D01*
X10677966Y1824724D01*
X10686642Y1803779D01*
X10700442Y1785793D01*
X10718428Y1771992D01*
X10739373Y1763317D01*
X10761850Y1760358D01*
X10904150D01*
X10926626Y1763317D01*
X10947571Y1771992D01*
X10965557Y1785793D01*
X10979358Y1803779D01*
X10988033Y1824724D01*
X10990992Y1847201D01*
X10988033Y1869677D01*
X10979358Y1890622D01*
X10965557Y1908608D01*
X10947571Y1922409D01*
X10926626Y1931084D01*
X10904150Y1934043D01*
D02*
G37*
G36*
X2120940Y3975000D02*
X2099060D01*
X2078845Y3966627D01*
X2063374Y3951155D01*
X2055000Y3930940D01*
Y3909060D01*
X2063374Y3888845D01*
X2078845Y3873374D01*
X2084412Y3871067D01*
Y1722194D01*
X2073374Y1711155D01*
X2065000Y1690940D01*
Y1669060D01*
X2073374Y1648845D01*
X2088845Y1633373D01*
X2109060Y1625000D01*
X2130940D01*
X2151155Y1633373D01*
X2166627Y1648845D01*
X2175000Y1669060D01*
Y1690940D01*
X2166627Y1711155D01*
X2151155Y1726626D01*
X2145588Y1728933D01*
Y3877806D01*
X2156627Y3888845D01*
X2165000Y3909060D01*
Y3930940D01*
X2156627Y3951155D01*
X2141155Y3966627D01*
X2120940Y3975000D01*
D02*
G37*
G36*
X10904150Y1680043D02*
X10761850D01*
X10739373Y1677084D01*
X10718428Y1668409D01*
X10700442Y1654608D01*
X10686642Y1636622D01*
X10677966Y1615677D01*
X10675007Y1593201D01*
X10677966Y1570724D01*
X10686642Y1549779D01*
X10700442Y1531793D01*
X10718428Y1517992D01*
X10739373Y1509317D01*
X10761850Y1506358D01*
X10904150D01*
X10926626Y1509317D01*
X10947571Y1517992D01*
X10965557Y1531793D01*
X10979358Y1549779D01*
X10988033Y1570724D01*
X10990992Y1593201D01*
X10988033Y1615677D01*
X10979358Y1636622D01*
X10965557Y1654608D01*
X10947571Y1668409D01*
X10926626Y1677084D01*
X10904150Y1680043D01*
D02*
G37*
G36*
X4751071Y1489180D02*
X4737415Y1486463D01*
X4725838Y1478728D01*
X4680394Y1433284D01*
X4672658Y1421707D01*
X4669942Y1408051D01*
X4672658Y1394394D01*
X4680394Y1382817D01*
X4691971Y1375081D01*
X4705628Y1372365D01*
X4719284Y1375081D01*
X4730861Y1382817D01*
X4776305Y1428261D01*
X4784040Y1439838D01*
X4786757Y1453494D01*
X4784040Y1467150D01*
X4776305Y1478728D01*
X4764728Y1486463D01*
X4751071Y1489180D01*
D02*
G37*
G36*
X10990250Y1425300D02*
X10675750D01*
Y1253101D01*
X10990250D01*
Y1425300D01*
D02*
G37*
G36*
X6078150Y1273643D02*
X5935850D01*
X5913373Y1270684D01*
X5892428Y1262009D01*
X5874442Y1248208D01*
X5860642Y1230222D01*
X5851966Y1209277D01*
X5849007Y1186801D01*
X5851966Y1164324D01*
X5860642Y1143379D01*
X5874442Y1125393D01*
X5892428Y1111592D01*
X5913373Y1102917D01*
X5935850Y1099958D01*
X6078150D01*
X6100626Y1102917D01*
X6121571Y1111592D01*
X6139557Y1125393D01*
X6153358Y1143379D01*
X6162033Y1164324D01*
X6164992Y1186801D01*
X6162033Y1209277D01*
X6153358Y1230222D01*
X6139557Y1248208D01*
X6121571Y1262009D01*
X6100626Y1270684D01*
X6078150Y1273643D01*
D02*
G37*
G36*
Y1019643D02*
X5935850D01*
X5913373Y1016684D01*
X5892428Y1008009D01*
X5874442Y994208D01*
X5860642Y976222D01*
X5851966Y955277D01*
X5849007Y932801D01*
X5851966Y910324D01*
X5860642Y889379D01*
X5874442Y871393D01*
X5892428Y857592D01*
X5913373Y848917D01*
X5935850Y845958D01*
X6078150D01*
X6100626Y848917D01*
X6121571Y857592D01*
X6139557Y871393D01*
X6153358Y889379D01*
X6162033Y910324D01*
X6164992Y932801D01*
X6162033Y955277D01*
X6153358Y976222D01*
X6139557Y994208D01*
X6121571Y1008009D01*
X6100626Y1016684D01*
X6078150Y1019643D01*
D02*
G37*
G36*
X1524696Y1085928D02*
X1494410D01*
X1464706Y1080020D01*
X1436725Y1068430D01*
X1411543Y1051604D01*
X1390128Y1030188D01*
X1373302Y1005006D01*
X1361712Y977025D01*
X1355803Y947321D01*
Y917035D01*
X1361712Y887331D01*
X1373302Y859350D01*
X1390128Y834168D01*
X1411543Y812753D01*
X1436725Y795927D01*
X1464706Y784337D01*
X1494410Y778428D01*
X1524696D01*
X1554400Y784337D01*
X1582381Y795927D01*
X1607563Y812753D01*
X1628978Y834168D01*
X1645804Y859350D01*
X1657394Y887331D01*
X1663303Y917035D01*
Y947321D01*
X1657394Y977025D01*
X1645804Y1005006D01*
X1628978Y1030188D01*
X1607563Y1051604D01*
X1582381Y1068430D01*
X1554400Y1080020D01*
X1524696Y1085928D01*
D02*
G37*
G36*
X3120770Y1085901D02*
X3090485D01*
X3060780Y1079992D01*
X3032800Y1068402D01*
X3007618Y1051576D01*
X2986202Y1030161D01*
X2969376Y1004979D01*
X2957786Y976998D01*
X2951878Y947294D01*
Y917008D01*
X2957786Y887304D01*
X2969376Y859323D01*
X2986202Y834141D01*
X3007618Y812725D01*
X3032800Y795899D01*
X3060780Y784309D01*
X3090485Y778401D01*
X3120770D01*
X3150475Y784309D01*
X3178455Y795899D01*
X3203637Y812725D01*
X3225053Y834141D01*
X3241879Y859323D01*
X3253469Y887304D01*
X3259378Y917008D01*
Y947294D01*
X3253469Y976998D01*
X3241879Y1004979D01*
X3225053Y1030161D01*
X3203637Y1051576D01*
X3178455Y1068402D01*
X3150475Y1079992D01*
X3120770Y1085901D01*
D02*
G37*
G36*
X9395165Y958233D02*
X9368834D01*
X9343401Y951418D01*
X9320599Y938252D01*
X9301980Y919634D01*
X9288815Y896831D01*
X9282000Y871398D01*
Y845067D01*
X9288815Y819634D01*
X9301980Y796832D01*
X9320599Y778213D01*
X9343401Y765048D01*
X9368834Y758233D01*
X9395165D01*
X9420598Y765048D01*
X9443401Y778213D01*
X9462019Y796832D01*
X9475185Y819634D01*
X9482000Y845067D01*
Y871398D01*
X9475185Y896831D01*
X9462019Y919634D01*
X9443401Y938252D01*
X9420598Y951418D01*
X9395165Y958233D01*
D02*
G37*
G36*
X8490000Y6095798D02*
X8457654Y6092613D01*
X8426552Y6083178D01*
X8397887Y6067856D01*
X8372763Y6047237D01*
X8352144Y6022113D01*
X8336823Y5993448D01*
X8327387Y5962346D01*
X8324202Y5930000D01*
Y2510000D01*
X8327387Y2477654D01*
X8336823Y2446552D01*
X8352144Y2417887D01*
X8372763Y2392763D01*
X9672763Y1092763D01*
X9697887Y1072144D01*
X9726552Y1056823D01*
X9757654Y1047388D01*
X9790000Y1044202D01*
X10084181D01*
X10155150Y973232D01*
X10148937Y958233D01*
X10130834D01*
X10105401Y951418D01*
X10082599Y938252D01*
X10063980Y919634D01*
X10050815Y896831D01*
X10044000Y871398D01*
Y845067D01*
X10050815Y819634D01*
X10063980Y796832D01*
X10082599Y778213D01*
X10090471Y773668D01*
Y688798D01*
X10082599Y684252D01*
X10063980Y665634D01*
X10050815Y642831D01*
X10044000Y617398D01*
Y591067D01*
X10046353Y582286D01*
X9637595Y173528D01*
X9554594D01*
X9548854Y187386D01*
X9868053Y506586D01*
X9876834Y504233D01*
X9903165D01*
X9928598Y511048D01*
X9951401Y524213D01*
X9970019Y542832D01*
X9983185Y565634D01*
X9990000Y591067D01*
Y617398D01*
X9983185Y642831D01*
X9970019Y665634D01*
X9951401Y684252D01*
X9943528Y688798D01*
Y773668D01*
X9951401Y778213D01*
X9970019Y796832D01*
X9983185Y819634D01*
X9990000Y845067D01*
Y871398D01*
X9983185Y896831D01*
X9970019Y919634D01*
X9951401Y938252D01*
X9928598Y951418D01*
X9903165Y958233D01*
X9876834D01*
X9851401Y951418D01*
X9828599Y938252D01*
X9809980Y919634D01*
X9796815Y896831D01*
X9790000Y871398D01*
Y845067D01*
X9796815Y819634D01*
X9809980Y796832D01*
X9828599Y778213D01*
X9836471Y773668D01*
Y688798D01*
X9828599Y684252D01*
X9809980Y665634D01*
X9796815Y642831D01*
X9790000Y617398D01*
Y591067D01*
X9792353Y582286D01*
X9473595Y263529D01*
X9390594D01*
X9384854Y277387D01*
X9614053Y506586D01*
X9622834Y504233D01*
X9649165D01*
X9674598Y511048D01*
X9697401Y524213D01*
X9716019Y542832D01*
X9729185Y565634D01*
X9736000Y591067D01*
Y617398D01*
X9729185Y642831D01*
X9716019Y665634D01*
X9697401Y684252D01*
X9689528Y688798D01*
Y773668D01*
X9697401Y778213D01*
X9716019Y796832D01*
X9729185Y819634D01*
X9736000Y845067D01*
Y871398D01*
X9729185Y896831D01*
X9716019Y919634D01*
X9697401Y938252D01*
X9674598Y951418D01*
X9649165Y958233D01*
X9622834D01*
X9597401Y951418D01*
X9574599Y938252D01*
X9555980Y919634D01*
X9542815Y896831D01*
X9536000Y871398D01*
Y845067D01*
X9542815Y819634D01*
X9555980Y796832D01*
X9574599Y778213D01*
X9582471Y773668D01*
Y688798D01*
X9574599Y684252D01*
X9555980Y665634D01*
X9542815Y642831D01*
X9536000Y617398D01*
Y591067D01*
X9538353Y582286D01*
X9309595Y353528D01*
X6150187D01*
X6143497Y368528D01*
X6153358Y381379D01*
X6162033Y402324D01*
X6164992Y424801D01*
X6162033Y447277D01*
X6153358Y468222D01*
X6139557Y486208D01*
X6121571Y500009D01*
X6100626Y508684D01*
X6078150Y511643D01*
X5935850D01*
X5913373Y508684D01*
X5892428Y500009D01*
X5874442Y486208D01*
X5860642Y468222D01*
X5851966Y447277D01*
X5849007Y424801D01*
X5851966Y402324D01*
X5860642Y381379D01*
X5870502Y368528D01*
X5863813Y353528D01*
X5573284D01*
X5473906Y452906D01*
X5479646Y466764D01*
X5496750D01*
X5503964Y469752D01*
X5505000Y469060D01*
X5513374Y448845D01*
X5528845Y433374D01*
X5549060Y425000D01*
X5570940D01*
X5591155Y433374D01*
X5606627Y448845D01*
X5615000Y469060D01*
Y472413D01*
X5659999D01*
X5660000Y472412D01*
X5662956Y473000D01*
X5731250D01*
Y547447D01*
X5731250Y553000D01*
X5738048Y565184D01*
X5743448Y566823D01*
X5772113Y582144D01*
X5775593Y585000D01*
X5790940D01*
X5811155Y593373D01*
X5826627Y608845D01*
X5835000Y629060D01*
Y649902D01*
X5835292Y651354D01*
X5837238Y654118D01*
X5841005Y654682D01*
X5853881Y651700D01*
X5860642Y635379D01*
X5874442Y617393D01*
X5892428Y603592D01*
X5913373Y594917D01*
X5935850Y591958D01*
X6078150D01*
X6100626Y594917D01*
X6121571Y603592D01*
X6139557Y617393D01*
X6153358Y635379D01*
X6162033Y656324D01*
X6164992Y678801D01*
X6162033Y701277D01*
X6153358Y722222D01*
X6139557Y740208D01*
X6121571Y754009D01*
X6100626Y762684D01*
X6078150Y765643D01*
X5935850D01*
X5913373Y762684D01*
X5892428Y754009D01*
X5874442Y740208D01*
X5860798Y722426D01*
X5860139Y722336D01*
X5845798Y725584D01*
Y847000D01*
X5842613Y879346D01*
X5835000Y904441D01*
Y910940D01*
X5826627Y931155D01*
X5814139Y943643D01*
X5797237Y964237D01*
X5772113Y984857D01*
X5743448Y1000178D01*
X5712346Y1009613D01*
X5680000Y1012799D01*
X5647654Y1009613D01*
X5616552Y1000178D01*
X5587887Y984857D01*
X5562763Y964237D01*
X5542144Y939113D01*
X5534760Y925298D01*
X5515498Y921083D01*
X5512986Y922989D01*
Y924000D01*
X5508231Y935481D01*
X5496750Y940236D01*
X5051250D01*
X5048266Y939000D01*
X5036250D01*
Y926985D01*
X5035014Y924000D01*
Y483000D01*
X5036250Y480016D01*
Y468000D01*
X5048266D01*
X5051250Y466764D01*
X5312011D01*
X5318785Y456626D01*
X5498025Y277387D01*
X5492284Y263529D01*
X4052172D01*
X3908364Y407337D01*
X3916861Y420053D01*
X3929060Y415000D01*
X3950940D01*
X3971155Y423374D01*
X3986627Y438845D01*
X3995000Y459060D01*
Y465413D01*
X4029999D01*
X4030000Y465412D01*
X4032956Y466000D01*
X4101250D01*
Y534325D01*
X4132346Y537388D01*
X4163448Y546823D01*
X4192113Y562144D01*
X4217237Y582763D01*
X4237856Y607888D01*
X4253177Y636552D01*
X4262613Y667654D01*
X4265798Y700000D01*
Y827000D01*
X4262613Y859346D01*
X4253177Y890449D01*
X4237856Y919113D01*
X4217237Y944237D01*
X4192113Y964857D01*
X4163448Y980178D01*
X4132346Y989613D01*
X4100000Y992799D01*
X4067654Y989613D01*
X4036552Y980178D01*
X4007887Y964857D01*
X3982763Y944237D01*
X3962144Y919113D01*
X3946822Y890449D01*
X3937387Y859346D01*
X3934202Y827000D01*
Y700000D01*
X3937387Y667654D01*
X3946822Y636552D01*
X3962144Y607888D01*
X3982763Y582763D01*
X4007887Y562144D01*
X4010027Y561000D01*
X4006270Y546000D01*
X3978750D01*
Y526433D01*
X3967825Y524260D01*
X3962047Y520399D01*
X3950940Y525000D01*
X3929060D01*
X3908845Y516627D01*
X3897986Y505768D01*
X3882986Y511981D01*
Y917000D01*
X3878231Y928481D01*
X3866750Y933236D01*
X3421250D01*
X3418266Y932000D01*
X3406250D01*
Y919985D01*
X3405014Y917000D01*
Y476000D01*
X3406250Y473016D01*
Y461000D01*
X3418266D01*
X3421250Y459764D01*
X3704535D01*
X3976913Y187386D01*
X3971173Y173528D01*
X2522173D01*
X2266295Y429406D01*
X2272035Y443264D01*
X2276125D01*
X2287605Y448019D01*
X2292387Y441225D01*
X2293373Y438845D01*
X2308845Y423374D01*
X2329060Y415000D01*
X2350940D01*
X2371155Y423374D01*
X2386626Y438845D01*
X2390824Y448979D01*
X2439440D01*
X2439442Y448979D01*
X2442062Y449500D01*
X2510625D01*
Y514263D01*
X2542346Y517387D01*
X2573448Y526822D01*
X2602113Y542144D01*
X2627237Y562763D01*
X2647856Y587887D01*
X2663178Y616552D01*
X2672613Y647654D01*
X2675798Y680000D01*
Y870000D01*
X2672613Y902345D01*
X2663178Y933448D01*
X2647856Y962112D01*
X2627237Y987237D01*
X2625632Y988842D01*
X2600507Y1009462D01*
X2571843Y1024783D01*
X2540740Y1034218D01*
X2508395Y1037404D01*
X2476049Y1034218D01*
X2444946Y1024783D01*
X2416282Y1009462D01*
X2391158Y988842D01*
X2370538Y963718D01*
X2355217Y935054D01*
X2345782Y903951D01*
X2342596Y871605D01*
X2344202Y855304D01*
Y680000D01*
X2347387Y647654D01*
X2356823Y616552D01*
X2372144Y587887D01*
X2392763Y562763D01*
X2415016Y544500D01*
X2411828Y529500D01*
X2388125D01*
Y520870D01*
X2373125Y514656D01*
X2371155Y516627D01*
X2350940Y525000D01*
X2329060D01*
X2308845Y516627D01*
X2307361Y515142D01*
X2292361Y521356D01*
Y900500D01*
X2287606Y911981D01*
X2276125Y916736D01*
X1830625D01*
X1827641Y915500D01*
X1815625D01*
Y903485D01*
X1814389Y900500D01*
Y459500D01*
X1815625Y456516D01*
Y444500D01*
X1827641D01*
X1830625Y443264D01*
X2101035D01*
X2462150Y82150D01*
X2479516Y70546D01*
X2500000Y66472D01*
X9659767D01*
X9680252Y70546D01*
X9697617Y82150D01*
X10122053Y506586D01*
X10130834Y504233D01*
X10157165D01*
X10182598Y511048D01*
X10205401Y524213D01*
X10224019Y542832D01*
X10237185Y565634D01*
X10244000Y591067D01*
Y617398D01*
X10237185Y642831D01*
X10224019Y665634D01*
X10205401Y684252D01*
X10197528Y688798D01*
Y773668D01*
X10205401Y778213D01*
X10224019Y796832D01*
X10237185Y819634D01*
X10244000Y845067D01*
Y863170D01*
X10259000Y869383D01*
X10294202Y834181D01*
Y620000D01*
X10297387Y587654D01*
X10306822Y556552D01*
X10322144Y527887D01*
X10342763Y502763D01*
X10367887Y482144D01*
X10396552Y466823D01*
X10427654Y457387D01*
X10460000Y454202D01*
X10492346Y457387D01*
X10523448Y466823D01*
X10552112Y482144D01*
X10577237Y502763D01*
X10597856Y527887D01*
X10613177Y556552D01*
X10622612Y587654D01*
X10625798Y620000D01*
Y902857D01*
X10622612Y935202D01*
X10613177Y966305D01*
X10597856Y994969D01*
X10577237Y1020094D01*
X10270094Y1327237D01*
X10244969Y1347856D01*
X10216305Y1363178D01*
X10185202Y1372613D01*
X10152857Y1375798D01*
X9858676D01*
X8655798Y2578676D01*
Y5930000D01*
X8652613Y5962346D01*
X8643178Y5993448D01*
X8627856Y6022113D01*
X8607237Y6047237D01*
X8582113Y6067856D01*
X8553448Y6083178D01*
X8522346Y6092613D01*
X8490000Y6095798D01*
D02*
G37*
G36*
X9395165Y704233D02*
X9368834D01*
X9343401Y697418D01*
X9320599Y684252D01*
X9301980Y665634D01*
X9288815Y642831D01*
X9282000Y617398D01*
Y591067D01*
X9288815Y565634D01*
X9301980Y542832D01*
X9320599Y524213D01*
X9343401Y511048D01*
X9368834Y504233D01*
X9395165D01*
X9420598Y511048D01*
X9443401Y524213D01*
X9462019Y542832D01*
X9475185Y565634D01*
X9482000Y591067D01*
Y617398D01*
X9475185Y642831D01*
X9462019Y665634D01*
X9443401Y684252D01*
X9420598Y697418D01*
X9395165Y704233D01*
D02*
G37*
G36*
X4859378Y621801D02*
X4551878D01*
Y314301D01*
X4859378D01*
Y621801D01*
D02*
G37*
G36*
X1663303Y615928D02*
X1355803D01*
Y308428D01*
X1663303D01*
Y615928D01*
D02*
G37*
G36*
X3259378Y615901D02*
X2951878D01*
Y308401D01*
X3259378D01*
Y615901D01*
D02*
G37*
G36*
X557236Y625000D02*
X522764D01*
X488954Y618275D01*
X457106Y605083D01*
X428444Y585932D01*
X404069Y561556D01*
X384917Y532894D01*
X371725Y501046D01*
X365000Y467236D01*
Y432764D01*
X371725Y398954D01*
X384917Y367106D01*
X404069Y338444D01*
X428444Y314069D01*
X457106Y294917D01*
X488954Y281725D01*
X522764Y275000D01*
X557236D01*
X591046Y281725D01*
X622894Y294917D01*
X651556Y314069D01*
X675931Y338444D01*
X695083Y367106D01*
X708275Y398954D01*
X715000Y432764D01*
Y467236D01*
X708275Y501046D01*
X695083Y532894D01*
X675931Y561556D01*
X651556Y585932D01*
X622894Y605083D01*
X591046Y618275D01*
X557236Y625000D01*
D02*
G37*
G36*
X11757236Y515000D02*
X11722764D01*
X11688954Y508275D01*
X11657106Y495083D01*
X11628444Y475931D01*
X11604068Y451556D01*
X11584917Y422894D01*
X11571725Y391046D01*
X11565000Y357236D01*
Y322764D01*
X11571725Y288954D01*
X11584917Y257106D01*
X11604068Y228444D01*
X11628444Y204069D01*
X11657106Y184917D01*
X11688954Y171725D01*
X11722764Y165000D01*
X11757236D01*
X11791046Y171725D01*
X11822894Y184917D01*
X11851556Y204069D01*
X11875931Y228444D01*
X11895083Y257106D01*
X11908275Y288954D01*
X11915000Y322764D01*
Y357236D01*
X11908275Y391046D01*
X11895083Y422894D01*
X11875931Y451556D01*
X11851556Y475931D01*
X11822894Y495083D01*
X11791046Y508275D01*
X11757236Y515000D01*
D02*
G37*
%LPD*%
G36*
X6489925Y11410127D02*
Y10800128D01*
X5559925Y10800127D01*
X5530127Y10590127D01*
X3969925D01*
X3809925Y10800127D01*
X3479925Y11130127D01*
Y11570127D01*
X4931700D01*
Y11480000D01*
X5171700D01*
Y11570127D01*
X6329925D01*
X6489925Y11410127D01*
D02*
G37*
%LPC*%
G36*
X4470940Y11395000D02*
X4449060D01*
X4428845Y11386626D01*
X4413373Y11371155D01*
X4405000Y11350940D01*
Y11329060D01*
X4413373Y11308845D01*
X4428845Y11293373D01*
X4449060Y11285000D01*
X4449412D01*
Y11176862D01*
X4448845Y11176627D01*
X4433373Y11161155D01*
X4425000Y11140940D01*
Y11119060D01*
X4433373Y11098845D01*
X4439845Y11092373D01*
Y10945371D01*
X4439601Y10945127D01*
X4428985D01*
X4408770Y10936754D01*
X4393299Y10921282D01*
X4384925Y10901067D01*
Y10879187D01*
X4393299Y10858972D01*
X4408770Y10843501D01*
X4428985Y10835127D01*
X4450865D01*
X4471080Y10843501D01*
X4486552Y10858972D01*
X4494925Y10879187D01*
Y10901067D01*
X4491156Y10910167D01*
X4492061Y10911072D01*
X4492062Y10911072D01*
X4498692Y10920996D01*
X4501021Y10932701D01*
Y11079176D01*
X4511155Y11083374D01*
X4526626Y11098845D01*
X4535000Y11119060D01*
Y11140940D01*
X4526626Y11161155D01*
X4511155Y11176627D01*
X4510588Y11176862D01*
Y11306468D01*
X4510588Y11306470D01*
X4508983Y11314535D01*
X4515000Y11329060D01*
Y11350940D01*
X4506626Y11371155D01*
X4491155Y11386626D01*
X4470940Y11395000D01*
D02*
G37*
%LPD*%
G36*
X4150000Y6740000D02*
Y6314558D01*
X4139384Y6303961D01*
X2990783Y6306101D01*
Y6323002D01*
X2996626Y6328845D01*
X3005000Y6349060D01*
Y6370940D01*
X2996626Y6391155D01*
X2981155Y6406627D01*
X2960940Y6415000D01*
X2939060D01*
X2918845Y6406627D01*
X2903373Y6391155D01*
X2895000Y6370940D01*
Y6349060D01*
X2899513Y6338164D01*
X2898415Y6336648D01*
X2887415Y6328176D01*
X2870940Y6335000D01*
X2849060D01*
X2835000Y6329176D01*
X2820793Y6336945D01*
X2820000Y6337963D01*
Y6375000D01*
X2670000D01*
Y6317315D01*
X2659384Y6306718D01*
X2564192Y6306896D01*
X2555452Y6327996D01*
X2537019Y6352019D01*
X2530000Y6357405D01*
Y6375000D01*
X2502018D01*
X2485021Y6382040D01*
X2455000Y6385993D01*
X2424979Y6382040D01*
X2416072Y6378351D01*
X2330000D01*
X2299979Y6374399D01*
X2272004Y6362811D01*
X2247981Y6344378D01*
X2229547Y6320355D01*
X2224235Y6307529D01*
X1963539Y6308015D01*
Y6373985D01*
X1949347D01*
Y6750653D01*
X2277783Y6777743D01*
X2292763Y6762763D01*
X2317888Y6742144D01*
X2346552Y6726823D01*
X2377655Y6717388D01*
X2410000Y6714202D01*
X2460000D01*
X2492346Y6717388D01*
X2523448Y6726823D01*
X2552112Y6742144D01*
X2577237Y6762763D01*
X2597856Y6787888D01*
X2606946Y6804893D01*
X2933966Y6831867D01*
X2945000Y6821705D01*
Y6791262D01*
X2930000Y6781239D01*
X2920920Y6785000D01*
X2899040D01*
X2878825Y6776627D01*
X2863353Y6761155D01*
X2854980Y6740940D01*
Y6719060D01*
X2863353Y6698845D01*
X2878825Y6683373D01*
X2899040Y6675000D01*
X2920920D01*
X2941135Y6683373D01*
X2956606Y6698845D01*
X2956841Y6699412D01*
X3020121D01*
X3020122Y6699412D01*
X3023079Y6700000D01*
X3155000D01*
Y6850000D01*
X3155000Y6850000D01*
X3168937Y6851248D01*
X3760000Y6900000D01*
X4150000Y6740000D01*
D02*
G37*
G36*
X1933111Y6588393D02*
X1928845Y6586626D01*
X1913373Y6571155D01*
X1905000Y6550940D01*
Y6529060D01*
X1913373Y6508845D01*
X1928845Y6493373D01*
X1933111Y6491606D01*
Y6373985D01*
X1937867Y6362505D01*
X1947303Y6358596D01*
Y6308015D01*
X1949672Y6302295D01*
X1952037Y6296555D01*
X1952052Y6296549D01*
X1952058Y6296534D01*
X1957767Y6294169D01*
X1963508Y6291779D01*
X1980000Y6291748D01*
Y6250407D01*
X2016528Y6213879D01*
X2010445Y6200168D01*
X1010000Y6250000D01*
Y6680000D01*
X990000Y6700000D01*
X1010000Y6720000D01*
X1933111D01*
Y6588393D01*
D02*
G37*
%LPC*%
G36*
X3090940Y6665000D02*
X3069060D01*
X3048845Y6656627D01*
X3033373Y6641155D01*
X3025000Y6620940D01*
Y6599060D01*
X3033373Y6578845D01*
X3048845Y6563374D01*
X3069060Y6555000D01*
X3090940D01*
X3111155Y6563374D01*
X3126626Y6578845D01*
X3135000Y6599060D01*
Y6620940D01*
X3126626Y6641155D01*
X3111155Y6656627D01*
X3090940Y6665000D01*
D02*
G37*
%LPD*%
G36*
X5496750Y483000D02*
X5051250D01*
Y924000D01*
X5496750D01*
Y483000D01*
D02*
G37*
G36*
X3866750Y476000D02*
X3421250D01*
Y917000D01*
X3866750D01*
Y476000D01*
D02*
G37*
G36*
X2276125Y459500D02*
X1830625D01*
Y900500D01*
X2276125D01*
Y459500D01*
D02*
G37*
D27*
X1800000Y7610000D02*
D03*
X2105000D02*
D03*
D38*
X5360000Y2875000D02*
D03*
Y2585000D02*
D03*
X4690000Y8925000D02*
D03*
Y8635000D02*
D03*
X11328299Y11018848D02*
D03*
X11081200Y10389647D02*
D03*
X1390000Y6955000D02*
D03*
X2930000Y5135000D02*
D03*
X1260000Y5125000D02*
D03*
X11081200Y10099647D02*
D03*
X11328299Y11308848D02*
D03*
X1260000Y4835000D02*
D03*
X3050000Y6485000D02*
D03*
Y6775000D02*
D03*
X2930000Y4845000D02*
D03*
X1390000Y6665000D02*
D03*
X8440472Y9803757D02*
D03*
Y10093757D02*
D03*
D39*
X7580000Y7465000D02*
D03*
X5530000Y8015000D02*
D03*
X5120000Y8635000D02*
D03*
X1853539Y6003986D02*
D03*
X1200000Y6155000D02*
D03*
X7580000Y7175000D02*
D03*
X1853539Y6293986D02*
D03*
X1200000Y6445000D02*
D03*
X5120000Y8925000D02*
D03*
X5530000Y8305000D02*
D03*
D58*
X9760000Y10004522D02*
X9760000Y10004522D01*
X9770000Y9170000D02*
Y9589026D01*
X9760000Y9599026D02*
Y10004522D01*
Y9599026D02*
X9770000Y9589026D01*
X2752000Y7410000D02*
X2990000Y7172000D01*
Y7000000D02*
Y7172000D01*
X3382000Y7638000D02*
X3432000D01*
X3540433Y7529567D01*
Y7489567D02*
Y7529567D01*
Y7489567D02*
X3550000Y7480000D01*
X2909980Y6730000D02*
X3020122D01*
X5590000Y10425000D02*
X5605000Y10410000D01*
X5590000Y10425000D02*
Y10590000D01*
X4460000Y11326470D02*
Y11340000D01*
Y11326470D02*
X4480000Y11306470D01*
Y11130000D02*
Y11306470D01*
X4439925Y10902193D02*
X4470433Y10932701D01*
Y11120433D01*
X4439925Y10890127D02*
Y10902193D01*
X4470433Y11120433D02*
X4480000Y11130000D01*
X2180000Y11150000D02*
Y11235000D01*
X2202126Y11310433D02*
X2211693Y11320000D01*
X2202126Y11257126D02*
Y11310433D01*
X2180000Y11235000D02*
X2202126Y11257126D01*
X1527574Y11150000D02*
X1842167D01*
X1843214Y11151047D01*
X6580000Y7463530D02*
Y9620000D01*
X6810000Y7480658D02*
X6925000Y7365658D01*
Y6280000D02*
Y7365658D01*
X5573530Y480000D02*
X5596530Y503000D01*
X5660000D01*
X5560000Y480000D02*
X5573530D01*
X2110000Y3920000D02*
X2115000Y3915000D01*
Y1685000D02*
X2120000Y1680000D01*
X2115000Y1685000D02*
Y3915000D01*
X2459921Y10590105D02*
X2459961Y10590145D01*
Y11029961D02*
X2460000Y11030000D01*
X2459961Y10590145D02*
Y11029961D01*
X9190000Y8630000D02*
Y9700000D01*
X10910000Y8827776D02*
X10968933Y8886709D01*
Y9168933D02*
X11018299Y9218299D01*
X10890000Y9150000D02*
Y9163530D01*
X10910000Y8825434D02*
Y8827776D01*
X10460866Y9000000D02*
X10740000D01*
X11018299Y9791701D02*
X11024150Y9785850D01*
X10740000Y9000000D02*
X10890000Y9150000D01*
X10460433Y8999567D02*
X10460866Y9000000D01*
X10890000Y9163530D02*
X10913299Y9186829D01*
X11018299Y9791701D02*
Y10054647D01*
X10968933Y8886709D02*
Y9168933D01*
X10913299Y9186829D02*
Y9313848D01*
X11650000Y7909784D02*
Y9527426D01*
X11630000Y6830000D02*
Y7889784D01*
X11650000Y7909784D01*
X11860000Y7363531D02*
Y9991863D01*
X11835682Y10016181D02*
X11860000Y9991863D01*
X11812299Y7315830D02*
X11860000Y7363531D01*
X11760000Y7950000D02*
Y7963530D01*
X11790000Y7993530D01*
X11826116Y10078890D02*
X11835682Y10069323D01*
X11793498Y9563498D02*
Y9994726D01*
X11835682Y10016181D02*
Y10069323D01*
X11790000Y7993530D02*
Y9560000D01*
X11793498Y9563498D01*
X11702299Y10085924D02*
X11793498Y9994726D01*
X11812299Y7307848D02*
Y7315830D01*
X11143553Y9655400D02*
X11150000Y9661847D01*
Y9800000D01*
Y9970000D01*
X11208299Y10028299D01*
Y10259063D01*
X11208737Y10259500D01*
X11018299Y10054647D02*
X11072500Y10108848D01*
X11088299D01*
X11018299Y9218299D02*
Y9780000D01*
X10868300Y9976224D02*
X10880000Y9964523D01*
Y9870000D02*
Y9964523D01*
X10730000Y9621445D02*
Y11056000D01*
X10728442Y9619887D02*
X10730000Y9621445D01*
X10713300Y9193300D02*
Y9536035D01*
X10658442Y9590893D02*
Y10128442D01*
Y9590893D02*
X10713300Y9536035D01*
X11820000Y10490000D02*
Y10890000D01*
X11680000Y11030000D02*
X11820000Y10890000D01*
Y10490000D02*
X11970000Y10340000D01*
Y8540000D02*
Y10340000D01*
X11484359Y11384636D02*
X11550000Y11318995D01*
X11471695Y11384636D02*
X11484359D01*
X11550000Y10611858D02*
Y11318995D01*
X11510000Y10571858D02*
X11550000Y10611858D01*
X11510000Y9864721D02*
Y10571858D01*
Y9864721D02*
X11610000Y9764721D01*
X10660000Y10130000D02*
Y10890000D01*
X10540000Y11010000D02*
X10660000Y10890000D01*
X9760000Y10004522D02*
Y10700000D01*
X9030000Y9800000D02*
Y10699792D01*
X8970000Y10759792D02*
Y10760000D01*
Y10759792D02*
X9030000Y10699792D01*
X8436715Y9800000D02*
X8440472Y9803757D01*
X8270000Y9800000D02*
X8436715D01*
X10460000Y7500000D02*
Y8899999D01*
X10460433Y8900433D02*
Y8999567D01*
X10460000Y9000000D02*
X10460433Y8999567D01*
X10460000Y8899999D02*
X10460433Y8900433D01*
X3020122Y6730000D02*
X3049980Y6759858D01*
X2928925Y4690557D02*
Y4807743D01*
X1240000Y4815000D02*
X1260000Y4835000D01*
X1240000Y4660000D02*
Y4815000D01*
X5210000Y2775000D02*
X5220000Y2765000D01*
X5230000Y2900000D02*
X5335000D01*
X5220000Y2890000D02*
X5230000Y2900000D01*
X5210000Y2775000D02*
Y2900000D01*
X5335000D02*
X5360000Y2875000D01*
X5220000Y1553632D02*
Y2765000D01*
X5620000Y1940000D02*
Y2430000D01*
X5560000Y1060000D02*
X5810279Y1310279D01*
Y4261630D01*
X5765279Y1377650D02*
Y4480000D01*
X3815000Y1125000D02*
X5512630D01*
X5765279Y1377650D01*
X2280208Y1190000D02*
X5513990D01*
X5710000Y1386010D01*
X2220208Y1130000D02*
X2280208Y1190000D01*
X5710000Y1386010D02*
Y4669351D01*
X3810000Y1120000D02*
X3815000Y1125000D01*
X2220000Y1130000D02*
X2220208D01*
X5660000Y503000D02*
X5670000Y513000D01*
X4030000Y496000D02*
X4040000Y506000D01*
X3979530Y496000D02*
X4030000D01*
X3953530Y470000D02*
X3979530Y496000D01*
X3940000Y470000D02*
X3953530D01*
X2439442Y479567D02*
X2449375Y489500D01*
X2349567Y479567D02*
X2439442D01*
X2340000Y470000D02*
X2349567Y479567D01*
X10590000Y1300000D02*
X10590000Y1300000D01*
X10590000Y1300000D02*
Y1458645D01*
X5317500Y3862500D02*
X5320000Y3860000D01*
X5317500Y3862500D02*
Y6271087D01*
X5315000Y6273587D02*
X5317500Y6271087D01*
X5710000Y4669351D02*
X5935850Y4895201D01*
X11610000Y9567426D02*
X11650000Y9527426D01*
X11610000Y9567426D02*
Y9764721D01*
X11702299Y10085924D02*
Y10377848D01*
X11583535Y10043536D02*
Y10516465D01*
X11580000Y10520000D02*
X11583535Y10516465D01*
X9830000Y9990000D02*
X10030000D01*
X11278300Y10072714D02*
Y10080695D01*
X11305017Y10107412D01*
Y10304509D01*
X5240102Y1520000D02*
Y1533530D01*
X5220000Y1553632D02*
X5240102Y1533530D01*
X5935850Y4387201D02*
X6007000D01*
X5810279Y4261630D02*
X5935850Y4387201D01*
X6600000Y7430000D02*
Y7443530D01*
X6580000Y9620000D02*
X6710433Y9750433D01*
X6580000Y7463530D02*
X6600000Y7443530D01*
X11230000Y8775000D02*
Y9168744D01*
X10658442Y10128442D02*
X10660000Y10130000D01*
X10630000Y9110000D02*
X10713300Y9193300D01*
X11050000Y8220000D02*
Y9150000D01*
X10199069Y7239069D02*
X10460000Y7500000D01*
X6810000Y7480658D02*
Y7490000D01*
X10730000Y11056000D02*
X10811929Y11137929D01*
X10819000D01*
X2180000Y11150000D02*
X2180000Y11150000D01*
X1510000Y11167574D02*
Y11360000D01*
X1510000Y11360000D01*
X6750433Y9750433D02*
X6760000Y9760000D01*
X6710433Y9750433D02*
X6750433D01*
X10010000Y5570000D02*
Y6371842D01*
X10590000Y1459239D02*
X10590000Y4619399D01*
X6610000Y5020000D02*
Y5500000D01*
X370000Y3610000D02*
Y5286053D01*
X203925Y5452128D02*
X370000Y5286053D01*
X4582746Y5272729D02*
Y5368500D01*
Y4976254D02*
X4843000Y4716000D01*
X4582746Y4976254D02*
Y5272729D01*
X5100000Y2280000D02*
Y2480000D01*
X2928925Y4391075D02*
Y4690557D01*
X11188744Y9210000D02*
X11230000Y9168744D01*
X11150000Y9210000D02*
X11188744D01*
X2913200Y10399872D02*
X2949925Y10436597D01*
X2552000Y7610000D02*
X2752000Y7410000D01*
X2105000Y7610000D02*
X2552000D01*
X10671230Y4908770D02*
X10787961D01*
X10801531Y4895201D02*
X10833000D01*
X10787961Y4908770D02*
X10801531Y4895201D01*
X10010000Y5570000D02*
X10671230Y4908770D01*
X10090000Y7188587D02*
Y7240000D01*
X2239925Y8671294D02*
Y9689925D01*
Y8660000D02*
Y8671294D01*
X10590000Y4619399D02*
X10749701Y4779100D01*
Y4843371D02*
X10801531Y4895201D01*
X10749701Y4779100D02*
Y4843371D01*
X11702299Y10377848D02*
X11715830D01*
X5935850Y4895201D02*
X6007000D01*
X5765279Y4480000D02*
X5926480Y4641201D01*
X6007000D01*
X2239925Y9689925D02*
X2410000Y9860000D01*
X2840503Y10395127D02*
Y10408657D01*
X2800000Y10449161D02*
Y11330000D01*
X2913200Y9687836D02*
Y10399872D01*
X2910000Y11526470D02*
Y11540000D01*
X2949925Y10436597D02*
Y11486545D01*
X2910000Y11526470D02*
X2949925Y11486545D01*
X2800000Y10449161D02*
X2840503Y10408657D01*
X1510000Y11167574D02*
X1527574Y11150000D01*
D59*
X11400000Y9870549D02*
X11403300Y9873848D01*
X11400000Y9720000D02*
Y9870549D01*
X11352346Y9507654D02*
X11365000Y9495000D01*
Y8707300D02*
Y9495000D01*
Y8707300D02*
X11370000Y8702300D01*
X11310000Y9590000D02*
X11352346Y9547654D01*
X11310000Y9590000D02*
Y9767650D01*
X11352346Y9507654D02*
Y9547654D01*
X5500000Y2750824D02*
Y3415782D01*
X5480000Y2720000D02*
Y2730824D01*
X5500000Y2750824D01*
X5455387Y3460395D02*
X5500000Y3415782D01*
X11308299Y9769351D02*
Y9988300D01*
X11380017Y10060017D02*
Y10630000D01*
X11308299Y9769351D02*
X11310000Y9767650D01*
X11308299Y9988300D02*
X11380017Y10060017D01*
X5455387Y3460395D02*
Y3471219D01*
X4705628Y1408051D02*
X4751071Y1453494D01*
X11403300Y9873848D02*
Y9903848D01*
X2745000Y6220000D02*
Y6250000D01*
X4870000Y2607732D02*
Y2630000D01*
D60*
X1960000Y10950000D02*
Y11320000D01*
X6110000Y8334956D02*
Y8500000D01*
X5518575Y8293575D02*
X5530000Y8305000D01*
X5333931Y8293575D02*
X5518575D01*
X5530000Y7890000D02*
Y8015000D01*
X6370000Y8345044D02*
Y8500000D01*
Y8345044D02*
X6385044Y8330000D01*
X399925Y8340127D02*
X610000Y8550202D01*
Y10460000D01*
X10620000Y9317148D02*
X10623300Y9313848D01*
X10620000Y9317148D02*
Y9480000D01*
X11530000Y9455000D02*
X11535000Y9450000D01*
X11530000Y9455000D02*
Y9610000D01*
X11535000Y9180000D02*
Y9450000D01*
X11530000Y9175000D02*
X11535000Y9180000D01*
X11530000Y9010000D02*
Y9175000D01*
X11693299Y9873848D02*
X11700000Y9867148D01*
Y9710000D02*
Y9867148D01*
X10846967Y9648814D02*
X10853553Y9655400D01*
X10846967Y9513033D02*
Y9648814D01*
X8480000Y6800000D02*
Y6940000D01*
X1250000Y5115000D02*
X1260000Y5125000D01*
X1105000Y5115000D02*
X1250000D01*
X1100000Y5110000D02*
X1105000Y5115000D01*
X5360000Y2585000D02*
X5365000Y2590000D01*
X5530000D01*
X3150000Y9850000D02*
Y9853653D01*
Y11600000D02*
X3259925Y11490075D01*
X3150000Y9853653D02*
X3259925Y9963578D01*
Y11490075D01*
X11318299Y11008848D02*
X11328299Y11018848D01*
X11288299Y11008848D02*
X11318299D01*
X11070000Y10600000D02*
X11088299Y10581701D01*
X11070000Y10600000D02*
Y10790549D01*
X11088299Y10398848D02*
Y10581701D01*
X11078299Y10388848D02*
X11088299Y10398848D01*
X11070000Y10790549D02*
X11288299Y11008848D01*
X10923623Y10388848D02*
X11078299D01*
X10897737Y10362962D02*
X10923623Y10388848D01*
X10887737Y10248848D02*
X10897737Y10258848D01*
Y10362962D01*
X10868300Y10248848D02*
X10887737D01*
X11437727Y8597300D02*
X11469465Y8629037D01*
X11335701Y8587300D02*
X11345701Y8597300D01*
X11437727D01*
X11335701Y8557300D02*
Y8587300D01*
D61*
X5785044Y7640000D02*
X5800000Y7654956D01*
X5598580Y7640000D02*
X5785044D01*
X4680000Y8625000D02*
X4690000Y8635000D01*
X4680000Y8500000D02*
Y8625000D01*
X7920000Y11170000D02*
X8050000Y11040000D01*
Y4970000D02*
Y11040000D01*
X5892500Y10412500D02*
X5895000Y10410000D01*
X5892500Y10412500D02*
Y10567500D01*
X5890000Y10570000D02*
X5892500Y10567500D01*
X2630000Y10981882D02*
X2650000Y11001882D01*
X2630000Y10320000D02*
Y10981882D01*
X2650000Y11001882D02*
Y11010000D01*
X4839880Y8435000D02*
X4839940Y8435060D01*
Y8579940D01*
X4840000Y8580000D01*
X5090000Y8635000D02*
X5120000D01*
X5050000Y8595000D02*
X5090000Y8635000D01*
X5050000Y8565000D02*
Y8595000D01*
X5035740Y8550740D02*
X5050000Y8565000D01*
X5035740Y8505740D02*
Y8550740D01*
X5030000Y8500000D02*
X5035740Y8505740D01*
X5212307Y8490000D02*
X5257948Y8535642D01*
X5164880Y8490000D02*
X5212307D01*
X5139879Y8465000D02*
X5164880Y8490000D01*
X5139879Y8435000D02*
Y8465000D01*
X6510000Y7330000D02*
Y9648547D01*
X2230000Y10420000D02*
X2235000Y10425000D01*
Y10975000D01*
X2580000Y9328118D02*
X2650000Y9258118D01*
X2580000Y9328118D02*
Y10170000D01*
X2650000Y9250000D02*
Y9258118D01*
X1020000Y10830000D02*
Y11070000D01*
X1200000Y11250000D01*
X8820000Y7670000D02*
Y8260000D01*
X8440000Y11100000D02*
X8440472Y11099528D01*
Y10093757D02*
Y11099528D01*
X8437350Y10096878D02*
X8440472Y10093757D01*
X8303122Y10096878D02*
X8437350D01*
X8300000Y10100000D02*
X8303122Y10096878D01*
X8180000Y6800000D02*
Y6815000D01*
X8205000Y6840000D01*
X8370000D01*
X2745000Y6270000D02*
X2755000Y6280000D01*
X2860000D01*
X2950000Y6196086D02*
Y6360000D01*
X2859980Y6106067D02*
X2950000Y6196086D01*
X2859980Y5872102D02*
Y6106067D01*
X7930000Y4850000D02*
X8050000Y4970000D01*
X5610000Y5661882D02*
X5630000Y5641882D01*
X5410000Y5870000D02*
Y7340000D01*
Y5870000D02*
X5610000Y5670000D01*
Y5661882D02*
Y5670000D01*
X5630000Y4010000D02*
Y5641882D01*
X6510000Y9648547D02*
X6913472Y10052019D01*
X6946000Y10236000D02*
Y11064000D01*
X6850000Y11160000D02*
X6946000Y11064000D01*
X6913472Y10052019D02*
Y10203472D01*
X9220000Y3880000D02*
Y5510000D01*
X9183384Y7282327D02*
X9220000Y7245710D01*
X9183384Y7282327D02*
Y7323384D01*
X9220000Y5510000D02*
Y7245710D01*
X6913472Y10203472D02*
X6946000Y10236000D01*
X9130000Y7360000D02*
X9150000D01*
X8820000Y7670000D02*
X9130000Y7360000D01*
X3120000Y3400000D02*
Y5612081D01*
X2859980Y5872102D02*
X3120000Y5612081D01*
Y3400000D02*
X3450000Y3070000D01*
X5740000Y5420000D02*
Y5600000D01*
D63*
X2920000Y5145000D02*
Y5270000D01*
X2447358Y6262359D02*
X2455000Y6270000D01*
X2330000Y6262359D02*
X2447358D01*
X1853539Y5938986D02*
X1860000Y5932524D01*
Y5880000D02*
Y5932524D01*
X1210000Y6030000D02*
Y6090000D01*
X1380000Y6965000D02*
X1390000Y6955000D01*
X1380000Y6965000D02*
Y7080000D01*
X2076104Y10046105D02*
X2460000Y10430000D01*
X1579925Y9810127D02*
X1583752Y9813954D01*
X1902745D02*
X2076104Y9987314D01*
X1583752Y9813954D02*
X1902745D01*
X2076104Y9987314D02*
Y10046105D01*
X1579925Y8588075D02*
X1864000Y8304000D01*
X1579925Y8588075D02*
Y9810127D01*
D64*
X3930000Y10870000D02*
Y11100000D01*
Y10870000D02*
X3940000Y10860000D01*
X4115736Y10650127D02*
X4869925D01*
X3940000Y10825863D02*
X4115736Y10650127D01*
X3940000Y10825863D02*
Y10860000D01*
X4090000Y8640000D02*
X4129805D01*
X4690000Y8940000D02*
X4878096D01*
X4429804D02*
X4630842D01*
X4129805Y8640000D02*
X4429804Y8940000D01*
X5020000D02*
Y9220000D01*
X5170000Y9370000D01*
X6720000Y5920000D02*
Y6710000D01*
X6530000Y5730000D02*
X6720000Y5920000D01*
X8490000Y2510000D02*
Y5930000D01*
X7730000Y6750000D02*
X7740000Y6740000D01*
X7730000Y6170000D02*
Y6750000D01*
X7610000Y6870000D02*
X7730000Y6750000D01*
X7545000Y7210000D02*
X7610000Y7145000D01*
X5680000Y720000D02*
Y847000D01*
X4100000Y700000D02*
Y827000D01*
X2508395Y871605D02*
X2510000Y870000D01*
Y680000D02*
Y870000D01*
X7610000Y6870000D02*
Y7145000D01*
X10152857Y1210000D02*
X10460000Y902857D01*
Y620000D02*
Y902857D01*
X9790000Y1210000D02*
X10152857D01*
X8490000Y2510000D02*
X9790000Y1210000D01*
X1460000Y7380000D02*
X1910000D01*
X2410000Y6880000D02*
X2460000D01*
X1910000Y7380000D02*
X2410000Y6880000D01*
X7320000Y7331655D02*
X7441655Y7210000D01*
X7320000Y7331655D02*
Y7338726D01*
X7441655Y7210000D02*
X7545000D01*
X7170000Y7488726D02*
X7320000Y7338726D01*
X6360000Y3840000D02*
Y4810000D01*
X2420000Y5320000D02*
Y5780000D01*
X6170000Y5701600D02*
Y6510000D01*
X6240000Y6580000D01*
X7170000Y7488726D02*
Y8380000D01*
X6920000D02*
X7170000D01*
X6900000Y8360000D02*
X6920000Y8380000D01*
D65*
X3049980Y6472860D02*
X3062120Y6485000D01*
X3959588D02*
X4014588Y6430000D01*
X3062120Y6485000D02*
X3959588D01*
X4014588Y6430000D02*
X4020000D01*
X2957162Y6515000D02*
X3020000D01*
X2502909Y6517310D02*
X2954853D01*
X2479426Y6493827D02*
X2502909Y6517310D01*
X2954853D02*
X2957162Y6515000D01*
X3020000D02*
X3050000Y6485000D01*
X2443827Y6493827D02*
X2479426D01*
X2440000Y6490000D02*
X2443827Y6493827D01*
D66*
X10833000Y2609201D02*
D03*
Y2863201D02*
D03*
X6007000Y1186801D02*
D03*
Y424801D02*
D03*
Y678801D02*
D03*
Y932801D02*
D03*
Y1440801D02*
D03*
Y1694801D02*
D03*
Y1948801D02*
D03*
Y2202801D02*
D03*
Y2456801D02*
D03*
Y3117201D02*
D03*
Y3371201D02*
D03*
Y3625201D02*
D03*
Y3879201D02*
D03*
Y4133201D02*
D03*
Y4387201D02*
D03*
Y4641201D02*
D03*
X10833000Y4895201D02*
D03*
Y4641201D02*
D03*
Y4387201D02*
D03*
Y4133201D02*
D03*
Y3879201D02*
D03*
Y3117201D02*
D03*
Y2355201D02*
D03*
Y2101201D02*
D03*
Y1847201D02*
D03*
Y1593201D02*
D03*
D67*
Y3625201D02*
D03*
X6007000Y2710801D02*
D03*
Y4895201D02*
D03*
X10833000Y1339201D02*
D03*
D68*
X203925Y6214128D02*
D03*
Y5960128D02*
D03*
Y5706128D02*
D03*
Y5452128D02*
D03*
Y5198128D02*
D03*
D69*
X399925Y7870127D02*
D03*
X1509553Y462178D02*
D03*
X4870000Y3547732D02*
D03*
X4705628Y468051D02*
D03*
X3105628Y462151D02*
D03*
X3450000Y2600000D02*
D03*
D70*
X399925Y8340127D02*
D03*
Y8810127D02*
D03*
X1509553Y1402178D02*
D03*
Y932178D02*
D03*
X4870000Y3077732D02*
D03*
Y2607732D02*
D03*
X4705628Y1408051D02*
D03*
Y938051D02*
D03*
X3105628Y932151D02*
D03*
Y1402151D02*
D03*
X3450000Y3540000D02*
D03*
Y3070000D02*
D03*
D71*
X1140000Y2600000D02*
D03*
Y3300000D02*
D03*
Y4000000D02*
D03*
X1579925Y9810127D02*
D03*
X9150000Y7360000D02*
D03*
X6750000Y7990000D02*
D03*
X4582746Y5272729D02*
D03*
X11340000Y5630000D02*
D03*
X4080000Y9320000D02*
D03*
X2990000Y4140000D02*
D03*
X10090000Y7240000D02*
D03*
X6946000Y10236000D02*
D03*
X3470000Y5980000D02*
D03*
X7730000Y6170000D02*
D03*
X213925Y6644127D02*
D03*
D72*
X5090000Y4970000D02*
D03*
X4836000Y4716000D02*
D03*
D73*
X5090000Y4462000D02*
D03*
D74*
X10398000Y858233D02*
D03*
X6806000Y8429000D02*
D03*
X7255999D02*
D03*
D75*
X10398000Y604233D02*
D03*
X10144000Y858233D02*
D03*
Y604233D02*
D03*
X9890000Y858233D02*
D03*
Y604233D02*
D03*
X9636000Y858233D02*
D03*
X9382000D02*
D03*
X9636000Y604233D02*
D03*
X9382000D02*
D03*
X6806000Y8683000D02*
D03*
X7255999D02*
D03*
X6445180Y5680420D02*
D03*
D76*
X3150000Y9850000D02*
D03*
X5051700D02*
D03*
D77*
X3150000Y11600000D02*
D03*
X5051700D02*
D03*
D78*
X1864000Y8804000D02*
D03*
D79*
Y8304000D02*
D03*
D80*
X11313000Y2750000D02*
D03*
D81*
X11567000D02*
D03*
D82*
X6191180Y5680420D02*
D03*
D83*
X9770000Y9170000D02*
D03*
X3930000Y11100000D02*
D03*
X3940000Y10860000D02*
D03*
X2990000Y7000000D02*
D03*
X3080000Y6610000D02*
D03*
X3550000Y7480000D02*
D03*
X5598580Y7640000D02*
D03*
X2909980Y6730000D02*
D03*
X7920000Y11170000D02*
D03*
X5890000Y10570000D02*
D03*
X5590000Y10590000D02*
D03*
X2650000Y11010000D02*
D03*
X4480000Y11130000D02*
D03*
X2211693Y11320000D02*
D03*
X1960000Y11320000D02*
D03*
X1843214Y11151047D02*
D03*
X6110000Y8500000D02*
D03*
X4460000Y8900000D02*
D03*
X4230000Y8650000D02*
D03*
X4090000Y8640000D02*
D03*
X4617576Y8860000D02*
D03*
X4430000Y8750000D02*
D03*
X5090000Y9070000D02*
D03*
X5030000Y8500000D02*
D03*
X5257948Y8535642D02*
D03*
X5333931Y8293575D02*
D03*
X5610000Y8160000D02*
D03*
X5790000Y8400000D02*
D03*
X5870000Y8090000D02*
D03*
X5710000D02*
D03*
X6370000Y8500000D02*
D03*
X5530000Y7890000D02*
D03*
X6060000Y6370000D02*
D03*
X6840000Y6510000D02*
D03*
X6815283Y6767575D02*
D03*
X6925000Y6280000D02*
D03*
X6093563Y6558384D02*
D03*
X11410000Y2390000D02*
D03*
X5560000Y480000D02*
D03*
X2110000Y3920000D02*
D03*
X2120000Y1680000D02*
D03*
X2920000Y5270000D02*
D03*
X4840000Y8580000D02*
D03*
X4680000Y8500000D02*
D03*
X2330000Y6262359D02*
D03*
X1220000Y6670000D02*
D03*
X1340000Y6340000D02*
D03*
Y6550000D02*
D03*
X1860000Y5880000D02*
D03*
X1210000Y6030000D02*
D03*
X1380000Y7080000D02*
D03*
X1968987Y10219268D02*
D03*
X2087794Y10119718D02*
D03*
X2230000Y10420000D02*
D03*
X2320000Y10370000D02*
D03*
X2580000Y10170000D02*
D03*
X2460000Y11030000D02*
D03*
X610000Y10460000D02*
D03*
X1020000Y10830000D02*
D03*
X8440000Y5740000D02*
D03*
X7590000Y8430000D02*
D03*
X8820000Y8260000D02*
D03*
X9190000Y8630000D02*
D03*
X10890000Y9150000D02*
D03*
X10620000Y9480000D02*
D03*
X11380000Y8230000D02*
D03*
X11530000Y9610000D02*
D03*
Y9010000D02*
D03*
X11650000Y8960000D02*
D03*
X11400000Y9720000D02*
D03*
X11700000Y9710000D02*
D03*
X11790000Y9560000D02*
D03*
X11160000Y9500000D02*
D03*
X11360000D02*
D03*
X10846967Y9513033D02*
D03*
X11150000Y9800000D02*
D03*
X11018299Y9780000D02*
D03*
X10880000Y9870000D02*
D03*
X10728442Y9619887D02*
D03*
X11820000Y10490000D02*
D03*
X11471695Y11384636D02*
D03*
X11480000Y11290000D02*
D03*
X10540000Y11010000D02*
D03*
Y10770000D02*
D03*
X9760000Y10700000D02*
D03*
X8750000Y11300000D02*
D03*
X8440000Y11100000D02*
D03*
X9030000Y9800000D02*
D03*
X8770000Y10290000D02*
D03*
X8300000Y10100000D02*
D03*
X8270000Y9800000D02*
D03*
X10070000Y10160000D02*
D03*
X10280000Y9830000D02*
D03*
X10330000Y9500000D02*
D03*
X10170000Y9020000D02*
D03*
X10460000Y9000000D02*
D03*
X10050000Y8850000D02*
D03*
X10040000Y8520000D02*
D03*
X10590000Y7850000D02*
D03*
X11410000Y7650000D02*
D03*
Y7010000D02*
D03*
X11430000Y6350000D02*
D03*
X7010000Y7340000D02*
D03*
X8480000Y6940000D02*
D03*
X8370000Y6840000D02*
D03*
X7890000Y6690000D02*
D03*
X4020000Y6430000D02*
D03*
X4040000Y6720000D02*
D03*
X3670000Y6800000D02*
D03*
X3830000Y6810000D02*
D03*
X2860000Y6280000D02*
D03*
X2950000Y6360000D02*
D03*
X1960000Y6540000D02*
D03*
X2160000Y6630000D02*
D03*
X4060000Y5080000D02*
D03*
X3460000D02*
D03*
X2928925Y4690557D02*
D03*
X1240000Y4660000D02*
D03*
X1100000Y5110000D02*
D03*
X2340000Y5080000D02*
D03*
X1730000Y5090000D02*
D03*
X5210000Y2900000D02*
D03*
X5480000Y2720000D02*
D03*
X5620000Y2430000D02*
D03*
X5530000Y2590000D02*
D03*
X5560000Y1060000D02*
D03*
X3810000Y1120000D02*
D03*
X5780000Y900000D02*
D03*
Y770000D02*
D03*
Y640000D02*
D03*
X4150000Y890000D02*
D03*
Y630000D02*
D03*
Y760000D02*
D03*
X3940000Y470000D02*
D03*
X2556460Y874776D02*
D03*
X2340000Y470000D02*
D03*
X2560000Y620000D02*
D03*
Y750000D02*
D03*
X2220000Y1130000D02*
D03*
X7730000Y6750000D02*
D03*
X2160000Y6500000D02*
D03*
X2320000Y6540000D02*
D03*
X10590000Y1300000D02*
D03*
X5320000Y3860000D02*
D03*
X5610000Y5670000D02*
D03*
X5630000Y4010000D02*
D03*
X11760000Y7950000D02*
D03*
X11826116Y10078890D02*
D03*
X11583535Y10043536D02*
D03*
X11580000Y10520000D02*
D03*
X10030000Y9990000D02*
D03*
X7930000Y4850000D02*
D03*
X11208737Y10259500D02*
D03*
X5410000Y7340000D02*
D03*
X11370000Y8702300D02*
D03*
X11230000Y8775000D02*
D03*
X10910000Y8825434D02*
D03*
X11970000Y8540000D02*
D03*
X11630000Y6830000D02*
D03*
X11305017Y10304509D02*
D03*
X11050000Y9150000D02*
D03*
X10819000Y11137929D02*
D03*
X5140000Y10160000D02*
D03*
X1200000Y11250000D02*
D03*
X1510000Y11360000D02*
D03*
X6600000Y7430000D02*
D03*
X6810000Y7490000D02*
D03*
X6360000Y4920000D02*
D03*
Y3840000D02*
D03*
X5900000Y2870000D02*
D03*
X5640000Y2840000D02*
D03*
X5455387Y3471219D02*
D03*
X5582911Y2920000D02*
D03*
X5990000Y2950000D02*
D03*
X2420000Y5870000D02*
D03*
X2430000Y5210000D02*
D03*
X2520000Y5770000D02*
D03*
X2320000Y5750000D02*
D03*
X2520000Y5280000D02*
D03*
X2320116Y5287971D02*
D03*
X10010000Y6371842D02*
D03*
X6850000Y11160000D02*
D03*
X8570000Y5800000D02*
D03*
X9220000Y5510000D02*
D03*
X2630000Y10320000D02*
D03*
X6610000Y5020000D02*
D03*
Y5500000D02*
D03*
X6510000Y7330000D02*
D03*
X5315000Y6273587D02*
D03*
X5290000Y9350000D02*
D03*
X5296881Y9474082D02*
D03*
X5230000Y9270000D02*
D03*
X5160000Y9500000D02*
D03*
X5120000Y9330000D02*
D03*
X5060000Y9430000D02*
D03*
X6760000Y9760000D02*
D03*
X11070000Y10600000D02*
D03*
X10897737Y10362962D02*
D03*
X11469465Y8629037D02*
D03*
X7580000Y7460000D02*
D03*
X2380000Y7050000D02*
D03*
X2460000Y6880000D02*
D03*
X2260000Y6940000D02*
D03*
X1550000Y7490000D02*
D03*
X1610000Y7360000D02*
D03*
X1350000Y7370000D02*
D03*
X1502496Y7244324D02*
D03*
X370000Y3610000D02*
D03*
X9220000Y3880000D02*
D03*
X5240102Y1520000D02*
D03*
X5100000Y2480000D02*
D03*
Y2280000D02*
D03*
X5620000Y1940000D02*
D03*
X2930000Y4390000D02*
D03*
X8970000Y10760000D02*
D03*
X11150000Y9210000D02*
D03*
X1963201Y10907541D02*
D03*
X2949925Y10450127D02*
D03*
X2650000Y9250000D02*
D03*
X8420000Y5860000D02*
D03*
X9830000Y9990000D02*
D03*
X5740000Y5420000D02*
D03*
Y5600000D02*
D03*
X11373446Y10633087D02*
D03*
X11280000Y10068866D02*
D03*
X11050000Y8220000D02*
D03*
X9190000Y9700000D02*
D03*
X10630000Y9110000D02*
D03*
X10660000Y10130000D02*
D03*
X11680000Y11030000D02*
D03*
X2239925Y8671294D02*
D03*
X2440000Y6490000D02*
D03*
X11814000Y7304000D02*
D03*
X11704000Y10374000D02*
D03*
X2840503Y10395127D02*
D03*
X2459921Y10590105D02*
D03*
X4439925Y10890127D02*
D03*
X4460000Y11340000D02*
D03*
X2410000Y9860000D02*
D03*
X2913200Y9687836D02*
D03*
X2235000Y10975000D02*
D03*
X2800000Y11330000D02*
D03*
X2180000Y11150000D02*
D03*
X2910000Y11540000D02*
D03*
D84*
X3382000Y7182000D02*
D03*
Y7638000D02*
D03*
D85*
X2752000Y7410000D02*
D03*
D86*
X11143553Y9655400D02*
D03*
X10853553D02*
D03*
X5605000Y10410000D02*
D03*
X5895000D02*
D03*
X11693299Y9873848D02*
D03*
X11535000Y9450000D02*
D03*
Y9180000D02*
D03*
X11335701Y8557300D02*
D03*
X10623300Y9313848D02*
D03*
X2455000Y6270000D02*
D03*
X11403300Y9873848D02*
D03*
X11245000Y9180000D02*
D03*
Y9450000D02*
D03*
X10913299Y9313848D02*
D03*
X11045701Y8557300D02*
D03*
X2745000Y6270000D02*
D03*
D87*
X8180000Y6800000D02*
D03*
X8480000D02*
D03*
X5139879Y8435000D02*
D03*
X4839880D02*
D03*
D88*
X5800000Y7925044D02*
D03*
Y7654956D02*
D03*
D89*
X6114956Y8330000D02*
D03*
X6385044D02*
D03*
D90*
X10868300Y10231473D02*
D03*
Y9976224D02*
D03*
D91*
X5670000Y894000D02*
D03*
Y767000D02*
D03*
Y640000D02*
D03*
X4040000Y887000D02*
D03*
Y760000D02*
D03*
Y633000D02*
D03*
X2449375Y743500D02*
D03*
Y870500D02*
D03*
Y616500D02*
D03*
Y489500D02*
D03*
X5670000Y513000D02*
D03*
X4040000Y506000D02*
D03*
D92*
X1870625Y489500D02*
D03*
Y616500D02*
D03*
Y743500D02*
D03*
Y870500D02*
D03*
X5091250Y513000D02*
D03*
Y640000D02*
D03*
Y767000D02*
D03*
Y894000D02*
D03*
X3461250Y887000D02*
D03*
Y760000D02*
D03*
Y633000D02*
D03*
Y506000D02*
D03*
D93*
X2120000Y500000D02*
X2500000Y120000D01*
X9659767D02*
X10144000Y604233D01*
X2500000Y120000D02*
X9659767D01*
X4030000Y210000D02*
X9495767D01*
X3740000Y500000D02*
X4030000Y210000D01*
X9495767D02*
X9890000Y604233D01*
X5551112Y300000D02*
X9331767D01*
X9636000Y604233D01*
X5356635Y494477D02*
X5551112Y300000D01*
X10144000Y604233D02*
Y858233D01*
X9890000Y604233D02*
Y858233D01*
X9636000Y604233D02*
Y858233D01*
%TF.MD5,003c47178f0c04a709a77cde860c7e90*%
M02*
