%TF.GenerationSoftware,Altium Limited,Altium Designer,25.2.1 (25)*%
G04 Layer_Color=16711935*
%FSLAX45Y45*%
%MOMM*%
%TF.SameCoordinates,EF3F7739-EB0C-4DF3-8AA3-BEF7F1336093*%
%TF.FilePolarity,Negative*%
%TF.FileFunction,Soldermask,Bot*%
%TF.Part,Single*%
G01*
G75*
%TA.AperFunction,SMDPad,CuDef*%
%ADD38R,1.80000X1.20000*%
%ADD39R,1.90000X1.30000*%
%TA.AperFunction,ComponentPad*%
%ADD66O,2.84500X1.42200*%
%ADD67R,2.84500X1.42200*%
%ADD71C,2.20000*%
%ADD72C,1.29000*%
%ADD73R,1.29000X1.29000*%
%ADD74R,1.70000X1.70000*%
%ADD75C,1.70000*%
%ADD76C,2.10000*%
%ADD77R,2.10000X2.10000*%
%ADD78R,1.40000X1.40000*%
%ADD79C,1.40000*%
%ADD82R,1.70000X1.70000*%
%TA.AperFunction,SMDPad,CuDef*%
%ADD86R,1.20000X1.80000*%
%ADD87R,1.00000X1.60000*%
%ADD88R,1.90415X1.50328*%
%ADD89R,1.50328X1.90415*%
%ADD90R,1.65822X1.10573*%
%ADD91R,0.92500X0.50000*%
%ADD115R,1.55320X2.05320*%
%TA.AperFunction,ComponentPad*%
%ADD119C,1.51320*%
%ADD120R,2.97820X2.97820*%
%ADD121C,2.97820*%
%ADD122C,1.80320*%
G04:AMPARAMS|DCode=123|XSize=1.8032mm|YSize=1.8032mm|CornerRadius=0.5016mm|HoleSize=0mm|Usage=FLASHONLY|Rotation=180.000|XOffset=0mm|YOffset=0mm|HoleType=Round|Shape=RoundedRectangle|*
%AMROUNDEDRECTD123*
21,1,1.80320,0.80000,0,0,180.0*
21,1,0.80000,1.80320,0,0,180.0*
1,1,1.00320,-0.40000,0.40000*
1,1,1.00320,0.40000,0.40000*
1,1,1.00320,0.40000,-0.40000*
1,1,1.00320,-0.40000,-0.40000*
%
%ADD123ROUNDEDRECTD123*%
%TA.AperFunction,SMDPad,CuDef*%
%ADD124R,2.40320X1.40320*%
%ADD125R,6.60320X6.00320*%
G36*
X2275950Y900500D02*
X1830450D01*
Y840500D01*
X1910450D01*
Y773500D01*
X1830450D01*
Y713500D01*
X1910450D01*
Y646500D01*
X1830450D01*
Y586500D01*
X1910450D01*
Y519500D01*
X1830450D01*
Y459500D01*
X2275950D01*
Y900500D01*
D02*
G37*
G36*
X3866575Y917000D02*
X3421075D01*
Y857000D01*
X3501075D01*
Y790000D01*
X3421075D01*
Y730000D01*
X3501075D01*
Y663000D01*
X3421075D01*
Y603000D01*
X3501075D01*
Y536000D01*
X3421075D01*
Y476000D01*
X3866575D01*
Y917000D01*
D02*
G37*
G36*
X5496575Y924000D02*
X5051075D01*
Y864000D01*
X5131075D01*
Y797000D01*
X5051075D01*
Y737000D01*
X5131075D01*
Y670000D01*
X5051075D01*
Y610000D01*
X5131075D01*
Y543000D01*
X5051075D01*
Y483000D01*
X5496575D01*
Y924000D01*
D02*
G37*
D38*
X5360000Y2875000D02*
D03*
Y2585000D02*
D03*
X4690000Y8925000D02*
D03*
Y8635000D02*
D03*
X11328299Y11018848D02*
D03*
X11081200Y10389647D02*
D03*
X1390000Y6955000D02*
D03*
X2930000Y5135000D02*
D03*
X1260000Y5125000D02*
D03*
X11081200Y10099647D02*
D03*
X11328299Y11308848D02*
D03*
X1260000Y4835000D02*
D03*
X3050000Y6485000D02*
D03*
Y6775000D02*
D03*
X2930000Y4845000D02*
D03*
X1390000Y6665000D02*
D03*
X8440472Y9803757D02*
D03*
Y10093757D02*
D03*
D39*
X7580000Y7465000D02*
D03*
X5530000Y8015000D02*
D03*
X5120000Y8635000D02*
D03*
X1853539Y6003986D02*
D03*
X1200000Y6155000D02*
D03*
X7580000Y7175000D02*
D03*
X1853539Y6293986D02*
D03*
X1200000Y6445000D02*
D03*
X5120000Y8925000D02*
D03*
X5530000Y8305000D02*
D03*
D66*
X10833000Y2609201D02*
D03*
Y2863201D02*
D03*
X6007000Y1186801D02*
D03*
Y424801D02*
D03*
Y678801D02*
D03*
Y932801D02*
D03*
Y1440801D02*
D03*
Y1694801D02*
D03*
Y1948801D02*
D03*
Y2202801D02*
D03*
Y2456801D02*
D03*
Y3117201D02*
D03*
Y3371201D02*
D03*
Y3625201D02*
D03*
Y3879201D02*
D03*
Y4133201D02*
D03*
Y4387201D02*
D03*
Y4641201D02*
D03*
X10833000Y4895201D02*
D03*
Y4641201D02*
D03*
Y4387201D02*
D03*
Y4133201D02*
D03*
Y3879201D02*
D03*
Y3117201D02*
D03*
Y2355201D02*
D03*
Y2101201D02*
D03*
Y1847201D02*
D03*
Y1593201D02*
D03*
D67*
Y3625201D02*
D03*
X6007000Y2710801D02*
D03*
Y4895201D02*
D03*
X10833000Y1339201D02*
D03*
D71*
X1140000Y2600000D02*
D03*
Y3300000D02*
D03*
Y4000000D02*
D03*
X1579925Y9810127D02*
D03*
X9150000Y7360000D02*
D03*
X6750000Y7990000D02*
D03*
X4582746Y5272729D02*
D03*
X11340000Y5630000D02*
D03*
X4080000Y9320000D02*
D03*
X2990000Y4140000D02*
D03*
X10090000Y7240000D02*
D03*
X6946000Y10236000D02*
D03*
X3470000Y5980000D02*
D03*
X7730000Y6170000D02*
D03*
X213925Y6644127D02*
D03*
D72*
X5090000Y4970000D02*
D03*
X4836000Y4716000D02*
D03*
D73*
X5090000Y4462000D02*
D03*
D74*
X10398000Y858233D02*
D03*
X6806000Y8429000D02*
D03*
X7255999D02*
D03*
D75*
X10398000Y604233D02*
D03*
X10144000Y858233D02*
D03*
Y604233D02*
D03*
X9890000Y858233D02*
D03*
Y604233D02*
D03*
X9636000Y858233D02*
D03*
X9382000D02*
D03*
X9636000Y604233D02*
D03*
X9382000D02*
D03*
X6806000Y8683000D02*
D03*
X7255999D02*
D03*
X6445180Y5680420D02*
D03*
D76*
X3150000Y9850000D02*
D03*
X5051700D02*
D03*
D77*
X3150000Y11600000D02*
D03*
X5051700D02*
D03*
D78*
X1864000Y8804000D02*
D03*
D79*
Y8304000D02*
D03*
D82*
X6191180Y5680420D02*
D03*
D86*
X11143553Y9655400D02*
D03*
X10853553D02*
D03*
X5605000Y10410000D02*
D03*
X5895000D02*
D03*
X11693299Y9873848D02*
D03*
X11535000Y9450000D02*
D03*
Y9180000D02*
D03*
X11335701Y8557300D02*
D03*
X10623300Y9313848D02*
D03*
X2455000Y6270000D02*
D03*
X11403300Y9873848D02*
D03*
X11245000Y9180000D02*
D03*
Y9450000D02*
D03*
X10913299Y9313848D02*
D03*
X11045701Y8557300D02*
D03*
X2745000Y6270000D02*
D03*
D87*
X8180000Y6800000D02*
D03*
X8480000D02*
D03*
X5139879Y8435000D02*
D03*
X4839880D02*
D03*
D88*
X5800000Y7925044D02*
D03*
Y7654956D02*
D03*
D89*
X6114956Y8330000D02*
D03*
X6385044D02*
D03*
D90*
X10868300Y10231473D02*
D03*
Y9976224D02*
D03*
D91*
X5670000Y894000D02*
D03*
Y767000D02*
D03*
Y640000D02*
D03*
X4040000Y887000D02*
D03*
Y760000D02*
D03*
Y633000D02*
D03*
X2449375Y743500D02*
D03*
Y870500D02*
D03*
Y616500D02*
D03*
Y489500D02*
D03*
X5670000Y513000D02*
D03*
X4040000Y506000D02*
D03*
D115*
X1800000Y7610000D02*
D03*
X2105000D02*
D03*
D119*
X203925Y6214128D02*
D03*
Y5960128D02*
D03*
Y5706128D02*
D03*
Y5452128D02*
D03*
Y5198128D02*
D03*
D120*
X399925Y7870127D02*
D03*
X1509553Y462178D02*
D03*
X4870000Y3547732D02*
D03*
X4705628Y468051D02*
D03*
X3105628Y462151D02*
D03*
X3450000Y2600000D02*
D03*
D121*
X399925Y8340127D02*
D03*
Y8810127D02*
D03*
X1509553Y1402178D02*
D03*
Y932178D02*
D03*
X4870000Y3077732D02*
D03*
Y2607732D02*
D03*
X4705628Y1408051D02*
D03*
Y938051D02*
D03*
X3105628Y932151D02*
D03*
Y1402151D02*
D03*
X3450000Y3540000D02*
D03*
Y3070000D02*
D03*
D122*
X11313000Y2750000D02*
D03*
D123*
X11567000D02*
D03*
D124*
X3382000Y7182000D02*
D03*
Y7638000D02*
D03*
D125*
X2752000Y7410000D02*
D03*
%TF.MD5,d2c433a88f01bf727b1777bab38319cf*%
M02*
