%TF.GenerationSoftware,Altium Limited,Altium Designer,25.2.1 (25)*%
G04 Layer_Color=8388736*
%FSLAX45Y45*%
%MOMM*%
%TF.SameCoordinates,EF3F7739-EB0C-4DF3-8AA3-BEF7F1336093*%
%TF.FilePolarity,Negative*%
%TF.FileFunction,Soldermask,Top*%
%TF.Part,Single*%
G01*
G75*
%TA.AperFunction,SMDPad,CuDef*%
%ADD11R,1.05000X1.80000*%
%ADD12R,0.85000X0.50000*%
%ADD25R,1.60000X0.60000*%
%ADD26R,1.35606X1.85822*%
G04:AMPARAMS|DCode=28|XSize=1.87407mm|YSize=0.51213mm|CornerRadius=0.25607mm|HoleSize=0mm|Usage=FLASHONLY|Rotation=180.000|XOffset=0mm|YOffset=0mm|HoleType=Round|Shape=RoundedRectangle|*
%AMROUNDEDRECTD28*
21,1,1.87407,0.00000,0,0,180.0*
21,1,1.36194,0.51213,0,0,180.0*
1,1,0.51213,-0.68097,0.00000*
1,1,0.51213,0.68097,0.00000*
1,1,0.51213,0.68097,0.00000*
1,1,0.51213,-0.68097,0.00000*
%
%ADD28ROUNDEDRECTD28*%
%ADD29R,1.87407X0.51213*%
%ADD30R,1.65822X0.95606*%
%ADD31R,2.10000X4.10000*%
%ADD32R,0.95606X1.65822*%
%ADD33R,1.80000X1.05000*%
%ADD34R,0.60000X1.05000*%
%ADD35R,5.70000X1.80000*%
%ADD36R,0.45000X1.50000*%
%ADD38R,1.80000X1.20000*%
%ADD39R,1.90000X1.30000*%
%ADD40R,4.10000X2.10000*%
%ADD41R,1.00000X1.00000*%
%ADD42R,1.40000X2.10000*%
%ADD43R,1.93000X1.00000*%
%ADD45R,1.75000X1.10000*%
%ADD46R,1.85822X1.35606*%
%ADD47R,0.80000X0.80000*%
%ADD48R,0.80000X0.90000*%
%ADD50R,2.10000X1.40000*%
%ADD51R,1.65000X5.60000*%
%ADD52R,1.20000X2.20000*%
%ADD53R,5.80000X6.40000*%
%ADD54R,0.90000X0.80000*%
%ADD55R,3.55000X5.10000*%
%ADD56R,1.00000X0.60000*%
%ADD57R,0.60000X1.00000*%
%TA.AperFunction,ComponentPad*%
%ADD66O,2.84500X1.42200*%
%ADD67R,2.84500X1.42200*%
%ADD71C,2.20000*%
%ADD72C,1.29000*%
%ADD73R,1.29000X1.29000*%
%ADD74R,1.70000X1.70000*%
%ADD75C,1.70000*%
%ADD76C,2.10000*%
%ADD77R,2.10000X2.10000*%
%ADD78R,1.40000X1.40000*%
%ADD79C,1.40000*%
%ADD82R,1.70000X1.70000*%
%TA.AperFunction,SMDPad,CuDef*%
%ADD101R,3.35320X2.40320*%
%ADD102R,1.05320X0.70320*%
%ADD103R,1.00320X0.80320*%
%ADD104R,3.95320X4.61320*%
%ADD105R,1.30320X1.90320*%
%ADD106R,1.45320X2.00320*%
%ADD107R,0.70320X1.25320*%
%ADD108R,1.72820X0.85320*%
%ADD109R,1.10320X2.10320*%
%ADD110R,3.40320X2.10320*%
%ADD111R,1.45320X0.80320*%
%ADD112R,1.85420X1.54940*%
%ADD113R,1.01600X0.48260*%
%TA.AperFunction,ConnectorPad*%
%ADD114R,1.39320X3.50320*%
%TA.AperFunction,SMDPad,CuDef*%
%ADD115R,1.55320X2.05320*%
%ADD116R,2.05320X1.55320*%
%ADD117R,1.10320X1.80320*%
%ADD118R,1.40320X1.40320*%
%TA.AperFunction,ComponentPad*%
%ADD119C,1.51320*%
%ADD120R,2.97820X2.97820*%
%ADD121C,2.97820*%
%ADD122C,1.80320*%
G04:AMPARAMS|DCode=123|XSize=1.8032mm|YSize=1.8032mm|CornerRadius=0.5016mm|HoleSize=0mm|Usage=FLASHONLY|Rotation=180.000|XOffset=0mm|YOffset=0mm|HoleType=Round|Shape=RoundedRectangle|*
%AMROUNDEDRECTD123*
21,1,1.80320,0.80000,0,0,180.0*
21,1,0.80000,1.80320,0,0,180.0*
1,1,1.00320,-0.40000,0.40000*
1,1,1.00320,0.40000,0.40000*
1,1,1.00320,0.40000,-0.40000*
1,1,1.00320,-0.40000,-0.40000*
%
%ADD123ROUNDEDRECTD123*%
D11*
X1972593Y6144858D02*
D03*
X1672594D02*
D03*
X8620449Y8441000D02*
D03*
X5135628Y976851D02*
D03*
X3518128Y976838D02*
D03*
X1922053Y976851D02*
D03*
X5435628D02*
D03*
X3818127Y976838D02*
D03*
X2222053Y976851D02*
D03*
X3223925Y4860000D02*
D03*
X2923925D02*
D03*
X10460000Y9180000D02*
D03*
X10160000D02*
D03*
X10460000Y9840000D02*
D03*
X10160000D02*
D03*
X8320449Y8441000D02*
D03*
X1543925Y4860000D02*
D03*
X1243925D02*
D03*
X2592480Y6715184D02*
D03*
X2292480D02*
D03*
D12*
X11300000Y2390000D02*
D03*
X11560000D02*
D03*
D25*
X11224000Y11278500D02*
D03*
Y11151500D02*
D03*
Y11024500D02*
D03*
Y10897500D02*
D03*
Y10770500D02*
D03*
Y10643500D02*
D03*
Y10516500D02*
D03*
Y10389500D02*
D03*
X10684000Y10516500D02*
D03*
Y10643500D02*
D03*
Y10770500D02*
D03*
Y10897500D02*
D03*
Y11024500D02*
D03*
Y11151500D02*
D03*
Y11278500D02*
D03*
Y10389500D02*
D03*
D26*
X5122608Y8250000D02*
D03*
X4817392D02*
D03*
X6857828Y6013331D02*
D03*
X6552611D02*
D03*
X10462608Y7860000D02*
D03*
X10157392D02*
D03*
X9912608Y8850000D02*
D03*
X9607392D02*
D03*
D28*
X8208393Y6589500D02*
D03*
Y6843500D02*
D03*
Y6970500D02*
D03*
Y6716500D02*
D03*
X8671606Y6970500D02*
D03*
Y6843500D02*
D03*
Y6716500D02*
D03*
D29*
Y6589500D02*
D03*
D30*
X5140000Y10422608D02*
D03*
Y10157392D02*
D03*
X5340000Y2887392D02*
D03*
Y3152608D02*
D03*
X2080000Y9697392D02*
D03*
Y9962608D02*
D03*
X2439925Y10197519D02*
D03*
Y10462735D02*
D03*
X5140000Y11032608D02*
D03*
Y10767392D02*
D03*
D31*
X3150000Y8085000D02*
D03*
Y8935000D02*
D03*
D32*
X9892608Y9840000D02*
D03*
X9627392D02*
D03*
Y10170000D02*
D03*
X9892608D02*
D03*
X7107392Y7210000D02*
D03*
X7372608D02*
D03*
X7792608D02*
D03*
X7527392D02*
D03*
X7727841Y8441000D02*
D03*
X7993058D02*
D03*
D33*
X2410000Y9980000D02*
D03*
Y9680000D02*
D03*
X2640000Y11130000D02*
D03*
Y11430000D02*
D03*
X2340000Y11130000D02*
D03*
Y11430000D02*
D03*
X8881755Y10098757D02*
D03*
X4330000Y11440000D02*
D03*
X5320000Y3857852D02*
D03*
Y3557852D02*
D03*
X8440472Y9798757D02*
D03*
Y10098757D02*
D03*
X8881755Y9798757D02*
D03*
X4330000Y11140000D02*
D03*
X2020000D02*
D03*
Y11440000D02*
D03*
X1690000Y11140000D02*
D03*
Y11440000D02*
D03*
X1539925Y10170127D02*
D03*
Y10470127D02*
D03*
D34*
X2954925Y10345127D02*
D03*
X2764925D02*
D03*
X2859925Y10575127D02*
D03*
D35*
X6065000Y8659912D02*
D03*
Y9119912D02*
D03*
D36*
X11220199Y9359001D02*
D03*
X11350199Y9939000D02*
D03*
X11285199D02*
D03*
X11220199D02*
D03*
X11155199D02*
D03*
X11090199D02*
D03*
X11025199D02*
D03*
X10960199D02*
D03*
Y9359001D02*
D03*
X11025199D02*
D03*
X11090199D02*
D03*
X11155199D02*
D03*
X11285199D02*
D03*
X11350199D02*
D03*
D38*
X7086000Y10861000D02*
D03*
Y11151000D02*
D03*
D39*
X7266000Y9351000D02*
D03*
X7646000D02*
D03*
X6866000Y9341000D02*
D03*
X7266000Y9061000D02*
D03*
X6866000Y9051000D02*
D03*
X7646000Y9061000D02*
D03*
D40*
X8981000Y9126000D02*
D03*
X10255000Y5720000D02*
D03*
X8131000Y9126000D02*
D03*
X9405000Y5720000D02*
D03*
D41*
X9835000Y8190000D02*
D03*
X9685000D02*
D03*
D42*
X11645000Y1850000D02*
D03*
Y850000D02*
D03*
X11195000D02*
D03*
Y1850000D02*
D03*
X8437742Y10286257D02*
D03*
Y11286257D02*
D03*
X8887742Y10286257D02*
D03*
Y11286257D02*
D03*
D43*
X7260000Y5419000D02*
D03*
Y5861000D02*
D03*
D45*
X5828499Y10005999D02*
D03*
X6103500Y10146000D02*
D03*
X5828499D02*
D03*
X6103500Y10005999D02*
D03*
X7472500Y6750000D02*
D03*
X7747500Y6610000D02*
D03*
X7472500D02*
D03*
X7747500Y6750000D02*
D03*
D46*
X7386000Y10853392D02*
D03*
Y11158608D02*
D03*
D47*
X5541448Y736244D02*
D03*
Y576244D02*
D03*
X3936448Y562700D02*
D03*
Y722700D02*
D03*
X2340373Y719622D02*
D03*
Y559622D02*
D03*
X2190000Y2790000D02*
D03*
Y2950000D02*
D03*
X270000Y9990000D02*
D03*
Y10150000D02*
D03*
X11194000Y7174000D02*
D03*
Y7334001D02*
D03*
X11204000Y7764000D02*
D03*
Y7924000D02*
D03*
Y8384001D02*
D03*
Y8544001D02*
D03*
X11214000Y6644000D02*
D03*
Y6484000D02*
D03*
X2196075Y3275873D02*
D03*
Y3435873D02*
D03*
X2190000Y2450000D02*
D03*
Y2290000D02*
D03*
X2200000Y3920000D02*
D03*
Y3760000D02*
D03*
D48*
X5225628Y519950D02*
D03*
X5125628Y739951D02*
D03*
X5325628D02*
D03*
X3620628Y520000D02*
D03*
X3520627Y740000D02*
D03*
X3720628D02*
D03*
X2024553Y519950D02*
D03*
X1924553Y739951D02*
D03*
X2124553D02*
D03*
D50*
X4253925Y4635000D02*
D03*
X3253925D02*
D03*
X4253925Y5085000D02*
D03*
X3253925D02*
D03*
X2533900Y4635000D02*
D03*
X1533900D02*
D03*
X2533900Y5085000D02*
D03*
X1533900D02*
D03*
D51*
X6232500Y6630000D02*
D03*
X6647500D02*
D03*
D52*
X3832000Y10845000D02*
D03*
X4288000D02*
D03*
X1017925Y10660127D02*
D03*
X561925D02*
D03*
D53*
X4060000Y10215000D02*
D03*
X789925Y10030127D02*
D03*
D54*
X11694000Y9554000D02*
D03*
X11914000Y9654000D02*
D03*
Y9454000D02*
D03*
X11924000Y9934000D02*
D03*
Y10134000D02*
D03*
X11704000Y10034000D02*
D03*
X11694000Y10494000D02*
D03*
X11914000Y10594000D02*
D03*
Y10394000D02*
D03*
X11634000Y7204001D02*
D03*
X11414000Y7104001D02*
D03*
Y7304001D02*
D03*
X11624000Y7844000D02*
D03*
X11404000Y7744000D02*
D03*
Y7944000D02*
D03*
X11434000Y6654001D02*
D03*
Y6454001D02*
D03*
X11654000Y6554001D02*
D03*
X11904000Y8984000D02*
D03*
Y9184000D02*
D03*
X11684000Y9084000D02*
D03*
X11604000Y8424001D02*
D03*
X11384000Y8324001D02*
D03*
Y8524001D02*
D03*
X1859925Y10380128D02*
D03*
Y10180127D02*
D03*
X2079925Y10280128D02*
D03*
D55*
X5600780Y6702669D02*
D03*
X4600780D02*
D03*
D56*
X2384925Y10810127D02*
D03*
X2154925Y10715127D02*
D03*
Y10905127D02*
D03*
X1544925Y10885127D02*
D03*
Y10695127D02*
D03*
X1774925Y10790127D02*
D03*
D57*
X3930000Y11350000D02*
D03*
X3740000D02*
D03*
X3835000Y11120000D02*
D03*
D66*
X10833000Y2609201D02*
D03*
Y2863201D02*
D03*
X6007000Y1186801D02*
D03*
Y424801D02*
D03*
Y678801D02*
D03*
Y932801D02*
D03*
Y1440801D02*
D03*
Y1694801D02*
D03*
Y1948801D02*
D03*
Y2202801D02*
D03*
Y2456801D02*
D03*
Y3117201D02*
D03*
Y3371201D02*
D03*
Y3625201D02*
D03*
Y3879201D02*
D03*
Y4133201D02*
D03*
Y4387201D02*
D03*
Y4641201D02*
D03*
X10833000Y4895201D02*
D03*
Y4641201D02*
D03*
Y4387201D02*
D03*
Y4133201D02*
D03*
Y3879201D02*
D03*
Y3117201D02*
D03*
Y2355201D02*
D03*
Y2101201D02*
D03*
Y1847201D02*
D03*
Y1593201D02*
D03*
D67*
Y3625201D02*
D03*
X6007000Y2710801D02*
D03*
Y4895201D02*
D03*
X10833000Y1339201D02*
D03*
D71*
X1140000Y2600000D02*
D03*
Y3300000D02*
D03*
Y4000000D02*
D03*
X1579925Y9810127D02*
D03*
X9150000Y7360000D02*
D03*
X6750000Y7990000D02*
D03*
X4582746Y5272729D02*
D03*
X11340000Y5630000D02*
D03*
X4080000Y9320000D02*
D03*
X2990000Y4140000D02*
D03*
X10090000Y7240000D02*
D03*
X6946000Y10236000D02*
D03*
X3470000Y5980000D02*
D03*
X7730000Y6170000D02*
D03*
X213925Y6644127D02*
D03*
D72*
X5090000Y4970000D02*
D03*
X4836000Y4716000D02*
D03*
D73*
X5090000Y4462000D02*
D03*
D74*
X10398000Y858233D02*
D03*
X6806000Y8429000D02*
D03*
X7255999D02*
D03*
D75*
X10398000Y604233D02*
D03*
X10144000Y858233D02*
D03*
Y604233D02*
D03*
X9890000Y858233D02*
D03*
Y604233D02*
D03*
X9636000Y858233D02*
D03*
X9382000D02*
D03*
X9636000Y604233D02*
D03*
X9382000D02*
D03*
X6806000Y8683000D02*
D03*
X7255999D02*
D03*
X6445180Y5680420D02*
D03*
D76*
X3150000Y9850000D02*
D03*
X5051700D02*
D03*
D77*
X3150000Y11600000D02*
D03*
X5051700D02*
D03*
D78*
X1864000Y8804000D02*
D03*
D79*
Y8304000D02*
D03*
D82*
X6191180Y5680420D02*
D03*
D101*
X4160000Y8810000D02*
D03*
Y8110000D02*
D03*
X8560000Y5330000D02*
D03*
Y6030000D02*
D03*
D102*
X2046180Y6344358D02*
D03*
Y6471358D02*
D03*
Y6598358D02*
D03*
Y6725358D02*
D03*
X3303780Y6334358D02*
D03*
Y6461358D02*
D03*
Y6588358D02*
D03*
Y6715358D02*
D03*
D103*
X1463680Y6725358D02*
D03*
Y6598358D02*
D03*
Y6471358D02*
D03*
Y6344358D02*
D03*
X3886280Y6715358D02*
D03*
Y6588358D02*
D03*
Y6461358D02*
D03*
Y6334358D02*
D03*
D104*
X1691180Y6534858D02*
D03*
X3658780Y6524858D02*
D03*
D105*
X10165000Y8520000D02*
D03*
X10455000D02*
D03*
X10165000Y9510000D02*
D03*
X10455000D02*
D03*
D106*
X10172500Y8850000D02*
D03*
X10447500D02*
D03*
X8862949Y8441000D02*
D03*
X9137949D02*
D03*
X9897500Y8520000D02*
D03*
X9622500D02*
D03*
D107*
X5500000Y8883800D02*
D03*
Y8656200D02*
D03*
D108*
X6008800Y10689500D02*
D03*
Y10816500D02*
D03*
Y10943500D02*
D03*
Y11070500D02*
D03*
X6551200D02*
D03*
Y10943500D02*
D03*
Y10816500D02*
D03*
Y10689500D02*
D03*
D109*
X6165000Y8245000D02*
D03*
X6015000D02*
D03*
X5865000D02*
D03*
X5715000D02*
D03*
D110*
X5940000Y7635000D02*
D03*
D111*
X5095000Y8705000D02*
D03*
Y8800000D02*
D03*
Y8895000D02*
D03*
X4845000D02*
D03*
Y8800000D02*
D03*
Y8705000D02*
D03*
D112*
X2700000Y6450000D02*
D03*
D113*
X2844780Y6518580D02*
D03*
Y6472860D02*
D03*
Y6427140D02*
D03*
Y6381420D02*
D03*
X2555220D02*
D03*
Y6427140D02*
D03*
Y6472860D02*
D03*
Y6518580D02*
D03*
D114*
X9506000Y11564000D02*
D03*
X9760000Y10924000D02*
D03*
X10014000Y11564000D02*
D03*
D115*
X5132500Y7860000D02*
D03*
X4827500D02*
D03*
X10462500Y7530000D02*
D03*
X6082794Y6013204D02*
D03*
X5143128Y1328051D02*
D03*
X3543128D02*
D03*
X1947053D02*
D03*
X9912500Y9180000D02*
D03*
X9607500D02*
D03*
X10157500Y7530000D02*
D03*
X6387794Y6013204D02*
D03*
X5448128Y1328051D02*
D03*
X3848127D02*
D03*
X2252053D02*
D03*
D116*
X10864000Y7691500D02*
D03*
X10854000Y8291501D02*
D03*
X10844000Y7091500D02*
D03*
X7740000Y10853500D02*
D03*
X10854000Y6431500D02*
D03*
X2390000Y4012500D02*
D03*
X2390000Y2532500D02*
D03*
Y3002500D02*
D03*
X2390000Y3502500D02*
D03*
X7740000Y11158500D02*
D03*
X2390000Y3707500D02*
D03*
Y3197500D02*
D03*
X2390000Y2697500D02*
D03*
Y2227500D02*
D03*
X10854000Y6736500D02*
D03*
X10844000Y7396500D02*
D03*
X10864000Y7996500D02*
D03*
X10854000Y8596500D02*
D03*
D117*
X3645000Y5320000D02*
D03*
X1925000Y5340000D02*
D03*
X9625000Y9510000D02*
D03*
X9895000D02*
D03*
X10445000Y10170000D02*
D03*
X10175000D02*
D03*
X3375000Y5320000D02*
D03*
X1655000Y5340000D02*
D03*
X10445000Y8190000D02*
D03*
X10175000D02*
D03*
D118*
X2789980Y6714854D02*
D03*
X3069980D02*
D03*
D119*
X203925Y6214128D02*
D03*
Y5960128D02*
D03*
Y5706128D02*
D03*
Y5452128D02*
D03*
Y5198128D02*
D03*
D120*
X399925Y7870127D02*
D03*
X1509553Y462178D02*
D03*
X4870000Y3547732D02*
D03*
X4705628Y468051D02*
D03*
X3105628Y462151D02*
D03*
X3450000Y2600000D02*
D03*
D121*
X399925Y8340127D02*
D03*
Y8810127D02*
D03*
X1509553Y1402178D02*
D03*
Y932178D02*
D03*
X4870000Y3077732D02*
D03*
Y2607732D02*
D03*
X4705628Y1408051D02*
D03*
Y938051D02*
D03*
X3105628Y932151D02*
D03*
Y1402151D02*
D03*
X3450000Y3540000D02*
D03*
Y3070000D02*
D03*
D122*
X11313000Y2750000D02*
D03*
D123*
X11567000D02*
D03*
%TF.MD5,4a9735414d170c74d19a242899fb24ea*%
M02*
