%TF.GenerationSoftware,Altium Limited,Altium Designer,25.2.1 (25)*%
G04 Layer_Color=2752767*
%FSLAX45Y45*%
%MOMM*%
%TF.SameCoordinates,EF3F7739-EB0C-4DF3-8AA3-BEF7F1336093*%
%TF.FilePolarity,Positive*%
%TF.FileFunction,Drawing*%
%TF.Part,Single*%
G01*
G75*
%TA.AperFunction,NonConductor*%
%ADD142C,0.12700*%
%ADD143C,0.16933*%
%ADD144C,0.10160*%
D142*
X10782200Y2558401D02*
Y2660001D01*
X10883800D01*
Y2558401D01*
X10782200D01*
X10802520Y2578721D02*
Y2639681D01*
X10863480D01*
Y2578721D01*
X10802520D01*
X10782200Y2812401D02*
Y2914001D01*
X10883800D01*
Y2812401D01*
X10782200D01*
X10802520Y2832721D02*
Y2893681D01*
X10863480D01*
Y2832721D01*
X10802520D01*
X5956200Y1136001D02*
Y1237601D01*
X6057800D01*
Y1136001D01*
X5956200D01*
X5976520Y1156321D02*
Y1217281D01*
X6037480D01*
Y1156321D01*
X5976520D01*
X5956200Y374001D02*
Y475601D01*
X6057800D01*
Y374001D01*
X5956200D01*
X5976520Y394321D02*
Y455281D01*
X6037480D01*
Y394321D01*
X5976520D01*
X10782200Y3574401D02*
Y3676001D01*
X10883800D01*
Y3574401D01*
X10782200D01*
X10802520Y3594721D02*
Y3655681D01*
X10863480D01*
Y3594721D01*
X10802520D01*
X5956200Y628001D02*
Y729601D01*
X6057800D01*
Y628001D01*
X5956200D01*
X5976520Y648321D02*
Y709281D01*
X6037480D01*
Y648321D01*
X5976520D01*
X5956200Y882001D02*
Y983601D01*
X6057800D01*
Y882001D01*
X5956200D01*
X5976520Y902321D02*
Y963281D01*
X6037480D01*
Y902321D01*
X5976520D01*
X5956200Y1390001D02*
Y1491601D01*
X6057800D01*
Y1390001D01*
X5956200D01*
X5976520Y1410321D02*
Y1471281D01*
X6037480D01*
Y1410321D01*
X5976520D01*
X5956200Y1644001D02*
Y1745601D01*
X6057800D01*
Y1644001D01*
X5956200D01*
X5976520Y1664321D02*
Y1725281D01*
X6037480D01*
Y1664321D01*
X5976520D01*
X5956200Y1898001D02*
Y1999601D01*
X6057800D01*
Y1898001D01*
X5956200D01*
X5976520Y1918321D02*
Y1979281D01*
X6037480D01*
Y1918321D01*
X5976520D01*
X5956200Y2152001D02*
Y2253601D01*
X6057800D01*
Y2152001D01*
X5956200D01*
X5976520Y2172321D02*
Y2233281D01*
X6037480D01*
Y2172321D01*
X5976520D01*
X5956200Y2406001D02*
Y2507601D01*
X6057800D01*
Y2406001D01*
X5956200D01*
X5976520Y2426321D02*
Y2487281D01*
X6037480D01*
Y2426321D01*
X5976520D01*
X5956200Y3066401D02*
Y3168001D01*
X6057800D01*
Y3066401D01*
X5956200D01*
X5976520Y3086721D02*
Y3147681D01*
X6037480D01*
Y3086721D01*
X5976520D01*
X5956200Y2660001D02*
Y2761601D01*
X6057800D01*
Y2660001D01*
X5956200D01*
X5976520Y2680321D02*
Y2741281D01*
X6037480D01*
Y2680321D01*
X5976520D01*
X5956200Y3320401D02*
Y3422001D01*
X6057800D01*
Y3320401D01*
X5956200D01*
X5976520Y3340721D02*
Y3401681D01*
X6037480D01*
Y3340721D01*
X5976520D01*
X5956200Y3574401D02*
Y3676001D01*
X6057800D01*
Y3574401D01*
X5956200D01*
X5976520Y3594721D02*
Y3655681D01*
X6037480D01*
Y3594721D01*
X5976520D01*
X5956200Y3828401D02*
Y3930001D01*
X6057800D01*
Y3828401D01*
X5956200D01*
X5976520Y3848721D02*
Y3909681D01*
X6037480D01*
Y3848721D01*
X5976520D01*
X5956200Y4082401D02*
Y4184001D01*
X6057800D01*
Y4082401D01*
X5956200D01*
X5976520Y4102721D02*
Y4163681D01*
X6037480D01*
Y4102721D01*
X5976520D01*
X5956200Y4336401D02*
Y4438001D01*
X6057800D01*
Y4336401D01*
X5956200D01*
X5976520Y4356721D02*
Y4417681D01*
X6037480D01*
Y4356721D01*
X5976520D01*
X5956200Y4590401D02*
Y4692001D01*
X6057800D01*
Y4590401D01*
X5956200D01*
X5976520Y4610721D02*
Y4671681D01*
X6037480D01*
Y4610721D01*
X5976520D01*
X10782200Y4844401D02*
Y4946001D01*
X10883800D01*
Y4844401D01*
X10782200D01*
X10802520Y4864721D02*
Y4925681D01*
X10863480D01*
Y4864721D01*
X10802520D01*
X5956200Y4844401D02*
Y4946001D01*
X6057800D01*
Y4844401D01*
X5956200D01*
X5976520Y4864721D02*
Y4925681D01*
X6037480D01*
Y4864721D01*
X5976520D01*
X10782200Y4590401D02*
Y4692001D01*
X10883800D01*
Y4590401D01*
X10782200D01*
X10802520Y4610721D02*
Y4671681D01*
X10863480D01*
Y4610721D01*
X10802520D01*
X10782200Y4336401D02*
Y4438001D01*
X10883800D01*
Y4336401D01*
X10782200D01*
X10802520Y4356721D02*
Y4417681D01*
X10863480D01*
Y4356721D01*
X10802520D01*
X10782200Y4082401D02*
Y4184001D01*
X10883800D01*
Y4082401D01*
X10782200D01*
X10802520Y4102721D02*
Y4163681D01*
X10863480D01*
Y4102721D01*
X10802520D01*
X10782200Y3828401D02*
Y3930001D01*
X10883800D01*
Y3828401D01*
X10782200D01*
X10802520Y3848721D02*
Y3909681D01*
X10863480D01*
Y3848721D01*
X10802520D01*
X10782200Y3066401D02*
Y3168001D01*
X10883800D01*
Y3066401D01*
X10782200D01*
X10802520Y3086721D02*
Y3147681D01*
X10863480D01*
Y3086721D01*
X10802520D01*
X10782200Y2304401D02*
Y2406001D01*
X10883800D01*
Y2304401D01*
X10782200D01*
X10802520Y2324721D02*
Y2385681D01*
X10863480D01*
Y2324721D01*
X10802520D01*
X10782200Y2050401D02*
Y2152001D01*
X10883800D01*
Y2050401D01*
X10782200D01*
X10802520Y2070721D02*
Y2131681D01*
X10863480D01*
Y2070721D01*
X10802520D01*
X10782200Y1796401D02*
Y1898001D01*
X10883800D01*
Y1796401D01*
X10782200D01*
X10802520Y1816721D02*
Y1877681D01*
X10863480D01*
Y1816721D01*
X10802520D01*
X10782200Y1542401D02*
Y1644001D01*
X10883800D01*
Y1542401D01*
X10782200D01*
X10802520Y1562721D02*
Y1623681D01*
X10863480D01*
Y1562721D01*
X10802520D01*
X10782200Y1288401D02*
Y1390001D01*
X10883800D01*
Y1288401D01*
X10782200D01*
X10802520Y1308721D02*
Y1369681D01*
X10863480D01*
Y1308721D01*
X10802520D01*
X203925Y6163328D02*
X229325Y6188728D01*
X254725D01*
X229325Y6214128D01*
X254725Y6239528D01*
X229325D01*
X203925Y6264928D01*
X178525Y6239528D01*
X153125D01*
X178525Y6214128D01*
X153125Y6188728D01*
X178525D01*
X203925Y6163328D01*
Y6183648D02*
X219165Y6198888D01*
X234405D01*
X219165Y6214128D01*
X234405Y6229368D01*
X219165D01*
X203925Y6244608D01*
X188685Y6229368D01*
X173445D01*
X188685Y6214128D01*
X173445Y6198888D01*
X188685D01*
X203925Y6183648D01*
Y5909328D02*
X229325Y5934728D01*
X254725D01*
X229325Y5960128D01*
X254725Y5985528D01*
X229325D01*
X203925Y6010928D01*
X178525Y5985528D01*
X153125D01*
X178525Y5960128D01*
X153125Y5934728D01*
X178525D01*
X203925Y5909328D01*
Y5929648D02*
X219165Y5944888D01*
X234405D01*
X219165Y5960128D01*
X234405Y5975368D01*
X219165D01*
X203925Y5990608D01*
X188685Y5975368D01*
X173445D01*
X188685Y5960128D01*
X173445Y5944888D01*
X188685D01*
X203925Y5929648D01*
Y5655328D02*
X229325Y5680728D01*
X254725D01*
X229325Y5706128D01*
X254725Y5731528D01*
X229325D01*
X203925Y5756928D01*
X178525Y5731528D01*
X153125D01*
X178525Y5706128D01*
X153125Y5680728D01*
X178525D01*
X203925Y5655328D01*
Y5675648D02*
X219165Y5690888D01*
X234405D01*
X219165Y5706128D01*
X234405Y5721368D01*
X219165D01*
X203925Y5736608D01*
X188685Y5721368D01*
X173445D01*
X188685Y5706128D01*
X173445Y5690888D01*
X188685D01*
X203925Y5675648D01*
Y5401328D02*
X229325Y5426728D01*
X254725D01*
X229325Y5452128D01*
X254725Y5477528D01*
X229325D01*
X203925Y5502928D01*
X178525Y5477528D01*
X153125D01*
X178525Y5452128D01*
X153125Y5426728D01*
X178525D01*
X203925Y5401328D01*
Y5421648D02*
X219165Y5436888D01*
X234405D01*
X219165Y5452128D01*
X234405Y5467368D01*
X219165D01*
X203925Y5482608D01*
X188685Y5467368D01*
X173445D01*
X188685Y5452128D01*
X173445Y5436888D01*
X188685D01*
X203925Y5421648D01*
Y5147328D02*
X229325Y5172728D01*
X254725D01*
X229325Y5198128D01*
X254725Y5223528D01*
X229325D01*
X203925Y5248928D01*
X178525Y5223528D01*
X153125D01*
X178525Y5198128D01*
X153125Y5172728D01*
X178525D01*
X203925Y5147328D01*
Y5167648D02*
X219165Y5182888D01*
X234405D01*
X219165Y5198128D01*
X234405Y5213368D01*
X219165D01*
X203925Y5228608D01*
X188685Y5213368D01*
X173445D01*
X188685Y5198128D01*
X173445Y5182888D01*
X188685D01*
X203925Y5167648D01*
X349125Y7819327D02*
X374525Y7870127D01*
X349125Y7920927D01*
X399925Y7895527D01*
X450725Y7920927D01*
X425325Y7870127D01*
X450725Y7819327D01*
X399925Y7844727D01*
X349125Y7819327D01*
X369445Y7839647D02*
X384685Y7870127D01*
X369445Y7900607D01*
X399925Y7885367D01*
X430405Y7900607D01*
X415165Y7870127D01*
X430405Y7839647D01*
X399925Y7854887D01*
X369445Y7839647D01*
X349125Y8289327D02*
X374525Y8340127D01*
X349125Y8390927D01*
X399925Y8365527D01*
X450725Y8390927D01*
X425325Y8340127D01*
X450725Y8289327D01*
X399925Y8314727D01*
X349125Y8289327D01*
X369445Y8309647D02*
X384685Y8340127D01*
X369445Y8370607D01*
X399925Y8355367D01*
X430405Y8370607D01*
X415165Y8340127D01*
X430405Y8309647D01*
X399925Y8324887D01*
X369445Y8309647D01*
X349125Y8759327D02*
X374525Y8810127D01*
X349125Y8860927D01*
X399925Y8835527D01*
X450725Y8860927D01*
X425325Y8810127D01*
X450725Y8759327D01*
X399925Y8784727D01*
X349125Y8759327D01*
X369445Y8779647D02*
X384685Y8810127D01*
X369445Y8840607D01*
X399925Y8825367D01*
X430405Y8840607D01*
X415165Y8810127D01*
X430405Y8779647D01*
X399925Y8794887D01*
X369445Y8779647D01*
X1458753Y1351378D02*
X1484153Y1402178D01*
X1458753Y1452978D01*
X1509553Y1427578D01*
X1560353Y1452978D01*
X1534953Y1402178D01*
X1560353Y1351378D01*
X1509553Y1376778D01*
X1458753Y1351378D01*
X1479073Y1371698D02*
X1494313Y1402178D01*
X1479073Y1432658D01*
X1509553Y1417418D01*
X1540033Y1432658D01*
X1524793Y1402178D01*
X1540033Y1371698D01*
X1509553Y1386938D01*
X1479073Y1371698D01*
X1458753Y881378D02*
X1484153Y932178D01*
X1458753Y982978D01*
X1509553Y957578D01*
X1560353Y982978D01*
X1534953Y932178D01*
X1560353Y881378D01*
X1509553Y906778D01*
X1458753Y881378D01*
X1479073Y901698D02*
X1494313Y932178D01*
X1479073Y962658D01*
X1509553Y947418D01*
X1540033Y962658D01*
X1524793Y932178D01*
X1540033Y901698D01*
X1509553Y916938D01*
X1479073Y901698D01*
X1458753Y411378D02*
X1484153Y462178D01*
X1458753Y512978D01*
X1509553Y487578D01*
X1560353Y512978D01*
X1534953Y462178D01*
X1560353Y411378D01*
X1509553Y436778D01*
X1458753Y411378D01*
X1479073Y431698D02*
X1494313Y462178D01*
X1479073Y492658D01*
X1509553Y477418D01*
X1540033Y492658D01*
X1524793Y462178D01*
X1540033Y431698D01*
X1509553Y446938D01*
X1479073Y431698D01*
X4819200Y3496932D02*
X4844600Y3547732D01*
X4819200Y3598532D01*
X4870000Y3573132D01*
X4920800Y3598532D01*
X4895400Y3547732D01*
X4920800Y3496932D01*
X4870000Y3522332D01*
X4819200Y3496932D01*
X4839520Y3517252D02*
X4854760Y3547732D01*
X4839520Y3578212D01*
X4870000Y3562972D01*
X4900480Y3578212D01*
X4885240Y3547732D01*
X4900480Y3517252D01*
X4870000Y3532492D01*
X4839520Y3517252D01*
X4819200Y3026932D02*
X4844600Y3077732D01*
X4819200Y3128532D01*
X4870000Y3103132D01*
X4920800Y3128532D01*
X4895400Y3077732D01*
X4920800Y3026932D01*
X4870000Y3052332D01*
X4819200Y3026932D01*
X4839520Y3047252D02*
X4854760Y3077732D01*
X4839520Y3108212D01*
X4870000Y3092972D01*
X4900480Y3108212D01*
X4885240Y3077732D01*
X4900480Y3047252D01*
X4870000Y3062492D01*
X4839520Y3047252D01*
X4819200Y2556932D02*
X4844600Y2607732D01*
X4819200Y2658532D01*
X4870000Y2633132D01*
X4920800Y2658532D01*
X4895400Y2607732D01*
X4920800Y2556932D01*
X4870000Y2582332D01*
X4819200Y2556932D01*
X4839520Y2577252D02*
X4854760Y2607732D01*
X4839520Y2638212D01*
X4870000Y2622972D01*
X4900480Y2638212D01*
X4885240Y2607732D01*
X4900480Y2577252D01*
X4870000Y2592492D01*
X4839520Y2577252D01*
X4654828Y1357251D02*
X4680228Y1408051D01*
X4654828Y1458851D01*
X4705628Y1433451D01*
X4756428Y1458851D01*
X4731028Y1408051D01*
X4756428Y1357251D01*
X4705628Y1382651D01*
X4654828Y1357251D01*
X4675148Y1377571D02*
X4690388Y1408051D01*
X4675148Y1438531D01*
X4705628Y1423291D01*
X4736108Y1438531D01*
X4720868Y1408051D01*
X4736108Y1377571D01*
X4705628Y1392811D01*
X4675148Y1377571D01*
X4654828Y887251D02*
X4680228Y938051D01*
X4654828Y988851D01*
X4705628Y963451D01*
X4756428Y988851D01*
X4731028Y938051D01*
X4756428Y887251D01*
X4705628Y912651D01*
X4654828Y887251D01*
X4675148Y907571D02*
X4690388Y938051D01*
X4675148Y968531D01*
X4705628Y953291D01*
X4736108Y968531D01*
X4720868Y938051D01*
X4736108Y907571D01*
X4705628Y922811D01*
X4675148Y907571D01*
X4654828Y417251D02*
X4680228Y468051D01*
X4654828Y518851D01*
X4705628Y493451D01*
X4756428Y518851D01*
X4731028Y468051D01*
X4756428Y417251D01*
X4705628Y442651D01*
X4654828Y417251D01*
X4675148Y437571D02*
X4690388Y468051D01*
X4675148Y498531D01*
X4705628Y483291D01*
X4736108Y498531D01*
X4720868Y468051D01*
X4736108Y437571D01*
X4705628Y452811D01*
X4675148Y437571D01*
X3054828Y411351D02*
X3080228Y462151D01*
X3054828Y512951D01*
X3105628Y487551D01*
X3156428Y512951D01*
X3131028Y462151D01*
X3156428Y411351D01*
X3105628Y436751D01*
X3054828Y411351D01*
X3075148Y431671D02*
X3090388Y462151D01*
X3075148Y492631D01*
X3105628Y477391D01*
X3136108Y492631D01*
X3120868Y462151D01*
X3136108Y431671D01*
X3105628Y446911D01*
X3075148Y431671D01*
X3054828Y881351D02*
X3080228Y932151D01*
X3054828Y982951D01*
X3105628Y957551D01*
X3156428Y982951D01*
X3131028Y932151D01*
X3156428Y881351D01*
X3105628Y906751D01*
X3054828Y881351D01*
X3075148Y901671D02*
X3090388Y932151D01*
X3075148Y962631D01*
X3105628Y947391D01*
X3136108Y962631D01*
X3120868Y932151D01*
X3136108Y901671D01*
X3105628Y916911D01*
X3075148Y901671D01*
X3054828Y1351351D02*
X3080228Y1402151D01*
X3054828Y1452951D01*
X3105628Y1427551D01*
X3156428Y1452951D01*
X3131028Y1402151D01*
X3156428Y1351351D01*
X3105628Y1376751D01*
X3054828Y1351351D01*
X3075148Y1371671D02*
X3090388Y1402151D01*
X3075148Y1432631D01*
X3105628Y1417391D01*
X3136108Y1432631D01*
X3120868Y1402151D01*
X3136108Y1371671D01*
X3105628Y1386911D01*
X3075148Y1371671D01*
X3399200Y3489200D02*
X3424600Y3540000D01*
X3399200Y3590800D01*
X3450000Y3565400D01*
X3500800Y3590800D01*
X3475400Y3540000D01*
X3500800Y3489200D01*
X3450000Y3514600D01*
X3399200Y3489200D01*
X3419520Y3509520D02*
X3434760Y3540000D01*
X3419520Y3570480D01*
X3450000Y3555240D01*
X3480480Y3570480D01*
X3465240Y3540000D01*
X3480480Y3509520D01*
X3450000Y3524760D01*
X3419520Y3509520D01*
X3399200Y3019200D02*
X3424600Y3070000D01*
X3399200Y3120800D01*
X3450000Y3095400D01*
X3500800Y3120800D01*
X3475400Y3070000D01*
X3500800Y3019200D01*
X3450000Y3044600D01*
X3399200Y3019200D01*
X3419520Y3039520D02*
X3434760Y3070000D01*
X3419520Y3100480D01*
X3450000Y3085240D01*
X3480480Y3100480D01*
X3465240Y3070000D01*
X3480480Y3039520D01*
X3450000Y3054760D01*
X3419520Y3039520D01*
X3399200Y2549200D02*
X3424600Y2600000D01*
X3399200Y2650800D01*
X3450000Y2625400D01*
X3500800Y2650800D01*
X3475400Y2600000D01*
X3500800Y2549200D01*
X3450000Y2574600D01*
X3399200Y2549200D01*
X3419520Y2569520D02*
X3434760Y2600000D01*
X3419520Y2630480D01*
X3450000Y2615240D01*
X3480480Y2630480D01*
X3465240Y2600000D01*
X3480480Y2569520D01*
X3450000Y2584760D01*
X3419520Y2569520D01*
X5064600Y4944600D02*
Y4919200D01*
X5115400D01*
Y4944600D01*
X5140800D01*
Y4995400D01*
X5115400D01*
Y5020800D01*
X5064600D01*
Y4995400D01*
X5039200D01*
Y4944600D01*
X5064600D01*
X5074760Y4954760D02*
Y4939520D01*
X5105240D01*
Y4954760D01*
X5120480D01*
Y4985240D01*
X5105240D01*
Y5000480D01*
X5074760D01*
Y4985240D01*
X5059520D01*
Y4954760D01*
X5074760D01*
X4810600Y4690600D02*
Y4665200D01*
X4861400D01*
Y4690600D01*
X4886800D01*
Y4741400D01*
X4861400D01*
Y4766800D01*
X4810600D01*
Y4741400D01*
X4785200D01*
Y4690600D01*
X4810600D01*
X4820760Y4700760D02*
Y4685520D01*
X4851240D01*
Y4700760D01*
X4866480D01*
Y4731240D01*
X4851240D01*
Y4746480D01*
X4820760D01*
Y4731240D01*
X4805520D01*
Y4700760D01*
X4820760D01*
X5064600Y4436600D02*
Y4411200D01*
X5115400D01*
Y4436600D01*
X5140800D01*
Y4487400D01*
X5115400D01*
Y4512800D01*
X5064600D01*
Y4487400D01*
X5039200D01*
Y4436600D01*
X5064600D01*
X5074760Y4446760D02*
Y4431520D01*
X5105240D01*
Y4446760D01*
X5120480D01*
Y4477240D01*
X5105240D01*
Y4492480D01*
X5074760D01*
Y4477240D01*
X5059520D01*
Y4446760D01*
X5074760D01*
X10398000Y807433D02*
X10423400Y832833D01*
X10448800D01*
X10423400Y858233D01*
X10448800Y883633D01*
X10423400D01*
X10398000Y909033D01*
X10372600Y883633D01*
X10347200D01*
X10372600Y858233D01*
X10347200Y832833D01*
X10372600D01*
X10398000Y807433D01*
Y553433D02*
X10423400Y578833D01*
X10448800D01*
X10423400Y604233D01*
X10448800Y629633D01*
X10423400D01*
X10398000Y655033D01*
X10372600Y629633D01*
X10347200D01*
X10372600Y604233D01*
X10347200Y578833D01*
X10372600D01*
X10398000Y553433D01*
X10144000Y807433D02*
X10169400Y832833D01*
X10194800D01*
X10169400Y858233D01*
X10194800Y883633D01*
X10169400D01*
X10144000Y909033D01*
X10118600Y883633D01*
X10093200D01*
X10118600Y858233D01*
X10093200Y832833D01*
X10118600D01*
X10144000Y807433D01*
Y553433D02*
X10169400Y578833D01*
X10194800D01*
X10169400Y604233D01*
X10194800Y629633D01*
X10169400D01*
X10144000Y655033D01*
X10118600Y629633D01*
X10093200D01*
X10118600Y604233D01*
X10093200Y578833D01*
X10118600D01*
X10144000Y553433D01*
X9890000Y807433D02*
X9915400Y832833D01*
X9940800D01*
X9915400Y858233D01*
X9940800Y883633D01*
X9915400D01*
X9890000Y909033D01*
X9864600Y883633D01*
X9839200D01*
X9864600Y858233D01*
X9839200Y832833D01*
X9864600D01*
X9890000Y807433D01*
Y553433D02*
X9915400Y578833D01*
X9940800D01*
X9915400Y604233D01*
X9940800Y629633D01*
X9915400D01*
X9890000Y655033D01*
X9864600Y629633D01*
X9839200D01*
X9864600Y604233D01*
X9839200Y578833D01*
X9864600D01*
X9890000Y553433D01*
X9636000Y807433D02*
X9661400Y832833D01*
X9686800D01*
X9661400Y858233D01*
X9686800Y883633D01*
X9661400D01*
X9636000Y909033D01*
X9610600Y883633D01*
X9585200D01*
X9610600Y858233D01*
X9585200Y832833D01*
X9610600D01*
X9636000Y807433D01*
X9382000D02*
X9407400Y832833D01*
X9432800D01*
X9407400Y858233D01*
X9432800Y883633D01*
X9407400D01*
X9382000Y909033D01*
X9356600Y883633D01*
X9331200D01*
X9356600Y858233D01*
X9331200Y832833D01*
X9356600D01*
X9382000Y807433D01*
X9636000Y553433D02*
X9661400Y578833D01*
X9686800D01*
X9661400Y604233D01*
X9686800Y629633D01*
X9661400D01*
X9636000Y655033D01*
X9610600Y629633D01*
X9585200D01*
X9610600Y604233D01*
X9585200Y578833D01*
X9610600D01*
X9636000Y553433D01*
X9382000D02*
X9407400Y578833D01*
X9432800D01*
X9407400Y604233D01*
X9432800Y629633D01*
X9407400D01*
X9382000Y655033D01*
X9356600Y629633D01*
X9331200D01*
X9356600Y604233D01*
X9331200Y578833D01*
X9356600D01*
X9382000Y553433D01*
X3099200Y9850000D02*
X3150000Y9900800D01*
X3200800Y9850000D01*
X3150000Y9799200D01*
X3099200Y9850000D01*
Y11600000D02*
X3150000Y11650800D01*
X3200800Y11600000D01*
X3150000Y11549200D01*
X3099200Y11600000D01*
X1838600Y8778600D02*
Y8753200D01*
X1889400D01*
Y8778600D01*
X1914800D01*
Y8829400D01*
X1889400D01*
Y8854800D01*
X1838600D01*
Y8829400D01*
X1813200D01*
Y8778600D01*
X1838600D01*
Y8278600D02*
Y8253200D01*
X1889400D01*
Y8278600D01*
X1914800D01*
Y8329400D01*
X1889400D01*
Y8354800D01*
X1838600D01*
Y8329400D01*
X1813200D01*
Y8278600D01*
X1838600D01*
X5000900Y9850000D02*
X5051700Y9900800D01*
X5102500Y9850000D01*
X5051700Y9799200D01*
X5000900Y9850000D01*
Y11600000D02*
X5051700Y11650800D01*
X5102500Y11600000D01*
X5051700Y11549200D01*
X5000900Y11600000D01*
X489200Y399200D02*
X514600D01*
X540000Y424600D01*
X565400Y399200D01*
X590800D01*
Y424600D01*
X565400Y450000D01*
X590800Y475400D01*
Y500800D01*
X565400D01*
X540000Y475400D01*
X514600Y500800D01*
X489200D01*
Y475400D01*
X514600Y450000D01*
X489200Y424600D01*
Y399200D01*
X11313000Y2699200D02*
X11262200Y2800800D01*
X11363800D01*
X11313000Y2699200D01*
X11567000D02*
X11516200Y2800800D01*
X11617800D01*
X11567000Y2699200D01*
X6806000Y8378200D02*
X6755200Y8479800D01*
X6856800D01*
X6806000Y8378200D01*
Y8632200D02*
X6755200Y8733800D01*
X6856800D01*
X6806000Y8632200D01*
X7255999Y8378200D02*
X7205199Y8479800D01*
X7306799D01*
X7255999Y8378200D01*
Y8632200D02*
X7205199Y8733800D01*
X7306799D01*
X7255999Y8632200D01*
X6445180Y5629620D02*
X6394380Y5731220D01*
X6495980D01*
X6445180Y5629620D01*
X6191180D02*
X6140380Y5731220D01*
X6241980D01*
X6191180Y5629620D01*
X11729200Y11409200D02*
X11754600D01*
X11780000Y11434600D01*
X11805400Y11409200D01*
X11830800D01*
Y11434600D01*
X11805400Y11460000D01*
X11830800Y11485400D01*
Y11510800D01*
X11805400D01*
X11780000Y11485400D01*
X11754600Y11510800D01*
X11729200D01*
Y11485400D01*
X11754600Y11460000D01*
X11729200Y11434600D01*
Y11409200D01*
X11689200Y289200D02*
X11714600D01*
X11740000Y314600D01*
X11765400Y289200D01*
X11790800D01*
Y314600D01*
X11765400Y340000D01*
X11790800Y365400D01*
Y390800D01*
X11765400D01*
X11740000Y365400D01*
X11714600Y390800D01*
X11689200D01*
Y365400D01*
X11714600Y340000D01*
X11689200Y314600D01*
Y289200D01*
X239200Y11409200D02*
X264600D01*
X290000Y11434600D01*
X315400Y11409200D01*
X340800D01*
Y11434600D01*
X315400Y11460000D01*
X340800Y11485400D01*
Y11510800D01*
X315400D01*
X290000Y11485400D01*
X264600Y11510800D01*
X239200D01*
Y11485400D01*
X264600Y11460000D01*
X239200Y11434600D01*
Y11409200D01*
D143*
X1190800Y2600000D02*
G03*
X1190800Y2600000I-50800J0D01*
G01*
Y3300000D02*
G03*
X1190800Y3300000I-50800J0D01*
G01*
Y4000000D02*
G03*
X1190800Y4000000I-50800J0D01*
G01*
X1630725Y9810127D02*
G03*
X1630725Y9810127I-50800J0D01*
G01*
X9200800Y7360000D02*
G03*
X9200800Y7360000I-50800J0D01*
G01*
X6800800Y7990000D02*
G03*
X6800800Y7990000I-50800J0D01*
G01*
X4633546Y5272729D02*
G03*
X4633546Y5272729I-50800J0D01*
G01*
X11390800Y5630000D02*
G03*
X11390800Y5630000I-50800J0D01*
G01*
X4130800Y9320000D02*
G03*
X4130800Y9320000I-50800J0D01*
G01*
X3040800Y4140000D02*
G03*
X3040800Y4140000I-50800J0D01*
G01*
X10140800Y7240000D02*
G03*
X10140800Y7240000I-50800J0D01*
G01*
X6996800Y10236000D02*
G03*
X6996800Y10236000I-50800J0D01*
G01*
X3520800Y5980000D02*
G03*
X3520800Y5980000I-50800J0D01*
G01*
X7780800Y6170000D02*
G03*
X7780800Y6170000I-50800J0D01*
G01*
X264725Y6644127D02*
G03*
X264725Y6644127I-50800J0D01*
G01*
X9820800Y9170000D02*
G03*
X9820800Y9170000I-50800J0D01*
G01*
X3980800Y11100000D02*
G03*
X3980800Y11100000I-50800J0D01*
G01*
X3990800Y10860000D02*
G03*
X3990800Y10860000I-50800J0D01*
G01*
X3040800Y7000000D02*
G03*
X3040800Y7000000I-50800J0D01*
G01*
X3130800Y6610000D02*
G03*
X3130800Y6610000I-50800J0D01*
G01*
X3600800Y7480000D02*
G03*
X3600800Y7480000I-50800J0D01*
G01*
X5649380Y7640000D02*
G03*
X5649380Y7640000I-50800J0D01*
G01*
X2960780Y6730000D02*
G03*
X2960780Y6730000I-50800J0D01*
G01*
X7970800Y11170000D02*
G03*
X7970800Y11170000I-50800J0D01*
G01*
X5940800Y10570000D02*
G03*
X5940800Y10570000I-50800J0D01*
G01*
X5640800Y10590000D02*
G03*
X5640800Y10590000I-50800J0D01*
G01*
X2700800Y11010000D02*
G03*
X2700800Y11010000I-50800J0D01*
G01*
X4530800Y11130000D02*
G03*
X4530800Y11130000I-50800J0D01*
G01*
X2262493Y11320000D02*
G03*
X2262493Y11320000I-50800J0D01*
G01*
X2010800Y11320000D02*
G03*
X2010800Y11320000I-50800J0D01*
G01*
X1894014Y11151047D02*
G03*
X1894014Y11151047I-50800J0D01*
G01*
X6160800Y8500000D02*
G03*
X6160800Y8500000I-50800J0D01*
G01*
X4510800Y8900000D02*
G03*
X4510800Y8900000I-50800J0D01*
G01*
X4280800Y8650000D02*
G03*
X4280800Y8650000I-50800J0D01*
G01*
X4140800Y8640000D02*
G03*
X4140800Y8640000I-50800J0D01*
G01*
X4668376Y8860000D02*
G03*
X4668376Y8860000I-50800J0D01*
G01*
X4480800Y8750000D02*
G03*
X4480800Y8750000I-50800J0D01*
G01*
X5140800Y9070000D02*
G03*
X5140800Y9070000I-50800J0D01*
G01*
X5080800Y8500000D02*
G03*
X5080800Y8500000I-50800J0D01*
G01*
X5308748Y8535642D02*
G03*
X5308748Y8535642I-50800J0D01*
G01*
X5384731Y8293575D02*
G03*
X5384731Y8293575I-50800J0D01*
G01*
X5660800Y8160000D02*
G03*
X5660800Y8160000I-50800J0D01*
G01*
X5840800Y8400000D02*
G03*
X5840800Y8400000I-50800J0D01*
G01*
X5920800Y8090000D02*
G03*
X5920800Y8090000I-50800J0D01*
G01*
X5760800D02*
G03*
X5760800Y8090000I-50800J0D01*
G01*
X6420800Y8500000D02*
G03*
X6420800Y8500000I-50800J0D01*
G01*
X5580800Y7890000D02*
G03*
X5580800Y7890000I-50800J0D01*
G01*
X6110800Y6370000D02*
G03*
X6110800Y6370000I-50800J0D01*
G01*
X6890800Y6510000D02*
G03*
X6890800Y6510000I-50800J0D01*
G01*
X6866083Y6767575D02*
G03*
X6866083Y6767575I-50800J0D01*
G01*
X6975800Y6280000D02*
G03*
X6975800Y6280000I-50800J0D01*
G01*
X6144363Y6558384D02*
G03*
X6144363Y6558384I-50800J0D01*
G01*
X11460800Y2390000D02*
G03*
X11460800Y2390000I-50800J0D01*
G01*
X5610800Y480000D02*
G03*
X5610800Y480000I-50800J0D01*
G01*
X2160800Y3920000D02*
G03*
X2160800Y3920000I-50800J0D01*
G01*
X2170800Y1680000D02*
G03*
X2170800Y1680000I-50800J0D01*
G01*
X2970800Y5270000D02*
G03*
X2970800Y5270000I-50800J0D01*
G01*
X4890800Y8580000D02*
G03*
X4890800Y8580000I-50800J0D01*
G01*
X4730800Y8500000D02*
G03*
X4730800Y8500000I-50800J0D01*
G01*
X2380800Y6262359D02*
G03*
X2380800Y6262359I-50800J0D01*
G01*
X1270800Y6670000D02*
G03*
X1270800Y6670000I-50800J0D01*
G01*
X1390800Y6340000D02*
G03*
X1390800Y6340000I-50800J0D01*
G01*
Y6550000D02*
G03*
X1390800Y6550000I-50800J0D01*
G01*
X1910800Y5880000D02*
G03*
X1910800Y5880000I-50800J0D01*
G01*
X1260800Y6030000D02*
G03*
X1260800Y6030000I-50800J0D01*
G01*
X1430800Y7080000D02*
G03*
X1430800Y7080000I-50800J0D01*
G01*
X2019787Y10219268D02*
G03*
X2019787Y10219268I-50800J0D01*
G01*
X2138594Y10119718D02*
G03*
X2138594Y10119718I-50800J0D01*
G01*
X2280800Y10420000D02*
G03*
X2280800Y10420000I-50800J0D01*
G01*
X2370800Y10370000D02*
G03*
X2370800Y10370000I-50800J0D01*
G01*
X2630800Y10170000D02*
G03*
X2630800Y10170000I-50800J0D01*
G01*
X2510800Y11030000D02*
G03*
X2510800Y11030000I-50800J0D01*
G01*
X660800Y10460000D02*
G03*
X660800Y10460000I-50800J0D01*
G01*
X1070800Y10830000D02*
G03*
X1070800Y10830000I-50800J0D01*
G01*
X8490800Y5740000D02*
G03*
X8490800Y5740000I-50800J0D01*
G01*
X7640800Y8430000D02*
G03*
X7640800Y8430000I-50800J0D01*
G01*
X8870800Y8260000D02*
G03*
X8870800Y8260000I-50800J0D01*
G01*
X9240800Y8630000D02*
G03*
X9240800Y8630000I-50800J0D01*
G01*
X10940800Y9150000D02*
G03*
X10940800Y9150000I-50800J0D01*
G01*
X10670800Y9480000D02*
G03*
X10670800Y9480000I-50800J0D01*
G01*
X11430800Y8230000D02*
G03*
X11430800Y8230000I-50800J0D01*
G01*
X11580800Y9610000D02*
G03*
X11580800Y9610000I-50800J0D01*
G01*
Y9010000D02*
G03*
X11580800Y9010000I-50800J0D01*
G01*
X11700800Y8960000D02*
G03*
X11700800Y8960000I-50800J0D01*
G01*
X11450800Y9720000D02*
G03*
X11450800Y9720000I-50800J0D01*
G01*
X11750800Y9710000D02*
G03*
X11750800Y9710000I-50800J0D01*
G01*
X11840800Y9560000D02*
G03*
X11840800Y9560000I-50800J0D01*
G01*
X11210800Y9500000D02*
G03*
X11210800Y9500000I-50800J0D01*
G01*
X11410800D02*
G03*
X11410800Y9500000I-50800J0D01*
G01*
X10897767Y9513033D02*
G03*
X10897767Y9513033I-50800J0D01*
G01*
X11200800Y9800000D02*
G03*
X11200800Y9800000I-50800J0D01*
G01*
X11069099Y9780000D02*
G03*
X11069099Y9780000I-50800J0D01*
G01*
X10930800Y9870000D02*
G03*
X10930800Y9870000I-50800J0D01*
G01*
X10779242Y9619887D02*
G03*
X10779242Y9619887I-50800J0D01*
G01*
X11870800Y10490000D02*
G03*
X11870800Y10490000I-50800J0D01*
G01*
X11522495Y11384636D02*
G03*
X11522495Y11384636I-50800J0D01*
G01*
X11530800Y11290000D02*
G03*
X11530800Y11290000I-50800J0D01*
G01*
X10590800Y11010000D02*
G03*
X10590800Y11010000I-50800J0D01*
G01*
Y10770000D02*
G03*
X10590800Y10770000I-50800J0D01*
G01*
X9810800Y10700000D02*
G03*
X9810800Y10700000I-50800J0D01*
G01*
X8800800Y11300000D02*
G03*
X8800800Y11300000I-50800J0D01*
G01*
X8490800Y11100000D02*
G03*
X8490800Y11100000I-50800J0D01*
G01*
X9080800Y9800000D02*
G03*
X9080800Y9800000I-50800J0D01*
G01*
X8820800Y10290000D02*
G03*
X8820800Y10290000I-50800J0D01*
G01*
X8350800Y10100000D02*
G03*
X8350800Y10100000I-50800J0D01*
G01*
X8320800Y9800000D02*
G03*
X8320800Y9800000I-50800J0D01*
G01*
X10120800Y10160000D02*
G03*
X10120800Y10160000I-50800J0D01*
G01*
X10330800Y9830000D02*
G03*
X10330800Y9830000I-50800J0D01*
G01*
X10380800Y9500000D02*
G03*
X10380800Y9500000I-50800J0D01*
G01*
X10220800Y9020000D02*
G03*
X10220800Y9020000I-50800J0D01*
G01*
X10510800Y9000000D02*
G03*
X10510800Y9000000I-50800J0D01*
G01*
X10100800Y8850000D02*
G03*
X10100800Y8850000I-50800J0D01*
G01*
X10090800Y8520000D02*
G03*
X10090800Y8520000I-50800J0D01*
G01*
X10640800Y7850000D02*
G03*
X10640800Y7850000I-50800J0D01*
G01*
X11460800Y7650000D02*
G03*
X11460800Y7650000I-50800J0D01*
G01*
Y7010000D02*
G03*
X11460800Y7010000I-50800J0D01*
G01*
X11480800Y6350000D02*
G03*
X11480800Y6350000I-50800J0D01*
G01*
X7060800Y7340000D02*
G03*
X7060800Y7340000I-50800J0D01*
G01*
X8530800Y6940000D02*
G03*
X8530800Y6940000I-50800J0D01*
G01*
X8420800Y6840000D02*
G03*
X8420800Y6840000I-50800J0D01*
G01*
X7940800Y6690000D02*
G03*
X7940800Y6690000I-50800J0D01*
G01*
X4070800Y6430000D02*
G03*
X4070800Y6430000I-50800J0D01*
G01*
X4090800Y6720000D02*
G03*
X4090800Y6720000I-50800J0D01*
G01*
X3720800Y6800000D02*
G03*
X3720800Y6800000I-50800J0D01*
G01*
X3880800Y6810000D02*
G03*
X3880800Y6810000I-50800J0D01*
G01*
X2910800Y6280000D02*
G03*
X2910800Y6280000I-50800J0D01*
G01*
X3000800Y6360000D02*
G03*
X3000800Y6360000I-50800J0D01*
G01*
X2010800Y6540000D02*
G03*
X2010800Y6540000I-50800J0D01*
G01*
X2210800Y6630000D02*
G03*
X2210800Y6630000I-50800J0D01*
G01*
X4110800Y5080000D02*
G03*
X4110800Y5080000I-50800J0D01*
G01*
X3510800D02*
G03*
X3510800Y5080000I-50800J0D01*
G01*
X2979725Y4690557D02*
G03*
X2979725Y4690557I-50800J0D01*
G01*
X1290800Y4660000D02*
G03*
X1290800Y4660000I-50800J0D01*
G01*
X1150800Y5110000D02*
G03*
X1150800Y5110000I-50800J0D01*
G01*
X2390800Y5080000D02*
G03*
X2390800Y5080000I-50800J0D01*
G01*
X1780800Y5090000D02*
G03*
X1780800Y5090000I-50800J0D01*
G01*
X5260800Y2900000D02*
G03*
X5260800Y2900000I-50800J0D01*
G01*
X5530800Y2720000D02*
G03*
X5530800Y2720000I-50800J0D01*
G01*
X5670800Y2430000D02*
G03*
X5670800Y2430000I-50800J0D01*
G01*
X5580800Y2590000D02*
G03*
X5580800Y2590000I-50800J0D01*
G01*
X5610800Y1060000D02*
G03*
X5610800Y1060000I-50800J0D01*
G01*
X3860800Y1120000D02*
G03*
X3860800Y1120000I-50800J0D01*
G01*
X5830800Y900000D02*
G03*
X5830800Y900000I-50800J0D01*
G01*
Y770000D02*
G03*
X5830800Y770000I-50800J0D01*
G01*
Y640000D02*
G03*
X5830800Y640000I-50800J0D01*
G01*
X4200800Y890000D02*
G03*
X4200800Y890000I-50800J0D01*
G01*
Y630000D02*
G03*
X4200800Y630000I-50800J0D01*
G01*
Y760000D02*
G03*
X4200800Y760000I-50800J0D01*
G01*
X3990800Y470000D02*
G03*
X3990800Y470000I-50800J0D01*
G01*
X2607260Y874776D02*
G03*
X2607260Y874776I-50800J0D01*
G01*
X2390800Y470000D02*
G03*
X2390800Y470000I-50800J0D01*
G01*
X2610800Y620000D02*
G03*
X2610800Y620000I-50800J0D01*
G01*
Y750000D02*
G03*
X2610800Y750000I-50800J0D01*
G01*
X2270800Y1130000D02*
G03*
X2270800Y1130000I-50800J0D01*
G01*
X7780800Y6750000D02*
G03*
X7780800Y6750000I-50800J0D01*
G01*
X2210800Y6500000D02*
G03*
X2210800Y6500000I-50800J0D01*
G01*
X2370800Y6540000D02*
G03*
X2370800Y6540000I-50800J0D01*
G01*
X10640800Y1300000D02*
G03*
X10640800Y1300000I-50800J0D01*
G01*
X5370800Y3860000D02*
G03*
X5370800Y3860000I-50800J0D01*
G01*
X5660800Y5670000D02*
G03*
X5660800Y5670000I-50800J0D01*
G01*
X5680800Y4010000D02*
G03*
X5680800Y4010000I-50800J0D01*
G01*
X11810800Y7950000D02*
G03*
X11810800Y7950000I-50800J0D01*
G01*
X11876916Y10078890D02*
G03*
X11876916Y10078890I-50800J0D01*
G01*
X11634335Y10043536D02*
G03*
X11634335Y10043536I-50800J0D01*
G01*
X11630800Y10520000D02*
G03*
X11630800Y10520000I-50800J0D01*
G01*
X10080800Y9990000D02*
G03*
X10080800Y9990000I-50800J0D01*
G01*
X7980800Y4850000D02*
G03*
X7980800Y4850000I-50800J0D01*
G01*
X11259537Y10259500D02*
G03*
X11259537Y10259500I-50800J0D01*
G01*
X5460800Y7340000D02*
G03*
X5460800Y7340000I-50800J0D01*
G01*
X11420800Y8702300D02*
G03*
X11420800Y8702300I-50800J0D01*
G01*
X11280800Y8775000D02*
G03*
X11280800Y8775000I-50800J0D01*
G01*
X10960800Y8825434D02*
G03*
X10960800Y8825434I-50800J0D01*
G01*
X12020800Y8540000D02*
G03*
X12020800Y8540000I-50800J0D01*
G01*
X11680800Y6830000D02*
G03*
X11680800Y6830000I-50800J0D01*
G01*
X11355817Y10304509D02*
G03*
X11355817Y10304509I-50800J0D01*
G01*
X11100800Y9150000D02*
G03*
X11100800Y9150000I-50800J0D01*
G01*
X10869800Y11137929D02*
G03*
X10869800Y11137929I-50800J0D01*
G01*
X5190800Y10160000D02*
G03*
X5190800Y10160000I-50800J0D01*
G01*
X1250800Y11250000D02*
G03*
X1250800Y11250000I-50800J0D01*
G01*
X1560800Y11360000D02*
G03*
X1560800Y11360000I-50800J0D01*
G01*
X6650800Y7430000D02*
G03*
X6650800Y7430000I-50800J0D01*
G01*
X6860800Y7490000D02*
G03*
X6860800Y7490000I-50800J0D01*
G01*
X6410800Y4920000D02*
G03*
X6410800Y4920000I-50800J0D01*
G01*
Y3840000D02*
G03*
X6410800Y3840000I-50800J0D01*
G01*
X5950800Y2870000D02*
G03*
X5950800Y2870000I-50800J0D01*
G01*
X5690800Y2840000D02*
G03*
X5690800Y2840000I-50800J0D01*
G01*
X5506187Y3471219D02*
G03*
X5506187Y3471219I-50800J0D01*
G01*
X5633711Y2920000D02*
G03*
X5633711Y2920000I-50800J0D01*
G01*
X6040800Y2950000D02*
G03*
X6040800Y2950000I-50800J0D01*
G01*
X2470800Y5870000D02*
G03*
X2470800Y5870000I-50800J0D01*
G01*
X2480800Y5210000D02*
G03*
X2480800Y5210000I-50800J0D01*
G01*
X2570800Y5770000D02*
G03*
X2570800Y5770000I-50800J0D01*
G01*
X2370800Y5750000D02*
G03*
X2370800Y5750000I-50800J0D01*
G01*
X2570800Y5280000D02*
G03*
X2570800Y5280000I-50800J0D01*
G01*
X2370916Y5287971D02*
G03*
X2370916Y5287971I-50800J0D01*
G01*
X10060800Y6371842D02*
G03*
X10060800Y6371842I-50800J0D01*
G01*
X6900800Y11160000D02*
G03*
X6900800Y11160000I-50800J0D01*
G01*
X8620800Y5800000D02*
G03*
X8620800Y5800000I-50800J0D01*
G01*
X9270800Y5510000D02*
G03*
X9270800Y5510000I-50800J0D01*
G01*
X2680800Y10320000D02*
G03*
X2680800Y10320000I-50800J0D01*
G01*
X6660800Y5020000D02*
G03*
X6660800Y5020000I-50800J0D01*
G01*
Y5500000D02*
G03*
X6660800Y5500000I-50800J0D01*
G01*
X6560800Y7330000D02*
G03*
X6560800Y7330000I-50800J0D01*
G01*
X5365800Y6273587D02*
G03*
X5365800Y6273587I-50800J0D01*
G01*
X5340800Y9350000D02*
G03*
X5340800Y9350000I-50800J0D01*
G01*
X5347681Y9474082D02*
G03*
X5347681Y9474082I-50800J0D01*
G01*
X5280800Y9270000D02*
G03*
X5280800Y9270000I-50800J0D01*
G01*
X5210800Y9500000D02*
G03*
X5210800Y9500000I-50800J0D01*
G01*
X5170800Y9330000D02*
G03*
X5170800Y9330000I-50800J0D01*
G01*
X5110800Y9430000D02*
G03*
X5110800Y9430000I-50800J0D01*
G01*
X6810800Y9760000D02*
G03*
X6810800Y9760000I-50800J0D01*
G01*
X11120800Y10600000D02*
G03*
X11120800Y10600000I-50800J0D01*
G01*
X10948537Y10362962D02*
G03*
X10948537Y10362962I-50800J0D01*
G01*
X11520265Y8629037D02*
G03*
X11520265Y8629037I-50800J0D01*
G01*
X7630800Y7460000D02*
G03*
X7630800Y7460000I-50800J0D01*
G01*
X2430800Y7050000D02*
G03*
X2430800Y7050000I-50800J0D01*
G01*
X2510800Y6880000D02*
G03*
X2510800Y6880000I-50800J0D01*
G01*
X2310800Y6940000D02*
G03*
X2310800Y6940000I-50800J0D01*
G01*
X1600800Y7490000D02*
G03*
X1600800Y7490000I-50800J0D01*
G01*
X1660800Y7360000D02*
G03*
X1660800Y7360000I-50800J0D01*
G01*
X1400800Y7370000D02*
G03*
X1400800Y7370000I-50800J0D01*
G01*
X1553296Y7244324D02*
G03*
X1553296Y7244324I-50800J0D01*
G01*
X420800Y3610000D02*
G03*
X420800Y3610000I-50800J0D01*
G01*
X9270800Y3880000D02*
G03*
X9270800Y3880000I-50800J0D01*
G01*
X5290902Y1520000D02*
G03*
X5290902Y1520000I-50800J0D01*
G01*
X5150800Y2480000D02*
G03*
X5150800Y2480000I-50800J0D01*
G01*
Y2280000D02*
G03*
X5150800Y2280000I-50800J0D01*
G01*
X5670800Y1940000D02*
G03*
X5670800Y1940000I-50800J0D01*
G01*
X2980800Y4390000D02*
G03*
X2980800Y4390000I-50800J0D01*
G01*
X9020800Y10760000D02*
G03*
X9020800Y10760000I-50800J0D01*
G01*
X11200800Y9210000D02*
G03*
X11200800Y9210000I-50800J0D01*
G01*
X2014001Y10907541D02*
G03*
X2014001Y10907541I-50800J0D01*
G01*
X3000725Y10450127D02*
G03*
X3000725Y10450127I-50800J0D01*
G01*
X2700800Y9250000D02*
G03*
X2700800Y9250000I-50800J0D01*
G01*
X8470800Y5860000D02*
G03*
X8470800Y5860000I-50800J0D01*
G01*
X9880800Y9990000D02*
G03*
X9880800Y9990000I-50800J0D01*
G01*
X5790800Y5420000D02*
G03*
X5790800Y5420000I-50800J0D01*
G01*
Y5600000D02*
G03*
X5790800Y5600000I-50800J0D01*
G01*
X11424246Y10633087D02*
G03*
X11424246Y10633087I-50800J0D01*
G01*
X11330800Y10068866D02*
G03*
X11330800Y10068866I-50800J0D01*
G01*
X11100800Y8220000D02*
G03*
X11100800Y8220000I-50800J0D01*
G01*
X9240800Y9700000D02*
G03*
X9240800Y9700000I-50800J0D01*
G01*
X10680800Y9110000D02*
G03*
X10680800Y9110000I-50800J0D01*
G01*
X10710800Y10130000D02*
G03*
X10710800Y10130000I-50800J0D01*
G01*
X11730800Y11030000D02*
G03*
X11730800Y11030000I-50800J0D01*
G01*
X2290725Y8671294D02*
G03*
X2290725Y8671294I-50800J0D01*
G01*
X2490800Y6490000D02*
G03*
X2490800Y6490000I-50800J0D01*
G01*
X11864800Y7304000D02*
G03*
X11864800Y7304000I-50800J0D01*
G01*
X11754800Y10374000D02*
G03*
X11754800Y10374000I-50800J0D01*
G01*
X2891303Y10395127D02*
G03*
X2891303Y10395127I-50800J0D01*
G01*
X2510721Y10590105D02*
G03*
X2510721Y10590105I-50800J0D01*
G01*
X4490725Y10890127D02*
G03*
X4490725Y10890127I-50800J0D01*
G01*
X4510800Y11340000D02*
G03*
X4510800Y11340000I-50800J0D01*
G01*
X2460800Y9860000D02*
G03*
X2460800Y9860000I-50800J0D01*
G01*
X2964000Y9687836D02*
G03*
X2964000Y9687836I-50800J0D01*
G01*
X2285800Y10975000D02*
G03*
X2285800Y10975000I-50800J0D01*
G01*
X2850800Y11330000D02*
G03*
X2850800Y11330000I-50800J0D01*
G01*
X2230800Y11150000D02*
G03*
X2230800Y11150000I-50800J0D01*
G01*
X2960800Y11540000D02*
G03*
X2960800Y11540000I-50800J0D01*
G01*
D144*
X9800480Y9170000D02*
G03*
X9800480Y9170000I-30480J0D01*
G01*
X3960480Y11100000D02*
G03*
X3960480Y11100000I-30480J0D01*
G01*
X3970480Y10860000D02*
G03*
X3970480Y10860000I-30480J0D01*
G01*
X3020480Y7000000D02*
G03*
X3020480Y7000000I-30480J0D01*
G01*
X3110480Y6610000D02*
G03*
X3110480Y6610000I-30480J0D01*
G01*
X3580480Y7480000D02*
G03*
X3580480Y7480000I-30480J0D01*
G01*
X5629060Y7640000D02*
G03*
X5629060Y7640000I-30480J0D01*
G01*
X2940460Y6730000D02*
G03*
X2940460Y6730000I-30480J0D01*
G01*
X7950480Y11170000D02*
G03*
X7950480Y11170000I-30480J0D01*
G01*
X5920480Y10570000D02*
G03*
X5920480Y10570000I-30480J0D01*
G01*
X5620480Y10590000D02*
G03*
X5620480Y10590000I-30480J0D01*
G01*
X2680480Y11010000D02*
G03*
X2680480Y11010000I-30480J0D01*
G01*
X4510480Y11130000D02*
G03*
X4510480Y11130000I-30480J0D01*
G01*
X2242173Y11320000D02*
G03*
X2242173Y11320000I-30480J0D01*
G01*
X1990480Y11320000D02*
G03*
X1990480Y11320000I-30480J0D01*
G01*
X1873694Y11151047D02*
G03*
X1873694Y11151047I-30480J0D01*
G01*
X6140480Y8500000D02*
G03*
X6140480Y8500000I-30480J0D01*
G01*
X4490480Y8900000D02*
G03*
X4490480Y8900000I-30480J0D01*
G01*
X4260480Y8650000D02*
G03*
X4260480Y8650000I-30480J0D01*
G01*
X4120480Y8640000D02*
G03*
X4120480Y8640000I-30480J0D01*
G01*
X4648056Y8860000D02*
G03*
X4648056Y8860000I-30480J0D01*
G01*
X4460480Y8750000D02*
G03*
X4460480Y8750000I-30480J0D01*
G01*
X5120480Y9070000D02*
G03*
X5120480Y9070000I-30480J0D01*
G01*
X5060480Y8500000D02*
G03*
X5060480Y8500000I-30480J0D01*
G01*
X5288428Y8535642D02*
G03*
X5288428Y8535642I-30480J0D01*
G01*
X5364411Y8293575D02*
G03*
X5364411Y8293575I-30480J0D01*
G01*
X5640480Y8160000D02*
G03*
X5640480Y8160000I-30480J0D01*
G01*
X5820480Y8400000D02*
G03*
X5820480Y8400000I-30480J0D01*
G01*
X5900480Y8090000D02*
G03*
X5900480Y8090000I-30480J0D01*
G01*
X5740480D02*
G03*
X5740480Y8090000I-30480J0D01*
G01*
X6400480Y8500000D02*
G03*
X6400480Y8500000I-30480J0D01*
G01*
X5560480Y7890000D02*
G03*
X5560480Y7890000I-30480J0D01*
G01*
X6090480Y6370000D02*
G03*
X6090480Y6370000I-30480J0D01*
G01*
X6870480Y6510000D02*
G03*
X6870480Y6510000I-30480J0D01*
G01*
X6845763Y6767575D02*
G03*
X6845763Y6767575I-30480J0D01*
G01*
X6955480Y6280000D02*
G03*
X6955480Y6280000I-30480J0D01*
G01*
X6124043Y6558384D02*
G03*
X6124043Y6558384I-30480J0D01*
G01*
X11440480Y2390000D02*
G03*
X11440480Y2390000I-30480J0D01*
G01*
X5590480Y480000D02*
G03*
X5590480Y480000I-30480J0D01*
G01*
X2140480Y3920000D02*
G03*
X2140480Y3920000I-30480J0D01*
G01*
X2150480Y1680000D02*
G03*
X2150480Y1680000I-30480J0D01*
G01*
X2950480Y5270000D02*
G03*
X2950480Y5270000I-30480J0D01*
G01*
X4870480Y8580000D02*
G03*
X4870480Y8580000I-30480J0D01*
G01*
X4710480Y8500000D02*
G03*
X4710480Y8500000I-30480J0D01*
G01*
X2360480Y6262359D02*
G03*
X2360480Y6262359I-30480J0D01*
G01*
X1250480Y6670000D02*
G03*
X1250480Y6670000I-30480J0D01*
G01*
X1370480Y6340000D02*
G03*
X1370480Y6340000I-30480J0D01*
G01*
Y6550000D02*
G03*
X1370480Y6550000I-30480J0D01*
G01*
X1890480Y5880000D02*
G03*
X1890480Y5880000I-30480J0D01*
G01*
X1240480Y6030000D02*
G03*
X1240480Y6030000I-30480J0D01*
G01*
X1410480Y7080000D02*
G03*
X1410480Y7080000I-30480J0D01*
G01*
X1999467Y10219268D02*
G03*
X1999467Y10219268I-30480J0D01*
G01*
X2118274Y10119718D02*
G03*
X2118274Y10119718I-30480J0D01*
G01*
X2260480Y10420000D02*
G03*
X2260480Y10420000I-30480J0D01*
G01*
X2350480Y10370000D02*
G03*
X2350480Y10370000I-30480J0D01*
G01*
X2610480Y10170000D02*
G03*
X2610480Y10170000I-30480J0D01*
G01*
X2490480Y11030000D02*
G03*
X2490480Y11030000I-30480J0D01*
G01*
X640480Y10460000D02*
G03*
X640480Y10460000I-30480J0D01*
G01*
X1050480Y10830000D02*
G03*
X1050480Y10830000I-30480J0D01*
G01*
X8470480Y5740000D02*
G03*
X8470480Y5740000I-30480J0D01*
G01*
X7620480Y8430000D02*
G03*
X7620480Y8430000I-30480J0D01*
G01*
X8850480Y8260000D02*
G03*
X8850480Y8260000I-30480J0D01*
G01*
X9220480Y8630000D02*
G03*
X9220480Y8630000I-30480J0D01*
G01*
X10920480Y9150000D02*
G03*
X10920480Y9150000I-30480J0D01*
G01*
X10650480Y9480000D02*
G03*
X10650480Y9480000I-30480J0D01*
G01*
X11410480Y8230000D02*
G03*
X11410480Y8230000I-30480J0D01*
G01*
X11560480Y9610000D02*
G03*
X11560480Y9610000I-30480J0D01*
G01*
Y9010000D02*
G03*
X11560480Y9010000I-30480J0D01*
G01*
X11680480Y8960000D02*
G03*
X11680480Y8960000I-30480J0D01*
G01*
X11430480Y9720000D02*
G03*
X11430480Y9720000I-30480J0D01*
G01*
X11730480Y9710000D02*
G03*
X11730480Y9710000I-30480J0D01*
G01*
X11820480Y9560000D02*
G03*
X11820480Y9560000I-30480J0D01*
G01*
X11190480Y9500000D02*
G03*
X11190480Y9500000I-30480J0D01*
G01*
X11390480D02*
G03*
X11390480Y9500000I-30480J0D01*
G01*
X10877447Y9513033D02*
G03*
X10877447Y9513033I-30480J0D01*
G01*
X11180480Y9800000D02*
G03*
X11180480Y9800000I-30480J0D01*
G01*
X11048779Y9780000D02*
G03*
X11048779Y9780000I-30480J0D01*
G01*
X10910480Y9870000D02*
G03*
X10910480Y9870000I-30480J0D01*
G01*
X10758922Y9619887D02*
G03*
X10758922Y9619887I-30480J0D01*
G01*
X11850480Y10490000D02*
G03*
X11850480Y10490000I-30480J0D01*
G01*
X11502175Y11384636D02*
G03*
X11502175Y11384636I-30480J0D01*
G01*
X11510480Y11290000D02*
G03*
X11510480Y11290000I-30480J0D01*
G01*
X10570480Y11010000D02*
G03*
X10570480Y11010000I-30480J0D01*
G01*
Y10770000D02*
G03*
X10570480Y10770000I-30480J0D01*
G01*
X9790480Y10700000D02*
G03*
X9790480Y10700000I-30480J0D01*
G01*
X8780480Y11300000D02*
G03*
X8780480Y11300000I-30480J0D01*
G01*
X8470480Y11100000D02*
G03*
X8470480Y11100000I-30480J0D01*
G01*
X9060480Y9800000D02*
G03*
X9060480Y9800000I-30480J0D01*
G01*
X8800480Y10290000D02*
G03*
X8800480Y10290000I-30480J0D01*
G01*
X8330480Y10100000D02*
G03*
X8330480Y10100000I-30480J0D01*
G01*
X8300480Y9800000D02*
G03*
X8300480Y9800000I-30480J0D01*
G01*
X10100480Y10160000D02*
G03*
X10100480Y10160000I-30480J0D01*
G01*
X10310480Y9830000D02*
G03*
X10310480Y9830000I-30480J0D01*
G01*
X10360480Y9500000D02*
G03*
X10360480Y9500000I-30480J0D01*
G01*
X10200480Y9020000D02*
G03*
X10200480Y9020000I-30480J0D01*
G01*
X10490480Y9000000D02*
G03*
X10490480Y9000000I-30480J0D01*
G01*
X10080480Y8850000D02*
G03*
X10080480Y8850000I-30480J0D01*
G01*
X10070480Y8520000D02*
G03*
X10070480Y8520000I-30480J0D01*
G01*
X10620480Y7850000D02*
G03*
X10620480Y7850000I-30480J0D01*
G01*
X11440480Y7650000D02*
G03*
X11440480Y7650000I-30480J0D01*
G01*
Y7010000D02*
G03*
X11440480Y7010000I-30480J0D01*
G01*
X11460480Y6350000D02*
G03*
X11460480Y6350000I-30480J0D01*
G01*
X7040480Y7340000D02*
G03*
X7040480Y7340000I-30480J0D01*
G01*
X8510480Y6940000D02*
G03*
X8510480Y6940000I-30480J0D01*
G01*
X8400480Y6840000D02*
G03*
X8400480Y6840000I-30480J0D01*
G01*
X7920480Y6690000D02*
G03*
X7920480Y6690000I-30480J0D01*
G01*
X4050480Y6430000D02*
G03*
X4050480Y6430000I-30480J0D01*
G01*
X4070480Y6720000D02*
G03*
X4070480Y6720000I-30480J0D01*
G01*
X3700480Y6800000D02*
G03*
X3700480Y6800000I-30480J0D01*
G01*
X3860480Y6810000D02*
G03*
X3860480Y6810000I-30480J0D01*
G01*
X2890480Y6280000D02*
G03*
X2890480Y6280000I-30480J0D01*
G01*
X2980480Y6360000D02*
G03*
X2980480Y6360000I-30480J0D01*
G01*
X1990480Y6540000D02*
G03*
X1990480Y6540000I-30480J0D01*
G01*
X2190480Y6630000D02*
G03*
X2190480Y6630000I-30480J0D01*
G01*
X4090480Y5080000D02*
G03*
X4090480Y5080000I-30480J0D01*
G01*
X3490480D02*
G03*
X3490480Y5080000I-30480J0D01*
G01*
X2959405Y4690557D02*
G03*
X2959405Y4690557I-30480J0D01*
G01*
X1270480Y4660000D02*
G03*
X1270480Y4660000I-30480J0D01*
G01*
X1130480Y5110000D02*
G03*
X1130480Y5110000I-30480J0D01*
G01*
X2370480Y5080000D02*
G03*
X2370480Y5080000I-30480J0D01*
G01*
X1760480Y5090000D02*
G03*
X1760480Y5090000I-30480J0D01*
G01*
X5240480Y2900000D02*
G03*
X5240480Y2900000I-30480J0D01*
G01*
X5510480Y2720000D02*
G03*
X5510480Y2720000I-30480J0D01*
G01*
X5650480Y2430000D02*
G03*
X5650480Y2430000I-30480J0D01*
G01*
X5560480Y2590000D02*
G03*
X5560480Y2590000I-30480J0D01*
G01*
X5590480Y1060000D02*
G03*
X5590480Y1060000I-30480J0D01*
G01*
X3840480Y1120000D02*
G03*
X3840480Y1120000I-30480J0D01*
G01*
X5810480Y900000D02*
G03*
X5810480Y900000I-30480J0D01*
G01*
Y770000D02*
G03*
X5810480Y770000I-30480J0D01*
G01*
Y640000D02*
G03*
X5810480Y640000I-30480J0D01*
G01*
X4180480Y890000D02*
G03*
X4180480Y890000I-30480J0D01*
G01*
Y630000D02*
G03*
X4180480Y630000I-30480J0D01*
G01*
Y760000D02*
G03*
X4180480Y760000I-30480J0D01*
G01*
X3970480Y470000D02*
G03*
X3970480Y470000I-30480J0D01*
G01*
X2586940Y874776D02*
G03*
X2586940Y874776I-30480J0D01*
G01*
X2370480Y470000D02*
G03*
X2370480Y470000I-30480J0D01*
G01*
X2590480Y620000D02*
G03*
X2590480Y620000I-30480J0D01*
G01*
Y750000D02*
G03*
X2590480Y750000I-30480J0D01*
G01*
X2250480Y1130000D02*
G03*
X2250480Y1130000I-30480J0D01*
G01*
X7760480Y6750000D02*
G03*
X7760480Y6750000I-30480J0D01*
G01*
X2190480Y6500000D02*
G03*
X2190480Y6500000I-30480J0D01*
G01*
X2350480Y6540000D02*
G03*
X2350480Y6540000I-30480J0D01*
G01*
X10620480Y1300000D02*
G03*
X10620480Y1300000I-30480J0D01*
G01*
X5350480Y3860000D02*
G03*
X5350480Y3860000I-30480J0D01*
G01*
X5640480Y5670000D02*
G03*
X5640480Y5670000I-30480J0D01*
G01*
X5660480Y4010000D02*
G03*
X5660480Y4010000I-30480J0D01*
G01*
X11790480Y7950000D02*
G03*
X11790480Y7950000I-30480J0D01*
G01*
X11856596Y10078890D02*
G03*
X11856596Y10078890I-30480J0D01*
G01*
X11614015Y10043536D02*
G03*
X11614015Y10043536I-30480J0D01*
G01*
X11610480Y10520000D02*
G03*
X11610480Y10520000I-30480J0D01*
G01*
X10060480Y9990000D02*
G03*
X10060480Y9990000I-30480J0D01*
G01*
X7960480Y4850000D02*
G03*
X7960480Y4850000I-30480J0D01*
G01*
X11239217Y10259500D02*
G03*
X11239217Y10259500I-30480J0D01*
G01*
X5440480Y7340000D02*
G03*
X5440480Y7340000I-30480J0D01*
G01*
X11400480Y8702300D02*
G03*
X11400480Y8702300I-30480J0D01*
G01*
X11260480Y8775000D02*
G03*
X11260480Y8775000I-30480J0D01*
G01*
X10940480Y8825434D02*
G03*
X10940480Y8825434I-30480J0D01*
G01*
X12000480Y8540000D02*
G03*
X12000480Y8540000I-30480J0D01*
G01*
X11660480Y6830000D02*
G03*
X11660480Y6830000I-30480J0D01*
G01*
X11335497Y10304509D02*
G03*
X11335497Y10304509I-30480J0D01*
G01*
X11080480Y9150000D02*
G03*
X11080480Y9150000I-30480J0D01*
G01*
X10849480Y11137929D02*
G03*
X10849480Y11137929I-30480J0D01*
G01*
X5170480Y10160000D02*
G03*
X5170480Y10160000I-30480J0D01*
G01*
X1230480Y11250000D02*
G03*
X1230480Y11250000I-30480J0D01*
G01*
X1540480Y11360000D02*
G03*
X1540480Y11360000I-30480J0D01*
G01*
X6630480Y7430000D02*
G03*
X6630480Y7430000I-30480J0D01*
G01*
X6840480Y7490000D02*
G03*
X6840480Y7490000I-30480J0D01*
G01*
X6390480Y4920000D02*
G03*
X6390480Y4920000I-30480J0D01*
G01*
Y3840000D02*
G03*
X6390480Y3840000I-30480J0D01*
G01*
X5930480Y2870000D02*
G03*
X5930480Y2870000I-30480J0D01*
G01*
X5670480Y2840000D02*
G03*
X5670480Y2840000I-30480J0D01*
G01*
X5485867Y3471219D02*
G03*
X5485867Y3471219I-30480J0D01*
G01*
X5613391Y2920000D02*
G03*
X5613391Y2920000I-30480J0D01*
G01*
X6020480Y2950000D02*
G03*
X6020480Y2950000I-30480J0D01*
G01*
X2450480Y5870000D02*
G03*
X2450480Y5870000I-30480J0D01*
G01*
X2460480Y5210000D02*
G03*
X2460480Y5210000I-30480J0D01*
G01*
X2550480Y5770000D02*
G03*
X2550480Y5770000I-30480J0D01*
G01*
X2350480Y5750000D02*
G03*
X2350480Y5750000I-30480J0D01*
G01*
X2550480Y5280000D02*
G03*
X2550480Y5280000I-30480J0D01*
G01*
X2350596Y5287971D02*
G03*
X2350596Y5287971I-30480J0D01*
G01*
X10040480Y6371842D02*
G03*
X10040480Y6371842I-30480J0D01*
G01*
X6880480Y11160000D02*
G03*
X6880480Y11160000I-30480J0D01*
G01*
X8600480Y5800000D02*
G03*
X8600480Y5800000I-30480J0D01*
G01*
X9250480Y5510000D02*
G03*
X9250480Y5510000I-30480J0D01*
G01*
X2660480Y10320000D02*
G03*
X2660480Y10320000I-30480J0D01*
G01*
X6640480Y5020000D02*
G03*
X6640480Y5020000I-30480J0D01*
G01*
Y5500000D02*
G03*
X6640480Y5500000I-30480J0D01*
G01*
X6540480Y7330000D02*
G03*
X6540480Y7330000I-30480J0D01*
G01*
X5345480Y6273587D02*
G03*
X5345480Y6273587I-30480J0D01*
G01*
X5320480Y9350000D02*
G03*
X5320480Y9350000I-30480J0D01*
G01*
X5327361Y9474082D02*
G03*
X5327361Y9474082I-30480J0D01*
G01*
X5260480Y9270000D02*
G03*
X5260480Y9270000I-30480J0D01*
G01*
X5190480Y9500000D02*
G03*
X5190480Y9500000I-30480J0D01*
G01*
X5150480Y9330000D02*
G03*
X5150480Y9330000I-30480J0D01*
G01*
X5090480Y9430000D02*
G03*
X5090480Y9430000I-30480J0D01*
G01*
X6790480Y9760000D02*
G03*
X6790480Y9760000I-30480J0D01*
G01*
X11100480Y10600000D02*
G03*
X11100480Y10600000I-30480J0D01*
G01*
X10928217Y10362962D02*
G03*
X10928217Y10362962I-30480J0D01*
G01*
X11499945Y8629037D02*
G03*
X11499945Y8629037I-30480J0D01*
G01*
X7610480Y7460000D02*
G03*
X7610480Y7460000I-30480J0D01*
G01*
X2410480Y7050000D02*
G03*
X2410480Y7050000I-30480J0D01*
G01*
X2490480Y6880000D02*
G03*
X2490480Y6880000I-30480J0D01*
G01*
X2290480Y6940000D02*
G03*
X2290480Y6940000I-30480J0D01*
G01*
X1580480Y7490000D02*
G03*
X1580480Y7490000I-30480J0D01*
G01*
X1640480Y7360000D02*
G03*
X1640480Y7360000I-30480J0D01*
G01*
X1380480Y7370000D02*
G03*
X1380480Y7370000I-30480J0D01*
G01*
X1532976Y7244324D02*
G03*
X1532976Y7244324I-30480J0D01*
G01*
X400480Y3610000D02*
G03*
X400480Y3610000I-30480J0D01*
G01*
X9250480Y3880000D02*
G03*
X9250480Y3880000I-30480J0D01*
G01*
X5270582Y1520000D02*
G03*
X5270582Y1520000I-30480J0D01*
G01*
X5130480Y2480000D02*
G03*
X5130480Y2480000I-30480J0D01*
G01*
Y2280000D02*
G03*
X5130480Y2280000I-30480J0D01*
G01*
X5650480Y1940000D02*
G03*
X5650480Y1940000I-30480J0D01*
G01*
X2960480Y4390000D02*
G03*
X2960480Y4390000I-30480J0D01*
G01*
X9000480Y10760000D02*
G03*
X9000480Y10760000I-30480J0D01*
G01*
X11180480Y9210000D02*
G03*
X11180480Y9210000I-30480J0D01*
G01*
X1993681Y10907541D02*
G03*
X1993681Y10907541I-30480J0D01*
G01*
X2980405Y10450127D02*
G03*
X2980405Y10450127I-30480J0D01*
G01*
X2680480Y9250000D02*
G03*
X2680480Y9250000I-30480J0D01*
G01*
X8450480Y5860000D02*
G03*
X8450480Y5860000I-30480J0D01*
G01*
X9860480Y9990000D02*
G03*
X9860480Y9990000I-30480J0D01*
G01*
X5770480Y5420000D02*
G03*
X5770480Y5420000I-30480J0D01*
G01*
Y5600000D02*
G03*
X5770480Y5600000I-30480J0D01*
G01*
X11403926Y10633087D02*
G03*
X11403926Y10633087I-30480J0D01*
G01*
X11310480Y10068866D02*
G03*
X11310480Y10068866I-30480J0D01*
G01*
X11080480Y8220000D02*
G03*
X11080480Y8220000I-30480J0D01*
G01*
X9220480Y9700000D02*
G03*
X9220480Y9700000I-30480J0D01*
G01*
X10660480Y9110000D02*
G03*
X10660480Y9110000I-30480J0D01*
G01*
X10690480Y10130000D02*
G03*
X10690480Y10130000I-30480J0D01*
G01*
X11710480Y11030000D02*
G03*
X11710480Y11030000I-30480J0D01*
G01*
X2270405Y8671294D02*
G03*
X2270405Y8671294I-30480J0D01*
G01*
X2470480Y6490000D02*
G03*
X2470480Y6490000I-30480J0D01*
G01*
X11844480Y7304000D02*
G03*
X11844480Y7304000I-30480J0D01*
G01*
X11734480Y10374000D02*
G03*
X11734480Y10374000I-30480J0D01*
G01*
X2870983Y10395127D02*
G03*
X2870983Y10395127I-30480J0D01*
G01*
X2490401Y10590105D02*
G03*
X2490401Y10590105I-30480J0D01*
G01*
X4470405Y10890127D02*
G03*
X4470405Y10890127I-30480J0D01*
G01*
X4490480Y11340000D02*
G03*
X4490480Y11340000I-30480J0D01*
G01*
X2440480Y9860000D02*
G03*
X2440480Y9860000I-30480J0D01*
G01*
X2943680Y9687836D02*
G03*
X2943680Y9687836I-30480J0D01*
G01*
X2265480Y10975000D02*
G03*
X2265480Y10975000I-30480J0D01*
G01*
X2830480Y11330000D02*
G03*
X2830480Y11330000I-30480J0D01*
G01*
X2210480Y11150000D02*
G03*
X2210480Y11150000I-30480J0D01*
G01*
X2940480Y11540000D02*
G03*
X2940480Y11540000I-30480J0D01*
G01*
%TF.MD5,d2ad2d115412ea9e39e82c2432cddfd5*%
M02*
