G04*
G04 #@! TF.GenerationSoftware,Altium Limited,Altium Designer,22.2.1 (43)*
G04*
G04 Layer_Color=2752767*
%FSLAX25Y25*%
%MOIN*%
G70*
G04*
G04 #@! TF.SameCoordinates,B3CF93AD-5C46-479A-8AA0-F490141B64D1*
G04*
G04*
G04 #@! TF.FilePolarity,Positive*
G04*
G01*
G75*
%ADD94C,0.00200*%
%ADD95C,0.00267*%
%ADD96C,0.00133*%
D94*
X76850Y81877D02*
Y83477D01*
X78450D01*
Y81877D01*
X76850D01*
Y55106D02*
Y56705D01*
X78450D01*
Y55106D01*
X76850D01*
X89360Y260612D02*
Y262212D01*
X90960D01*
Y260612D01*
X89360D01*
X62589D02*
Y262212D01*
X64189D01*
Y260612D01*
X62589D01*
X343937Y21011D02*
X343137Y22611D01*
X344737D01*
X343937Y21011D01*
X353937Y31011D02*
X353137Y32611D01*
X354737D01*
X353937Y31011D01*
Y11011D02*
X353137Y12611D01*
X354737D01*
X353937Y11011D01*
X8268Y152743D02*
X8668Y153143D01*
X9068D01*
X8668Y153543D01*
X9068Y153943D01*
X8668D01*
X8268Y154343D01*
X7868Y153943D01*
X7468D01*
X7868Y153543D01*
X7468Y153143D01*
X7868D01*
X8268Y152743D01*
X224412Y375573D02*
X224812Y375973D01*
X225212D01*
X224812Y376373D01*
X225212Y376773D01*
X224812D01*
X224412Y377173D01*
X224012Y376773D01*
X223612D01*
X224012Y376373D01*
X223612Y375973D01*
X224012D01*
X224412Y375573D01*
X107471Y470455D02*
X107871Y471255D01*
X107471Y472055D01*
X108271Y471655D01*
X109071Y472055D01*
X108671Y471255D01*
X109071Y470455D01*
X108271Y470855D01*
X107471Y470455D01*
Y401557D02*
X107871Y402357D01*
X107471Y403157D01*
X108271Y402757D01*
X109071Y403157D01*
X108671Y402357D01*
X109071Y401557D01*
X108271Y401957D01*
X107471Y401557D01*
X182306Y401525D02*
X182705Y402325D01*
X182306Y403125D01*
X183106Y402726D01*
X183905Y403125D01*
X183505Y402325D01*
X183905Y401525D01*
X183106Y401926D01*
X182306Y401525D01*
Y470423D02*
X182705Y471223D01*
X182306Y472023D01*
X183106Y471623D01*
X183905Y472023D01*
X183505Y471223D01*
X183905Y470423D01*
X183106Y470823D01*
X182306Y470423D01*
X7083Y174871D02*
Y174471D01*
X7883D01*
Y174871D01*
X8283D01*
Y175671D01*
X7883D01*
Y176071D01*
X7083D01*
Y175671D01*
X6683D01*
Y174871D01*
X7083D01*
Y184871D02*
Y184471D01*
X7883D01*
Y184871D01*
X8283D01*
Y185671D01*
X7883D01*
Y186071D01*
X7083D01*
Y185671D01*
X6683D01*
Y184871D01*
X7083D01*
Y194871D02*
Y194471D01*
X7883D01*
Y194871D01*
X8283D01*
Y195671D01*
X7883D01*
Y196071D01*
X7083D01*
Y195671D01*
X6683D01*
Y194871D01*
X7083D01*
Y204871D02*
Y204471D01*
X7883D01*
Y204871D01*
X8283D01*
Y205671D01*
X7883D01*
Y206071D01*
X7083D01*
Y205671D01*
X6683D01*
Y204871D01*
X7083D01*
Y254871D02*
Y254471D01*
X7883D01*
Y254871D01*
X8283D01*
Y255671D01*
X7883D01*
Y256071D01*
X7083D01*
Y255671D01*
X6683D01*
Y254871D01*
X7083D01*
Y264871D02*
Y264471D01*
X7883D01*
Y264871D01*
X8283D01*
Y265671D01*
X7883D01*
Y266071D01*
X7083D01*
Y265671D01*
X6683D01*
Y264871D01*
X7083D01*
Y244871D02*
Y244471D01*
X7883D01*
Y244871D01*
X8283D01*
Y245671D01*
X7883D01*
Y246071D01*
X7083D01*
Y245671D01*
X6683D01*
Y244871D01*
X7083D01*
Y234871D02*
Y234471D01*
X7883D01*
Y234871D01*
X8283D01*
Y235671D01*
X7883D01*
Y236071D01*
X7083D01*
Y235671D01*
X6683D01*
Y234871D01*
X7083D01*
Y224871D02*
Y224471D01*
X7883D01*
Y224871D01*
X8283D01*
Y225671D01*
X7883D01*
Y226071D01*
X7083D01*
Y225671D01*
X6683D01*
Y224871D01*
X7083D01*
Y214871D02*
Y214471D01*
X7883D01*
Y214871D01*
X8283D01*
Y215671D01*
X7883D01*
Y216071D01*
X7083D01*
Y215671D01*
X6683D01*
Y214871D01*
X7083D01*
X7080Y58655D02*
Y58255D01*
X7880D01*
Y58655D01*
X8280D01*
Y59455D01*
X7880D01*
Y59855D01*
X7080D01*
Y59455D01*
X6680D01*
Y58655D01*
X7080D01*
Y68655D02*
Y68255D01*
X7880D01*
Y68655D01*
X8280D01*
Y69455D01*
X7880D01*
Y69855D01*
X7080D01*
Y69455D01*
X6680D01*
Y68655D01*
X7080D01*
Y118655D02*
Y118255D01*
X7880D01*
Y118655D01*
X8280D01*
Y119455D01*
X7880D01*
Y119855D01*
X7080D01*
Y119455D01*
X6680D01*
Y118655D01*
X7080D01*
Y128655D02*
Y128255D01*
X7880D01*
Y128655D01*
X8280D01*
Y129455D01*
X7880D01*
Y129855D01*
X7080D01*
Y129455D01*
X6680D01*
Y128655D01*
X7080D01*
Y108655D02*
Y108255D01*
X7880D01*
Y108655D01*
X8280D01*
Y109455D01*
X7880D01*
Y109855D01*
X7080D01*
Y109455D01*
X6680D01*
Y108655D01*
X7080D01*
Y98655D02*
Y98255D01*
X7880D01*
Y98655D01*
X8280D01*
Y99455D01*
X7880D01*
Y99855D01*
X7080D01*
Y99455D01*
X6680D01*
Y98655D01*
X7080D01*
Y88655D02*
Y88255D01*
X7880D01*
Y88655D01*
X8280D01*
Y89455D01*
X7880D01*
Y89855D01*
X7080D01*
Y89455D01*
X6680D01*
Y88655D01*
X7080D01*
Y78655D02*
Y78255D01*
X7880D01*
Y78655D01*
X8280D01*
Y79455D01*
X7880D01*
Y79855D01*
X7080D01*
Y79455D01*
X6680D01*
Y78655D01*
X7080D01*
X286214Y342356D02*
Y341956D01*
X287014D01*
Y342356D01*
X287414D01*
Y343156D01*
X287014D01*
Y343556D01*
X286214D01*
Y343156D01*
X285814D01*
Y342356D01*
X286214D01*
Y352356D02*
Y351956D01*
X287014D01*
Y352356D01*
X287414D01*
Y353156D01*
X287014D01*
Y353556D01*
X286214D01*
Y353156D01*
X285814D01*
Y352356D01*
X286214D01*
X59218Y16647D02*
Y16247D01*
X60018D01*
Y16647D01*
X60418D01*
Y17447D01*
X60018D01*
Y17847D01*
X59218D01*
Y17447D01*
X58818D01*
Y16647D01*
X59218D01*
Y26647D02*
Y26247D01*
X60018D01*
Y26647D01*
X60418D01*
Y27447D01*
X60018D01*
Y27847D01*
X59218D01*
Y27447D01*
X58818D01*
Y26647D01*
X59218D01*
X69218Y16647D02*
Y16247D01*
X70018D01*
Y16647D01*
X70418D01*
Y17447D01*
X70018D01*
Y17847D01*
X69218D01*
Y17447D01*
X68818D01*
Y16647D01*
X69218D01*
Y26647D02*
Y26247D01*
X70018D01*
Y26647D01*
X70418D01*
Y27447D01*
X70018D01*
Y27847D01*
X69218D01*
Y27447D01*
X68818D01*
Y26647D01*
X69218D01*
X79218Y16647D02*
Y16247D01*
X80018D01*
Y16647D01*
X80418D01*
Y17447D01*
X80018D01*
Y17847D01*
X79218D01*
Y17447D01*
X78818D01*
Y16647D01*
X79218D01*
Y26647D02*
Y26247D01*
X80018D01*
Y26647D01*
X80418D01*
Y27447D01*
X80018D01*
Y27847D01*
X79218D01*
Y27447D01*
X78818D01*
Y26647D01*
X79218D01*
X89218Y16647D02*
Y16247D01*
X90018D01*
Y16647D01*
X90418D01*
Y17447D01*
X90018D01*
Y17847D01*
X89218D01*
Y17447D01*
X88818D01*
Y16647D01*
X89218D01*
X99218D02*
Y16247D01*
X100018D01*
Y16647D01*
X100418D01*
Y17447D01*
X100018D01*
Y17847D01*
X99218D01*
Y17447D01*
X98818D01*
Y16647D01*
X99218D01*
X89218Y26647D02*
Y26247D01*
X90018D01*
Y26647D01*
X90418D01*
Y27447D01*
X90018D01*
Y27847D01*
X89218D01*
Y27447D01*
X88818D01*
Y26647D01*
X89218D01*
X99218D02*
Y26247D01*
X100018D01*
Y26647D01*
X100418D01*
Y27447D01*
X100018D01*
Y27847D01*
X99218D01*
Y27447D01*
X98818D01*
Y26647D01*
X99218D01*
X296956Y255499D02*
X297356D01*
X297756Y255899D01*
X298156Y255499D01*
X298556D01*
Y255899D01*
X298156Y256299D01*
X298556Y256699D01*
Y257099D01*
X298156D01*
X297756Y256699D01*
X297356Y257099D01*
X296956D01*
Y256699D01*
X297356Y256299D01*
X296956Y255899D01*
Y255499D01*
X306956D02*
X307356D01*
X307756Y255899D01*
X308156Y255499D01*
X308556D01*
Y255899D01*
X308156Y256299D01*
X308556Y256699D01*
Y257099D01*
X308156D01*
X307756Y256699D01*
X307356Y257099D01*
X306956D01*
Y256699D01*
X307356Y256299D01*
X306956Y255899D01*
Y255499D01*
X57077Y350389D02*
X57877Y351189D01*
X58677Y350389D01*
X57877Y349589D01*
X57077Y350389D01*
Y370074D02*
X57877Y370874D01*
X58677Y370074D01*
X57877Y369274D01*
X57077Y370074D01*
X245932Y47814D02*
Y49414D01*
X247532D01*
Y47814D01*
X245932D01*
X246332Y48214D02*
Y49014D01*
X247132D01*
Y48214D01*
X246332D01*
X435932Y173814D02*
Y175414D01*
X437532D01*
Y173814D01*
X435932D01*
X436332Y174214D02*
Y175014D01*
X437132D01*
Y174214D01*
X436332D01*
X245932Y57814D02*
Y59414D01*
X247532D01*
Y57814D01*
X245932D01*
X246332Y58214D02*
Y59014D01*
X247132D01*
Y58214D01*
X246332D01*
X245932Y67814D02*
Y69414D01*
X247532D01*
Y67814D01*
X245932D01*
X246332Y68214D02*
Y69014D01*
X247132D01*
Y68214D01*
X246332D01*
X245932Y77814D02*
Y79414D01*
X247532D01*
Y77814D01*
X245932D01*
X246332Y78214D02*
Y79014D01*
X247132D01*
Y78214D01*
X246332D01*
X245932Y87814D02*
Y89414D01*
X247532D01*
Y87814D01*
X245932D01*
X246332Y88214D02*
Y89014D01*
X247132D01*
Y88214D01*
X246332D01*
X245932Y97814D02*
Y99414D01*
X247532D01*
Y97814D01*
X245932D01*
X246332Y98214D02*
Y99014D01*
X247132D01*
Y98214D01*
X246332D01*
X245932Y107814D02*
Y109414D01*
X247532D01*
Y107814D01*
X245932D01*
X246332Y108214D02*
Y109014D01*
X247132D01*
Y108214D01*
X246332D01*
X245932Y117814D02*
Y119414D01*
X247532D01*
Y117814D01*
X245932D01*
X246332Y118214D02*
Y119014D01*
X247132D01*
Y118214D01*
X246332D01*
X245932Y127814D02*
Y129414D01*
X247532D01*
Y127814D01*
X245932D01*
X246332Y128214D02*
Y129014D01*
X247132D01*
Y128214D01*
X246332D01*
X245932Y153814D02*
Y155414D01*
X247532D01*
Y153814D01*
X245932D01*
X246332Y154214D02*
Y155014D01*
X247132D01*
Y154214D01*
X246332D01*
X245932Y137814D02*
Y139414D01*
X247532D01*
Y137814D01*
X245932D01*
X246332Y138214D02*
Y139014D01*
X247132D01*
Y138214D01*
X246332D01*
X245932Y163814D02*
Y165414D01*
X247532D01*
Y163814D01*
X245932D01*
X246332Y164214D02*
Y165014D01*
X247132D01*
Y164214D01*
X246332D01*
X245932Y173814D02*
Y175414D01*
X247532D01*
Y173814D01*
X245932D01*
X246332Y174214D02*
Y175014D01*
X247132D01*
Y174214D01*
X246332D01*
X245932Y183814D02*
Y185414D01*
X247532D01*
Y183814D01*
X245932D01*
X246332Y184214D02*
Y185014D01*
X247132D01*
Y184214D01*
X246332D01*
X245932Y193814D02*
Y195414D01*
X247532D01*
Y193814D01*
X245932D01*
X246332Y194214D02*
Y195014D01*
X247132D01*
Y194214D01*
X246332D01*
X245932Y203814D02*
Y205414D01*
X247532D01*
Y203814D01*
X245932D01*
X246332Y204214D02*
Y205014D01*
X247132D01*
Y204214D01*
X246332D01*
X245932Y213814D02*
Y215414D01*
X247532D01*
Y213814D01*
X245932D01*
X246332Y214214D02*
Y215014D01*
X247132D01*
Y214214D01*
X246332D01*
X435932Y223814D02*
Y225414D01*
X437532D01*
Y223814D01*
X435932D01*
X436332Y224214D02*
Y225014D01*
X437132D01*
Y224214D01*
X436332D01*
X245932Y223814D02*
Y225414D01*
X247532D01*
Y223814D01*
X245932D01*
X246332Y224214D02*
Y225014D01*
X247132D01*
Y224214D01*
X246332D01*
X435932Y213814D02*
Y215414D01*
X437532D01*
Y213814D01*
X435932D01*
X436332Y214214D02*
Y215014D01*
X437132D01*
Y214214D01*
X436332D01*
X435932Y203814D02*
Y205414D01*
X437532D01*
Y203814D01*
X435932D01*
X436332Y204214D02*
Y205014D01*
X437132D01*
Y204214D01*
X436332D01*
X435932Y193814D02*
Y195414D01*
X437532D01*
Y193814D01*
X435932D01*
X436332Y194214D02*
Y195014D01*
X437132D01*
Y194214D01*
X436332D01*
X435932Y183814D02*
Y185414D01*
X437532D01*
Y183814D01*
X435932D01*
X436332Y184214D02*
Y185014D01*
X437132D01*
Y184214D01*
X436332D01*
X435932Y153814D02*
Y155414D01*
X437532D01*
Y153814D01*
X435932D01*
X436332Y154214D02*
Y155014D01*
X437132D01*
Y154214D01*
X436332D01*
X435932Y143814D02*
Y145414D01*
X437532D01*
Y143814D01*
X435932D01*
X436332Y144214D02*
Y145014D01*
X437132D01*
Y144214D01*
X436332D01*
X435932Y133814D02*
Y135414D01*
X437532D01*
Y133814D01*
X435932D01*
X436332Y134214D02*
Y135014D01*
X437132D01*
Y134214D01*
X436332D01*
X435932Y123814D02*
Y125414D01*
X437532D01*
Y123814D01*
X435932D01*
X436332Y124214D02*
Y125014D01*
X437132D01*
Y124214D01*
X436332D01*
X435932Y113814D02*
Y115414D01*
X437532D01*
Y113814D01*
X435932D01*
X436332Y114214D02*
Y115014D01*
X437132D01*
Y114214D01*
X436332D01*
X435932Y103814D02*
Y105414D01*
X437532D01*
Y103814D01*
X435932D01*
X436332Y104214D02*
Y105014D01*
X437132D01*
Y104214D01*
X436332D01*
X435932Y93814D02*
Y95414D01*
X437532D01*
Y93814D01*
X435932D01*
X436332Y94214D02*
Y95014D01*
X437132D01*
Y94214D01*
X436332D01*
X435932Y83814D02*
Y85414D01*
X437532D01*
Y83814D01*
X435932D01*
X436332Y84214D02*
Y85014D01*
X437132D01*
Y84214D01*
X436332D01*
X7471Y337778D02*
Y339378D01*
X9071D01*
Y337778D01*
X7471D01*
Y364549D02*
Y366149D01*
X9071D01*
Y364549D01*
X7471D01*
X115826Y55893D02*
Y57493D01*
X117426D01*
Y55893D01*
X115826D01*
Y82665D02*
Y84265D01*
X117426D01*
Y82665D01*
X115826D01*
X157165Y55893D02*
Y57493D01*
X158765D01*
Y55893D01*
X157165D01*
Y82665D02*
Y84265D01*
X158765D01*
Y82665D01*
X157165D01*
X164948Y152834D02*
Y154434D01*
X166548D01*
Y152834D01*
X164948D01*
Y126062D02*
Y127662D01*
X166548D01*
Y126062D01*
X164948D01*
X300397Y417305D02*
X300797Y417705D01*
X301197D01*
X300797Y418105D01*
X301197Y418505D01*
X300797D01*
X300397Y418905D01*
X299997Y418505D01*
X299597D01*
X299997Y418105D01*
X299597Y417705D01*
X299997D01*
X300397Y417305D01*
X474409Y252743D02*
X474810Y253143D01*
X475210D01*
X474810Y253543D01*
X475210Y253943D01*
X474810D01*
X474409Y254343D01*
X474010Y253943D01*
X473609D01*
X474010Y253543D01*
X473609Y253143D01*
X474010D01*
X474409Y252743D01*
X46457Y399987D02*
X46857Y400387D01*
X47257D01*
X46857Y400787D01*
X47257Y401187D01*
X46857D01*
X46457Y401587D01*
X46057Y401187D01*
X45657D01*
X46057Y400787D01*
X45657Y400387D01*
X46057D01*
X46457Y399987D01*
X244885Y334628D02*
X245285Y335028D01*
X245685D01*
X245285Y335428D01*
X245685Y335828D01*
X245285D01*
X244885Y336228D01*
X244485Y335828D01*
X244085D01*
X244485Y335428D01*
X244085Y335028D01*
X244485D01*
X244885Y334628D01*
X155118Y183058D02*
X155518Y183458D01*
X155918D01*
X155518Y183858D01*
X155918Y184258D01*
X155518D01*
X155118Y184658D01*
X154718Y184258D01*
X154318D01*
X154718Y183858D01*
X154318Y183458D01*
X154718D01*
X155118Y183058D01*
X333858Y44869D02*
X334258Y45269D01*
X334658D01*
X334258Y45669D01*
X334658Y46069D01*
X334258D01*
X333858Y46469D01*
X333458Y46069D01*
X333058D01*
X333458Y45669D01*
X333058Y45269D01*
X333458D01*
X333858Y44869D01*
X8271Y310219D02*
X8671Y310619D01*
X9071D01*
X8671Y311019D01*
X9071Y311419D01*
X8671D01*
X8271Y311819D01*
X7871Y311419D01*
X7471D01*
X7871Y311019D01*
X7471Y310619D01*
X7871D01*
X8271Y310219D01*
X153153Y375967D02*
X153552Y376367D01*
X153953D01*
X153552Y376767D01*
X153953Y377167D01*
X153552D01*
X153153Y377567D01*
X152752Y377167D01*
X152352D01*
X152752Y376767D01*
X152352Y376367D01*
X152752D01*
X153153Y375967D01*
X158782Y245455D02*
X159183Y245855D01*
X159582D01*
X159183Y246255D01*
X159582Y246655D01*
X159183D01*
X158782Y247055D01*
X158382Y246655D01*
X157983D01*
X158382Y246255D01*
X157983Y245855D01*
X158382D01*
X158782Y245455D01*
X194491Y309825D02*
X194891Y310225D01*
X195291D01*
X194891Y310625D01*
X195291Y311025D01*
X194891D01*
X194491Y311425D01*
X194091Y311025D01*
X193691D01*
X194091Y310625D01*
X193691Y310225D01*
X194091D01*
X194491Y309825D01*
X114964Y253526D02*
X115364Y253926D01*
X115764D01*
X115364Y254326D01*
X115764Y254726D01*
X115364D01*
X114964Y255126D01*
X114564Y254726D01*
X114164D01*
X114564Y254326D01*
X114164Y253926D01*
X114564D01*
X114964Y253526D01*
X421263Y288565D02*
X421663Y288965D01*
X422063D01*
X421663Y289365D01*
X422063Y289765D01*
X421663D01*
X421263Y290165D01*
X420863Y289765D01*
X420463D01*
X420863Y289365D01*
X420463Y288965D01*
X420863D01*
X421263Y288565D01*
X101578Y223604D02*
X101978Y224004D01*
X102378D01*
X101978Y224404D01*
X102378Y224804D01*
X101978D01*
X101578Y225204D01*
X101178Y224804D01*
X100778D01*
X101178Y224404D01*
X100778Y224004D01*
X101178D01*
X101578Y223604D01*
X327168Y461400D02*
X327568Y461800D01*
X327968D01*
X327568Y462200D01*
X327968Y462600D01*
X327568D01*
X327168Y463000D01*
X326768Y462600D01*
X326368D01*
X326768Y462200D01*
X326368Y461800D01*
X326768D01*
X327168Y461400D01*
X210863Y245855D02*
Y245455D01*
X211663D01*
Y245855D01*
X212063D01*
Y246655D01*
X211663D01*
Y247055D01*
X210863D01*
Y246655D01*
X210463D01*
Y245855D01*
X210863D01*
X220863D02*
Y245455D01*
X221663D01*
Y245855D01*
X222063D01*
Y246655D01*
X221663D01*
Y247055D01*
X220863D01*
Y246655D01*
X220463D01*
Y245855D01*
X220863D01*
X78740Y111405D02*
X79140Y111805D01*
X79540D01*
X79140Y112205D01*
X79540Y112605D01*
X79140D01*
X78740Y113005D01*
X78340Y112605D01*
X77940D01*
X78340Y112205D01*
X77940Y111805D01*
X78340D01*
X78740Y111405D01*
X78347Y150381D02*
X78746Y150781D01*
X79146D01*
X78746Y151181D01*
X79146Y151581D01*
X78746D01*
X78347Y151981D01*
X77947Y151581D01*
X77547D01*
X77947Y151181D01*
X77547Y150781D01*
X77947D01*
X78347Y150381D01*
X78347Y131090D02*
X78746Y131490D01*
X79146D01*
X78746Y131890D01*
X79146Y132290D01*
X78746D01*
X78347Y132690D01*
X77947Y132290D01*
X77547D01*
X77947Y131890D01*
X77547Y131490D01*
X77947D01*
X78347Y131090D01*
X78740Y169279D02*
X79140Y169679D01*
X79540D01*
X79140Y170079D01*
X79540Y170479D01*
X79140D01*
X78740Y170879D01*
X78340Y170479D01*
X77940D01*
X78340Y170079D01*
X77940Y169679D01*
X78340D01*
X78740Y169279D01*
X100787Y339357D02*
X101187Y339757D01*
X101587D01*
X101187Y340158D01*
X101587Y340558D01*
X101187D01*
X100787Y340957D01*
X100387Y340558D01*
X99987D01*
X100387Y340158D01*
X99987Y339757D01*
X100387D01*
X100787Y339357D01*
X244482Y434521D02*
Y434121D01*
X245282D01*
Y434521D01*
X245682D01*
Y435321D01*
X245282D01*
Y435721D01*
X244482D01*
Y435321D01*
X244082D01*
Y434521D01*
X244482D01*
Y424521D02*
Y424121D01*
X245282D01*
Y424521D01*
X245682D01*
Y425321D01*
X245282D01*
Y425721D01*
X244482D01*
Y425321D01*
X244082D01*
Y424521D01*
X244482D01*
X213773Y424915D02*
Y424515D01*
X214573D01*
Y424915D01*
X214973D01*
Y425715D01*
X214573D01*
Y426115D01*
X213773D01*
Y425715D01*
X213373D01*
Y424915D01*
X213773D01*
Y434915D02*
Y434515D01*
X214573D01*
Y434915D01*
X214973D01*
Y435715D01*
X214573D01*
Y436115D01*
X213773D01*
Y435715D01*
X213373D01*
Y434915D01*
X213773D01*
X338576Y282828D02*
Y282428D01*
X339376D01*
Y282828D01*
X339776D01*
Y283628D01*
X339376D01*
Y284028D01*
X338576D01*
Y283628D01*
X338176D01*
Y282828D01*
X338576D01*
Y272828D02*
Y272428D01*
X339376D01*
Y272828D01*
X339776D01*
Y273628D01*
X339376D01*
Y274028D01*
X338576D01*
Y273628D01*
X338176D01*
Y272828D01*
X338576D01*
X307868Y342632D02*
Y342231D01*
X308668D01*
Y342632D01*
X309068D01*
Y343431D01*
X308668D01*
Y343831D01*
X307868D01*
Y343431D01*
X307468D01*
Y342632D01*
X307868D01*
Y352631D02*
Y352232D01*
X308668D01*
Y352631D01*
X309068D01*
Y353432D01*
X308668D01*
Y353832D01*
X307868D01*
Y353432D01*
X307468D01*
Y352631D01*
X307868D01*
D95*
X481509Y11811D02*
G03*
X481509Y11811I-800J0D01*
G01*
X481512Y461412D02*
G03*
X481512Y461412I-800J0D01*
G01*
X13008Y461019D02*
G03*
X13008Y461019I-800J0D01*
G01*
X12611Y11811D02*
G03*
X12611Y11811I-800J0D01*
G01*
X47455Y277364D02*
G03*
X47455Y277364I-800J0D01*
G01*
X135839Y37008D02*
G03*
X135839Y37008I-800J0D01*
G01*
X462818Y409641D02*
G03*
X462818Y409641I-800J0D01*
G01*
X445139Y410822D02*
G03*
X445139Y410822I-800J0D01*
G01*
X172453Y379921D02*
G03*
X172453Y379921I-800J0D01*
G01*
X72453Y409842D02*
G03*
X72453Y409842I-800J0D01*
G01*
X85642Y426387D02*
G03*
X85642Y426387I-800J0D01*
G01*
X98044Y430709D02*
G03*
X98044Y430709I-800J0D01*
G01*
X98438Y451968D02*
G03*
X98438Y451968I-800J0D01*
G01*
X140957Y377165D02*
G03*
X140957Y377165I-800J0D01*
G01*
X83083Y291732D02*
G03*
X83083Y291732I-800J0D01*
G01*
X120485Y158268D02*
G03*
X120485Y158268I-800J0D01*
G01*
X490408Y321490D02*
G03*
X490408Y321490I-800J0D01*
G01*
Y297868D02*
G03*
X490408Y297868I-800J0D01*
G01*
X484502Y286057D02*
G03*
X484502Y286057I-800J0D01*
G01*
X490408Y274246D02*
G03*
X490408Y274246I-800J0D01*
G01*
X484502Y262435D02*
G03*
X484502Y262435I-800J0D01*
G01*
X490408Y250624D02*
G03*
X490408Y250624I-800J0D01*
G01*
X484502Y238813D02*
G03*
X484502Y238813I-800J0D01*
G01*
X490408Y227002D02*
G03*
X490408Y227002I-800J0D01*
G01*
X484502Y215191D02*
G03*
X484502Y215191I-800J0D01*
G01*
X490408Y203380D02*
G03*
X490408Y203380I-800J0D01*
G01*
X484502Y191569D02*
G03*
X484502Y191569I-800J0D01*
G01*
X490408Y179757D02*
G03*
X490408Y179757I-800J0D01*
G01*
X484502Y167947D02*
G03*
X484502Y167947I-800J0D01*
G01*
X490408Y156135D02*
G03*
X490408Y156135I-800J0D01*
G01*
X484502Y144325D02*
G03*
X484502Y144325I-800J0D01*
G01*
X490408Y132513D02*
G03*
X490408Y132513I-800J0D01*
G01*
X484502Y120702D02*
G03*
X484502Y120702I-800J0D01*
G01*
X490408Y108891D02*
G03*
X490408Y108891I-800J0D01*
G01*
X484502Y26214D02*
G03*
X484502Y26214I-800J0D01*
G01*
X490408Y14403D02*
G03*
X490408Y14403I-800J0D01*
G01*
X484502Y2592D02*
G03*
X484502Y2592I-800J0D01*
G01*
X472691Y451411D02*
G03*
X472691Y451411I-800J0D01*
G01*
X478597Y274246D02*
G03*
X478597Y274246I-800J0D01*
G01*
X472691Y262435D02*
G03*
X472691Y262435I-800J0D01*
G01*
Y238813D02*
G03*
X472691Y238813I-800J0D01*
G01*
X478597Y227002D02*
G03*
X478597Y227002I-800J0D01*
G01*
Y203380D02*
G03*
X478597Y203380I-800J0D01*
G01*
Y179757D02*
G03*
X478597Y179757I-800J0D01*
G01*
Y156135D02*
G03*
X478597Y156135I-800J0D01*
G01*
Y132513D02*
G03*
X478597Y132513I-800J0D01*
G01*
Y108891D02*
G03*
X478597Y108891I-800J0D01*
G01*
Y85269D02*
G03*
X478597Y85269I-800J0D01*
G01*
Y61647D02*
G03*
X478597Y61647I-800J0D01*
G01*
Y38025D02*
G03*
X478597Y38025I-800J0D01*
G01*
X472691Y2592D02*
G03*
X472691Y2592I-800J0D01*
G01*
X466786Y297868D02*
G03*
X466786Y297868I-800J0D01*
G01*
Y274246D02*
G03*
X466786Y274246I-800J0D01*
G01*
X460880Y262435D02*
G03*
X460880Y262435I-800J0D01*
G01*
X466786Y250624D02*
G03*
X466786Y250624I-800J0D01*
G01*
X460880Y238813D02*
G03*
X460880Y238813I-800J0D01*
G01*
Y215191D02*
G03*
X460880Y215191I-800J0D01*
G01*
X466786Y203380D02*
G03*
X466786Y203380I-800J0D01*
G01*
X460880Y191569D02*
G03*
X460880Y191569I-800J0D01*
G01*
X466786Y179757D02*
G03*
X466786Y179757I-800J0D01*
G01*
X460880Y167947D02*
G03*
X460880Y167947I-800J0D01*
G01*
X466786Y156135D02*
G03*
X466786Y156135I-800J0D01*
G01*
X460880Y144325D02*
G03*
X460880Y144325I-800J0D01*
G01*
X466786Y132513D02*
G03*
X466786Y132513I-800J0D01*
G01*
X460880Y120702D02*
G03*
X460880Y120702I-800J0D01*
G01*
X466786Y108891D02*
G03*
X466786Y108891I-800J0D01*
G01*
X460880Y97080D02*
G03*
X460880Y97080I-800J0D01*
G01*
X466786Y85269D02*
G03*
X466786Y85269I-800J0D01*
G01*
X460880Y73458D02*
G03*
X460880Y73458I-800J0D01*
G01*
X466786Y61647D02*
G03*
X466786Y61647I-800J0D01*
G01*
X460880Y49836D02*
G03*
X460880Y49836I-800J0D01*
G01*
Y26214D02*
G03*
X460880Y26214I-800J0D01*
G01*
X466786Y14403D02*
G03*
X466786Y14403I-800J0D01*
G01*
X460880Y2592D02*
G03*
X460880Y2592I-800J0D01*
G01*
X449069Y333301D02*
G03*
X449069Y333301I-800J0D01*
G01*
Y309679D02*
G03*
X449069Y309679I-800J0D01*
G01*
X454975Y297868D02*
G03*
X454975Y297868I-800J0D01*
G01*
Y274246D02*
G03*
X454975Y274246I-800J0D01*
G01*
X449069Y262435D02*
G03*
X449069Y262435I-800J0D01*
G01*
X454975Y250624D02*
G03*
X454975Y250624I-800J0D01*
G01*
X449069Y238813D02*
G03*
X449069Y238813I-800J0D01*
G01*
Y215191D02*
G03*
X449069Y215191I-800J0D01*
G01*
X454975Y203380D02*
G03*
X454975Y203380I-800J0D01*
G01*
X449069Y191569D02*
G03*
X449069Y191569I-800J0D01*
G01*
X454975Y179757D02*
G03*
X454975Y179757I-800J0D01*
G01*
X449069Y167947D02*
G03*
X449069Y167947I-800J0D01*
G01*
X454975Y156135D02*
G03*
X454975Y156135I-800J0D01*
G01*
X449069Y144325D02*
G03*
X449069Y144325I-800J0D01*
G01*
X454975Y132513D02*
G03*
X454975Y132513I-800J0D01*
G01*
X449069Y120702D02*
G03*
X449069Y120702I-800J0D01*
G01*
X454975Y108891D02*
G03*
X454975Y108891I-800J0D01*
G01*
X449069Y97080D02*
G03*
X449069Y97080I-800J0D01*
G01*
X454975Y85269D02*
G03*
X454975Y85269I-800J0D01*
G01*
X449069Y73458D02*
G03*
X449069Y73458I-800J0D01*
G01*
X454975Y61647D02*
G03*
X454975Y61647I-800J0D01*
G01*
X449069Y49836D02*
G03*
X449069Y49836I-800J0D01*
G01*
X454975Y38025D02*
G03*
X454975Y38025I-800J0D01*
G01*
X449069Y26214D02*
G03*
X449069Y26214I-800J0D01*
G01*
X454975Y14403D02*
G03*
X454975Y14403I-800J0D01*
G01*
X449069Y2592D02*
G03*
X449069Y2592I-800J0D01*
G01*
X437258Y356923D02*
G03*
X437258Y356923I-800J0D01*
G01*
Y333301D02*
G03*
X437258Y333301I-800J0D01*
G01*
Y309679D02*
G03*
X437258Y309679I-800J0D01*
G01*
X443164Y297868D02*
G03*
X443164Y297868I-800J0D01*
G01*
Y250624D02*
G03*
X443164Y250624I-800J0D01*
G01*
X437258Y167947D02*
G03*
X437258Y167947I-800J0D01*
G01*
Y73458D02*
G03*
X437258Y73458I-800J0D01*
G01*
Y49836D02*
G03*
X437258Y49836I-800J0D01*
G01*
X443164Y38025D02*
G03*
X443164Y38025I-800J0D01*
G01*
X437258Y26214D02*
G03*
X437258Y26214I-800J0D01*
G01*
X443164Y14403D02*
G03*
X443164Y14403I-800J0D01*
G01*
X437258Y2592D02*
G03*
X437258Y2592I-800J0D01*
G01*
X431353Y463222D02*
G03*
X431353Y463222I-800J0D01*
G01*
X425447Y451411D02*
G03*
X425447Y451411I-800J0D01*
G01*
Y427789D02*
G03*
X425447Y427789I-800J0D01*
G01*
X431353Y297868D02*
G03*
X431353Y297868I-800J0D01*
G01*
Y274246D02*
G03*
X431353Y274246I-800J0D01*
G01*
X425447Y262435D02*
G03*
X425447Y262435I-800J0D01*
G01*
X431353Y250624D02*
G03*
X431353Y250624I-800J0D01*
G01*
X425447Y238813D02*
G03*
X425447Y238813I-800J0D01*
G01*
Y49836D02*
G03*
X425447Y49836I-800J0D01*
G01*
X431353Y38025D02*
G03*
X431353Y38025I-800J0D01*
G01*
X425447Y26214D02*
G03*
X425447Y26214I-800J0D01*
G01*
X431353Y14403D02*
G03*
X431353Y14403I-800J0D01*
G01*
X425447Y2592D02*
G03*
X425447Y2592I-800J0D01*
G01*
X413636Y451411D02*
G03*
X413636Y451411I-800J0D01*
G01*
X419542Y297868D02*
G03*
X419542Y297868I-800J0D01*
G01*
Y274246D02*
G03*
X419542Y274246I-800J0D01*
G01*
Y250624D02*
G03*
X419542Y250624I-800J0D01*
G01*
X413636Y167947D02*
G03*
X413636Y167947I-800J0D01*
G01*
X419542Y156135D02*
G03*
X419542Y156135I-800J0D01*
G01*
X413636Y144325D02*
G03*
X413636Y144325I-800J0D01*
G01*
X419542Y132513D02*
G03*
X419542Y132513I-800J0D01*
G01*
X413636Y120702D02*
G03*
X413636Y120702I-800J0D01*
G01*
X419542Y108891D02*
G03*
X419542Y108891I-800J0D01*
G01*
X413636Y97080D02*
G03*
X413636Y97080I-800J0D01*
G01*
X419542Y85269D02*
G03*
X419542Y85269I-800J0D01*
G01*
X413636Y73458D02*
G03*
X413636Y73458I-800J0D01*
G01*
X419542Y61647D02*
G03*
X419542Y61647I-800J0D01*
G01*
X413636Y49836D02*
G03*
X413636Y49836I-800J0D01*
G01*
X419542Y38025D02*
G03*
X419542Y38025I-800J0D01*
G01*
X413636Y26214D02*
G03*
X413636Y26214I-800J0D01*
G01*
X419542Y14403D02*
G03*
X419542Y14403I-800J0D01*
G01*
X413636Y2592D02*
G03*
X413636Y2592I-800J0D01*
G01*
X401825Y451411D02*
G03*
X401825Y451411I-800J0D01*
G01*
Y404167D02*
G03*
X401825Y404167I-800J0D01*
G01*
Y309679D02*
G03*
X401825Y309679I-800J0D01*
G01*
X407731Y297868D02*
G03*
X407731Y297868I-800J0D01*
G01*
X401825Y286057D02*
G03*
X401825Y286057I-800J0D01*
G01*
X407731Y274246D02*
G03*
X407731Y274246I-800J0D01*
G01*
X401825Y262435D02*
G03*
X401825Y262435I-800J0D01*
G01*
X407731Y250624D02*
G03*
X407731Y250624I-800J0D01*
G01*
X401825Y238813D02*
G03*
X401825Y238813I-800J0D01*
G01*
X407731Y227002D02*
G03*
X407731Y227002I-800J0D01*
G01*
Y203380D02*
G03*
X407731Y203380I-800J0D01*
G01*
X401825Y191569D02*
G03*
X401825Y191569I-800J0D01*
G01*
X407731Y179757D02*
G03*
X407731Y179757I-800J0D01*
G01*
X401825Y167947D02*
G03*
X401825Y167947I-800J0D01*
G01*
X407731Y156135D02*
G03*
X407731Y156135I-800J0D01*
G01*
X401825Y144325D02*
G03*
X401825Y144325I-800J0D01*
G01*
X407731Y132513D02*
G03*
X407731Y132513I-800J0D01*
G01*
X401825Y120702D02*
G03*
X401825Y120702I-800J0D01*
G01*
X407731Y108891D02*
G03*
X407731Y108891I-800J0D01*
G01*
X401825Y97080D02*
G03*
X401825Y97080I-800J0D01*
G01*
X407731Y85269D02*
G03*
X407731Y85269I-800J0D01*
G01*
X401825Y73458D02*
G03*
X401825Y73458I-800J0D01*
G01*
X407731Y61647D02*
G03*
X407731Y61647I-800J0D01*
G01*
X401825Y49836D02*
G03*
X401825Y49836I-800J0D01*
G01*
X407731Y38025D02*
G03*
X407731Y38025I-800J0D01*
G01*
X401825Y26214D02*
G03*
X401825Y26214I-800J0D01*
G01*
X407731Y14403D02*
G03*
X407731Y14403I-800J0D01*
G01*
X401825Y2592D02*
G03*
X401825Y2592I-800J0D01*
G01*
X395920Y463222D02*
G03*
X395920Y463222I-800J0D01*
G01*
X390014Y451411D02*
G03*
X390014Y451411I-800J0D01*
G01*
Y333301D02*
G03*
X390014Y333301I-800J0D01*
G01*
Y309679D02*
G03*
X390014Y309679I-800J0D01*
G01*
X395920Y297868D02*
G03*
X395920Y297868I-800J0D01*
G01*
X390014Y286057D02*
G03*
X390014Y286057I-800J0D01*
G01*
X395920Y274246D02*
G03*
X395920Y274246I-800J0D01*
G01*
Y250624D02*
G03*
X395920Y250624I-800J0D01*
G01*
X390014Y238813D02*
G03*
X390014Y238813I-800J0D01*
G01*
X395920Y227002D02*
G03*
X395920Y227002I-800J0D01*
G01*
Y203380D02*
G03*
X395920Y203380I-800J0D01*
G01*
X390014Y191569D02*
G03*
X390014Y191569I-800J0D01*
G01*
X395920Y179757D02*
G03*
X395920Y179757I-800J0D01*
G01*
X390014Y167947D02*
G03*
X390014Y167947I-800J0D01*
G01*
X395920Y156135D02*
G03*
X395920Y156135I-800J0D01*
G01*
X390014Y144325D02*
G03*
X390014Y144325I-800J0D01*
G01*
X395920Y132513D02*
G03*
X395920Y132513I-800J0D01*
G01*
X390014Y120702D02*
G03*
X390014Y120702I-800J0D01*
G01*
X395920Y108891D02*
G03*
X395920Y108891I-800J0D01*
G01*
X390014Y97080D02*
G03*
X390014Y97080I-800J0D01*
G01*
X395920Y85269D02*
G03*
X395920Y85269I-800J0D01*
G01*
X390014Y73458D02*
G03*
X390014Y73458I-800J0D01*
G01*
X395920Y61647D02*
G03*
X395920Y61647I-800J0D01*
G01*
X390014Y49836D02*
G03*
X390014Y49836I-800J0D01*
G01*
X395920Y38025D02*
G03*
X395920Y38025I-800J0D01*
G01*
X390014Y26214D02*
G03*
X390014Y26214I-800J0D01*
G01*
X395920Y14403D02*
G03*
X395920Y14403I-800J0D01*
G01*
X390014Y2592D02*
G03*
X390014Y2592I-800J0D01*
G01*
X384109Y463222D02*
G03*
X384109Y463222I-800J0D01*
G01*
X378203Y451411D02*
G03*
X378203Y451411I-800J0D01*
G01*
Y427789D02*
G03*
X378203Y427789I-800J0D01*
G01*
Y404167D02*
G03*
X378203Y404167I-800J0D01*
G01*
Y380545D02*
G03*
X378203Y380545I-800J0D01*
G01*
X384109Y368734D02*
G03*
X384109Y368734I-800J0D01*
G01*
X378203Y333301D02*
G03*
X378203Y333301I-800J0D01*
G01*
Y309679D02*
G03*
X378203Y309679I-800J0D01*
G01*
Y286057D02*
G03*
X378203Y286057I-800J0D01*
G01*
Y262435D02*
G03*
X378203Y262435I-800J0D01*
G01*
X384109Y250624D02*
G03*
X384109Y250624I-800J0D01*
G01*
X378203Y238813D02*
G03*
X378203Y238813I-800J0D01*
G01*
X384109Y227002D02*
G03*
X384109Y227002I-800J0D01*
G01*
Y203380D02*
G03*
X384109Y203380I-800J0D01*
G01*
X378203Y191569D02*
G03*
X378203Y191569I-800J0D01*
G01*
X384109Y156135D02*
G03*
X384109Y156135I-800J0D01*
G01*
Y132513D02*
G03*
X384109Y132513I-800J0D01*
G01*
Y108891D02*
G03*
X384109Y108891I-800J0D01*
G01*
Y85269D02*
G03*
X384109Y85269I-800J0D01*
G01*
Y61647D02*
G03*
X384109Y61647I-800J0D01*
G01*
Y38025D02*
G03*
X384109Y38025I-800J0D01*
G01*
X378203Y26214D02*
G03*
X378203Y26214I-800J0D01*
G01*
X384109Y14403D02*
G03*
X384109Y14403I-800J0D01*
G01*
X378203Y2592D02*
G03*
X378203Y2592I-800J0D01*
G01*
X372298Y463222D02*
G03*
X372298Y463222I-800J0D01*
G01*
X366392Y451411D02*
G03*
X366392Y451411I-800J0D01*
G01*
Y427789D02*
G03*
X366392Y427789I-800J0D01*
G01*
Y404167D02*
G03*
X366392Y404167I-800J0D01*
G01*
Y380545D02*
G03*
X366392Y380545I-800J0D01*
G01*
X372298Y368734D02*
G03*
X372298Y368734I-800J0D01*
G01*
X366392Y309679D02*
G03*
X366392Y309679I-800J0D01*
G01*
Y286057D02*
G03*
X366392Y286057I-800J0D01*
G01*
X372298Y274246D02*
G03*
X372298Y274246I-800J0D01*
G01*
X366392Y262435D02*
G03*
X366392Y262435I-800J0D01*
G01*
X372298Y250624D02*
G03*
X372298Y250624I-800J0D01*
G01*
X366392Y238813D02*
G03*
X366392Y238813I-800J0D01*
G01*
X372298Y227002D02*
G03*
X372298Y227002I-800J0D01*
G01*
Y203380D02*
G03*
X372298Y203380I-800J0D01*
G01*
X366392Y191569D02*
G03*
X366392Y191569I-800J0D01*
G01*
X372298Y179757D02*
G03*
X372298Y179757I-800J0D01*
G01*
X366392Y167947D02*
G03*
X366392Y167947I-800J0D01*
G01*
X372298Y156135D02*
G03*
X372298Y156135I-800J0D01*
G01*
X366392Y144325D02*
G03*
X366392Y144325I-800J0D01*
G01*
X372298Y132513D02*
G03*
X372298Y132513I-800J0D01*
G01*
X366392Y120702D02*
G03*
X366392Y120702I-800J0D01*
G01*
X372298Y108891D02*
G03*
X372298Y108891I-800J0D01*
G01*
X366392Y97080D02*
G03*
X366392Y97080I-800J0D01*
G01*
X372298Y85269D02*
G03*
X372298Y85269I-800J0D01*
G01*
X366392Y73458D02*
G03*
X366392Y73458I-800J0D01*
G01*
X372298Y61647D02*
G03*
X372298Y61647I-800J0D01*
G01*
X366392Y49836D02*
G03*
X366392Y49836I-800J0D01*
G01*
X372298Y38025D02*
G03*
X372298Y38025I-800J0D01*
G01*
X366392Y26214D02*
G03*
X366392Y26214I-800J0D01*
G01*
X372298Y14403D02*
G03*
X372298Y14403I-800J0D01*
G01*
X366392Y2592D02*
G03*
X366392Y2592I-800J0D01*
G01*
X360487Y463222D02*
G03*
X360487Y463222I-800J0D01*
G01*
X354581Y404167D02*
G03*
X354581Y404167I-800J0D01*
G01*
Y309679D02*
G03*
X354581Y309679I-800J0D01*
G01*
Y286057D02*
G03*
X354581Y286057I-800J0D01*
G01*
X360487Y274246D02*
G03*
X360487Y274246I-800J0D01*
G01*
X354581Y262435D02*
G03*
X354581Y262435I-800J0D01*
G01*
X360487Y250624D02*
G03*
X360487Y250624I-800J0D01*
G01*
X354581Y238813D02*
G03*
X354581Y238813I-800J0D01*
G01*
X360487Y227002D02*
G03*
X360487Y227002I-800J0D01*
G01*
Y203380D02*
G03*
X360487Y203380I-800J0D01*
G01*
X354581Y191569D02*
G03*
X354581Y191569I-800J0D01*
G01*
X360487Y179757D02*
G03*
X360487Y179757I-800J0D01*
G01*
X354581Y167947D02*
G03*
X354581Y167947I-800J0D01*
G01*
X360487Y156135D02*
G03*
X360487Y156135I-800J0D01*
G01*
X354581Y144325D02*
G03*
X354581Y144325I-800J0D01*
G01*
X360487Y132513D02*
G03*
X360487Y132513I-800J0D01*
G01*
X354581Y120702D02*
G03*
X354581Y120702I-800J0D01*
G01*
X360487Y108891D02*
G03*
X360487Y108891I-800J0D01*
G01*
X354581Y97080D02*
G03*
X354581Y97080I-800J0D01*
G01*
X360487Y85269D02*
G03*
X360487Y85269I-800J0D01*
G01*
X354581Y73458D02*
G03*
X354581Y73458I-800J0D01*
G01*
X360487Y61647D02*
G03*
X360487Y61647I-800J0D01*
G01*
X354581Y49836D02*
G03*
X354581Y49836I-800J0D01*
G01*
X360487Y38025D02*
G03*
X360487Y38025I-800J0D01*
G01*
X354581Y26214D02*
G03*
X354581Y26214I-800J0D01*
G01*
X360487Y14403D02*
G03*
X360487Y14403I-800J0D01*
G01*
X354581Y2592D02*
G03*
X354581Y2592I-800J0D01*
G01*
X348676Y463222D02*
G03*
X348676Y463222I-800J0D01*
G01*
X342770Y309679D02*
G03*
X342770Y309679I-800J0D01*
G01*
X348676Y274246D02*
G03*
X348676Y274246I-800J0D01*
G01*
X342770Y262435D02*
G03*
X342770Y262435I-800J0D01*
G01*
X348676Y250624D02*
G03*
X348676Y250624I-800J0D01*
G01*
X342770Y238813D02*
G03*
X342770Y238813I-800J0D01*
G01*
X348676Y227002D02*
G03*
X348676Y227002I-800J0D01*
G01*
Y203380D02*
G03*
X348676Y203380I-800J0D01*
G01*
X342770Y191569D02*
G03*
X342770Y191569I-800J0D01*
G01*
X348676Y179757D02*
G03*
X348676Y179757I-800J0D01*
G01*
X342770Y167947D02*
G03*
X342770Y167947I-800J0D01*
G01*
X348676Y156135D02*
G03*
X348676Y156135I-800J0D01*
G01*
X342770Y144325D02*
G03*
X342770Y144325I-800J0D01*
G01*
X348676Y132513D02*
G03*
X348676Y132513I-800J0D01*
G01*
X342770Y120702D02*
G03*
X342770Y120702I-800J0D01*
G01*
X348676Y108891D02*
G03*
X348676Y108891I-800J0D01*
G01*
X342770Y97080D02*
G03*
X342770Y97080I-800J0D01*
G01*
X348676Y85269D02*
G03*
X348676Y85269I-800J0D01*
G01*
X342770Y73458D02*
G03*
X342770Y73458I-800J0D01*
G01*
X348676Y61647D02*
G03*
X348676Y61647I-800J0D01*
G01*
X342770Y49836D02*
G03*
X342770Y49836I-800J0D01*
G01*
X348676Y38025D02*
G03*
X348676Y38025I-800J0D01*
G01*
Y14403D02*
G03*
X348676Y14403I-800J0D01*
G01*
X342770Y2592D02*
G03*
X342770Y2592I-800J0D01*
G01*
X336865Y463222D02*
G03*
X336865Y463222I-800J0D01*
G01*
Y415978D02*
G03*
X336865Y415978I-800J0D01*
G01*
X330959Y404167D02*
G03*
X330959Y404167I-800J0D01*
G01*
Y380545D02*
G03*
X330959Y380545I-800J0D01*
G01*
X336865Y368734D02*
G03*
X336865Y368734I-800J0D01*
G01*
Y250624D02*
G03*
X336865Y250624I-800J0D01*
G01*
X330959Y238813D02*
G03*
X330959Y238813I-800J0D01*
G01*
X336865Y227002D02*
G03*
X336865Y227002I-800J0D01*
G01*
Y203380D02*
G03*
X336865Y203380I-800J0D01*
G01*
X330959Y191569D02*
G03*
X330959Y191569I-800J0D01*
G01*
X336865Y179757D02*
G03*
X336865Y179757I-800J0D01*
G01*
X330959Y167947D02*
G03*
X330959Y167947I-800J0D01*
G01*
X336865Y156135D02*
G03*
X336865Y156135I-800J0D01*
G01*
X330959Y144325D02*
G03*
X330959Y144325I-800J0D01*
G01*
X336865Y132513D02*
G03*
X336865Y132513I-800J0D01*
G01*
X330959Y120702D02*
G03*
X330959Y120702I-800J0D01*
G01*
X336865Y108891D02*
G03*
X336865Y108891I-800J0D01*
G01*
X330959Y97080D02*
G03*
X330959Y97080I-800J0D01*
G01*
X336865Y85269D02*
G03*
X336865Y85269I-800J0D01*
G01*
X330959Y73458D02*
G03*
X330959Y73458I-800J0D01*
G01*
X336865Y61647D02*
G03*
X336865Y61647I-800J0D01*
G01*
Y38025D02*
G03*
X336865Y38025I-800J0D01*
G01*
X330959Y26214D02*
G03*
X330959Y26214I-800J0D01*
G01*
X336865Y14403D02*
G03*
X336865Y14403I-800J0D01*
G01*
X330959Y2592D02*
G03*
X330959Y2592I-800J0D01*
G01*
X325054Y439600D02*
G03*
X325054Y439600I-800J0D01*
G01*
Y415978D02*
G03*
X325054Y415978I-800J0D01*
G01*
Y368734D02*
G03*
X325054Y368734I-800J0D01*
G01*
X319148Y262435D02*
G03*
X319148Y262435I-800J0D01*
G01*
X325054Y250624D02*
G03*
X325054Y250624I-800J0D01*
G01*
X319148Y238813D02*
G03*
X319148Y238813I-800J0D01*
G01*
X325054Y227002D02*
G03*
X325054Y227002I-800J0D01*
G01*
Y203380D02*
G03*
X325054Y203380I-800J0D01*
G01*
X319148Y191569D02*
G03*
X319148Y191569I-800J0D01*
G01*
X325054Y179757D02*
G03*
X325054Y179757I-800J0D01*
G01*
X319148Y167947D02*
G03*
X319148Y167947I-800J0D01*
G01*
X325054Y156135D02*
G03*
X325054Y156135I-800J0D01*
G01*
X319148Y144325D02*
G03*
X319148Y144325I-800J0D01*
G01*
X325054Y132513D02*
G03*
X325054Y132513I-800J0D01*
G01*
X319148Y120702D02*
G03*
X319148Y120702I-800J0D01*
G01*
X325054Y108891D02*
G03*
X325054Y108891I-800J0D01*
G01*
X319148Y97080D02*
G03*
X319148Y97080I-800J0D01*
G01*
X325054Y85269D02*
G03*
X325054Y85269I-800J0D01*
G01*
X319148Y73458D02*
G03*
X319148Y73458I-800J0D01*
G01*
X325054Y61647D02*
G03*
X325054Y61647I-800J0D01*
G01*
X319148Y49836D02*
G03*
X319148Y49836I-800J0D01*
G01*
Y26214D02*
G03*
X319148Y26214I-800J0D01*
G01*
X325054Y14403D02*
G03*
X325054Y14403I-800J0D01*
G01*
X319148Y2592D02*
G03*
X319148Y2592I-800J0D01*
G01*
X313243Y463222D02*
G03*
X313243Y463222I-800J0D01*
G01*
Y439600D02*
G03*
X313243Y439600I-800J0D01*
G01*
Y415978D02*
G03*
X313243Y415978I-800J0D01*
G01*
X307337Y262435D02*
G03*
X307337Y262435I-800J0D01*
G01*
X313243Y227002D02*
G03*
X313243Y227002I-800J0D01*
G01*
Y203380D02*
G03*
X313243Y203380I-800J0D01*
G01*
X307337Y191569D02*
G03*
X307337Y191569I-800J0D01*
G01*
X313243Y179757D02*
G03*
X313243Y179757I-800J0D01*
G01*
X307337Y167947D02*
G03*
X307337Y167947I-800J0D01*
G01*
X313243Y156135D02*
G03*
X313243Y156135I-800J0D01*
G01*
X307337Y144325D02*
G03*
X307337Y144325I-800J0D01*
G01*
X313243Y132513D02*
G03*
X313243Y132513I-800J0D01*
G01*
X307337Y120702D02*
G03*
X307337Y120702I-800J0D01*
G01*
X313243Y108891D02*
G03*
X313243Y108891I-800J0D01*
G01*
X307337Y97080D02*
G03*
X307337Y97080I-800J0D01*
G01*
X313243Y85269D02*
G03*
X313243Y85269I-800J0D01*
G01*
X307337Y73458D02*
G03*
X307337Y73458I-800J0D01*
G01*
X313243Y61647D02*
G03*
X313243Y61647I-800J0D01*
G01*
X307337Y26214D02*
G03*
X307337Y26214I-800J0D01*
G01*
Y2592D02*
G03*
X307337Y2592I-800J0D01*
G01*
X301432Y463222D02*
G03*
X301432Y463222I-800J0D01*
G01*
Y368734D02*
G03*
X301432Y368734I-800J0D01*
G01*
X295526Y309679D02*
G03*
X295526Y309679I-800J0D01*
G01*
Y262435D02*
G03*
X295526Y262435I-800J0D01*
G01*
X301432Y250624D02*
G03*
X301432Y250624I-800J0D01*
G01*
X295526Y238813D02*
G03*
X295526Y238813I-800J0D01*
G01*
X301432Y227002D02*
G03*
X301432Y227002I-800J0D01*
G01*
X295526Y215191D02*
G03*
X295526Y215191I-800J0D01*
G01*
X301432Y203380D02*
G03*
X301432Y203380I-800J0D01*
G01*
X295526Y191569D02*
G03*
X295526Y191569I-800J0D01*
G01*
X301432Y179757D02*
G03*
X301432Y179757I-800J0D01*
G01*
X295526Y167947D02*
G03*
X295526Y167947I-800J0D01*
G01*
X301432Y156135D02*
G03*
X301432Y156135I-800J0D01*
G01*
X295526Y144325D02*
G03*
X295526Y144325I-800J0D01*
G01*
X301432Y132513D02*
G03*
X301432Y132513I-800J0D01*
G01*
X295526Y120702D02*
G03*
X295526Y120702I-800J0D01*
G01*
X301432Y108891D02*
G03*
X301432Y108891I-800J0D01*
G01*
X295526Y97080D02*
G03*
X295526Y97080I-800J0D01*
G01*
X301432Y85269D02*
G03*
X301432Y85269I-800J0D01*
G01*
X295526Y73458D02*
G03*
X295526Y73458I-800J0D01*
G01*
Y26214D02*
G03*
X295526Y26214I-800J0D01*
G01*
Y2592D02*
G03*
X295526Y2592I-800J0D01*
G01*
X289621Y463222D02*
G03*
X289621Y463222I-800J0D01*
G01*
Y392356D02*
G03*
X289621Y392356I-800J0D01*
G01*
X283715Y380545D02*
G03*
X283715Y380545I-800J0D01*
G01*
X289621Y368734D02*
G03*
X289621Y368734I-800J0D01*
G01*
X283715Y262435D02*
G03*
X283715Y262435I-800J0D01*
G01*
X289621Y250624D02*
G03*
X289621Y250624I-800J0D01*
G01*
X283715Y238813D02*
G03*
X283715Y238813I-800J0D01*
G01*
X289621Y227002D02*
G03*
X289621Y227002I-800J0D01*
G01*
X283715Y215191D02*
G03*
X283715Y215191I-800J0D01*
G01*
X289621Y203380D02*
G03*
X289621Y203380I-800J0D01*
G01*
Y179757D02*
G03*
X289621Y179757I-800J0D01*
G01*
Y156135D02*
G03*
X289621Y156135I-800J0D01*
G01*
Y132513D02*
G03*
X289621Y132513I-800J0D01*
G01*
Y108891D02*
G03*
X289621Y108891I-800J0D01*
G01*
Y85269D02*
G03*
X289621Y85269I-800J0D01*
G01*
Y61647D02*
G03*
X289621Y61647I-800J0D01*
G01*
X283715Y49836D02*
G03*
X283715Y49836I-800J0D01*
G01*
Y26214D02*
G03*
X283715Y26214I-800J0D01*
G01*
Y2592D02*
G03*
X283715Y2592I-800J0D01*
G01*
X277810Y463222D02*
G03*
X277810Y463222I-800J0D01*
G01*
Y392356D02*
G03*
X277810Y392356I-800J0D01*
G01*
X271904Y380545D02*
G03*
X271904Y380545I-800J0D01*
G01*
X277810Y368734D02*
G03*
X277810Y368734I-800J0D01*
G01*
Y297868D02*
G03*
X277810Y297868I-800J0D01*
G01*
X271904Y262435D02*
G03*
X271904Y262435I-800J0D01*
G01*
X277810Y250624D02*
G03*
X277810Y250624I-800J0D01*
G01*
X271904Y238813D02*
G03*
X271904Y238813I-800J0D01*
G01*
X277810Y227002D02*
G03*
X277810Y227002I-800J0D01*
G01*
X271904Y215191D02*
G03*
X271904Y215191I-800J0D01*
G01*
X277810Y203380D02*
G03*
X277810Y203380I-800J0D01*
G01*
X271904Y191569D02*
G03*
X271904Y191569I-800J0D01*
G01*
X277810Y179757D02*
G03*
X277810Y179757I-800J0D01*
G01*
Y156135D02*
G03*
X277810Y156135I-800J0D01*
G01*
Y132513D02*
G03*
X277810Y132513I-800J0D01*
G01*
Y108891D02*
G03*
X277810Y108891I-800J0D01*
G01*
Y85269D02*
G03*
X277810Y85269I-800J0D01*
G01*
X271904Y73458D02*
G03*
X271904Y73458I-800J0D01*
G01*
X277810Y61647D02*
G03*
X277810Y61647I-800J0D01*
G01*
X271904Y49836D02*
G03*
X271904Y49836I-800J0D01*
G01*
Y26214D02*
G03*
X271904Y26214I-800J0D01*
G01*
Y2592D02*
G03*
X271904Y2592I-800J0D01*
G01*
X265999Y463222D02*
G03*
X265999Y463222I-800J0D01*
G01*
X260093Y427789D02*
G03*
X260093Y427789I-800J0D01*
G01*
X265999Y392356D02*
G03*
X265999Y392356I-800J0D01*
G01*
X260093Y380545D02*
G03*
X260093Y380545I-800J0D01*
G01*
X265999Y368734D02*
G03*
X265999Y368734I-800J0D01*
G01*
Y274246D02*
G03*
X265999Y274246I-800J0D01*
G01*
Y250624D02*
G03*
X265999Y250624I-800J0D01*
G01*
Y227002D02*
G03*
X265999Y227002I-800J0D01*
G01*
X260093Y215191D02*
G03*
X260093Y215191I-800J0D01*
G01*
X265999Y203380D02*
G03*
X265999Y203380I-800J0D01*
G01*
X260093Y191569D02*
G03*
X260093Y191569I-800J0D01*
G01*
Y167947D02*
G03*
X260093Y167947I-800J0D01*
G01*
X265999Y156135D02*
G03*
X265999Y156135I-800J0D01*
G01*
Y132513D02*
G03*
X265999Y132513I-800J0D01*
G01*
Y108891D02*
G03*
X265999Y108891I-800J0D01*
G01*
Y61647D02*
G03*
X265999Y61647I-800J0D01*
G01*
Y14403D02*
G03*
X265999Y14403I-800J0D01*
G01*
X260093Y2592D02*
G03*
X260093Y2592I-800J0D01*
G01*
X254187Y463222D02*
G03*
X254187Y463222I-800J0D01*
G01*
Y439600D02*
G03*
X254187Y439600I-800J0D01*
G01*
Y392356D02*
G03*
X254187Y392356I-800J0D01*
G01*
X248282Y380545D02*
G03*
X248282Y380545I-800J0D01*
G01*
Y144325D02*
G03*
X248282Y144325I-800J0D01*
G01*
Y26214D02*
G03*
X248282Y26214I-800J0D01*
G01*
Y2592D02*
G03*
X248282Y2592I-800J0D01*
G01*
X236471Y427789D02*
G03*
X236471Y427789I-800J0D01*
G01*
X242376Y392356D02*
G03*
X242376Y392356I-800J0D01*
G01*
X236471Y380545D02*
G03*
X236471Y380545I-800J0D01*
G01*
X242376Y368734D02*
G03*
X242376Y368734I-800J0D01*
G01*
X236471Y333301D02*
G03*
X236471Y333301I-800J0D01*
G01*
Y238813D02*
G03*
X236471Y238813I-800J0D01*
G01*
Y191569D02*
G03*
X236471Y191569I-800J0D01*
G01*
Y167947D02*
G03*
X236471Y167947I-800J0D01*
G01*
Y144325D02*
G03*
X236471Y144325I-800J0D01*
G01*
Y73458D02*
G03*
X236471Y73458I-800J0D01*
G01*
Y26214D02*
G03*
X236471Y26214I-800J0D01*
G01*
Y2592D02*
G03*
X236471Y2592I-800J0D01*
G01*
X230566Y368734D02*
G03*
X230566Y368734I-800J0D01*
G01*
X224660Y356923D02*
G03*
X224660Y356923I-800J0D01*
G01*
X230566Y345112D02*
G03*
X230566Y345112I-800J0D01*
G01*
X224660Y333301D02*
G03*
X224660Y333301I-800J0D01*
G01*
X230566Y321490D02*
G03*
X230566Y321490I-800J0D01*
G01*
Y227002D02*
G03*
X230566Y227002I-800J0D01*
G01*
Y85269D02*
G03*
X230566Y85269I-800J0D01*
G01*
Y61647D02*
G03*
X230566Y61647I-800J0D01*
G01*
X224660Y2592D02*
G03*
X224660Y2592I-800J0D01*
G01*
X212849Y380545D02*
G03*
X212849Y380545I-800J0D01*
G01*
Y356923D02*
G03*
X212849Y356923I-800J0D01*
G01*
X218754Y227002D02*
G03*
X218754Y227002I-800J0D01*
G01*
X212849Y191569D02*
G03*
X212849Y191569I-800J0D01*
G01*
X218754Y156135D02*
G03*
X218754Y156135I-800J0D01*
G01*
Y132513D02*
G03*
X218754Y132513I-800J0D01*
G01*
Y85269D02*
G03*
X218754Y85269I-800J0D01*
G01*
X212849Y73458D02*
G03*
X212849Y73458I-800J0D01*
G01*
Y2592D02*
G03*
X212849Y2592I-800J0D01*
G01*
X201038Y356923D02*
G03*
X201038Y356923I-800J0D01*
G01*
X206943Y203380D02*
G03*
X206943Y203380I-800J0D01*
G01*
X201038Y2592D02*
G03*
X201038Y2592I-800J0D01*
G01*
X195132Y392356D02*
G03*
X195132Y392356I-800J0D01*
G01*
Y227002D02*
G03*
X195132Y227002I-800J0D01*
G01*
Y203380D02*
G03*
X195132Y203380I-800J0D01*
G01*
X189227Y144325D02*
G03*
X189227Y144325I-800J0D01*
G01*
X195132Y108891D02*
G03*
X195132Y108891I-800J0D01*
G01*
X189227Y2592D02*
G03*
X189227Y2592I-800J0D01*
G01*
X183321Y392356D02*
G03*
X183321Y392356I-800J0D01*
G01*
X177416Y309679D02*
G03*
X177416Y309679I-800J0D01*
G01*
X183321Y227002D02*
G03*
X183321Y227002I-800J0D01*
G01*
X177416Y167947D02*
G03*
X177416Y167947I-800J0D01*
G01*
Y97080D02*
G03*
X177416Y97080I-800J0D01*
G01*
Y2592D02*
G03*
X177416Y2592I-800J0D01*
G01*
X171510Y392356D02*
G03*
X171510Y392356I-800J0D01*
G01*
X165605Y215191D02*
G03*
X165605Y215191I-800J0D01*
G01*
X171510Y179757D02*
G03*
X171510Y179757I-800J0D01*
G01*
X165605Y167947D02*
G03*
X165605Y167947I-800J0D01*
G01*
X171510Y108891D02*
G03*
X171510Y108891I-800J0D01*
G01*
X165605Y97080D02*
G03*
X165605Y97080I-800J0D01*
G01*
Y2592D02*
G03*
X165605Y2592I-800J0D01*
G01*
X153794Y215191D02*
G03*
X153794Y215191I-800J0D01*
G01*
Y167947D02*
G03*
X153794Y167947I-800J0D01*
G01*
Y144325D02*
G03*
X153794Y144325I-800J0D01*
G01*
X159699Y108891D02*
G03*
X159699Y108891I-800J0D01*
G01*
X153794Y73458D02*
G03*
X153794Y73458I-800J0D01*
G01*
X159699Y61647D02*
G03*
X159699Y61647I-800J0D01*
G01*
X153794Y2592D02*
G03*
X153794Y2592I-800J0D01*
G01*
X147888Y297868D02*
G03*
X147888Y297868I-800J0D01*
G01*
Y179757D02*
G03*
X147888Y179757I-800J0D01*
G01*
X141983Y167947D02*
G03*
X141983Y167947I-800J0D01*
G01*
Y144325D02*
G03*
X141983Y144325I-800J0D01*
G01*
X147888Y108891D02*
G03*
X147888Y108891I-800J0D01*
G01*
X141983Y97080D02*
G03*
X141983Y97080I-800J0D01*
G01*
X147888Y85269D02*
G03*
X147888Y85269I-800J0D01*
G01*
X141983Y73458D02*
G03*
X141983Y73458I-800J0D01*
G01*
X147888Y61647D02*
G03*
X147888Y61647I-800J0D01*
G01*
X141983Y2592D02*
G03*
X141983Y2592I-800J0D01*
G01*
X136077Y179757D02*
G03*
X136077Y179757I-800J0D01*
G01*
X130172Y167947D02*
G03*
X130172Y167947I-800J0D01*
G01*
Y144325D02*
G03*
X130172Y144325I-800J0D01*
G01*
X136077Y108891D02*
G03*
X136077Y108891I-800J0D01*
G01*
X130172Y97080D02*
G03*
X130172Y97080I-800J0D01*
G01*
X136077Y85269D02*
G03*
X136077Y85269I-800J0D01*
G01*
Y61647D02*
G03*
X136077Y61647I-800J0D01*
G01*
X118361Y97080D02*
G03*
X118361Y97080I-800J0D01*
G01*
X124266Y85269D02*
G03*
X124266Y85269I-800J0D01*
G01*
Y38025D02*
G03*
X124266Y38025I-800J0D01*
G01*
X118361Y26214D02*
G03*
X118361Y26214I-800J0D01*
G01*
X112455Y345112D02*
G03*
X112455Y345112I-800J0D01*
G01*
X106550Y262435D02*
G03*
X106550Y262435I-800J0D01*
G01*
X112455Y179757D02*
G03*
X112455Y179757I-800J0D01*
G01*
X106550Y144325D02*
G03*
X106550Y144325I-800J0D01*
G01*
Y97080D02*
G03*
X106550Y97080I-800J0D01*
G01*
X112455Y85269D02*
G03*
X112455Y85269I-800J0D01*
G01*
X106550Y73458D02*
G03*
X106550Y73458I-800J0D01*
G01*
Y49836D02*
G03*
X106550Y49836I-800J0D01*
G01*
Y26214D02*
G03*
X106550Y26214I-800J0D01*
G01*
X112455Y14403D02*
G03*
X112455Y14403I-800J0D01*
G01*
X100644Y179757D02*
G03*
X100644Y179757I-800J0D01*
G01*
Y156135D02*
G03*
X100644Y156135I-800J0D01*
G01*
X94739Y144325D02*
G03*
X94739Y144325I-800J0D01*
G01*
X100644Y108891D02*
G03*
X100644Y108891I-800J0D01*
G01*
X94739Y97080D02*
G03*
X94739Y97080I-800J0D01*
G01*
X100644Y85269D02*
G03*
X100644Y85269I-800J0D01*
G01*
X94739Y73458D02*
G03*
X94739Y73458I-800J0D01*
G01*
X100644Y61647D02*
G03*
X100644Y61647I-800J0D01*
G01*
X94739Y49836D02*
G03*
X94739Y49836I-800J0D01*
G01*
X82928Y238813D02*
G03*
X82928Y238813I-800J0D01*
G01*
X88833Y156135D02*
G03*
X88833Y156135I-800J0D01*
G01*
X82928Y144325D02*
G03*
X82928Y144325I-800J0D01*
G01*
X88833Y108891D02*
G03*
X88833Y108891I-800J0D01*
G01*
X82928Y97080D02*
G03*
X82928Y97080I-800J0D01*
G01*
X88833Y85269D02*
G03*
X88833Y85269I-800J0D01*
G01*
X82928Y49836D02*
G03*
X82928Y49836I-800J0D01*
G01*
X77022Y179757D02*
G03*
X77022Y179757I-800J0D01*
G01*
X71117Y167947D02*
G03*
X71117Y167947I-800J0D01*
G01*
Y144325D02*
G03*
X71117Y144325I-800J0D01*
G01*
Y73458D02*
G03*
X71117Y73458I-800J0D01*
G01*
Y49836D02*
G03*
X71117Y49836I-800J0D01*
G01*
X65211Y345112D02*
G03*
X65211Y345112I-800J0D01*
G01*
X59306Y262435D02*
G03*
X59306Y262435I-800J0D01*
G01*
X65211Y250624D02*
G03*
X65211Y250624I-800J0D01*
G01*
X59306Y238813D02*
G03*
X59306Y238813I-800J0D01*
G01*
X65211Y227002D02*
G03*
X65211Y227002I-800J0D01*
G01*
Y179757D02*
G03*
X65211Y179757I-800J0D01*
G01*
X59306Y2592D02*
G03*
X59306Y2592I-800J0D01*
G01*
X53400Y345112D02*
G03*
X53400Y345112I-800J0D01*
G01*
X47495Y262435D02*
G03*
X47495Y262435I-800J0D01*
G01*
Y238813D02*
G03*
X47495Y238813I-800J0D01*
G01*
Y215191D02*
G03*
X47495Y215191I-800J0D01*
G01*
X53400Y14403D02*
G03*
X53400Y14403I-800J0D01*
G01*
X47495Y2592D02*
G03*
X47495Y2592I-800J0D01*
G01*
X41589Y250624D02*
G03*
X41589Y250624I-800J0D01*
G01*
X35684Y238813D02*
G03*
X35684Y238813I-800J0D01*
G01*
X41589Y227002D02*
G03*
X41589Y227002I-800J0D01*
G01*
Y14403D02*
G03*
X41589Y14403I-800J0D01*
G01*
X35684Y2592D02*
G03*
X35684Y2592I-800J0D01*
G01*
X29778Y250624D02*
G03*
X29778Y250624I-800J0D01*
G01*
X23873Y238813D02*
G03*
X23873Y238813I-800J0D01*
G01*
X29778Y227002D02*
G03*
X29778Y227002I-800J0D01*
G01*
Y14403D02*
G03*
X29778Y14403I-800J0D01*
G01*
X23873Y2592D02*
G03*
X23873Y2592I-800J0D01*
G01*
X12062Y333301D02*
G03*
X12062Y333301I-800J0D01*
G01*
X17967Y227002D02*
G03*
X17967Y227002I-800J0D01*
G01*
X12062Y2592D02*
G03*
X12062Y2592I-800J0D01*
G01*
X96886Y423819D02*
G03*
X96886Y423819I-800J0D01*
G01*
X101194Y425984D02*
G03*
X101194Y425984I-800J0D01*
G01*
X81508Y411810D02*
G03*
X81508Y411810I-800J0D01*
G01*
X81902Y431495D02*
G03*
X81902Y431495I-800J0D01*
G01*
X63005Y416535D02*
G03*
X63005Y416535I-800J0D01*
G01*
X4737Y359449D02*
G03*
X4737Y359449I-800J0D01*
G01*
X4711Y355657D02*
G03*
X4711Y355657I-800J0D01*
G01*
X208751Y417237D02*
G03*
X208751Y417237I-800J0D01*
G01*
X164766Y363381D02*
G03*
X164766Y363381I-800J0D01*
G01*
X30721Y359055D02*
G03*
X30721Y359055I-800J0D01*
G01*
X86233Y355906D02*
G03*
X86233Y355906I-800J0D01*
G01*
X22060Y370472D02*
G03*
X22060Y370472I-800J0D01*
G01*
X26787Y386609D02*
G03*
X26787Y386609I-800J0D01*
G01*
X73241Y348425D02*
G03*
X73241Y348425I-800J0D01*
G01*
X20091Y323622D02*
G03*
X20091Y323622I-800J0D01*
G01*
X183083Y338583D02*
G03*
X183083Y338583I-800J0D01*
G01*
X166942Y312992D02*
G03*
X166942Y312992I-800J0D01*
G01*
X244107Y410236D02*
G03*
X244107Y410236I-800J0D01*
G01*
X327178Y311024D02*
G03*
X327178Y311024I-800J0D01*
G01*
X329934Y305118D02*
G03*
X329934Y305118I-800J0D01*
G01*
X262420Y431982D02*
G03*
X262420Y431982I-800J0D01*
G01*
X276391Y358268D02*
G03*
X276391Y358268I-800J0D01*
G01*
X324028Y349606D02*
G03*
X324028Y349606I-800J0D01*
G01*
X325997Y354724D02*
G03*
X325997Y354724I-800J0D01*
G01*
X327178Y348425D02*
G03*
X327178Y348425I-800J0D01*
G01*
X201587Y453937D02*
G03*
X201587Y453937I-800J0D01*
G01*
X159855Y443307D02*
G03*
X159855Y443307I-800J0D01*
G01*
X201981Y400394D02*
G03*
X201981Y400394I-800J0D01*
G01*
X313792Y384646D02*
G03*
X313792Y384646I-800J0D01*
G01*
X180721Y133268D02*
G03*
X180721Y133268I-800J0D01*
G01*
X215367Y390551D02*
G03*
X215367Y390551I-800J0D01*
G01*
X186627Y374803D02*
G03*
X186627Y374803I-800J0D01*
G01*
X393139Y438756D02*
G03*
X393139Y438756I-800J0D01*
G01*
X414579Y430709D02*
G03*
X414579Y430709I-800J0D01*
G01*
X430328Y437795D02*
G03*
X430328Y437795I-800J0D01*
G01*
X418123Y399606D02*
G03*
X418123Y399606I-800J0D01*
G01*
X83136Y227202D02*
G03*
X83136Y227202I-800J0D01*
G01*
X51587Y309842D02*
G03*
X51587Y309842I-800J0D01*
G01*
X214580Y256299D02*
G03*
X214580Y256299I-800J0D01*
G01*
X218516Y255512D02*
G03*
X218516Y255512I-800J0D01*
G01*
X213398Y252756D02*
G03*
X213398Y252756I-800J0D01*
G01*
X211036Y256299D02*
G03*
X211036Y256299I-800J0D01*
G01*
X263005Y345276D02*
G03*
X263005Y345276I-800J0D01*
G01*
X267335Y351181D02*
G03*
X267335Y351181I-800J0D01*
G01*
Y347244D02*
G03*
X267335Y347244I-800J0D01*
G01*
X50800Y190157D02*
G03*
X50800Y190157I-800J0D01*
G01*
X41351Y190551D02*
G03*
X41351Y190551I-800J0D01*
G01*
X33084Y190157D02*
G03*
X33084Y190157I-800J0D01*
G01*
X25603D02*
G03*
X25603Y190157I-800J0D01*
G01*
X18910Y190551D02*
G03*
X18910Y190551I-800J0D01*
G01*
X160645Y452751D02*
G03*
X160645Y452751I-800J0D01*
G01*
X329934Y305118D02*
G03*
X329934Y305118I-800J0D01*
G01*
X326396Y351966D02*
G03*
X326396Y351966I-800J0D01*
G01*
X262217Y349213D02*
G03*
X262217Y349213I-800J0D01*
G01*
X23635Y69685D02*
G03*
X23635Y69685I-800J0D01*
G01*
X51194D02*
G03*
X51194Y69685I-800J0D01*
G01*
X126391Y196457D02*
G03*
X126391Y196457I-800J0D01*
G01*
X121272Y196850D02*
G03*
X121272Y196850I-800J0D01*
G01*
X125960Y204857D02*
G03*
X125960Y204857I-800J0D01*
G01*
X121272Y206299D02*
G03*
X121272Y206299I-800J0D01*
G01*
X124468Y210149D02*
G03*
X124468Y210149I-800J0D01*
G01*
X123708Y193758D02*
G03*
X123708Y193758I-800J0D01*
G01*
X168123Y188189D02*
G03*
X168123Y188189I-800J0D01*
G01*
X165761Y238976D02*
G03*
X165761Y238976I-800J0D01*
G01*
X171663Y238588D02*
G03*
X171663Y238588I-800J0D01*
G01*
X12611Y303543D02*
G03*
X12611Y303543I-800J0D01*
G01*
X158709Y337707D02*
G03*
X158709Y337707I-800J0D01*
G01*
X128753Y325197D02*
G03*
X128753Y325197I-800J0D01*
G01*
X240170Y252362D02*
G03*
X240170Y252362I-800J0D01*
G01*
X301095Y450303D02*
G03*
X301095Y450303I-800J0D01*
G01*
X303162Y58661D02*
G03*
X303162Y58661I-800J0D01*
G01*
X266548Y88583D02*
G03*
X266548Y88583I-800J0D01*
G01*
X299028Y54724D02*
G03*
X299028Y54724I-800J0D01*
G01*
X284265Y53543D02*
G03*
X284265Y53543I-800J0D01*
G01*
X263005Y57480D02*
G03*
X263005Y57480I-800J0D01*
G01*
X421272Y174016D02*
G03*
X421272Y174016I-800J0D01*
G01*
X262611Y25459D02*
G03*
X262611Y25459I-800J0D01*
G01*
X258674Y153937D02*
G03*
X258674Y153937I-800J0D01*
G01*
X263103Y92913D02*
G03*
X263103Y92913I-800J0D01*
G01*
X234265Y176378D02*
G03*
X234265Y176378I-800J0D01*
G01*
X224225Y173819D02*
G03*
X224225Y173819I-800J0D01*
G01*
X209461Y176378D02*
G03*
X209461Y176378I-800J0D01*
G01*
X212058Y156181D02*
G03*
X212058Y156181I-800J0D01*
G01*
X209068Y65354D02*
G03*
X209068Y65354I-800J0D01*
G01*
X201981Y53150D02*
G03*
X201981Y53150I-800J0D01*
G01*
X279147Y193701D02*
G03*
X279147Y193701I-800J0D01*
G01*
X222453Y119291D02*
G03*
X222453Y119291I-800J0D01*
G01*
Y68504D02*
G03*
X222453Y68504I-800J0D01*
G01*
X220091Y24016D02*
G03*
X220091Y24016I-800J0D01*
G01*
Y44882D02*
G03*
X220091Y44882I-800J0D01*
G01*
X201784Y72441D02*
G03*
X201784Y72441I-800J0D01*
G01*
X190957Y115748D02*
G03*
X190957Y115748I-800J0D01*
G01*
X196076Y63779D02*
G03*
X196076Y63779I-800J0D01*
G01*
X199225Y33071D02*
G03*
X199225Y33071I-800J0D01*
G01*
X226391Y198425D02*
G03*
X226391Y198425I-800J0D01*
G01*
X224225Y133465D02*
G03*
X224225Y133465I-800J0D01*
G01*
Y156299D02*
G03*
X224225Y156299I-800J0D01*
G01*
X226784Y28346D02*
G03*
X226784Y28346I-800J0D01*
G01*
X167729Y60630D02*
G03*
X167729Y60630I-800J0D01*
G01*
X171272Y73622D02*
G03*
X171272Y73622I-800J0D01*
G01*
X181902Y99606D02*
G03*
X181902Y99606I-800J0D01*
G01*
X202375Y134920D02*
G03*
X202375Y134920I-800J0D01*
G01*
Y216535D02*
G03*
X202375Y216535I-800J0D01*
G01*
Y117323D02*
G03*
X202375Y117323I-800J0D01*
G01*
X231389Y140671D02*
G03*
X231389Y140671I-800J0D01*
G01*
X379934Y47244D02*
G03*
X379934Y47244I-800J0D01*
G01*
X399225Y194095D02*
G03*
X399225Y194095I-800J0D01*
G01*
X457099Y70866D02*
G03*
X457099Y70866I-800J0D01*
G01*
X457887Y125197D02*
G03*
X457887Y125197I-800J0D01*
G01*
X427572Y59449D02*
G03*
X427572Y59449I-800J0D01*
G01*
X421272Y220079D02*
G03*
X421272Y220079I-800J0D01*
G01*
X413005Y210630D02*
G03*
X413005Y210630I-800J0D01*
G01*
Y184252D02*
G03*
X413005Y184252I-800J0D01*
G01*
X308674Y207878D02*
G03*
X308674Y207878I-800J0D01*
G01*
X473635Y224410D02*
G03*
X473635Y224410I-800J0D01*
G01*
X220485Y181890D02*
G03*
X220485Y181890I-800J0D01*
G01*
X219304Y173622D02*
G03*
X219304Y173622I-800J0D01*
G01*
X270879Y179921D02*
G03*
X270879Y179921I-800J0D01*
G01*
X212217Y106693D02*
G03*
X212217Y106693I-800J0D01*
G01*
X192139Y127165D02*
G03*
X192139Y127165I-800J0D01*
G01*
X231509Y118898D02*
G03*
X231509Y118898I-800J0D01*
G01*
X64579Y159055D02*
G03*
X64579Y159055I-800J0D01*
G01*
X63792Y119291D02*
G03*
X63792Y119291I-800J0D01*
G01*
X44894Y88583D02*
G03*
X44894Y88583I-800J0D01*
G01*
X40957Y127953D02*
G03*
X40957Y127953I-800J0D01*
G01*
X69304Y122835D02*
G03*
X69304Y122835I-800J0D01*
G01*
X68910Y111417D02*
G03*
X68910Y111417I-800J0D01*
G01*
X181509Y122835D02*
G03*
X181509Y122835I-800J0D01*
G01*
X45288Y131890D02*
G03*
X45288Y131890I-800J0D01*
G01*
X51981Y150787D02*
G03*
X51981Y150787I-800J0D01*
G01*
X51277Y79201D02*
G03*
X51277Y79201I-800J0D01*
G01*
X308556Y233633D02*
G03*
X308556Y233633I-800J0D01*
G01*
X259068Y233071D02*
G03*
X259068Y233071I-800J0D01*
G01*
X259509Y241657D02*
G03*
X259509Y241657I-800J0D01*
G01*
X308280Y216142D02*
G03*
X308280Y216142I-800J0D01*
G01*
X178753Y212992D02*
G03*
X178753Y212992I-800J0D01*
G01*
X179147Y233465D02*
G03*
X179147Y233465I-800J0D01*
G01*
X251194Y233858D02*
G03*
X251194Y233858I-800J0D01*
G01*
X302768Y305906D02*
G03*
X302768Y305906I-800J0D01*
G01*
X486627Y75590D02*
G03*
X486627Y75590I-800J0D01*
G01*
X487414Y37008D02*
G03*
X487414Y37008I-800J0D01*
G01*
Y105118D02*
G03*
X487414Y105118I-800J0D01*
G01*
X93320Y222441D02*
G03*
X93320Y222441I-800J0D01*
G01*
X95682Y198031D02*
G03*
X95682Y198031I-800J0D01*
G01*
X196076Y53150D02*
G03*
X196076Y53150I-800J0D01*
G01*
X114579Y69685D02*
G03*
X114579Y69685I-800J0D01*
G01*
X123241Y53543D02*
G03*
X123241Y53543I-800J0D01*
G01*
X130328Y49213D02*
G03*
X130328Y49213I-800J0D01*
G01*
X153556Y54839D02*
G03*
X153556Y54839I-800J0D01*
G01*
X173514Y54602D02*
G03*
X173514Y54602I-800J0D01*
G01*
X174422Y82284D02*
G03*
X174422Y82284I-800J0D01*
G01*
X174829Y36905D02*
G03*
X174829Y36905I-800J0D01*
G01*
X40957Y38583D02*
G03*
X40957Y38583I-800J0D01*
G01*
X197257Y21260D02*
G03*
X197257Y21260I-800J0D01*
G01*
X111048Y38662D02*
G03*
X111048Y38662I-800J0D01*
G01*
X123312Y17047D02*
G03*
X123312Y17047I-800J0D01*
G01*
X299225Y18504D02*
G03*
X299225Y18504I-800J0D01*
G01*
X134265Y5143D02*
G03*
X134265Y5143I-800J0D01*
G01*
X130328Y45079D02*
G03*
X130328Y45079I-800J0D01*
G01*
X153950Y39370D02*
G03*
X153950Y39370I-800J0D01*
G01*
X130721Y38583D02*
G03*
X130721Y38583I-800J0D01*
G01*
X302768Y37008D02*
G03*
X302768Y37008I-800J0D01*
G01*
X198831Y7677D02*
G03*
X198831Y7677I-800J0D01*
G01*
X70418Y8071D02*
G03*
X70418Y8071I-800J0D01*
G01*
X134265Y13410D02*
G03*
X134265Y13410I-800J0D01*
G01*
X79540Y101181D02*
G03*
X79540Y101181I-800J0D01*
G01*
X90170Y76378D02*
G03*
X90170Y76378I-800J0D01*
G01*
X131145Y76485D02*
G03*
X131145Y76485I-800J0D01*
G01*
X312611Y340945D02*
G03*
X312611Y340945I-800J0D01*
G01*
X80721Y12205D02*
G03*
X80721Y12205I-800J0D01*
G01*
X441745Y290551D02*
G03*
X441745Y290551I-800J0D01*
G01*
X469698Y6299D02*
G03*
X469698Y6299I-800J0D01*
G01*
X154737Y130315D02*
G03*
X154737Y130315I-800J0D01*
G01*
X153162Y88583D02*
G03*
X153162Y88583I-800J0D01*
G01*
X153404Y48614D02*
G03*
X153404Y48614I-800J0D01*
G01*
X131115Y62598D02*
G03*
X131115Y62598I-800J0D01*
G01*
X90170Y60630D02*
G03*
X90170Y60630I-800J0D01*
G01*
X141745Y312598D02*
G03*
X141745Y312598I-800J0D01*
G01*
X134658Y308268D02*
G03*
X134658Y308268I-800J0D01*
G01*
X142139Y308661D02*
G03*
X142139Y308661I-800J0D01*
G01*
X137414Y306693D02*
G03*
X137414Y306693I-800J0D01*
G01*
X137808Y314961D02*
G03*
X137808Y314961I-800J0D01*
G01*
X134265Y311811D02*
G03*
X134265Y311811I-800J0D01*
G01*
X75603Y229528D02*
G03*
X75603Y229528I-800J0D01*
G01*
X72847Y232283D02*
G03*
X72847Y232283I-800J0D01*
G01*
X60642Y235039D02*
G03*
X60642Y235039I-800J0D01*
G01*
X75209Y234434D02*
G03*
X75209Y234434I-800J0D01*
G01*
X188764Y313386D02*
G03*
X188764Y313386I-800J0D01*
G01*
X138595Y311024D02*
G03*
X138595Y311024I-800J0D01*
G01*
X119698Y312992D02*
G03*
X119698Y312992I-800J0D01*
G01*
X87938Y252762D02*
G03*
X87938Y252762I-800J0D01*
G01*
X51194Y205118D02*
G03*
X51194Y205118I-800J0D01*
G01*
X51587Y212598D02*
G03*
X51587Y212598I-800J0D01*
G01*
X59461Y79134D02*
G03*
X59461Y79134I-800J0D01*
G01*
X59068Y208661D02*
G03*
X59068Y208661I-800J0D01*
G01*
X74816Y197638D02*
G03*
X74816Y197638I-800J0D01*
G01*
X73635Y216929D02*
G03*
X73635Y216929I-800J0D01*
G01*
Y217323D02*
G03*
X73635Y217323I-800J0D01*
G01*
X76390Y309842D02*
G03*
X76390Y309842I-800J0D01*
G01*
X42926Y216535D02*
G03*
X42926Y216535I-800J0D01*
G01*
X66651Y208774D02*
G03*
X66651Y208774I-800J0D01*
G01*
X103162Y201575D02*
G03*
X103162Y201575I-800J0D01*
G01*
X172847Y224410D02*
G03*
X172847Y224410I-800J0D01*
G01*
X160095Y222027D02*
G03*
X160095Y222027I-800J0D01*
G01*
X87414Y161811D02*
G03*
X87414Y161811I-800J0D01*
G01*
X3148Y259828D02*
G03*
X3148Y259828I-800J0D01*
G01*
X145682Y246457D02*
G03*
X145682Y246457I-800J0D01*
G01*
X145288Y266929D02*
G03*
X145288Y266929I-800J0D01*
G01*
X180328Y246063D02*
G03*
X180328Y246063I-800J0D01*
G01*
X179147Y278346D02*
G03*
X179147Y278346I-800J0D01*
G01*
X199225Y273622D02*
G03*
X199225Y273622I-800J0D01*
G01*
X184265D02*
G03*
X184265Y273622I-800J0D01*
G01*
X183480Y267711D02*
G03*
X183480Y267711I-800J0D01*
G01*
X183871Y284646D02*
G03*
X183871Y284646I-800J0D01*
G01*
X350015Y366137D02*
G03*
X350015Y366137I-800J0D01*
G01*
X434661Y457869D02*
G03*
X434661Y457869I-800J0D01*
G01*
X405134Y329916D02*
G03*
X405134Y329916I-800J0D01*
G01*
X391354Y322436D02*
G03*
X391354Y322436I-800J0D01*
G01*
X298834Y329916D02*
G03*
X298834Y329916I-800J0D01*
G01*
X192929Y371649D02*
G03*
X192929Y371649I-800J0D01*
G01*
X208283Y383066D02*
G03*
X208283Y383066I-800J0D01*
G01*
X269304Y449606D02*
G03*
X269304Y449606I-800J0D01*
G01*
X305131Y455905D02*
G03*
X305131Y455905I-800J0D01*
G01*
X141437Y337624D02*
G03*
X141437Y337624I-800J0D01*
G01*
X189166Y278871D02*
G03*
X189166Y278871I-800J0D01*
G01*
X395291Y398617D02*
G03*
X395291Y398617I-800J0D01*
G01*
X218126Y368893D02*
G03*
X218126Y368893I-800J0D01*
G01*
X218519Y331491D02*
G03*
X218519Y331491I-800J0D01*
G01*
X275606Y321649D02*
G03*
X275606Y321649I-800J0D01*
G01*
X350015Y336215D02*
G03*
X350015Y336215I-800J0D01*
G01*
X153849Y352909D02*
G03*
X153849Y352909I-800J0D01*
G01*
X181166Y331114D02*
G03*
X181166Y331114I-800J0D01*
G01*
X180724Y285034D02*
G03*
X180724Y285034I-800J0D01*
G01*
X354740Y316924D02*
G03*
X354740Y316924I-800J0D01*
G01*
X354923Y377554D02*
G03*
X354923Y377554I-800J0D01*
G01*
X343716Y322042D02*
G03*
X343716Y322042I-800J0D01*
G01*
X394897Y342121D02*
G03*
X394897Y342121I-800J0D01*
G01*
X385449D02*
G03*
X385449Y342121I-800J0D01*
G01*
X385055Y355901D02*
G03*
X385055Y355901I-800J0D01*
G01*
X397949Y348129D02*
G03*
X397949Y348129I-800J0D01*
G01*
X171275Y294877D02*
G03*
X171275Y294877I-800J0D01*
G01*
X150803Y294090D02*
G03*
X150803Y294090I-800J0D01*
G01*
X170882Y268722D02*
G03*
X170882Y268722I-800J0D01*
G01*
X163401Y285428D02*
G03*
X163401Y285428I-800J0D01*
G01*
Y267711D02*
G03*
X163401Y267711I-800J0D01*
G01*
X150409Y268499D02*
G03*
X150409Y268499I-800J0D01*
G01*
X122801Y277948D02*
G03*
X122801Y277948I-800J0D01*
G01*
X157496Y296058D02*
G03*
X157496Y296058I-800J0D01*
G01*
X157102Y278341D02*
G03*
X157102Y278341I-800J0D01*
G01*
X144504D02*
G03*
X144504Y278341I-800J0D01*
G01*
X44504Y380310D02*
G03*
X44504Y380310I-800J0D01*
G01*
X83480Y379523D02*
G03*
X83480Y379523I-800J0D01*
G01*
X168913Y369483D02*
G03*
X168913Y369483I-800J0D01*
G01*
X38992Y354326D02*
G03*
X38992Y354326I-800J0D01*
G01*
X246866Y355901D02*
G03*
X246866Y355901I-800J0D01*
G01*
X410904Y324810D02*
G03*
X410904Y324810I-800J0D01*
G01*
Y342515D02*
G03*
X410904Y342515I-800J0D01*
G01*
X416551Y351963D02*
G03*
X416551Y351963I-800J0D01*
G01*
Y325192D02*
G03*
X416551Y325192I-800J0D01*
G01*
X419110Y348420D02*
G03*
X419110Y348420I-800J0D01*
G01*
X469701Y350389D02*
G03*
X469701Y350389I-800J0D01*
G01*
Y323223D02*
G03*
X469701Y323223I-800J0D01*
G01*
X470094Y301963D02*
G03*
X470094Y301963I-800J0D01*
G01*
X470882Y277554D02*
G03*
X470882Y277554I-800J0D01*
G01*
X469701Y328341D02*
G03*
X469701Y328341I-800J0D01*
G01*
X413659Y354011D02*
G03*
X413659Y354011I-800J0D01*
G01*
X403953Y374011D02*
G03*
X403953Y374011I-800J0D01*
G01*
X415764Y377554D02*
G03*
X415764Y377554I-800J0D01*
G01*
X431512Y360231D02*
G03*
X431512Y360231I-800J0D01*
G01*
X440173Y365349D02*
G03*
X440173Y365349I-800J0D01*
G01*
X464582Y397633D02*
G03*
X464582Y397633I-800J0D01*
G01*
X457346Y396550D02*
G03*
X457346Y396550I-800J0D01*
G01*
X456967Y407686D02*
G03*
X456967Y407686I-800J0D01*
G01*
X439779Y405113D02*
G03*
X439779Y405113I-800J0D01*
G01*
X450671Y401101D02*
G03*
X450671Y401101I-800J0D01*
G01*
X467779Y381083D02*
G03*
X467779Y381083I-800J0D01*
G01*
X470882Y378341D02*
G03*
X470882Y378341I-800J0D01*
G01*
X476787Y419286D02*
G03*
X476787Y419286I-800J0D01*
G01*
X472025Y385784D02*
G03*
X472025Y385784I-800J0D01*
G01*
X469850Y392711D02*
G03*
X469850Y392711I-800J0D01*
G01*
X475571Y437890D02*
G03*
X475571Y437890I-800J0D01*
G01*
X481512Y432278D02*
G03*
X481512Y432278I-800J0D01*
G01*
X476825Y380666D02*
G03*
X476825Y380666I-800J0D01*
G01*
X456512Y379916D02*
G03*
X456512Y379916I-800J0D01*
G01*
X427575Y340940D02*
G03*
X427575Y340940I-800J0D01*
G01*
X434661Y317711D02*
G03*
X434661Y317711I-800J0D01*
G01*
X450857Y346049D02*
G03*
X450857Y346049I-800J0D01*
G01*
X455527Y354719D02*
G03*
X455527Y354719I-800J0D01*
G01*
X433086Y330310D02*
G03*
X433086Y330310I-800J0D01*
G01*
X433480Y348814D02*
G03*
X433480Y348814I-800J0D01*
G01*
X459071Y386609D02*
G03*
X459071Y386609I-800J0D01*
G01*
X427575Y377160D02*
G03*
X427575Y377160I-800J0D01*
G01*
Y368105D02*
G03*
X427575Y368105I-800J0D01*
G01*
X427968Y348026D02*
G03*
X427968Y348026I-800J0D01*
G01*
X406708Y383853D02*
G03*
X406708Y383853I-800J0D01*
G01*
X403953Y395664D02*
G03*
X403953Y395664I-800J0D01*
G01*
X383874Y393696D02*
G03*
X383874Y393696I-800J0D01*
G01*
Y409050D02*
G03*
X383874Y409050I-800J0D01*
G01*
X393716Y415349D02*
G03*
X393716Y415349I-800J0D01*
G01*
X401590Y412987D02*
G03*
X401590Y412987I-800J0D01*
G01*
X418669Y417591D02*
G03*
X418669Y417591I-800J0D01*
G01*
X427968Y412200D02*
G03*
X427968Y412200I-800J0D01*
G01*
Y395664D02*
G03*
X427968Y395664I-800J0D01*
G01*
X411134Y371161D02*
G03*
X411134Y371161I-800J0D01*
G01*
X411395Y360271D02*
G03*
X411395Y360271I-800J0D01*
G01*
X428362Y424798D02*
G03*
X428362Y424798I-800J0D01*
G01*
X446078Y415743D02*
G03*
X446078Y415743I-800J0D01*
G01*
X438992Y420074D02*
G03*
X438992Y420074I-800J0D01*
G01*
X415370Y390153D02*
G03*
X415370Y390153I-800J0D01*
G01*
X410645Y405900D02*
G03*
X410645Y405900I-800J0D01*
G01*
X415370Y423519D02*
G03*
X415370Y423519I-800J0D01*
G01*
X344897Y418105D02*
G03*
X344897Y418105I-800J0D01*
G01*
X367338Y414562D02*
G03*
X367338Y414562I-800J0D01*
G01*
X462661Y387790D02*
G03*
X462661Y387790I-800J0D01*
G01*
X483283Y400536D02*
G03*
X483283Y400536I-800J0D01*
G01*
X480724Y343696D02*
G03*
X480724Y343696I-800J0D01*
G01*
Y386609D02*
G03*
X480724Y386609I-800J0D01*
G01*
X433480Y378341D02*
G03*
X433480Y378341I-800J0D01*
G01*
X458677Y420074D02*
G03*
X458677Y420074I-800J0D01*
G01*
X451638Y420861D02*
G03*
X451638Y420861I-800J0D01*
G01*
X447624Y390627D02*
G03*
X447624Y390627I-800J0D01*
G01*
X434661Y395183D02*
G03*
X434661Y395183I-800J0D01*
G01*
X479543Y287003D02*
G03*
X479543Y287003I-800J0D01*
G01*
X486236Y419680D02*
G03*
X486236Y419680I-800J0D01*
G01*
X485632Y437261D02*
G03*
X485632Y437261I-800J0D01*
G01*
X485842Y311412D02*
G03*
X485842Y311412I-800J0D01*
G01*
X488598Y337003D02*
G03*
X488598Y337003I-800J0D01*
G01*
X491354Y360625D02*
G03*
X491354Y360625I-800J0D01*
G01*
X450803Y372830D02*
G03*
X450803Y372830I-800J0D01*
G01*
X446078Y428735D02*
G03*
X446078Y428735I-800J0D01*
G01*
X453559Y463850D02*
G03*
X453559Y463850I-800J0D01*
G01*
X450015Y456688D02*
G03*
X450015Y456688I-800J0D01*
G01*
X449622Y462987D02*
G03*
X449622Y462987I-800J0D01*
G01*
X235055Y355108D02*
G03*
X235055Y355108I-800J0D01*
G01*
X445803Y437289D02*
G03*
X445803Y437289I-800J0D01*
G01*
X388598Y428341D02*
G03*
X388598Y428341I-800J0D01*
G01*
X400962Y435663D02*
G03*
X400962Y435663I-800J0D01*
G01*
X469748Y413019D02*
G03*
X469748Y413019I-800J0D01*
G01*
X481118Y446452D02*
G03*
X481118Y446452I-800J0D01*
G01*
X463457Y419952D02*
G03*
X463457Y419952I-800J0D01*
G01*
X420882Y447867D02*
G03*
X420882Y447867I-800J0D01*
G01*
X421275Y471255D02*
G03*
X421275Y471255I-800J0D01*
G01*
X420882Y429523D02*
G03*
X420882Y429523I-800J0D01*
G01*
X376758Y389984D02*
G03*
X376758Y389984I-800J0D01*
G01*
X367443Y422042D02*
G03*
X367443Y422042I-800J0D01*
G01*
X337417D02*
G03*
X337417Y422042I-800J0D01*
G01*
X118913Y353538D02*
G03*
X118913Y353538I-800J0D01*
G01*
X336728Y442858D02*
G03*
X336728Y442858I-800J0D01*
G01*
X347653Y446845D02*
G03*
X347653Y446845I-800J0D01*
G01*
X361433Y449601D02*
G03*
X361433Y449601I-800J0D01*
G01*
X160645Y461019D02*
G03*
X160645Y461019I-800J0D01*
G01*
X297257Y441732D02*
G03*
X297257Y441732I-800J0D01*
G01*
X271118Y441339D02*
G03*
X271118Y441339I-800J0D01*
G01*
X288563Y432394D02*
G03*
X288563Y432394I-800J0D01*
G01*
X26787Y333853D02*
G03*
X26787Y333853I-800J0D01*
G01*
X89386Y386609D02*
G03*
X89386Y386609I-800J0D01*
G01*
X79937Y402751D02*
G03*
X79937Y402751I-800J0D01*
G01*
X99748Y395973D02*
G03*
X99748Y395973I-800J0D01*
G01*
X88598Y420861D02*
G03*
X88598Y420861I-800J0D01*
G01*
X89386Y448814D02*
G03*
X89386Y448814I-800J0D01*
G01*
X72850Y424798D02*
G03*
X72850Y424798I-800J0D01*
G01*
X73047Y446649D02*
G03*
X73047Y446649I-800J0D01*
G01*
X81905Y449995D02*
G03*
X81905Y449995I-800J0D01*
G01*
X95291Y460625D02*
G03*
X95291Y460625I-800J0D01*
G01*
X70882D02*
G03*
X70882Y460625I-800J0D01*
G01*
Y453538D02*
G03*
X70882Y453538I-800J0D01*
G01*
X57622Y453580D02*
G03*
X57622Y453580I-800J0D01*
G01*
X44504Y461019D02*
G03*
X44504Y461019I-800J0D01*
G01*
X99622Y468893D02*
G03*
X99622Y468893I-800J0D01*
G01*
X6169Y439360D02*
G03*
X6169Y439360I-800J0D01*
G01*
X63770Y468027D02*
G03*
X63770Y468027I-800J0D01*
G01*
X63795Y442908D02*
G03*
X63795Y442908I-800J0D01*
G01*
X139386Y442121D02*
G03*
X139386Y442121I-800J0D01*
G01*
X138992Y451570D02*
G03*
X138992Y451570I-800J0D01*
G01*
D96*
X47055Y277364D02*
G03*
X47055Y277364I-400J0D01*
G01*
X135439Y37008D02*
G03*
X135439Y37008I-400J0D01*
G01*
X462418Y409641D02*
G03*
X462418Y409641I-400J0D01*
G01*
X444739Y410822D02*
G03*
X444739Y410822I-400J0D01*
G01*
X172054Y379921D02*
G03*
X172054Y379921I-400J0D01*
G01*
X72053Y409842D02*
G03*
X72053Y409842I-400J0D01*
G01*
X85242Y426387D02*
G03*
X85242Y426387I-400J0D01*
G01*
X97644Y430709D02*
G03*
X97644Y430709I-400J0D01*
G01*
X98038Y451968D02*
G03*
X98038Y451968I-400J0D01*
G01*
X140558Y377165D02*
G03*
X140558Y377165I-400J0D01*
G01*
X82683Y291732D02*
G03*
X82683Y291732I-400J0D01*
G01*
X120085Y158268D02*
G03*
X120085Y158268I-400J0D01*
G01*
X490008Y321490D02*
G03*
X490008Y321490I-400J0D01*
G01*
Y297868D02*
G03*
X490008Y297868I-400J0D01*
G01*
X484102Y286057D02*
G03*
X484102Y286057I-400J0D01*
G01*
X490008Y274246D02*
G03*
X490008Y274246I-400J0D01*
G01*
X484102Y262435D02*
G03*
X484102Y262435I-400J0D01*
G01*
X490008Y250624D02*
G03*
X490008Y250624I-400J0D01*
G01*
X484102Y238813D02*
G03*
X484102Y238813I-400J0D01*
G01*
X490008Y227002D02*
G03*
X490008Y227002I-400J0D01*
G01*
X484102Y215191D02*
G03*
X484102Y215191I-400J0D01*
G01*
X490008Y203380D02*
G03*
X490008Y203380I-400J0D01*
G01*
X484102Y191569D02*
G03*
X484102Y191569I-400J0D01*
G01*
X490008Y179757D02*
G03*
X490008Y179757I-400J0D01*
G01*
X484102Y167947D02*
G03*
X484102Y167947I-400J0D01*
G01*
X490008Y156135D02*
G03*
X490008Y156135I-400J0D01*
G01*
X484102Y144325D02*
G03*
X484102Y144325I-400J0D01*
G01*
X490008Y132513D02*
G03*
X490008Y132513I-400J0D01*
G01*
X484102Y120702D02*
G03*
X484102Y120702I-400J0D01*
G01*
X490008Y108891D02*
G03*
X490008Y108891I-400J0D01*
G01*
X484102Y26214D02*
G03*
X484102Y26214I-400J0D01*
G01*
X490008Y14403D02*
G03*
X490008Y14403I-400J0D01*
G01*
X484102Y2592D02*
G03*
X484102Y2592I-400J0D01*
G01*
X472291Y451411D02*
G03*
X472291Y451411I-400J0D01*
G01*
X478197Y274246D02*
G03*
X478197Y274246I-400J0D01*
G01*
X472291Y262435D02*
G03*
X472291Y262435I-400J0D01*
G01*
Y238813D02*
G03*
X472291Y238813I-400J0D01*
G01*
X478197Y227002D02*
G03*
X478197Y227002I-400J0D01*
G01*
Y203380D02*
G03*
X478197Y203380I-400J0D01*
G01*
Y179757D02*
G03*
X478197Y179757I-400J0D01*
G01*
Y156135D02*
G03*
X478197Y156135I-400J0D01*
G01*
Y132513D02*
G03*
X478197Y132513I-400J0D01*
G01*
Y108891D02*
G03*
X478197Y108891I-400J0D01*
G01*
Y85269D02*
G03*
X478197Y85269I-400J0D01*
G01*
Y61647D02*
G03*
X478197Y61647I-400J0D01*
G01*
Y38025D02*
G03*
X478197Y38025I-400J0D01*
G01*
X472291Y2592D02*
G03*
X472291Y2592I-400J0D01*
G01*
X466386Y297868D02*
G03*
X466386Y297868I-400J0D01*
G01*
Y274246D02*
G03*
X466386Y274246I-400J0D01*
G01*
X460480Y262435D02*
G03*
X460480Y262435I-400J0D01*
G01*
X466386Y250624D02*
G03*
X466386Y250624I-400J0D01*
G01*
X460480Y238813D02*
G03*
X460480Y238813I-400J0D01*
G01*
Y215191D02*
G03*
X460480Y215191I-400J0D01*
G01*
X466386Y203380D02*
G03*
X466386Y203380I-400J0D01*
G01*
X460480Y191569D02*
G03*
X460480Y191569I-400J0D01*
G01*
X466386Y179757D02*
G03*
X466386Y179757I-400J0D01*
G01*
X460480Y167947D02*
G03*
X460480Y167947I-400J0D01*
G01*
X466386Y156135D02*
G03*
X466386Y156135I-400J0D01*
G01*
X460480Y144325D02*
G03*
X460480Y144325I-400J0D01*
G01*
X466386Y132513D02*
G03*
X466386Y132513I-400J0D01*
G01*
X460480Y120702D02*
G03*
X460480Y120702I-400J0D01*
G01*
X466386Y108891D02*
G03*
X466386Y108891I-400J0D01*
G01*
X460480Y97080D02*
G03*
X460480Y97080I-400J0D01*
G01*
X466386Y85269D02*
G03*
X466386Y85269I-400J0D01*
G01*
X460480Y73458D02*
G03*
X460480Y73458I-400J0D01*
G01*
X466386Y61647D02*
G03*
X466386Y61647I-400J0D01*
G01*
X460480Y49836D02*
G03*
X460480Y49836I-400J0D01*
G01*
Y26214D02*
G03*
X460480Y26214I-400J0D01*
G01*
X466386Y14403D02*
G03*
X466386Y14403I-400J0D01*
G01*
X460480Y2592D02*
G03*
X460480Y2592I-400J0D01*
G01*
X448669Y333301D02*
G03*
X448669Y333301I-400J0D01*
G01*
Y309679D02*
G03*
X448669Y309679I-400J0D01*
G01*
X454575Y297868D02*
G03*
X454575Y297868I-400J0D01*
G01*
Y274246D02*
G03*
X454575Y274246I-400J0D01*
G01*
X448669Y262435D02*
G03*
X448669Y262435I-400J0D01*
G01*
X454575Y250624D02*
G03*
X454575Y250624I-400J0D01*
G01*
X448669Y238813D02*
G03*
X448669Y238813I-400J0D01*
G01*
Y215191D02*
G03*
X448669Y215191I-400J0D01*
G01*
X454575Y203380D02*
G03*
X454575Y203380I-400J0D01*
G01*
X448669Y191569D02*
G03*
X448669Y191569I-400J0D01*
G01*
X454575Y179757D02*
G03*
X454575Y179757I-400J0D01*
G01*
X448669Y167947D02*
G03*
X448669Y167947I-400J0D01*
G01*
X454575Y156135D02*
G03*
X454575Y156135I-400J0D01*
G01*
X448669Y144325D02*
G03*
X448669Y144325I-400J0D01*
G01*
X454575Y132513D02*
G03*
X454575Y132513I-400J0D01*
G01*
X448669Y120702D02*
G03*
X448669Y120702I-400J0D01*
G01*
X454575Y108891D02*
G03*
X454575Y108891I-400J0D01*
G01*
X448669Y97080D02*
G03*
X448669Y97080I-400J0D01*
G01*
X454575Y85269D02*
G03*
X454575Y85269I-400J0D01*
G01*
X448669Y73458D02*
G03*
X448669Y73458I-400J0D01*
G01*
X454575Y61647D02*
G03*
X454575Y61647I-400J0D01*
G01*
X448669Y49836D02*
G03*
X448669Y49836I-400J0D01*
G01*
X454575Y38025D02*
G03*
X454575Y38025I-400J0D01*
G01*
X448669Y26214D02*
G03*
X448669Y26214I-400J0D01*
G01*
X454575Y14403D02*
G03*
X454575Y14403I-400J0D01*
G01*
X448669Y2592D02*
G03*
X448669Y2592I-400J0D01*
G01*
X436858Y356923D02*
G03*
X436858Y356923I-400J0D01*
G01*
Y333301D02*
G03*
X436858Y333301I-400J0D01*
G01*
Y309679D02*
G03*
X436858Y309679I-400J0D01*
G01*
X442764Y297868D02*
G03*
X442764Y297868I-400J0D01*
G01*
Y250624D02*
G03*
X442764Y250624I-400J0D01*
G01*
X436858Y167947D02*
G03*
X436858Y167947I-400J0D01*
G01*
Y73458D02*
G03*
X436858Y73458I-400J0D01*
G01*
Y49836D02*
G03*
X436858Y49836I-400J0D01*
G01*
X442764Y38025D02*
G03*
X442764Y38025I-400J0D01*
G01*
X436858Y26214D02*
G03*
X436858Y26214I-400J0D01*
G01*
X442764Y14403D02*
G03*
X442764Y14403I-400J0D01*
G01*
X436858Y2592D02*
G03*
X436858Y2592I-400J0D01*
G01*
X430953Y463222D02*
G03*
X430953Y463222I-400J0D01*
G01*
X425047Y451411D02*
G03*
X425047Y451411I-400J0D01*
G01*
Y427789D02*
G03*
X425047Y427789I-400J0D01*
G01*
X430953Y297868D02*
G03*
X430953Y297868I-400J0D01*
G01*
Y274246D02*
G03*
X430953Y274246I-400J0D01*
G01*
X425047Y262435D02*
G03*
X425047Y262435I-400J0D01*
G01*
X430953Y250624D02*
G03*
X430953Y250624I-400J0D01*
G01*
X425047Y238813D02*
G03*
X425047Y238813I-400J0D01*
G01*
Y49836D02*
G03*
X425047Y49836I-400J0D01*
G01*
X430953Y38025D02*
G03*
X430953Y38025I-400J0D01*
G01*
X425047Y26214D02*
G03*
X425047Y26214I-400J0D01*
G01*
X430953Y14403D02*
G03*
X430953Y14403I-400J0D01*
G01*
X425047Y2592D02*
G03*
X425047Y2592I-400J0D01*
G01*
X413236Y451411D02*
G03*
X413236Y451411I-400J0D01*
G01*
X419142Y297868D02*
G03*
X419142Y297868I-400J0D01*
G01*
Y274246D02*
G03*
X419142Y274246I-400J0D01*
G01*
Y250624D02*
G03*
X419142Y250624I-400J0D01*
G01*
X413236Y167947D02*
G03*
X413236Y167947I-400J0D01*
G01*
X419142Y156135D02*
G03*
X419142Y156135I-400J0D01*
G01*
X413236Y144325D02*
G03*
X413236Y144325I-400J0D01*
G01*
X419142Y132513D02*
G03*
X419142Y132513I-400J0D01*
G01*
X413236Y120702D02*
G03*
X413236Y120702I-400J0D01*
G01*
X419142Y108891D02*
G03*
X419142Y108891I-400J0D01*
G01*
X413236Y97080D02*
G03*
X413236Y97080I-400J0D01*
G01*
X419142Y85269D02*
G03*
X419142Y85269I-400J0D01*
G01*
X413236Y73458D02*
G03*
X413236Y73458I-400J0D01*
G01*
X419142Y61647D02*
G03*
X419142Y61647I-400J0D01*
G01*
X413236Y49836D02*
G03*
X413236Y49836I-400J0D01*
G01*
X419142Y38025D02*
G03*
X419142Y38025I-400J0D01*
G01*
X413236Y26214D02*
G03*
X413236Y26214I-400J0D01*
G01*
X419142Y14403D02*
G03*
X419142Y14403I-400J0D01*
G01*
X413236Y2592D02*
G03*
X413236Y2592I-400J0D01*
G01*
X401425Y451411D02*
G03*
X401425Y451411I-400J0D01*
G01*
Y404167D02*
G03*
X401425Y404167I-400J0D01*
G01*
Y309679D02*
G03*
X401425Y309679I-400J0D01*
G01*
X407331Y297868D02*
G03*
X407331Y297868I-400J0D01*
G01*
X401425Y286057D02*
G03*
X401425Y286057I-400J0D01*
G01*
X407331Y274246D02*
G03*
X407331Y274246I-400J0D01*
G01*
X401425Y262435D02*
G03*
X401425Y262435I-400J0D01*
G01*
X407331Y250624D02*
G03*
X407331Y250624I-400J0D01*
G01*
X401425Y238813D02*
G03*
X401425Y238813I-400J0D01*
G01*
X407331Y227002D02*
G03*
X407331Y227002I-400J0D01*
G01*
Y203380D02*
G03*
X407331Y203380I-400J0D01*
G01*
X401425Y191569D02*
G03*
X401425Y191569I-400J0D01*
G01*
X407331Y179757D02*
G03*
X407331Y179757I-400J0D01*
G01*
X401425Y167947D02*
G03*
X401425Y167947I-400J0D01*
G01*
X407331Y156135D02*
G03*
X407331Y156135I-400J0D01*
G01*
X401425Y144325D02*
G03*
X401425Y144325I-400J0D01*
G01*
X407331Y132513D02*
G03*
X407331Y132513I-400J0D01*
G01*
X401425Y120702D02*
G03*
X401425Y120702I-400J0D01*
G01*
X407331Y108891D02*
G03*
X407331Y108891I-400J0D01*
G01*
X401425Y97080D02*
G03*
X401425Y97080I-400J0D01*
G01*
X407331Y85269D02*
G03*
X407331Y85269I-400J0D01*
G01*
X401425Y73458D02*
G03*
X401425Y73458I-400J0D01*
G01*
X407331Y61647D02*
G03*
X407331Y61647I-400J0D01*
G01*
X401425Y49836D02*
G03*
X401425Y49836I-400J0D01*
G01*
X407331Y38025D02*
G03*
X407331Y38025I-400J0D01*
G01*
X401425Y26214D02*
G03*
X401425Y26214I-400J0D01*
G01*
X407331Y14403D02*
G03*
X407331Y14403I-400J0D01*
G01*
X401425Y2592D02*
G03*
X401425Y2592I-400J0D01*
G01*
X395520Y463222D02*
G03*
X395520Y463222I-400J0D01*
G01*
X389614Y451411D02*
G03*
X389614Y451411I-400J0D01*
G01*
Y333301D02*
G03*
X389614Y333301I-400J0D01*
G01*
Y309679D02*
G03*
X389614Y309679I-400J0D01*
G01*
X395520Y297868D02*
G03*
X395520Y297868I-400J0D01*
G01*
X389614Y286057D02*
G03*
X389614Y286057I-400J0D01*
G01*
X395520Y274246D02*
G03*
X395520Y274246I-400J0D01*
G01*
Y250624D02*
G03*
X395520Y250624I-400J0D01*
G01*
X389614Y238813D02*
G03*
X389614Y238813I-400J0D01*
G01*
X395520Y227002D02*
G03*
X395520Y227002I-400J0D01*
G01*
Y203380D02*
G03*
X395520Y203380I-400J0D01*
G01*
X389614Y191569D02*
G03*
X389614Y191569I-400J0D01*
G01*
X395520Y179757D02*
G03*
X395520Y179757I-400J0D01*
G01*
X389614Y167947D02*
G03*
X389614Y167947I-400J0D01*
G01*
X395520Y156135D02*
G03*
X395520Y156135I-400J0D01*
G01*
X389614Y144325D02*
G03*
X389614Y144325I-400J0D01*
G01*
X395520Y132513D02*
G03*
X395520Y132513I-400J0D01*
G01*
X389614Y120702D02*
G03*
X389614Y120702I-400J0D01*
G01*
X395520Y108891D02*
G03*
X395520Y108891I-400J0D01*
G01*
X389614Y97080D02*
G03*
X389614Y97080I-400J0D01*
G01*
X395520Y85269D02*
G03*
X395520Y85269I-400J0D01*
G01*
X389614Y73458D02*
G03*
X389614Y73458I-400J0D01*
G01*
X395520Y61647D02*
G03*
X395520Y61647I-400J0D01*
G01*
X389614Y49836D02*
G03*
X389614Y49836I-400J0D01*
G01*
X395520Y38025D02*
G03*
X395520Y38025I-400J0D01*
G01*
X389614Y26214D02*
G03*
X389614Y26214I-400J0D01*
G01*
X395520Y14403D02*
G03*
X395520Y14403I-400J0D01*
G01*
X389614Y2592D02*
G03*
X389614Y2592I-400J0D01*
G01*
X383709Y463222D02*
G03*
X383709Y463222I-400J0D01*
G01*
X377803Y451411D02*
G03*
X377803Y451411I-400J0D01*
G01*
Y427789D02*
G03*
X377803Y427789I-400J0D01*
G01*
Y404167D02*
G03*
X377803Y404167I-400J0D01*
G01*
Y380545D02*
G03*
X377803Y380545I-400J0D01*
G01*
X383709Y368734D02*
G03*
X383709Y368734I-400J0D01*
G01*
X377803Y333301D02*
G03*
X377803Y333301I-400J0D01*
G01*
Y309679D02*
G03*
X377803Y309679I-400J0D01*
G01*
Y286057D02*
G03*
X377803Y286057I-400J0D01*
G01*
Y262435D02*
G03*
X377803Y262435I-400J0D01*
G01*
X383709Y250624D02*
G03*
X383709Y250624I-400J0D01*
G01*
X377803Y238813D02*
G03*
X377803Y238813I-400J0D01*
G01*
X383709Y227002D02*
G03*
X383709Y227002I-400J0D01*
G01*
Y203380D02*
G03*
X383709Y203380I-400J0D01*
G01*
X377803Y191569D02*
G03*
X377803Y191569I-400J0D01*
G01*
X383709Y156135D02*
G03*
X383709Y156135I-400J0D01*
G01*
Y132513D02*
G03*
X383709Y132513I-400J0D01*
G01*
Y108891D02*
G03*
X383709Y108891I-400J0D01*
G01*
Y85269D02*
G03*
X383709Y85269I-400J0D01*
G01*
Y61647D02*
G03*
X383709Y61647I-400J0D01*
G01*
Y38025D02*
G03*
X383709Y38025I-400J0D01*
G01*
X377803Y26214D02*
G03*
X377803Y26214I-400J0D01*
G01*
X383709Y14403D02*
G03*
X383709Y14403I-400J0D01*
G01*
X377803Y2592D02*
G03*
X377803Y2592I-400J0D01*
G01*
X371898Y463222D02*
G03*
X371898Y463222I-400J0D01*
G01*
X365992Y451411D02*
G03*
X365992Y451411I-400J0D01*
G01*
Y427789D02*
G03*
X365992Y427789I-400J0D01*
G01*
Y404167D02*
G03*
X365992Y404167I-400J0D01*
G01*
Y380545D02*
G03*
X365992Y380545I-400J0D01*
G01*
X371898Y368734D02*
G03*
X371898Y368734I-400J0D01*
G01*
X365992Y309679D02*
G03*
X365992Y309679I-400J0D01*
G01*
Y286057D02*
G03*
X365992Y286057I-400J0D01*
G01*
X371898Y274246D02*
G03*
X371898Y274246I-400J0D01*
G01*
X365992Y262435D02*
G03*
X365992Y262435I-400J0D01*
G01*
X371898Y250624D02*
G03*
X371898Y250624I-400J0D01*
G01*
X365992Y238813D02*
G03*
X365992Y238813I-400J0D01*
G01*
X371898Y227002D02*
G03*
X371898Y227002I-400J0D01*
G01*
Y203380D02*
G03*
X371898Y203380I-400J0D01*
G01*
X365992Y191569D02*
G03*
X365992Y191569I-400J0D01*
G01*
X371898Y179757D02*
G03*
X371898Y179757I-400J0D01*
G01*
X365992Y167947D02*
G03*
X365992Y167947I-400J0D01*
G01*
X371898Y156135D02*
G03*
X371898Y156135I-400J0D01*
G01*
X365992Y144325D02*
G03*
X365992Y144325I-400J0D01*
G01*
X371898Y132513D02*
G03*
X371898Y132513I-400J0D01*
G01*
X365992Y120702D02*
G03*
X365992Y120702I-400J0D01*
G01*
X371898Y108891D02*
G03*
X371898Y108891I-400J0D01*
G01*
X365992Y97080D02*
G03*
X365992Y97080I-400J0D01*
G01*
X371898Y85269D02*
G03*
X371898Y85269I-400J0D01*
G01*
X365992Y73458D02*
G03*
X365992Y73458I-400J0D01*
G01*
X371898Y61647D02*
G03*
X371898Y61647I-400J0D01*
G01*
X365992Y49836D02*
G03*
X365992Y49836I-400J0D01*
G01*
X371898Y38025D02*
G03*
X371898Y38025I-400J0D01*
G01*
X365992Y26214D02*
G03*
X365992Y26214I-400J0D01*
G01*
X371898Y14403D02*
G03*
X371898Y14403I-400J0D01*
G01*
X365992Y2592D02*
G03*
X365992Y2592I-400J0D01*
G01*
X360087Y463222D02*
G03*
X360087Y463222I-400J0D01*
G01*
X354181Y404167D02*
G03*
X354181Y404167I-400J0D01*
G01*
Y309679D02*
G03*
X354181Y309679I-400J0D01*
G01*
Y286057D02*
G03*
X354181Y286057I-400J0D01*
G01*
X360087Y274246D02*
G03*
X360087Y274246I-400J0D01*
G01*
X354181Y262435D02*
G03*
X354181Y262435I-400J0D01*
G01*
X360087Y250624D02*
G03*
X360087Y250624I-400J0D01*
G01*
X354181Y238813D02*
G03*
X354181Y238813I-400J0D01*
G01*
X360087Y227002D02*
G03*
X360087Y227002I-400J0D01*
G01*
Y203380D02*
G03*
X360087Y203380I-400J0D01*
G01*
X354181Y191569D02*
G03*
X354181Y191569I-400J0D01*
G01*
X360087Y179757D02*
G03*
X360087Y179757I-400J0D01*
G01*
X354181Y167947D02*
G03*
X354181Y167947I-400J0D01*
G01*
X360087Y156135D02*
G03*
X360087Y156135I-400J0D01*
G01*
X354181Y144325D02*
G03*
X354181Y144325I-400J0D01*
G01*
X360087Y132513D02*
G03*
X360087Y132513I-400J0D01*
G01*
X354181Y120702D02*
G03*
X354181Y120702I-400J0D01*
G01*
X360087Y108891D02*
G03*
X360087Y108891I-400J0D01*
G01*
X354181Y97080D02*
G03*
X354181Y97080I-400J0D01*
G01*
X360087Y85269D02*
G03*
X360087Y85269I-400J0D01*
G01*
X354181Y73458D02*
G03*
X354181Y73458I-400J0D01*
G01*
X360087Y61647D02*
G03*
X360087Y61647I-400J0D01*
G01*
X354181Y49836D02*
G03*
X354181Y49836I-400J0D01*
G01*
X360087Y38025D02*
G03*
X360087Y38025I-400J0D01*
G01*
X354181Y26214D02*
G03*
X354181Y26214I-400J0D01*
G01*
X360087Y14403D02*
G03*
X360087Y14403I-400J0D01*
G01*
X354181Y2592D02*
G03*
X354181Y2592I-400J0D01*
G01*
X348276Y463222D02*
G03*
X348276Y463222I-400J0D01*
G01*
X342370Y309679D02*
G03*
X342370Y309679I-400J0D01*
G01*
X348276Y274246D02*
G03*
X348276Y274246I-400J0D01*
G01*
X342370Y262435D02*
G03*
X342370Y262435I-400J0D01*
G01*
X348276Y250624D02*
G03*
X348276Y250624I-400J0D01*
G01*
X342370Y238813D02*
G03*
X342370Y238813I-400J0D01*
G01*
X348276Y227002D02*
G03*
X348276Y227002I-400J0D01*
G01*
Y203380D02*
G03*
X348276Y203380I-400J0D01*
G01*
X342370Y191569D02*
G03*
X342370Y191569I-400J0D01*
G01*
X348276Y179757D02*
G03*
X348276Y179757I-400J0D01*
G01*
X342370Y167947D02*
G03*
X342370Y167947I-400J0D01*
G01*
X348276Y156135D02*
G03*
X348276Y156135I-400J0D01*
G01*
X342370Y144325D02*
G03*
X342370Y144325I-400J0D01*
G01*
X348276Y132513D02*
G03*
X348276Y132513I-400J0D01*
G01*
X342370Y120702D02*
G03*
X342370Y120702I-400J0D01*
G01*
X348276Y108891D02*
G03*
X348276Y108891I-400J0D01*
G01*
X342370Y97080D02*
G03*
X342370Y97080I-400J0D01*
G01*
X348276Y85269D02*
G03*
X348276Y85269I-400J0D01*
G01*
X342370Y73458D02*
G03*
X342370Y73458I-400J0D01*
G01*
X348276Y61647D02*
G03*
X348276Y61647I-400J0D01*
G01*
X342370Y49836D02*
G03*
X342370Y49836I-400J0D01*
G01*
X348276Y38025D02*
G03*
X348276Y38025I-400J0D01*
G01*
Y14403D02*
G03*
X348276Y14403I-400J0D01*
G01*
X342370Y2592D02*
G03*
X342370Y2592I-400J0D01*
G01*
X336465Y463222D02*
G03*
X336465Y463222I-400J0D01*
G01*
Y415978D02*
G03*
X336465Y415978I-400J0D01*
G01*
X330559Y404167D02*
G03*
X330559Y404167I-400J0D01*
G01*
Y380545D02*
G03*
X330559Y380545I-400J0D01*
G01*
X336465Y368734D02*
G03*
X336465Y368734I-400J0D01*
G01*
Y250624D02*
G03*
X336465Y250624I-400J0D01*
G01*
X330559Y238813D02*
G03*
X330559Y238813I-400J0D01*
G01*
X336465Y227002D02*
G03*
X336465Y227002I-400J0D01*
G01*
Y203380D02*
G03*
X336465Y203380I-400J0D01*
G01*
X330559Y191569D02*
G03*
X330559Y191569I-400J0D01*
G01*
X336465Y179757D02*
G03*
X336465Y179757I-400J0D01*
G01*
X330559Y167947D02*
G03*
X330559Y167947I-400J0D01*
G01*
X336465Y156135D02*
G03*
X336465Y156135I-400J0D01*
G01*
X330559Y144325D02*
G03*
X330559Y144325I-400J0D01*
G01*
X336465Y132513D02*
G03*
X336465Y132513I-400J0D01*
G01*
X330559Y120702D02*
G03*
X330559Y120702I-400J0D01*
G01*
X336465Y108891D02*
G03*
X336465Y108891I-400J0D01*
G01*
X330559Y97080D02*
G03*
X330559Y97080I-400J0D01*
G01*
X336465Y85269D02*
G03*
X336465Y85269I-400J0D01*
G01*
X330559Y73458D02*
G03*
X330559Y73458I-400J0D01*
G01*
X336465Y61647D02*
G03*
X336465Y61647I-400J0D01*
G01*
Y38025D02*
G03*
X336465Y38025I-400J0D01*
G01*
X330559Y26214D02*
G03*
X330559Y26214I-400J0D01*
G01*
X336465Y14403D02*
G03*
X336465Y14403I-400J0D01*
G01*
X330559Y2592D02*
G03*
X330559Y2592I-400J0D01*
G01*
X324654Y439600D02*
G03*
X324654Y439600I-400J0D01*
G01*
Y415978D02*
G03*
X324654Y415978I-400J0D01*
G01*
Y368734D02*
G03*
X324654Y368734I-400J0D01*
G01*
X318748Y262435D02*
G03*
X318748Y262435I-400J0D01*
G01*
X324654Y250624D02*
G03*
X324654Y250624I-400J0D01*
G01*
X318748Y238813D02*
G03*
X318748Y238813I-400J0D01*
G01*
X324654Y227002D02*
G03*
X324654Y227002I-400J0D01*
G01*
Y203380D02*
G03*
X324654Y203380I-400J0D01*
G01*
X318748Y191569D02*
G03*
X318748Y191569I-400J0D01*
G01*
X324654Y179757D02*
G03*
X324654Y179757I-400J0D01*
G01*
X318748Y167947D02*
G03*
X318748Y167947I-400J0D01*
G01*
X324654Y156135D02*
G03*
X324654Y156135I-400J0D01*
G01*
X318748Y144325D02*
G03*
X318748Y144325I-400J0D01*
G01*
X324654Y132513D02*
G03*
X324654Y132513I-400J0D01*
G01*
X318748Y120702D02*
G03*
X318748Y120702I-400J0D01*
G01*
X324654Y108891D02*
G03*
X324654Y108891I-400J0D01*
G01*
X318748Y97080D02*
G03*
X318748Y97080I-400J0D01*
G01*
X324654Y85269D02*
G03*
X324654Y85269I-400J0D01*
G01*
X318748Y73458D02*
G03*
X318748Y73458I-400J0D01*
G01*
X324654Y61647D02*
G03*
X324654Y61647I-400J0D01*
G01*
X318748Y49836D02*
G03*
X318748Y49836I-400J0D01*
G01*
Y26214D02*
G03*
X318748Y26214I-400J0D01*
G01*
X324654Y14403D02*
G03*
X324654Y14403I-400J0D01*
G01*
X318748Y2592D02*
G03*
X318748Y2592I-400J0D01*
G01*
X312843Y463222D02*
G03*
X312843Y463222I-400J0D01*
G01*
Y439600D02*
G03*
X312843Y439600I-400J0D01*
G01*
Y415978D02*
G03*
X312843Y415978I-400J0D01*
G01*
X306937Y262435D02*
G03*
X306937Y262435I-400J0D01*
G01*
X312843Y227002D02*
G03*
X312843Y227002I-400J0D01*
G01*
Y203380D02*
G03*
X312843Y203380I-400J0D01*
G01*
X306937Y191569D02*
G03*
X306937Y191569I-400J0D01*
G01*
X312843Y179757D02*
G03*
X312843Y179757I-400J0D01*
G01*
X306937Y167947D02*
G03*
X306937Y167947I-400J0D01*
G01*
X312843Y156135D02*
G03*
X312843Y156135I-400J0D01*
G01*
X306937Y144325D02*
G03*
X306937Y144325I-400J0D01*
G01*
X312843Y132513D02*
G03*
X312843Y132513I-400J0D01*
G01*
X306937Y120702D02*
G03*
X306937Y120702I-400J0D01*
G01*
X312843Y108891D02*
G03*
X312843Y108891I-400J0D01*
G01*
X306937Y97080D02*
G03*
X306937Y97080I-400J0D01*
G01*
X312843Y85269D02*
G03*
X312843Y85269I-400J0D01*
G01*
X306937Y73458D02*
G03*
X306937Y73458I-400J0D01*
G01*
X312843Y61647D02*
G03*
X312843Y61647I-400J0D01*
G01*
X306937Y26214D02*
G03*
X306937Y26214I-400J0D01*
G01*
Y2592D02*
G03*
X306937Y2592I-400J0D01*
G01*
X301032Y463222D02*
G03*
X301032Y463222I-400J0D01*
G01*
Y368734D02*
G03*
X301032Y368734I-400J0D01*
G01*
X295126Y309679D02*
G03*
X295126Y309679I-400J0D01*
G01*
Y262435D02*
G03*
X295126Y262435I-400J0D01*
G01*
X301032Y250624D02*
G03*
X301032Y250624I-400J0D01*
G01*
X295126Y238813D02*
G03*
X295126Y238813I-400J0D01*
G01*
X301032Y227002D02*
G03*
X301032Y227002I-400J0D01*
G01*
X295126Y215191D02*
G03*
X295126Y215191I-400J0D01*
G01*
X301032Y203380D02*
G03*
X301032Y203380I-400J0D01*
G01*
X295126Y191569D02*
G03*
X295126Y191569I-400J0D01*
G01*
X301032Y179757D02*
G03*
X301032Y179757I-400J0D01*
G01*
X295126Y167947D02*
G03*
X295126Y167947I-400J0D01*
G01*
X301032Y156135D02*
G03*
X301032Y156135I-400J0D01*
G01*
X295126Y144325D02*
G03*
X295126Y144325I-400J0D01*
G01*
X301032Y132513D02*
G03*
X301032Y132513I-400J0D01*
G01*
X295126Y120702D02*
G03*
X295126Y120702I-400J0D01*
G01*
X301032Y108891D02*
G03*
X301032Y108891I-400J0D01*
G01*
X295126Y97080D02*
G03*
X295126Y97080I-400J0D01*
G01*
X301032Y85269D02*
G03*
X301032Y85269I-400J0D01*
G01*
X295126Y73458D02*
G03*
X295126Y73458I-400J0D01*
G01*
Y26214D02*
G03*
X295126Y26214I-400J0D01*
G01*
Y2592D02*
G03*
X295126Y2592I-400J0D01*
G01*
X289221Y463222D02*
G03*
X289221Y463222I-400J0D01*
G01*
Y392356D02*
G03*
X289221Y392356I-400J0D01*
G01*
X283315Y380545D02*
G03*
X283315Y380545I-400J0D01*
G01*
X289221Y368734D02*
G03*
X289221Y368734I-400J0D01*
G01*
X283315Y262435D02*
G03*
X283315Y262435I-400J0D01*
G01*
X289221Y250624D02*
G03*
X289221Y250624I-400J0D01*
G01*
X283315Y238813D02*
G03*
X283315Y238813I-400J0D01*
G01*
X289221Y227002D02*
G03*
X289221Y227002I-400J0D01*
G01*
X283315Y215191D02*
G03*
X283315Y215191I-400J0D01*
G01*
X289221Y203380D02*
G03*
X289221Y203380I-400J0D01*
G01*
Y179757D02*
G03*
X289221Y179757I-400J0D01*
G01*
Y156135D02*
G03*
X289221Y156135I-400J0D01*
G01*
Y132513D02*
G03*
X289221Y132513I-400J0D01*
G01*
Y108891D02*
G03*
X289221Y108891I-400J0D01*
G01*
Y85269D02*
G03*
X289221Y85269I-400J0D01*
G01*
Y61647D02*
G03*
X289221Y61647I-400J0D01*
G01*
X283315Y49836D02*
G03*
X283315Y49836I-400J0D01*
G01*
Y26214D02*
G03*
X283315Y26214I-400J0D01*
G01*
Y2592D02*
G03*
X283315Y2592I-400J0D01*
G01*
X277410Y463222D02*
G03*
X277410Y463222I-400J0D01*
G01*
Y392356D02*
G03*
X277410Y392356I-400J0D01*
G01*
X271504Y380545D02*
G03*
X271504Y380545I-400J0D01*
G01*
X277410Y368734D02*
G03*
X277410Y368734I-400J0D01*
G01*
Y297868D02*
G03*
X277410Y297868I-400J0D01*
G01*
X271504Y262435D02*
G03*
X271504Y262435I-400J0D01*
G01*
X277410Y250624D02*
G03*
X277410Y250624I-400J0D01*
G01*
X271504Y238813D02*
G03*
X271504Y238813I-400J0D01*
G01*
X277410Y227002D02*
G03*
X277410Y227002I-400J0D01*
G01*
X271504Y215191D02*
G03*
X271504Y215191I-400J0D01*
G01*
X277410Y203380D02*
G03*
X277410Y203380I-400J0D01*
G01*
X271504Y191569D02*
G03*
X271504Y191569I-400J0D01*
G01*
X277410Y179757D02*
G03*
X277410Y179757I-400J0D01*
G01*
Y156135D02*
G03*
X277410Y156135I-400J0D01*
G01*
Y132513D02*
G03*
X277410Y132513I-400J0D01*
G01*
Y108891D02*
G03*
X277410Y108891I-400J0D01*
G01*
Y85269D02*
G03*
X277410Y85269I-400J0D01*
G01*
X271504Y73458D02*
G03*
X271504Y73458I-400J0D01*
G01*
X277410Y61647D02*
G03*
X277410Y61647I-400J0D01*
G01*
X271504Y49836D02*
G03*
X271504Y49836I-400J0D01*
G01*
Y26214D02*
G03*
X271504Y26214I-400J0D01*
G01*
Y2592D02*
G03*
X271504Y2592I-400J0D01*
G01*
X265599Y463222D02*
G03*
X265599Y463222I-400J0D01*
G01*
X259693Y427789D02*
G03*
X259693Y427789I-400J0D01*
G01*
X265599Y392356D02*
G03*
X265599Y392356I-400J0D01*
G01*
X259693Y380545D02*
G03*
X259693Y380545I-400J0D01*
G01*
X265599Y368734D02*
G03*
X265599Y368734I-400J0D01*
G01*
Y274246D02*
G03*
X265599Y274246I-400J0D01*
G01*
Y250624D02*
G03*
X265599Y250624I-400J0D01*
G01*
Y227002D02*
G03*
X265599Y227002I-400J0D01*
G01*
X259693Y215191D02*
G03*
X259693Y215191I-400J0D01*
G01*
X265599Y203380D02*
G03*
X265599Y203380I-400J0D01*
G01*
X259693Y191569D02*
G03*
X259693Y191569I-400J0D01*
G01*
Y167947D02*
G03*
X259693Y167947I-400J0D01*
G01*
X265599Y156135D02*
G03*
X265599Y156135I-400J0D01*
G01*
Y132513D02*
G03*
X265599Y132513I-400J0D01*
G01*
Y108891D02*
G03*
X265599Y108891I-400J0D01*
G01*
Y61647D02*
G03*
X265599Y61647I-400J0D01*
G01*
Y14403D02*
G03*
X265599Y14403I-400J0D01*
G01*
X259693Y2592D02*
G03*
X259693Y2592I-400J0D01*
G01*
X253787Y463222D02*
G03*
X253787Y463222I-400J0D01*
G01*
Y439600D02*
G03*
X253787Y439600I-400J0D01*
G01*
Y392356D02*
G03*
X253787Y392356I-400J0D01*
G01*
X247882Y380545D02*
G03*
X247882Y380545I-400J0D01*
G01*
Y144325D02*
G03*
X247882Y144325I-400J0D01*
G01*
Y26214D02*
G03*
X247882Y26214I-400J0D01*
G01*
Y2592D02*
G03*
X247882Y2592I-400J0D01*
G01*
X236071Y427789D02*
G03*
X236071Y427789I-400J0D01*
G01*
X241976Y392356D02*
G03*
X241976Y392356I-400J0D01*
G01*
X236071Y380545D02*
G03*
X236071Y380545I-400J0D01*
G01*
X241976Y368734D02*
G03*
X241976Y368734I-400J0D01*
G01*
X236071Y333301D02*
G03*
X236071Y333301I-400J0D01*
G01*
Y238813D02*
G03*
X236071Y238813I-400J0D01*
G01*
Y191569D02*
G03*
X236071Y191569I-400J0D01*
G01*
Y167947D02*
G03*
X236071Y167947I-400J0D01*
G01*
Y144325D02*
G03*
X236071Y144325I-400J0D01*
G01*
Y73458D02*
G03*
X236071Y73458I-400J0D01*
G01*
Y26214D02*
G03*
X236071Y26214I-400J0D01*
G01*
Y2592D02*
G03*
X236071Y2592I-400J0D01*
G01*
X230166Y368734D02*
G03*
X230166Y368734I-400J0D01*
G01*
X224260Y356923D02*
G03*
X224260Y356923I-400J0D01*
G01*
X230166Y345112D02*
G03*
X230166Y345112I-400J0D01*
G01*
X224260Y333301D02*
G03*
X224260Y333301I-400J0D01*
G01*
X230166Y321490D02*
G03*
X230166Y321490I-400J0D01*
G01*
Y227002D02*
G03*
X230166Y227002I-400J0D01*
G01*
Y85269D02*
G03*
X230166Y85269I-400J0D01*
G01*
Y61647D02*
G03*
X230166Y61647I-400J0D01*
G01*
X224260Y2592D02*
G03*
X224260Y2592I-400J0D01*
G01*
X212449Y380545D02*
G03*
X212449Y380545I-400J0D01*
G01*
Y356923D02*
G03*
X212449Y356923I-400J0D01*
G01*
X218354Y227002D02*
G03*
X218354Y227002I-400J0D01*
G01*
X212449Y191569D02*
G03*
X212449Y191569I-400J0D01*
G01*
X218354Y156135D02*
G03*
X218354Y156135I-400J0D01*
G01*
Y132513D02*
G03*
X218354Y132513I-400J0D01*
G01*
Y85269D02*
G03*
X218354Y85269I-400J0D01*
G01*
X212449Y73458D02*
G03*
X212449Y73458I-400J0D01*
G01*
Y2592D02*
G03*
X212449Y2592I-400J0D01*
G01*
X200638Y356923D02*
G03*
X200638Y356923I-400J0D01*
G01*
X206543Y203380D02*
G03*
X206543Y203380I-400J0D01*
G01*
X200638Y2592D02*
G03*
X200638Y2592I-400J0D01*
G01*
X194732Y392356D02*
G03*
X194732Y392356I-400J0D01*
G01*
Y227002D02*
G03*
X194732Y227002I-400J0D01*
G01*
Y203380D02*
G03*
X194732Y203380I-400J0D01*
G01*
X188827Y144325D02*
G03*
X188827Y144325I-400J0D01*
G01*
X194732Y108891D02*
G03*
X194732Y108891I-400J0D01*
G01*
X188827Y2592D02*
G03*
X188827Y2592I-400J0D01*
G01*
X182921Y392356D02*
G03*
X182921Y392356I-400J0D01*
G01*
X177016Y309679D02*
G03*
X177016Y309679I-400J0D01*
G01*
X182921Y227002D02*
G03*
X182921Y227002I-400J0D01*
G01*
X177016Y167947D02*
G03*
X177016Y167947I-400J0D01*
G01*
Y97080D02*
G03*
X177016Y97080I-400J0D01*
G01*
Y2592D02*
G03*
X177016Y2592I-400J0D01*
G01*
X171110Y392356D02*
G03*
X171110Y392356I-400J0D01*
G01*
X165205Y215191D02*
G03*
X165205Y215191I-400J0D01*
G01*
X171110Y179757D02*
G03*
X171110Y179757I-400J0D01*
G01*
X165205Y167947D02*
G03*
X165205Y167947I-400J0D01*
G01*
X171110Y108891D02*
G03*
X171110Y108891I-400J0D01*
G01*
X165205Y97080D02*
G03*
X165205Y97080I-400J0D01*
G01*
Y2592D02*
G03*
X165205Y2592I-400J0D01*
G01*
X153394Y215191D02*
G03*
X153394Y215191I-400J0D01*
G01*
Y167947D02*
G03*
X153394Y167947I-400J0D01*
G01*
Y144325D02*
G03*
X153394Y144325I-400J0D01*
G01*
X159299Y108891D02*
G03*
X159299Y108891I-400J0D01*
G01*
X153394Y73458D02*
G03*
X153394Y73458I-400J0D01*
G01*
X159299Y61647D02*
G03*
X159299Y61647I-400J0D01*
G01*
X153394Y2592D02*
G03*
X153394Y2592I-400J0D01*
G01*
X147488Y297868D02*
G03*
X147488Y297868I-400J0D01*
G01*
Y179757D02*
G03*
X147488Y179757I-400J0D01*
G01*
X141583Y167947D02*
G03*
X141583Y167947I-400J0D01*
G01*
Y144325D02*
G03*
X141583Y144325I-400J0D01*
G01*
X147488Y108891D02*
G03*
X147488Y108891I-400J0D01*
G01*
X141583Y97080D02*
G03*
X141583Y97080I-400J0D01*
G01*
X147488Y85269D02*
G03*
X147488Y85269I-400J0D01*
G01*
X141583Y73458D02*
G03*
X141583Y73458I-400J0D01*
G01*
X147488Y61647D02*
G03*
X147488Y61647I-400J0D01*
G01*
X141583Y2592D02*
G03*
X141583Y2592I-400J0D01*
G01*
X135677Y179757D02*
G03*
X135677Y179757I-400J0D01*
G01*
X129772Y167947D02*
G03*
X129772Y167947I-400J0D01*
G01*
Y144325D02*
G03*
X129772Y144325I-400J0D01*
G01*
X135677Y108891D02*
G03*
X135677Y108891I-400J0D01*
G01*
X129772Y97080D02*
G03*
X129772Y97080I-400J0D01*
G01*
X135677Y85269D02*
G03*
X135677Y85269I-400J0D01*
G01*
Y61647D02*
G03*
X135677Y61647I-400J0D01*
G01*
X117961Y97080D02*
G03*
X117961Y97080I-400J0D01*
G01*
X123866Y85269D02*
G03*
X123866Y85269I-400J0D01*
G01*
Y38025D02*
G03*
X123866Y38025I-400J0D01*
G01*
X117961Y26214D02*
G03*
X117961Y26214I-400J0D01*
G01*
X112055Y345112D02*
G03*
X112055Y345112I-400J0D01*
G01*
X106150Y262435D02*
G03*
X106150Y262435I-400J0D01*
G01*
X112055Y179757D02*
G03*
X112055Y179757I-400J0D01*
G01*
X106150Y144325D02*
G03*
X106150Y144325I-400J0D01*
G01*
Y97080D02*
G03*
X106150Y97080I-400J0D01*
G01*
X112055Y85269D02*
G03*
X112055Y85269I-400J0D01*
G01*
X106150Y73458D02*
G03*
X106150Y73458I-400J0D01*
G01*
Y49836D02*
G03*
X106150Y49836I-400J0D01*
G01*
Y26214D02*
G03*
X106150Y26214I-400J0D01*
G01*
X112055Y14403D02*
G03*
X112055Y14403I-400J0D01*
G01*
X100244Y179757D02*
G03*
X100244Y179757I-400J0D01*
G01*
Y156135D02*
G03*
X100244Y156135I-400J0D01*
G01*
X94339Y144325D02*
G03*
X94339Y144325I-400J0D01*
G01*
X100244Y108891D02*
G03*
X100244Y108891I-400J0D01*
G01*
X94339Y97080D02*
G03*
X94339Y97080I-400J0D01*
G01*
X100244Y85269D02*
G03*
X100244Y85269I-400J0D01*
G01*
X94339Y73458D02*
G03*
X94339Y73458I-400J0D01*
G01*
X100244Y61647D02*
G03*
X100244Y61647I-400J0D01*
G01*
X94339Y49836D02*
G03*
X94339Y49836I-400J0D01*
G01*
X82528Y238813D02*
G03*
X82528Y238813I-400J0D01*
G01*
X88433Y156135D02*
G03*
X88433Y156135I-400J0D01*
G01*
X82528Y144325D02*
G03*
X82528Y144325I-400J0D01*
G01*
X88433Y108891D02*
G03*
X88433Y108891I-400J0D01*
G01*
X82528Y97080D02*
G03*
X82528Y97080I-400J0D01*
G01*
X88433Y85269D02*
G03*
X88433Y85269I-400J0D01*
G01*
X82528Y49836D02*
G03*
X82528Y49836I-400J0D01*
G01*
X76622Y179757D02*
G03*
X76622Y179757I-400J0D01*
G01*
X70717Y167947D02*
G03*
X70717Y167947I-400J0D01*
G01*
Y144325D02*
G03*
X70717Y144325I-400J0D01*
G01*
Y73458D02*
G03*
X70717Y73458I-400J0D01*
G01*
Y49836D02*
G03*
X70717Y49836I-400J0D01*
G01*
X64811Y345112D02*
G03*
X64811Y345112I-400J0D01*
G01*
X58906Y262435D02*
G03*
X58906Y262435I-400J0D01*
G01*
X64811Y250624D02*
G03*
X64811Y250624I-400J0D01*
G01*
X58906Y238813D02*
G03*
X58906Y238813I-400J0D01*
G01*
X64811Y227002D02*
G03*
X64811Y227002I-400J0D01*
G01*
Y179757D02*
G03*
X64811Y179757I-400J0D01*
G01*
X58906Y2592D02*
G03*
X58906Y2592I-400J0D01*
G01*
X53000Y345112D02*
G03*
X53000Y345112I-400J0D01*
G01*
X47095Y262435D02*
G03*
X47095Y262435I-400J0D01*
G01*
Y238813D02*
G03*
X47095Y238813I-400J0D01*
G01*
Y215191D02*
G03*
X47095Y215191I-400J0D01*
G01*
X53000Y14403D02*
G03*
X53000Y14403I-400J0D01*
G01*
X47095Y2592D02*
G03*
X47095Y2592I-400J0D01*
G01*
X41189Y250624D02*
G03*
X41189Y250624I-400J0D01*
G01*
X35284Y238813D02*
G03*
X35284Y238813I-400J0D01*
G01*
X41189Y227002D02*
G03*
X41189Y227002I-400J0D01*
G01*
Y14403D02*
G03*
X41189Y14403I-400J0D01*
G01*
X35284Y2592D02*
G03*
X35284Y2592I-400J0D01*
G01*
X29378Y250624D02*
G03*
X29378Y250624I-400J0D01*
G01*
X23473Y238813D02*
G03*
X23473Y238813I-400J0D01*
G01*
X29378Y227002D02*
G03*
X29378Y227002I-400J0D01*
G01*
Y14403D02*
G03*
X29378Y14403I-400J0D01*
G01*
X23473Y2592D02*
G03*
X23473Y2592I-400J0D01*
G01*
X11662Y333301D02*
G03*
X11662Y333301I-400J0D01*
G01*
X17567Y227002D02*
G03*
X17567Y227002I-400J0D01*
G01*
X11662Y2592D02*
G03*
X11662Y2592I-400J0D01*
G01*
X96486Y423819D02*
G03*
X96486Y423819I-400J0D01*
G01*
X100794Y425984D02*
G03*
X100794Y425984I-400J0D01*
G01*
X81108Y411810D02*
G03*
X81108Y411810I-400J0D01*
G01*
X81502Y431495D02*
G03*
X81502Y431495I-400J0D01*
G01*
X62605Y416535D02*
G03*
X62605Y416535I-400J0D01*
G01*
X4337Y359449D02*
G03*
X4337Y359449I-400J0D01*
G01*
X4311Y355657D02*
G03*
X4311Y355657I-400J0D01*
G01*
X208351Y417237D02*
G03*
X208351Y417237I-400J0D01*
G01*
X164366Y363381D02*
G03*
X164366Y363381I-400J0D01*
G01*
X30321Y359055D02*
G03*
X30321Y359055I-400J0D01*
G01*
X85833Y355906D02*
G03*
X85833Y355906I-400J0D01*
G01*
X21660Y370472D02*
G03*
X21660Y370472I-400J0D01*
G01*
X26387Y386609D02*
G03*
X26387Y386609I-400J0D01*
G01*
X72841Y348425D02*
G03*
X72841Y348425I-400J0D01*
G01*
X19691Y323622D02*
G03*
X19691Y323622I-400J0D01*
G01*
X182684Y338583D02*
G03*
X182684Y338583I-400J0D01*
G01*
X166542Y312992D02*
G03*
X166542Y312992I-400J0D01*
G01*
X243707Y410236D02*
G03*
X243707Y410236I-400J0D01*
G01*
X326778Y311024D02*
G03*
X326778Y311024I-400J0D01*
G01*
X329534Y305118D02*
G03*
X329534Y305118I-400J0D01*
G01*
X262020Y431982D02*
G03*
X262020Y431982I-400J0D01*
G01*
X275991Y358268D02*
G03*
X275991Y358268I-400J0D01*
G01*
X323628Y349606D02*
G03*
X323628Y349606I-400J0D01*
G01*
X325597Y354724D02*
G03*
X325597Y354724I-400J0D01*
G01*
X326778Y348425D02*
G03*
X326778Y348425I-400J0D01*
G01*
X201187Y453937D02*
G03*
X201187Y453937I-400J0D01*
G01*
X159455Y443307D02*
G03*
X159455Y443307I-400J0D01*
G01*
X201581Y400394D02*
G03*
X201581Y400394I-400J0D01*
G01*
X313392Y384646D02*
G03*
X313392Y384646I-400J0D01*
G01*
X180321Y133268D02*
G03*
X180321Y133268I-400J0D01*
G01*
X214967Y390551D02*
G03*
X214967Y390551I-400J0D01*
G01*
X186227Y374803D02*
G03*
X186227Y374803I-400J0D01*
G01*
X392739Y438756D02*
G03*
X392739Y438756I-400J0D01*
G01*
X414180Y430709D02*
G03*
X414180Y430709I-400J0D01*
G01*
X429928Y437795D02*
G03*
X429928Y437795I-400J0D01*
G01*
X417723Y399606D02*
G03*
X417723Y399606I-400J0D01*
G01*
X82736Y227202D02*
G03*
X82736Y227202I-400J0D01*
G01*
X51187Y309842D02*
G03*
X51187Y309842I-400J0D01*
G01*
X214179Y256299D02*
G03*
X214179Y256299I-400J0D01*
G01*
X218116Y255512D02*
G03*
X218116Y255512I-400J0D01*
G01*
X212998Y252756D02*
G03*
X212998Y252756I-400J0D01*
G01*
X210636Y256299D02*
G03*
X210636Y256299I-400J0D01*
G01*
X262605Y345276D02*
G03*
X262605Y345276I-400J0D01*
G01*
X266935Y351181D02*
G03*
X266935Y351181I-400J0D01*
G01*
Y347244D02*
G03*
X266935Y347244I-400J0D01*
G01*
X50400Y190157D02*
G03*
X50400Y190157I-400J0D01*
G01*
X40951Y190551D02*
G03*
X40951Y190551I-400J0D01*
G01*
X32684Y190157D02*
G03*
X32684Y190157I-400J0D01*
G01*
X25203D02*
G03*
X25203Y190157I-400J0D01*
G01*
X18510Y190551D02*
G03*
X18510Y190551I-400J0D01*
G01*
X160246Y452751D02*
G03*
X160246Y452751I-400J0D01*
G01*
X329534Y305118D02*
G03*
X329534Y305118I-400J0D01*
G01*
X325996Y351966D02*
G03*
X325996Y351966I-400J0D01*
G01*
X261817Y349213D02*
G03*
X261817Y349213I-400J0D01*
G01*
X23235Y69685D02*
G03*
X23235Y69685I-400J0D01*
G01*
X50794D02*
G03*
X50794Y69685I-400J0D01*
G01*
X125991Y196457D02*
G03*
X125991Y196457I-400J0D01*
G01*
X120872Y196850D02*
G03*
X120872Y196850I-400J0D01*
G01*
X125560Y204857D02*
G03*
X125560Y204857I-400J0D01*
G01*
X120872Y206299D02*
G03*
X120872Y206299I-400J0D01*
G01*
X124068Y210149D02*
G03*
X124068Y210149I-400J0D01*
G01*
X123308Y193758D02*
G03*
X123308Y193758I-400J0D01*
G01*
X167723Y188189D02*
G03*
X167723Y188189I-400J0D01*
G01*
X165361Y238976D02*
G03*
X165361Y238976I-400J0D01*
G01*
X171263Y238588D02*
G03*
X171263Y238588I-400J0D01*
G01*
X12211Y303543D02*
G03*
X12211Y303543I-400J0D01*
G01*
X158309Y337707D02*
G03*
X158309Y337707I-400J0D01*
G01*
X128353Y325197D02*
G03*
X128353Y325197I-400J0D01*
G01*
X239770Y252362D02*
G03*
X239770Y252362I-400J0D01*
G01*
X300695Y450303D02*
G03*
X300695Y450303I-400J0D01*
G01*
X302762Y58661D02*
G03*
X302762Y58661I-400J0D01*
G01*
X266148Y88583D02*
G03*
X266148Y88583I-400J0D01*
G01*
X298628Y54724D02*
G03*
X298628Y54724I-400J0D01*
G01*
X283865Y53543D02*
G03*
X283865Y53543I-400J0D01*
G01*
X262605Y57480D02*
G03*
X262605Y57480I-400J0D01*
G01*
X420872Y174016D02*
G03*
X420872Y174016I-400J0D01*
G01*
X262211Y25459D02*
G03*
X262211Y25459I-400J0D01*
G01*
X258274Y153937D02*
G03*
X258274Y153937I-400J0D01*
G01*
X262703Y92913D02*
G03*
X262703Y92913I-400J0D01*
G01*
X233865Y176378D02*
G03*
X233865Y176378I-400J0D01*
G01*
X223825Y173819D02*
G03*
X223825Y173819I-400J0D01*
G01*
X209061Y176378D02*
G03*
X209061Y176378I-400J0D01*
G01*
X211658Y156181D02*
G03*
X211658Y156181I-400J0D01*
G01*
X208668Y65354D02*
G03*
X208668Y65354I-400J0D01*
G01*
X201581Y53150D02*
G03*
X201581Y53150I-400J0D01*
G01*
X278747Y193701D02*
G03*
X278747Y193701I-400J0D01*
G01*
X222054Y119291D02*
G03*
X222054Y119291I-400J0D01*
G01*
Y68504D02*
G03*
X222054Y68504I-400J0D01*
G01*
X219691Y24016D02*
G03*
X219691Y24016I-400J0D01*
G01*
Y44882D02*
G03*
X219691Y44882I-400J0D01*
G01*
X201384Y72441D02*
G03*
X201384Y72441I-400J0D01*
G01*
X190558Y115748D02*
G03*
X190558Y115748I-400J0D01*
G01*
X195676Y63779D02*
G03*
X195676Y63779I-400J0D01*
G01*
X198825Y33071D02*
G03*
X198825Y33071I-400J0D01*
G01*
X225991Y198425D02*
G03*
X225991Y198425I-400J0D01*
G01*
X223825Y133465D02*
G03*
X223825Y133465I-400J0D01*
G01*
Y156299D02*
G03*
X223825Y156299I-400J0D01*
G01*
X226384Y28346D02*
G03*
X226384Y28346I-400J0D01*
G01*
X167329Y60630D02*
G03*
X167329Y60630I-400J0D01*
G01*
X170872Y73622D02*
G03*
X170872Y73622I-400J0D01*
G01*
X181502Y99606D02*
G03*
X181502Y99606I-400J0D01*
G01*
X201975Y134920D02*
G03*
X201975Y134920I-400J0D01*
G01*
Y216535D02*
G03*
X201975Y216535I-400J0D01*
G01*
Y117323D02*
G03*
X201975Y117323I-400J0D01*
G01*
X230989Y140671D02*
G03*
X230989Y140671I-400J0D01*
G01*
X379534Y47244D02*
G03*
X379534Y47244I-400J0D01*
G01*
X398825Y194095D02*
G03*
X398825Y194095I-400J0D01*
G01*
X456699Y70866D02*
G03*
X456699Y70866I-400J0D01*
G01*
X457487Y125197D02*
G03*
X457487Y125197I-400J0D01*
G01*
X427172Y59449D02*
G03*
X427172Y59449I-400J0D01*
G01*
X420872Y220079D02*
G03*
X420872Y220079I-400J0D01*
G01*
X412605Y210630D02*
G03*
X412605Y210630I-400J0D01*
G01*
Y184252D02*
G03*
X412605Y184252I-400J0D01*
G01*
X308274Y207878D02*
G03*
X308274Y207878I-400J0D01*
G01*
X473235Y224410D02*
G03*
X473235Y224410I-400J0D01*
G01*
X220085Y181890D02*
G03*
X220085Y181890I-400J0D01*
G01*
X218904Y173622D02*
G03*
X218904Y173622I-400J0D01*
G01*
X270479Y179921D02*
G03*
X270479Y179921I-400J0D01*
G01*
X211817Y106693D02*
G03*
X211817Y106693I-400J0D01*
G01*
X191739Y127165D02*
G03*
X191739Y127165I-400J0D01*
G01*
X231109Y118898D02*
G03*
X231109Y118898I-400J0D01*
G01*
X64179Y159055D02*
G03*
X64179Y159055I-400J0D01*
G01*
X63392Y119291D02*
G03*
X63392Y119291I-400J0D01*
G01*
X44495Y88583D02*
G03*
X44495Y88583I-400J0D01*
G01*
X40558Y127953D02*
G03*
X40558Y127953I-400J0D01*
G01*
X68904Y122835D02*
G03*
X68904Y122835I-400J0D01*
G01*
X68510Y111417D02*
G03*
X68510Y111417I-400J0D01*
G01*
X181109Y122835D02*
G03*
X181109Y122835I-400J0D01*
G01*
X44888Y131890D02*
G03*
X44888Y131890I-400J0D01*
G01*
X51581Y150787D02*
G03*
X51581Y150787I-400J0D01*
G01*
X50877Y79201D02*
G03*
X50877Y79201I-400J0D01*
G01*
X308156Y233633D02*
G03*
X308156Y233633I-400J0D01*
G01*
X258668Y233071D02*
G03*
X258668Y233071I-400J0D01*
G01*
X259109Y241657D02*
G03*
X259109Y241657I-400J0D01*
G01*
X307880Y216142D02*
G03*
X307880Y216142I-400J0D01*
G01*
X178353Y212992D02*
G03*
X178353Y212992I-400J0D01*
G01*
X178746Y233465D02*
G03*
X178746Y233465I-400J0D01*
G01*
X250794Y233858D02*
G03*
X250794Y233858I-400J0D01*
G01*
X302368Y305906D02*
G03*
X302368Y305906I-400J0D01*
G01*
X486227Y75590D02*
G03*
X486227Y75590I-400J0D01*
G01*
X487014Y37008D02*
G03*
X487014Y37008I-400J0D01*
G01*
Y105118D02*
G03*
X487014Y105118I-400J0D01*
G01*
X92920Y222441D02*
G03*
X92920Y222441I-400J0D01*
G01*
X95282Y198031D02*
G03*
X95282Y198031I-400J0D01*
G01*
X195676Y53150D02*
G03*
X195676Y53150I-400J0D01*
G01*
X114180Y69685D02*
G03*
X114180Y69685I-400J0D01*
G01*
X122841Y53543D02*
G03*
X122841Y53543I-400J0D01*
G01*
X129928Y49213D02*
G03*
X129928Y49213I-400J0D01*
G01*
X153156Y54839D02*
G03*
X153156Y54839I-400J0D01*
G01*
X173114Y54602D02*
G03*
X173114Y54602I-400J0D01*
G01*
X174022Y82284D02*
G03*
X174022Y82284I-400J0D01*
G01*
X174429Y36905D02*
G03*
X174429Y36905I-400J0D01*
G01*
X40558Y38583D02*
G03*
X40558Y38583I-400J0D01*
G01*
X196857Y21260D02*
G03*
X196857Y21260I-400J0D01*
G01*
X110648Y38662D02*
G03*
X110648Y38662I-400J0D01*
G01*
X122912Y17047D02*
G03*
X122912Y17047I-400J0D01*
G01*
X298825Y18504D02*
G03*
X298825Y18504I-400J0D01*
G01*
X133865Y5143D02*
G03*
X133865Y5143I-400J0D01*
G01*
X129928Y45079D02*
G03*
X129928Y45079I-400J0D01*
G01*
X153550Y39370D02*
G03*
X153550Y39370I-400J0D01*
G01*
X130321Y38583D02*
G03*
X130321Y38583I-400J0D01*
G01*
X302368Y37008D02*
G03*
X302368Y37008I-400J0D01*
G01*
X198432Y7677D02*
G03*
X198432Y7677I-400J0D01*
G01*
X70018Y8071D02*
G03*
X70018Y8071I-400J0D01*
G01*
X133865Y13410D02*
G03*
X133865Y13410I-400J0D01*
G01*
X79140Y101181D02*
G03*
X79140Y101181I-400J0D01*
G01*
X89770Y76378D02*
G03*
X89770Y76378I-400J0D01*
G01*
X130745Y76485D02*
G03*
X130745Y76485I-400J0D01*
G01*
X312211Y340945D02*
G03*
X312211Y340945I-400J0D01*
G01*
X80321Y12205D02*
G03*
X80321Y12205I-400J0D01*
G01*
X441345Y290551D02*
G03*
X441345Y290551I-400J0D01*
G01*
X469298Y6299D02*
G03*
X469298Y6299I-400J0D01*
G01*
X154337Y130315D02*
G03*
X154337Y130315I-400J0D01*
G01*
X152762Y88583D02*
G03*
X152762Y88583I-400J0D01*
G01*
X153004Y48614D02*
G03*
X153004Y48614I-400J0D01*
G01*
X130715Y62598D02*
G03*
X130715Y62598I-400J0D01*
G01*
X89770Y60630D02*
G03*
X89770Y60630I-400J0D01*
G01*
X141345Y312598D02*
G03*
X141345Y312598I-400J0D01*
G01*
X134258Y308268D02*
G03*
X134258Y308268I-400J0D01*
G01*
X141739Y308661D02*
G03*
X141739Y308661I-400J0D01*
G01*
X137014Y306693D02*
G03*
X137014Y306693I-400J0D01*
G01*
X137408Y314961D02*
G03*
X137408Y314961I-400J0D01*
G01*
X133865Y311811D02*
G03*
X133865Y311811I-400J0D01*
G01*
X75203Y229528D02*
G03*
X75203Y229528I-400J0D01*
G01*
X72447Y232283D02*
G03*
X72447Y232283I-400J0D01*
G01*
X60242Y235039D02*
G03*
X60242Y235039I-400J0D01*
G01*
X74809Y234434D02*
G03*
X74809Y234434I-400J0D01*
G01*
X188364Y313386D02*
G03*
X188364Y313386I-400J0D01*
G01*
X138195Y311024D02*
G03*
X138195Y311024I-400J0D01*
G01*
X119298Y312992D02*
G03*
X119298Y312992I-400J0D01*
G01*
X87538Y252762D02*
G03*
X87538Y252762I-400J0D01*
G01*
X50794Y205118D02*
G03*
X50794Y205118I-400J0D01*
G01*
X51187Y212598D02*
G03*
X51187Y212598I-400J0D01*
G01*
X59061Y79134D02*
G03*
X59061Y79134I-400J0D01*
G01*
X58668Y208661D02*
G03*
X58668Y208661I-400J0D01*
G01*
X74416Y197638D02*
G03*
X74416Y197638I-400J0D01*
G01*
X73235Y216929D02*
G03*
X73235Y216929I-400J0D01*
G01*
Y217323D02*
G03*
X73235Y217323I-400J0D01*
G01*
X75990Y309842D02*
G03*
X75990Y309842I-400J0D01*
G01*
X42526Y216535D02*
G03*
X42526Y216535I-400J0D01*
G01*
X66251Y208774D02*
G03*
X66251Y208774I-400J0D01*
G01*
X102762Y201575D02*
G03*
X102762Y201575I-400J0D01*
G01*
X172447Y224410D02*
G03*
X172447Y224410I-400J0D01*
G01*
X159695Y222027D02*
G03*
X159695Y222027I-400J0D01*
G01*
X87014Y161811D02*
G03*
X87014Y161811I-400J0D01*
G01*
X2748Y259828D02*
G03*
X2748Y259828I-400J0D01*
G01*
X145282Y246457D02*
G03*
X145282Y246457I-400J0D01*
G01*
X144888Y266929D02*
G03*
X144888Y266929I-400J0D01*
G01*
X179928Y246063D02*
G03*
X179928Y246063I-400J0D01*
G01*
X178746Y278346D02*
G03*
X178746Y278346I-400J0D01*
G01*
X198825Y273622D02*
G03*
X198825Y273622I-400J0D01*
G01*
X183865D02*
G03*
X183865Y273622I-400J0D01*
G01*
X183080Y267711D02*
G03*
X183080Y267711I-400J0D01*
G01*
X183471Y284646D02*
G03*
X183471Y284646I-400J0D01*
G01*
X349616Y366137D02*
G03*
X349616Y366137I-400J0D01*
G01*
X434261Y457869D02*
G03*
X434261Y457869I-400J0D01*
G01*
X404734Y329916D02*
G03*
X404734Y329916I-400J0D01*
G01*
X390954Y322436D02*
G03*
X390954Y322436I-400J0D01*
G01*
X298434Y329916D02*
G03*
X298434Y329916I-400J0D01*
G01*
X192529Y371649D02*
G03*
X192529Y371649I-400J0D01*
G01*
X207883Y383066D02*
G03*
X207883Y383066I-400J0D01*
G01*
X268904Y449606D02*
G03*
X268904Y449606I-400J0D01*
G01*
X304731Y455905D02*
G03*
X304731Y455905I-400J0D01*
G01*
X141037Y337624D02*
G03*
X141037Y337624I-400J0D01*
G01*
X188766Y278871D02*
G03*
X188766Y278871I-400J0D01*
G01*
X394891Y398617D02*
G03*
X394891Y398617I-400J0D01*
G01*
X217726Y368893D02*
G03*
X217726Y368893I-400J0D01*
G01*
X218120Y331491D02*
G03*
X218120Y331491I-400J0D01*
G01*
X275206Y321649D02*
G03*
X275206Y321649I-400J0D01*
G01*
X349616Y336215D02*
G03*
X349616Y336215I-400J0D01*
G01*
X153449Y352909D02*
G03*
X153449Y352909I-400J0D01*
G01*
X180766Y331114D02*
G03*
X180766Y331114I-400J0D01*
G01*
X180324Y285034D02*
G03*
X180324Y285034I-400J0D01*
G01*
X354340Y316924D02*
G03*
X354340Y316924I-400J0D01*
G01*
X354522Y377554D02*
G03*
X354522Y377554I-400J0D01*
G01*
X343316Y322042D02*
G03*
X343316Y322042I-400J0D01*
G01*
X394497Y342121D02*
G03*
X394497Y342121I-400J0D01*
G01*
X385049D02*
G03*
X385049Y342121I-400J0D01*
G01*
X384655Y355901D02*
G03*
X384655Y355901I-400J0D01*
G01*
X397549Y348129D02*
G03*
X397549Y348129I-400J0D01*
G01*
X170875Y294877D02*
G03*
X170875Y294877I-400J0D01*
G01*
X150403Y294090D02*
G03*
X150403Y294090I-400J0D01*
G01*
X170482Y268722D02*
G03*
X170482Y268722I-400J0D01*
G01*
X163001Y285428D02*
G03*
X163001Y285428I-400J0D01*
G01*
Y267711D02*
G03*
X163001Y267711I-400J0D01*
G01*
X150009Y268499D02*
G03*
X150009Y268499I-400J0D01*
G01*
X122400Y277948D02*
G03*
X122400Y277948I-400J0D01*
G01*
X157096Y296058D02*
G03*
X157096Y296058I-400J0D01*
G01*
X156702Y278341D02*
G03*
X156702Y278341I-400J0D01*
G01*
X144104D02*
G03*
X144104Y278341I-400J0D01*
G01*
X44104Y380310D02*
G03*
X44104Y380310I-400J0D01*
G01*
X83080Y379523D02*
G03*
X83080Y379523I-400J0D01*
G01*
X168513Y369483D02*
G03*
X168513Y369483I-400J0D01*
G01*
X38592Y354326D02*
G03*
X38592Y354326I-400J0D01*
G01*
X246466Y355901D02*
G03*
X246466Y355901I-400J0D01*
G01*
X410503Y324810D02*
G03*
X410503Y324810I-400J0D01*
G01*
Y342515D02*
G03*
X410503Y342515I-400J0D01*
G01*
X416151Y351963D02*
G03*
X416151Y351963I-400J0D01*
G01*
Y325192D02*
G03*
X416151Y325192I-400J0D01*
G01*
X418710Y348420D02*
G03*
X418710Y348420I-400J0D01*
G01*
X469301Y350389D02*
G03*
X469301Y350389I-400J0D01*
G01*
Y323223D02*
G03*
X469301Y323223I-400J0D01*
G01*
X469694Y301963D02*
G03*
X469694Y301963I-400J0D01*
G01*
X470482Y277554D02*
G03*
X470482Y277554I-400J0D01*
G01*
X469301Y328341D02*
G03*
X469301Y328341I-400J0D01*
G01*
X413259Y354011D02*
G03*
X413259Y354011I-400J0D01*
G01*
X403553Y374011D02*
G03*
X403553Y374011I-400J0D01*
G01*
X415364Y377554D02*
G03*
X415364Y377554I-400J0D01*
G01*
X431112Y360231D02*
G03*
X431112Y360231I-400J0D01*
G01*
X439773Y365349D02*
G03*
X439773Y365349I-400J0D01*
G01*
X464183Y397633D02*
G03*
X464183Y397633I-400J0D01*
G01*
X456946Y396550D02*
G03*
X456946Y396550I-400J0D01*
G01*
X456567Y407686D02*
G03*
X456567Y407686I-400J0D01*
G01*
X439379Y405113D02*
G03*
X439379Y405113I-400J0D01*
G01*
X450271Y401101D02*
G03*
X450271Y401101I-400J0D01*
G01*
X467379Y381083D02*
G03*
X467379Y381083I-400J0D01*
G01*
X470482Y378341D02*
G03*
X470482Y378341I-400J0D01*
G01*
X476387Y419286D02*
G03*
X476387Y419286I-400J0D01*
G01*
X471625Y385784D02*
G03*
X471625Y385784I-400J0D01*
G01*
X469450Y392711D02*
G03*
X469450Y392711I-400J0D01*
G01*
X475171Y437890D02*
G03*
X475171Y437890I-400J0D01*
G01*
X481112Y432278D02*
G03*
X481112Y432278I-400J0D01*
G01*
X476425Y380666D02*
G03*
X476425Y380666I-400J0D01*
G01*
X456112Y379916D02*
G03*
X456112Y379916I-400J0D01*
G01*
X427175Y340940D02*
G03*
X427175Y340940I-400J0D01*
G01*
X434261Y317711D02*
G03*
X434261Y317711I-400J0D01*
G01*
X450457Y346049D02*
G03*
X450457Y346049I-400J0D01*
G01*
X455127Y354719D02*
G03*
X455127Y354719I-400J0D01*
G01*
X432686Y330310D02*
G03*
X432686Y330310I-400J0D01*
G01*
X433080Y348814D02*
G03*
X433080Y348814I-400J0D01*
G01*
X458671Y386609D02*
G03*
X458671Y386609I-400J0D01*
G01*
X427175Y377160D02*
G03*
X427175Y377160I-400J0D01*
G01*
Y368105D02*
G03*
X427175Y368105I-400J0D01*
G01*
X427568Y348026D02*
G03*
X427568Y348026I-400J0D01*
G01*
X406308Y383853D02*
G03*
X406308Y383853I-400J0D01*
G01*
X403553Y395664D02*
G03*
X403553Y395664I-400J0D01*
G01*
X383474Y393696D02*
G03*
X383474Y393696I-400J0D01*
G01*
Y409050D02*
G03*
X383474Y409050I-400J0D01*
G01*
X393316Y415349D02*
G03*
X393316Y415349I-400J0D01*
G01*
X401190Y412987D02*
G03*
X401190Y412987I-400J0D01*
G01*
X418269Y417591D02*
G03*
X418269Y417591I-400J0D01*
G01*
X427568Y412200D02*
G03*
X427568Y412200I-400J0D01*
G01*
Y395664D02*
G03*
X427568Y395664I-400J0D01*
G01*
X410734Y371161D02*
G03*
X410734Y371161I-400J0D01*
G01*
X410995Y360271D02*
G03*
X410995Y360271I-400J0D01*
G01*
X427962Y424798D02*
G03*
X427962Y424798I-400J0D01*
G01*
X445679Y415743D02*
G03*
X445679Y415743I-400J0D01*
G01*
X438592Y420074D02*
G03*
X438592Y420074I-400J0D01*
G01*
X414970Y390153D02*
G03*
X414970Y390153I-400J0D01*
G01*
X410246Y405900D02*
G03*
X410246Y405900I-400J0D01*
G01*
X414970Y423519D02*
G03*
X414970Y423519I-400J0D01*
G01*
X344497Y418105D02*
G03*
X344497Y418105I-400J0D01*
G01*
X366938Y414562D02*
G03*
X366938Y414562I-400J0D01*
G01*
X462261Y387790D02*
G03*
X462261Y387790I-400J0D01*
G01*
X482883Y400536D02*
G03*
X482883Y400536I-400J0D01*
G01*
X480324Y343696D02*
G03*
X480324Y343696I-400J0D01*
G01*
Y386609D02*
G03*
X480324Y386609I-400J0D01*
G01*
X433080Y378341D02*
G03*
X433080Y378341I-400J0D01*
G01*
X458277Y420074D02*
G03*
X458277Y420074I-400J0D01*
G01*
X451237Y420861D02*
G03*
X451237Y420861I-400J0D01*
G01*
X447224Y390627D02*
G03*
X447224Y390627I-400J0D01*
G01*
X434261Y395183D02*
G03*
X434261Y395183I-400J0D01*
G01*
X479143Y287003D02*
G03*
X479143Y287003I-400J0D01*
G01*
X485836Y419680D02*
G03*
X485836Y419680I-400J0D01*
G01*
X485232Y437261D02*
G03*
X485232Y437261I-400J0D01*
G01*
X485442Y311412D02*
G03*
X485442Y311412I-400J0D01*
G01*
X488198Y337003D02*
G03*
X488198Y337003I-400J0D01*
G01*
X490954Y360625D02*
G03*
X490954Y360625I-400J0D01*
G01*
X450403Y372830D02*
G03*
X450403Y372830I-400J0D01*
G01*
X445679Y428735D02*
G03*
X445679Y428735I-400J0D01*
G01*
X453159Y463850D02*
G03*
X453159Y463850I-400J0D01*
G01*
X449615Y456688D02*
G03*
X449615Y456688I-400J0D01*
G01*
X449222Y462987D02*
G03*
X449222Y462987I-400J0D01*
G01*
X234655Y355108D02*
G03*
X234655Y355108I-400J0D01*
G01*
X445403Y437289D02*
G03*
X445403Y437289I-400J0D01*
G01*
X388198Y428341D02*
G03*
X388198Y428341I-400J0D01*
G01*
X400562Y435663D02*
G03*
X400562Y435663I-400J0D01*
G01*
X469348Y413019D02*
G03*
X469348Y413019I-400J0D01*
G01*
X480718Y446452D02*
G03*
X480718Y446452I-400J0D01*
G01*
X463057Y419952D02*
G03*
X463057Y419952I-400J0D01*
G01*
X420482Y447867D02*
G03*
X420482Y447867I-400J0D01*
G01*
X420875Y471255D02*
G03*
X420875Y471255I-400J0D01*
G01*
X420482Y429523D02*
G03*
X420482Y429523I-400J0D01*
G01*
X376358Y389984D02*
G03*
X376358Y389984I-400J0D01*
G01*
X367043Y422042D02*
G03*
X367043Y422042I-400J0D01*
G01*
X337017D02*
G03*
X337017Y422042I-400J0D01*
G01*
X118513Y353538D02*
G03*
X118513Y353538I-400J0D01*
G01*
X336328Y442858D02*
G03*
X336328Y442858I-400J0D01*
G01*
X347253Y446845D02*
G03*
X347253Y446845I-400J0D01*
G01*
X361033Y449601D02*
G03*
X361033Y449601I-400J0D01*
G01*
X160246Y461019D02*
G03*
X160246Y461019I-400J0D01*
G01*
X296857Y441732D02*
G03*
X296857Y441732I-400J0D01*
G01*
X270718Y441339D02*
G03*
X270718Y441339I-400J0D01*
G01*
X288163Y432394D02*
G03*
X288163Y432394I-400J0D01*
G01*
X26387Y333853D02*
G03*
X26387Y333853I-400J0D01*
G01*
X88986Y386609D02*
G03*
X88986Y386609I-400J0D01*
G01*
X79537Y402751D02*
G03*
X79537Y402751I-400J0D01*
G01*
X99348Y395973D02*
G03*
X99348Y395973I-400J0D01*
G01*
X88198Y420861D02*
G03*
X88198Y420861I-400J0D01*
G01*
X88986Y448814D02*
G03*
X88986Y448814I-400J0D01*
G01*
X72450Y424798D02*
G03*
X72450Y424798I-400J0D01*
G01*
X72647Y446649D02*
G03*
X72647Y446649I-400J0D01*
G01*
X81505Y449995D02*
G03*
X81505Y449995I-400J0D01*
G01*
X94891Y460625D02*
G03*
X94891Y460625I-400J0D01*
G01*
X70482D02*
G03*
X70482Y460625I-400J0D01*
G01*
Y453538D02*
G03*
X70482Y453538I-400J0D01*
G01*
X57222Y453580D02*
G03*
X57222Y453580I-400J0D01*
G01*
X44104Y461019D02*
G03*
X44104Y461019I-400J0D01*
G01*
X99222Y468893D02*
G03*
X99222Y468893I-400J0D01*
G01*
X5769Y439360D02*
G03*
X5769Y439360I-400J0D01*
G01*
X63370Y468027D02*
G03*
X63370Y468027I-400J0D01*
G01*
X63395Y442908D02*
G03*
X63395Y442908I-400J0D01*
G01*
X138986Y442121D02*
G03*
X138986Y442121I-400J0D01*
G01*
X138592Y451570D02*
G03*
X138592Y451570I-400J0D01*
G01*
M02*
