G04*
G04 #@! TF.GenerationSoftware,Altium Limited,Altium Designer,22.2.1 (43)*
G04*
G04 Layer_Color=16711935*
%FSLAX25Y25*%
%MOIN*%
G70*
G04*
G04 #@! TF.SameCoordinates,B3CF93AD-5C46-479A-8AA0-F490141B64D1*
G04*
G04*
G04 #@! TF.FilePolarity,Negative*
G04*
G01*
G75*
%ADD48R,0.07480X0.05118*%
%ADD49R,0.07087X0.04724*%
%ADD61C,0.05079*%
%ADD62R,0.05079X0.05079*%
%ADD63C,0.08661*%
%ADD64R,0.08268X0.08268*%
%ADD65C,0.08268*%
%ADD66C,0.06693*%
%ADD67R,0.06693X0.06693*%
%ADD68C,0.06457*%
%ADD69R,0.06457X0.06457*%
%ADD70C,0.05512*%
%ADD71R,0.05512X0.05512*%
%ADD72O,0.11201X0.05598*%
%ADD73R,0.11201X0.05598*%
%ADD74R,0.06693X0.06693*%
%ADD88R,0.04724X0.07087*%
%ADD89R,0.05118X0.07480*%
%ADD91R,0.08071X0.07874*%
D48*
X171263Y363774D02*
D03*
Y375192D02*
D03*
X123231Y265940D02*
D03*
Y277357D02*
D03*
X81893Y215391D02*
D03*
Y226808D02*
D03*
D49*
X463830Y375782D02*
D03*
Y387200D02*
D03*
Y431688D02*
D03*
Y420271D02*
D03*
X8271Y290349D02*
D03*
Y301767D02*
D03*
X237404Y344483D02*
D03*
Y355901D02*
D03*
X246853Y344286D02*
D03*
Y355704D02*
D03*
X161814Y375389D02*
D03*
Y363971D02*
D03*
X156696Y296649D02*
D03*
Y308066D02*
D03*
X66932Y208184D02*
D03*
Y196767D02*
D03*
X462255Y397633D02*
D03*
Y409050D02*
D03*
X456349Y375586D02*
D03*
Y387003D02*
D03*
X331893Y442711D02*
D03*
Y431294D02*
D03*
X179921Y133858D02*
D03*
Y145276D02*
D03*
X456349Y418499D02*
D03*
Y429916D02*
D03*
D61*
X343937Y21811D02*
D03*
X353937Y31811D02*
D03*
D62*
Y11811D02*
D03*
D63*
X8268Y153543D02*
D03*
X224412Y376373D02*
D03*
X300397Y418105D02*
D03*
X474409Y253543D02*
D03*
X46457Y400787D02*
D03*
X244885Y335428D02*
D03*
X155118Y183858D02*
D03*
X333858Y45669D02*
D03*
X8271Y311019D02*
D03*
X153153Y376767D02*
D03*
X158782Y246255D02*
D03*
X194491Y310625D02*
D03*
X114964Y254326D02*
D03*
X421263Y289365D02*
D03*
X101578Y224404D02*
D03*
X327168Y462200D02*
D03*
X78740Y112205D02*
D03*
X78347Y151181D02*
D03*
X78347Y131890D02*
D03*
X78740Y170079D02*
D03*
X100787Y340158D02*
D03*
D64*
X108271Y471255D02*
D03*
X183106Y471223D02*
D03*
D65*
X108271Y402357D02*
D03*
X183106Y402325D02*
D03*
D66*
X7483Y175271D02*
D03*
Y185271D02*
D03*
Y195271D02*
D03*
Y205271D02*
D03*
Y255271D02*
D03*
Y245271D02*
D03*
Y235271D02*
D03*
Y225271D02*
D03*
Y215271D02*
D03*
X7480Y59055D02*
D03*
Y69055D02*
D03*
Y119055D02*
D03*
Y109055D02*
D03*
Y99055D02*
D03*
Y89055D02*
D03*
Y79055D02*
D03*
X286614Y342756D02*
D03*
X59618Y27047D02*
D03*
X69618Y17047D02*
D03*
Y27047D02*
D03*
X79618Y17047D02*
D03*
Y27047D02*
D03*
X89618Y17047D02*
D03*
X99618D02*
D03*
X89618Y27047D02*
D03*
X99618D02*
D03*
X211263Y246255D02*
D03*
X244882Y434921D02*
D03*
X214173Y425315D02*
D03*
X338976Y283228D02*
D03*
X308268Y343032D02*
D03*
D67*
X7483Y265271D02*
D03*
X7480Y129055D02*
D03*
X286614Y352756D02*
D03*
X59618Y17047D02*
D03*
X244882Y424921D02*
D03*
X214173Y435315D02*
D03*
X338976Y273228D02*
D03*
X308268Y353031D02*
D03*
D68*
X297756Y256299D02*
D03*
D69*
X307756D02*
D03*
D70*
X57877Y350389D02*
D03*
D71*
Y370074D02*
D03*
D72*
X246732Y48614D02*
D03*
Y58614D02*
D03*
Y68614D02*
D03*
Y78614D02*
D03*
Y88614D02*
D03*
Y98614D02*
D03*
Y108614D02*
D03*
Y118614D02*
D03*
Y128614D02*
D03*
Y154614D02*
D03*
Y164614D02*
D03*
Y174614D02*
D03*
Y184614D02*
D03*
Y194614D02*
D03*
Y204614D02*
D03*
Y214614D02*
D03*
X436732Y224614D02*
D03*
Y214614D02*
D03*
Y204614D02*
D03*
Y194614D02*
D03*
Y184614D02*
D03*
Y154614D02*
D03*
Y144614D02*
D03*
Y134614D02*
D03*
Y124614D02*
D03*
Y114614D02*
D03*
Y104614D02*
D03*
Y94614D02*
D03*
D73*
Y174614D02*
D03*
X246732Y138614D02*
D03*
Y224614D02*
D03*
X436732Y84614D02*
D03*
D74*
X221263Y246255D02*
D03*
D88*
X470475Y392515D02*
D03*
X481893D02*
D03*
X118701Y329528D02*
D03*
X107283D02*
D03*
X117129Y350782D02*
D03*
X105712D02*
D03*
X246263Y362593D02*
D03*
X257680D02*
D03*
X156499Y277948D02*
D03*
X145082D02*
D03*
X366145Y392908D02*
D03*
X377562D02*
D03*
X443160Y398617D02*
D03*
X454578D02*
D03*
X455562Y407672D02*
D03*
X444145D02*
D03*
X469538Y412003D02*
D03*
X480956D02*
D03*
X449853Y385231D02*
D03*
X438436D02*
D03*
X199016Y24016D02*
D03*
X210433D02*
D03*
X265158Y25591D02*
D03*
X276575D02*
D03*
D89*
X78153Y341727D02*
D03*
X89570D02*
D03*
X183661Y344094D02*
D03*
X195079D02*
D03*
D91*
X208268Y410630D02*
D03*
X216929D02*
D03*
M02*
