G04*
G04 #@! TF.GenerationSoftware,Altium Limited,Altium Designer,22.2.1 (43)*
G04*
G04 Layer_Color=8421504*
%FSLAX25Y25*%
%MOIN*%
G70*
G04*
G04 #@! TF.SameCoordinates,B3CF93AD-5C46-479A-8AA0-F490141B64D1*
G04*
G04*
G04 #@! TF.FilePolarity,Positive*
G04*
G01*
G75*
%ADD16R,0.08268X0.16142*%
%ADD17R,0.04331X0.08268*%
%ADD18R,0.06299X0.04724*%
%ADD19R,0.04724X0.06299*%
%ADD20R,0.08268X0.05512*%
%ADD21R,0.03543X0.03150*%
%ADD22R,0.02362X0.04134*%
%ADD23R,0.03937X0.02362*%
%ADD24R,0.01772X0.05906*%
%ADD25R,0.12598X0.11221*%
%ADD26R,0.01772X0.06299*%
%ADD27R,0.16142X0.10827*%
%ADD28R,0.01772X0.06102*%
%ADD29R,0.05906X0.02362*%
%ADD30R,0.06102X0.02362*%
%ADD31R,0.06299X0.02362*%
%ADD32R,0.05787X0.02559*%
%ADD33R,0.03937X0.07598*%
%ADD34R,0.03347X0.01968*%
%ADD35R,0.06890X0.04331*%
%ADD36R,0.04134X0.07087*%
%ADD37R,0.03937X0.03937*%
%ADD38R,0.04685X0.12992*%
%ADD39R,0.03150X0.03150*%
%ADD40R,0.22047X0.06496*%
%ADD41R,0.22441X0.07087*%
%ADD42R,0.13976X0.20079*%
%ADD43R,0.01575X0.03248*%
%ADD44R,0.01968X0.02953*%
%ADD45R,0.01968X0.05118*%
%ADD46R,0.01968X0.01575*%
%ADD47R,0.08661X0.12402*%
%ADD48R,0.07480X0.05118*%
%ADD49R,0.07087X0.04724*%
%ADD50R,0.01968X0.03347*%
%ADD51R,0.02362X0.03937*%
%ADD52R,0.12402X0.08661*%
%ADD53R,0.03150X0.03543*%
%ADD54R,0.07087X0.04134*%
%ADD55R,0.05512X0.08268*%
G36*
X155318Y417318D02*
X144688D01*
Y429129D01*
X155318D01*
Y417318D01*
D02*
G37*
G36*
X143507D02*
X132877D01*
Y429129D01*
X143507D01*
Y417318D01*
D02*
G37*
G36*
X26575Y410039D02*
X15945D01*
Y421850D01*
X26575D01*
Y410039D01*
D02*
G37*
G36*
X14764D02*
X4134D01*
Y421850D01*
X14764D01*
Y410039D01*
D02*
G37*
G36*
X155318Y404326D02*
X144688D01*
Y416137D01*
X155318D01*
Y404326D01*
D02*
G37*
G36*
X143507D02*
X132877D01*
Y416137D01*
X143507D01*
Y404326D01*
D02*
G37*
G36*
X26575Y397047D02*
X15945D01*
Y408858D01*
X26575D01*
Y397047D01*
D02*
G37*
G36*
X14764D02*
X4134D01*
Y408858D01*
X14764D01*
Y397047D01*
D02*
G37*
G36*
X215554Y294168D02*
X210830D01*
Y296137D01*
X215554D01*
Y294168D01*
D02*
G37*
G36*
X191773Y294168D02*
X186261D01*
Y296137D01*
X191773D01*
Y294168D01*
D02*
G37*
G36*
X143312Y292593D02*
X137800D01*
Y294562D01*
X143312D01*
Y292593D01*
D02*
G37*
G36*
X118743Y292593D02*
X114019D01*
Y294562D01*
X118743D01*
Y292593D01*
D02*
G37*
G36*
X215554Y289168D02*
X210830D01*
Y291137D01*
X215554D01*
Y289168D01*
D02*
G37*
G36*
X191773Y289168D02*
X186261D01*
Y291137D01*
X191773D01*
Y289168D01*
D02*
G37*
G36*
X209747Y288046D02*
X203841D01*
Y293952D01*
X209747D01*
Y288046D01*
D02*
G37*
G36*
X203054D02*
X197149D01*
Y293952D01*
X203054D01*
Y288046D01*
D02*
G37*
G36*
X143312Y287593D02*
X137800D01*
Y289562D01*
X143312D01*
Y287593D01*
D02*
G37*
G36*
X118743Y287593D02*
X114019D01*
Y289562D01*
X118743D01*
Y287593D01*
D02*
G37*
G36*
X132424Y286471D02*
X126519D01*
Y292377D01*
X132424D01*
Y286471D01*
D02*
G37*
G36*
X125731D02*
X119826D01*
Y292377D01*
X125731D01*
Y286471D01*
D02*
G37*
G36*
X215554Y284168D02*
X210830D01*
Y286137D01*
X215554D01*
Y284168D01*
D02*
G37*
G36*
X191773Y284168D02*
X186261D01*
Y286137D01*
X191773D01*
Y284168D01*
D02*
G37*
G36*
X143312Y282593D02*
X137800D01*
Y284562D01*
X143312D01*
Y282593D01*
D02*
G37*
G36*
X118743Y282593D02*
X114019D01*
Y284562D01*
X118743D01*
Y282593D01*
D02*
G37*
G36*
X209747Y281353D02*
X203841D01*
Y287259D01*
X209747D01*
Y281353D01*
D02*
G37*
G36*
X203054D02*
X197149D01*
Y287259D01*
X203054D01*
Y281353D01*
D02*
G37*
G36*
X132424Y279779D02*
X126519D01*
Y285684D01*
X132424D01*
Y279779D01*
D02*
G37*
G36*
X125731D02*
X119826D01*
Y285684D01*
X125731D01*
Y279779D01*
D02*
G37*
G36*
X215554Y279168D02*
X210830D01*
Y281137D01*
X215554D01*
Y279168D01*
D02*
G37*
G36*
X191773Y279168D02*
X186261D01*
Y281137D01*
X191773D01*
Y279168D01*
D02*
G37*
G36*
X143312Y277593D02*
X137800D01*
Y279562D01*
X143312D01*
Y277593D01*
D02*
G37*
G36*
X118743Y277593D02*
X114019D01*
Y279562D01*
X118743D01*
Y277593D01*
D02*
G37*
G36*
X224186Y115748D02*
X225016Y115194D01*
X225570Y114364D01*
X225765Y113386D01*
X225570Y112407D01*
X225016Y111578D01*
X224186Y111023D01*
X223208Y110829D01*
X223005Y110869D01*
X223008Y110886D01*
Y115886D01*
X223010Y115903D01*
X223208Y115943D01*
X224186Y115748D01*
D02*
G37*
G36*
X222006Y115903D02*
X222008Y115886D01*
Y110886D01*
X222010Y110869D01*
X221808Y110829D01*
X220829Y111023D01*
X220000Y111578D01*
X219445Y112407D01*
X219251Y113386D01*
X219445Y114364D01*
X220000Y115194D01*
X220829Y115748D01*
X221808Y115943D01*
X222006Y115903D01*
D02*
G37*
G36*
X190386Y22483D02*
X184481D01*
Y28389D01*
X190386D01*
Y22483D01*
D02*
G37*
G36*
X183693D02*
X177788D01*
Y28389D01*
X183693D01*
Y22483D01*
D02*
G37*
G36*
X166929Y22459D02*
X161024D01*
Y28364D01*
X166929D01*
Y22459D01*
D02*
G37*
G36*
X160236D02*
X154331D01*
Y28364D01*
X160236D01*
Y22459D01*
D02*
G37*
G36*
X143792Y22459D02*
X137886D01*
Y28364D01*
X143792D01*
Y22459D01*
D02*
G37*
G36*
X137099D02*
X131193D01*
Y28364D01*
X137099D01*
Y22459D01*
D02*
G37*
G36*
X190386Y15790D02*
X184481D01*
Y21696D01*
X190386D01*
Y15790D01*
D02*
G37*
G36*
X183693D02*
X177788D01*
Y21696D01*
X183693D01*
Y15790D01*
D02*
G37*
G36*
X166929Y15766D02*
X161024D01*
Y21671D01*
X166929D01*
Y15766D01*
D02*
G37*
G36*
X160236D02*
X154331D01*
Y21671D01*
X160236D01*
Y15766D01*
D02*
G37*
G36*
X143792Y15766D02*
X137886D01*
Y21671D01*
X143792D01*
Y15766D01*
D02*
G37*
G36*
X137099D02*
X131193D01*
Y21671D01*
X137099D01*
Y15766D01*
D02*
G37*
G36*
X192571Y12050D02*
X190603D01*
Y15003D01*
X192571D01*
Y12050D01*
D02*
G37*
G36*
X187571D02*
X185603D01*
Y15003D01*
X187571D01*
Y12050D01*
D02*
G37*
G36*
X182571D02*
X180603D01*
Y15003D01*
X182571D01*
Y12050D01*
D02*
G37*
G36*
X177571D02*
X175603D01*
Y15003D01*
X177571D01*
Y12050D01*
D02*
G37*
G36*
X169114Y12026D02*
X167146D01*
Y14978D01*
X169114D01*
Y12026D01*
D02*
G37*
G36*
X164114D02*
X162146D01*
Y14978D01*
X164114D01*
Y12026D01*
D02*
G37*
G36*
X159114D02*
X157146D01*
Y14978D01*
X159114D01*
Y12026D01*
D02*
G37*
G36*
X154114D02*
X152146D01*
Y14978D01*
X154114D01*
Y12026D01*
D02*
G37*
G36*
X145977Y12026D02*
X144008D01*
Y14978D01*
X145977D01*
Y12026D01*
D02*
G37*
G36*
X140977D02*
X139008D01*
Y14978D01*
X140977D01*
Y12026D01*
D02*
G37*
G36*
X135977D02*
X134008D01*
Y14978D01*
X135977D01*
Y12026D01*
D02*
G37*
G36*
X130977D02*
X129008D01*
Y14978D01*
X130977D01*
Y12026D01*
D02*
G37*
D16*
X46853Y324601D02*
D03*
Y291137D02*
D03*
X363389Y367121D02*
D03*
Y333656D02*
D03*
X385433Y265748D02*
D03*
Y299213D02*
D03*
D17*
X24331Y434252D02*
D03*
X6378D02*
D03*
X153074Y441530D02*
D03*
X135121D02*
D03*
D18*
X83162Y69291D02*
D03*
X72138Y79134D02*
D03*
Y59449D02*
D03*
X2759Y351963D02*
D03*
X13782Y342121D02*
D03*
Y361806D02*
D03*
X111114Y60236D02*
D03*
Y79921D02*
D03*
X122138Y70079D02*
D03*
X152453Y60236D02*
D03*
Y79921D02*
D03*
X163477Y70079D02*
D03*
X171260Y150091D02*
D03*
Y130406D02*
D03*
X160236Y140248D02*
D03*
D19*
X86617Y255901D02*
D03*
X66932D02*
D03*
X76775Y266924D02*
D03*
D20*
X317323Y16732D02*
D03*
X277953D02*
D03*
X317323Y34449D02*
D03*
X277953D02*
D03*
X366932Y393302D02*
D03*
X327562D02*
D03*
X366932Y411019D02*
D03*
X327562D02*
D03*
X249606Y15748D02*
D03*
X210236D02*
D03*
X249606Y33465D02*
D03*
X210236D02*
D03*
D21*
X478743Y281885D02*
D03*
X470082Y277948D02*
D03*
Y285822D02*
D03*
X188586Y220074D02*
D03*
Y212200D02*
D03*
X197247Y216137D02*
D03*
X489373Y414956D02*
D03*
Y422830D02*
D03*
X480712Y418893D02*
D03*
X488979Y433066D02*
D03*
Y440940D02*
D03*
X480318Y437003D02*
D03*
Y399995D02*
D03*
X488979Y403932D02*
D03*
Y396058D02*
D03*
X193701Y82284D02*
D03*
X185039Y78347D02*
D03*
Y86221D02*
D03*
X468113Y359444D02*
D03*
Y351570D02*
D03*
X476775Y355507D02*
D03*
X468901Y336609D02*
D03*
Y328735D02*
D03*
X477562Y332672D02*
D03*
X469294Y311412D02*
D03*
Y303538D02*
D03*
X477956Y307475D02*
D03*
X57480Y423228D02*
D03*
Y415354D02*
D03*
X66142Y419291D02*
D03*
X479924Y381491D02*
D03*
X488586Y385428D02*
D03*
Y377554D02*
D03*
D22*
X93110Y421850D02*
D03*
X100591D02*
D03*
X96850Y430905D02*
D03*
D23*
X78150Y440158D02*
D03*
X69095Y436417D02*
D03*
Y443898D02*
D03*
X45079Y443110D02*
D03*
Y435630D02*
D03*
X54134Y439370D02*
D03*
D24*
X451428Y392318D02*
D03*
X453987D02*
D03*
X456546D02*
D03*
X459105D02*
D03*
X461664D02*
D03*
X464223D02*
D03*
X466782D02*
D03*
Y415153D02*
D03*
X464223D02*
D03*
X461664D02*
D03*
X459105D02*
D03*
X456546D02*
D03*
X453987D02*
D03*
X451428D02*
D03*
D25*
X173428Y353932D02*
D03*
D26*
X165751Y364562D02*
D03*
X168310D02*
D03*
X170869D02*
D03*
X173428D02*
D03*
X175987D02*
D03*
X178546D02*
D03*
X181105D02*
D03*
Y343302D02*
D03*
X178546D02*
D03*
X175987D02*
D03*
X173428D02*
D03*
X170869D02*
D03*
X168310D02*
D03*
X165751D02*
D03*
D27*
X127759Y340940D02*
D03*
D28*
X120082Y351570D02*
D03*
X122641D02*
D03*
X125200D02*
D03*
X127759D02*
D03*
X130318D02*
D03*
X132877D02*
D03*
X135436D02*
D03*
Y330310D02*
D03*
X132877D02*
D03*
X130318D02*
D03*
X127759D02*
D03*
X125200D02*
D03*
X122641D02*
D03*
X120082D02*
D03*
D29*
X331696Y438558D02*
D03*
Y443558D02*
D03*
Y448558D02*
D03*
Y453558D02*
D03*
X352562D02*
D03*
Y448558D02*
D03*
Y443558D02*
D03*
Y438558D02*
D03*
D30*
X66932Y197751D02*
D03*
Y202751D02*
D03*
Y207751D02*
D03*
Y212751D02*
D03*
X88192D02*
D03*
Y207751D02*
D03*
Y202751D02*
D03*
Y197751D02*
D03*
D31*
X440554Y467889D02*
D03*
Y462889D02*
D03*
Y457889D02*
D03*
Y452889D02*
D03*
Y447889D02*
D03*
Y442889D02*
D03*
Y437889D02*
D03*
Y432889D02*
D03*
X461814D02*
D03*
Y437889D02*
D03*
Y442889D02*
D03*
Y447889D02*
D03*
Y452889D02*
D03*
Y457889D02*
D03*
Y462889D02*
D03*
Y467889D02*
D03*
D32*
X156578Y280153D02*
D03*
Y285153D02*
D03*
Y290153D02*
D03*
Y295152D02*
D03*
X178349D02*
D03*
Y290153D02*
D03*
Y285153D02*
D03*
Y280153D02*
D03*
D33*
X125160Y208656D02*
D03*
X142562D02*
D03*
D34*
X201184Y370861D02*
D03*
X211420D02*
D03*
D35*
X70672Y227005D02*
D03*
X81499Y221494D02*
D03*
X70672D02*
D03*
X81499Y227005D02*
D03*
X280118Y420079D02*
D03*
X269291Y425591D02*
D03*
X280118D02*
D03*
X269291Y420079D02*
D03*
D36*
X398428Y359444D02*
D03*
X410239D02*
D03*
X182677Y65748D02*
D03*
X194488D02*
D03*
X214173Y65354D02*
D03*
X202362D02*
D03*
X172444Y220074D02*
D03*
X184255D02*
D03*
X172444Y211806D02*
D03*
X184255D02*
D03*
X200787Y113779D02*
D03*
X212598D02*
D03*
X173625Y333460D02*
D03*
X161814D02*
D03*
X162208Y267318D02*
D03*
X150397D02*
D03*
X181893Y267711D02*
D03*
X170082D02*
D03*
X397247Y324404D02*
D03*
X409058D02*
D03*
X433074Y377554D02*
D03*
X421263D02*
D03*
X409452Y336215D02*
D03*
X397641D02*
D03*
X432286Y424798D02*
D03*
X420475D02*
D03*
X292523Y322042D02*
D03*
X280712D02*
D03*
X309845D02*
D03*
X298034D02*
D03*
X327956Y321649D02*
D03*
X316145D02*
D03*
X385830Y393696D02*
D03*
X374019D02*
D03*
X385830Y411019D02*
D03*
X374019D02*
D03*
X433074Y365743D02*
D03*
X421263D02*
D03*
X421263Y400782D02*
D03*
X433074D02*
D03*
X421263Y317318D02*
D03*
X433074D02*
D03*
X433074Y389365D02*
D03*
X421263D02*
D03*
X409452Y348026D02*
D03*
X397641D02*
D03*
X432680Y341727D02*
D03*
X420869D02*
D03*
X275436Y441732D02*
D03*
X287247D02*
D03*
X304724Y442520D02*
D03*
X292913D02*
D03*
X274410Y449606D02*
D03*
X286221D02*
D03*
X304331Y450000D02*
D03*
X292520D02*
D03*
X222047Y236221D02*
D03*
X210236D02*
D03*
X270472Y245669D02*
D03*
X258661D02*
D03*
X220472Y45669D02*
D03*
X232283D02*
D03*
X210630Y24016D02*
D03*
X198819D02*
D03*
X298425Y53150D02*
D03*
X310236D02*
D03*
X276772Y24946D02*
D03*
X264961D02*
D03*
X240160Y245664D02*
D03*
X251972D02*
D03*
X410633Y395664D02*
D03*
X398822D02*
D03*
X433074Y412593D02*
D03*
X421263D02*
D03*
X398428Y383460D02*
D03*
X410239D02*
D03*
X398428Y371649D02*
D03*
X410239D02*
D03*
D37*
X341142Y315354D02*
D03*
X335236D02*
D03*
D38*
X389609Y466530D02*
D03*
X409609D02*
D03*
X399609Y441334D02*
D03*
D39*
X461420Y279129D02*
D03*
Y285428D02*
D03*
X21656Y327554D02*
D03*
Y333853D02*
D03*
X461027Y335822D02*
D03*
Y329522D02*
D03*
X460633Y312593D02*
D03*
Y306294D02*
D03*
X461027Y360231D02*
D03*
Y353932D02*
D03*
X90158Y59842D02*
D03*
Y53543D02*
D03*
X114567Y109055D02*
D03*
Y115354D02*
D03*
X130315Y61024D02*
D03*
Y54724D02*
D03*
X171260Y60630D02*
D03*
Y54331D02*
D03*
X114567Y128740D02*
D03*
Y135039D02*
D03*
X114961Y154331D02*
D03*
Y148031D02*
D03*
Y166929D02*
D03*
Y173228D02*
D03*
D40*
X301969Y275689D02*
D03*
Y292028D02*
D03*
D41*
X198822Y363774D02*
D03*
Y345664D02*
D03*
D42*
X235830Y285822D02*
D03*
X275200D02*
D03*
D43*
X191587Y36220D02*
D03*
X186587D02*
D03*
X181587D02*
D03*
X176587D02*
D03*
X129992Y36196D02*
D03*
X134992D02*
D03*
X139992D02*
D03*
X144992D02*
D03*
X153130Y36196D02*
D03*
X158130D02*
D03*
X163130D02*
D03*
X168130D02*
D03*
D44*
X235042Y361019D02*
D03*
D45*
X244491Y362987D02*
D03*
D46*
Y357278D02*
D03*
X235042D02*
D03*
Y364759D02*
D03*
D47*
X147641Y230704D02*
D03*
X120082D02*
D03*
D48*
X313389Y389168D02*
D03*
Y377751D02*
D03*
X304727Y388971D02*
D03*
Y377554D02*
D03*
X296066Y388774D02*
D03*
Y377357D02*
D03*
D49*
X208664Y182869D02*
D03*
Y171452D02*
D03*
D50*
X440158Y59449D02*
D03*
Y69685D02*
D03*
D51*
X138979Y461412D02*
D03*
X131499D02*
D03*
X135239Y452357D02*
D03*
D52*
X82286Y298814D02*
D03*
Y326373D02*
D03*
D53*
X192520Y53543D02*
D03*
X184646D02*
D03*
X188583Y44882D02*
D03*
X211417Y52756D02*
D03*
X203543D02*
D03*
X207480Y44094D02*
D03*
D54*
X207087Y77165D02*
D03*
Y88976D02*
D03*
X225590Y169291D02*
D03*
Y157480D02*
D03*
X165354Y210236D02*
D03*
Y222047D02*
D03*
X154727Y464956D02*
D03*
Y453145D02*
D03*
X63783D02*
D03*
Y464956D02*
D03*
X50790Y453145D02*
D03*
Y464956D02*
D03*
X44882Y414961D02*
D03*
Y426772D02*
D03*
X76381Y464562D02*
D03*
Y452751D02*
D03*
X88192Y464562D02*
D03*
Y452751D02*
D03*
X80315Y415354D02*
D03*
Y427165D02*
D03*
X66145Y395664D02*
D03*
Y407475D02*
D03*
X79137Y395664D02*
D03*
Y407475D02*
D03*
X196853Y171255D02*
D03*
Y183066D02*
D03*
X185042D02*
D03*
Y171255D02*
D03*
X115357Y359050D02*
D03*
Y370861D02*
D03*
X126775Y359050D02*
D03*
Y370861D02*
D03*
X138586Y371294D02*
D03*
Y359483D02*
D03*
X447247Y362200D02*
D03*
Y350389D02*
D03*
X447641Y326767D02*
D03*
Y338578D02*
D03*
X446853Y303145D02*
D03*
Y314956D02*
D03*
X88583Y90945D02*
D03*
Y79134D02*
D03*
X122441Y106693D02*
D03*
Y118504D02*
D03*
X127953Y90551D02*
D03*
Y78740D02*
D03*
X170866Y88189D02*
D03*
Y76378D02*
D03*
X122047Y125197D02*
D03*
Y137008D02*
D03*
X122441Y156693D02*
D03*
Y144882D02*
D03*
Y164961D02*
D03*
Y176772D02*
D03*
X179921Y133661D02*
D03*
Y145472D02*
D03*
X447247Y277160D02*
D03*
Y288971D02*
D03*
D55*
X485236Y73228D02*
D03*
Y33858D02*
D03*
X467520Y73228D02*
D03*
Y33858D02*
D03*
M02*
