G04*
G04 #@! TF.GenerationSoftware,Altium Limited,Altium Designer,22.2.1 (43)*
G04*
G04 Layer_Color=8388736*
%FSLAX25Y25*%
%MOIN*%
G70*
G04*
G04 #@! TF.SameCoordinates,B3CF93AD-5C46-479A-8AA0-F490141B64D1*
G04*
G04*
G04 #@! TF.FilePolarity,Positive*
G04*
G01*
G75*
%ADD15C,0.00394*%
D15*
X242901Y138614D02*
G03*
X242901Y138614I-1969J0D01*
G01*
X242401Y224614D02*
G03*
X242401Y224614I-1969J0D01*
G01*
X445301Y174614D02*
G03*
X445301Y174614I-1969J0D01*
G01*
Y84614D02*
G03*
X445301Y84614I-1969J0D01*
G01*
X446732Y230677D02*
G03*
X442795Y234614I-3937J0D01*
G01*
Y-25386D02*
G03*
X446732Y-21449I0J3937D01*
G01*
X236732D02*
G03*
X240669Y-25386I3937J0D01*
G01*
X206299Y407480D02*
X218898D01*
Y413779D01*
X206299D02*
X218898D01*
X206299Y407480D02*
Y413779D01*
X95475Y462003D02*
Y467515D01*
X123034Y466530D02*
X125003D01*
Y463774D02*
Y466530D01*
X123034Y463774D02*
X125003D01*
X123034Y399601D02*
Y463774D01*
Y399601D02*
X125003D01*
Y396845D02*
Y399601D01*
X123034Y396845D02*
X125003D01*
X123034Y390349D02*
Y396845D01*
X93507Y390349D02*
Y395861D01*
X95475D01*
Y400979D01*
X93507D02*
X95475D01*
X93507D02*
Y462003D01*
X95475D01*
X93507Y467515D02*
X95475D01*
X93507D02*
Y473027D01*
X123034D01*
Y466530D02*
Y473027D01*
X93507Y390349D02*
X123034D01*
X168342Y390318D02*
X197869D01*
Y466499D02*
Y472995D01*
X168342D02*
X197869D01*
X168342Y467483D02*
Y472995D01*
Y467483D02*
X170310D01*
X168342Y461971D02*
X170310D01*
X168342Y400948D02*
Y461971D01*
Y400948D02*
X170310D01*
Y395830D02*
Y400948D01*
X168342Y395830D02*
X170310D01*
X168342Y390318D02*
Y395830D01*
X197869Y390318D02*
Y396814D01*
X199838D01*
Y399570D01*
X197869D02*
X199838D01*
X197869D02*
Y463743D01*
X199838D01*
Y466499D01*
X197869D02*
X199838D01*
X170310Y461971D02*
Y467483D01*
X460680Y375192D02*
Y387790D01*
X466979D01*
Y375192D02*
Y387790D01*
X460680Y375192D02*
X466979D01*
X482483Y389365D02*
Y395664D01*
X469885D02*
X482483D01*
X469885Y389365D02*
Y395664D01*
Y389365D02*
X482483D01*
X466979Y419680D02*
Y432278D01*
X460680Y419680D02*
X466979D01*
X460680D02*
Y432278D01*
X466979D01*
X236732Y228614D02*
X242732Y234614D01*
X287732D02*
X297732Y244614D01*
X426732D01*
X436732Y234614D01*
X442795D01*
X446732Y-21449D02*
Y230677D01*
X240669Y-25386D02*
X442795D01*
X236732Y-21449D02*
Y228614D01*
X242732Y234614D02*
X287732D01*
X90160Y338578D02*
Y344877D01*
X77562D02*
X90160D01*
X77562Y338578D02*
Y344877D01*
Y338578D02*
X90160D01*
X5121Y302357D02*
X11420D01*
X5121Y289759D02*
Y302357D01*
Y289759D02*
X11420D01*
Y302357D01*
X106693Y326378D02*
Y332677D01*
Y326378D02*
X119291D01*
Y332677D01*
X106693D02*
X119291D01*
X105121Y347633D02*
Y353932D01*
Y347633D02*
X117719D01*
Y353932D01*
X105121D02*
X117719D01*
X234255Y343893D02*
Y356491D01*
X240554D01*
Y343893D02*
Y356491D01*
X234255Y343893D02*
X240554D01*
X243704Y343696D02*
Y356294D01*
X250003D01*
Y343696D02*
Y356294D01*
X243704Y343696D02*
X250003D01*
X245672Y365743D02*
X258271D01*
Y359444D02*
Y365743D01*
X245672Y359444D02*
X258271D01*
X245672D02*
Y365743D01*
X164964Y363381D02*
Y375979D01*
X158664Y363381D02*
X164964D01*
X158664D02*
Y375979D01*
X164964D01*
X168113Y375782D02*
X174412D01*
X168113Y363184D02*
Y375782D01*
Y363184D02*
X174412D01*
Y375782D01*
X195669Y340945D02*
Y347244D01*
X183071D02*
X195669D01*
X183071Y340945D02*
Y347244D01*
Y340945D02*
X195669D01*
X153546Y308656D02*
X159845D01*
X153546Y296058D02*
Y308656D01*
Y296058D02*
X159845D01*
Y308656D01*
X63782Y196176D02*
X70082D01*
Y208774D01*
X63782D02*
X70082D01*
X63782Y196176D02*
Y208774D01*
X144491Y274798D02*
Y281097D01*
Y274798D02*
X157090D01*
Y281097D01*
X144491D02*
X157090D01*
X120082Y265349D02*
Y277948D01*
X126381D01*
Y265349D02*
Y277948D01*
X120082Y265349D02*
X126381D01*
X378152Y389759D02*
Y396058D01*
X365554D02*
X378152D01*
X365554Y389759D02*
Y396058D01*
Y389759D02*
X378152D01*
X459105Y409641D02*
X465405D01*
X459105Y397042D02*
Y409641D01*
Y397042D02*
X465405D01*
Y409641D01*
X455168Y395467D02*
Y401767D01*
X442570D02*
X455168D01*
X442570Y395467D02*
Y401767D01*
Y395467D02*
X455168D01*
X453200Y374995D02*
Y387593D01*
X459499D01*
Y374995D02*
Y387593D01*
X453200Y374995D02*
X459499D01*
X443554Y404523D02*
Y410822D01*
Y404523D02*
X456152D01*
Y410822D01*
X443554D02*
X456152D01*
X481546Y408853D02*
Y415153D01*
X468948D02*
X481546D01*
X468948Y408853D02*
Y415153D01*
Y408853D02*
X481546D01*
X437845Y382082D02*
Y388381D01*
Y382082D02*
X450444D01*
Y388381D01*
X437845D02*
X450444D01*
X328743Y430704D02*
X335042D01*
Y443302D01*
X328743D02*
X335042D01*
X328743Y430704D02*
Y443302D01*
X78743Y214801D02*
Y227399D01*
X85042D01*
Y214801D02*
Y227399D01*
X78743Y214801D02*
X85042D01*
X211024Y20866D02*
Y27165D01*
X198425D02*
X211024D01*
X198425Y20866D02*
Y27165D01*
Y20866D02*
X211024D01*
X277165Y22441D02*
Y28740D01*
X264567D02*
X277165D01*
X264567Y22441D02*
Y28740D01*
Y22441D02*
X277165D01*
X176772Y145866D02*
X183071D01*
X176772Y133268D02*
Y145866D01*
Y133268D02*
X183071D01*
Y145866D01*
X453200Y430507D02*
X459499D01*
X453200Y417908D02*
Y430507D01*
Y417908D02*
X459499D01*
Y430507D01*
M02*
