M48
;Layer_Color=9474304
;FILE_FORMAT=2:5
INCH,LZ
;TYPE=PLATED
T1F00S00C0.01181
T2F00S00C0.01968
T3F00S00C0.03150
T4F00S00C0.03346
T5F00S00C0.04331
T6F00S00C0.04331
T7F00S00C0.05906
T8F00S00C0.06299
;TYPE=NON_PLATED
T9F00S00C0.03543
T10F00S00C0.12598
%
T01
X0345668Y0033306
X0348Y00975
X03505Y01025
X03455
X0348Y0107
X0343
X0338
X0333
X0328
X03305Y0111
X03355
X03405
X03455
X0348Y0115
X0343
X0338
X0333
X0328
X0316Y0109
Y01055
Y0102
Y00985
X0312
Y0102
Y01055
Y0109
X0305Y0092
Y00885
Y0085
X0292Y00875
X0292381Y0074449
X0288603Y0075669
X0296Y0076
X0299619Y0074449
X03055Y00695
Y0066
Y00625
Y0059
X0309
Y00625
Y0066
Y00695
X0307576Y005174
X0304329Y0045117
X0312Y0045
X0317Y00375
X032Y00295
X031614Y0021495
X0324Y00205
X03265Y00055
X029Y0005
X0281
X0274802Y0009684
X0262991
X02575Y0005
X025118Y0009684
X0244Y0005
X0234
X0227558Y0009684
X0222Y0005
X0215747Y0009684
X0221652Y0021495
X0233463
X02275Y0028
X02155Y00285
Y0044
X0215747Y0056928
Y008055
X0216Y00855
Y0089
Y00925
Y0096
X02125
Y00925
Y0089
Y00855
X0203936Y008055
X0192125
X01865Y008
X01815Y00875
X0175Y0087
X0182483Y0096983
X0196Y00975
X0193Y00875
X0192Y0059
X0180314Y0056928
X01725Y00455
Y00335
X0186408Y0035408
X01875Y00265
Y00115
X0192125Y0009684
X01985Y00205
X0192Y0039838
X02235Y0073
X0227558Y008055
X02235Y00895
X0244807Y009321
X02485Y01025
X025Y01085
X02305Y01105
X02665Y01015
X0269Y00855
X0274802Y008055
X0262991
X025118
X02545Y00675
X0244855Y0067645
X02765Y00675
X0286613Y0033306
X0298424
X02955Y00415
X0304329Y0021495
X03225Y0080197
X0289Y0105717
X0280701Y0108299
X01765Y01075
X01685
X01515Y0106
X0144881Y0104172
X0150786Y0092361
X0151Y0086
X0156692Y008055
X0165Y008
X01685Y0087
X0144881Y008055
X0128Y00835
X0124Y0087
X0128279Y0093256
X0127723Y0100688
X01245Y0104087
X0114199Y0101331
X0114Y00965
X0114244Y01075
X0102017Y0107411
X00995Y00985
X0090071Y0095571
X009Y01035
X0085826Y0104172
X0079Y0096
X008Y00865
X0083Y00785
X007992Y0068739
X00855Y0067
X0091731Y0068739
X01025Y0065842
X010565Y0069026
X01095Y0068205
X0109448Y0056928
X01105Y00515
X0113Y00455
X0118Y0041563
X0120804Y0038799
X01255Y0043
Y0051799
X0131Y00355
X0127Y0026067
Y00115
X0137Y0015
X01565Y00185
X01555Y0026
X0156692Y0033306
X01555Y00455
X01525Y00515
X0156692Y0056928
X0168503
X0156692Y0009684
X0097636
X0098Y0017
X01025Y00225
X0095Y00265
X0097636Y0033306
X0096Y00435
X0095Y00515
X0097636Y0056928
X009935Y0077649
X01025Y0087
X01138Y00792
X0113Y00315
X00665Y0026185
Y00115
X0062204Y0009684
X0077Y00145
X0068109Y0045117
X005285Y004635
X0044487Y0045117
X00445Y00605
X0046Y0069
X0048Y0076074
X00515Y0056
X0063Y0057
X00645Y0063
X0067343Y0065842
X0057665Y0035043
X0053Y0033
X0036656Y0022344
X0038581Y0009684
X00285Y00095
X0014959Y0033306
X0020865Y0045117
X00185Y00695
X0024Y0088
X0031Y0093
X002677Y0104172
X00195Y01055
X0073Y01075
X0008Y0104
Y00875
X0014252Y0073318
X0007041Y0132058
X0008Y0185
X0007Y02215
X0006Y0254
X0028116Y0253719
X0032305Y0253649
X0038581Y0269526
X0021Y027
X0062204Y0269526
X0074015
X0085826
X01Y02655
X0103
Y0262
X01
Y02585
X0103
Y0248
Y0239
X0114Y02485
X0131Y0241
X0138975Y0234093
X0150786
X0156692Y0245904
X0168503
X01585Y0258
X0156692Y0269526
X01295Y0268
X0144881Y0245904
X013307Y0222282
X0133Y02105
X013307Y019866
X01335Y0186
X013307Y0175038
X0144881
X0156692
X01575Y01675
X0150786Y0163227
X0168503Y0175038
Y0151416
X0168767Y012301
X01605Y01235
X01545
X01485Y01185
X01425Y0116
X0134Y0117
X0133256Y0125
X01275Y0142217
X0124187Y0144343
X01215Y0152
Y01815
X0105Y01655
X0088Y01645
X00835Y016
X007992Y0163227
X0076Y01735
X00875
X00645
X006424Y016624
X00545Y01735
X0041585Y0173883
X00415Y01895
X0038581Y019866
X0027Y0193
X00195Y01905
Y02005
Y02105
Y02215
X0027Y02285
X0038581Y0222282
X0044487Y0210471
X00545Y02165
X00605Y02195
X00625Y02115
X0062204Y019866
X0061Y0193
X00545Y02
X0074015Y019866
X0076Y019
X0089748Y0195732
X0091731Y0210471
X00835Y02195
X00745Y02275
X007992Y0234093
X0083Y02455
X0060421Y0241882
X0096Y0224
X0154958Y0218113
X0150786Y0210471
X0158Y02055
X01685Y0206
X0168503Y0222282
X0106Y01365
X00905Y0128
X00717Y014122
X006424Y014326
X0061091Y0150382
X0048Y0155
X0043094Y0154258
X004Y01595
Y0148
X0035849Y0146849
X002677Y0151416
X00205Y0158
X00185Y0142
X0044487Y0139605
X004Y01295
X0044487Y0115983
X0020865
X0025Y0174
X0180314Y0175038
X0192125
X01925Y01645
X0174408Y0163227
X0180314Y0151416
X0175Y01445
X02165Y01425
X02195Y0139
X0237Y0164
Y01675
Y0171
X02405
Y01675
Y0164
X02675Y01655
X02735Y016
X0280701Y0162
X0281Y01735
X0288256Y0170331
X02905Y0166
X0290206Y0154
X0293553Y0149
X02855Y0144157
X02905Y0136043
X0285771Y0130112
X0280996Y0125216
X0274802Y0127794
X0262991
X0256Y0123
X03Y0121
X0304329Y0115983
X0301125Y014022
X0304898Y0146459
X0304883Y0162647
X0301Y0162
X0305168Y0172832
X0296309Y0175
X0299Y0191
X03045
X0312Y0201
Y02045
Y0208
Y02115
X0316
Y0208
Y02045
Y0201
X0319Y02225
X0310235Y0222282
X0298424
X02885Y0228
X0280707Y0234093
X0278Y02445
X02855Y02425
X0300835Y02405
X03095Y02455
Y0252
Y02585
X0316Y0264
X03165Y02455
Y02305
X03005Y02555
X0278Y0257
Y02675
X02735Y02695
X0239369Y0269526
X0203936
X0209841Y0257715
X0198901Y0253313
X0203936Y0245904
X0214Y0246
X0209841Y0234093
X0221652
X02235Y02215
X0229Y0216
X02305Y02055
X02245Y0198
Y0183
X0221652Y0210471
X0209841
X02115Y0202
X0203
X0194123Y0201989
X019803Y0210471
X0204Y0217
X0192125Y0222282
Y0245904
X0180314
Y0269526
X0175Y0206
X0268896Y0210471
X0268Y0222
X028Y02215
X02795Y0191
X02675
X03235Y0166327
Y0148
Y013918
X03325Y0139
X0336Y0145
X03485Y015
Y01385
X0349Y0128
X03455Y012
X03405
X03325Y0121
Y0165
Y01725
X03455Y0178
X0348Y0185
X03405Y01905
X0329
X0333857Y0222282
X0345668
X03485Y02525
X0345668Y0269526
X0327951Y0257715
X03295Y0285
X03395
X035
X03425Y0314799
X0348324Y0321916
X0333571Y0321544
X03335Y03505
X03395Y0357
X03485Y03585
X0348448Y034857
X03305Y0362
X0327Y03675
X03305Y03775
X03335Y03805
X033635Y03855
X0327Y03925
X0330868Y0403685
X0328Y04125
X0345668Y0411259
X0348Y03975
X0323Y04035
X0316756Y04105
X0319Y0392
X0309
X03075Y0398
X02845Y03975
X0274
X02605
X0255756Y04065
X0245274Y0399447
X0221652
X02225Y0407
X0219Y04145
Y0423
X02275Y04185
X0232Y0415
X02035Y041065
X0192125Y0411259
X0177976Y0411524
X0180732Y0418952
X0180079Y0426576
X01955Y03975
X01965Y03825
Y0374
X01955Y0366
X0209Y03645
Y0372
X02055Y0376
X02135
X0208961Y038126
X02085Y0389
X0209841Y0399447
Y0352203
X0221652
X0233463
X0245274
X025Y03585
X0256Y03605
X0257085Y0352203
X0268896
X0280707
X02805Y03415
X0280707Y0328581
X0268896
X0257085
X0245274
X025Y0334
X0254Y03405
X0262991Y0340392
X0239369
X0227558
X0215747
X02055Y03405
X0192125Y0340392
X0174Y03415
Y03525
X01745Y0363
X018Y0361
Y0372
Y038
X0174408Y0328581
X0190284Y0321784
X01875Y0319
X0197Y03225
X01975Y0313
X019803Y0304959
X02025Y03035
X0209841Y0304959
X021Y0313
X0221652Y0304959
X0233463
X0245274
X02395Y0313
X0253
X02655Y03145
X028
X0285Y0285
X02745
X03
X0309
X0318
X0314603Y0347951
X032615Y0351
X0323Y0362
X0311Y03675
X0314Y03725
X0319Y03765
X02875Y0376
X0281Y03755
X02725Y03705
X026Y0371
X0249977
X0252368Y0375349
X02875Y0367
X0289Y0357
X03Y03515
X0233463Y0328581
X0219439Y0329132
X0216925Y0326102
X0227558Y031677
Y0293148
X0223Y0279
X02335
X02455Y0277
X019803Y0281337
X0193125Y0289585
X0203936Y0293148
X01805Y02915
X01715Y0292
X0177Y02985
X018Y03075
X01805Y0282
X0171Y0275
X0322903Y0427133
X01705Y0419138
X0168382Y04155
X01705Y04105
X016735Y0403457
X01525Y040235
Y04115
X016Y0418
Y0423
X0129
Y0417
X0122906Y04185
X0123Y0401604
X0128Y03975
X013Y0390347
X01245Y03915
X01235Y0383653
X01298Y0376319
X01305Y0367
X013Y03575
X01235Y03615
X01125Y0357098
Y03765
Y0381
X01135Y0401604
X01045
X00985
X0092
X0083Y0401
X0075256Y0401179
X0069Y04055
X0062Y04145
X0063Y0424
X00755Y0423
Y0416
X00815Y041
X0099457Y0414659
X00995Y04225
X0094Y04226
X0106867Y04255
X00495Y04245
X0053Y04095
X00405Y0409
X0032012Y0406176
X00265Y0409
Y04015
X00195Y0399
X002Y03865
X0020865Y0375826
X0032676
X00435Y03795
X0056298Y0375826
X00515Y0366
Y03535
X0044487Y0352203
X0032676
X0020865
X00205Y0336
X0032676Y0328581
X0037421Y0320367
X00515Y03195
X0062204Y031677
X0072698Y0319302
X0075256Y0322634
X007992Y0328581
X0086Y032454
X0088935Y0327164
X00965Y0328
Y0331
X01
Y0328
X01035
Y0331
X0131Y0335
X013307Y0340392
X013Y03465
X0134Y03505
X0141Y035
X01425Y03595
X01495Y0361
X0150786Y0352203
X01555Y03445
X01585Y0332
X01705Y0334
Y0327689
X0144881Y031677
X01415Y03075
X0152
X0144881Y0293148
X01375Y02995
X0131232Y0303996
X01295Y02965
X0133414Y02885
X0138975Y0281337
X0150786
X0158Y0285
X01675Y02895
X0121331Y0304079
X0096185Y0302421
X007992Y0304959
X0072107Y0310272
X0085826Y031677
Y0293148
X0091731Y0281337
X007992
X00625Y0281
X0062204Y0293148
X0057665Y0299665
X0038581Y0293148
X0044487Y0281337
X0032676
X0020865
Y0304959
X0024Y0302
X0032676Y0304959
X0038581Y0340392
X00515Y03345
X00675Y03435
Y03535
X00805Y03535
X007725Y036075
X00805Y037135
X007725Y0381
X00685Y03855
X00475Y03975
X00385
X0034693Y0389
X00305Y04275
X0144Y0397
X01415Y0382
X0150786Y0375826
X015976Y0372587
X01335Y0327689
X0114Y0281
X0007Y02755
X0011866Y02965
X00065Y03365
Y0352
Y0366
Y0384
Y0399
Y0435
X0006Y0444
X0007Y0481
X0012Y04925
X0006Y0503
X00155
X001622Y0486779
X0029Y049
X0032256Y0499323
X0042Y04985
X0051387Y0494304
X00595Y04905
Y04855
X0050393Y0482125
X00415Y0477
X0031Y04725
Y04545
X00415
X00515
X0050393Y0458503
X0059Y0459
X00595Y0471
X0069
X0077901Y0474317
X0078311Y04805
X007992Y0493936
X0091731
X0103542
X0109448Y0505747
X0113Y05185
X0104
X01065Y0525
X0097Y0516
X0087Y0519
X0083Y0512
X0086Y05025
X0068109Y0493936
X0074Y0457
X007992Y0446692
X0085244Y04515
X0091731Y0446692
X0103542
X011829Y0446976
X0127164Y0446692
X01285Y04545
X013Y04635
X013Y0474386
X0124Y0478
Y04855
X0114871Y0476875
X0107Y0475
X00975Y04775
X0097Y0467
X00905Y0472
X0086392Y0463257
X0092Y0459
X01145Y0457
X0141Y04575
X0156692Y0458503
X0168503
X017Y04655
X0167756Y044065
X01705Y04375
X0150786Y0446692
X0143Y0476
X0144Y04875
X01585
X0157Y0514
X0145
X0140256Y0507
X01265Y05055
X0127164Y0517558
X0129051Y0535881
X01275Y05395
X01245Y05505
X0114Y0551
X0107Y05515
X0085Y0557
Y05425
X0083Y05275
X00795Y0567
X0068
X0057
X0046
X00415Y0580382
X0053Y05825
X0086434Y0583434
X0085826Y0576613
X01245Y05665
X0134744Y0568244
Y05615
Y0552
X01505Y05545
X0161
X0156692Y0576613
X0168503
X0144881
X0141831Y05835
Y0538831
X0144881Y0529369
X0156692
X0168503
X0129Y0429
X0109623Y0428877
X00975Y0435
X00725Y04335
X0069Y0430744
X0056298Y0446692
X0044487
X0031Y0443
X0020865Y0446692
X00195Y04595
Y0433
X00155Y04365
X0020865Y0517558
X0014959Y0529369
X0022Y0539
X0030256Y05375
X0031Y05575
X0027744Y0572482
X0175Y0572
X01745Y05545
X01845
X01945Y05455
X0207Y0536
X02075Y0521
X0209841Y0517558
X01975Y0522
X0193Y0503
X0203
X02135
X02225Y0509
X02305Y05005
X02385
Y0507
X025118Y0505747
X0251213Y0514687
X02515Y05265
X0251Y0547
X0248Y0555
X0251Y05635
X0248Y05725
X0239369Y0576613
X0236Y0582
X02365Y057
X0233463Y0564802
X0228Y0567
X02225Y0568
Y05805
Y055
X02365Y0559441
X0232Y0534
X02735Y05345
X0295Y05325
X0298756Y05275
X03055Y0513
Y05
X0296
X0297256Y049
X02935Y04845
X03055Y0488
X0315256Y0493
X03175Y04835
X0322612Y0480882
X0322903Y0463133
X03125Y04655
X0302756Y0468496
Y0462
X02885Y04625
X02785
X0268
X0258
X0241Y0461
X02455Y045435
Y04455
X0253Y04475
X02625
X02725
X02835
X0304329Y0446692
X0322903Y0445133
X0318331Y042935
X0318914Y0505791
X0319Y05175
X03185Y0542
X0315256Y0547
X0315705Y0554952
X031614Y0564802
X03135Y0573756
X03115Y05815
X03055Y0563
X0305Y05425
X0274Y05645
X019803Y0564802
X0172749Y0513519
X01745Y04905
X02045Y0486
X0201Y0481
X0206871Y0475768
X0219Y04785
Y04655
Y04585
X021935Y04535
X02225Y04615
X02285Y0461
X02275Y04705
X0232265Y0468256
X02355Y04705
X0232Y0490394
X02225Y0488744
X0253Y0485
Y0478
X0229963Y044896
X0228785Y043822
X0234655Y0439397
X0234476Y0435464
X0234297Y0429297
X02275Y04305
X0219Y04315
X021935Y0441
X02225Y0444
X0207Y04405
Y04485
X02015Y045
X01965Y0444
X01905Y04435
X0181Y0443
X01745Y04315
X0194Y04285
X0207Y0432
X02015Y04635
X01965Y0468218
X01775Y0459
X0328Y0467
Y0449
Y0431
X03485Y04295
Y04475
Y0465
X0345668Y0482125
X0348Y04935
Y05055
Y0517
X0327951Y0517558
X0328Y05055
X0327951Y0493936
X0328Y0542
X0327951Y0612046
X03365Y0622
X0328Y0632
X0333857Y0647479
X0345668
X0339762Y065929
X0327951
X031614
X0304329
X0310235Y0671101
X0322046
Y0647479
X0310235
X0298424
Y0671101
X03045Y0679
X0289
X0274802Y0647479
X025118
X0242Y06455
X02385Y0642
X0236176Y0637752
X023Y0631
X02225Y06305
Y0642
Y0656
X0234Y0652
Y0672
X02385Y067
X02165Y0673
X02225Y06825
X0186Y0681
X01755Y068563
X0180314Y0671101
X0192125
X019803Y065929
X01995Y0652
X019803Y0635668
X0191775Y0633821
X0185Y0637898
X01805Y0634
X0175Y0644
X01755Y0656
X0186219Y065929
X02065Y06335
X0198Y06105
X02225Y06125
X0228Y06115
X0236Y0617571
Y0621508
X0242Y063
X025118Y0623857
X02505Y06145
X02545Y06085
Y0603
Y0593
X0236Y0604
X02095Y0585
X0196
X02855Y0588
X0298Y0589
X0304329Y0588424
X031614
X0310235Y0600235
X0323Y0602
X031614Y0612046
X0322046Y0623857
X0310235
X031614Y0635668
X02535Y0635272
X0257085Y065929
X01705Y066
X0156692Y0647479
X0159Y0634
X017
X01525Y0617756
X01433Y0624574
X01435Y06085
X01455Y0594
X0158
X01275Y05935
X0129Y06115
X01275Y06275
X0119Y0628
X01075
X0094994Y0628084
X0083Y0641
X007992Y065929
X0068109
X0056298
X0044487
X00415Y06525
X0038581Y0647479
X0044487Y0635668
X0057Y06325
Y06425
X0052784Y0671283
X0062204Y0671101
X0074015
X0085826
X0083Y0681
X0115Y06745
X01055Y06625
X0134756Y0663323
X01375Y06605
X01435Y06745
X0140472Y0640972
X0107Y06035
X01025Y05885
X0083Y0602
X0051Y06035
X00505Y05935
X00355Y05965
X002677Y0600235
X0014959
X0020865Y0588424
X0014959Y0623857
X0020865Y0635668
X0014959Y0647479
X0030464Y0675536
X00415Y0681649
X00375Y06135
X0046
X00525Y06125
X00085Y06355
X00065Y05885
T02
X02455Y00435
X025
X026
X02645
X02835
X0288
T03
X0144Y02185
X01815Y02295
X0039843Y03665
X0020157
T04
X0073842Y05075
Y05175
Y05275
Y05375
Y05475
Y05575
Y05775
X0263843
Y05675
Y05575
Y05475
Y05375
Y05275
Y05175
Y05075
Y05935
Y06035
Y06135
Y06235
Y06335
Y06435
Y06535
Y06635
Y06735
Y06835
X0073842Y06475
Y06375
Y06275
Y06175
Y06075
Y05975
Y05875
T05
X0239843Y0015968
Y0025968
X0249843
Y0015968
X0259842
Y0025968
X0269843
Y0015968
X0279842
Y0025968
X03005Y0329024
X03105
Y0339024
X03005
X0117Y05335
X0107
X0097
X0096976Y05665
X0106976
X0116976
X0056842Y05575
X0046843
Y05475
Y05375
Y05275
X0056842
Y05375
Y05475
Y05175
X0046843
Y05075
X0056842
X02805
X02905
Y05175
Y05275
Y05375
X02805
Y05275
Y05175
Y05475
X02905
Y05575
Y05675
X02805
Y05775
X02905
X02805Y05575
X03475Y0557
Y0547
Y0537
Y0527
Y0567
Y0577
Y0587
Y0597
Y0607
Y0617
Y0627
Y0637
X02905Y06335
Y06235
X02805
Y06135
X02905
Y06035
Y05935
X02805
Y06035
Y06335
Y06435
Y06535
Y06635
X02905
Y06535
Y06435
X0119476Y06455
X0109476
X0099476
X0096976Y06115
X0106976
X0116976
Y05935
X0106976
X0096976
T06
X01875Y0092
Y0102
X01535Y0185
X01435
X01715Y0185
X01815
X02023Y01855
X02123
X0009Y0523524
X0011Y0572
X0021
X0019Y0523524
X0095476Y06715
X0105476
X0123976
X0133976
X0152976
X0162976
T07
X0007102Y0206
X0076
X0279051Y02065
X0347949
X0347449Y0302
X0278551
X0075449Y0287
X0006551
T08
X02225Y00555
X00095Y01135
X014Y01225
X0211Y02855
X0237Y0402
X0145Y0649
T09
X0173988Y0011
X020076
X014026
X0113488
X008026
X0053488
X0012976Y0042614
Y0069386
X021109Y06775
X0237862
T10
X0338583Y0015748
X0015748
X0338583Y0673228
X0015748
M30
