M48
;Layer_Color=9474304
;FILE_FORMAT=2:5
INCH,LZ
;TYPE=PLATED
T1F00S00C0.01181
T2F00S00C0.03150
T3F00S00C0.04331
T4F00S00C0.05906
T5F00S00C0.06299
;TYPE=NON_PLATED
T6F00S00C0.03543
T7F00S00C0.12598
%
T01
X0127794Y0012833
X0139605
X0151416
X0139605Y0060078
X0127794
X0115983
X0133465Y0127559
X0098267Y0095511
X0086456
X0074644
X0062833
X0051022
X0039211
X0029921Y0109449
X0032677Y012874
X0056928Y00837
X0068739
X008055
X0086456Y0048267
X0092361Y0012833
X0104172
X008055
X0056928
X0045117
X0039211Y0024645
X00274
X0033306Y0036456
X0045117
X0056928
X0062833Y0024645
X0056928Y0060078
X0039211Y0048267
X00274
X0015589
X0021495Y0036456
Y0012833
X0009684
X0008268Y0058661
X0015589Y0142755
X0021495Y0154566
X0009684
X00274Y0166377
X0033306Y0178188
X0021495
X00274Y0189999
X0015589
X0051022Y0166377
X0045117Y0154566
X008055
X0092361
X0097638Y0136614
X0101181Y0172835
Y0186221
X0098267Y0189999
X0086456
X0123622Y0187008
X0127794Y0178188
X0127953Y0162598
X0157322Y0166377
X0145511Y0189999
X01337
T02
X0118504Y0052756
Y0072441
T03
X012315Y0005512
X015315Y005563
Y006563
X011315Y0005512
X010315
X009315
T04
X0004921Y0102756
X0073819
X0074803Y0136614
X0005906
T05
X0035039Y0006693
X005315
X0072047Y0007087
T06
X0011417Y0044882
Y0071653
T07
X0148425Y0027165
X0011417
Y0174016
X0148031
M30
