G04*
G04 #@! TF.GenerationSoftware,Altium Limited,Altium Designer,22.2.1 (43)*
G04*
G04 Layer_Color=128*
%FSLAX25Y25*%
%MOIN*%
G70*
G04*
G04 #@! TF.SameCoordinates,5D24457F-3748-4EF7-84A7-D0A6444830B3*
G04*
G04*
G04 #@! TF.FilePolarity,Positive*
G04*
G01*
G75*
%ADD47R,0.07480X0.05118*%
%ADD49R,0.07087X0.04724*%
%ADD93R,0.07284X0.07087*%
%ADD94R,0.04724X0.07087*%
%ADD95R,0.05118X0.07480*%
D47*
X171263Y375192D02*
D03*
Y363774D02*
D03*
X123231Y277357D02*
D03*
Y265940D02*
D03*
X81893Y226808D02*
D03*
Y215391D02*
D03*
D49*
X463830Y387200D02*
D03*
Y375782D02*
D03*
Y420271D02*
D03*
Y431688D02*
D03*
X8271Y301767D02*
D03*
Y290349D02*
D03*
X237404Y355901D02*
D03*
Y344483D02*
D03*
X246853Y355704D02*
D03*
Y344286D02*
D03*
X161814Y375389D02*
D03*
Y363971D02*
D03*
X156696Y308066D02*
D03*
Y296649D02*
D03*
X66932Y196767D02*
D03*
Y208184D02*
D03*
X462255Y409050D02*
D03*
Y397633D02*
D03*
X456349Y387003D02*
D03*
Y375586D02*
D03*
X331893Y431294D02*
D03*
Y442711D02*
D03*
X179921Y145276D02*
D03*
Y133858D02*
D03*
X456349Y429916D02*
D03*
Y418499D02*
D03*
D93*
X216929Y410630D02*
D03*
X208268D02*
D03*
D94*
X481893Y392515D02*
D03*
X470475D02*
D03*
X107283Y329528D02*
D03*
X118701D02*
D03*
X105712Y350782D02*
D03*
X117129D02*
D03*
X257680Y362593D02*
D03*
X246263D02*
D03*
X145082Y277948D02*
D03*
X156499D02*
D03*
X377562Y392908D02*
D03*
X366145D02*
D03*
X454578Y398617D02*
D03*
X443160D02*
D03*
X444145Y407672D02*
D03*
X455562D02*
D03*
X480956Y412003D02*
D03*
X469538D02*
D03*
X438436Y385231D02*
D03*
X449853D02*
D03*
X210433Y24016D02*
D03*
X199016D02*
D03*
X276575Y25591D02*
D03*
X265158D02*
D03*
D95*
X89570Y341727D02*
D03*
X78153D02*
D03*
X195079Y344094D02*
D03*
X183661D02*
D03*
M02*
