G04*
G04 #@! TF.GenerationSoftware,Altium Limited,Altium Designer,22.2.1 (43)*
G04*
G04 Layer_Physical_Order=2*
G04 Layer_Color=16711680*
%FSLAX25Y25*%
%MOIN*%
G70*
G04*
G04 #@! TF.SameCoordinates,5D24457F-3748-4EF7-84A7-D0A6444830B3*
G04*
G04*
G04 #@! TF.FilePolarity,Positive*
G04*
G01*
G75*
%ADD11C,0.01181*%
%ADD14C,0.01968*%
%ADD47R,0.07480X0.05118*%
%ADD49R,0.07087X0.04724*%
%ADD62C,0.05906*%
%ADD63C,0.05079*%
%ADD64R,0.05079X0.05079*%
%ADD65C,0.14173*%
%ADD66R,0.05906X0.05906*%
%ADD67C,0.08661*%
%ADD68C,0.08268*%
%ADD69R,0.08268X0.08268*%
%ADD70C,0.06693*%
%ADD71R,0.06693X0.06693*%
%ADD72R,0.06457X0.06457*%
%ADD73C,0.06457*%
%ADD74R,0.05512X0.05512*%
%ADD75C,0.05512*%
%ADD76R,0.11201X0.05598*%
%ADD77O,0.11201X0.05598*%
%ADD78R,0.06693X0.06693*%
%ADD84C,0.03937*%
%ADD85C,0.01575*%
%ADD87C,0.07874*%
%ADD88C,0.11811*%
%ADD92C,0.03150*%
%ADD93R,0.07284X0.07087*%
%ADD94R,0.04724X0.07087*%
%ADD95R,0.05118X0.07480*%
%ADD96C,0.02953*%
G36*
X102956Y472830D02*
Y465940D01*
X110179D01*
X110190Y465929D01*
Y407826D01*
X109811Y407447D01*
X108970Y407672D01*
X107571D01*
X106219Y407310D01*
X105007Y406610D01*
X104018Y405621D01*
X103318Y404409D01*
X102956Y403057D01*
Y401657D01*
X103318Y400306D01*
X104018Y399094D01*
X105007Y398104D01*
X106219Y397404D01*
X107571Y397042D01*
X108970D01*
X110322Y397404D01*
X111534Y398104D01*
X112524Y399094D01*
X113223Y400306D01*
X113586Y401657D01*
Y403057D01*
X113300Y404124D01*
X114302Y405126D01*
X114824Y405907D01*
X115007Y406829D01*
Y466927D01*
X114824Y467849D01*
X114302Y468630D01*
X113586Y469346D01*
Y472830D01*
X418613Y472830D01*
X418790Y472330D01*
X418507Y471646D01*
Y470863D01*
X418807Y470140D01*
X419078Y469868D01*
Y449582D01*
X418967Y449536D01*
X418413Y448982D01*
X418113Y448259D01*
Y447476D01*
X418413Y446752D01*
X418967Y446198D01*
X419078Y446152D01*
Y431238D01*
X418967Y431191D01*
X418413Y430638D01*
X418113Y429914D01*
Y429131D01*
X418413Y428407D01*
X418967Y427854D01*
X419690Y427554D01*
X420473D01*
X421197Y427854D01*
X421750Y428407D01*
X422050Y429131D01*
Y429914D01*
X421750Y430638D01*
X421197Y431191D01*
X421085Y431238D01*
Y446152D01*
X421197Y446198D01*
X421750Y446752D01*
X422050Y447476D01*
Y448259D01*
X421750Y448982D01*
X421197Y449536D01*
X421085Y449582D01*
Y469377D01*
X421590Y469586D01*
X422144Y470140D01*
X422444Y470863D01*
Y471646D01*
X422161Y472330D01*
X422338Y472830D01*
X492129Y472830D01*
X492129Y363024D01*
X491629Y362765D01*
X491558Y362816D01*
Y431539D01*
X491481Y431923D01*
X491264Y432248D01*
X486754Y436758D01*
X486800Y436870D01*
Y437653D01*
X486501Y438376D01*
X485947Y438930D01*
X485223Y439230D01*
X484440D01*
X483717Y438930D01*
X483163Y438376D01*
X482863Y437653D01*
Y436870D01*
X483163Y436146D01*
X483717Y435592D01*
X484440Y435293D01*
X485223D01*
X485335Y435339D01*
X489551Y431123D01*
Y362561D01*
X489302Y362390D01*
X488802Y362648D01*
Y381477D01*
X488922Y381657D01*
X488999Y382041D01*
Y426170D01*
X488922Y426554D01*
X488705Y426880D01*
X483540Y432045D01*
X483214Y432262D01*
X482830Y432338D01*
X482680D01*
Y432670D01*
X482380Y433393D01*
X481827Y433947D01*
X481103Y434247D01*
X480320D01*
X479597Y433947D01*
X479043Y433393D01*
X478743Y432670D01*
Y431887D01*
X479043Y431163D01*
X479597Y430610D01*
X479708Y430563D01*
Y420785D01*
X479784Y420401D01*
X480002Y420076D01*
X483299Y416779D01*
Y408467D01*
X481774Y406943D01*
X481556Y406617D01*
X481480Y406233D01*
Y402251D01*
X481368Y402205D01*
X480814Y401651D01*
X480515Y400927D01*
Y400144D01*
X480814Y399421D01*
X481368Y398867D01*
X482092Y398567D01*
X482875D01*
X483598Y398867D01*
X484152Y399421D01*
X484373Y399955D01*
X484873Y399855D01*
Y366249D01*
X484333Y365708D01*
X484115Y365382D01*
X484039Y364998D01*
Y313127D01*
X483927Y313081D01*
X483373Y312527D01*
X483074Y311804D01*
Y311021D01*
X483373Y310297D01*
X483927Y309743D01*
X484651Y309444D01*
X485434D01*
X486157Y309743D01*
X486711Y310297D01*
X487011Y311021D01*
Y311804D01*
X486711Y312527D01*
X486157Y313081D01*
X486046Y313127D01*
Y335264D01*
X486546Y335471D01*
X486683Y335334D01*
X487407Y335034D01*
X488190D01*
X488913Y335334D01*
X489467Y335888D01*
X489767Y336611D01*
Y337394D01*
X489467Y338118D01*
X488913Y338672D01*
X488802Y338718D01*
Y358886D01*
X489302Y359093D01*
X489439Y358956D01*
X490163Y358656D01*
X490946D01*
X491629Y358939D01*
X492129Y358763D01*
X492129Y-5D01*
X1013Y-5D01*
X1006Y3D01*
X930Y387D01*
X713Y713D01*
X387Y930D01*
X3Y1006D01*
Y259038D01*
X503Y259138D01*
X679Y258713D01*
X1233Y258159D01*
X1344Y258113D01*
Y220645D01*
X1259Y220560D01*
X1041Y220235D01*
X965Y219851D01*
Y180785D01*
X1041Y180401D01*
X1259Y180076D01*
X3649Y177685D01*
X3264Y177018D01*
X2956Y175867D01*
Y174674D01*
X3264Y173523D01*
X3860Y172491D01*
X4703Y171648D01*
X5736Y171052D01*
X6887Y170743D01*
X8079D01*
X9231Y171052D01*
X10263Y171648D01*
X11106Y172491D01*
X11702Y173523D01*
X12011Y174674D01*
Y175867D01*
X11702Y177018D01*
X11106Y178051D01*
X10263Y178893D01*
X9231Y179490D01*
X8079Y179798D01*
X6887D01*
X5736Y179490D01*
X5069Y179104D01*
X2972Y181201D01*
Y183029D01*
X3472Y183163D01*
X3860Y182491D01*
X4703Y181648D01*
X5736Y181052D01*
X6887Y180743D01*
X8079D01*
X9231Y181052D01*
X10263Y181648D01*
X11106Y182491D01*
X11702Y183523D01*
X12011Y184675D01*
Y185273D01*
X12511Y185480D01*
X12960Y185031D01*
Y173799D01*
X12691Y173530D01*
X12629Y173380D01*
X12566Y173231D01*
X12544Y168968D01*
X12576Y168889D01*
Y168803D01*
X12804Y168253D01*
Y167640D01*
X12566Y167064D01*
Y166980D01*
X12533Y166903D01*
X12479Y156536D01*
X12522Y156432D01*
X12536Y156321D01*
X13007Y155506D01*
X13353Y154213D01*
Y152874D01*
X13007Y151580D01*
X12505Y150711D01*
X12491Y150602D01*
X12448Y150500D01*
X12422Y145524D01*
X12422Y145523D01*
X12422Y145522D01*
X12484Y145371D01*
X12545Y145222D01*
X12546Y145222D01*
X12547Y145220D01*
X12569Y145198D01*
X12804Y144631D01*
Y144018D01*
X12569Y143451D01*
X12534Y143416D01*
X12472Y143266D01*
X12410Y143117D01*
X12362Y133935D01*
X12008Y133583D01*
X11860Y133583D01*
X2953D01*
Y124528D01*
X11813D01*
X12311Y124153D01*
X12292Y120522D01*
X11792Y120457D01*
X11699Y120803D01*
X11103Y121835D01*
X10260Y122678D01*
X9228Y123274D01*
X8076Y123583D01*
X6884D01*
X5733Y123274D01*
X4700Y122678D01*
X3857Y121835D01*
X3261Y120803D01*
X2953Y119651D01*
Y118459D01*
X3261Y117307D01*
X3857Y116275D01*
X4700Y115432D01*
X5733Y114836D01*
X6884Y114528D01*
X8076D01*
X9228Y114836D01*
X10260Y115432D01*
X11103Y116275D01*
X11699Y117307D01*
X11777Y117597D01*
X12277Y117530D01*
X12241Y110712D01*
X11741Y110648D01*
X11699Y110803D01*
X11103Y111835D01*
X10260Y112678D01*
X9228Y113274D01*
X8076Y113583D01*
X6884D01*
X5733Y113274D01*
X4700Y112678D01*
X3857Y111835D01*
X3261Y110803D01*
X2953Y109651D01*
Y108459D01*
X3261Y107308D01*
X3857Y106275D01*
X4700Y105432D01*
X5733Y104836D01*
X6884Y104528D01*
X8076D01*
X9228Y104836D01*
X10260Y105432D01*
X11103Y106275D01*
X11699Y107308D01*
X11724Y107400D01*
X12224Y107333D01*
X12190Y100902D01*
X11699Y100803D01*
X11103Y101835D01*
X10260Y102678D01*
X9228Y103274D01*
X8076Y103583D01*
X6884D01*
X5733Y103274D01*
X4700Y102678D01*
X3857Y101835D01*
X3261Y100803D01*
X2953Y99651D01*
Y98459D01*
X3261Y97308D01*
X3857Y96275D01*
X4700Y95432D01*
X5733Y94836D01*
X6884Y94528D01*
X8076D01*
X9228Y94836D01*
X10260Y95432D01*
X11103Y96275D01*
X11439Y96857D01*
X12106Y97023D01*
X12170Y96983D01*
X12139Y91003D01*
X11638Y90908D01*
X11103Y91835D01*
X10260Y92678D01*
X9228Y93274D01*
X8076Y93583D01*
X6884D01*
X5733Y93274D01*
X4700Y92678D01*
X3857Y91835D01*
X3261Y90803D01*
X2953Y89651D01*
Y88459D01*
X3261Y87308D01*
X3857Y86275D01*
X4700Y85432D01*
X5733Y84836D01*
X6884Y84528D01*
X8076D01*
X9228Y84836D01*
X10260Y85432D01*
X11103Y86275D01*
X11619Y87168D01*
X12118Y87033D01*
X12088Y81130D01*
X11587Y80998D01*
X11103Y81835D01*
X10260Y82678D01*
X9228Y83274D01*
X8076Y83583D01*
X6884D01*
X5733Y83274D01*
X4700Y82678D01*
X3857Y81835D01*
X3261Y80803D01*
X2953Y79651D01*
Y78459D01*
X3261Y77308D01*
X3857Y76275D01*
X4700Y75432D01*
X5733Y74836D01*
X6884Y74528D01*
X8076D01*
X9228Y74836D01*
X10260Y75432D01*
X11103Y76275D01*
X11567Y77078D01*
X12066Y76942D01*
X12036Y71219D01*
X11535Y71087D01*
X11103Y71835D01*
X10260Y72678D01*
X9228Y73274D01*
X8076Y73583D01*
X6884D01*
X5733Y73274D01*
X4700Y72678D01*
X3857Y71835D01*
X3261Y70803D01*
X2953Y69651D01*
Y68459D01*
X3261Y67308D01*
X3857Y66275D01*
X4700Y65432D01*
X5733Y64836D01*
X6884Y64528D01*
X8076D01*
X9228Y64836D01*
X10260Y65432D01*
X11103Y66275D01*
X11514Y66987D01*
X12013Y66852D01*
X11985Y61309D01*
X11484Y61176D01*
X11103Y61835D01*
X10260Y62678D01*
X9228Y63274D01*
X8076Y63583D01*
X6884D01*
X5733Y63274D01*
X4700Y62678D01*
X3857Y61835D01*
X3261Y60803D01*
X2953Y59651D01*
Y58459D01*
X3261Y57308D01*
X3857Y56275D01*
X4700Y55432D01*
X5733Y54836D01*
X6884Y54528D01*
X8076D01*
X9228Y54836D01*
X9895Y55221D01*
X63636Y1480D01*
X63961Y1263D01*
X64346Y1186D01*
X203447D01*
X203831Y1263D01*
X204156Y1480D01*
X245231Y42555D01*
X245449Y42881D01*
X245525Y43265D01*
Y44600D01*
X249533D01*
X250572Y44736D01*
X251541Y45137D01*
X252372Y45775D01*
X253010Y46607D01*
X253411Y47575D01*
X253548Y48614D01*
X253411Y49653D01*
X253010Y50621D01*
X252372Y51453D01*
X251541Y52091D01*
X250572Y52492D01*
X249533Y52629D01*
X243931D01*
X242892Y52492D01*
X241924Y52091D01*
X241092Y51453D01*
X240454Y50621D01*
X240053Y49653D01*
X239916Y48614D01*
X240053Y47575D01*
X240454Y46607D01*
X241092Y45775D01*
X241924Y45137D01*
X242892Y44736D01*
X243518Y44654D01*
Y43681D01*
X228415Y28577D01*
X227928Y28798D01*
X227653Y29462D01*
X227099Y30015D01*
X226988Y30062D01*
Y174879D01*
X226911Y175263D01*
X226694Y175589D01*
X226594Y175688D01*
Y196710D01*
X226706Y196756D01*
X227259Y197310D01*
X227559Y198034D01*
Y198817D01*
X227259Y199540D01*
X226706Y200094D01*
X225982Y200394D01*
X225199D01*
X224476Y200094D01*
X223922Y199540D01*
X223647Y198876D01*
X223160Y198656D01*
X207542Y214274D01*
Y242866D01*
X208042Y243073D01*
X208483Y242632D01*
X209515Y242036D01*
X210667Y241727D01*
X211859D01*
X213010Y242036D01*
X214043Y242632D01*
X214886Y243475D01*
X215482Y244507D01*
X215790Y245659D01*
Y246851D01*
X215482Y248002D01*
X215304Y248310D01*
X216273Y249278D01*
X216735Y249087D01*
Y241727D01*
X225790D01*
Y250782D01*
X226218Y250957D01*
X237991D01*
X238255Y250693D01*
X238979Y250394D01*
X239762D01*
X240485Y250693D01*
X241039Y251247D01*
X241339Y251971D01*
Y252754D01*
X241069Y253405D01*
X241265Y253905D01*
X241732D01*
X241732Y253905D01*
X242034Y254029D01*
X267624Y279620D01*
X267749Y279921D01*
Y345674D01*
X268204Y346129D01*
X268504Y346852D01*
Y347636D01*
X268204Y348359D01*
X267749Y348814D01*
Y349611D01*
X268204Y350066D01*
X268504Y350789D01*
Y351573D01*
X268204Y352296D01*
X267651Y352850D01*
X266927Y353150D01*
X266144D01*
X265420Y352850D01*
X265021Y352451D01*
X264651Y352344D01*
X264371Y352405D01*
X263601Y352995D01*
X262548Y353432D01*
X261417Y353581D01*
X260287Y353432D01*
X259233Y352995D01*
X258329Y352301D01*
X257634Y351397D01*
X257198Y350343D01*
X257135Y349864D01*
X251273Y344002D01*
X251149Y343701D01*
Y341184D01*
X250851Y340887D01*
X250157Y339982D01*
X249721Y338929D01*
X249572Y337798D01*
Y333487D01*
X210691Y294606D01*
X209997Y293701D01*
X209560Y292647D01*
X209412Y291517D01*
Y258088D01*
X209121Y257968D01*
X208567Y257414D01*
X208268Y256691D01*
Y255908D01*
X208567Y255184D01*
X209121Y254630D01*
X209845Y254331D01*
X209907D01*
X209997Y254115D01*
X210668Y253240D01*
X210630Y253148D01*
Y252364D01*
X210930Y251641D01*
X211288Y251282D01*
X211081Y250782D01*
X210667D01*
X209515Y250474D01*
X208483Y249878D01*
X208042Y249437D01*
X207542Y249644D01*
Y265509D01*
X207466Y265893D01*
X207248Y266218D01*
X200347Y273119D01*
X200394Y273231D01*
Y274014D01*
X200094Y274737D01*
X199540Y275291D01*
X198817Y275590D01*
X198034D01*
X197310Y275291D01*
X196756Y274737D01*
X196457Y274014D01*
Y273231D01*
X196756Y272507D01*
X197310Y271953D01*
X198034Y271654D01*
X198817D01*
X198928Y271700D01*
X205535Y265093D01*
Y213858D01*
X205611Y213474D01*
X205829Y213149D01*
X222422Y196556D01*
Y175534D01*
X222310Y175488D01*
X221756Y174934D01*
X221457Y174210D01*
Y173427D01*
X221756Y172704D01*
X222310Y172150D01*
X223034Y171850D01*
X223817D01*
X224481Y172125D01*
X224981Y171937D01*
Y158181D01*
X224481Y157993D01*
X223817Y158268D01*
X223034D01*
X222310Y157968D01*
X221756Y157414D01*
X221457Y156691D01*
Y155908D01*
X221756Y155184D01*
X222020Y154920D01*
Y134844D01*
X221756Y134580D01*
X221457Y133856D01*
Y133073D01*
X221756Y132350D01*
X222310Y131796D01*
X223034Y131496D01*
X223817D01*
X224481Y131771D01*
X224981Y131583D01*
Y30062D01*
X224869Y30015D01*
X224315Y29462D01*
X224016Y28738D01*
Y27955D01*
X224315Y27231D01*
X224869Y26678D01*
X225533Y26403D01*
X225754Y25916D01*
X203031Y3193D01*
X135605D01*
X135337Y3693D01*
X135690Y4221D01*
X135873Y5143D01*
Y13410D01*
X135690Y14332D01*
X135168Y15113D01*
X134701Y15426D01*
X134852Y15926D01*
X196924D01*
X197028Y15822D01*
Y9392D01*
X196916Y9346D01*
X196363Y8792D01*
X196063Y8069D01*
Y7286D01*
X196363Y6562D01*
X196916Y6008D01*
X197640Y5709D01*
X198423D01*
X199147Y6008D01*
X199700Y6562D01*
X200000Y7286D01*
Y8069D01*
X199700Y8792D01*
X199147Y9346D01*
X199035Y9392D01*
Y16237D01*
X198959Y16621D01*
X198741Y16947D01*
X198049Y17639D01*
X197724Y17856D01*
X197340Y17933D01*
X124276D01*
X124181Y18162D01*
X123627Y18716D01*
X122904Y19016D01*
X122120D01*
X121397Y18716D01*
X120843Y18162D01*
X120544Y17439D01*
Y16656D01*
X120843Y15932D01*
X121397Y15378D01*
X122120Y15079D01*
X122904D01*
X123627Y15378D01*
X124174Y15926D01*
X132077D01*
X132229Y15426D01*
X131762Y15113D01*
X131239Y14332D01*
X131056Y13410D01*
Y5143D01*
X131239Y4221D01*
X131592Y3693D01*
X131325Y3193D01*
X64761D01*
X55897Y12058D01*
X56088Y12520D01*
X64146D01*
Y21575D01*
X63986D01*
Y25856D01*
X64146Y26451D01*
Y27643D01*
X63837Y28795D01*
X63241Y29827D01*
X62398Y30670D01*
X61865Y30978D01*
X58539Y34304D01*
Y77165D01*
X59053D01*
X59777Y77465D01*
X60330Y78019D01*
X60630Y78742D01*
Y79525D01*
X60330Y80249D01*
X59777Y80803D01*
X59271Y81012D01*
Y206946D01*
X59383Y206993D01*
X59936Y207546D01*
X60236Y208270D01*
Y209053D01*
X59936Y209776D01*
X59383Y210330D01*
X58659Y210630D01*
X57876D01*
X57153Y210330D01*
X56599Y209776D01*
X56299Y209053D01*
Y208270D01*
X56599Y207546D01*
X57153Y206993D01*
X57264Y206946D01*
Y193992D01*
X56802Y193800D01*
X50301Y200301D01*
X50000Y200426D01*
X13386D01*
X13084Y200301D01*
X12960Y200000D01*
Y198039D01*
X12498Y197847D01*
X11986Y198359D01*
X11081Y199053D01*
X10028Y199490D01*
X8897Y199639D01*
X8675D01*
X8079Y199798D01*
X6887D01*
X5736Y199490D01*
X4703Y198893D01*
X3860Y198051D01*
X3472Y197378D01*
X2972Y197512D01*
Y203029D01*
X3472Y203163D01*
X3860Y202491D01*
X4703Y201648D01*
X5736Y201052D01*
X6887Y200743D01*
X8079D01*
X9231Y201052D01*
X10263Y201648D01*
X11106Y202491D01*
X11702Y203523D01*
X12011Y204675D01*
Y205867D01*
X11702Y207018D01*
X11106Y208051D01*
X10263Y208893D01*
X9231Y209490D01*
X8079Y209798D01*
X6887D01*
X5736Y209490D01*
X4703Y208893D01*
X3860Y208051D01*
X3472Y207378D01*
X2972Y207512D01*
Y213029D01*
X3472Y213163D01*
X3860Y212491D01*
X4703Y211648D01*
X5736Y211052D01*
X6887Y210743D01*
X8079D01*
X9231Y211052D01*
X10263Y211648D01*
X11106Y212491D01*
X11702Y213523D01*
X12011Y214674D01*
Y215867D01*
X11702Y217018D01*
X11106Y218051D01*
X10263Y218894D01*
X9231Y219490D01*
X8079Y219798D01*
X6887D01*
X5736Y219490D01*
X4703Y218894D01*
X3860Y218051D01*
X3472Y217378D01*
X2972Y217512D01*
Y219435D01*
X3057Y219520D01*
X3275Y219846D01*
X3351Y220230D01*
Y232406D01*
X3834Y232536D01*
X3860Y232491D01*
X4703Y231648D01*
X5736Y231052D01*
X6887Y230743D01*
X8079D01*
X9231Y231052D01*
X10263Y231648D01*
X11106Y232491D01*
X11702Y233523D01*
X12011Y234675D01*
Y235867D01*
X11946Y236109D01*
X44413Y268577D01*
X44631Y268902D01*
X44707Y269286D01*
Y351542D01*
X50394D01*
X50394Y351542D01*
X50695Y351667D01*
X50695Y351667D01*
X57765Y358737D01*
X58664Y358619D01*
X59795Y358768D01*
X60848Y359204D01*
X61753Y359898D01*
X62447Y360803D01*
X62884Y361857D01*
X63032Y362987D01*
Y364005D01*
X68018Y368990D01*
X68143Y369291D01*
Y451986D01*
X68643Y452193D01*
X68967Y451869D01*
X69690Y451570D01*
X70473D01*
X71197Y451869D01*
X71750Y452423D01*
X72050Y453147D01*
Y453930D01*
X71750Y454653D01*
X71197Y455207D01*
X71085Y455253D01*
Y458910D01*
X71197Y458956D01*
X71750Y459510D01*
X72050Y460233D01*
Y461017D01*
X71750Y461740D01*
X71197Y462294D01*
X70473Y462593D01*
X69690D01*
X68967Y462294D01*
X68643Y461970D01*
X68143Y462177D01*
Y471260D01*
X68018Y471561D01*
X67716Y471686D01*
X65316D01*
X65154Y471810D01*
X64100Y472246D01*
X63468Y472330D01*
X63501Y472830D01*
X102956Y472830D01*
D02*
G37*
G36*
X67716Y369291D02*
X50394Y351969D01*
X44707D01*
Y378595D01*
X44819Y378641D01*
X45373Y379195D01*
X45672Y379918D01*
Y380701D01*
X45373Y381425D01*
X44819Y381979D01*
X44095Y382278D01*
X43312D01*
X42589Y381979D01*
X42035Y381425D01*
X41735Y380701D01*
Y379918D01*
X42035Y379195D01*
X42589Y378641D01*
X42700Y378595D01*
Y351969D01*
X39396D01*
Y352746D01*
X39861Y353211D01*
X40160Y353934D01*
Y354717D01*
X39861Y355441D01*
X39307Y355995D01*
X38583Y356294D01*
X37800D01*
X37077Y355995D01*
X36523Y355441D01*
X36223Y354717D01*
Y353934D01*
X36523Y353211D01*
X36988Y352746D01*
Y351969D01*
X32109D01*
Y364028D01*
X32220Y364074D01*
X32774Y364628D01*
X33074Y365352D01*
Y366135D01*
X32774Y366858D01*
X32220Y367412D01*
X31497Y367711D01*
X30714D01*
X29990Y367412D01*
X29436Y366858D01*
X29137Y366135D01*
Y365352D01*
X29436Y364628D01*
X29990Y364074D01*
X30102Y364028D01*
Y351969D01*
X27392D01*
Y385230D01*
X27656Y385494D01*
X27956Y386218D01*
Y387001D01*
X27656Y387724D01*
X27102Y388278D01*
X26379Y388578D01*
X25596D01*
X24872Y388278D01*
X24318Y387724D01*
X24019Y387001D01*
Y386218D01*
X24318Y385494D01*
X24582Y385230D01*
Y351969D01*
X13780D01*
X11024Y349213D01*
X2759Y349601D01*
X1181Y351179D01*
Y466142D01*
X6299Y471260D01*
X67716D01*
Y369291D01*
D02*
G37*
G36*
X41829Y472830D02*
X41862Y472330D01*
X41230Y472246D01*
X40177Y471810D01*
X40015Y471686D01*
X6299D01*
X5998Y471561D01*
X880Y466443D01*
X755Y466142D01*
Y351179D01*
X755Y351179D01*
X880Y350878D01*
X880Y350878D01*
X2458Y349300D01*
X2600Y349241D01*
X2739Y349176D01*
X11004Y348787D01*
X11014Y348791D01*
X11024Y348786D01*
X11166Y348845D01*
X11310Y348897D01*
X11315Y348907D01*
X11325Y348911D01*
X13956Y351542D01*
X24582D01*
Y335232D01*
X24318Y334968D01*
X24019Y334245D01*
Y333462D01*
X24318Y332738D01*
X24872Y332184D01*
X25596Y331885D01*
X26379D01*
X27102Y332184D01*
X27656Y332738D01*
X27956Y333462D01*
Y334245D01*
X27656Y334968D01*
X27392Y335232D01*
Y351542D01*
X30102D01*
Y271907D01*
X14705Y256510D01*
X11838D01*
X11702Y257018D01*
X11106Y258051D01*
X10263Y258893D01*
X9231Y259490D01*
X8079Y259798D01*
X6887D01*
X5736Y259490D01*
X4703Y258893D01*
X4582Y258773D01*
X4158Y259056D01*
X4316Y259436D01*
Y260220D01*
X4272Y260327D01*
X4549Y260743D01*
X12011D01*
Y269798D01*
X2956D01*
Y261941D01*
X2739Y261796D01*
X1956D01*
X1233Y261497D01*
X679Y260943D01*
X503Y260518D01*
X3Y260618D01*
Y472830D01*
X41829Y472830D01*
D02*
G37*
G36*
X267323Y279921D02*
X241732Y254331D01*
X212598D01*
Y277559D01*
X251575Y316535D01*
Y343701D01*
X259055Y351181D01*
X267323D01*
Y279921D01*
D02*
G37*
G36*
X57264Y192736D02*
Y80520D01*
X56993Y80249D01*
X56693Y79525D01*
Y78742D01*
X56993Y78019D01*
X57546Y77465D01*
X58113Y77231D01*
Y28191D01*
X51575Y21654D01*
X46301D01*
X12381Y55574D01*
X12836Y143115D01*
X12930Y143209D01*
X13230Y143933D01*
Y144716D01*
X12930Y145440D01*
X12848Y145522D01*
X12874Y150498D01*
X13404Y151416D01*
X13780Y152818D01*
Y154269D01*
X13404Y155671D01*
X12905Y156534D01*
X12959Y166901D01*
X13230Y167555D01*
Y168338D01*
X12970Y168966D01*
X12992Y173228D01*
X13386Y173622D01*
Y200000D01*
X50000D01*
X57264Y192736D01*
D02*
G37*
%LPC*%
G36*
X233465Y470505D02*
X188420D01*
X188119Y470380D01*
X187994Y470079D01*
Y466334D01*
X178217D01*
Y470079D01*
X178092Y470380D01*
X177790Y470505D01*
X121260D01*
X120958Y470380D01*
X120834Y470079D01*
Y452756D01*
X120834Y452756D01*
X120958Y452455D01*
X120958Y452455D01*
X131967Y441446D01*
X131984Y441280D01*
X132266Y440349D01*
X131984Y439419D01*
X131862Y438184D01*
X131984Y436949D01*
X132344Y435762D01*
X132929Y434667D01*
X133716Y433708D01*
X138042Y429383D01*
X138042Y429383D01*
X139001Y428595D01*
X140095Y428010D01*
X141283Y427650D01*
X142518Y427529D01*
X171616D01*
Y422723D01*
X171765Y421592D01*
X172201Y420539D01*
X172896Y419634D01*
X184988Y407541D01*
X185893Y406847D01*
X186946Y406411D01*
X188077Y406262D01*
X208268D01*
X209398Y406411D01*
X210080Y406693D01*
X212303D01*
Y408516D01*
X212803Y408719D01*
X212894Y408625D01*
Y406693D01*
X215117D01*
X215799Y406411D01*
X216929Y406262D01*
X231772D01*
X232902Y406411D01*
X233956Y406847D01*
X234860Y407541D01*
X247713Y420394D01*
X248781D01*
Y417819D01*
X243167Y412205D01*
X242916D01*
X242192Y411905D01*
X241638Y411351D01*
X241339Y410628D01*
Y410376D01*
X225881Y394919D01*
X214567D01*
X213436Y394770D01*
X212383Y394334D01*
X211478Y393640D01*
X210784Y392735D01*
X210348Y391682D01*
X210199Y390551D01*
X210348Y389421D01*
X210784Y388367D01*
X211478Y387462D01*
X212383Y386768D01*
X213436Y386332D01*
X214567Y386183D01*
X227691D01*
X228821Y386332D01*
X229875Y386768D01*
X230780Y387462D01*
X256238Y412921D01*
X256932Y413826D01*
X257369Y414880D01*
X257518Y416010D01*
Y430028D01*
X257369Y431158D01*
X256932Y432212D01*
X256238Y433116D01*
X251345Y438010D01*
X250440Y438704D01*
X249387Y439141D01*
X248256Y439289D01*
X246073D01*
X245478Y439449D01*
X244286D01*
X243134Y439140D01*
X242102Y438544D01*
X241259Y437701D01*
X240663Y436669D01*
X240354Y435517D01*
Y434325D01*
X240663Y433174D01*
X241259Y432141D01*
X242102Y431298D01*
X243134Y430702D01*
X244286Y430394D01*
X245478D01*
X246073Y430553D01*
X246447D01*
X247089Y429911D01*
X246898Y429449D01*
X240354D01*
Y425390D01*
X229962Y414998D01*
X221297D01*
Y422559D01*
X221148Y423690D01*
X220712Y424743D01*
X220018Y425648D01*
X218104Y427561D01*
X217796Y428095D01*
X216953Y428938D01*
X215921Y429534D01*
X214769Y429843D01*
X213577D01*
X212426Y429534D01*
X211393Y428938D01*
X210550Y428095D01*
X209954Y427063D01*
X209646Y425911D01*
Y424719D01*
X209954Y423567D01*
X210550Y422535D01*
X211393Y421692D01*
X211927Y421384D01*
X212561Y420750D01*
Y414960D01*
X212303Y414567D01*
X210080D01*
X209398Y414849D01*
X208268Y414998D01*
X189886D01*
X180352Y424532D01*
Y429294D01*
X180460Y429383D01*
X181247Y430342D01*
X181636Y431070D01*
X209646D01*
Y430787D01*
X218701D01*
Y431070D01*
X220866D01*
X220866Y431070D01*
X221167Y431195D01*
X227736Y437763D01*
X239764D01*
X240065Y437888D01*
X240190Y438189D01*
Y452532D01*
X299226D01*
X299325Y452032D01*
X299180Y451972D01*
X298626Y451418D01*
X298458Y451011D01*
X269883D01*
X269619Y451275D01*
X268896Y451575D01*
X268112D01*
X267389Y451275D01*
X266835Y450721D01*
X266535Y449998D01*
Y449215D01*
X266835Y448491D01*
X267389Y447937D01*
X268112Y447638D01*
X268896D01*
X269619Y447937D01*
X269883Y448201D01*
X299279D01*
X299816Y448308D01*
X299874Y448347D01*
X299904Y448335D01*
X300418D01*
X300572Y447852D01*
X300572Y447835D01*
X296438Y443701D01*
X296065D01*
X295342Y443401D01*
X294881Y442940D01*
X271500D01*
X271433Y443007D01*
X270709Y443307D01*
X269926D01*
X269203Y443007D01*
X268649Y442454D01*
X268349Y441730D01*
Y440947D01*
X268649Y440224D01*
X269203Y439670D01*
X269926Y439370D01*
X270709D01*
X271433Y439670D01*
X271894Y440131D01*
X295275D01*
X295342Y440063D01*
X296065Y439764D01*
X296848D01*
X297572Y440063D01*
X298126Y440617D01*
X298425Y441341D01*
Y441714D01*
X302152Y445440D01*
X327956D01*
Y439956D01*
X334925D01*
Y434556D01*
X335001Y434172D01*
X335219Y433847D01*
X335614Y433452D01*
Y423757D01*
X335502Y423711D01*
X334948Y423157D01*
X334649Y422434D01*
Y421651D01*
X334948Y420927D01*
X335502Y420373D01*
X336226Y420074D01*
X337009D01*
X337732Y420373D01*
X338286Y420927D01*
X338586Y421651D01*
Y422434D01*
X338286Y423157D01*
X337732Y423711D01*
X337621Y423757D01*
Y433867D01*
X337544Y434251D01*
X337327Y434577D01*
X336932Y434972D01*
Y441143D01*
X337043Y441189D01*
X337597Y441743D01*
X337897Y442466D01*
Y443249D01*
X337597Y443973D01*
X337043Y444526D01*
X336320Y444826D01*
X335830D01*
Y445440D01*
X345474D01*
X345738Y445177D01*
X346462Y444877D01*
X347245D01*
X347968Y445177D01*
X348522Y445730D01*
X348822Y446454D01*
Y447237D01*
X348522Y447961D01*
X348084Y448398D01*
X348248Y448898D01*
X358793D01*
X358964Y448486D01*
X359518Y447932D01*
X360241Y447633D01*
X361024D01*
X361748Y447932D01*
X362302Y448486D01*
X362601Y449210D01*
Y449993D01*
X362302Y450716D01*
X361748Y451270D01*
X361024Y451570D01*
X360241D01*
X360213Y451558D01*
X360149Y451601D01*
X359611Y451708D01*
X301674D01*
X301410Y451972D01*
X301265Y452032D01*
X301365Y452532D01*
X302043D01*
X302580Y452639D01*
X303036Y452944D01*
X304029Y453937D01*
X304722D01*
X305446Y454237D01*
X305999Y454790D01*
X306299Y455514D01*
Y456297D01*
X305999Y457021D01*
X305446Y457574D01*
X304722Y457874D01*
X303939D01*
X303216Y457574D01*
X302662Y457021D01*
X302362Y456297D01*
Y456244D01*
X301461Y455342D01*
X240190D01*
Y463779D01*
X240065Y464081D01*
X240065Y464081D01*
X233766Y470380D01*
X233465Y470505D01*
D02*
G37*
G36*
X327894Y467711D02*
X326443D01*
X325041Y467336D01*
X323784Y466610D01*
X322758Y465584D01*
X322032Y464327D01*
X321656Y462925D01*
Y461474D01*
X322032Y460072D01*
X322758Y458815D01*
X323784Y457789D01*
X325041Y457063D01*
X326443Y456688D01*
X327894D01*
X329296Y457063D01*
X330553Y457789D01*
X331579Y458815D01*
X332305Y460072D01*
X332680Y461474D01*
Y462925D01*
X332305Y464327D01*
X331579Y465584D01*
X330553Y466610D01*
X329296Y467336D01*
X327894Y467711D01*
D02*
G37*
G36*
X483892Y470093D02*
X454379D01*
X453995Y470017D01*
X453669Y469799D01*
X449490Y465620D01*
X449465Y465582D01*
X448839Y464956D01*
X448430D01*
X447707Y464656D01*
X447153Y464102D01*
X446853Y463379D01*
Y462596D01*
X447153Y461872D01*
X447707Y461318D01*
X448430Y461019D01*
X449213D01*
X449937Y461318D01*
X450491Y461872D01*
X450719Y462424D01*
X451202Y462559D01*
X451273Y462553D01*
X451644Y462181D01*
X451755Y462135D01*
Y450056D01*
X451832Y449672D01*
X452049Y449347D01*
X472228Y429168D01*
Y418299D01*
X472011Y417833D01*
X471756Y417832D01*
X468868D01*
X467767Y418934D01*
Y423027D01*
X459893D01*
Y421465D01*
X459393Y421342D01*
X458992Y421743D01*
X458268Y422042D01*
X457485D01*
X456762Y421743D01*
X456274Y421255D01*
X452805D01*
X452506Y421976D01*
X451953Y422530D01*
X451841Y422576D01*
Y437963D01*
X451765Y438347D01*
X451547Y438673D01*
X450219Y440001D01*
Y454973D01*
X450331Y455019D01*
X450884Y455573D01*
X451184Y456296D01*
Y457080D01*
X450884Y457803D01*
X450331Y458357D01*
X449607Y458656D01*
X448824D01*
X448101Y458357D01*
X447547Y457803D01*
X447247Y457080D01*
Y456296D01*
X447547Y455573D01*
X448101Y455019D01*
X448212Y454973D01*
Y439585D01*
X448288Y439201D01*
X448506Y438876D01*
X449834Y437548D01*
Y423069D01*
X449782Y423033D01*
X449282Y423295D01*
Y434014D01*
X449206Y434398D01*
X448988Y434723D01*
X446925Y436786D01*
X446971Y436898D01*
Y437681D01*
X446672Y438404D01*
X446118Y438958D01*
X445395Y439258D01*
X444611D01*
X443888Y438958D01*
X443334Y438404D01*
X443034Y437681D01*
Y436898D01*
X443334Y436174D01*
X443888Y435620D01*
X444611Y435321D01*
X445395D01*
X445506Y435367D01*
X447275Y433598D01*
Y430230D01*
X446775Y430023D01*
X446394Y430404D01*
X445670Y430704D01*
X444887D01*
X444164Y430404D01*
X443610Y429850D01*
X443310Y429127D01*
Y428344D01*
X443610Y427620D01*
X444074Y427155D01*
Y417323D01*
X443610Y416858D01*
X443310Y416135D01*
Y415351D01*
X443610Y414628D01*
X444164Y414074D01*
X444887Y413774D01*
X445118D01*
X446484Y412409D01*
Y403314D01*
X445973Y402803D01*
X445712Y402412D01*
X445620Y401952D01*
X445620Y401952D01*
Y392206D01*
X445155Y391742D01*
X444856Y391018D01*
Y390235D01*
X445155Y389512D01*
X445709Y388958D01*
X446433Y388658D01*
X447097D01*
Y381294D01*
X449050D01*
X449241Y380832D01*
X445195Y376786D01*
X434562D01*
X434374Y377286D01*
X434649Y377950D01*
Y378733D01*
X434598Y378854D01*
X434788Y379138D01*
X434865Y379523D01*
Y393468D01*
X434976Y393514D01*
X435530Y394068D01*
X435830Y394792D01*
Y395575D01*
X435530Y396298D01*
X434976Y396852D01*
X434865Y396898D01*
Y456154D01*
X434976Y456200D01*
X435530Y456754D01*
X435830Y457477D01*
Y458261D01*
X435530Y458984D01*
X434976Y459538D01*
X434253Y459837D01*
X433470D01*
X432746Y459538D01*
X432192Y458984D01*
X431893Y458261D01*
Y457477D01*
X432192Y456754D01*
X432746Y456200D01*
X432858Y456154D01*
Y396898D01*
X432746Y396852D01*
X432192Y396298D01*
X431893Y395575D01*
Y394792D01*
X432192Y394068D01*
X432746Y393514D01*
X432858Y393468D01*
Y380310D01*
X432289D01*
X431565Y380010D01*
X431011Y379456D01*
X430781Y378900D01*
X430326Y378749D01*
X430220Y378753D01*
X428544Y380429D01*
X428219Y380646D01*
X427835Y380723D01*
X417531D01*
X417147Y380646D01*
X416821Y380429D01*
X415751Y379359D01*
X415355Y379522D01*
X414572D01*
X413848Y379223D01*
X413295Y378669D01*
X412995Y377946D01*
Y377163D01*
X413295Y376439D01*
X413848Y375885D01*
X414572Y375586D01*
X415355D01*
X416079Y375885D01*
X416632Y376439D01*
X416932Y377163D01*
Y377701D01*
X417946Y378716D01*
X424893D01*
X425081Y378216D01*
X424806Y377552D01*
Y376769D01*
X425106Y376045D01*
X425570Y375581D01*
Y369685D01*
X425106Y369220D01*
X424806Y368497D01*
Y367714D01*
X425106Y366990D01*
X425660Y366436D01*
X426383Y366137D01*
X427166D01*
X427890Y366436D01*
X428443Y366990D01*
X428743Y367714D01*
Y368497D01*
X428443Y369220D01*
X427979Y369685D01*
Y375581D01*
X428443Y376045D01*
X428674Y376602D01*
X429129Y376753D01*
X429235Y376749D01*
X430910Y375073D01*
X431236Y374855D01*
X431620Y374779D01*
X445611D01*
X445995Y374855D01*
X446320Y375073D01*
X448537Y377290D01*
X448999Y377099D01*
Y374545D01*
X448888Y374499D01*
X448334Y373945D01*
X448034Y373221D01*
Y372438D01*
X448334Y371715D01*
X448888Y371161D01*
X449026Y371103D01*
Y347752D01*
X448942Y347717D01*
X448388Y347164D01*
X448089Y346440D01*
Y345657D01*
X448388Y344934D01*
X448942Y344380D01*
X449665Y344080D01*
X450449D01*
X451172Y344380D01*
X451726Y344934D01*
X452026Y345657D01*
Y346440D01*
X451726Y347164D01*
X451172Y347717D01*
X451033Y347775D01*
Y371126D01*
X451118Y371161D01*
X451672Y371715D01*
X451971Y372438D01*
Y373221D01*
X451672Y373945D01*
X451118Y374499D01*
X451007Y374545D01*
Y377532D01*
X451600Y378125D01*
X453275D01*
X453659Y378202D01*
X453985Y378419D01*
X454102Y378536D01*
X454308D01*
X454597Y378247D01*
X455320Y377948D01*
X456103D01*
X456827Y378247D01*
X457380Y378801D01*
X457680Y379525D01*
Y380308D01*
X457405Y380972D01*
X457593Y381472D01*
X464639D01*
X465011Y381100D01*
Y380691D01*
X465310Y379968D01*
X465864Y379414D01*
X466588Y379114D01*
X467371D01*
X467804Y379294D01*
X468187Y378911D01*
X468113Y378733D01*
Y377950D01*
X468413Y377226D01*
X468967Y376673D01*
X469078Y376626D01*
Y370489D01*
X455231Y356642D01*
X455119Y356688D01*
X454336D01*
X453612Y356388D01*
X453058Y355835D01*
X452759Y355111D01*
Y354328D01*
X453058Y353604D01*
X453612Y353051D01*
X454336Y352751D01*
X455119D01*
X455842Y353051D01*
X456396Y353604D01*
X456696Y354328D01*
Y355111D01*
X456650Y355223D01*
X470791Y369364D01*
X471009Y369690D01*
X471085Y370074D01*
Y376626D01*
X471197Y376673D01*
X471750Y377226D01*
X472050Y377950D01*
Y378733D01*
X471750Y379456D01*
X471197Y380010D01*
X470473Y380310D01*
X469690D01*
X469257Y380130D01*
X468874Y380513D01*
X468948Y380691D01*
Y381474D01*
X468648Y382198D01*
X468094Y382752D01*
X467371Y383051D01*
X466588D01*
X466100Y382849D01*
X465764Y383185D01*
X465438Y383402D01*
X465054Y383479D01*
X454395D01*
X454011Y383402D01*
X453685Y383185D01*
X453071Y382571D01*
X452609Y382762D01*
Y384247D01*
X460286D01*
Y384444D01*
X467767D01*
Y388578D01*
X471946D01*
X472137Y388116D01*
X471728Y387706D01*
X471617Y387752D01*
X470833D01*
X470110Y387453D01*
X469556Y386899D01*
X469256Y386175D01*
Y385392D01*
X469556Y384669D01*
X470110Y384115D01*
X470833Y383815D01*
X471617D01*
X472340Y384115D01*
X472894Y384669D01*
X473193Y385392D01*
Y386175D01*
X473147Y386287D01*
X474484Y387623D01*
X474683Y387597D01*
X474984Y387448D01*
Y382365D01*
X474910Y382335D01*
X474356Y381781D01*
X474057Y381057D01*
Y380274D01*
X474356Y379551D01*
X474910Y378997D01*
X474984Y378966D01*
Y289759D01*
X475060Y289375D01*
X475278Y289049D01*
X476821Y287506D01*
X476775Y287394D01*
Y286611D01*
X477074Y285888D01*
X477628Y285334D01*
X478351Y285034D01*
X479135D01*
X479858Y285334D01*
X480412Y285888D01*
X480712Y286611D01*
Y287394D01*
X480412Y288118D01*
X479858Y288672D01*
X479135Y288971D01*
X478351D01*
X478240Y288925D01*
X476991Y290174D01*
Y378935D01*
X477140Y378997D01*
X477694Y379551D01*
X477994Y380274D01*
Y381057D01*
X477694Y381781D01*
X477140Y382335D01*
X476991Y382397D01*
Y415078D01*
X476914Y415462D01*
X476697Y415788D01*
X475667Y416818D01*
X475874Y417318D01*
X476379D01*
X477102Y417618D01*
X477656Y418171D01*
X477956Y418895D01*
Y419678D01*
X477656Y420401D01*
X477102Y420955D01*
X476597Y421164D01*
Y436535D01*
X476521Y436919D01*
X476507Y436939D01*
X476739Y437499D01*
Y438282D01*
X476440Y439005D01*
X475886Y439559D01*
X475162Y439859D01*
X474379D01*
X473656Y439559D01*
X473102Y439005D01*
X472802Y438282D01*
Y437499D01*
X473102Y436775D01*
X473656Y436221D01*
X474379Y435922D01*
X474590D01*
Y430166D01*
X474090Y430070D01*
X473941Y430293D01*
X453762Y450472D01*
Y462135D01*
X453874Y462181D01*
X454428Y462735D01*
X454727Y463459D01*
Y464242D01*
X454428Y464965D01*
X453874Y465519D01*
X453210Y465794D01*
X452989Y466281D01*
X454795Y468086D01*
X476335D01*
X476487Y467586D01*
X475943Y467223D01*
X474901Y466181D01*
X474083Y464956D01*
X473519Y463594D01*
X473231Y462149D01*
Y460676D01*
X473519Y459230D01*
X474083Y457869D01*
X474901Y456644D01*
X475943Y455602D01*
X477168Y454783D01*
X478530Y454219D01*
X479975Y453932D01*
X481448D01*
X482894Y454219D01*
X484255Y454783D01*
X485480Y455602D01*
X486522Y456644D01*
X486885Y457188D01*
X487385Y457036D01*
Y454938D01*
X480821Y448374D01*
X480710Y448420D01*
X479926D01*
X479203Y448120D01*
X478649Y447567D01*
X478349Y446843D01*
Y446060D01*
X478649Y445337D01*
X479203Y444783D01*
X479926Y444483D01*
X480710D01*
X481433Y444783D01*
X481987Y445337D01*
X482286Y446060D01*
Y446843D01*
X482240Y446955D01*
X489098Y453813D01*
X489316Y454139D01*
X489392Y454523D01*
Y464592D01*
X489316Y464976D01*
X489098Y465302D01*
X484601Y469799D01*
X484276Y470017D01*
X483892Y470093D01*
D02*
G37*
G36*
X288155Y434363D02*
X287372D01*
X286648Y434063D01*
X286178Y433593D01*
X262793D01*
X262735Y433651D01*
X262012Y433951D01*
X261229D01*
X260505Y433651D01*
X259951Y433097D01*
X259652Y432374D01*
Y431591D01*
X259951Y430867D01*
X260505Y430313D01*
X261229Y430014D01*
X262012D01*
X262735Y430313D01*
X263205Y430783D01*
X286591D01*
X286648Y430726D01*
X287372Y430426D01*
X288155D01*
X288878Y430726D01*
X289432Y431279D01*
X289732Y432003D01*
Y432786D01*
X289432Y433509D01*
X288878Y434063D01*
X288155Y434363D01*
D02*
G37*
G36*
X392730Y440724D02*
X391947D01*
X391224Y440425D01*
X390670Y439871D01*
X390370Y439147D01*
Y438364D01*
X390670Y437641D01*
X391224Y437087D01*
X391947Y436787D01*
X392730D01*
X393454Y437087D01*
X393718Y437351D01*
X398359D01*
X398566Y436851D01*
X398493Y436778D01*
X398193Y436054D01*
Y435271D01*
X398493Y434548D01*
X399047Y433994D01*
X399196Y433932D01*
Y432316D01*
X399273Y431932D01*
X399490Y431607D01*
X399787Y431310D01*
Y414702D01*
X399675Y414656D01*
X399121Y414102D01*
X398822Y413379D01*
Y412596D01*
X399121Y411872D01*
X399675Y411318D01*
X400399Y411019D01*
X401182D01*
X401905Y411318D01*
X402459Y411872D01*
X402759Y412596D01*
Y413379D01*
X402459Y414102D01*
X401905Y414656D01*
X401794Y414702D01*
Y431726D01*
X401718Y432110D01*
X401500Y432435D01*
X401203Y432732D01*
Y433963D01*
X401277Y433994D01*
X401831Y434548D01*
X402130Y435271D01*
Y436054D01*
X401831Y436778D01*
X401758Y436851D01*
X401965Y437351D01*
X405150D01*
X411811Y430690D01*
Y430317D01*
X412111Y429594D01*
X412665Y429040D01*
X413388Y428740D01*
X414171D01*
X414895Y429040D01*
X415448Y429594D01*
X415748Y430317D01*
Y431100D01*
X415448Y431824D01*
X414895Y432377D01*
X414171Y432677D01*
X413798D01*
X406726Y439749D01*
X406270Y440054D01*
X405732Y440161D01*
X393718D01*
X393454Y440425D01*
X392730Y440724D01*
D02*
G37*
G36*
X81497Y451964D02*
X80714D01*
X79990Y451664D01*
X79436Y451110D01*
X79137Y450386D01*
Y449603D01*
X79436Y448880D01*
X79990Y448326D01*
X80102Y448280D01*
Y432025D01*
X79990Y431979D01*
X79436Y431425D01*
X79137Y430701D01*
Y429918D01*
X79436Y429195D01*
X79990Y428641D01*
X80714Y428341D01*
X81497D01*
X82220Y428641D01*
X82774Y429195D01*
X83074Y429918D01*
Y430701D01*
X82774Y431425D01*
X82220Y431979D01*
X82109Y432025D01*
Y448280D01*
X82220Y448326D01*
X82774Y448880D01*
X83074Y449603D01*
Y450386D01*
X82774Y451110D01*
X82220Y451664D01*
X81497Y451964D01*
D02*
G37*
G36*
X99213Y470861D02*
X98430D01*
X97707Y470561D01*
X97153Y470008D01*
X96853Y469284D01*
Y468501D01*
X97153Y467778D01*
X97707Y467224D01*
X97818Y467178D01*
Y429269D01*
X97707Y429223D01*
X97153Y428669D01*
X96853Y427946D01*
Y427514D01*
X96353Y427415D01*
X96160Y427882D01*
X95606Y428436D01*
X95495Y428482D01*
Y458910D01*
X95606Y458956D01*
X96160Y459510D01*
X96460Y460233D01*
Y461017D01*
X96160Y461740D01*
X95606Y462294D01*
X94883Y462593D01*
X94100D01*
X93376Y462294D01*
X92822Y461740D01*
X92523Y461017D01*
Y460233D01*
X92822Y459510D01*
X93376Y458956D01*
X93488Y458910D01*
Y428482D01*
X93376Y428436D01*
X92822Y427882D01*
X92523Y427158D01*
Y426375D01*
X92822Y425652D01*
X93376Y425098D01*
X94100Y424798D01*
X94883D01*
X95606Y425098D01*
X96160Y425652D01*
X96460Y426375D01*
Y426806D01*
X96960Y426906D01*
X97153Y426439D01*
X97707Y425885D01*
X97818Y425839D01*
Y397627D01*
X97279Y397088D01*
X96979Y396364D01*
Y395581D01*
X97279Y394858D01*
X97833Y394304D01*
X98556Y394004D01*
X99339D01*
X100063Y394304D01*
X100617Y394858D01*
X100916Y395581D01*
Y396364D01*
X100617Y397088D01*
X100063Y397642D01*
X99825Y397740D01*
Y425839D01*
X99937Y425885D01*
X100491Y426439D01*
X100790Y427163D01*
Y427946D01*
X100491Y428669D01*
X99937Y429223D01*
X99825Y429269D01*
Y467178D01*
X99937Y467224D01*
X100491Y467778D01*
X100790Y468501D01*
Y469284D01*
X100491Y470008D01*
X99937Y470561D01*
X99213Y470861D01*
D02*
G37*
G36*
X429919Y439764D02*
X429136D01*
X428412Y439464D01*
X427859Y438910D01*
X427559Y438187D01*
Y437404D01*
X427859Y436680D01*
X428412Y436127D01*
X429110Y435838D01*
Y426688D01*
X428610Y426495D01*
X427954Y426767D01*
X427170D01*
X426447Y426467D01*
X425893Y425913D01*
X425594Y425190D01*
Y424407D01*
X425640Y424295D01*
X420060Y418715D01*
X419528D01*
X418984Y419259D01*
X418260Y419559D01*
X417477D01*
X416754Y419259D01*
X416200Y418706D01*
X416073Y418400D01*
X415573Y418500D01*
Y421804D01*
X415685Y421850D01*
X416239Y422403D01*
X416538Y423127D01*
Y423910D01*
X416239Y424634D01*
X415685Y425187D01*
X414961Y425487D01*
X414178D01*
X413455Y425187D01*
X412901Y424634D01*
X412601Y423910D01*
Y423127D01*
X412901Y422403D01*
X413455Y421850D01*
X413566Y421804D01*
Y391867D01*
X413455Y391821D01*
X412901Y391267D01*
X412601Y390544D01*
Y389761D01*
X412901Y389037D01*
X413455Y388484D01*
X414178Y388184D01*
X414961D01*
X415685Y388484D01*
X416239Y389037D01*
X416538Y389761D01*
Y390544D01*
X416239Y391267D01*
X415685Y391821D01*
X415573Y391867D01*
Y397865D01*
X416073Y398072D01*
X416208Y397937D01*
X416931Y397638D01*
X417714D01*
X418438Y397937D01*
X418992Y398491D01*
X419291Y399215D01*
Y399998D01*
X418992Y400721D01*
X418728Y400985D01*
Y409801D01*
X431508Y422582D01*
X431813Y423037D01*
X431920Y423575D01*
Y436488D01*
X431813Y437026D01*
X431508Y437482D01*
X431496Y437490D01*
Y438187D01*
X431196Y438910D01*
X430643Y439464D01*
X429919Y439764D01*
D02*
G37*
G36*
X388190Y430310D02*
X387407D01*
X386683Y430010D01*
X386129Y429457D01*
X385830Y428733D01*
Y427950D01*
X385876Y427838D01*
X382364Y424327D01*
X382147Y424001D01*
X382070Y423617D01*
Y410765D01*
X381959Y410719D01*
X381405Y410165D01*
X381105Y409442D01*
Y408659D01*
X381405Y407935D01*
X381959Y407381D01*
X382070Y407335D01*
Y400211D01*
X366837D01*
X366453Y400135D01*
X366127Y399917D01*
X365435Y399225D01*
X365217Y398900D01*
X365141Y398516D01*
Y396845D01*
X363389D01*
Y388971D01*
X368901D01*
Y396845D01*
X367148D01*
Y398100D01*
X367252Y398204D01*
X382070D01*
Y395411D01*
X381959Y395365D01*
X381405Y394811D01*
X381105Y394087D01*
Y393304D01*
X381405Y392581D01*
X381959Y392027D01*
X382682Y391727D01*
X383465D01*
X384189Y392027D01*
X384743Y392581D01*
X385042Y393304D01*
Y394087D01*
X384743Y394811D01*
X384189Y395365D01*
X384077Y395411D01*
Y399266D01*
Y407335D01*
X384189Y407381D01*
X384743Y407935D01*
X385042Y408659D01*
Y409442D01*
X384743Y410165D01*
X384189Y410719D01*
X384077Y410765D01*
Y423201D01*
X387295Y426419D01*
X387407Y426373D01*
X388190D01*
X388913Y426673D01*
X389467Y427226D01*
X389767Y427950D01*
Y428733D01*
X389467Y429457D01*
X388913Y430010D01*
X388190Y430310D01*
D02*
G37*
G36*
X72639Y448617D02*
X71855D01*
X71132Y448317D01*
X70578Y447764D01*
X70279Y447040D01*
Y446257D01*
X70578Y445534D01*
X70842Y445270D01*
Y426374D01*
X70381Y425913D01*
X70082Y425190D01*
Y424407D01*
X70381Y423683D01*
X70935Y423129D01*
X71659Y422830D01*
X72442D01*
X73165Y423129D01*
X73719Y423683D01*
X74019Y424407D01*
Y425190D01*
X73719Y425913D01*
X73652Y425980D01*
Y445270D01*
X73916Y445534D01*
X74216Y446257D01*
Y447040D01*
X73916Y447764D01*
X73362Y448317D01*
X72639Y448617D01*
D02*
G37*
G36*
X88977Y450782D02*
X88194D01*
X87471Y450483D01*
X86917Y449929D01*
X86617Y449205D01*
Y448422D01*
X86917Y447699D01*
X87181Y447435D01*
Y422736D01*
X86683Y422530D01*
X86129Y421976D01*
X85830Y421253D01*
Y420470D01*
X86129Y419746D01*
X86683Y419192D01*
X87407Y418893D01*
X88190D01*
X88913Y419192D01*
X89467Y419746D01*
X89767Y420470D01*
Y420936D01*
X89884Y421111D01*
X89991Y421649D01*
Y447435D01*
X90254Y447699D01*
X90554Y448422D01*
Y449205D01*
X90254Y449929D01*
X89701Y450483D01*
X88977Y450782D01*
D02*
G37*
G36*
X393308Y417318D02*
X392525D01*
X391801Y417018D01*
X391248Y416464D01*
X390948Y415741D01*
Y414958D01*
X390994Y414846D01*
X389057Y412909D01*
X388840Y412584D01*
X388763Y412200D01*
Y344899D01*
X388270Y344405D01*
X388052Y344080D01*
X387976Y343696D01*
X388052Y343312D01*
X388270Y342986D01*
X388595Y342769D01*
X388979Y342692D01*
X389363Y342769D01*
X389689Y342986D01*
X390476Y343774D01*
X390694Y344099D01*
X390770Y344483D01*
Y411784D01*
X392413Y413427D01*
X392525Y413381D01*
X393308D01*
X394031Y413681D01*
X394585Y414234D01*
X394885Y414958D01*
Y415741D01*
X394585Y416464D01*
X394031Y417018D01*
X393308Y417318D01*
D02*
G37*
G36*
X367035Y424011D02*
X366252D01*
X365528Y423711D01*
X364974Y423157D01*
X364675Y422434D01*
Y421651D01*
X364974Y420927D01*
X365528Y420373D01*
X365535Y420371D01*
Y416277D01*
X365423Y416231D01*
X364869Y415677D01*
X364570Y414954D01*
Y414170D01*
X364869Y413447D01*
X365423Y412893D01*
X366147Y412593D01*
X366930D01*
X367653Y412893D01*
X368207Y413447D01*
X368507Y414170D01*
Y414954D01*
X368207Y415677D01*
X367653Y416231D01*
X367542Y416277D01*
Y420284D01*
X367758Y420373D01*
X368312Y420927D01*
X368612Y421651D01*
Y422434D01*
X368312Y423157D01*
X367758Y423711D01*
X367035Y424011D01*
D02*
G37*
G36*
X438584Y422042D02*
X437800D01*
X437077Y421743D01*
X436523Y421189D01*
X436223Y420465D01*
Y419682D01*
X436523Y418959D01*
X437077Y418405D01*
X437800Y418105D01*
X437976D01*
Y406828D01*
X437864Y406782D01*
X437311Y406228D01*
X437011Y405505D01*
Y404721D01*
X437311Y403998D01*
X437864Y403444D01*
X438588Y403145D01*
X439371D01*
X440094Y403444D01*
X440648Y403998D01*
X440948Y404721D01*
Y405505D01*
X440648Y406228D01*
X440094Y406782D01*
X439983Y406828D01*
Y419253D01*
X440160Y419682D01*
Y420465D01*
X439861Y421189D01*
X439307Y421743D01*
X438584Y422042D01*
D02*
G37*
G36*
X427560Y414168D02*
X426777D01*
X426053Y413869D01*
X425499Y413315D01*
X425200Y412591D01*
Y411808D01*
X425499Y411085D01*
X426053Y410531D01*
X426165Y410485D01*
Y397379D01*
X426053Y397333D01*
X425499Y396779D01*
X425200Y396056D01*
Y395273D01*
X425499Y394549D01*
X426053Y393995D01*
X426777Y393696D01*
X427560D01*
X428283Y393995D01*
X428837Y394549D01*
X429137Y395273D01*
Y396056D01*
X428837Y396779D01*
X428283Y397333D01*
X428172Y397379D01*
Y410485D01*
X428283Y410531D01*
X428837Y411085D01*
X429137Y411808D01*
Y412591D01*
X428837Y413315D01*
X428283Y413869D01*
X427560Y414168D01*
D02*
G37*
G36*
X380318Y396845D02*
X374806D01*
Y391616D01*
X374289Y391099D01*
X373989Y390376D01*
Y389592D01*
X374289Y388869D01*
X374843Y388315D01*
X375566Y388016D01*
X376349D01*
X377073Y388315D01*
X377627Y388869D01*
X377669Y388971D01*
X380318D01*
Y396845D01*
D02*
G37*
G36*
X201573Y402362D02*
X200789D01*
X200066Y402063D01*
X199512Y401509D01*
X199213Y400785D01*
Y400002D01*
X199512Y399279D01*
X199776Y399015D01*
Y389368D01*
X199883Y388830D01*
X200188Y388374D01*
X205515Y383047D01*
Y382674D01*
X205814Y381951D01*
X206368Y381397D01*
X207092Y381097D01*
X207875D01*
X208598Y381397D01*
X209152Y381951D01*
X209452Y382674D01*
Y383457D01*
X209152Y384181D01*
X208598Y384735D01*
X207875Y385034D01*
X207502D01*
X202586Y389950D01*
Y399015D01*
X202850Y399279D01*
X203150Y400002D01*
Y400785D01*
X202850Y401509D01*
X202296Y402063D01*
X201573Y402362D01*
D02*
G37*
G36*
X88977Y413381D02*
X88194D01*
X87471Y413081D01*
X86917Y412527D01*
X86617Y411804D01*
Y411021D01*
X86917Y410297D01*
X87181Y410033D01*
Y387988D01*
X86917Y387724D01*
X86617Y387001D01*
Y386218D01*
X86912Y385505D01*
X86917Y385494D01*
X86902Y385236D01*
X86765Y384938D01*
X86498Y384760D01*
X83183Y381445D01*
X83072Y381491D01*
X82288D01*
X81565Y381191D01*
X81011Y380638D01*
X80712Y379914D01*
Y379131D01*
X81011Y378408D01*
X81565Y377854D01*
X82288Y377554D01*
X83072D01*
X83795Y377854D01*
X84349Y378408D01*
X84649Y379131D01*
Y379914D01*
X84602Y380026D01*
X87623Y383047D01*
X93056D01*
X93264Y382547D01*
X92443Y381726D01*
X91717Y380469D01*
X91342Y379067D01*
Y377616D01*
X91717Y376214D01*
X92443Y374957D01*
X93469Y373931D01*
X94726Y373205D01*
X96128Y372830D01*
X97579D01*
X98981Y373205D01*
X100238Y373931D01*
X101264Y374957D01*
X101989Y376214D01*
X102365Y377616D01*
Y379067D01*
X101989Y380469D01*
X101264Y381726D01*
X100443Y382547D01*
X100650Y383047D01*
X183124D01*
X186596Y379574D01*
X186363Y379101D01*
X185827Y379171D01*
X184696Y379022D01*
X183643Y378586D01*
X182738Y377892D01*
X172989Y368143D01*
X171263D01*
X170412Y368031D01*
X169912Y368400D01*
Y368682D01*
X170082Y369092D01*
Y369875D01*
X169782Y370598D01*
X169228Y371152D01*
X168505Y371452D01*
X167722D01*
X166998Y371152D01*
X166444Y370598D01*
X166145Y369875D01*
Y369092D01*
X166444Y368368D01*
X166563Y368249D01*
X166356Y367749D01*
X165355D01*
X165354Y367749D01*
X164005D01*
X163998Y367754D01*
X162944Y368191D01*
X161814Y368339D01*
X155760D01*
X154630Y368191D01*
X153576Y367754D01*
X152672Y367060D01*
X143454Y357842D01*
X142760Y356938D01*
X142323Y355884D01*
X142269Y355470D01*
X128065Y341266D01*
X120791Y348539D01*
X120466Y348757D01*
X120082Y348833D01*
X119885D01*
Y352672D01*
X120082Y353147D01*
Y353930D01*
X119885Y354405D01*
Y354719D01*
X119716D01*
X119228Y355207D01*
X118505Y355507D01*
X117722D01*
X116998Y355207D01*
X116510Y354719D01*
X114373D01*
Y346845D01*
X118804D01*
X118901Y346826D01*
X119666D01*
X126646Y339847D01*
X126646Y339847D01*
X120695Y333896D01*
X118701D01*
X117570Y333747D01*
X116889Y333465D01*
X115945D01*
Y332872D01*
X115612Y332616D01*
X114918Y331712D01*
X114634Y331025D01*
X109630Y326022D01*
X101353D01*
X89480Y337895D01*
X89178Y338020D01*
X87043D01*
Y340155D01*
X87043Y340155D01*
X86918Y340456D01*
X86918Y340456D01*
X83378Y343997D01*
Y344877D01*
X83253Y345178D01*
X82952Y345303D01*
X81105D01*
Y345861D01*
X79489D01*
X79283Y345947D01*
X78153Y346095D01*
X77022Y345947D01*
X76816Y345861D01*
X75200D01*
Y345179D01*
X75198Y345178D01*
X75165Y345100D01*
X75105Y345040D01*
X74952Y344670D01*
X74370Y343911D01*
X73933Y342858D01*
X73785Y341727D01*
Y340721D01*
X73933Y339590D01*
X74370Y338537D01*
X75064Y337632D01*
X75164Y337532D01*
Y315354D01*
X75289Y315053D01*
X75590Y314928D01*
X117343D01*
X117550Y314428D01*
X117229Y314107D01*
X116929Y313384D01*
Y313114D01*
X115062Y311247D01*
X76969D01*
X76706Y311511D01*
X75982Y311811D01*
X75199D01*
X74476Y311511D01*
X73922Y310958D01*
X73622Y310234D01*
Y309451D01*
X73922Y308727D01*
X74476Y308174D01*
X75199Y307874D01*
X75982D01*
X76706Y308174D01*
X76969Y308438D01*
X115644D01*
X116182Y308544D01*
X116638Y308849D01*
X118812Y311024D01*
X119289D01*
X120013Y311323D01*
X120566Y311877D01*
X120866Y312601D01*
Y313384D01*
X120566Y314107D01*
X120246Y314428D01*
X120453Y314928D01*
X124986D01*
X125769Y314327D01*
X126822Y313891D01*
X127953Y313742D01*
X129083Y313891D01*
X129449Y314043D01*
X130014Y313478D01*
X130315Y313353D01*
X130616Y313478D01*
X130927Y313107D01*
X108281Y290461D01*
X100909D01*
X100908Y290461D01*
X99673Y290339D01*
X98486Y289979D01*
X97392Y289394D01*
X96433Y288607D01*
X96433Y288607D01*
X69540Y261714D01*
X68753Y260755D01*
X68168Y259661D01*
X67808Y258473D01*
X67686Y257238D01*
Y234434D01*
X67808Y233199D01*
X68168Y232012D01*
X68753Y230917D01*
X69540Y229958D01*
X70499Y229171D01*
X71593Y228586D01*
X72781Y228226D01*
X73380Y228167D01*
X73688Y227859D01*
X74412Y227559D01*
X75195D01*
X75918Y227859D01*
X76472Y228413D01*
X76574Y228659D01*
X77259Y229025D01*
X77759Y228725D01*
Y223856D01*
X85733D01*
Y163577D01*
X85499Y163480D01*
X84945Y162926D01*
X84646Y162203D01*
Y161419D01*
X84945Y160696D01*
X85499Y160142D01*
X86223Y159843D01*
X87006D01*
X87729Y160142D01*
X88283Y160696D01*
X88583Y161419D01*
Y162203D01*
X88538Y162310D01*
X88543Y162335D01*
Y251383D01*
X88807Y251646D01*
X89106Y252370D01*
Y253153D01*
X88807Y253877D01*
X88253Y254430D01*
X87529Y254730D01*
X86746D01*
X86023Y254430D01*
X85469Y253877D01*
X85169Y253153D01*
Y252370D01*
X85469Y251646D01*
X85733Y251383D01*
Y229761D01*
X78977D01*
X78740Y230261D01*
X79279Y230917D01*
X79864Y232012D01*
X80224Y233199D01*
X80345Y234434D01*
Y254616D01*
X86740Y261011D01*
X87261Y260825D01*
X87409Y260273D01*
X87798Y259599D01*
X88347Y259050D01*
X89021Y258661D01*
X89772Y258460D01*
X90549D01*
X91300Y258661D01*
X91974Y259050D01*
X92523Y259599D01*
X92912Y260273D01*
X93113Y261024D01*
Y261801D01*
X92912Y262552D01*
X92523Y263225D01*
X91974Y263775D01*
X91300Y264164D01*
X90748Y264312D01*
X90562Y264833D01*
X103530Y277801D01*
X110903D01*
X112137Y277923D01*
X113325Y278283D01*
X114419Y278868D01*
X115378Y279655D01*
X142271Y306548D01*
X143058Y307507D01*
X143643Y308601D01*
X144003Y309789D01*
X144125Y311024D01*
X144003Y312259D01*
X143643Y313446D01*
X143058Y314540D01*
X142271Y315499D01*
X141312Y316287D01*
X141106Y316397D01*
X141231Y316897D01*
X153801D01*
X153992Y316435D01*
X151459Y313901D01*
X151241Y313576D01*
X151165Y313192D01*
Y305296D01*
X151241Y304912D01*
X151459Y304586D01*
X155692Y300353D01*
Y299404D01*
X152759D01*
Y293893D01*
X160633D01*
Y299404D01*
X157699D01*
Y300768D01*
X157623Y301152D01*
X157405Y301478D01*
X153172Y305712D01*
Y312776D01*
X157576Y317180D01*
X158070Y317021D01*
X158149Y316989D01*
X158209Y316929D01*
X158293D01*
X158372Y316897D01*
X166535D01*
X166837Y317021D01*
X166962Y317323D01*
Y345843D01*
X180709D01*
Y339961D01*
X180709Y339961D01*
X180545Y339529D01*
X180315Y338974D01*
Y338191D01*
X180615Y337468D01*
X181168Y336914D01*
X181892Y336614D01*
X182549D01*
X184004Y335159D01*
Y288790D01*
X184004Y288790D01*
X184096Y288329D01*
X184357Y287938D01*
X190925Y281371D01*
Y235428D01*
X191016Y234967D01*
X191277Y234577D01*
X191668Y234315D01*
X192129Y234224D01*
X192590Y234315D01*
X192980Y234577D01*
X193242Y234967D01*
X193333Y235428D01*
Y281870D01*
X193333Y281870D01*
X193242Y282330D01*
X192980Y282721D01*
X186413Y289289D01*
Y311500D01*
X186913Y311691D01*
X187573Y311417D01*
X188356D01*
X188538Y311493D01*
X188979Y311134D01*
Y309899D01*
X189355Y308497D01*
X190081Y307241D01*
X191107Y306214D01*
X192364Y305489D01*
X193765Y305113D01*
X195217D01*
X196619Y305489D01*
X197875Y306214D01*
X198902Y307241D01*
X199627Y308497D01*
X200003Y309899D01*
Y311351D01*
X199627Y312752D01*
X198902Y314009D01*
X197875Y315035D01*
X196619Y315761D01*
X195217Y316137D01*
X193765D01*
X192364Y315761D01*
X191107Y315035D01*
X190291Y314220D01*
X189709Y314319D01*
X189633Y314501D01*
X189369Y314765D01*
Y335167D01*
X191548Y337345D01*
X191852Y337801D01*
X191959Y338339D01*
Y369172D01*
X192467Y369680D01*
X192520D01*
X193244Y369980D01*
X193798Y370533D01*
X194097Y371257D01*
Y372040D01*
X193798Y372764D01*
X193244Y373317D01*
X192520Y373617D01*
X191737D01*
X191014Y373317D01*
X190460Y372764D01*
X190160Y372040D01*
Y371347D01*
X189561Y370748D01*
X189256Y370292D01*
X189149Y369754D01*
Y338921D01*
X186971Y336743D01*
X186738Y336393D01*
X186407Y336318D01*
X186169Y336347D01*
X186060Y336509D01*
X186060Y336509D01*
X184252Y338317D01*
Y338974D01*
X184051Y339461D01*
X184343Y339961D01*
X186614D01*
Y348228D01*
X182006D01*
X181890Y348252D01*
X181890Y348252D01*
X166962D01*
Y359013D01*
X170869D01*
X172000Y359162D01*
X172591Y359406D01*
X174798D01*
X175929Y359555D01*
X176982Y359992D01*
X177887Y360686D01*
X188916Y371714D01*
X189610Y372619D01*
X190046Y373673D01*
X190195Y374803D01*
X190124Y375339D01*
X190310Y375497D01*
X190594Y375606D01*
X190833Y375446D01*
X191217Y375369D01*
X218975D01*
X219276Y374246D01*
X220002Y372989D01*
X221028Y371962D01*
X222285Y371237D01*
X223687Y370861D01*
X225138D01*
X226540Y371237D01*
X227797Y371962D01*
X228823Y372989D01*
X229549Y374246D01*
X229850Y375369D01*
X244666D01*
X254924Y365111D01*
Y360644D01*
X251971D01*
X251587Y360568D01*
X251262Y360350D01*
X249371Y358459D01*
X242916D01*
Y352948D01*
X250790D01*
Y357040D01*
X252387Y358637D01*
X255908D01*
X256005Y358656D01*
X260436D01*
Y366530D01*
X256343D01*
X245791Y377082D01*
X245466Y377300D01*
X245082Y377377D01*
X229850D01*
X229549Y378500D01*
X228823Y379757D01*
X227797Y380784D01*
X226540Y381509D01*
X225138Y381885D01*
X223687D01*
X222285Y381509D01*
X221028Y380784D01*
X220002Y379757D01*
X219276Y378500D01*
X218975Y377377D01*
X191632D01*
X184249Y384760D01*
X183924Y384977D01*
X183539Y385054D01*
X90467D01*
X90279Y385554D01*
X90554Y386218D01*
Y387001D01*
X90254Y387724D01*
X89991Y387988D01*
Y410033D01*
X90254Y410297D01*
X90554Y411021D01*
Y411804D01*
X90254Y412527D01*
X89701Y413081D01*
X88977Y413381D01*
D02*
G37*
G36*
X153878Y382278D02*
X152427D01*
X151025Y381903D01*
X149768Y381177D01*
X148742Y380151D01*
X148016Y378894D01*
X147641Y377492D01*
Y376041D01*
X148016Y374639D01*
X148494Y373811D01*
X136906Y362223D01*
X88591D01*
X88126Y362687D01*
X87402Y362987D01*
X86619D01*
X85896Y362687D01*
X85342Y362134D01*
X85042Y361410D01*
Y360627D01*
X85342Y359904D01*
X85896Y359350D01*
X86619Y359050D01*
X87402D01*
X88126Y359350D01*
X88591Y359814D01*
X137405D01*
X137405Y359814D01*
X137865Y359906D01*
X138256Y360167D01*
X150197Y372108D01*
X151025Y371631D01*
X152427Y371255D01*
X153878D01*
X155280Y371631D01*
X156537Y372356D01*
X157563Y373382D01*
X158289Y374639D01*
X158664Y376041D01*
Y377492D01*
X158289Y378894D01*
X157563Y380151D01*
X156537Y381177D01*
X155280Y381903D01*
X153878Y382278D01*
D02*
G37*
G36*
X410237Y407869D02*
X409454D01*
X408730Y407569D01*
X408177Y407016D01*
X407877Y406292D01*
Y405509D01*
X408177Y404785D01*
X408730Y404232D01*
X409086Y404084D01*
Y372697D01*
X408666Y372276D01*
X408366Y371552D01*
Y370769D01*
X408666Y370046D01*
X409219Y369492D01*
X409530Y369363D01*
X409592Y369302D01*
Y361986D01*
X409480Y361940D01*
X408926Y361386D01*
X408627Y360663D01*
Y359880D01*
X408926Y359156D01*
X409480Y358602D01*
X410204Y358303D01*
X410987D01*
X411710Y358602D01*
X412264Y359156D01*
X412564Y359880D01*
Y360663D01*
X412264Y361386D01*
X411710Y361940D01*
X411599Y361986D01*
Y369641D01*
X412003Y370046D01*
X412303Y370769D01*
Y371552D01*
X412003Y372276D01*
X411449Y372830D01*
X411094Y372977D01*
Y404365D01*
X411514Y404785D01*
X411814Y405509D01*
Y406292D01*
X411514Y407016D01*
X410960Y407569D01*
X410237Y407869D01*
D02*
G37*
G36*
X403544Y397633D02*
X402761D01*
X402037Y397333D01*
X401484Y396779D01*
X401184Y396056D01*
Y395273D01*
X401484Y394549D01*
X402037Y393995D01*
X402149Y393949D01*
Y375726D01*
X402037Y375680D01*
X401484Y375126D01*
X401184Y374402D01*
Y373619D01*
X401484Y372896D01*
X402037Y372342D01*
X402761Y372042D01*
X403544D01*
X404268Y372342D01*
X404405Y372479D01*
X404905Y372272D01*
Y346710D01*
X404981Y346326D01*
X405199Y346000D01*
X407219Y343980D01*
X407027Y343518D01*
X401578D01*
X401194Y343442D01*
X400868Y343224D01*
X400768Y343125D01*
X395812D01*
X395766Y343236D01*
X395213Y343790D01*
X394489Y344090D01*
X393706D01*
X392982Y343790D01*
X392429Y343236D01*
X392129Y342512D01*
Y341729D01*
X392429Y341006D01*
X392982Y340452D01*
X393706Y340153D01*
X394489D01*
X395213Y340452D01*
X395766Y341006D01*
X395812Y341117D01*
X401184D01*
X401568Y341194D01*
X401894Y341411D01*
X401993Y341511D01*
X408388D01*
X408435Y341400D01*
X408988Y340846D01*
X409100Y340800D01*
Y326525D01*
X408988Y326479D01*
X408435Y325925D01*
X408135Y325202D01*
Y324419D01*
X408435Y323695D01*
X408988Y323141D01*
X409100Y323095D01*
Y299737D01*
X409176Y299353D01*
X409394Y299027D01*
X409719Y298810D01*
X410104Y298733D01*
X410488Y298810D01*
X410813Y299027D01*
X411031Y299353D01*
X411107Y299737D01*
Y322599D01*
X411155Y322632D01*
X411655Y322369D01*
Y231589D01*
X411655Y231589D01*
X411747Y231128D01*
X412008Y230738D01*
X420236Y222509D01*
X420017Y222021D01*
X419357Y221748D01*
X418804Y221194D01*
X418504Y220470D01*
Y219687D01*
X418804Y218964D01*
X419357Y218410D01*
X419469Y218364D01*
Y175731D01*
X419357Y175685D01*
X418804Y175131D01*
X418504Y174407D01*
Y173624D01*
X418706Y173136D01*
X418549Y172978D01*
X418331Y172653D01*
X418255Y172269D01*
Y146833D01*
X418143Y146787D01*
X417589Y146233D01*
X417290Y145510D01*
Y144727D01*
X417589Y144003D01*
X418143Y143449D01*
X418867Y143150D01*
X419650D01*
X420373Y143449D01*
X420927Y144003D01*
X421227Y144727D01*
Y145510D01*
X420927Y146233D01*
X420373Y146787D01*
X420262Y146833D01*
Y171853D01*
X420456Y172047D01*
X420864D01*
X421588Y172347D01*
X422141Y172901D01*
X422441Y173624D01*
Y174407D01*
X422141Y175131D01*
X421588Y175685D01*
X421476Y175731D01*
Y218364D01*
X421588Y218410D01*
X422141Y218964D01*
X422415Y219624D01*
X422903Y219843D01*
X425567Y217178D01*
Y61028D01*
X425103Y60564D01*
X424803Y59840D01*
Y59057D01*
X425103Y58334D01*
X425657Y57780D01*
X426380Y57480D01*
X427163D01*
X427887Y57780D01*
X428441Y58334D01*
X428740Y59057D01*
Y59840D01*
X428441Y60564D01*
X427976Y61028D01*
Y217677D01*
X427976Y217677D01*
X427884Y218138D01*
X427623Y218529D01*
X427623Y218529D01*
X414064Y232088D01*
Y322986D01*
X414564Y323253D01*
X414747Y323130D01*
Y300389D01*
X414824Y300005D01*
X415041Y299679D01*
X415367Y299462D01*
X415751Y299385D01*
X416135Y299462D01*
X416461Y299679D01*
X416678Y300005D01*
X416754Y300389D01*
Y323477D01*
X416866Y323523D01*
X417420Y324077D01*
X417720Y324800D01*
Y325583D01*
X417420Y326307D01*
X416866Y326861D01*
X416754Y326907D01*
Y346538D01*
X417254Y346727D01*
X417918Y346452D01*
X418702D01*
X419425Y346751D01*
X419693Y347019D01*
X425455D01*
X425499Y346911D01*
X426053Y346358D01*
X426777Y346058D01*
X427560D01*
X428283Y346358D01*
X428837Y346911D01*
X429137Y347635D01*
Y348418D01*
X428837Y349142D01*
X428283Y349695D01*
X427560Y349995D01*
X426777D01*
X426053Y349695D01*
X425785Y349428D01*
X420023D01*
X419979Y349535D01*
X419425Y350089D01*
X418702Y350389D01*
X417918D01*
X417489Y350211D01*
X417206Y350635D01*
X417420Y350848D01*
X417720Y351572D01*
Y352355D01*
X417420Y353079D01*
X416866Y353632D01*
X416143Y353932D01*
X415359D01*
X415138Y354381D01*
X415119Y354568D01*
X419578Y359027D01*
X429132D01*
X429597Y358562D01*
X430320Y358263D01*
X431103D01*
X431827Y358562D01*
X432380Y359116D01*
X432680Y359840D01*
Y360623D01*
X432380Y361346D01*
X431827Y361900D01*
X431103Y362200D01*
X430320D01*
X429597Y361900D01*
X429132Y361435D01*
X419079D01*
X418618Y361344D01*
X418228Y361083D01*
X418228Y361083D01*
X413125Y355980D01*
X412468D01*
X411744Y355680D01*
X411191Y355126D01*
X410891Y354403D01*
Y353620D01*
X411191Y352896D01*
X411655Y352432D01*
Y344400D01*
X411155Y344210D01*
X410495Y344483D01*
X409712D01*
X409600Y344437D01*
X406912Y347125D01*
Y382138D01*
X407023Y382184D01*
X407577Y382738D01*
X407877Y383462D01*
Y384245D01*
X407577Y384968D01*
X407023Y385522D01*
X406300Y385822D01*
X405517D01*
X404793Y385522D01*
X404656Y385385D01*
X404156Y385592D01*
Y393949D01*
X404268Y393995D01*
X404821Y394549D01*
X405121Y395273D01*
Y396056D01*
X404821Y396779D01*
X404268Y397333D01*
X403544Y397633D01*
D02*
G37*
G36*
X241341Y358656D02*
X233468D01*
Y356913D01*
X233140Y356777D01*
X232586Y356224D01*
X232286Y355500D01*
Y354717D01*
X232586Y353993D01*
X233140Y353440D01*
X233468Y353304D01*
Y353145D01*
X233852D01*
X233863Y353140D01*
X234647D01*
X234658Y353145D01*
X241341D01*
Y358656D01*
D02*
G37*
G36*
X79528Y404719D02*
X78745D01*
X78022Y404420D01*
X77468Y403866D01*
X77168Y403142D01*
Y402359D01*
X77413Y401768D01*
X77346Y401431D01*
Y352104D01*
X77234Y352058D01*
X76681Y351504D01*
X76381Y350780D01*
Y349997D01*
X76681Y349274D01*
X77234Y348720D01*
X77958Y348420D01*
X78741D01*
X79465Y348720D01*
X80018Y349274D01*
X80318Y349997D01*
Y350780D01*
X80018Y351504D01*
X79465Y352058D01*
X79353Y352104D01*
Y400782D01*
X79528D01*
X80252Y401082D01*
X80806Y401636D01*
X81105Y402359D01*
Y403142D01*
X80806Y403866D01*
X80252Y404420D01*
X79528Y404719D01*
D02*
G37*
G36*
X291142Y357283D02*
X282087D01*
Y348228D01*
X291142D01*
Y357283D01*
D02*
G37*
G36*
X313384Y386614D02*
X312601D01*
X311877Y386315D01*
X311323Y385761D01*
X311024Y385037D01*
Y384254D01*
X311323Y383531D01*
X311877Y382977D01*
X311981Y382934D01*
Y357559D01*
X303740D01*
Y348504D01*
X311981D01*
Y346428D01*
X311481Y346221D01*
X311048Y346654D01*
X310015Y347251D01*
X308864Y347559D01*
X307672D01*
X306520Y347251D01*
X305488Y346654D01*
X304645Y345812D01*
X304049Y344779D01*
X303740Y343628D01*
Y342435D01*
X304049Y341284D01*
X304645Y340251D01*
X305488Y339409D01*
X306520Y338812D01*
X307672Y338504D01*
X308864D01*
X310015Y338812D01*
X310767Y339247D01*
X311420Y338976D01*
X312203D01*
X312926Y339276D01*
X313480Y339830D01*
X313641Y340218D01*
X314141Y340119D01*
Y298488D01*
X314203Y298338D01*
X314264Y298188D01*
X314265Y298188D01*
X314266Y298187D01*
X314416Y298125D01*
X314565Y298062D01*
X337345Y297944D01*
X337346Y297945D01*
X337347Y297944D01*
X337496Y298006D01*
X337647Y298068D01*
X337647Y298069D01*
X337648Y298069D01*
X339278Y299699D01*
X339403Y300000D01*
Y355512D01*
X339278Y355813D01*
X338976Y355938D01*
X329615D01*
X329379Y356509D01*
X328685Y357414D01*
X328286Y357813D01*
X327381Y358507D01*
X326327Y358944D01*
X325197Y359092D01*
X324066Y358944D01*
X323013Y358507D01*
X322108Y357813D01*
X321414Y356908D01*
X320978Y355855D01*
X320973Y355819D01*
X320958Y355813D01*
X315253Y350107D01*
X314791Y350299D01*
Y383844D01*
X314961Y384254D01*
Y385037D01*
X314661Y385761D01*
X314107Y386315D01*
X313384Y386614D01*
D02*
G37*
G36*
X394883Y400586D02*
X394100D01*
X393376Y400286D01*
X392822Y399732D01*
X392523Y399009D01*
Y398225D01*
X392822Y397502D01*
X393376Y396948D01*
X393488Y396902D01*
Y351126D01*
X393564Y350742D01*
X393781Y350416D01*
X395326Y348872D01*
X395180Y348521D01*
Y347738D01*
X395480Y347014D01*
X396034Y346461D01*
X396757Y346161D01*
X397540D01*
X398264Y346461D01*
X398817Y347014D01*
X399117Y347738D01*
Y348521D01*
X398817Y349244D01*
X398264Y349798D01*
X397540Y350098D01*
X396938D01*
X395495Y351542D01*
Y396902D01*
X395606Y396948D01*
X396160Y397502D01*
X396460Y398225D01*
Y399009D01*
X396160Y399732D01*
X395606Y400286D01*
X394883Y400586D01*
D02*
G37*
G36*
X480316Y388578D02*
X479533D01*
X478809Y388278D01*
X478255Y387724D01*
X477956Y387001D01*
Y386218D01*
X478255Y385494D01*
X478809Y384940D01*
X478921Y384894D01*
Y345411D01*
X478809Y345365D01*
X478255Y344811D01*
X477956Y344087D01*
Y343304D01*
X478255Y342581D01*
X478809Y342027D01*
X479533Y341727D01*
X480316D01*
X481039Y342027D01*
X481593Y342581D01*
X481893Y343304D01*
Y344087D01*
X481593Y344811D01*
X481039Y345365D01*
X480928Y345411D01*
Y384894D01*
X481039Y384940D01*
X481593Y385494D01*
X481893Y386218D01*
Y387001D01*
X481593Y387724D01*
X481039Y388278D01*
X480316Y388578D01*
D02*
G37*
G36*
X384647Y357869D02*
X383863D01*
X383140Y357569D01*
X382586Y357016D01*
X382286Y356292D01*
Y355509D01*
X382586Y354785D01*
X383140Y354232D01*
X383251Y354186D01*
Y343508D01*
X382980Y343236D01*
X382680Y342512D01*
Y341729D01*
X382980Y341006D01*
X383534Y340452D01*
X384257Y340153D01*
X385040D01*
X385764Y340452D01*
X386317Y341006D01*
X386617Y341729D01*
Y342512D01*
X386317Y343236D01*
X385764Y343790D01*
X385258Y343999D01*
Y354186D01*
X385370Y354232D01*
X385924Y354785D01*
X386223Y355509D01*
Y356292D01*
X385924Y357016D01*
X385370Y357569D01*
X384647Y357869D01*
D02*
G37*
G36*
X427166Y342908D02*
X426383D01*
X425660Y342609D01*
X425106Y342055D01*
X424806Y341331D01*
Y340548D01*
X424852Y340437D01*
X421731Y337316D01*
X421514Y336990D01*
X421437Y336606D01*
Y294877D01*
X420537D01*
X419135Y294501D01*
X417878Y293776D01*
X416852Y292749D01*
X416127Y291493D01*
X415751Y290091D01*
Y288639D01*
X416127Y287238D01*
X416852Y285981D01*
X417878Y284955D01*
X419135Y284229D01*
X420537Y283853D01*
X421988D01*
X423390Y284229D01*
X424647Y284955D01*
X425673Y285981D01*
X426399Y287238D01*
X426775Y288639D01*
Y290091D01*
X426399Y291493D01*
X425673Y292749D01*
X424647Y293776D01*
X423445Y294470D01*
Y336191D01*
X426271Y339018D01*
X426383Y338971D01*
X427166D01*
X427890Y339271D01*
X428443Y339825D01*
X428743Y340548D01*
Y341331D01*
X428443Y342055D01*
X427890Y342609D01*
X427166Y342908D01*
D02*
G37*
G36*
X287210Y347284D02*
X286018D01*
X284867Y346975D01*
X283834Y346379D01*
X282991Y345536D01*
X282395Y344503D01*
X282087Y343352D01*
Y342160D01*
X282395Y341008D01*
X282991Y339976D01*
X283834Y339133D01*
X284867Y338537D01*
X286018Y338228D01*
X287210D01*
X288362Y338537D01*
X289394Y339133D01*
X290237Y339976D01*
X290833Y341008D01*
X291142Y342160D01*
Y343352D01*
X290833Y344503D01*
X290237Y345536D01*
X289394Y346379D01*
X288362Y346975D01*
X287210Y347284D01*
D02*
G37*
G36*
X349607Y368105D02*
X348824D01*
X348100Y367806D01*
X347547Y367252D01*
X347247Y366528D01*
Y365745D01*
X347547Y365022D01*
X348100Y364468D01*
X348212Y364422D01*
Y337930D01*
X348100Y337884D01*
X347547Y337331D01*
X347247Y336607D01*
Y335824D01*
X347547Y335100D01*
X348100Y334547D01*
X348824Y334247D01*
X349607D01*
X350331Y334547D01*
X350884Y335100D01*
X351184Y335824D01*
Y336607D01*
X350884Y337331D01*
X350331Y337884D01*
X350219Y337930D01*
Y364422D01*
X350331Y364468D01*
X350884Y365022D01*
X351184Y365745D01*
Y366528D01*
X350884Y367252D01*
X350331Y367806D01*
X349607Y368105D01*
D02*
G37*
G36*
X217717Y370861D02*
X216934D01*
X216211Y370562D01*
X215657Y370008D01*
X215357Y369284D01*
Y368501D01*
X215657Y367778D01*
X216211Y367224D01*
X216716Y367015D01*
Y333206D01*
X216604Y333160D01*
X216051Y332606D01*
X215751Y331883D01*
Y331100D01*
X216051Y330376D01*
X216604Y329822D01*
X217328Y329523D01*
X218111D01*
X218834Y329822D01*
X219388Y330376D01*
X219688Y331100D01*
Y331883D01*
X219388Y332606D01*
X218834Y333160D01*
X218723Y333206D01*
Y367506D01*
X218995Y367778D01*
X219294Y368501D01*
Y369284D01*
X218995Y370008D01*
X218441Y370562D01*
X217717Y370861D01*
D02*
G37*
G36*
X433072Y350782D02*
X432289D01*
X431565Y350483D01*
X431011Y349929D01*
X430712Y349205D01*
Y348422D01*
X431011Y347699D01*
X431480Y347230D01*
Y332106D01*
X431171Y331979D01*
X430618Y331425D01*
X430318Y330701D01*
Y329918D01*
X430618Y329195D01*
X431171Y328641D01*
X431895Y328341D01*
X432678D01*
X433401Y328641D01*
X433955Y329195D01*
X434255Y329918D01*
Y330701D01*
X433955Y331425D01*
X433487Y331893D01*
Y347017D01*
X433795Y347145D01*
X434349Y347699D01*
X434649Y348422D01*
Y349205D01*
X434349Y349929D01*
X433795Y350483D01*
X433072Y350782D01*
D02*
G37*
G36*
X404725Y331885D02*
X403942D01*
X403219Y331585D01*
X402665Y331031D01*
X402619Y330920D01*
X398034D01*
X397650Y330843D01*
X397325Y330626D01*
X391057Y324358D01*
X390946Y324404D01*
X390163D01*
X389439Y324105D01*
X388885Y323551D01*
X388586Y322828D01*
Y322044D01*
X388885Y321321D01*
X389439Y320767D01*
X390163Y320467D01*
X390946D01*
X391669Y320767D01*
X392223Y321321D01*
X392523Y322044D01*
Y322828D01*
X392476Y322939D01*
X398450Y328913D01*
X402619D01*
X402665Y328801D01*
X403219Y328247D01*
X403942Y327948D01*
X404725D01*
X405449Y328247D01*
X406003Y328801D01*
X406302Y329525D01*
Y330308D01*
X406003Y331031D01*
X405449Y331585D01*
X404725Y331885D01*
D02*
G37*
G36*
X298426D02*
X297643D01*
X296919Y331585D01*
X296366Y331031D01*
X296066Y330308D01*
Y329525D01*
X296366Y328801D01*
X296919Y328247D01*
X297643Y327948D01*
X298426D01*
X299149Y328247D01*
X299703Y328801D01*
X300003Y329525D01*
Y330308D01*
X299703Y331031D01*
X299149Y331585D01*
X298426Y331885D01*
D02*
G37*
G36*
X469292Y352357D02*
X468509D01*
X467786Y352058D01*
X467232Y351504D01*
X466932Y350780D01*
Y349997D01*
X467232Y349274D01*
X467786Y348720D01*
X467897Y348674D01*
Y330057D01*
X467786Y330010D01*
X467232Y329456D01*
X466932Y328733D01*
Y327950D01*
X467232Y327226D01*
X467786Y326673D01*
X468509Y326373D01*
X469292D01*
X470016Y326673D01*
X470569Y327226D01*
X470869Y327950D01*
Y328733D01*
X470569Y329456D01*
X470016Y330010D01*
X469904Y330057D01*
Y348674D01*
X470016Y348720D01*
X470569Y349274D01*
X470869Y349997D01*
Y350780D01*
X470569Y351504D01*
X470016Y352058D01*
X469292Y352357D01*
D02*
G37*
G36*
X344489Y420074D02*
X343706D01*
X342982Y419774D01*
X342429Y419220D01*
X342129Y418497D01*
Y417714D01*
X342331Y417226D01*
X342207Y417101D01*
X341989Y416776D01*
X341913Y416391D01*
Y323757D01*
X341801Y323711D01*
X341248Y323157D01*
X340948Y322434D01*
Y321651D01*
X341248Y320927D01*
X341801Y320373D01*
X342525Y320074D01*
X343308D01*
X344031Y320373D01*
X344585Y320927D01*
X344885Y321651D01*
Y322434D01*
X344585Y323157D01*
X344031Y323711D01*
X343920Y323757D01*
Y415976D01*
X344081Y416137D01*
X344489D01*
X345213Y416436D01*
X345766Y416990D01*
X346066Y417714D01*
Y418497D01*
X345766Y419220D01*
X345213Y419774D01*
X344489Y420074D01*
D02*
G37*
G36*
X275982Y360236D02*
X275199D01*
X274476Y359936D01*
X273922Y359383D01*
X273622Y358659D01*
Y357876D01*
X273868Y357281D01*
X273803Y356951D01*
Y323363D01*
X273691Y323317D01*
X273137Y322764D01*
X272838Y322040D01*
Y321257D01*
X273137Y320533D01*
X273691Y319980D01*
X274414Y319680D01*
X275198D01*
X275921Y319980D01*
X276475Y320533D01*
X276775Y321257D01*
Y322040D01*
X276475Y322764D01*
X275921Y323317D01*
X275810Y323363D01*
Y356299D01*
X275982D01*
X276706Y356599D01*
X277259Y357153D01*
X277559Y357876D01*
Y358659D01*
X277259Y359383D01*
X276706Y359936D01*
X275982Y360236D01*
D02*
G37*
G36*
X439765Y367318D02*
X438981D01*
X438258Y367018D01*
X437704Y366464D01*
X437404Y365741D01*
Y364958D01*
X437704Y364234D01*
X438258Y363681D01*
X438370Y363634D01*
Y318915D01*
X438170Y318715D01*
X435576D01*
X435530Y318827D01*
X434976Y319380D01*
X434253Y319680D01*
X433470D01*
X432746Y319380D01*
X432192Y318827D01*
X431893Y318103D01*
Y317320D01*
X432192Y316597D01*
X432746Y316043D01*
X433470Y315743D01*
X434253D01*
X434976Y316043D01*
X435530Y316597D01*
X435576Y316708D01*
X438586D01*
X438970Y316784D01*
X439295Y317002D01*
X440083Y317789D01*
X440300Y318115D01*
X440377Y318499D01*
Y363634D01*
X440488Y363681D01*
X441042Y364234D01*
X441341Y364958D01*
Y365741D01*
X441042Y366464D01*
X440488Y367018D01*
X439765Y367318D01*
D02*
G37*
G36*
X354514Y379522D02*
X353731D01*
X353008Y379223D01*
X352454Y378669D01*
X352154Y377946D01*
Y377163D01*
X352454Y376439D01*
X353008Y375885D01*
X353119Y375839D01*
Y318715D01*
X352825Y318593D01*
X352271Y318039D01*
X351972Y317316D01*
Y316533D01*
X352271Y315809D01*
X352825Y315255D01*
X353548Y314956D01*
X354331D01*
X355055Y315255D01*
X355609Y315809D01*
X355908Y316533D01*
Y317316D01*
X355609Y318039D01*
X355126Y318522D01*
Y375839D01*
X355238Y375885D01*
X355791Y376439D01*
X356091Y377163D01*
Y377946D01*
X355791Y378669D01*
X355238Y379223D01*
X354514Y379522D01*
D02*
G37*
G36*
X166533Y314961D02*
X165750D01*
X165027Y314661D01*
X164473Y314107D01*
X164173Y313384D01*
Y312601D01*
X164473Y311877D01*
X164511Y311839D01*
Y310877D01*
X164507Y310860D01*
Y287013D01*
X164007Y286806D01*
X163716Y287097D01*
X162993Y287397D01*
X162210D01*
X161486Y287097D01*
X160933Y286543D01*
X160633Y285820D01*
Y285036D01*
X160933Y284313D01*
X161486Y283759D01*
X161598Y283713D01*
Y269426D01*
X161486Y269380D01*
X160933Y268827D01*
X160633Y268103D01*
Y267320D01*
X160933Y266597D01*
X161486Y266043D01*
X162210Y265743D01*
X162993D01*
X163716Y266043D01*
X164007Y266334D01*
X164507Y266127D01*
Y256369D01*
X163967Y255829D01*
X163663Y255373D01*
X163556Y254835D01*
Y249971D01*
X163056Y249777D01*
X162167Y250665D01*
X160910Y251391D01*
X159508Y251767D01*
X158057D01*
X156655Y251391D01*
X155398Y250665D01*
X154372Y249639D01*
X153646Y248382D01*
X153271Y246981D01*
Y245529D01*
X153646Y244127D01*
X154372Y242870D01*
X155398Y241844D01*
X156655Y241119D01*
X157378Y240925D01*
Y222714D01*
X157401Y222597D01*
X157327Y222418D01*
Y221635D01*
X157626Y220912D01*
X158180Y220358D01*
X158904Y220058D01*
X159687D01*
X160410Y220358D01*
X160964Y220912D01*
X161264Y221635D01*
Y222418D01*
X160964Y223142D01*
X160410Y223695D01*
X160187Y223788D01*
Y240925D01*
X160910Y241119D01*
X162167Y241844D01*
X163056Y242733D01*
X163556Y242539D01*
Y240355D01*
X163292Y240091D01*
X162992Y239368D01*
Y238585D01*
X163292Y237861D01*
X163846Y237308D01*
X164569Y237008D01*
X165352D01*
X166076Y237308D01*
X166629Y237861D01*
X166929Y238585D01*
Y239368D01*
X166629Y240091D01*
X166366Y240355D01*
Y254253D01*
X166906Y254793D01*
X167210Y255249D01*
X167317Y255787D01*
Y310847D01*
X167321Y310864D01*
Y311387D01*
X167810Y311877D01*
X168110Y312601D01*
Y313384D01*
X167810Y314107D01*
X167257Y314661D01*
X166533Y314961D01*
D02*
G37*
G36*
X339572Y287756D02*
X338380D01*
X337229Y287447D01*
X336196Y286851D01*
X335353Y286008D01*
X334757Y284976D01*
X334449Y283824D01*
Y282632D01*
X334757Y281481D01*
X335353Y280448D01*
X336196Y279605D01*
X337229Y279009D01*
X338380Y278701D01*
X339572D01*
X340724Y279009D01*
X341756Y279605D01*
X342599Y280448D01*
X343195Y281481D01*
X343504Y282632D01*
Y283824D01*
X343195Y284976D01*
X342599Y286008D01*
X341756Y286851D01*
X340724Y287447D01*
X339572Y287756D01*
D02*
G37*
G36*
X469292Y325192D02*
X468509D01*
X467786Y324892D01*
X467232Y324338D01*
X466932Y323615D01*
Y322832D01*
X467232Y322108D01*
X467786Y321554D01*
X468094Y321427D01*
Y303547D01*
X467626Y303079D01*
X467326Y302355D01*
Y301572D01*
X467626Y300848D01*
X468179Y300295D01*
X468903Y299995D01*
X469078D01*
Y279269D01*
X468967Y279223D01*
X468413Y278669D01*
X468113Y277946D01*
Y277163D01*
X468413Y276439D01*
X468967Y275885D01*
X469690Y275586D01*
X470473D01*
X471197Y275885D01*
X471750Y276439D01*
X472050Y277163D01*
Y277946D01*
X471750Y278669D01*
X471197Y279223D01*
X471085Y279269D01*
Y301143D01*
X471263Y301572D01*
Y302355D01*
X470963Y303079D01*
X470409Y303632D01*
X470101Y303760D01*
Y321640D01*
X470569Y322108D01*
X470869Y322832D01*
Y323615D01*
X470569Y324338D01*
X470016Y324892D01*
X469292Y325192D01*
D02*
G37*
G36*
X159255Y281885D02*
X153743D01*
Y274011D01*
X159255D01*
Y281885D01*
D02*
G37*
G36*
X147838D02*
X142326D01*
Y279747D01*
X142035Y279456D01*
X141735Y278733D01*
Y277950D01*
X142035Y277226D01*
X142326Y276936D01*
Y274011D01*
X147838D01*
Y281885D01*
D02*
G37*
G36*
X180758Y333083D02*
X179974D01*
X179251Y332783D01*
X178697Y332229D01*
X178398Y331506D01*
Y330723D01*
X178697Y329999D01*
X178921Y329776D01*
Y286749D01*
X178809Y286703D01*
X178255Y286149D01*
X177956Y285426D01*
Y284643D01*
X178255Y283919D01*
X178809Y283366D01*
X179533Y283066D01*
X180316D01*
X181039Y283366D01*
X181044Y283371D01*
X181402Y283531D01*
X181956Y282977D01*
X182067Y282931D01*
Y275009D01*
X181796Y274737D01*
X181496Y274014D01*
Y273231D01*
X181796Y272507D01*
X182350Y271953D01*
X183073Y271654D01*
X183856D01*
X184580Y271953D01*
X185133Y272507D01*
X185433Y273231D01*
Y274014D01*
X185133Y274737D01*
X184580Y275291D01*
X184074Y275500D01*
Y282931D01*
X184186Y282977D01*
X184740Y283531D01*
X185039Y284254D01*
Y285037D01*
X184740Y285761D01*
X184186Y286315D01*
X183462Y286614D01*
X182679D01*
X181956Y286315D01*
X181950Y286309D01*
X181593Y286149D01*
X181039Y286703D01*
X180928Y286749D01*
Y329216D01*
X181481Y329445D01*
X182035Y329999D01*
X182335Y330723D01*
Y331506D01*
X182035Y332229D01*
X181481Y332783D01*
X180758Y333083D01*
D02*
G37*
G36*
X188758Y280840D02*
X187974D01*
X187251Y280540D01*
X186697Y279986D01*
X186398Y279263D01*
Y278480D01*
X186697Y277756D01*
X186961Y277492D01*
Y269447D01*
X186631Y269116D01*
X184059D01*
X183795Y269380D01*
X183072Y269680D01*
X182289D01*
X181565Y269380D01*
X181011Y268827D01*
X180712Y268103D01*
Y267320D01*
X181011Y266597D01*
X181565Y266043D01*
X182289Y265743D01*
X183072D01*
X183795Y266043D01*
X184059Y266307D01*
X187213D01*
X187750Y266413D01*
X188206Y266718D01*
X189359Y267871D01*
X189664Y268327D01*
X189771Y268865D01*
Y277492D01*
X190035Y277756D01*
X190334Y278480D01*
Y279263D01*
X190035Y279986D01*
X189481Y280540D01*
X188758Y280840D01*
D02*
G37*
G36*
X343504Y277756D02*
X334449D01*
Y268701D01*
X343504D01*
Y277756D01*
D02*
G37*
G36*
X150394Y296058D02*
X149611D01*
X148888Y295758D01*
X148334Y295205D01*
X148034Y294481D01*
Y293698D01*
X148334Y292974D01*
X148606Y292703D01*
Y270214D01*
X148494Y270168D01*
X147940Y269614D01*
X147641Y268891D01*
Y268107D01*
X147940Y267384D01*
X148494Y266830D01*
X149218Y266530D01*
X150001D01*
X150724Y266830D01*
X151278Y267384D01*
X151578Y268107D01*
Y268891D01*
X151278Y269614D01*
X150724Y270168D01*
X150613Y270214D01*
Y292211D01*
X151118Y292421D01*
X151672Y292974D01*
X151971Y293698D01*
Y294481D01*
X151672Y295205D01*
X151118Y295758D01*
X150394Y296058D01*
D02*
G37*
G36*
X170867Y296845D02*
X170084D01*
X169360Y296546D01*
X168807Y295992D01*
X168507Y295268D01*
Y294485D01*
X168677Y294075D01*
Y270101D01*
X168413Y269837D01*
X168113Y269113D01*
Y268330D01*
X168413Y267607D01*
X168768Y267251D01*
X168784Y267174D01*
X169088Y266718D01*
X169544Y266413D01*
X170082Y266307D01*
X170619Y266413D01*
X171075Y266718D01*
X171380Y267174D01*
X171395Y267251D01*
X171750Y267607D01*
X172050Y268330D01*
Y269113D01*
X171750Y269837D01*
X171487Y270101D01*
Y293165D01*
X171590Y293208D01*
X172144Y293762D01*
X172444Y294485D01*
Y295268D01*
X172144Y295992D01*
X171590Y296546D01*
X170867Y296845D01*
D02*
G37*
G36*
X63778Y264365D02*
X63000D01*
X62249Y264164D01*
X61576Y263775D01*
X61026Y263225D01*
X60637Y262552D01*
X60436Y261801D01*
Y261024D01*
X60637Y260273D01*
X61026Y259599D01*
X61576Y259050D01*
X62249Y258661D01*
X63000Y258460D01*
X63778D01*
X64529Y258661D01*
X65202Y259050D01*
X65751Y259599D01*
X66140Y260273D01*
X66342Y261024D01*
Y261801D01*
X66140Y262552D01*
X65751Y263225D01*
X65202Y263775D01*
X64529Y264164D01*
X63778Y264365D01*
D02*
G37*
G36*
X115689Y259838D02*
X114238D01*
X112836Y259462D01*
X111579Y258736D01*
X110553Y257710D01*
X109827Y256453D01*
X109452Y255051D01*
Y253600D01*
X109827Y252198D01*
X110553Y250941D01*
X111579Y249915D01*
X112836Y249189D01*
X114238Y248814D01*
X115689D01*
X117091Y249189D01*
X118348Y249915D01*
X119374Y250941D01*
X120100Y252198D01*
X120475Y253600D01*
Y255051D01*
X120100Y256453D01*
X119374Y257710D01*
X118348Y258736D01*
X117091Y259462D01*
X115689Y259838D01*
D02*
G37*
G36*
X124238Y281725D02*
X123231D01*
X122101Y281576D01*
X121047Y281140D01*
X120143Y280446D01*
X120038Y280310D01*
X119097D01*
Y278694D01*
X119012Y278488D01*
X118863Y277357D01*
X119012Y276227D01*
X119097Y276021D01*
Y274404D01*
X120038D01*
X120143Y274269D01*
X121047Y273574D01*
X122101Y273138D01*
X122307Y273111D01*
X134608Y260809D01*
Y216535D01*
X134757Y215405D01*
X135194Y214351D01*
X135888Y213447D01*
X164234Y185100D01*
X165139Y184406D01*
X166192Y183970D01*
X167323Y183821D01*
X168453Y183970D01*
X169507Y184406D01*
X170412Y185100D01*
X171106Y186005D01*
X171542Y187058D01*
X171691Y188189D01*
X171542Y189320D01*
X171106Y190373D01*
X170412Y191278D01*
X143344Y218345D01*
Y244557D01*
X143844Y244756D01*
X144490Y244488D01*
X145273D01*
X145997Y244788D01*
X146551Y245342D01*
X146850Y246065D01*
Y246848D01*
X146551Y247572D01*
X145997Y248126D01*
X145893Y248168D01*
Y265550D01*
X146157Y265814D01*
X146457Y266538D01*
Y267321D01*
X146157Y268044D01*
X145603Y268598D01*
X144880Y268898D01*
X144097D01*
X143373Y268598D01*
X142819Y268044D01*
X142520Y267321D01*
Y266538D01*
X142819Y265814D01*
X142961Y265673D01*
X142923Y265411D01*
X142397Y265274D01*
X142065Y265707D01*
X127326Y280446D01*
X126422Y281140D01*
X125368Y281576D01*
X124238Y281725D01*
D02*
G37*
G36*
X178738Y280315D02*
X177955D01*
X177231Y280015D01*
X176678Y279462D01*
X176378Y278738D01*
Y277955D01*
X176678Y277231D01*
X176942Y276968D01*
Y247244D01*
X177049Y246706D01*
X177353Y246251D01*
X177559Y246045D01*
Y245671D01*
X177859Y244948D01*
X178412Y244394D01*
X179136Y244094D01*
X179919D01*
X180643Y244394D01*
X181196Y244948D01*
X181496Y245671D01*
Y246455D01*
X181196Y247178D01*
X180643Y247732D01*
X179919Y248031D01*
X179751D01*
Y276968D01*
X180015Y277231D01*
X180315Y277955D01*
Y278738D01*
X180015Y279462D01*
X179462Y280015D01*
X178738Y280315D01*
D02*
G37*
G36*
X302360Y307874D02*
X301577D01*
X300853Y307574D01*
X300300Y307021D01*
X300000Y306297D01*
Y305924D01*
X249400Y255324D01*
X249096Y254868D01*
X248989Y254331D01*
Y235237D01*
X248725Y234973D01*
X248425Y234250D01*
Y233467D01*
X248725Y232743D01*
X249279Y232189D01*
X250002Y231890D01*
X250785D01*
X251509Y232189D01*
X252063Y232743D01*
X252362Y233467D01*
Y234250D01*
X252063Y234973D01*
X251799Y235237D01*
Y253749D01*
X301987Y303937D01*
X302360D01*
X303084Y304237D01*
X303637Y304790D01*
X303937Y305514D01*
Y306297D01*
X303637Y307021D01*
X303084Y307574D01*
X302360Y307874D01*
D02*
G37*
G36*
X259101Y243626D02*
X258318D01*
X257594Y243326D01*
X257040Y242772D01*
X256741Y242049D01*
Y241266D01*
X257040Y240542D01*
X257485Y240098D01*
Y234877D01*
X257153Y234740D01*
X256599Y234186D01*
X256299Y233462D01*
Y232679D01*
X256599Y231956D01*
X257153Y231402D01*
X257876Y231102D01*
X258659D01*
X259383Y231402D01*
X259936Y231956D01*
X260236Y232679D01*
Y233462D01*
X259936Y234186D01*
X259492Y234630D01*
Y239851D01*
X259824Y239988D01*
X260378Y240542D01*
X260678Y241266D01*
Y242049D01*
X260378Y242772D01*
X259824Y243326D01*
X259101Y243626D01*
D02*
G37*
G36*
X171255Y240556D02*
X170472D01*
X169748Y240257D01*
X169194Y239703D01*
X168895Y238979D01*
Y238196D01*
X169194Y237473D01*
X169748Y236919D01*
X170472Y236619D01*
X170525D01*
X170642Y236502D01*
Y225788D01*
X170378Y225524D01*
X170079Y224801D01*
Y224018D01*
X170378Y223294D01*
X170932Y222741D01*
X171656Y222441D01*
X172439D01*
X173162Y222741D01*
X173716Y223294D01*
X174016Y224018D01*
Y224801D01*
X173716Y225524D01*
X173452Y225788D01*
Y237084D01*
X173345Y237622D01*
X173041Y238077D01*
X172832Y238286D01*
Y238979D01*
X172532Y239703D01*
X171978Y240257D01*
X171255Y240556D01*
D02*
G37*
G36*
X253514Y228594D02*
X239951D01*
Y220634D01*
X253514D01*
Y228594D01*
D02*
G37*
G36*
X441336Y292520D02*
X440553D01*
X439830Y292220D01*
X439276Y291666D01*
X438976Y290943D01*
Y290160D01*
X439179Y289671D01*
X438233Y288726D01*
X438016Y288401D01*
X437939Y288017D01*
Y228629D01*
X433931D01*
X432892Y228492D01*
X431924Y228091D01*
X431092Y227453D01*
X430454Y226622D01*
X430053Y225653D01*
X429916Y224614D01*
X430053Y223575D01*
X430454Y222607D01*
X431092Y221775D01*
X431924Y221137D01*
X432892Y220736D01*
X433931Y220600D01*
X439533D01*
X440573Y220736D01*
X441541Y221137D01*
X442372Y221775D01*
X443010Y222607D01*
X443411Y223575D01*
X443548Y224614D01*
X443411Y225653D01*
X443010Y226622D01*
X442372Y227453D01*
X441541Y228091D01*
X440573Y228492D01*
X439946Y228574D01*
Y287601D01*
X440928Y288583D01*
X441336D01*
X442060Y288882D01*
X442614Y289436D01*
X442913Y290160D01*
Y290943D01*
X442614Y291666D01*
X442060Y292220D01*
X441336Y292520D01*
D02*
G37*
G36*
X51179Y311811D02*
X50396D01*
X49672Y311511D01*
X49119Y310958D01*
X48819Y310234D01*
Y309451D01*
X49119Y308727D01*
X49382Y308464D01*
Y225779D01*
X42108Y218504D01*
X41734D01*
X41011Y218204D01*
X40457Y217651D01*
X40157Y216927D01*
Y216144D01*
X40457Y215420D01*
X41011Y214867D01*
X41734Y214567D01*
X42518D01*
X43241Y214867D01*
X43795Y215420D01*
X44094Y216144D01*
Y216517D01*
X51781Y224203D01*
X52085Y224659D01*
X52192Y225197D01*
Y308464D01*
X52456Y308727D01*
X52756Y309451D01*
Y310234D01*
X52456Y310958D01*
X51903Y311511D01*
X51179Y311811D01*
D02*
G37*
G36*
X178738Y235433D02*
X177955D01*
X177231Y235133D01*
X176678Y234580D01*
X176378Y233856D01*
Y233073D01*
X176678Y232349D01*
X176745Y232282D01*
Y214568D01*
X176284Y214107D01*
X175984Y213384D01*
Y212601D01*
X176284Y211877D01*
X176838Y211323D01*
X177561Y211024D01*
X178344D01*
X179068Y211323D01*
X179622Y211877D01*
X179921Y212601D01*
Y213384D01*
X179622Y214107D01*
X179555Y214174D01*
Y231889D01*
X180015Y232349D01*
X180315Y233073D01*
Y233856D01*
X180015Y234580D01*
X179462Y235133D01*
X178738Y235433D01*
D02*
G37*
G36*
X439533Y218629D02*
X433931D01*
X432892Y218492D01*
X431924Y218091D01*
X431092Y217453D01*
X430454Y216621D01*
X430053Y215653D01*
X429916Y214614D01*
X430053Y213575D01*
X430454Y212607D01*
X431092Y211775D01*
X431924Y211137D01*
X432892Y210736D01*
X433931Y210599D01*
X439533D01*
X440573Y210736D01*
X441541Y211137D01*
X442372Y211775D01*
X443010Y212607D01*
X443411Y213575D01*
X443548Y214614D01*
X443411Y215653D01*
X443010Y216621D01*
X442372Y217453D01*
X441541Y218091D01*
X440573Y218492D01*
X439533Y218629D01*
D02*
G37*
G36*
X249533D02*
X243931D01*
X242892Y218492D01*
X241924Y218091D01*
X241092Y217453D01*
X240454Y216621D01*
X240053Y215653D01*
X239916Y214614D01*
X240053Y213575D01*
X240454Y212607D01*
X241092Y211775D01*
X241924Y211137D01*
X242892Y210736D01*
X243931Y210599D01*
X249533D01*
X250572Y210736D01*
X251541Y211137D01*
X252372Y211775D01*
X253010Y212607D01*
X253411Y213575D01*
X253548Y214614D01*
X253411Y215653D01*
X253010Y216621D01*
X252372Y217453D01*
X251541Y218091D01*
X250572Y218492D01*
X249533Y218629D01*
D02*
G37*
G36*
X312165Y260709D02*
X303346D01*
Y251890D01*
X306752D01*
Y235348D01*
X306641Y235302D01*
X306087Y234748D01*
X305787Y234025D01*
Y233242D01*
X306087Y232518D01*
X306615Y231991D01*
Y217914D01*
X306365Y217811D01*
X305812Y217257D01*
X305512Y216533D01*
Y215750D01*
X305812Y215027D01*
X306365Y214473D01*
X306674Y214345D01*
Y209461D01*
X306205Y208993D01*
X305906Y208270D01*
Y207486D01*
X305952Y207375D01*
X303227Y204650D01*
X303010Y204325D01*
X302934Y203941D01*
Y136754D01*
X302822Y136708D01*
X302268Y136154D01*
X301969Y135431D01*
Y134648D01*
X302268Y133924D01*
X302822Y133371D01*
X303545Y133071D01*
X304329D01*
X305052Y133371D01*
X305606Y133924D01*
X305906Y134648D01*
Y135431D01*
X305606Y136154D01*
X305052Y136708D01*
X304941Y136754D01*
Y203525D01*
X307371Y205956D01*
X307483Y205909D01*
X308266D01*
X308989Y206209D01*
X309543Y206763D01*
X309842Y207486D01*
Y208270D01*
X309543Y208993D01*
X308989Y209547D01*
X308681Y209675D01*
Y214558D01*
X309149Y215027D01*
X309449Y215750D01*
Y216533D01*
X309149Y217257D01*
X308622Y217784D01*
Y231861D01*
X308871Y231964D01*
X309425Y232518D01*
X309724Y233242D01*
Y234025D01*
X309425Y234748D01*
X308871Y235302D01*
X308759Y235348D01*
Y251890D01*
X312165D01*
Y260709D01*
D02*
G37*
G36*
X60234Y237008D02*
X59451D01*
X58727Y236708D01*
X58174Y236154D01*
X57874Y235431D01*
Y234648D01*
X58174Y233924D01*
X58727Y233371D01*
X58839Y233324D01*
Y214783D01*
X58915Y214399D01*
X59133Y214074D01*
X62976Y210231D01*
Y209956D01*
X62995Y209859D01*
Y205428D01*
X70869D01*
Y210940D01*
X64925D01*
X64906Y211030D01*
X64689Y211356D01*
X60846Y215199D01*
Y233324D01*
X60958Y233371D01*
X61511Y233924D01*
X61811Y234648D01*
Y235431D01*
X61511Y236154D01*
X60958Y236708D01*
X60234Y237008D01*
D02*
G37*
G36*
X51179Y214567D02*
X50396D01*
X49672Y214267D01*
X49119Y213714D01*
X48819Y212990D01*
Y212207D01*
X48989Y211797D01*
Y206497D01*
X48725Y206233D01*
X48425Y205510D01*
Y204727D01*
X48725Y204003D01*
X49279Y203449D01*
X50002Y203150D01*
X50785D01*
X51509Y203449D01*
X52062Y204003D01*
X52362Y204727D01*
Y205510D01*
X52062Y206233D01*
X51799Y206497D01*
Y210887D01*
X51903Y210930D01*
X52456Y211483D01*
X52756Y212207D01*
Y212990D01*
X52456Y213714D01*
X51903Y214267D01*
X51179Y214567D01*
D02*
G37*
G36*
X439533Y208629D02*
X433931D01*
X432892Y208492D01*
X431924Y208091D01*
X431092Y207453D01*
X430454Y206622D01*
X430053Y205653D01*
X429916Y204614D01*
X430053Y203575D01*
X430454Y202607D01*
X431092Y201775D01*
X431924Y201137D01*
X432892Y200736D01*
X433931Y200600D01*
X439533D01*
X440573Y200736D01*
X441541Y201137D01*
X442372Y201775D01*
X443010Y202607D01*
X443411Y203575D01*
X443548Y204614D01*
X443411Y205653D01*
X443010Y206622D01*
X442372Y207453D01*
X441541Y208091D01*
X440573Y208492D01*
X439533Y208629D01*
D02*
G37*
G36*
X249533D02*
X243931D01*
X242892Y208492D01*
X241924Y208091D01*
X241092Y207453D01*
X240454Y206622D01*
X240053Y205653D01*
X239916Y204614D01*
X240053Y203575D01*
X240454Y202607D01*
X241092Y201775D01*
X241924Y201137D01*
X242892Y200736D01*
X243931Y200600D01*
X249533D01*
X250572Y200736D01*
X251541Y201137D01*
X252372Y201775D01*
X253010Y202607D01*
X253411Y203575D01*
X253548Y204614D01*
X253411Y205653D01*
X253010Y206622D01*
X252372Y207453D01*
X251541Y208091D01*
X250572Y208492D01*
X249533Y208629D01*
D02*
G37*
G36*
X102303Y229916D02*
X100852D01*
X99450Y229541D01*
X98193Y228815D01*
X97167Y227789D01*
X96442Y226532D01*
X96066Y225130D01*
Y223679D01*
X96442Y222277D01*
X97167Y221020D01*
X98193Y219994D01*
X99450Y219268D01*
X100731Y218925D01*
Y202728D01*
X100693Y202690D01*
X100394Y201966D01*
Y201183D01*
X100693Y200460D01*
X101247Y199906D01*
X101971Y199606D01*
X102754D01*
X103477Y199906D01*
X104031Y200460D01*
X104331Y201183D01*
Y201966D01*
X104031Y202690D01*
X103541Y203180D01*
Y219224D01*
X103705Y219268D01*
X104962Y219994D01*
X105988Y221020D01*
X106714Y222277D01*
X107090Y223679D01*
Y225130D01*
X106714Y226532D01*
X105988Y227789D01*
X104962Y228815D01*
X103705Y229541D01*
X102303Y229916D01*
D02*
G37*
G36*
X92911Y224409D02*
X92128D01*
X91405Y224110D01*
X90851Y223556D01*
X90551Y222832D01*
Y222049D01*
X90851Y221326D01*
X91405Y220772D01*
X92128Y220472D01*
X92911D01*
X93378Y220666D01*
X93878Y220362D01*
Y199747D01*
X93767Y199700D01*
X93213Y199147D01*
X92913Y198423D01*
Y197640D01*
X93213Y196916D01*
X93767Y196363D01*
X94490Y196063D01*
X95274D01*
X95997Y196363D01*
X96551Y196916D01*
X96850Y197640D01*
Y198423D01*
X96551Y199147D01*
X95997Y199700D01*
X95885Y199747D01*
Y221260D01*
X95809Y221644D01*
X95591Y221969D01*
X94410Y223150D01*
X94336Y223200D01*
X94188Y223556D01*
X93635Y224110D01*
X92911Y224409D01*
D02*
G37*
G36*
X73226Y219291D02*
X72443D01*
X71720Y218992D01*
X71166Y218438D01*
X70866Y217714D01*
Y216538D01*
X71166Y215814D01*
X71720Y215260D01*
X72443Y214961D01*
X72611D01*
Y199017D01*
X72347Y198753D01*
X72047Y198029D01*
Y197246D01*
X72347Y196523D01*
X72901Y195969D01*
X73624Y195669D01*
X74407D01*
X75131Y195969D01*
X75685Y196523D01*
X75984Y197246D01*
Y198029D01*
X75685Y198753D01*
X75421Y199017D01*
Y215748D01*
X75314Y216286D01*
X75009Y216741D01*
X74803Y216948D01*
Y217714D01*
X74503Y218438D01*
X73950Y218992D01*
X73226Y219291D01*
D02*
G37*
G36*
X398817Y196063D02*
X398034D01*
X397310Y195763D01*
X396756Y195210D01*
X396457Y194486D01*
Y193703D01*
X396503Y193591D01*
X378424Y175513D01*
X378207Y175187D01*
X378130Y174803D01*
Y126190D01*
X377859Y125918D01*
X377559Y125195D01*
Y124412D01*
X377859Y123688D01*
X378130Y123416D01*
Y115836D01*
X377747Y115712D01*
X377630Y115705D01*
X377099Y116236D01*
X376594Y116445D01*
Y152616D01*
X376706Y152662D01*
X377259Y153216D01*
X377559Y153939D01*
Y154722D01*
X377259Y155446D01*
X376706Y156000D01*
X375982Y156299D01*
X375199D01*
X374476Y156000D01*
X373922Y155446D01*
X373622Y154722D01*
Y153939D01*
X373922Y153216D01*
X374476Y152662D01*
X374587Y152616D01*
Y115954D01*
X374315Y115682D01*
X374016Y114959D01*
Y114175D01*
X374315Y113452D01*
X374869Y112898D01*
X375593Y112598D01*
X376376D01*
X377099Y112898D01*
X377630Y113429D01*
X377747Y113422D01*
X378130Y113297D01*
Y48959D01*
X378019Y48913D01*
X377465Y48359D01*
X377165Y47636D01*
Y46852D01*
X377465Y46129D01*
X378019Y45575D01*
X378742Y45276D01*
X379525D01*
X380249Y45575D01*
X380803Y46129D01*
X381102Y46852D01*
Y47636D01*
X380803Y48359D01*
X380249Y48913D01*
X380137Y48959D01*
Y122925D01*
X380643Y123134D01*
X381196Y123688D01*
X381496Y124412D01*
Y125195D01*
X381196Y125918D01*
X380643Y126472D01*
X380137Y126681D01*
Y174388D01*
X397922Y192172D01*
X398034Y192126D01*
X398817D01*
X399540Y192426D01*
X400094Y192979D01*
X400394Y193703D01*
Y194486D01*
X400094Y195210D01*
X399540Y195763D01*
X398817Y196063D01*
D02*
G37*
G36*
X439533Y198629D02*
X433931D01*
X432892Y198492D01*
X431924Y198091D01*
X431092Y197453D01*
X430454Y196622D01*
X430053Y195653D01*
X429916Y194614D01*
X430053Y193575D01*
X430454Y192607D01*
X431092Y191775D01*
X431924Y191137D01*
X432892Y190736D01*
X433931Y190600D01*
X439533D01*
X440573Y190736D01*
X441541Y191137D01*
X442372Y191775D01*
X443010Y192607D01*
X443411Y193575D01*
X443548Y194614D01*
X443411Y195653D01*
X443010Y196622D01*
X442372Y197453D01*
X441541Y198091D01*
X440573Y198492D01*
X439533Y198629D01*
D02*
G37*
G36*
X249533D02*
X243931D01*
X242892Y198492D01*
X241924Y198091D01*
X241092Y197453D01*
X240454Y196622D01*
X240053Y195653D01*
X239916Y194614D01*
X240053Y193575D01*
X240454Y192607D01*
X241092Y191775D01*
X241924Y191137D01*
X242892Y190736D01*
X243931Y190600D01*
X249533D01*
X250572Y190736D01*
X251541Y191137D01*
X252372Y191775D01*
X253010Y192607D01*
X253411Y193575D01*
X253548Y194614D01*
X253411Y195653D01*
X253010Y196622D01*
X252372Y197453D01*
X251541Y198091D01*
X250572Y198492D01*
X249533Y198629D01*
D02*
G37*
G36*
X123668Y214517D02*
X122538Y214368D01*
X121484Y213931D01*
X120580Y213237D01*
X119819Y212477D01*
X119125Y211573D01*
X118689Y210519D01*
X118540Y209388D01*
Y206778D01*
X118504Y206691D01*
Y205908D01*
X118540Y205820D01*
Y197329D01*
X118504Y197242D01*
Y196459D01*
X118540Y196372D01*
Y193758D01*
X118689Y192628D01*
X119125Y191574D01*
X119819Y190670D01*
X120724Y189976D01*
X121778Y189539D01*
X122908Y189390D01*
X124039Y189539D01*
X125092Y189976D01*
X125997Y190670D01*
X126691Y191574D01*
X127127Y192628D01*
X127276Y193758D01*
Y195382D01*
X127559Y196065D01*
Y196848D01*
X127276Y197531D01*
Y207737D01*
X127451Y207964D01*
X127887Y209018D01*
X128036Y210149D01*
X127887Y211279D01*
X127451Y212333D01*
X126757Y213237D01*
X125852Y213931D01*
X124799Y214368D01*
X123668Y214517D01*
D02*
G37*
G36*
X412596Y212598D02*
X411813D01*
X411090Y212299D01*
X410536Y211745D01*
X410236Y211021D01*
Y210238D01*
X410536Y209515D01*
X411090Y208961D01*
X411201Y208915D01*
Y185967D01*
X411090Y185921D01*
X410536Y185367D01*
X410236Y184643D01*
Y183860D01*
X410536Y183137D01*
X411090Y182583D01*
X411813Y182283D01*
X412596D01*
X413320Y182583D01*
X413873Y183137D01*
X414173Y183860D01*
Y184643D01*
X413873Y185367D01*
X413320Y185921D01*
X413208Y185967D01*
Y208915D01*
X413320Y208961D01*
X413873Y209515D01*
X414173Y210238D01*
Y211021D01*
X413873Y211745D01*
X413320Y212299D01*
X412596Y212598D01*
D02*
G37*
G36*
X439533Y188629D02*
X433931D01*
X432892Y188492D01*
X431924Y188091D01*
X431092Y187453D01*
X430454Y186621D01*
X430053Y185653D01*
X429916Y184614D01*
X430053Y183575D01*
X430454Y182607D01*
X431092Y181775D01*
X431924Y181137D01*
X432892Y180736D01*
X433931Y180599D01*
X439533D01*
X440573Y180736D01*
X441541Y181137D01*
X442372Y181775D01*
X443010Y182607D01*
X443411Y183575D01*
X443548Y184614D01*
X443411Y185653D01*
X443010Y186621D01*
X442372Y187453D01*
X441541Y188091D01*
X440573Y188492D01*
X439533Y188629D01*
D02*
G37*
G36*
X249533D02*
X243931D01*
X242892Y188492D01*
X241924Y188091D01*
X241092Y187453D01*
X240454Y186621D01*
X240053Y185653D01*
X239916Y184614D01*
X240053Y183575D01*
X240454Y182607D01*
X240476Y182578D01*
X239296Y181398D01*
X237482D01*
X237098Y181322D01*
X236772Y181105D01*
X233968Y178300D01*
X233856Y178347D01*
X233073D01*
X232349Y178047D01*
X231796Y177493D01*
X231496Y176769D01*
Y175986D01*
X231796Y175263D01*
X232349Y174709D01*
X233073Y174409D01*
X233856D01*
X234580Y174709D01*
X235133Y175263D01*
X235433Y175986D01*
Y176769D01*
X235387Y176881D01*
X237897Y179391D01*
X239712D01*
X240096Y179468D01*
X240422Y179685D01*
X241895Y181159D01*
X241924Y181137D01*
X242892Y180736D01*
X243931Y180599D01*
X249533D01*
X250572Y180736D01*
X251541Y181137D01*
X252372Y181775D01*
X253010Y182607D01*
X253411Y183575D01*
X253548Y184614D01*
X253411Y185653D01*
X253010Y186621D01*
X252372Y187453D01*
X251541Y188091D01*
X250572Y188492D01*
X249533Y188629D01*
D02*
G37*
G36*
X443514Y178595D02*
X429951D01*
Y170634D01*
X443514D01*
Y178595D01*
D02*
G37*
G36*
X79466Y175591D02*
X78014D01*
X76613Y175215D01*
X75356Y174489D01*
X74330Y173463D01*
X73604Y172206D01*
X73228Y170804D01*
Y169353D01*
X73604Y167951D01*
X74330Y166694D01*
X75356Y165668D01*
X76613Y164943D01*
X78014Y164567D01*
X79466D01*
X80868Y164943D01*
X82125Y165668D01*
X83151Y166694D01*
X83876Y167951D01*
X84252Y169353D01*
Y170804D01*
X83876Y172206D01*
X83151Y173463D01*
X82125Y174489D01*
X80868Y175215D01*
X79466Y175591D01*
D02*
G37*
G36*
X166137Y156587D02*
X165359D01*
X164608Y156386D01*
X163935Y155997D01*
X163385Y155447D01*
X162996Y154774D01*
X162795Y154023D01*
Y153245D01*
X162996Y152494D01*
X163385Y151821D01*
X163935Y151271D01*
X164608Y150882D01*
X165359Y150681D01*
X166137D01*
X166888Y150882D01*
X167561Y151271D01*
X168111Y151821D01*
X168500Y152494D01*
X168701Y153245D01*
Y154023D01*
X168500Y154774D01*
X168111Y155447D01*
X167561Y155997D01*
X166888Y156386D01*
X166137Y156587D01*
D02*
G37*
G36*
X439533Y158629D02*
X433931D01*
X432892Y158492D01*
X431924Y158091D01*
X431092Y157453D01*
X430454Y156622D01*
X430053Y155653D01*
X429916Y154614D01*
X430053Y153575D01*
X430454Y152607D01*
X431092Y151775D01*
X431924Y151137D01*
X432892Y150736D01*
X433931Y150600D01*
X439533D01*
X440573Y150736D01*
X441541Y151137D01*
X442372Y151775D01*
X443010Y152607D01*
X443411Y153575D01*
X443548Y154614D01*
X443411Y155653D01*
X443010Y156622D01*
X442372Y157453D01*
X441541Y158091D01*
X440573Y158492D01*
X439533Y158629D01*
D02*
G37*
G36*
X249533D02*
X243931D01*
X242892Y158492D01*
X241924Y158091D01*
X241092Y157453D01*
X240454Y156622D01*
X240053Y155653D01*
X239916Y154614D01*
X240053Y153575D01*
X240454Y152607D01*
X241092Y151775D01*
X241924Y151137D01*
X242892Y150736D01*
X243931Y150600D01*
X249533D01*
X250572Y150736D01*
X251541Y151137D01*
X252372Y151775D01*
X253010Y152607D01*
X253411Y153575D01*
X253548Y154614D01*
X253411Y155653D01*
X253010Y156622D01*
X252372Y157453D01*
X251541Y158091D01*
X250572Y158492D01*
X249533Y158629D01*
D02*
G37*
G36*
X79072Y156693D02*
X77621D01*
X76219Y156317D01*
X74962Y155592D01*
X73936Y154565D01*
X73210Y153309D01*
X72835Y151907D01*
Y150455D01*
X73210Y149054D01*
X73936Y147797D01*
X74962Y146771D01*
X76219Y146045D01*
X77621Y145669D01*
X79072D01*
X80474Y146045D01*
X81731Y146771D01*
X82757Y147797D01*
X83483Y149054D01*
X83858Y150455D01*
Y151907D01*
X83483Y153309D01*
X82757Y154565D01*
X81731Y155592D01*
X80474Y156317D01*
X79072Y156693D01*
D02*
G37*
G36*
X366135Y149057D02*
X365047D01*
X363996Y148775D01*
X363053Y148231D01*
X362283Y147461D01*
X361739Y146519D01*
X361457Y145467D01*
Y144379D01*
X361739Y143327D01*
X362283Y142385D01*
X363053Y141615D01*
X363996Y141071D01*
X365047Y140789D01*
X366135D01*
X367187Y141071D01*
X368129Y141615D01*
X368899Y142385D01*
X369443Y143327D01*
X369725Y144379D01*
Y145467D01*
X369443Y146519D01*
X368899Y147461D01*
X368129Y148231D01*
X367187Y148775D01*
X366135Y149057D01*
D02*
G37*
G36*
X325982Y177559D02*
X325199D01*
X324476Y177259D01*
X323922Y176706D01*
X323622Y175982D01*
Y175199D01*
X323922Y174476D01*
X324476Y173922D01*
X324587Y173875D01*
Y149056D01*
X321143D01*
Y140788D01*
X329410D01*
Y149056D01*
X326594D01*
Y173875D01*
X326706Y173922D01*
X327259Y174476D01*
X327559Y175199D01*
Y175982D01*
X327259Y176706D01*
X326706Y177259D01*
X325982Y177559D01*
D02*
G37*
G36*
X253514Y142595D02*
X239951D01*
Y134634D01*
X253514D01*
Y142595D01*
D02*
G37*
G36*
X366135Y139057D02*
X365047D01*
X363996Y138775D01*
X363053Y138231D01*
X362283Y137461D01*
X361739Y136519D01*
X361457Y135467D01*
Y134379D01*
X361739Y133327D01*
X362283Y132385D01*
X363053Y131615D01*
X363996Y131071D01*
X365047Y130789D01*
X366135D01*
X367187Y131071D01*
X368129Y131615D01*
X368899Y132385D01*
X369443Y133327D01*
X369725Y134379D01*
Y135467D01*
X369443Y136519D01*
X368899Y137461D01*
X368129Y138231D01*
X367187Y138775D01*
X366135Y139057D01*
D02*
G37*
G36*
X325821Y139056D02*
X324732D01*
X323681Y138774D01*
X322738Y138230D01*
X321969Y137460D01*
X321424Y136518D01*
X321143Y135466D01*
Y134378D01*
X321424Y133326D01*
X321969Y132384D01*
X322738Y131614D01*
X323681Y131070D01*
X324732Y130788D01*
X325821D01*
X326872Y131070D01*
X327815Y131614D01*
X328585Y132384D01*
X329129Y133326D01*
X329410Y134378D01*
Y135466D01*
X329129Y136518D01*
X328585Y137460D01*
X327815Y138230D01*
X326872Y138774D01*
X325821Y139056D01*
D02*
G37*
G36*
X79072Y137402D02*
X77621D01*
X76219Y137026D01*
X74962Y136300D01*
X73936Y135274D01*
X73210Y134017D01*
X72835Y132615D01*
Y131164D01*
X73210Y129762D01*
X73936Y128505D01*
X74962Y127479D01*
X76219Y126754D01*
X77621Y126378D01*
X79072D01*
X80474Y126754D01*
X81731Y127479D01*
X82757Y128505D01*
X83483Y129762D01*
X83858Y131164D01*
Y132615D01*
X83483Y134017D01*
X82757Y135274D01*
X81731Y136300D01*
X80474Y137026D01*
X79072Y137402D01*
D02*
G37*
G36*
X249533Y132629D02*
X243931D01*
X242892Y132492D01*
X241924Y132091D01*
X241092Y131453D01*
X240454Y130622D01*
X240053Y129653D01*
X239916Y128614D01*
X240053Y127575D01*
X240454Y126607D01*
X241092Y125775D01*
X241924Y125137D01*
X242892Y124736D01*
X243931Y124600D01*
X249533D01*
X250572Y124736D01*
X251541Y125137D01*
X252372Y125775D01*
X253010Y126607D01*
X253411Y127575D01*
X253548Y128614D01*
X253411Y129653D01*
X253010Y130622D01*
X252372Y131453D01*
X251541Y132091D01*
X250572Y132492D01*
X249533Y132629D01*
D02*
G37*
G36*
X166137Y129815D02*
X165359D01*
X164608Y129614D01*
X163935Y129225D01*
X163385Y128675D01*
X162996Y128002D01*
X162795Y127251D01*
Y126474D01*
X162996Y125723D01*
X163385Y125049D01*
X163935Y124500D01*
X164608Y124111D01*
X165359Y123910D01*
X166137D01*
X166888Y124111D01*
X167561Y124500D01*
X168111Y125049D01*
X168500Y125723D01*
X168701Y126474D01*
Y127251D01*
X168500Y128002D01*
X168111Y128675D01*
X167561Y129225D01*
X166888Y129614D01*
X166137Y129815D01*
D02*
G37*
G36*
X220077Y183858D02*
X219293D01*
X218570Y183559D01*
X218016Y183005D01*
X217717Y182281D01*
Y181936D01*
X217511Y181730D01*
X217206Y181274D01*
X217099Y180737D01*
Y175001D01*
X216835Y174737D01*
X216535Y174014D01*
Y173231D01*
X216835Y172507D01*
X217099Y172243D01*
Y126182D01*
X216835Y125918D01*
X216535Y125195D01*
Y124412D01*
X216835Y123688D01*
X217389Y123134D01*
X218112Y122835D01*
X218896D01*
X219619Y123134D01*
X220173Y123688D01*
X220472Y124412D01*
Y125195D01*
X220173Y125918D01*
X219909Y126182D01*
Y172243D01*
X220173Y172507D01*
X220472Y173231D01*
Y174014D01*
X220173Y174737D01*
X219909Y175001D01*
Y179921D01*
X220077D01*
X220800Y180221D01*
X221354Y180775D01*
X221654Y181498D01*
Y182281D01*
X221354Y183005D01*
X220800Y183559D01*
X220077Y183858D01*
D02*
G37*
G36*
X366135Y129057D02*
X365047D01*
X363996Y128775D01*
X363053Y128231D01*
X362283Y127461D01*
X361739Y126518D01*
X361457Y125467D01*
Y124379D01*
X361739Y123327D01*
X362283Y122385D01*
X363053Y121615D01*
X363996Y121071D01*
X365047Y120789D01*
X366135D01*
X367187Y121071D01*
X368129Y121615D01*
X368899Y122385D01*
X369443Y123327D01*
X369725Y124379D01*
Y125467D01*
X369443Y126518D01*
X368899Y127461D01*
X368129Y128231D01*
X367187Y128775D01*
X366135Y129057D01*
D02*
G37*
G36*
X325821Y129056D02*
X324732D01*
X323681Y128774D01*
X322738Y128230D01*
X321969Y127460D01*
X321424Y126518D01*
X321143Y125466D01*
Y124378D01*
X321424Y123326D01*
X321969Y122384D01*
X322738Y121614D01*
X323681Y121070D01*
X324732Y120788D01*
X325821D01*
X326872Y121070D01*
X327815Y121614D01*
X328585Y122384D01*
X329129Y123326D01*
X329410Y124378D01*
Y125466D01*
X329129Y126518D01*
X328585Y127460D01*
X327815Y128230D01*
X326872Y128774D01*
X325821Y129056D01*
D02*
G37*
G36*
X439533Y128629D02*
X433931D01*
X432892Y128492D01*
X431924Y128091D01*
X431092Y127453D01*
X430454Y126621D01*
X430053Y125653D01*
X429916Y124614D01*
X430053Y123575D01*
X430454Y122607D01*
X431092Y121775D01*
X431924Y121137D01*
X432892Y120736D01*
X433931Y120599D01*
X439533D01*
X440573Y120736D01*
X441541Y121137D01*
X442372Y121775D01*
X443010Y122607D01*
X443411Y123575D01*
X443548Y124614D01*
X443411Y125653D01*
X443010Y126621D01*
X442372Y127453D01*
X441541Y128091D01*
X440573Y128492D01*
X439533Y128629D01*
D02*
G37*
G36*
X64171Y161024D02*
X63388D01*
X62665Y160724D01*
X62111Y160170D01*
X61811Y159447D01*
Y158664D01*
X61989Y158235D01*
Y121006D01*
X61877Y120960D01*
X61323Y120406D01*
X61024Y119683D01*
Y118900D01*
X61323Y118176D01*
X61877Y117622D01*
X62601Y117323D01*
X63384D01*
X64107Y117622D01*
X64661Y118176D01*
X64961Y118900D01*
Y119683D01*
X64661Y120406D01*
X64107Y120960D01*
X63996Y121006D01*
Y157087D01*
X64171D01*
X64895Y157386D01*
X65448Y157940D01*
X65748Y158664D01*
Y159447D01*
X65448Y160170D01*
X64895Y160724D01*
X64171Y161024D01*
D02*
G37*
G36*
X230981Y142639D02*
X230198D01*
X229474Y142339D01*
X228920Y141786D01*
X228621Y141062D01*
Y140279D01*
X228920Y139556D01*
X229474Y139002D01*
X229705Y138906D01*
Y120613D01*
X229594Y120566D01*
X229040Y120013D01*
X228740Y119289D01*
Y118506D01*
X229040Y117783D01*
X229594Y117229D01*
X230317Y116929D01*
X231100D01*
X231824Y117229D01*
X232378Y117783D01*
X232677Y118506D01*
Y119289D01*
X232378Y120013D01*
X231824Y120566D01*
X231712Y120613D01*
Y139010D01*
X232258Y139556D01*
X232558Y140279D01*
Y141062D01*
X232258Y141786D01*
X231704Y142339D01*
X230981Y142639D01*
D02*
G37*
G36*
X201966Y218504D02*
X201183D01*
X200460Y218204D01*
X199906Y217651D01*
X199606Y216927D01*
Y216144D01*
X199906Y215420D01*
X200460Y214867D01*
X200571Y214820D01*
Y136635D01*
X200460Y136589D01*
X199906Y136035D01*
X199606Y135312D01*
Y134528D01*
X199906Y133805D01*
X200460Y133251D01*
X200571Y133205D01*
Y119038D01*
X200460Y118992D01*
X199906Y118438D01*
X199606Y117714D01*
Y116931D01*
X199653Y116820D01*
X197716Y114883D01*
X197498Y114557D01*
X197422Y114173D01*
Y65049D01*
X197038Y64925D01*
X196922Y64917D01*
X196391Y65448D01*
X195667Y65748D01*
X194884D01*
X194160Y65448D01*
X193607Y64895D01*
X193307Y64171D01*
Y63388D01*
X193607Y62665D01*
X194160Y62111D01*
X194272Y62064D01*
Y54865D01*
X194160Y54818D01*
X193607Y54265D01*
X193307Y53541D01*
Y52758D01*
X193607Y52034D01*
X194160Y51481D01*
X194884Y51181D01*
X195667D01*
X196391Y51481D01*
X196922Y52012D01*
X197038Y52004D01*
X197422Y51880D01*
Y34786D01*
X197310Y34740D01*
X196756Y34186D01*
X196457Y33462D01*
Y32679D01*
X196756Y31956D01*
X197310Y31402D01*
X198034Y31102D01*
X198817D01*
X199540Y31402D01*
X200094Y31956D01*
X200394Y32679D01*
Y33462D01*
X200094Y34186D01*
X199540Y34740D01*
X199429Y34786D01*
Y51411D01*
X199929Y51618D01*
X200066Y51481D01*
X200789Y51181D01*
X201573D01*
X202296Y51481D01*
X202850Y52034D01*
X203150Y52758D01*
Y53541D01*
X202850Y54265D01*
X202296Y54818D01*
X202185Y54865D01*
Y70857D01*
X202653Y71326D01*
X202953Y72049D01*
Y72833D01*
X202653Y73556D01*
X202099Y74110D01*
X201376Y74409D01*
X200593D01*
X199929Y74134D01*
X199429Y74323D01*
Y113758D01*
X201072Y115401D01*
X201183Y115354D01*
X201966D01*
X202690Y115654D01*
X203244Y116208D01*
X203543Y116931D01*
Y117714D01*
X203244Y118438D01*
X202690Y118992D01*
X202578Y119038D01*
Y133205D01*
X202690Y133251D01*
X203244Y133805D01*
X203543Y134528D01*
Y135312D01*
X203244Y136035D01*
X202690Y136589D01*
X202578Y136635D01*
Y214820D01*
X202690Y214867D01*
X203244Y215420D01*
X203543Y216144D01*
Y216927D01*
X203244Y217651D01*
X202690Y218204D01*
X201966Y218504D01*
D02*
G37*
G36*
X249533Y122629D02*
X243931D01*
X242892Y122492D01*
X241924Y122091D01*
X241092Y121453D01*
X240454Y120622D01*
X240053Y119653D01*
X239916Y118614D01*
X240053Y117575D01*
X240454Y116607D01*
X241092Y115775D01*
X241924Y115137D01*
X242892Y114736D01*
X243931Y114600D01*
X249533D01*
X250572Y114736D01*
X251541Y115137D01*
X252372Y115775D01*
X253010Y116607D01*
X253411Y117575D01*
X253548Y118614D01*
X253411Y119653D01*
X253010Y120622D01*
X252372Y121453D01*
X251541Y122091D01*
X250572Y122492D01*
X249533Y122629D01*
D02*
G37*
G36*
X191730Y129134D02*
X190947D01*
X190224Y128834D01*
X189670Y128280D01*
X189370Y127557D01*
Y126774D01*
X189420Y126653D01*
X189230Y126368D01*
X189154Y125984D01*
Y117463D01*
X189042Y117417D01*
X188489Y116863D01*
X188189Y116140D01*
Y115357D01*
X188489Y114633D01*
X189042Y114079D01*
X189766Y113779D01*
X190549D01*
X191273Y114079D01*
X191826Y114633D01*
X192126Y115357D01*
Y116140D01*
X191826Y116863D01*
X191273Y117417D01*
X191161Y117463D01*
Y125197D01*
X191730D01*
X192454Y125496D01*
X193007Y126050D01*
X193307Y126774D01*
Y127557D01*
X193007Y128280D01*
X192454Y128834D01*
X191730Y129134D01*
D02*
G37*
G36*
X366135Y119057D02*
X365047D01*
X363996Y118775D01*
X363053Y118231D01*
X362283Y117461D01*
X361739Y116518D01*
X361457Y115467D01*
Y114379D01*
X361739Y113327D01*
X362283Y112385D01*
X363053Y111615D01*
X363996Y111071D01*
X365047Y110789D01*
X366135D01*
X367187Y111071D01*
X368129Y111615D01*
X368899Y112385D01*
X369443Y113327D01*
X369725Y114379D01*
Y115467D01*
X369443Y116518D01*
X368899Y117461D01*
X368129Y118231D01*
X367187Y118775D01*
X366135Y119057D01*
D02*
G37*
G36*
X325821Y119056D02*
X324732D01*
X323681Y118774D01*
X322738Y118230D01*
X321969Y117460D01*
X321424Y116518D01*
X321143Y115466D01*
Y114378D01*
X321424Y113326D01*
X321969Y112384D01*
X322738Y111614D01*
X323681Y111070D01*
X324732Y110788D01*
X325821D01*
X326872Y111070D01*
X327815Y111614D01*
X328585Y112384D01*
X329129Y113326D01*
X329410Y114378D01*
Y115466D01*
X329129Y116518D01*
X328585Y117460D01*
X327815Y118230D01*
X326872Y118774D01*
X325821Y119056D01*
D02*
G37*
G36*
X439533Y118629D02*
X433931D01*
X432892Y118492D01*
X431924Y118091D01*
X431092Y117453D01*
X430454Y116621D01*
X430053Y115653D01*
X429916Y114614D01*
X430053Y113575D01*
X430454Y112607D01*
X431092Y111775D01*
X431924Y111137D01*
X432892Y110736D01*
X433931Y110600D01*
X439533D01*
X440573Y110736D01*
X441541Y111137D01*
X442372Y111775D01*
X443010Y112607D01*
X443411Y113575D01*
X443548Y114614D01*
X443411Y115653D01*
X443010Y116621D01*
X442372Y117453D01*
X441541Y118091D01*
X440573Y118492D01*
X439533Y118629D01*
D02*
G37*
G36*
X68896Y124803D02*
X68112D01*
X67389Y124504D01*
X66835Y123950D01*
X66535Y123226D01*
Y122443D01*
X66835Y121720D01*
X67107Y121448D01*
Y113132D01*
X66995Y113086D01*
X66441Y112532D01*
X66142Y111809D01*
Y111026D01*
X66441Y110302D01*
X66995Y109748D01*
X67719Y109449D01*
X68502D01*
X69225Y109748D01*
X69779Y110302D01*
X70079Y111026D01*
Y111809D01*
X69779Y112532D01*
X69225Y113086D01*
X69114Y113132D01*
Y120957D01*
X69619Y121166D01*
X70173Y121720D01*
X70472Y122443D01*
Y123226D01*
X70173Y123950D01*
X69619Y124504D01*
X68896Y124803D01*
D02*
G37*
G36*
X209053Y178347D02*
X208270D01*
X207546Y178047D01*
X206993Y177493D01*
X206693Y176769D01*
Y175986D01*
X206993Y175263D01*
X207264Y174991D01*
Y67069D01*
X207153Y67023D01*
X206599Y66469D01*
X206299Y65746D01*
Y64963D01*
X206599Y64239D01*
X207153Y63686D01*
X207876Y63386D01*
X208659D01*
X209383Y63686D01*
X209936Y64239D01*
X210236Y64963D01*
Y65746D01*
X209936Y66469D01*
X209383Y67023D01*
X209271Y67069D01*
Y105423D01*
X209655Y105548D01*
X209771Y105555D01*
X210302Y105024D01*
X211026Y104724D01*
X211809D01*
X212532Y105024D01*
X213086Y105578D01*
X213386Y106301D01*
Y107085D01*
X213086Y107808D01*
X212532Y108362D01*
X212341Y108441D01*
Y154499D01*
X212373Y154512D01*
X212927Y155065D01*
X213226Y155789D01*
Y156572D01*
X212927Y157296D01*
X212373Y157849D01*
X211649Y158149D01*
X210866D01*
X210143Y157849D01*
X209771Y157478D01*
X209271Y157685D01*
Y174500D01*
X209776Y174709D01*
X210330Y175263D01*
X210630Y175986D01*
Y176769D01*
X210330Y177493D01*
X209776Y178047D01*
X209053Y178347D01*
D02*
G37*
G36*
X249533Y112629D02*
X243931D01*
X242892Y112492D01*
X241924Y112091D01*
X241092Y111453D01*
X240454Y110622D01*
X240053Y109653D01*
X239916Y108614D01*
X240053Y107575D01*
X240454Y106607D01*
X241092Y105775D01*
X241924Y105137D01*
X242892Y104736D01*
X243931Y104599D01*
X249533D01*
X250572Y104736D01*
X251541Y105137D01*
X252372Y105775D01*
X253010Y106607D01*
X253411Y107575D01*
X253548Y108614D01*
X253411Y109653D01*
X253010Y110622D01*
X252372Y111453D01*
X251541Y112091D01*
X250572Y112492D01*
X249533Y112629D01*
D02*
G37*
G36*
X366135Y109057D02*
X365047D01*
X363996Y108775D01*
X363053Y108231D01*
X362283Y107461D01*
X361739Y106518D01*
X361457Y105467D01*
Y104379D01*
X361739Y103327D01*
X362283Y102385D01*
X363053Y101615D01*
X363996Y101071D01*
X365047Y100789D01*
X366135D01*
X367187Y101071D01*
X368129Y101615D01*
X368899Y102385D01*
X369443Y103327D01*
X369725Y104379D01*
Y105467D01*
X369443Y106518D01*
X368899Y107461D01*
X368129Y108231D01*
X367187Y108775D01*
X366135Y109057D01*
D02*
G37*
G36*
X439533Y108629D02*
X433931D01*
X432892Y108492D01*
X431924Y108091D01*
X431092Y107453D01*
X430454Y106622D01*
X430053Y105653D01*
X429916Y104614D01*
X430053Y103575D01*
X430454Y102607D01*
X431092Y101775D01*
X431924Y101137D01*
X432892Y100736D01*
X433931Y100600D01*
X439533D01*
X440573Y100736D01*
X441541Y101137D01*
X442372Y101775D01*
X443010Y102607D01*
X443411Y103575D01*
X443548Y104614D01*
X443411Y105653D01*
X443010Y106622D01*
X442372Y107453D01*
X441541Y108091D01*
X440573Y108492D01*
X439533Y108629D01*
D02*
G37*
G36*
X79466Y117717D02*
X78014D01*
X76613Y117341D01*
X75356Y116615D01*
X74330Y115589D01*
X73604Y114332D01*
X73228Y112930D01*
Y111479D01*
X73604Y110077D01*
X74330Y108820D01*
X75356Y107794D01*
X76613Y107069D01*
X77737Y106767D01*
Y102896D01*
X77625Y102850D01*
X77071Y102296D01*
X76772Y101573D01*
Y100789D01*
X77071Y100066D01*
X77625Y99512D01*
X78349Y99213D01*
X79132D01*
X79855Y99512D01*
X80409Y100066D01*
X80709Y100789D01*
Y101573D01*
X80409Y102296D01*
X79855Y102850D01*
X79744Y102896D01*
Y106767D01*
X80868Y107069D01*
X82125Y107794D01*
X83151Y108820D01*
X83876Y110077D01*
X84252Y111479D01*
Y112930D01*
X83876Y114332D01*
X83151Y115589D01*
X82125Y116615D01*
X80868Y117341D01*
X79466Y117717D01*
D02*
G37*
G36*
X183858Y136614D02*
X175984D01*
Y131102D01*
X179705D01*
Y124550D01*
X179594Y124504D01*
X179040Y123950D01*
X178740Y123226D01*
Y122443D01*
X179040Y121720D01*
X179594Y121166D01*
X179705Y121120D01*
Y100993D01*
X179434Y100721D01*
X179134Y99998D01*
Y99215D01*
X179434Y98491D01*
X179987Y97938D01*
X180711Y97638D01*
X181494D01*
X182217Y97938D01*
X182771Y98491D01*
X183071Y99215D01*
Y99998D01*
X182771Y100721D01*
X182217Y101275D01*
X181712Y101484D01*
Y121120D01*
X181824Y121166D01*
X182378Y121720D01*
X182677Y122443D01*
Y123226D01*
X182378Y123950D01*
X181824Y124504D01*
X181712Y124550D01*
Y131102D01*
X183858D01*
Y136614D01*
D02*
G37*
G36*
X315746Y127165D02*
X314963D01*
X314239Y126866D01*
X313685Y126312D01*
X313386Y125588D01*
Y124805D01*
X313685Y124082D01*
X313835Y123932D01*
Y100873D01*
X313723Y100826D01*
X313170Y100273D01*
X312870Y99549D01*
Y98766D01*
X313170Y98042D01*
X313723Y97489D01*
X314447Y97189D01*
X315230D01*
X315953Y97489D01*
X316507Y98042D01*
X316807Y98766D01*
Y99549D01*
X316507Y100273D01*
X315953Y100826D01*
X315842Y100873D01*
Y123268D01*
X316469Y123528D01*
X317023Y124082D01*
X317323Y124805D01*
Y125588D01*
X317023Y126312D01*
X316469Y126866D01*
X315746Y127165D01*
D02*
G37*
G36*
X249533Y102629D02*
X243931D01*
X242892Y102492D01*
X241924Y102091D01*
X241092Y101453D01*
X240454Y100621D01*
X240053Y99653D01*
X239916Y98614D01*
X240053Y97575D01*
X240454Y96607D01*
X241092Y95775D01*
X241924Y95137D01*
X242892Y94736D01*
X243931Y94599D01*
X249533D01*
X250572Y94736D01*
X251541Y95137D01*
X252372Y95775D01*
X253010Y96607D01*
X253411Y97575D01*
X253548Y98614D01*
X253411Y99653D01*
X253010Y100621D01*
X252372Y101453D01*
X251541Y102091D01*
X250572Y102492D01*
X249533Y102629D01*
D02*
G37*
G36*
Y178629D02*
X243931D01*
X242892Y178492D01*
X241924Y178091D01*
X241092Y177453D01*
X240454Y176621D01*
X240053Y175653D01*
X239916Y174614D01*
X240053Y173575D01*
X240454Y172607D01*
X241092Y171775D01*
X241924Y171137D01*
X242892Y170736D01*
X243931Y170599D01*
X249008D01*
Y170043D01*
X249085Y169659D01*
X249302Y169334D01*
X249507Y169129D01*
X249300Y168629D01*
X243931D01*
X242892Y168492D01*
X241924Y168091D01*
X241092Y167453D01*
X240454Y166621D01*
X240053Y165653D01*
X239916Y164614D01*
X240053Y163575D01*
X240454Y162607D01*
X241092Y161775D01*
X241924Y161137D01*
X242892Y160736D01*
X243931Y160600D01*
X249533D01*
X250572Y160736D01*
X251541Y161137D01*
X252372Y161775D01*
X253010Y162607D01*
X253411Y163575D01*
X253521Y164408D01*
X254028Y164608D01*
X261300Y157336D01*
Y94628D01*
X261188Y94582D01*
X260635Y94029D01*
X260335Y93305D01*
Y92522D01*
X260635Y91798D01*
X261188Y91245D01*
X261912Y90945D01*
X262695D01*
X263418Y91245D01*
X263972Y91798D01*
X264272Y92522D01*
Y93305D01*
X263972Y94029D01*
X263418Y94582D01*
X263307Y94628D01*
Y157752D01*
X263230Y158136D01*
X263013Y158461D01*
X251016Y170458D01*
X251063Y170939D01*
X251541Y171137D01*
X252372Y171775D01*
X253010Y172607D01*
X253411Y173575D01*
X253548Y174614D01*
X253411Y175653D01*
X253010Y176621D01*
X252372Y177453D01*
X251541Y178091D01*
X250572Y178492D01*
X249533Y178629D01*
D02*
G37*
G36*
X366135Y99057D02*
X365047D01*
X363996Y98775D01*
X363053Y98231D01*
X362283Y97461D01*
X361739Y96518D01*
X361457Y95467D01*
Y94379D01*
X361739Y93327D01*
X362283Y92385D01*
X363053Y91615D01*
X363996Y91071D01*
X365047Y90789D01*
X366135D01*
X367187Y91071D01*
X368129Y91615D01*
X368899Y92385D01*
X369443Y93327D01*
X369725Y94379D01*
Y95467D01*
X369443Y96518D01*
X368899Y97461D01*
X368129Y98231D01*
X367187Y98775D01*
X366135Y99057D01*
D02*
G37*
G36*
X325821Y99056D02*
X324732D01*
X323681Y98774D01*
X322738Y98230D01*
X321969Y97460D01*
X321424Y96518D01*
X321143Y95466D01*
Y94378D01*
X321424Y93326D01*
X321969Y92384D01*
X322738Y91614D01*
X323681Y91070D01*
X324732Y90788D01*
X325821D01*
X326872Y91070D01*
X327815Y91614D01*
X328585Y92384D01*
X329129Y93326D01*
X329410Y94378D01*
Y95466D01*
X329129Y96518D01*
X328585Y97460D01*
X327815Y98230D01*
X326872Y98774D01*
X325821Y99056D01*
D02*
G37*
G36*
X439533Y98629D02*
X433931D01*
X432892Y98492D01*
X431924Y98091D01*
X431092Y97453D01*
X430454Y96622D01*
X430053Y95653D01*
X429916Y94614D01*
X430053Y93575D01*
X430454Y92607D01*
X431092Y91775D01*
X431924Y91137D01*
X432892Y90736D01*
X433931Y90600D01*
X439533D01*
X440573Y90736D01*
X441541Y91137D01*
X442372Y91775D01*
X443010Y92607D01*
X443411Y93575D01*
X443548Y94614D01*
X443411Y95653D01*
X443010Y96622D01*
X442372Y97453D01*
X441541Y98091D01*
X440573Y98492D01*
X439533Y98629D01*
D02*
G37*
G36*
X270470Y181890D02*
X269687D01*
X268964Y181590D01*
X268410Y181036D01*
X268110Y180313D01*
Y179530D01*
X268410Y178806D01*
X268964Y178252D01*
X269075Y178206D01*
Y93329D01*
X266251Y90505D01*
X266140Y90551D01*
X265356D01*
X264633Y90251D01*
X264079Y89698D01*
X263779Y88974D01*
Y88191D01*
X264079Y87468D01*
X264633Y86914D01*
X265356Y86614D01*
X266140D01*
X266863Y86914D01*
X267417Y87468D01*
X267717Y88191D01*
Y88974D01*
X267670Y89086D01*
X270788Y92204D01*
X271006Y92529D01*
X271082Y92913D01*
Y178206D01*
X271194Y178252D01*
X271748Y178806D01*
X272047Y179530D01*
Y180313D01*
X271748Y181036D01*
X271194Y181590D01*
X270470Y181890D01*
D02*
G37*
G36*
X154329Y132283D02*
X153545D01*
X152822Y131984D01*
X152268Y131430D01*
X151969Y130707D01*
Y129923D01*
X152171Y129435D01*
X151653Y128917D01*
X151435Y128592D01*
X151359Y128208D01*
Y90298D01*
X151247Y90251D01*
X150693Y89698D01*
X150394Y88974D01*
Y88191D01*
X150693Y87468D01*
X151247Y86914D01*
X151971Y86614D01*
X152754D01*
X153477Y86914D01*
X154031Y87468D01*
X154331Y88191D01*
Y88974D01*
X154031Y89698D01*
X153477Y90251D01*
X153366Y90298D01*
Y127792D01*
X153920Y128347D01*
X154329D01*
X155052Y128646D01*
X155606Y129200D01*
X155905Y129923D01*
Y130707D01*
X155606Y131430D01*
X155052Y131984D01*
X154329Y132283D01*
D02*
G37*
G36*
X249533Y92629D02*
X243931D01*
X242892Y92492D01*
X241924Y92091D01*
X241092Y91453D01*
X240454Y90622D01*
X240053Y89653D01*
X239916Y88614D01*
X240053Y87575D01*
X240454Y86607D01*
X241092Y85775D01*
X241924Y85137D01*
X242892Y84736D01*
X243931Y84600D01*
X249533D01*
X250572Y84736D01*
X251541Y85137D01*
X252372Y85775D01*
X253010Y86607D01*
X253411Y87575D01*
X253548Y88614D01*
X253411Y89653D01*
X253010Y90622D01*
X252372Y91453D01*
X251541Y92091D01*
X250572Y92492D01*
X249533Y92629D01*
D02*
G37*
G36*
X366135Y89057D02*
X365047D01*
X363996Y88775D01*
X363053Y88231D01*
X362283Y87461D01*
X361739Y86519D01*
X361457Y85467D01*
Y84379D01*
X361739Y83327D01*
X362283Y82385D01*
X363053Y81615D01*
X363996Y81071D01*
X365047Y80789D01*
X366135D01*
X367187Y81071D01*
X368129Y81615D01*
X368899Y82385D01*
X369443Y83327D01*
X369725Y84379D01*
Y85467D01*
X369443Y86519D01*
X368899Y87461D01*
X368129Y88231D01*
X367187Y88775D01*
X366135Y89057D01*
D02*
G37*
G36*
X325821Y89056D02*
X324732D01*
X323681Y88774D01*
X322738Y88230D01*
X321969Y87460D01*
X321424Y86518D01*
X321143Y85466D01*
Y84378D01*
X321424Y83326D01*
X321969Y82384D01*
X322738Y81614D01*
X323681Y81070D01*
X324732Y80788D01*
X325821D01*
X326872Y81070D01*
X327815Y81614D01*
X328585Y82384D01*
X329129Y83326D01*
X329410Y84378D01*
Y85466D01*
X329129Y86518D01*
X328585Y87460D01*
X327815Y88230D01*
X326872Y88774D01*
X325821Y89056D01*
D02*
G37*
G36*
X443514Y88595D02*
X429951D01*
Y80634D01*
X443514D01*
Y88595D01*
D02*
G37*
G36*
X158353Y86417D02*
X157576D01*
X156825Y86216D01*
X156152Y85827D01*
X155602Y85278D01*
X155213Y84604D01*
X155012Y83853D01*
Y83076D01*
X155213Y82325D01*
X155602Y81652D01*
X156152Y81102D01*
X156825Y80713D01*
X157576Y80512D01*
X158353D01*
X159105Y80713D01*
X159778Y81102D01*
X160328Y81652D01*
X160716Y82325D01*
X160917Y83076D01*
Y83853D01*
X160716Y84604D01*
X160328Y85278D01*
X159778Y85827D01*
X159105Y86216D01*
X158353Y86417D01*
D02*
G37*
G36*
X117015D02*
X116237D01*
X115487Y86216D01*
X114813Y85827D01*
X114263Y85278D01*
X113875Y84604D01*
X113673Y83853D01*
Y83076D01*
X113875Y82325D01*
X114263Y81652D01*
X114813Y81102D01*
X115487Y80713D01*
X116237Y80512D01*
X117015D01*
X117766Y80713D01*
X118439Y81102D01*
X118989Y81652D01*
X119378Y82325D01*
X119579Y83076D01*
Y83853D01*
X119378Y84604D01*
X118989Y85278D01*
X118439Y85827D01*
X117766Y86216D01*
X117015Y86417D01*
D02*
G37*
G36*
X78039Y85630D02*
X77261D01*
X76510Y85429D01*
X75837Y85040D01*
X75287Y84490D01*
X74898Y83817D01*
X74697Y83066D01*
Y82288D01*
X74898Y81537D01*
X75287Y80864D01*
X75837Y80314D01*
X76510Y79926D01*
X77261Y79724D01*
X78039D01*
X78790Y79926D01*
X79463Y80314D01*
X80013Y80864D01*
X80401Y81537D01*
X80603Y82288D01*
Y83066D01*
X80401Y83817D01*
X80013Y84490D01*
X79463Y85040D01*
X78790Y85429D01*
X78039Y85630D01*
D02*
G37*
G36*
X271258Y83071D02*
X270475D01*
X269751Y82771D01*
X269197Y82217D01*
X268898Y81494D01*
Y80711D01*
X268944Y80599D01*
X263070Y74725D01*
X262852Y74400D01*
X262776Y74016D01*
Y71400D01*
X262665Y71354D01*
X262111Y70800D01*
X261811Y70077D01*
Y69293D01*
X262111Y68570D01*
X262665Y68016D01*
X263388Y67716D01*
X264171D01*
X264895Y68016D01*
X265448Y68570D01*
X265748Y69293D01*
Y70077D01*
X265448Y70800D01*
X264895Y71354D01*
X264783Y71400D01*
Y73600D01*
X270363Y79180D01*
X270475Y79134D01*
X271258D01*
X271981Y79434D01*
X272535Y79987D01*
X272835Y80711D01*
Y81494D01*
X272535Y82217D01*
X271981Y82771D01*
X271258Y83071D01*
D02*
G37*
G36*
X174014Y84252D02*
X173231D01*
X172507Y83952D01*
X171953Y83398D01*
X171653Y82675D01*
Y81892D01*
X171898Y81301D01*
X171831Y80963D01*
Y75700D01*
X171331Y75397D01*
X170864Y75590D01*
X170081D01*
X169357Y75291D01*
X168804Y74737D01*
X168504Y74014D01*
Y73230D01*
X168550Y73119D01*
X166219Y70788D01*
X166002Y70463D01*
X165926Y70079D01*
Y62345D01*
X165814Y62299D01*
X165260Y61745D01*
X164961Y61022D01*
Y60238D01*
X165260Y59515D01*
X165814Y58961D01*
X166538Y58661D01*
X167321D01*
X168044Y58961D01*
X168598Y59515D01*
X168898Y60238D01*
Y61022D01*
X168598Y61745D01*
X168044Y62299D01*
X167933Y62345D01*
Y69663D01*
X169969Y71700D01*
X170081Y71653D01*
X170864D01*
X171331Y71847D01*
X171831Y71544D01*
Y56367D01*
X171599Y56271D01*
X171045Y55717D01*
X170746Y54994D01*
Y54211D01*
X171045Y53487D01*
X171599Y52933D01*
X172323Y52634D01*
X172731D01*
X173026Y52338D01*
Y38620D01*
X172914Y38574D01*
X172361Y38020D01*
X172061Y37296D01*
Y36513D01*
X172361Y35790D01*
X172914Y35236D01*
X173638Y34936D01*
X174421D01*
X175145Y35236D01*
X175698Y35790D01*
X175998Y36513D01*
Y37296D01*
X175698Y38020D01*
X175145Y38574D01*
X175033Y38620D01*
Y52754D01*
X174957Y53138D01*
X174739Y53464D01*
X174480Y53722D01*
X174683Y54211D01*
Y54994D01*
X174383Y55717D01*
X173838Y56262D01*
Y71998D01*
X173959Y72178D01*
X174035Y72562D01*
Y74682D01*
X173959Y75066D01*
X173838Y75246D01*
Y80315D01*
X174014D01*
X174737Y80615D01*
X175291Y81168D01*
X175591Y81892D01*
Y82675D01*
X175291Y83398D01*
X174737Y83952D01*
X174014Y84252D01*
D02*
G37*
G36*
X346247Y90668D02*
X344619D01*
X343021Y90351D01*
X341517Y89728D01*
X340162Y88823D01*
X339011Y87671D01*
X338106Y86317D01*
X337483Y84812D01*
X337165Y83215D01*
Y81586D01*
X337483Y79989D01*
X338106Y78485D01*
X339011Y77130D01*
X340162Y75979D01*
X341517Y75074D01*
X343021Y74451D01*
X344619Y74133D01*
X346247D01*
X347845Y74451D01*
X349349Y75074D01*
X350703Y75979D01*
X351855Y77130D01*
X352760Y78485D01*
X353383Y79989D01*
X353701Y81586D01*
Y83215D01*
X353383Y84812D01*
X352760Y86317D01*
X351855Y87671D01*
X350703Y88823D01*
X349349Y89728D01*
X347845Y90351D01*
X346247Y90668D01*
D02*
G37*
G36*
X309319Y166846D02*
X308536D01*
X307813Y166546D01*
X307259Y165992D01*
X306959Y165269D01*
Y164486D01*
X307259Y163762D01*
X307813Y163208D01*
X308438Y162949D01*
Y74214D01*
X308174Y73950D01*
X307874Y73226D01*
Y72443D01*
X308174Y71720D01*
X308727Y71166D01*
X309451Y70866D01*
X310234D01*
X310958Y71166D01*
X311511Y71720D01*
X311811Y72443D01*
Y73226D01*
X311511Y73950D01*
X311247Y74214D01*
Y163643D01*
X311140Y164180D01*
X310896Y164546D01*
Y165269D01*
X310596Y165992D01*
X310043Y166546D01*
X309319Y166846D01*
D02*
G37*
G36*
X366135Y79057D02*
X365047D01*
X363996Y78775D01*
X363053Y78231D01*
X362283Y77461D01*
X361739Y76518D01*
X361457Y75467D01*
Y74379D01*
X361739Y73327D01*
X362283Y72385D01*
X363053Y71615D01*
X363996Y71071D01*
X365047Y70789D01*
X366135D01*
X367187Y71071D01*
X368129Y71615D01*
X368899Y72385D01*
X369443Y73327D01*
X369725Y74379D01*
Y75467D01*
X369443Y76518D01*
X368899Y77461D01*
X368129Y78231D01*
X367187Y78775D01*
X366135Y79057D01*
D02*
G37*
G36*
X325821Y79056D02*
X324732D01*
X323681Y78774D01*
X322738Y78230D01*
X321969Y77460D01*
X321424Y76518D01*
X321143Y75466D01*
Y74378D01*
X321424Y73326D01*
X321969Y72384D01*
X322738Y71614D01*
X323681Y71070D01*
X324732Y70788D01*
X325821D01*
X326872Y71070D01*
X327815Y71614D01*
X328585Y72384D01*
X329129Y73326D01*
X329410Y74378D01*
Y75466D01*
X329129Y76518D01*
X328585Y77460D01*
X327815Y78230D01*
X326872Y78774D01*
X325821Y79056D01*
D02*
G37*
G36*
X457478Y127165D02*
X456695D01*
X455971Y126866D01*
X455418Y126312D01*
X455118Y125588D01*
Y124805D01*
X455418Y124082D01*
X455882Y123617D01*
Y72824D01*
X455184Y72535D01*
X454630Y71981D01*
X454331Y71258D01*
Y70475D01*
X454630Y69751D01*
X455184Y69197D01*
X455908Y68898D01*
X456691D01*
X457414Y69197D01*
X457968Y69751D01*
X458268Y70475D01*
Y71258D01*
X458230Y71348D01*
X458291Y71653D01*
Y123617D01*
X458755Y124082D01*
X459055Y124805D01*
Y125588D01*
X458755Y126312D01*
X458202Y126866D01*
X457478Y127165D01*
D02*
G37*
G36*
X222045Y121260D02*
X221262D01*
X220538Y120960D01*
X219985Y120406D01*
X219685Y119683D01*
Y118900D01*
X219985Y118176D01*
X220538Y117622D01*
X220650Y117576D01*
Y70219D01*
X220538Y70173D01*
X219985Y69619D01*
X219685Y68896D01*
Y68112D01*
X219985Y67389D01*
X220538Y66835D01*
X221262Y66535D01*
X222045D01*
X222769Y66835D01*
X223322Y67389D01*
X223622Y68112D01*
Y68896D01*
X223322Y69619D01*
X222769Y70173D01*
X222657Y70219D01*
Y117576D01*
X222769Y117622D01*
X223322Y118176D01*
X223622Y118900D01*
Y119683D01*
X223322Y120406D01*
X222769Y120960D01*
X222045Y121260D01*
D02*
G37*
G36*
X249533Y72629D02*
X243931D01*
X242892Y72492D01*
X241924Y72091D01*
X241092Y71453D01*
X240454Y70622D01*
X240053Y69653D01*
X239916Y68614D01*
X240053Y67575D01*
X240454Y66607D01*
X241092Y65775D01*
X241924Y65137D01*
X242892Y64736D01*
X243931Y64600D01*
X249533D01*
X250572Y64736D01*
X251541Y65137D01*
X252372Y65775D01*
X253010Y66607D01*
X253411Y67575D01*
X253548Y68614D01*
X253411Y69653D01*
X253010Y70622D01*
X252372Y71453D01*
X251541Y72091D01*
X250572Y72492D01*
X249533Y72629D01*
D02*
G37*
G36*
X130737Y78453D02*
X129954D01*
X129230Y78153D01*
X128676Y77600D01*
X128377Y76876D01*
Y76093D01*
X128676Y75369D01*
X129230Y74816D01*
X129342Y74770D01*
Y64326D01*
X129200Y64267D01*
X128646Y63714D01*
X128347Y62990D01*
Y62207D01*
X128646Y61483D01*
X129200Y60930D01*
X129923Y60630D01*
X130707D01*
X131430Y60930D01*
X131984Y61483D01*
X132283Y62207D01*
Y62990D01*
X131984Y63714D01*
X131430Y64267D01*
X131349Y64301D01*
Y74770D01*
X131460Y74816D01*
X132014Y75369D01*
X132314Y76093D01*
Y76876D01*
X132014Y77600D01*
X131460Y78153D01*
X130737Y78453D01*
D02*
G37*
G36*
X89762Y78347D02*
X88978D01*
X88255Y78047D01*
X87701Y77493D01*
X87402Y76770D01*
Y75986D01*
X87701Y75263D01*
X88255Y74709D01*
X88367Y74663D01*
Y62345D01*
X88255Y62299D01*
X87701Y61745D01*
X87402Y61022D01*
Y60238D01*
X87701Y59515D01*
X88255Y58961D01*
X88978Y58661D01*
X89762D01*
X90485Y58961D01*
X91039Y59515D01*
X91339Y60238D01*
Y61022D01*
X91039Y61745D01*
X90485Y62299D01*
X90374Y62345D01*
Y74663D01*
X90485Y74709D01*
X91039Y75263D01*
X91339Y75986D01*
Y76770D01*
X91039Y77493D01*
X90485Y78047D01*
X89762Y78347D01*
D02*
G37*
G36*
X262596Y59449D02*
X261813D01*
X261090Y59149D01*
X260536Y58595D01*
X260236Y57872D01*
Y57089D01*
X260536Y56365D01*
X261090Y55812D01*
X261813Y55512D01*
X262596D01*
X263320Y55812D01*
X263874Y56365D01*
X264173Y57089D01*
Y57872D01*
X263874Y58595D01*
X263320Y59149D01*
X262596Y59449D01*
D02*
G37*
G36*
X249533Y62629D02*
X243931D01*
X242892Y62492D01*
X241924Y62091D01*
X241092Y61453D01*
X240454Y60622D01*
X240053Y59653D01*
X239916Y58614D01*
X240053Y57575D01*
X240454Y56607D01*
X241092Y55775D01*
X241924Y55137D01*
X242892Y54736D01*
X243931Y54599D01*
X249533D01*
X250572Y54736D01*
X251541Y55137D01*
X252372Y55775D01*
X253010Y56607D01*
X253411Y57575D01*
X253548Y58614D01*
X253411Y59653D01*
X253010Y60622D01*
X252372Y61453D01*
X251541Y62091D01*
X250572Y62492D01*
X249533Y62629D01*
D02*
G37*
G36*
X158353Y59646D02*
X157576D01*
X156825Y59444D01*
X156152Y59056D01*
X155602Y58506D01*
X155213Y57833D01*
X155012Y57082D01*
Y56304D01*
X155213Y55553D01*
X155602Y54880D01*
X156152Y54330D01*
X156825Y53941D01*
X157576Y53740D01*
X158353D01*
X159105Y53941D01*
X159778Y54330D01*
X160328Y54880D01*
X160716Y55553D01*
X160917Y56304D01*
Y57082D01*
X160716Y57833D01*
X160328Y58506D01*
X159778Y59056D01*
X159105Y59444D01*
X158353Y59646D01*
D02*
G37*
G36*
X117015D02*
X116237D01*
X115487Y59444D01*
X114813Y59056D01*
X114263Y58506D01*
X113875Y57833D01*
X113673Y57082D01*
Y56304D01*
X113875Y55553D01*
X114263Y54880D01*
X114813Y54330D01*
X115487Y53941D01*
X116237Y53740D01*
X117015D01*
X117766Y53941D01*
X118439Y54330D01*
X118989Y54880D01*
X119378Y55553D01*
X119579Y56304D01*
Y57082D01*
X119378Y57833D01*
X118989Y58506D01*
X118439Y59056D01*
X117766Y59444D01*
X117015Y59646D01*
D02*
G37*
G36*
X78039Y58858D02*
X77261D01*
X76510Y58657D01*
X75837Y58268D01*
X75287Y57718D01*
X74898Y57045D01*
X74697Y56294D01*
Y55517D01*
X74898Y54766D01*
X75287Y54093D01*
X75837Y53543D01*
X76510Y53154D01*
X77261Y52953D01*
X78039D01*
X78790Y53154D01*
X79463Y53543D01*
X80013Y54093D01*
X80401Y54766D01*
X80603Y55517D01*
Y56294D01*
X80401Y57045D01*
X80013Y57718D01*
X79463Y58268D01*
X78790Y58657D01*
X78039Y58858D01*
D02*
G37*
G36*
X278738Y195669D02*
X277955D01*
X277231Y195370D01*
X276678Y194816D01*
X276378Y194092D01*
Y193309D01*
X276678Y192586D01*
X277231Y192032D01*
X277955Y191732D01*
X278738D01*
X278850Y191779D01*
X282461Y188167D01*
Y55258D01*
X282349Y55212D01*
X281796Y54658D01*
X281496Y53935D01*
Y53152D01*
X281796Y52428D01*
X282349Y51875D01*
X283073Y51575D01*
X283856D01*
X284580Y51875D01*
X285133Y52428D01*
X285433Y53152D01*
Y53935D01*
X285133Y54658D01*
X284580Y55212D01*
X284468Y55258D01*
Y188583D01*
X284392Y188967D01*
X284174Y189292D01*
X280269Y193198D01*
X280315Y193309D01*
Y194092D01*
X280015Y194816D01*
X279462Y195370D01*
X278738Y195669D01*
D02*
G37*
G36*
X114171Y71653D02*
X113388D01*
X112664Y71354D01*
X112111Y70800D01*
X111811Y70077D01*
Y69293D01*
X112111Y68570D01*
X112664Y68016D01*
X113388Y67716D01*
X114045D01*
X121237Y60525D01*
Y55123D01*
X120772Y54658D01*
X120472Y53935D01*
Y53152D01*
X120772Y52428D01*
X121326Y51875D01*
X122049Y51575D01*
X122833D01*
X123556Y51875D01*
X124110Y52428D01*
X124409Y53152D01*
Y53935D01*
X124110Y54658D01*
X123645Y55123D01*
Y61024D01*
X123554Y61484D01*
X123293Y61875D01*
X123292Y61875D01*
X115748Y69420D01*
Y70077D01*
X115448Y70800D01*
X114895Y71354D01*
X114171Y71653D01*
D02*
G37*
G36*
X153147Y56808D02*
X152364D01*
X151641Y56508D01*
X151087Y55954D01*
X150787Y55231D01*
Y54448D01*
X151087Y53724D01*
X151641Y53170D01*
X151676Y53156D01*
Y50360D01*
X151489Y50283D01*
X150935Y49729D01*
X150635Y49005D01*
Y48222D01*
X150935Y47499D01*
X151489Y46945D01*
X151752Y46836D01*
Y40757D01*
X151481Y40485D01*
X151181Y39762D01*
Y38978D01*
X151481Y38255D01*
X152034Y37701D01*
X152758Y37402D01*
X153541D01*
X154265Y37701D01*
X154818Y38255D01*
X155118Y38978D01*
Y39762D01*
X154818Y40485D01*
X154265Y41039D01*
X153759Y41248D01*
Y46986D01*
X154273Y47499D01*
X154572Y48222D01*
Y49005D01*
X154273Y49729D01*
X153719Y50283D01*
X153683Y50297D01*
Y53093D01*
X153871Y53170D01*
X154425Y53724D01*
X154724Y54448D01*
Y55231D01*
X154425Y55954D01*
X153871Y56508D01*
X153147Y56808D01*
D02*
G37*
G36*
X129919Y51181D02*
X129136D01*
X128412Y50881D01*
X127859Y50328D01*
X127559Y49604D01*
Y48821D01*
X127859Y48098D01*
X128412Y47544D01*
X128524Y47498D01*
Y46794D01*
X128412Y46748D01*
X127859Y46194D01*
X127559Y45470D01*
Y44687D01*
X127859Y43964D01*
X128412Y43410D01*
X128524Y43364D01*
Y39969D01*
X128252Y39698D01*
X127953Y38974D01*
Y38191D01*
X128252Y37468D01*
X128806Y36914D01*
X129530Y36614D01*
X130313D01*
X131036Y36914D01*
X131590Y37468D01*
X131890Y38191D01*
Y38974D01*
X131590Y39698D01*
X131036Y40251D01*
X130531Y40461D01*
Y43364D01*
X130643Y43410D01*
X131196Y43964D01*
X131496Y44687D01*
Y45470D01*
X131196Y46194D01*
X130643Y46748D01*
X130531Y46794D01*
Y47498D01*
X130643Y47544D01*
X131196Y48098D01*
X131496Y48821D01*
Y49604D01*
X131196Y50328D01*
X130643Y50881D01*
X129919Y51181D01*
D02*
G37*
G36*
X487006Y107087D02*
X486223D01*
X485499Y106787D01*
X484945Y106233D01*
X484646Y105510D01*
Y104727D01*
X484945Y104003D01*
X485209Y103739D01*
Y77465D01*
X484712Y77259D01*
X484158Y76706D01*
X483858Y75982D01*
Y75199D01*
X484158Y74476D01*
X484712Y73922D01*
X485209Y73716D01*
Y38387D01*
X484945Y38123D01*
X484646Y37399D01*
Y36616D01*
X484945Y35893D01*
X485499Y35339D01*
X486223Y35039D01*
X487006D01*
X487729Y35339D01*
X488283Y35893D01*
X488583Y36616D01*
Y37399D01*
X488283Y38123D01*
X488019Y38387D01*
Y103739D01*
X488283Y104003D01*
X488583Y104727D01*
Y105510D01*
X488283Y106233D01*
X487729Y106787D01*
X487006Y107087D01*
D02*
G37*
G36*
X302754Y60630D02*
X301971D01*
X301247Y60330D01*
X300693Y59777D01*
X300394Y59053D01*
Y58270D01*
X300693Y57546D01*
X301162Y57078D01*
Y38804D01*
X300853Y38677D01*
X300300Y38123D01*
X300000Y37399D01*
Y36616D01*
X300300Y35893D01*
X300853Y35339D01*
X301577Y35039D01*
X302360D01*
X303084Y35339D01*
X303637Y35893D01*
X303937Y36616D01*
Y37399D01*
X303637Y38123D01*
X303169Y38591D01*
Y56865D01*
X303477Y56993D01*
X304031Y57546D01*
X304331Y58270D01*
Y59053D01*
X304031Y59777D01*
X303477Y60330D01*
X302754Y60630D01*
D02*
G37*
G36*
X410332Y37106D02*
X409353D01*
X408406Y36853D01*
X407558Y36363D01*
X406865Y35670D01*
X406376Y34822D01*
X406122Y33876D01*
Y32896D01*
X406376Y31950D01*
X406865Y31101D01*
X407558Y30409D01*
X408406Y29919D01*
X409353Y29665D01*
X410332D01*
X411279Y29919D01*
X412127Y30409D01*
X412820Y31101D01*
X413309Y31950D01*
X413563Y32896D01*
Y33876D01*
X413309Y34822D01*
X412820Y35670D01*
X412127Y36363D01*
X411279Y36853D01*
X410332Y37106D01*
D02*
G37*
G36*
X354427Y35531D02*
X353447D01*
X352501Y35278D01*
X351653Y34788D01*
X350960Y34095D01*
X350470Y33247D01*
X350217Y32301D01*
Y31321D01*
X350470Y30375D01*
X350960Y29527D01*
X351653Y28834D01*
X352501Y28344D01*
X353447Y28091D01*
X354427D01*
X355373Y28344D01*
X356221Y28834D01*
X356914Y29527D01*
X357404Y30375D01*
X357658Y31321D01*
Y32301D01*
X357404Y33247D01*
X356914Y34095D01*
X356221Y34788D01*
X355373Y35278D01*
X354427Y35531D01*
D02*
G37*
G36*
X219683Y46850D02*
X218900D01*
X218176Y46551D01*
X217622Y45997D01*
X217323Y45274D01*
Y44490D01*
X217622Y43767D01*
X218176Y43213D01*
X218288Y43167D01*
Y25731D01*
X218176Y25685D01*
X217622Y25131D01*
X217323Y24407D01*
Y23624D01*
X217622Y22901D01*
X218176Y22347D01*
X218900Y22047D01*
X219683D01*
X220406Y22347D01*
X220960Y22901D01*
X221260Y23624D01*
Y24407D01*
X220960Y25131D01*
X220406Y25685D01*
X220295Y25731D01*
Y43167D01*
X220406Y43213D01*
X220960Y43767D01*
X221260Y44490D01*
Y45274D01*
X220960Y45997D01*
X220406Y46551D01*
X219683Y46850D01*
D02*
G37*
G36*
X258266Y155905D02*
X257483D01*
X256759Y155606D01*
X256205Y155052D01*
X255906Y154329D01*
Y153545D01*
X256205Y152822D01*
X256759Y152268D01*
X257067Y152140D01*
Y27286D01*
X257144Y26902D01*
X257361Y26577D01*
X258812Y25126D01*
X259138Y24908D01*
X259522Y24832D01*
X259940D01*
X260142Y24343D01*
X260696Y23790D01*
X261420Y23490D01*
X262203D01*
X262402Y23357D01*
Y21654D01*
X267913D01*
Y29528D01*
X262402D01*
Y27560D01*
X262203Y27427D01*
X261420D01*
X260696Y27127D01*
X260407Y26839D01*
X259938D01*
X259074Y27702D01*
Y152354D01*
X259543Y152822D01*
X259842Y153545D01*
Y154329D01*
X259543Y155052D01*
X258989Y155606D01*
X258266Y155905D01*
D02*
G37*
G36*
X390943Y131890D02*
X390160D01*
X389436Y131590D01*
X388882Y131036D01*
X388583Y130313D01*
Y129530D01*
X388882Y128806D01*
X389171Y128518D01*
Y51575D01*
X389038D01*
X387636Y51199D01*
X386380Y50473D01*
X385353Y49447D01*
X384628Y48191D01*
X384252Y46789D01*
Y45337D01*
X384628Y43935D01*
X385353Y42679D01*
X386380Y41653D01*
X387636Y40927D01*
X389038Y40551D01*
X390489D01*
X391891Y40927D01*
X392899Y41509D01*
X398839Y35569D01*
Y26969D01*
X398407Y26853D01*
X397558Y26363D01*
X396865Y25670D01*
X396376Y24822D01*
X396122Y23876D01*
Y22896D01*
X396376Y21950D01*
X396865Y21101D01*
X397558Y20409D01*
X398407Y19919D01*
X399353Y19665D01*
X400332D01*
X401279Y19919D01*
X402127Y20409D01*
X402820Y21101D01*
X403309Y21950D01*
X403563Y22896D01*
Y23876D01*
X403309Y24822D01*
X402820Y25670D01*
X402127Y26363D01*
X401279Y26853D01*
X400846Y26969D01*
Y35984D01*
X400770Y36368D01*
X400552Y36694D01*
X394318Y42928D01*
X394900Y43935D01*
X395276Y45337D01*
Y46789D01*
X394900Y48191D01*
X394174Y49447D01*
X393148Y50473D01*
X391891Y51199D01*
X391178Y51390D01*
Y128050D01*
X391666Y128252D01*
X392220Y128806D01*
X392520Y129530D01*
Y130313D01*
X392220Y131036D01*
X391666Y131590D01*
X390943Y131890D01*
D02*
G37*
G36*
X110639Y40630D02*
X109856D01*
X109133Y40331D01*
X108579Y39777D01*
X108279Y39053D01*
Y38270D01*
X108579Y37547D01*
X109133Y36993D01*
X109856Y36693D01*
X110639D01*
X110751Y36740D01*
X126940Y20550D01*
X127266Y20333D01*
X127650Y20256D01*
X194742D01*
X194788Y20145D01*
X195342Y19591D01*
X196065Y19291D01*
X196848D01*
X197572Y19591D01*
X198059Y20079D01*
X201772D01*
Y27953D01*
X196260D01*
Y23228D01*
X196065D01*
X195342Y22929D01*
X194788Y22375D01*
X194742Y22263D01*
X128065D01*
X112170Y38159D01*
X112216Y38270D01*
Y39053D01*
X111916Y39777D01*
X111363Y40331D01*
X110639Y40630D01*
D02*
G37*
G36*
X332281Y86614D02*
X331498D01*
X330775Y86314D01*
X330221Y85761D01*
X329921Y85037D01*
Y84254D01*
X330221Y83531D01*
X330775Y82977D01*
X330886Y82931D01*
Y65995D01*
X327440Y62548D01*
X327222Y62223D01*
X327146Y61839D01*
Y43305D01*
X327222Y42921D01*
X327440Y42595D01*
X327737Y42298D01*
Y29274D01*
X327625Y29228D01*
X327071Y28674D01*
X326772Y27951D01*
Y27167D01*
X327071Y26444D01*
X327625Y25890D01*
X328349Y25591D01*
X329132D01*
X329855Y25890D01*
X330409Y26444D01*
X330709Y27167D01*
Y27951D01*
X330409Y28674D01*
X329855Y29228D01*
X329744Y29274D01*
Y41336D01*
X330206Y41527D01*
X330474Y41259D01*
X331731Y40533D01*
X333133Y40157D01*
X334584D01*
X335986Y40533D01*
X336993Y41115D01*
X342934Y35175D01*
Y25394D01*
X342501Y25278D01*
X341653Y24788D01*
X340960Y24095D01*
X340470Y23247D01*
X340216Y22301D01*
Y21321D01*
X340470Y20375D01*
X340960Y19527D01*
X341653Y18834D01*
X342501Y18344D01*
X343447Y18090D01*
X344427D01*
X345373Y18344D01*
X346221Y18834D01*
X346914Y19527D01*
X347404Y20375D01*
X347657Y21321D01*
Y22301D01*
X347404Y23247D01*
X346914Y24095D01*
X346221Y24788D01*
X345373Y25278D01*
X344940Y25394D01*
Y35590D01*
X344864Y35975D01*
X344647Y36300D01*
X338413Y42534D01*
X338995Y43542D01*
X339370Y44944D01*
Y46395D01*
X338995Y47797D01*
X338269Y49054D01*
X337243Y50080D01*
X335986Y50805D01*
X334584Y51181D01*
X333133D01*
X331731Y50805D01*
X330474Y50080D01*
X329653Y49259D01*
X329153Y49466D01*
Y61423D01*
X332599Y64869D01*
X332817Y65195D01*
X332893Y65579D01*
Y82931D01*
X333005Y82977D01*
X333559Y83531D01*
X333858Y84254D01*
Y85037D01*
X333559Y85761D01*
X333005Y86314D01*
X332281Y86614D01*
D02*
G37*
G36*
X298620Y56693D02*
X297837D01*
X297113Y56393D01*
X296560Y55840D01*
X296260Y55116D01*
Y54333D01*
X296560Y53609D01*
X297113Y53056D01*
X297422Y52928D01*
Y20219D01*
X297310Y20173D01*
X296756Y19619D01*
X296457Y18895D01*
Y18112D01*
X296756Y17389D01*
X297310Y16835D01*
X298034Y16535D01*
X298817D01*
X299540Y16835D01*
X300094Y17389D01*
X300394Y18112D01*
Y18895D01*
X300094Y19619D01*
X299540Y20173D01*
X299429Y20219D01*
Y52734D01*
X299529Y52834D01*
X299746Y53159D01*
X299820Y53532D01*
X299897Y53609D01*
X300197Y54333D01*
Y55116D01*
X299897Y55840D01*
X299343Y56393D01*
X298620Y56693D01*
D02*
G37*
G36*
X100214Y21575D02*
X99022D01*
X97871Y21266D01*
X96838Y20670D01*
X95995Y19827D01*
X95399Y18795D01*
X95091Y17643D01*
Y16451D01*
X95399Y15300D01*
X95995Y14267D01*
X96838Y13424D01*
X97871Y12828D01*
X99022Y12520D01*
X100214D01*
X101366Y12828D01*
X102398Y13424D01*
X103241Y14267D01*
X103837Y15300D01*
X104146Y16451D01*
Y17643D01*
X103837Y18795D01*
X103241Y19827D01*
X102398Y20670D01*
X101366Y21266D01*
X100214Y21575D01*
D02*
G37*
G36*
X90214Y31575D02*
X89022D01*
X87871Y31266D01*
X86838Y30670D01*
X85995Y29827D01*
X85399Y28795D01*
X85091Y27643D01*
Y26451D01*
X85399Y25300D01*
X85995Y24267D01*
X86838Y23424D01*
X87712Y22920D01*
Y21174D01*
X86838Y20670D01*
X85995Y19827D01*
X85399Y18795D01*
X85091Y17643D01*
Y16451D01*
X85399Y15300D01*
X85995Y14267D01*
X86838Y13424D01*
X87871Y12828D01*
X89022Y12520D01*
X90214D01*
X91366Y12828D01*
X92398Y13424D01*
X93241Y14267D01*
X93837Y15300D01*
X94146Y16451D01*
Y17643D01*
X93837Y18795D01*
X93241Y19827D01*
X92398Y20670D01*
X91525Y21174D01*
Y22920D01*
X92398Y23424D01*
X93241Y24267D01*
X93837Y25300D01*
X94146Y26451D01*
Y27643D01*
X93837Y28795D01*
X93241Y29827D01*
X92398Y30670D01*
X91366Y31266D01*
X90214Y31575D01*
D02*
G37*
G36*
X80214D02*
X79022D01*
X77871Y31266D01*
X76838Y30670D01*
X75995Y29827D01*
X75399Y28795D01*
X75091Y27643D01*
Y26451D01*
X75399Y25300D01*
X75995Y24267D01*
X76838Y23424D01*
X77871Y22828D01*
X78615Y22629D01*
Y21466D01*
X77871Y21266D01*
X76838Y20670D01*
X75995Y19827D01*
X75399Y18795D01*
X75091Y17643D01*
Y16451D01*
X75399Y15300D01*
X75995Y14267D01*
X76838Y13424D01*
X77871Y12828D01*
X77968Y12632D01*
X77953Y12596D01*
Y11813D01*
X78252Y11090D01*
X78806Y10536D01*
X79530Y10236D01*
X80313D01*
X81036Y10536D01*
X81590Y11090D01*
X81890Y11813D01*
Y12596D01*
X81711Y13027D01*
X82398Y13424D01*
X83241Y14267D01*
X83837Y15300D01*
X84146Y16451D01*
Y17643D01*
X83837Y18795D01*
X83241Y19827D01*
X82398Y20670D01*
X81366Y21266D01*
X80622Y21466D01*
Y22629D01*
X81366Y22828D01*
X82398Y23424D01*
X83241Y24267D01*
X83837Y25300D01*
X84146Y26451D01*
Y27643D01*
X83837Y28795D01*
X83241Y29827D01*
X82398Y30670D01*
X81366Y31266D01*
X80214Y31575D01*
D02*
G37*
G36*
X70214D02*
X69022D01*
X67871Y31266D01*
X66838Y30670D01*
X65995Y29827D01*
X65399Y28795D01*
X65091Y27643D01*
Y26451D01*
X65399Y25300D01*
X65995Y24267D01*
X66838Y23424D01*
X67871Y22828D01*
X68615Y22629D01*
Y21466D01*
X67871Y21266D01*
X66838Y20670D01*
X65995Y19827D01*
X65399Y18795D01*
X65091Y17643D01*
Y16451D01*
X65399Y15300D01*
X65995Y14267D01*
X66838Y13424D01*
X67210Y13210D01*
Y8071D01*
X67393Y7149D01*
X67915Y6368D01*
X68697Y5846D01*
X69618Y5662D01*
X70540Y5846D01*
X71321Y6368D01*
X71843Y7149D01*
X72027Y8071D01*
Y13210D01*
X72398Y13424D01*
X73241Y14267D01*
X73837Y15300D01*
X74146Y16451D01*
Y17643D01*
X73837Y18795D01*
X73241Y19827D01*
X72398Y20670D01*
X71366Y21266D01*
X70622Y21466D01*
Y22629D01*
X71366Y22828D01*
X72398Y23424D01*
X73241Y24267D01*
X73837Y25300D01*
X74146Y26451D01*
Y27643D01*
X73837Y28795D01*
X73241Y29827D01*
X72398Y30670D01*
X71366Y31266D01*
X70214Y31575D01*
D02*
G37*
G36*
X473226Y226378D02*
X472443D01*
X471720Y226078D01*
X471166Y225524D01*
X470866Y224801D01*
Y224018D01*
X471166Y223294D01*
X471720Y222741D01*
X471831Y222694D01*
Y10652D01*
X469401Y8222D01*
X469289Y8268D01*
X468506D01*
X467783Y7968D01*
X467229Y7414D01*
X466929Y6691D01*
Y5908D01*
X467229Y5184D01*
X467783Y4630D01*
X468506Y4331D01*
X469289D01*
X470013Y4630D01*
X470567Y5184D01*
X470866Y5908D01*
Y6691D01*
X470820Y6802D01*
X473172Y9154D01*
X473761Y9037D01*
X474080Y8268D01*
X474898Y7043D01*
X475940Y6001D01*
X477165Y5182D01*
X478527Y4618D01*
X479972Y4331D01*
X481445D01*
X482891Y4618D01*
X484252Y5182D01*
X485477Y6001D01*
X486519Y7043D01*
X487338Y8268D01*
X487901Y9629D01*
X488189Y11074D01*
Y12548D01*
X487901Y13993D01*
X487338Y15354D01*
X486519Y16579D01*
X485477Y17621D01*
X484252Y18440D01*
X482891Y19004D01*
X481445Y19291D01*
X479972D01*
X478527Y19004D01*
X477165Y18440D01*
X475940Y17621D01*
X474898Y16579D01*
X474338Y15741D01*
X473838Y15893D01*
Y222694D01*
X473950Y222741D01*
X474504Y223294D01*
X474803Y224018D01*
Y224801D01*
X474504Y225524D01*
X473950Y226078D01*
X473226Y226378D01*
D02*
G37*
G36*
X12548Y19291D02*
X11074D01*
X9629Y19004D01*
X8268Y18440D01*
X7043Y17621D01*
X6001Y16579D01*
X5182Y15354D01*
X4618Y13993D01*
X4331Y12548D01*
Y11074D01*
X4618Y9629D01*
X5182Y8268D01*
X6001Y7043D01*
X7043Y6001D01*
X8268Y5182D01*
X9629Y4618D01*
X11074Y4331D01*
X12548D01*
X13993Y4618D01*
X15354Y5182D01*
X16579Y6001D01*
X17621Y7043D01*
X18440Y8268D01*
X19004Y9629D01*
X19291Y11074D01*
Y12548D01*
X19004Y13993D01*
X18440Y15354D01*
X17621Y16579D01*
X16579Y17621D01*
X15354Y18440D01*
X13993Y19004D01*
X12548Y19291D01*
D02*
G37*
%LPD*%
G36*
X239764Y463779D02*
Y455342D01*
X202166D01*
X201903Y455606D01*
X201179Y455905D01*
X200396D01*
X199672Y455606D01*
X199119Y455052D01*
X198819Y454329D01*
Y453545D01*
X199119Y452822D01*
X199672Y452268D01*
X200396Y451968D01*
X201179D01*
X201903Y452268D01*
X202166Y452532D01*
X239764D01*
Y438189D01*
X227559D01*
X220866Y431496D01*
X140551D01*
X134252Y439764D01*
X121260Y452756D01*
Y470079D01*
X177790D01*
Y465908D01*
X188420D01*
Y470079D01*
X233465D01*
X239764Y463779D01*
D02*
G37*
%LPC*%
G36*
X160237Y462987D02*
X159454D01*
X158730Y462687D01*
X158177Y462134D01*
X157877Y461410D01*
Y460627D01*
X158177Y459903D01*
X158730Y459350D01*
X158842Y459304D01*
Y454466D01*
X158730Y454420D01*
X158177Y453866D01*
X157877Y453142D01*
Y452359D01*
X158120Y451772D01*
X158052Y451428D01*
Y445022D01*
X157940Y444976D01*
X157386Y444422D01*
X157087Y443699D01*
Y442915D01*
X157386Y442192D01*
X157940Y441638D01*
X158664Y441339D01*
X159447D01*
X160170Y441638D01*
X160724Y442192D01*
X161024Y442915D01*
Y443699D01*
X160724Y444422D01*
X160170Y444976D01*
X160059Y445022D01*
Y450782D01*
X160237D01*
X160960Y451082D01*
X161514Y451636D01*
X161814Y452359D01*
Y453142D01*
X161514Y453866D01*
X160960Y454420D01*
X160849Y454466D01*
Y459304D01*
X160960Y459350D01*
X161514Y459903D01*
X161814Y460627D01*
Y461410D01*
X161514Y462134D01*
X160960Y462687D01*
X160237Y462987D01*
D02*
G37*
%LPD*%
G36*
X467422Y416440D02*
X467215Y415940D01*
X466782D01*
Y408066D01*
X472294D01*
Y413897D01*
X472794Y414164D01*
X472818Y414148D01*
Y396452D01*
X467720D01*
Y394165D01*
X467381Y393827D01*
X467082Y393103D01*
Y392320D01*
X467381Y391597D01*
X467720Y391258D01*
Y389956D01*
X459893D01*
Y389759D01*
X452412D01*
Y389168D01*
X450857D01*
Y397510D01*
X450961Y397614D01*
X451822D01*
Y394680D01*
X455917D01*
X456155Y394582D01*
X456938D01*
X457175Y394680D01*
X457334D01*
Y394746D01*
X457661Y394881D01*
X457818Y395038D01*
X458318Y394877D01*
Y394877D01*
X458318Y394877D01*
X466192D01*
Y400389D01*
X458318D01*
Y398270D01*
X457818Y398062D01*
X457661Y398219D01*
X457334Y398355D01*
Y402554D01*
X451822D01*
Y402554D01*
X451751Y402537D01*
X451251Y402931D01*
Y403866D01*
X451957Y404572D01*
X452175Y404897D01*
X452251Y405281D01*
Y415310D01*
X452412Y415743D01*
X460286D01*
Y417515D01*
X466348D01*
X467422Y416440D01*
D02*
G37*
%LPC*%
G36*
X458318Y411609D02*
X452806D01*
Y403735D01*
X458318D01*
Y411609D01*
D02*
G37*
%LPD*%
G36*
X166535Y366142D02*
Y348252D01*
X159409D01*
X155018Y352643D01*
Y353300D01*
X154718Y354024D01*
X154164Y354577D01*
X153441Y354877D01*
X152658D01*
X151934Y354577D01*
X151380Y354024D01*
X151081Y353300D01*
Y352517D01*
X151380Y351794D01*
X151934Y351240D01*
X152658Y350940D01*
X153315D01*
X158059Y346196D01*
X158450Y345935D01*
X158911Y345843D01*
X158911Y345843D01*
X166535D01*
Y317323D01*
X158372D01*
X158180Y317785D01*
X158242Y317846D01*
X158459Y318172D01*
X158536Y318556D01*
Y335836D01*
X159024Y336038D01*
X159578Y336592D01*
X159877Y337316D01*
Y338099D01*
X159578Y338822D01*
X159024Y339376D01*
X158300Y339676D01*
X157517D01*
X156794Y339376D01*
X156240Y338822D01*
X155940Y338099D01*
Y337316D01*
X156240Y336592D01*
X156529Y336303D01*
Y318971D01*
X154880Y317323D01*
X138105D01*
X137795Y317353D01*
X137486Y317323D01*
X133858D01*
X130315Y313779D01*
X128740Y315354D01*
X75590D01*
Y344132D01*
X75308Y344415D01*
X75499Y344877D01*
X82952D01*
Y343820D01*
X86617Y340155D01*
Y337593D01*
X89178D01*
X101772Y325000D01*
X113400D01*
Y325998D01*
X126947Y339545D01*
X129805Y336687D01*
X130131Y336469D01*
X130515Y336393D01*
X139084D01*
X139522Y335955D01*
X140246Y335655D01*
X141029D01*
X141752Y335955D01*
X142306Y336509D01*
X142606Y337232D01*
Y338016D01*
X142306Y338739D01*
X141752Y339293D01*
X141029Y339593D01*
X140246D01*
X139522Y339293D01*
X138968Y338739D01*
X138828Y338400D01*
X130930D01*
X128366Y340965D01*
X154724Y367323D01*
X165354D01*
X166535Y366142D01*
D02*
G37*
G36*
X338976Y300000D02*
X337347Y298371D01*
X314567Y298488D01*
Y342127D01*
X314684Y342302D01*
X314791Y342839D01*
Y349043D01*
X321260Y355512D01*
X338976D01*
Y300000D01*
D02*
G37*
%LPC*%
G36*
X12944Y468499D02*
X11471D01*
X10026Y468211D01*
X8664Y467648D01*
X7439Y466829D01*
X6397Y465787D01*
X5579Y464562D01*
X5015Y463201D01*
X4727Y461755D01*
Y460282D01*
X5015Y458837D01*
X5579Y457475D01*
X6397Y456250D01*
X7439Y455208D01*
X8664Y454390D01*
X10026Y453826D01*
X11471Y453538D01*
X12944D01*
X14390Y453826D01*
X15751Y454390D01*
X16976Y455208D01*
X18018Y456250D01*
X18837Y457475D01*
X19400Y458837D01*
X19688Y460282D01*
Y461755D01*
X19400Y463201D01*
X18837Y464562D01*
X18018Y465787D01*
X16976Y466829D01*
X15751Y467648D01*
X14390Y468211D01*
X12944Y468499D01*
D02*
G37*
G36*
X44095Y462987D02*
X43312D01*
X42589Y462687D01*
X42035Y462134D01*
X41735Y461410D01*
Y460627D01*
X42035Y459903D01*
X42589Y459350D01*
X42700Y459304D01*
Y454230D01*
X42777Y453846D01*
X42994Y453521D01*
X43686Y452829D01*
X44012Y452611D01*
X44396Y452535D01*
X55124D01*
X55154Y452464D01*
X55707Y451911D01*
X56431Y451611D01*
X57214D01*
X57938Y451911D01*
X58491Y452464D01*
X58791Y453188D01*
Y453971D01*
X58491Y454695D01*
X57938Y455248D01*
X57214Y455548D01*
X56431D01*
X55707Y455248D01*
X55154Y454695D01*
X55090Y454542D01*
X44811D01*
X44707Y454646D01*
Y459304D01*
X44819Y459350D01*
X45373Y459903D01*
X45672Y460627D01*
Y461410D01*
X45373Y462134D01*
X44819Y462687D01*
X44095Y462987D01*
D02*
G37*
G36*
X47185Y405900D02*
X45734D01*
X44332Y405525D01*
X43075Y404799D01*
X42049Y403773D01*
X41323Y402516D01*
X40948Y401114D01*
Y399663D01*
X41323Y398261D01*
X42049Y397004D01*
X43075Y395978D01*
X44332Y395252D01*
X45734Y394877D01*
X47185D01*
X48587Y395252D01*
X49844Y395978D01*
X50870Y397004D01*
X51596Y398261D01*
X51971Y399663D01*
Y401114D01*
X51596Y402516D01*
X50870Y403773D01*
X49844Y404799D01*
X48587Y405525D01*
X47185Y405900D01*
D02*
G37*
G36*
X8659Y368302D02*
X7882D01*
X7131Y368101D01*
X6458Y367712D01*
X5908Y367162D01*
X5519Y366489D01*
X5318Y365738D01*
Y364961D01*
X5519Y364210D01*
X5908Y363536D01*
X6458Y362986D01*
X7131Y362598D01*
X7882Y362397D01*
X8659D01*
X9410Y362598D01*
X10084Y362986D01*
X10633Y363536D01*
X11022Y364210D01*
X11223Y364961D01*
Y365738D01*
X11022Y366489D01*
X10633Y367162D01*
X10084Y367712D01*
X9410Y368101D01*
X8659Y368302D01*
D02*
G37*
%LPD*%
G36*
X48423Y405128D02*
X49582Y404458D01*
X50529Y403511D01*
X51199Y402352D01*
X51545Y401058D01*
Y399719D01*
X51199Y398426D01*
X50529Y397266D01*
X49582Y396319D01*
X48423Y395650D01*
X47129Y395303D01*
X45790D01*
X44497Y395650D01*
X43337Y396319D01*
X42390Y397266D01*
X41721Y398426D01*
X41374Y399719D01*
Y401058D01*
X41721Y402352D01*
X42390Y403511D01*
X43337Y404458D01*
X44497Y405128D01*
X45790Y405474D01*
X47129D01*
X48423Y405128D01*
D02*
G37*
%LPC*%
G36*
X8659Y341530D02*
X7882D01*
X7131Y341329D01*
X6458Y340940D01*
X5908Y340391D01*
X5519Y339717D01*
X5318Y338966D01*
Y338189D01*
X5519Y337438D01*
X5908Y336765D01*
X6458Y336215D01*
X7131Y335826D01*
X7882Y335625D01*
X8659D01*
X9410Y335826D01*
X10084Y336215D01*
X10633Y336765D01*
X11022Y337438D01*
X11223Y338189D01*
Y338966D01*
X11022Y339717D01*
X10633Y340391D01*
X10084Y340940D01*
X9410Y341329D01*
X8659Y341530D01*
D02*
G37*
G36*
X8996Y316530D02*
X7545D01*
X6143Y316155D01*
X4886Y315429D01*
X3860Y314403D01*
X3134Y313146D01*
X2759Y311744D01*
Y310293D01*
X3134Y308891D01*
X3860Y307634D01*
X4886Y306608D01*
X6143Y305882D01*
X7545Y305507D01*
X8996D01*
X10398Y305882D01*
X11655Y306608D01*
X12681Y307634D01*
X13407Y308891D01*
X13782Y310293D01*
Y311744D01*
X13407Y313146D01*
X12681Y314403D01*
X11655Y315429D01*
X10398Y316155D01*
X8996Y316530D01*
D02*
G37*
G36*
X12203Y305512D02*
X11419D01*
X10696Y305212D01*
X10142Y304658D01*
X10086Y304522D01*
X4334D01*
Y299011D01*
X12208D01*
Y301577D01*
X12926Y301874D01*
X13480Y302428D01*
X13780Y303152D01*
Y303935D01*
X13480Y304658D01*
X12926Y305212D01*
X12203Y305512D01*
D02*
G37*
G36*
X44880Y133858D02*
X44097D01*
X43373Y133559D01*
X42819Y133005D01*
X42520Y132281D01*
Y131498D01*
X42819Y130775D01*
X43288Y130306D01*
Y90379D01*
X42979Y90251D01*
X42426Y89698D01*
X42126Y88974D01*
Y88191D01*
X42426Y87468D01*
X42979Y86914D01*
X43703Y86614D01*
X44486D01*
X45210Y86914D01*
X45763Y87468D01*
X46063Y88191D01*
Y88974D01*
X45763Y89698D01*
X45295Y90166D01*
Y130093D01*
X45603Y130221D01*
X46157Y130775D01*
X46457Y131498D01*
Y132281D01*
X46157Y133005D01*
X45603Y133559D01*
X44880Y133858D01*
D02*
G37*
G36*
X51573Y152756D02*
X50789D01*
X50066Y152456D01*
X49512Y151902D01*
X49213Y151179D01*
Y150396D01*
X49503Y149696D01*
X49474Y149551D01*
Y80916D01*
X49362Y80870D01*
X48809Y80316D01*
X48509Y79593D01*
Y78809D01*
X48809Y78086D01*
X49362Y77532D01*
X50086Y77232D01*
X50869D01*
X51592Y77532D01*
X52146Y78086D01*
X52446Y78809D01*
Y79593D01*
X52146Y80316D01*
X51592Y80870D01*
X51481Y80916D01*
Y148819D01*
X51573D01*
X52296Y149119D01*
X52850Y149672D01*
X53150Y150396D01*
Y151179D01*
X52850Y151902D01*
X52296Y152456D01*
X51573Y152756D01*
D02*
G37*
G36*
X40549Y129921D02*
X39766D01*
X39042Y129622D01*
X38489Y129068D01*
X38189Y128344D01*
Y127561D01*
X38489Y126838D01*
X39042Y126284D01*
X39154Y126238D01*
Y40298D01*
X39042Y40251D01*
X38489Y39698D01*
X38189Y38974D01*
Y38191D01*
X38489Y37468D01*
X39042Y36914D01*
X39766Y36614D01*
X40549D01*
X41273Y36914D01*
X41826Y37468D01*
X42126Y38191D01*
Y38974D01*
X41826Y39698D01*
X41273Y40251D01*
X41161Y40298D01*
Y126238D01*
X41273Y126284D01*
X41826Y126838D01*
X42126Y127561D01*
Y128344D01*
X41826Y129068D01*
X41273Y129622D01*
X40549Y129921D01*
D02*
G37*
%LPD*%
D11*
X132677Y137008D02*
Y156693D01*
X307480Y55766D02*
X308661Y56948D01*
X135039Y37008D02*
Y37402D01*
X461856Y409449D02*
X462255Y409050D01*
X147410Y36455D02*
X160864D01*
X163386Y38976D01*
X8271Y290349D02*
X9250Y289370D01*
X26772D01*
X308661Y56948D02*
Y57480D01*
X276969Y25197D02*
X281890D01*
X276575Y25591D02*
X276969Y25197D01*
X307480D02*
Y55766D01*
X203920Y18881D02*
X206479D01*
X210433Y22835D02*
Y24016D01*
X206479Y18881D02*
X210433Y22835D01*
X203543Y18504D02*
X203920Y18881D01*
X99618Y27047D02*
X115333D01*
X70080Y291138D02*
Y354329D01*
Y291138D02*
X70081Y291137D01*
X117184Y25197D02*
X117717D01*
X70079Y354331D02*
X70080Y354329D01*
X125591Y27165D02*
Y27559D01*
X115333Y27047D02*
X117184Y25197D01*
X460630Y409449D02*
X461856D01*
X125591Y27559D02*
X135039Y37008D01*
X274806Y356951D02*
X275590Y357735D01*
X274806Y321649D02*
Y356951D01*
X275590Y357735D02*
Y358268D01*
X159055Y451428D02*
X159845Y452218D01*
Y461019D01*
X159055Y443307D02*
Y451428D01*
X87208Y384050D02*
X183539D01*
X191217Y376373D02*
X245082D01*
X183539Y384050D02*
X191217Y376373D01*
X10743Y236325D02*
X43704Y269286D01*
Y380310D01*
X59842Y214783D02*
Y235039D01*
Y214783D02*
X63979Y210646D01*
Y209956D02*
Y210646D01*
X157532Y318556D02*
Y337331D01*
X152168Y313192D02*
X157532Y318556D01*
X152168Y305296D02*
Y313192D01*
X157532Y337331D02*
X157909Y337707D01*
X307618Y233495D02*
X307756Y233633D01*
X307618Y216280D02*
Y233495D01*
X485042Y364998D02*
X485877Y365833D01*
X432483Y330507D02*
Y348617D01*
X432286Y330310D02*
X432483Y330507D01*
X211338Y106773D02*
X211417Y106693D01*
X198425Y273622D02*
X206538Y265509D01*
X223425Y173819D02*
Y196971D01*
X390175Y46474D02*
Y129545D01*
X389764Y46063D02*
X390175Y46474D01*
Y129545D02*
X390551Y129921D01*
X379134Y47244D02*
Y174803D01*
X419258Y172269D02*
X420472Y173483D01*
X419258Y145118D02*
Y172269D01*
X420472Y173483D02*
Y174016D01*
X325590Y145236D02*
Y175591D01*
X325277Y144922D02*
X325590Y145236D01*
X375590Y114961D02*
Y154331D01*
Y114961D02*
X375984Y114567D01*
X303937Y135039D02*
Y203941D01*
X307874Y207878D01*
X314838Y124681D02*
X315354Y125197D01*
X314838Y99157D02*
Y124681D01*
X328150Y61839D02*
X331890Y65579D01*
X225590Y175273D02*
Y198425D01*
X225984Y28346D02*
Y174879D01*
X331890Y65579D02*
Y84646D01*
X225590Y175273D02*
X225984Y174879D01*
X328150Y43305D02*
X328740Y42714D01*
X219291Y24016D02*
Y44882D01*
X263779Y74016D02*
X270866Y81102D01*
X263779Y69685D02*
Y74016D01*
X302165Y37205D02*
Y58465D01*
X302362Y58661D01*
X301969Y37008D02*
X302165Y37205D01*
X265748Y88583D02*
X270079Y92913D01*
Y179921D01*
X298228Y54192D02*
Y54724D01*
Y54192D02*
X298819Y53601D01*
Y53543D02*
Y53601D01*
X298425Y53150D02*
X298819Y53543D01*
X298425Y18504D02*
Y53150D01*
X283465Y53543D02*
Y188583D01*
X278346Y193701D02*
X283465Y188583D01*
X420472Y174016D02*
Y220079D01*
X412205Y184252D02*
Y210630D01*
X259522Y25835D02*
X261434D01*
X258071Y27286D02*
Y153740D01*
X261434Y25835D02*
X261811Y25459D01*
X258071Y27286D02*
X259522Y25835D01*
X257874Y153937D02*
X258071Y153740D01*
X250012Y170043D02*
X262303Y157752D01*
Y92913D02*
Y157752D01*
X246732Y174614D02*
X247971D01*
X250012Y172574D01*
Y170043D02*
Y172574D01*
X239712Y180395D02*
X243931Y184614D01*
X233465Y176378D02*
X237482Y180395D01*
X243931Y184614D02*
X246732D01*
X237482Y180395D02*
X239712D01*
X208268Y65354D02*
Y175984D01*
X208661Y176378D01*
X211258Y156181D02*
X211338Y156101D01*
Y106773D02*
Y156101D01*
X206538Y213858D02*
X223425Y196971D01*
X201181Y53150D02*
Y72244D01*
X200984Y72441D02*
X201181Y72244D01*
X221654Y118110D02*
X222441Y118898D01*
X221654Y119291D02*
X222047Y118898D01*
X222441D01*
X221654Y68504D02*
Y118110D01*
X198425Y33071D02*
Y114173D01*
X201575Y117323D01*
X190157Y125984D02*
X191339Y127165D01*
X190157Y115748D02*
Y125984D01*
X195276Y53150D02*
Y63779D01*
X328740Y27559D02*
Y42714D01*
X328150Y43305D02*
Y61839D01*
X166929Y70079D02*
X170472Y73622D01*
X166929Y60630D02*
Y70079D01*
X172835Y74879D02*
Y80963D01*
Y72365D02*
X173031Y72562D01*
X172835Y54602D02*
Y72365D01*
X173031Y72562D02*
Y74682D01*
X172835Y74879D02*
X173031Y74682D01*
X180709Y100000D02*
Y122835D01*
Y100000D02*
X181102Y99606D01*
X201575Y117323D02*
Y216535D01*
X230709Y118898D02*
Y140551D01*
X230589Y140671D02*
X230709Y140551D01*
X379134Y174803D02*
X398425Y194095D01*
X415751Y300389D02*
Y325192D01*
X307677Y208075D02*
Y215945D01*
Y208075D02*
X307874Y207878D01*
X472835Y10236D02*
Y224410D01*
X206538Y213858D02*
Y265509D01*
X44291Y131693D02*
X44488Y131890D01*
X44094Y88583D02*
X44291Y88779D01*
X62992Y119291D02*
Y158268D01*
X63779Y159055D01*
X40157Y38583D02*
Y127953D01*
X44291Y88779D02*
Y131693D01*
X51181Y150255D02*
Y150787D01*
X58268Y79528D02*
Y208661D01*
X50477Y79201D02*
Y149551D01*
X51181Y150255D01*
X58268Y79528D02*
X58661Y79134D01*
X68110Y122441D02*
X68504Y122835D01*
X68110Y111417D02*
Y122441D01*
X180709Y122835D02*
Y133071D01*
X179921Y133858D02*
X180709Y133071D01*
X307480Y216142D02*
X307677Y215945D01*
X307756Y233633D02*
Y256299D01*
X258488Y233292D02*
Y241437D01*
X307480Y216142D02*
X307618Y216280D01*
X258268Y233071D02*
X258488Y233292D01*
Y241437D02*
X258709Y241657D01*
X92663Y222298D02*
X93557D01*
X92520Y222441D02*
X92663Y222298D01*
X93701Y222441D02*
X94882Y221260D01*
X93557Y222298D02*
X93701Y222441D01*
X94882Y198031D02*
Y221260D01*
X152680Y48690D02*
Y54763D01*
X172714Y54069D02*
X174029Y52754D01*
X172714Y54069D02*
Y54602D01*
X152680Y54763D02*
X152756Y54839D01*
X129528Y38976D02*
Y49213D01*
X174029Y36905D02*
Y52754D01*
X152680Y48690D02*
X152756Y48614D01*
Y39764D02*
Y48614D01*
X172835Y80963D02*
X173622Y81751D01*
Y82284D01*
X127650Y21260D02*
X196457D01*
X110248Y38662D02*
X127650Y21260D01*
X122512Y17047D02*
X122630Y16929D01*
X197340D01*
X7480Y59055D02*
X64346Y2190D01*
X152756Y39764D02*
X153150Y39370D01*
X129528Y38976D02*
X129921Y38583D01*
X244522Y46574D02*
X246562Y48614D01*
X64346Y2190D02*
X203447D01*
X246562Y48614D02*
X246732D01*
X203447Y2190D02*
X244522Y43265D01*
X198031Y7677D02*
Y16237D01*
X197340Y16929D02*
X198031Y16237D01*
X244522Y43265D02*
Y46574D01*
X78740Y101181D02*
Y112205D01*
X78740Y101181D02*
X78740Y101181D01*
X130345Y62629D02*
Y76485D01*
X89370Y60630D02*
Y76378D01*
X130315Y62598D02*
X130345Y62629D01*
X389764Y46063D02*
X399843Y35984D01*
Y23386D02*
Y35984D01*
X333858Y45669D02*
X343937Y35590D01*
Y21811D02*
Y35590D01*
X79618Y12508D02*
X79921Y12205D01*
X79618Y12508D02*
Y17047D01*
Y27047D01*
X69618Y17047D02*
Y27047D01*
X422441Y288485D02*
Y336606D01*
X426775Y340940D01*
X436902Y224614D02*
X438943Y226655D01*
Y288017D01*
X436732Y224614D02*
X436902D01*
X438943Y288017D02*
X440945Y290019D01*
Y290551D01*
X468898Y6299D02*
X472835Y10236D01*
X153937Y129782D02*
Y130315D01*
X152362Y88583D02*
Y128208D01*
X153937Y129782D01*
X65160Y208774D02*
X65851D01*
X63979Y209956D02*
X65160Y208774D01*
X1969Y180785D02*
Y219851D01*
X2348Y220230D01*
X1969Y180785D02*
X7483Y175271D01*
X2348Y220230D02*
Y259828D01*
X9058Y234641D02*
Y235354D01*
X183071Y274016D02*
Y284646D01*
Y274016D02*
X183465Y273622D01*
X433861Y395183D02*
Y457869D01*
X9058Y235354D02*
X10029Y236325D01*
X10743D01*
X335928Y434556D02*
Y442858D01*
X156696Y296649D02*
Y300768D01*
Y296058D02*
Y296649D01*
X130515Y337397D02*
X140865D01*
X7877Y255507D02*
X15121D01*
X432483Y348617D02*
X432680Y348814D01*
X398034Y329916D02*
X404334D01*
X344097Y417572D02*
Y418105D01*
X342916Y322042D02*
Y416391D01*
X344097Y417572D01*
X354122Y317107D02*
Y377554D01*
X353940Y316924D02*
X354122Y317107D01*
X257680Y361412D02*
Y363774D01*
X152168Y305296D02*
X156696Y300768D01*
X140637Y337624D02*
X140865Y337397D01*
X120082Y347830D02*
X130515Y337397D01*
X117129Y349601D02*
Y350782D01*
Y349601D02*
X118901Y347830D01*
X120082D01*
X394491Y351126D02*
Y398617D01*
X217326Y368893D02*
X217720Y368499D01*
Y331491D02*
Y368499D01*
X179924Y329916D02*
X181105Y331097D01*
X349216Y336215D02*
Y366137D01*
X180366Y331114D02*
X181088D01*
X181105Y331097D01*
X179924Y285034D02*
Y329916D01*
X410104Y324810D02*
Y342379D01*
Y299737D02*
Y324810D01*
X401578Y342515D02*
X410104D01*
X401184Y342121D02*
X401578Y342515D01*
X394097Y342121D02*
X401184D01*
X384255Y342515D02*
X384649Y342121D01*
X384255Y342515D02*
Y355901D01*
X394491Y351126D02*
X397149Y348468D01*
Y348129D02*
Y348468D01*
X162601Y267711D02*
Y285428D01*
X149609Y268499D02*
Y293696D01*
X78349Y401431D02*
X79137Y402218D01*
Y402751D01*
X78349Y350389D02*
Y401431D01*
X82680Y379523D02*
X87208Y384050D01*
X31105Y271491D02*
Y365743D01*
X15121Y255507D02*
X31105Y271491D01*
X245082Y376373D02*
X257680Y363774D01*
X246853Y355704D02*
X248034D01*
X251971Y359641D02*
X255908D01*
X257680Y361412D01*
X248034Y355704D02*
X251971Y359641D01*
X482483Y400536D02*
Y406233D01*
X484302Y408052D02*
Y417195D01*
X480712Y420785D02*
Y432278D01*
Y420785D02*
X484302Y417195D01*
X482483Y406233D02*
X484302Y408052D01*
X485436Y419147D02*
Y419680D01*
X485042Y311412D02*
Y364998D01*
X485436Y419147D02*
X485877Y418707D01*
X487995Y382041D02*
Y426170D01*
X484832Y437261D02*
X490554Y431539D01*
Y360625D02*
Y431539D01*
X487798Y381844D02*
X487995Y382041D01*
X482830Y431335D02*
X487995Y426170D01*
X405908Y346710D02*
Y383853D01*
Y346710D02*
X410104Y342515D01*
X415751Y325192D02*
Y351963D01*
X468901Y328341D02*
Y350389D01*
Y323223D02*
X469097Y323026D01*
Y302160D02*
X469294Y301963D01*
X469097Y302160D02*
Y323026D01*
X475987Y289759D02*
Y380666D01*
Y289759D02*
X478743Y287003D01*
X485877Y365833D02*
Y418707D01*
X470082Y277554D02*
Y301272D01*
X403153Y374011D02*
Y395664D01*
X388979Y343696D02*
X389767Y344483D01*
Y412200D01*
X414964Y377554D02*
X415365D01*
X445611Y375782D02*
X450532Y380704D01*
X439373Y318499D02*
Y365349D01*
X449853Y385231D02*
Y397925D01*
X449871Y401101D02*
X450248Y401477D01*
Y404281D01*
X438979Y405113D02*
Y419286D01*
X450545Y398617D02*
X454578D01*
X449853Y397925D02*
X450545Y398617D01*
X438192Y420074D02*
X438979Y419286D01*
X466447Y381083D02*
X466979D01*
X431620Y375782D02*
X445611D01*
X429727Y377675D02*
X431620Y375782D01*
X470082Y370074D02*
Y378341D01*
X475594Y420962D02*
Y436535D01*
X475610Y419663D02*
Y420945D01*
X475594Y420962D02*
X475610Y420945D01*
X473822Y388381D02*
Y415017D01*
X471225Y385784D02*
X473822Y388381D01*
X473231Y417834D02*
Y429584D01*
X468453Y416829D02*
X472010D01*
X475610Y419663D02*
X475987Y419286D01*
X473231Y417834D02*
X475987Y415078D01*
Y380704D02*
X476025Y380666D01*
X472010Y416829D02*
X473822Y415017D01*
X475987Y380704D02*
Y415078D01*
X462657Y419952D02*
X465329D01*
X474771Y437358D02*
X475594Y436535D01*
X465329Y419952D02*
X468453Y416829D01*
X452759Y450056D02*
X473231Y429584D01*
X474771Y437358D02*
Y437890D01*
X452759Y450056D02*
Y463850D01*
X482188Y431335D02*
X482830D01*
X481244Y432278D02*
X482188Y431335D01*
X454727Y354719D02*
X470082Y370074D01*
X451184Y379129D02*
X453275D01*
X453686Y379540D02*
X455335D01*
X455712Y379916D01*
X427835Y379719D02*
X429727Y377827D01*
X417531Y379719D02*
X427835D01*
X453275Y379129D02*
X453686Y379540D01*
X450003Y372830D02*
Y377948D01*
X451184Y379129D01*
X433861Y317711D02*
X438586D01*
X439373Y318499D01*
X450030Y346076D02*
Y372803D01*
X450003Y372830D02*
X450030Y372803D01*
Y346076D02*
X450057Y346049D01*
X390554Y322436D02*
X398034Y329916D01*
X465054Y382475D02*
X466447Y381083D01*
X415365Y377554D02*
X417531Y379719D01*
X450532Y380704D02*
X452623D01*
X429727Y377675D02*
Y377827D01*
X454395Y382475D02*
X465054D01*
X452623Y380704D02*
X454395Y382475D01*
X389767Y412200D02*
X392916Y415349D01*
X383074Y399266D02*
Y409050D01*
Y393696D02*
Y399266D01*
X366837Y399208D02*
X383015D01*
X383074Y399266D01*
X400200Y432316D02*
X400790Y431726D01*
Y412987D02*
Y431726D01*
X400200Y432316D02*
Y435625D01*
X417990Y417711D02*
X420475D01*
X417869Y417591D02*
X417990Y417711D01*
X420475D02*
X427562Y424798D01*
X414570Y390153D02*
Y423519D01*
X427168Y395664D02*
Y412200D01*
X409845Y405900D02*
X410090Y405656D01*
Y371405D02*
Y405656D01*
Y371405D02*
X410334Y371161D01*
X410239Y370074D02*
X410595Y369718D01*
X410239Y371066D02*
X410334Y371161D01*
X410239Y370074D02*
Y371066D01*
X410595Y360271D02*
Y369718D01*
X433861Y379523D02*
Y395183D01*
X366538Y414562D02*
Y421937D01*
X450248Y404281D02*
X451248Y405281D01*
X448279Y419801D02*
X451248Y416832D01*
Y405281D02*
Y416832D01*
X479924Y343696D02*
Y386609D01*
X432680Y378341D02*
Y378341D01*
X433861Y379523D01*
X448279Y419801D02*
Y434014D01*
X449216Y439585D02*
X450838Y437963D01*
X445003Y437289D02*
X448279Y434014D01*
X450838Y420861D02*
Y437963D01*
X480712Y432278D02*
X481244D01*
X487798Y337003D02*
Y381844D01*
X448822Y463520D02*
X450200Y464898D01*
X448822Y462987D02*
Y463520D01*
X480318Y446452D02*
X488389Y454523D01*
X454379Y469090D02*
X483892D01*
X450200Y464898D02*
Y464910D01*
X449216Y439585D02*
Y456688D01*
X383074Y409050D02*
Y423617D01*
X387798Y428341D01*
X400162Y435663D02*
X400200Y435625D01*
X450200Y464910D02*
X454379Y469090D01*
X483892D02*
X488389Y464592D01*
Y454523D02*
Y464592D01*
X420082Y447867D02*
Y470861D01*
Y429523D02*
Y447867D01*
Y470861D02*
X420475Y471255D01*
X366145Y398516D02*
X366837Y399208D01*
X366145Y392908D02*
Y398516D01*
X366538Y421937D02*
X366643Y422042D01*
X335928Y434556D02*
X336617Y433867D01*
Y422042D02*
Y433867D01*
X98343Y395973D02*
X98822Y396452D01*
X98343Y395973D02*
X98948D01*
X98822Y396452D02*
Y427554D01*
X81105Y430310D02*
Y449995D01*
X94491Y426767D02*
Y460625D01*
X98822Y427554D02*
Y468893D01*
X70082Y453538D02*
Y460625D01*
X56781Y453538D02*
X56822Y453580D01*
X44396Y453538D02*
X56781D01*
X43704Y454230D02*
Y461019D01*
Y454230D02*
X44396Y453538D01*
X0Y0D02*
X3Y3D01*
D14*
X165912Y310860D02*
X165916Y310864D01*
X165912Y255787D02*
Y310860D01*
X165916Y312766D02*
X166142Y312992D01*
X165916Y310864D02*
Y312766D01*
X261620Y431982D02*
X261826Y432188D01*
X287557D02*
X287763Y432394D01*
X261826Y432188D02*
X287557D01*
X312992Y384326D02*
X313386Y383932D01*
Y342839D02*
Y383932D01*
X311811Y341265D02*
X313386Y342839D01*
X311811Y340945D02*
Y341265D01*
X302043Y453937D02*
X304011Y455905D01*
X200787Y453937D02*
X302043D01*
X201181Y389368D02*
Y400394D01*
Y389368D02*
X207483Y383066D01*
X312992Y384326D02*
Y384646D01*
X304011Y455905D02*
X304331D01*
X168507Y365349D02*
X168507D01*
X168113Y369164D02*
Y369483D01*
X168507Y365349D02*
Y368770D01*
X430515Y423575D02*
Y436488D01*
X392339Y438756D02*
X405732D01*
X417323Y410383D02*
X430515Y423575D01*
X405732Y438756D02*
X413779Y430709D01*
X417323Y399606D02*
Y410383D01*
X50787Y225197D02*
Y309842D01*
X42126Y216535D02*
X50787Y225197D01*
X164961Y254835D02*
X165912Y255787D01*
X170863Y238268D02*
X172047Y237084D01*
Y224410D02*
Y237084D01*
X164961Y238976D02*
Y254835D01*
X170863Y238268D02*
Y238588D01*
X168113Y369164D02*
X168507Y368770D01*
X211263Y246255D02*
X217370Y252362D01*
X239370D01*
X270515Y441535D02*
X296260D01*
X301570Y446845D01*
X299279Y449606D02*
X299976Y450303D01*
X268504Y449606D02*
X299279D01*
X299976Y450303D02*
X359611D01*
X360313Y449601D02*
X360633D01*
X359611Y450303D02*
X360313Y449601D01*
X270318Y441339D02*
X270515Y441535D01*
X301570Y446845D02*
X346853D01*
X218504Y124803D02*
Y173622D01*
X309842Y72835D02*
Y163643D01*
X308928Y164558D02*
X309842Y163643D01*
X223425Y133465D02*
Y156299D01*
X308928Y164558D02*
Y164877D01*
X218504Y180737D02*
X219657Y181890D01*
X218504Y173622D02*
Y180737D01*
X219657Y181890D02*
X219685D01*
X87138Y162335D02*
Y252762D01*
X86614Y161811D02*
X87138Y162335D01*
X178150Y213189D02*
Y233268D01*
X178347Y233465D01*
X177953Y212992D02*
X178150Y213189D01*
X250394Y254331D02*
X301969Y305906D01*
X250394Y233858D02*
Y254331D01*
X486614Y38189D02*
Y105118D01*
X187964Y335749D02*
X190554Y338339D01*
X187964Y313386D02*
Y335749D01*
X190554Y338339D02*
Y369754D01*
X118794Y312992D02*
X118898D01*
X115644Y309842D02*
X118794Y312992D01*
X75590Y309842D02*
X115644D01*
X50394Y205118D02*
Y211885D01*
X50787Y212279D02*
Y212598D01*
X50394Y211885D02*
X50787Y212279D01*
X72835Y216929D02*
X74016Y215748D01*
Y197638D02*
Y215748D01*
X102136Y201801D02*
X102362Y201575D01*
X101578Y224404D02*
X102136Y223846D01*
Y201801D02*
Y223846D01*
X158782Y222714D02*
X159449Y222047D01*
X159295Y222027D02*
X159428D01*
X159449Y222047D01*
X158782Y222714D02*
Y246255D01*
X144488Y246850D02*
Y266929D01*
Y246850D02*
X144882Y246457D01*
X178347Y247244D02*
Y278346D01*
Y247244D02*
X179528Y246063D01*
X182680Y267711D02*
X187213D01*
X188366Y268865D01*
X190554Y369754D02*
X192129Y371329D01*
Y371649D01*
X188366Y268865D02*
Y278871D01*
X170082Y267711D02*
Y294877D01*
X25987Y333853D02*
Y386609D01*
X88586D02*
Y411412D01*
X87798Y420861D02*
X88586Y421649D01*
Y448814D01*
X72050Y424798D02*
X72247Y424995D01*
Y446649D01*
D47*
X171263Y375192D02*
D03*
Y363774D02*
D03*
X123231Y277357D02*
D03*
Y265940D02*
D03*
X81893Y226808D02*
D03*
Y215391D02*
D03*
D49*
X463830Y387200D02*
D03*
Y375782D02*
D03*
Y420271D02*
D03*
Y431688D02*
D03*
X8271Y301767D02*
D03*
Y290349D02*
D03*
X237404Y355901D02*
D03*
Y344483D02*
D03*
X246853Y355704D02*
D03*
Y344286D02*
D03*
X161814Y375389D02*
D03*
Y363971D02*
D03*
X156696Y308066D02*
D03*
Y296649D02*
D03*
X66932Y196767D02*
D03*
Y208184D02*
D03*
X462255Y409050D02*
D03*
Y397633D02*
D03*
X456349Y387003D02*
D03*
Y375586D02*
D03*
X331893Y431294D02*
D03*
Y442711D02*
D03*
X179921Y145276D02*
D03*
Y133858D02*
D03*
X456349Y429916D02*
D03*
Y418499D02*
D03*
D62*
X325277Y104922D02*
D03*
X365591Y144923D02*
D03*
X325277Y74922D02*
D03*
X365591Y74923D02*
D03*
X325277Y84922D02*
D03*
X365591Y84923D02*
D03*
X325277Y94922D02*
D03*
X365591Y94923D02*
D03*
Y104923D02*
D03*
X325277Y114922D02*
D03*
Y124922D02*
D03*
X365591Y124923D02*
D03*
X325277Y134922D02*
D03*
X365591Y134923D02*
D03*
Y114923D02*
D03*
D63*
X399843Y23386D02*
D03*
X409842Y33386D02*
D03*
X353937Y31811D02*
D03*
X343937Y21811D02*
D03*
D64*
X409842Y13386D02*
D03*
X353937Y11811D02*
D03*
D65*
X345433Y82401D02*
D03*
D66*
X325277Y144922D02*
D03*
D67*
X8268Y153543D02*
D03*
X224412Y376373D02*
D03*
X300397Y418105D02*
D03*
X474409Y253543D02*
D03*
X46460Y400389D02*
D03*
X244885Y335428D02*
D03*
X155118Y183858D02*
D03*
X333858Y45669D02*
D03*
X8271Y311019D02*
D03*
X153153Y376767D02*
D03*
X158782Y246255D02*
D03*
X194491Y310625D02*
D03*
X114964Y254326D02*
D03*
X421263Y289365D02*
D03*
X101578Y224404D02*
D03*
X327168Y462200D02*
D03*
X78740Y112205D02*
D03*
X78347Y151181D02*
D03*
X78347Y131890D02*
D03*
X78740Y170079D02*
D03*
X389764Y46063D02*
D03*
X96853Y378341D02*
D03*
D68*
X108271Y402357D02*
D03*
X183106Y402325D02*
D03*
D69*
X108271Y471255D02*
D03*
X183106Y471223D02*
D03*
D70*
X7483Y215271D02*
D03*
Y225271D02*
D03*
Y235271D02*
D03*
Y245271D02*
D03*
Y255271D02*
D03*
Y205271D02*
D03*
Y195271D02*
D03*
Y185271D02*
D03*
Y175271D02*
D03*
X7480Y79055D02*
D03*
Y89055D02*
D03*
Y99055D02*
D03*
Y109055D02*
D03*
Y119055D02*
D03*
Y69055D02*
D03*
Y59055D02*
D03*
X286614Y342756D02*
D03*
X99618Y27047D02*
D03*
X89618D02*
D03*
X99618Y17047D02*
D03*
X89618D02*
D03*
X79618Y27047D02*
D03*
Y17047D02*
D03*
X69618Y27047D02*
D03*
Y17047D02*
D03*
X59618Y27047D02*
D03*
X211263Y246255D02*
D03*
X244882Y434921D02*
D03*
X214173Y425315D02*
D03*
X338976Y283228D02*
D03*
X308268Y343032D02*
D03*
D71*
X7483Y265271D02*
D03*
X7480Y129055D02*
D03*
X286614Y352756D02*
D03*
X59618Y17047D02*
D03*
X244882Y424921D02*
D03*
X214173Y435315D02*
D03*
X338976Y273228D02*
D03*
X308268Y353031D02*
D03*
D72*
X307756Y256299D02*
D03*
D73*
X297756D02*
D03*
D74*
X57877Y370074D02*
D03*
D75*
Y350389D02*
D03*
D76*
X436732Y84614D02*
D03*
X246732Y224614D02*
D03*
Y138614D02*
D03*
X436732Y174614D02*
D03*
D77*
Y94614D02*
D03*
Y104614D02*
D03*
Y114614D02*
D03*
Y124614D02*
D03*
Y134614D02*
D03*
Y144614D02*
D03*
Y154614D02*
D03*
Y184614D02*
D03*
Y194614D02*
D03*
Y204614D02*
D03*
Y214614D02*
D03*
Y224614D02*
D03*
X246732Y214614D02*
D03*
Y204614D02*
D03*
Y194614D02*
D03*
Y184614D02*
D03*
Y174614D02*
D03*
Y164614D02*
D03*
Y154614D02*
D03*
Y128614D02*
D03*
Y118614D02*
D03*
Y108614D02*
D03*
Y98614D02*
D03*
Y88614D02*
D03*
Y78614D02*
D03*
Y68614D02*
D03*
Y58614D02*
D03*
Y48614D02*
D03*
D78*
X221263Y246255D02*
D03*
D84*
X108271Y471255D02*
X112598Y466927D01*
Y406829D02*
Y466927D01*
X108271Y402501D02*
X112598Y406829D01*
X108271Y402357D02*
Y402501D01*
X133465Y5143D02*
Y13410D01*
X69618Y8071D02*
Y17047D01*
D85*
X182283Y338583D02*
X185208Y335658D01*
Y288790D02*
X192129Y281870D01*
X158911Y347047D02*
X181890D01*
X182283Y342717D02*
X183661Y344094D01*
X185208Y288790D02*
Y335658D01*
X183661Y344094D02*
Y345276D01*
X192129Y235428D02*
Y281870D01*
X153049Y352909D02*
X158911Y347047D01*
X181890D02*
X183661Y345276D01*
X7090Y245664D02*
X12601D01*
X456299Y70866D02*
X457087Y71653D01*
Y125197D01*
X426772Y59449D02*
Y217677D01*
X412859Y231589D02*
X426772Y217677D01*
X122441Y53543D02*
Y61024D01*
X113779Y69685D02*
X122441Y61024D01*
X182283Y338583D02*
Y342717D01*
X38192Y271255D02*
Y354326D01*
X12601Y245664D02*
X38192Y271255D01*
X87011Y361019D02*
X137405D01*
X153153Y376767D01*
X412859Y231589D02*
Y354011D01*
X418507Y348223D02*
X426971D01*
X427168Y348026D01*
X418310Y348420D02*
X418507Y348223D01*
X419079Y360231D02*
X430712D01*
X412859Y354011D02*
X419079Y360231D01*
X426775Y368105D02*
Y377160D01*
X445279Y415317D02*
Y428735D01*
X446824Y390627D02*
Y401952D01*
X447688Y402815D02*
Y412908D01*
X446824Y401952D02*
X447688Y402815D01*
X445279Y415317D02*
X447688Y412908D01*
D87*
X253150Y416010D02*
Y430028D01*
X248256Y434921D02*
X253150Y430028D01*
X227691Y390551D02*
X253150Y416010D01*
X244882Y434921D02*
X248256D01*
X326378Y311024D02*
Y348425D01*
Y351184D01*
X244882Y423740D02*
Y424921D01*
X231772Y410630D02*
X244882Y423740D01*
X216929Y410630D02*
X231772D01*
X140691Y435685D02*
X213803D01*
X214173Y435315D01*
Y425315D02*
X216929Y422559D01*
Y410630D02*
Y422559D01*
X325596Y351966D02*
Y354325D01*
X325197Y354724D02*
X325596Y354325D01*
Y351966D02*
X326378Y351184D01*
X188077Y410630D02*
X208268D01*
X175984Y422723D02*
X188077Y410630D01*
X175984Y422723D02*
Y433858D01*
X213779Y256299D02*
Y291517D01*
X253940Y337798D02*
X261417Y345276D01*
X214567Y390551D02*
X227691D01*
X59618Y17047D02*
Y27047D01*
X146543Y335178D02*
Y354754D01*
X127953Y318110D02*
Y325197D01*
X146543Y354754D02*
X155760Y363971D01*
X136562Y325197D02*
X146543Y335178D01*
X62601Y374011D02*
Y442515D01*
X213779Y291517D02*
X253940Y331677D01*
Y337798D01*
X261417Y345276D02*
Y349213D01*
X8897Y195271D02*
X33071Y171097D01*
X22835Y69685D02*
X33071Y79921D01*
Y171097D01*
X170869Y363381D02*
X171263Y363774D01*
X163966Y363381D02*
X170869D01*
X127953Y325197D02*
X136562D01*
X7483Y195271D02*
X8897D01*
X50394Y36272D02*
Y69685D01*
Y36272D02*
X59618Y27047D01*
X122908Y209388D02*
X123668Y210149D01*
X122908Y193758D02*
Y209388D01*
X138976Y216535D02*
X167323Y188189D01*
X138976Y216535D02*
Y262619D01*
X124238Y277357D02*
X138976Y262619D01*
X123231Y277357D02*
X124238D01*
X171263Y363774D02*
X174798D01*
X185827Y374803D01*
X155760Y363971D02*
X161814D01*
X118701Y329528D02*
X123622D01*
X127953Y325197D01*
X118701Y328915D02*
Y329528D01*
X78153Y340721D02*
X97220Y321654D01*
X111440D01*
X118701Y328915D01*
X78153Y340721D02*
Y341727D01*
X58664Y362987D02*
Y370074D01*
X13839Y439505D02*
X42361Y468027D01*
X62970D01*
X58664Y370074D02*
X62601Y374011D01*
X62995Y442908D02*
Y468002D01*
X5515Y439505D02*
X13839D01*
X62970Y468027D02*
X62995Y468002D01*
X62601Y442515D02*
X62995Y442908D01*
D88*
X142518Y433858D02*
X175984D01*
X138192Y438184D02*
X142518Y433858D01*
X138192Y442515D02*
X138586Y442121D01*
X138192Y442515D02*
Y451570D01*
X74016Y234434D02*
Y257238D01*
X110903Y284131D02*
X137795Y311024D01*
X100908Y284131D02*
X110903D01*
X74016Y257238D02*
X100908Y284131D01*
D92*
X229766Y38025D02*
D03*
X483702Y286057D02*
D03*
X489608Y274246D02*
D03*
X483702Y262435D02*
D03*
X489608Y250624D02*
D03*
X483702Y238813D02*
D03*
X489608Y227002D02*
D03*
X483702Y215191D02*
D03*
X489608Y203380D02*
D03*
X483702Y191569D02*
D03*
X489608Y179757D02*
D03*
X483702Y167947D02*
D03*
X489608Y156135D02*
D03*
X483702Y144325D02*
D03*
X489608Y132513D02*
D03*
X483702Y120702D02*
D03*
X489608Y108891D02*
D03*
X483702Y26214D02*
D03*
X489608Y14403D02*
D03*
X483702Y2592D02*
D03*
X471891Y451411D02*
D03*
X477797Y274246D02*
D03*
X471891Y262435D02*
D03*
Y238813D02*
D03*
X477797Y227002D02*
D03*
Y203380D02*
D03*
Y179757D02*
D03*
Y156135D02*
D03*
Y132513D02*
D03*
Y108891D02*
D03*
Y85269D02*
D03*
Y61647D02*
D03*
Y38025D02*
D03*
X471891Y2592D02*
D03*
X465986Y274246D02*
D03*
X460080Y262435D02*
D03*
X465986Y250624D02*
D03*
X460080Y238813D02*
D03*
Y215191D02*
D03*
X465986Y203380D02*
D03*
X460080Y191569D02*
D03*
X465986Y179757D02*
D03*
X460080Y167947D02*
D03*
X465986Y156135D02*
D03*
X460080Y144325D02*
D03*
X465986Y132513D02*
D03*
X460080Y120702D02*
D03*
X465986Y108891D02*
D03*
X460080Y97080D02*
D03*
X465986Y85269D02*
D03*
X460080Y73458D02*
D03*
X465986Y61647D02*
D03*
X460080Y26214D02*
D03*
X465986Y14403D02*
D03*
X460080Y2592D02*
D03*
X448269Y333301D02*
D03*
Y309679D02*
D03*
X454175Y274246D02*
D03*
X448269Y262435D02*
D03*
X454175Y250624D02*
D03*
X448269Y238813D02*
D03*
Y215191D02*
D03*
X454175Y203380D02*
D03*
X448269Y191569D02*
D03*
X454175Y179757D02*
D03*
X448269Y167947D02*
D03*
X454175Y156135D02*
D03*
X448269Y144325D02*
D03*
X454175Y132513D02*
D03*
X448269Y120702D02*
D03*
X454175Y108891D02*
D03*
X448269Y97080D02*
D03*
X454175Y85269D02*
D03*
X448269Y73458D02*
D03*
X454175Y61647D02*
D03*
X448269Y49836D02*
D03*
X454175Y38025D02*
D03*
X448269Y26214D02*
D03*
X454175Y14403D02*
D03*
X448269Y2592D02*
D03*
X436458Y427789D02*
D03*
Y356923D02*
D03*
X442364Y297868D02*
D03*
Y274246D02*
D03*
Y250624D02*
D03*
X436458Y167947D02*
D03*
Y73458D02*
D03*
Y49836D02*
D03*
X442364Y38025D02*
D03*
X436458Y26214D02*
D03*
X442364Y14403D02*
D03*
X436458Y2592D02*
D03*
X430553Y463222D02*
D03*
X424647Y451411D02*
D03*
Y427789D02*
D03*
X430553Y297868D02*
D03*
Y274246D02*
D03*
X424647Y262435D02*
D03*
X430553Y250624D02*
D03*
X424647Y238813D02*
D03*
X430553Y38025D02*
D03*
X424647Y26214D02*
D03*
X430553Y14403D02*
D03*
X424647Y2592D02*
D03*
X412836Y451411D02*
D03*
X418742Y297868D02*
D03*
Y250624D02*
D03*
X412836Y167947D02*
D03*
X418742Y132513D02*
D03*
X412836Y120702D02*
D03*
X418742Y108891D02*
D03*
X412836Y97080D02*
D03*
X418742Y85269D02*
D03*
X412836Y73458D02*
D03*
X418742Y61647D02*
D03*
Y38025D02*
D03*
X412836Y26214D02*
D03*
X418742Y14403D02*
D03*
X412836Y2592D02*
D03*
X401025Y451411D02*
D03*
Y404167D02*
D03*
Y309679D02*
D03*
X406931Y297868D02*
D03*
X401025Y286057D02*
D03*
X406931Y274246D02*
D03*
X401025Y262435D02*
D03*
X406931Y250624D02*
D03*
X401025Y238813D02*
D03*
X406931Y227002D02*
D03*
Y203380D02*
D03*
X401025Y191569D02*
D03*
X406931Y179757D02*
D03*
X401025Y167947D02*
D03*
X406931Y156135D02*
D03*
Y132513D02*
D03*
X401025Y120702D02*
D03*
X406931Y108891D02*
D03*
X401025Y97080D02*
D03*
X406931Y85269D02*
D03*
X401025Y73458D02*
D03*
X406931Y61647D02*
D03*
Y38025D02*
D03*
X401025Y2592D02*
D03*
X395120Y463222D02*
D03*
X389214Y451411D02*
D03*
Y333301D02*
D03*
Y309679D02*
D03*
X395120Y297868D02*
D03*
X389214Y286057D02*
D03*
X395120Y274246D02*
D03*
Y250624D02*
D03*
X389214Y238813D02*
D03*
X395120Y227002D02*
D03*
X389214Y191569D02*
D03*
X395120Y179757D02*
D03*
X389214Y167947D02*
D03*
X395120Y156135D02*
D03*
Y132513D02*
D03*
Y108891D02*
D03*
Y85269D02*
D03*
Y61647D02*
D03*
X389214Y26214D02*
D03*
X395120Y14403D02*
D03*
X389214Y2592D02*
D03*
X383309Y463222D02*
D03*
X377403Y451411D02*
D03*
Y427789D02*
D03*
Y404167D02*
D03*
Y380545D02*
D03*
X383309Y368734D02*
D03*
X377403Y333301D02*
D03*
Y309679D02*
D03*
Y286057D02*
D03*
Y262435D02*
D03*
X383309Y250624D02*
D03*
X377403Y238813D02*
D03*
X383309Y227002D02*
D03*
Y156135D02*
D03*
Y108891D02*
D03*
Y85269D02*
D03*
Y61647D02*
D03*
Y38025D02*
D03*
X377403Y26214D02*
D03*
X383309Y14403D02*
D03*
X377403Y2592D02*
D03*
X365592Y451411D02*
D03*
Y427789D02*
D03*
Y404167D02*
D03*
Y380545D02*
D03*
X371498Y368734D02*
D03*
X365592Y309679D02*
D03*
Y286057D02*
D03*
X371498Y274246D02*
D03*
X365592Y262435D02*
D03*
X371498Y250624D02*
D03*
X365592Y238813D02*
D03*
X371498Y227002D02*
D03*
Y179757D02*
D03*
X365592Y167947D02*
D03*
X371498Y108891D02*
D03*
Y85269D02*
D03*
Y61647D02*
D03*
X365592Y49836D02*
D03*
X371498Y38025D02*
D03*
X365592Y26214D02*
D03*
X371498Y14403D02*
D03*
X365592Y2592D02*
D03*
X353781Y404167D02*
D03*
Y309679D02*
D03*
Y286057D02*
D03*
X359687Y274246D02*
D03*
X353781Y262435D02*
D03*
X359687Y250624D02*
D03*
X353781Y238813D02*
D03*
X359687Y227002D02*
D03*
X353781Y191569D02*
D03*
X359687Y179757D02*
D03*
X353781Y167947D02*
D03*
Y144325D02*
D03*
X359687Y132513D02*
D03*
X353781Y120702D02*
D03*
X359687Y108891D02*
D03*
X353781Y97080D02*
D03*
X359687Y85269D02*
D03*
X353781Y73458D02*
D03*
X359687Y61647D02*
D03*
X353781Y49836D02*
D03*
X359687Y38025D02*
D03*
X353781Y26214D02*
D03*
X359687Y14403D02*
D03*
X353781Y2592D02*
D03*
X341970Y309679D02*
D03*
X347876Y274246D02*
D03*
X341970Y262435D02*
D03*
X347876Y250624D02*
D03*
X341970Y238813D02*
D03*
X347876Y227002D02*
D03*
Y179757D02*
D03*
X341970Y167947D02*
D03*
Y144325D02*
D03*
X347876Y132513D02*
D03*
X341970Y120702D02*
D03*
X347876Y108891D02*
D03*
X341970Y97080D02*
D03*
X347876Y61647D02*
D03*
X341970Y49836D02*
D03*
X347876Y38025D02*
D03*
Y14403D02*
D03*
X341970Y2592D02*
D03*
X336065Y415978D02*
D03*
X330159Y404167D02*
D03*
Y380545D02*
D03*
X336065Y368734D02*
D03*
X330159Y286057D02*
D03*
X336065Y250624D02*
D03*
X330159Y238813D02*
D03*
X336065Y227002D02*
D03*
Y203380D02*
D03*
X330159Y191569D02*
D03*
X336065Y179757D02*
D03*
X330159Y167947D02*
D03*
X336065Y132513D02*
D03*
X330159Y120702D02*
D03*
X336065Y108891D02*
D03*
Y61647D02*
D03*
Y38025D02*
D03*
Y14403D02*
D03*
X330159Y2592D02*
D03*
X324254Y439600D02*
D03*
Y415978D02*
D03*
Y368734D02*
D03*
X318348Y286057D02*
D03*
Y262435D02*
D03*
X324254Y250624D02*
D03*
X318348Y238813D02*
D03*
X324254Y227002D02*
D03*
Y203380D02*
D03*
X318348Y191569D02*
D03*
Y167947D02*
D03*
Y144325D02*
D03*
Y120702D02*
D03*
Y97080D02*
D03*
X324254Y61647D02*
D03*
X318348Y49836D02*
D03*
X324254Y38025D02*
D03*
X318348Y26214D02*
D03*
X324254Y14403D02*
D03*
X318348Y2592D02*
D03*
X312443Y439600D02*
D03*
Y415978D02*
D03*
X306537Y286057D02*
D03*
Y262435D02*
D03*
X312443Y250624D02*
D03*
Y227002D02*
D03*
Y203380D02*
D03*
Y179757D02*
D03*
X306537Y167947D02*
D03*
Y144325D02*
D03*
Y120702D02*
D03*
X312443Y61647D02*
D03*
X306537Y2592D02*
D03*
X300632Y439600D02*
D03*
Y368734D02*
D03*
X294726Y309679D02*
D03*
Y262435D02*
D03*
X300632Y250624D02*
D03*
X294726Y238813D02*
D03*
X300632Y227002D02*
D03*
Y179757D02*
D03*
X294726Y167947D02*
D03*
Y144325D02*
D03*
X300632Y132513D02*
D03*
X294726Y120702D02*
D03*
X300632Y108891D02*
D03*
Y85269D02*
D03*
X294726Y73458D02*
D03*
Y26214D02*
D03*
Y2592D02*
D03*
X288821Y392356D02*
D03*
X282915Y380545D02*
D03*
X288821Y368734D02*
D03*
X282915Y262435D02*
D03*
X288821Y250624D02*
D03*
X282915Y238813D02*
D03*
X288821Y227002D02*
D03*
Y179757D02*
D03*
Y132513D02*
D03*
Y108891D02*
D03*
Y85269D02*
D03*
Y61647D02*
D03*
Y38025D02*
D03*
X282915Y2592D02*
D03*
X277010Y392356D02*
D03*
X271104Y380545D02*
D03*
X277010Y368734D02*
D03*
Y297868D02*
D03*
X271104Y262435D02*
D03*
X277010Y250624D02*
D03*
X271104Y238813D02*
D03*
X277010Y227002D02*
D03*
X271104Y215191D02*
D03*
Y191569D02*
D03*
X277010Y179757D02*
D03*
Y132513D02*
D03*
Y108891D02*
D03*
Y85269D02*
D03*
X271104Y73458D02*
D03*
X277010Y61647D02*
D03*
X271104Y26214D02*
D03*
Y2592D02*
D03*
X259293Y427789D02*
D03*
X265198Y392356D02*
D03*
X259293Y380545D02*
D03*
X265198Y368734D02*
D03*
Y274246D02*
D03*
Y250624D02*
D03*
Y227002D02*
D03*
X259293Y215191D02*
D03*
X265198Y203380D02*
D03*
X259293Y191569D02*
D03*
Y167947D02*
D03*
X265198Y132513D02*
D03*
Y108891D02*
D03*
Y38025D02*
D03*
Y14403D02*
D03*
X259293Y2592D02*
D03*
X253387Y439600D02*
D03*
Y392356D02*
D03*
X247482Y380545D02*
D03*
Y144325D02*
D03*
Y2592D02*
D03*
X235671Y427789D02*
D03*
X241577Y392356D02*
D03*
X235671Y380545D02*
D03*
X241577Y368734D02*
D03*
X235671Y333301D02*
D03*
Y238813D02*
D03*
Y191569D02*
D03*
Y167947D02*
D03*
Y144325D02*
D03*
Y73458D02*
D03*
Y49836D02*
D03*
Y2592D02*
D03*
X223860Y427789D02*
D03*
Y404167D02*
D03*
X229766Y368734D02*
D03*
X223860Y356923D02*
D03*
X229766Y345112D02*
D03*
X223860Y333301D02*
D03*
X229766Y321490D02*
D03*
Y227002D02*
D03*
Y85269D02*
D03*
Y61647D02*
D03*
X223860Y2592D02*
D03*
X212049Y404167D02*
D03*
Y380545D02*
D03*
Y356923D02*
D03*
X217954Y227002D02*
D03*
X212049Y191569D02*
D03*
X217954Y85269D02*
D03*
X212049Y73458D02*
D03*
X217954Y61647D02*
D03*
X212049Y2592D02*
D03*
X200238Y356923D02*
D03*
X206143Y203380D02*
D03*
X188427Y427789D02*
D03*
Y404167D02*
D03*
X194332Y392356D02*
D03*
Y227002D02*
D03*
Y203380D02*
D03*
X188427Y144325D02*
D03*
X194332Y108891D02*
D03*
Y38025D02*
D03*
X182521Y392356D02*
D03*
X176616Y380545D02*
D03*
Y309679D02*
D03*
X182521Y227002D02*
D03*
X176616Y167947D02*
D03*
X164805Y404167D02*
D03*
X170710Y392356D02*
D03*
X164805Y380545D02*
D03*
Y215191D02*
D03*
X170710Y179757D02*
D03*
X164805Y167947D02*
D03*
X170710Y108891D02*
D03*
X158899Y415978D02*
D03*
X152994Y215191D02*
D03*
Y167947D02*
D03*
X158899Y108891D02*
D03*
X152994Y73458D02*
D03*
X158899Y61647D02*
D03*
X147088Y392356D02*
D03*
X141183Y380545D02*
D03*
X147088Y297868D02*
D03*
Y179757D02*
D03*
X141183Y167947D02*
D03*
Y144325D02*
D03*
X147088Y108891D02*
D03*
Y85269D02*
D03*
X135277Y392356D02*
D03*
Y179757D02*
D03*
X129372Y167947D02*
D03*
Y144325D02*
D03*
X135277Y108891D02*
D03*
Y85269D02*
D03*
Y61647D02*
D03*
X123466Y392356D02*
D03*
Y85269D02*
D03*
Y38025D02*
D03*
X111655Y392356D02*
D03*
X105750Y356923D02*
D03*
X111655Y345112D02*
D03*
X105750Y262435D02*
D03*
X111655Y179757D02*
D03*
X105750Y144325D02*
D03*
X111655Y85269D02*
D03*
X105750Y49836D02*
D03*
Y26214D02*
D03*
X111655Y14403D02*
D03*
X93939Y404167D02*
D03*
X99844Y392356D02*
D03*
Y368734D02*
D03*
X93939Y356923D02*
D03*
X99844Y345112D02*
D03*
Y179757D02*
D03*
Y156135D02*
D03*
X93939Y144325D02*
D03*
X99844Y108891D02*
D03*
Y85269D02*
D03*
X93939Y73458D02*
D03*
Y49836D02*
D03*
X82128Y238813D02*
D03*
X88033Y156135D02*
D03*
X82128Y144325D02*
D03*
X88033Y108891D02*
D03*
X82128Y97080D02*
D03*
X88033Y85269D02*
D03*
X82128Y49836D02*
D03*
X70317Y404167D02*
D03*
X76222Y179757D02*
D03*
X70317Y167947D02*
D03*
Y144325D02*
D03*
Y73458D02*
D03*
Y49836D02*
D03*
X64411Y345112D02*
D03*
X58506Y262435D02*
D03*
X64411Y250624D02*
D03*
X58506Y238813D02*
D03*
X64411Y227002D02*
D03*
Y179757D02*
D03*
X58506Y2592D02*
D03*
X52600Y345112D02*
D03*
X46695Y262435D02*
D03*
Y238813D02*
D03*
Y215191D02*
D03*
Y2592D02*
D03*
X40789Y250624D02*
D03*
X34884Y238813D02*
D03*
X40789Y227002D02*
D03*
Y14403D02*
D03*
X34884Y2592D02*
D03*
X28978Y250624D02*
D03*
X23073Y238813D02*
D03*
X28978Y227002D02*
D03*
Y14403D02*
D03*
X23073Y2592D02*
D03*
X17167Y227002D02*
D03*
X11262Y167947D02*
D03*
Y144325D02*
D03*
Y2592D02*
D03*
X102756Y460236D02*
D03*
X285039Y457087D02*
D03*
X264173D02*
D03*
X313779Y455512D02*
D03*
X351575Y455118D02*
D03*
X370472Y454724D02*
D03*
X132677Y137008D02*
D03*
Y156693D02*
D03*
X444145Y411215D02*
D03*
X460630Y409449D02*
D03*
X91339Y344488D02*
D03*
X70079Y354331D02*
D03*
X70081Y291137D02*
D03*
X26772Y289370D02*
D03*
X281890Y25197D02*
D03*
X307480D02*
D03*
X308661Y57480D02*
D03*
X203543Y18504D02*
D03*
X163386Y38976D02*
D03*
X147410Y36455D02*
D03*
X135039Y37402D02*
D03*
X125591Y27165D02*
D03*
X117717Y25197D02*
D03*
X246460Y364562D02*
D03*
X182283Y338583D02*
D03*
X166142Y312992D02*
D03*
X243307Y410236D02*
D03*
X326378Y311024D02*
D03*
X329134Y305118D02*
D03*
X261620Y431982D02*
D03*
X275590Y358268D02*
D03*
X323228Y349606D02*
D03*
X325197Y354724D02*
D03*
X326378Y348425D02*
D03*
X200787Y453937D02*
D03*
X159055Y443307D02*
D03*
X201181Y400394D02*
D03*
X312992Y384646D02*
D03*
X58661Y362598D02*
D03*
X179921Y133268D02*
D03*
X214567Y390551D02*
D03*
X185827Y374803D02*
D03*
X392339Y438756D02*
D03*
X413779Y430709D02*
D03*
X429528Y437795D02*
D03*
X417323Y399606D02*
D03*
X82336Y227202D02*
D03*
X50787Y309842D02*
D03*
X213779Y256299D02*
D03*
X217717Y255512D02*
D03*
X212598Y252756D02*
D03*
X210236Y256299D02*
D03*
X262205Y345276D02*
D03*
X266535Y351181D02*
D03*
Y347244D02*
D03*
X50000Y190157D02*
D03*
X40551Y190551D02*
D03*
X32283Y190157D02*
D03*
X24803D02*
D03*
X18110Y190551D02*
D03*
X159845Y452751D02*
D03*
X329134Y305118D02*
D03*
X325596Y351966D02*
D03*
X261417Y349213D02*
D03*
X22835Y69685D02*
D03*
X50394D02*
D03*
X125591Y196457D02*
D03*
X120472Y196850D02*
D03*
X125160Y204857D02*
D03*
X120472Y206299D02*
D03*
X123668Y210149D02*
D03*
X122908Y193758D02*
D03*
X167323Y188189D02*
D03*
X164961Y238976D02*
D03*
X170863Y238588D02*
D03*
X11811Y303543D02*
D03*
X157909Y337707D02*
D03*
X127953Y325197D02*
D03*
X239370Y252362D02*
D03*
X300295Y450303D02*
D03*
X390551Y129921D02*
D03*
X379528Y124803D02*
D03*
X419258Y145118D02*
D03*
X325590Y175591D02*
D03*
X375984Y114567D02*
D03*
X375590Y154331D02*
D03*
X303937Y135039D02*
D03*
X315354Y125197D02*
D03*
X314838Y99157D02*
D03*
X218504Y124803D02*
D03*
X328740Y27559D02*
D03*
X331890Y84646D02*
D03*
X270866Y81102D02*
D03*
X263779Y69685D02*
D03*
X302362Y58661D02*
D03*
X265748Y88583D02*
D03*
X309842Y72835D02*
D03*
X298228Y54724D02*
D03*
X283465Y53543D02*
D03*
X262205Y57480D02*
D03*
X420472Y174016D02*
D03*
X261811Y25459D02*
D03*
X257874Y153937D02*
D03*
X262303Y92913D02*
D03*
X233465Y176378D02*
D03*
X223425Y173819D02*
D03*
X208661Y176378D02*
D03*
X211258Y156181D02*
D03*
X208268Y65354D02*
D03*
X201181Y53150D02*
D03*
X278346Y193701D02*
D03*
X221654Y119291D02*
D03*
Y68504D02*
D03*
X219291Y24016D02*
D03*
Y44882D02*
D03*
X200984Y72441D02*
D03*
X190157Y115748D02*
D03*
X195276Y63779D02*
D03*
X198425Y33071D02*
D03*
X225590Y198425D02*
D03*
X223425Y133465D02*
D03*
Y156299D02*
D03*
X225984Y28346D02*
D03*
X166929Y60630D02*
D03*
X170472Y73622D02*
D03*
X181102Y99606D02*
D03*
X201575Y134920D02*
D03*
Y216535D02*
D03*
Y117323D02*
D03*
X230589Y140671D02*
D03*
X308928Y164877D02*
D03*
X379134Y47244D02*
D03*
X398425Y194095D02*
D03*
X456299Y70866D02*
D03*
X457087Y125197D02*
D03*
X426772Y59449D02*
D03*
X420472Y220079D02*
D03*
X412205Y210630D02*
D03*
Y184252D02*
D03*
X307874Y207878D02*
D03*
X472835Y224410D02*
D03*
X219685Y181890D02*
D03*
X218504Y173622D02*
D03*
X270079Y179921D02*
D03*
X211417Y106693D02*
D03*
X191339Y127165D02*
D03*
X230709Y118898D02*
D03*
X63779Y159055D02*
D03*
X62992Y119291D02*
D03*
X44094Y88583D02*
D03*
X40157Y127953D02*
D03*
X68504Y122835D02*
D03*
X68110Y111417D02*
D03*
X180709Y122835D02*
D03*
X44488Y131890D02*
D03*
X51181Y150787D02*
D03*
X50477Y79201D02*
D03*
X307756Y233633D02*
D03*
X258268Y233071D02*
D03*
X258709Y241657D02*
D03*
X307480Y216142D02*
D03*
X177953Y212992D02*
D03*
X178347Y233465D02*
D03*
X250394Y233858D02*
D03*
X301969Y305906D02*
D03*
X485827Y75590D02*
D03*
X486614Y37008D02*
D03*
Y105118D02*
D03*
X92520Y222441D02*
D03*
X94882Y198031D02*
D03*
X195276Y53150D02*
D03*
X113779Y69685D02*
D03*
X122441Y53543D02*
D03*
X129528Y49213D02*
D03*
X152756Y54839D02*
D03*
X172714Y54602D02*
D03*
X173622Y82284D02*
D03*
X174029Y36905D02*
D03*
X40157Y38583D02*
D03*
X196457Y21260D02*
D03*
X110248Y38662D02*
D03*
X122512Y17047D02*
D03*
X298425Y18504D02*
D03*
X133465Y5143D02*
D03*
X129528Y45079D02*
D03*
X153150Y39370D02*
D03*
X129921Y38583D02*
D03*
X301969Y37008D02*
D03*
X198031Y7677D02*
D03*
X69618Y8071D02*
D03*
X133465Y13410D02*
D03*
X78740Y101181D02*
D03*
X89370Y76378D02*
D03*
X130345Y76485D02*
D03*
X311811Y340945D02*
D03*
X79921Y12205D02*
D03*
X440945Y290551D02*
D03*
X468898Y6299D02*
D03*
X153937Y130315D02*
D03*
X152362Y88583D02*
D03*
X152604Y48614D02*
D03*
X130315Y62598D02*
D03*
X89370Y60630D02*
D03*
X140945Y312598D02*
D03*
X133858Y308268D02*
D03*
X141339Y308661D02*
D03*
X136614Y306693D02*
D03*
X137008Y314961D02*
D03*
X133465Y311811D02*
D03*
X74803Y229528D02*
D03*
X72047Y232283D02*
D03*
X59842Y235039D02*
D03*
X74410Y234434D02*
D03*
X187964Y313386D02*
D03*
X137795Y311024D02*
D03*
X118898Y312992D02*
D03*
X87138Y252762D02*
D03*
X50394Y205118D02*
D03*
X50787Y212598D02*
D03*
X58661Y79134D02*
D03*
X58268Y208661D02*
D03*
X74016Y197638D02*
D03*
X72835Y216929D02*
D03*
Y217323D02*
D03*
X75590Y309842D02*
D03*
X42126Y216535D02*
D03*
X65851Y208774D02*
D03*
X102362Y201575D02*
D03*
X172047Y224410D02*
D03*
X159295Y222027D02*
D03*
X86614Y161811D02*
D03*
X2348Y259828D02*
D03*
X144882Y246457D02*
D03*
X144488Y266929D02*
D03*
X179528Y246063D02*
D03*
X178347Y278346D02*
D03*
X198425Y273622D02*
D03*
X183465D02*
D03*
X182680Y267711D02*
D03*
X183071Y284646D02*
D03*
X349216Y366137D02*
D03*
X433861Y457869D02*
D03*
X404334Y329916D02*
D03*
X390554Y322436D02*
D03*
X298034Y329916D02*
D03*
X87011Y361019D02*
D03*
X192129Y371649D02*
D03*
X207483Y383066D02*
D03*
X268504Y449606D02*
D03*
X304331Y455905D02*
D03*
X140637Y337624D02*
D03*
X188366Y278871D02*
D03*
X394491Y398617D02*
D03*
X217326Y368893D02*
D03*
X217720Y331491D02*
D03*
X274806Y321649D02*
D03*
X349216Y336215D02*
D03*
X153049Y352909D02*
D03*
X180366Y331114D02*
D03*
X179924Y285034D02*
D03*
X353940Y316924D02*
D03*
X354122Y377554D02*
D03*
X342916Y322042D02*
D03*
X394097Y342121D02*
D03*
X384649D02*
D03*
X384255Y355901D02*
D03*
X397149Y348129D02*
D03*
X170475Y294877D02*
D03*
X150003Y294090D02*
D03*
X170082Y268722D02*
D03*
X162601Y285428D02*
D03*
Y267711D02*
D03*
X149609Y268499D02*
D03*
X122001Y277948D02*
D03*
X156696Y296058D02*
D03*
X156302Y278341D02*
D03*
X143704D02*
D03*
X43704Y380310D02*
D03*
X78349Y350389D02*
D03*
X82680Y379523D02*
D03*
X168113Y369483D02*
D03*
X38192Y354326D02*
D03*
X31105Y365743D02*
D03*
X246066Y355901D02*
D03*
X410104Y324810D02*
D03*
Y342515D02*
D03*
X415751Y351963D02*
D03*
Y325192D02*
D03*
X418310Y348420D02*
D03*
X468901Y350389D02*
D03*
Y323223D02*
D03*
X469294Y301963D02*
D03*
X470082Y277554D02*
D03*
X468901Y328341D02*
D03*
X412859Y354011D02*
D03*
X403153Y374011D02*
D03*
X414964Y377554D02*
D03*
X430712Y360231D02*
D03*
X439373Y365349D02*
D03*
X463783Y397633D02*
D03*
X456546Y396550D02*
D03*
X456167Y407686D02*
D03*
X438979Y405113D02*
D03*
X449871Y401101D02*
D03*
X466979Y381083D02*
D03*
X470082Y378341D02*
D03*
X475987Y419286D02*
D03*
X471225Y385784D02*
D03*
X469050Y392711D02*
D03*
X474771Y437890D02*
D03*
X480712Y432278D02*
D03*
X476025Y380666D02*
D03*
X455712Y379916D02*
D03*
X426775Y340940D02*
D03*
X433861Y317711D02*
D03*
X450057Y346049D02*
D03*
X454727Y354719D02*
D03*
X432286Y330310D02*
D03*
X432680Y348814D02*
D03*
X458271Y386609D02*
D03*
X426775Y377160D02*
D03*
Y368105D02*
D03*
X427168Y348026D02*
D03*
X405908Y383853D02*
D03*
X403153Y395664D02*
D03*
X383074Y393696D02*
D03*
Y409050D02*
D03*
X392916Y415349D02*
D03*
X400790Y412987D02*
D03*
X417869Y417591D02*
D03*
X427168Y412200D02*
D03*
Y395664D02*
D03*
X410334Y371161D02*
D03*
X410595Y360271D02*
D03*
X427562Y424798D02*
D03*
X445279Y415743D02*
D03*
X438192Y420074D02*
D03*
X414570Y390153D02*
D03*
X409845Y405900D02*
D03*
X414570Y423519D02*
D03*
X344097Y418105D02*
D03*
X366538Y414562D02*
D03*
X461861Y387790D02*
D03*
X482483Y400536D02*
D03*
X479924Y343696D02*
D03*
Y386609D02*
D03*
X432680Y378341D02*
D03*
X457877Y420074D02*
D03*
X450838Y420861D02*
D03*
X446824Y390627D02*
D03*
X433861Y395183D02*
D03*
X478743Y287003D02*
D03*
X485436Y419680D02*
D03*
X484832Y437261D02*
D03*
X485042Y311412D02*
D03*
X487798Y337003D02*
D03*
X490554Y360625D02*
D03*
X450003Y372830D02*
D03*
X445279Y428735D02*
D03*
X452759Y463850D02*
D03*
X449216Y456688D02*
D03*
X448822Y462987D02*
D03*
X234255Y355108D02*
D03*
X445003Y437289D02*
D03*
X387798Y428341D02*
D03*
X400162Y435663D02*
D03*
X468948Y413019D02*
D03*
X480318Y446452D02*
D03*
X462657Y419952D02*
D03*
X420082Y447867D02*
D03*
X420475Y471255D02*
D03*
X420082Y429523D02*
D03*
X375958Y389984D02*
D03*
X366643Y422042D02*
D03*
X336617D02*
D03*
X163966Y363381D02*
D03*
X118113Y353538D02*
D03*
X335928Y442858D02*
D03*
X346853Y446845D02*
D03*
X360633Y449601D02*
D03*
X159845Y461019D02*
D03*
X296457Y441732D02*
D03*
X270318Y441339D02*
D03*
X287763Y432394D02*
D03*
X25987Y333853D02*
D03*
X88586Y411412D02*
D03*
Y386609D02*
D03*
X25987D02*
D03*
X79137Y402751D02*
D03*
X98948Y395973D02*
D03*
X87798Y420861D02*
D03*
X88586Y448814D02*
D03*
X72050Y424798D02*
D03*
X72247Y446649D02*
D03*
X81105Y430310D02*
D03*
Y449995D02*
D03*
X94491Y426767D02*
D03*
X98822Y427554D02*
D03*
X94491Y460625D02*
D03*
X70082D02*
D03*
Y453538D02*
D03*
X56822Y453580D02*
D03*
X43704Y461019D02*
D03*
X98822Y468893D02*
D03*
X5369Y439360D02*
D03*
X62601Y416924D02*
D03*
X62970Y468027D02*
D03*
X62995Y442908D02*
D03*
X138586Y442121D02*
D03*
X138192Y451570D02*
D03*
D93*
X216929Y410630D02*
D03*
X208268D02*
D03*
D94*
X481893Y392515D02*
D03*
X470475D02*
D03*
X107283Y329528D02*
D03*
X118701D02*
D03*
X105712Y350782D02*
D03*
X117129D02*
D03*
X257680Y362593D02*
D03*
X246263D02*
D03*
X145082Y277948D02*
D03*
X156499D02*
D03*
X377562Y392908D02*
D03*
X366145D02*
D03*
X454578Y398617D02*
D03*
X443160D02*
D03*
X444145Y407672D02*
D03*
X455562D02*
D03*
X480956Y412003D02*
D03*
X469538D02*
D03*
X438436Y385231D02*
D03*
X449853D02*
D03*
X210433Y24016D02*
D03*
X199016D02*
D03*
X276575Y25591D02*
D03*
X265158D02*
D03*
D95*
X89570Y341727D02*
D03*
X78153D02*
D03*
X195079Y344094D02*
D03*
X183661D02*
D03*
D96*
X89618Y17047D02*
Y27047D01*
M02*
