G04*
G04 #@! TF.GenerationSoftware,Altium Limited,Altium Designer,22.2.1 (43)*
G04*
G04 Layer_Color=8388736*
%FSLAX25Y25*%
%MOIN*%
G70*
G04*
G04 #@! TF.SameCoordinates,5D24457F-3748-4EF7-84A7-D0A6444830B3*
G04*
G04*
G04 #@! TF.FilePolarity,Negative*
G04*
G01*
G75*
%ADD18R,0.06299X0.04724*%
%ADD19R,0.04724X0.06299*%
%ADD20R,0.08268X0.05512*%
%ADD21R,0.03543X0.03150*%
%ADD22R,0.03937X0.02362*%
%ADD23R,0.01772X0.05906*%
%ADD24R,0.01772X0.06299*%
%ADD25R,0.12598X0.11221*%
%ADD26R,0.01772X0.06102*%
%ADD27R,0.16142X0.10827*%
%ADD28R,0.05906X0.02362*%
%ADD29R,0.06102X0.02362*%
%ADD30R,0.06299X0.02362*%
%ADD31R,0.05787X0.02559*%
%ADD32R,0.03937X0.07598*%
%ADD33R,0.01968X0.03347*%
%ADD34R,0.06890X0.04331*%
%ADD35R,0.04134X0.07087*%
%ADD36R,0.03937X0.03937*%
%ADD37R,0.04685X0.12992*%
%ADD38R,0.03150X0.03150*%
%ADD39R,0.22047X0.06496*%
%ADD40R,0.22441X0.07087*%
%ADD41R,0.13976X0.20079*%
%ADD43R,0.01968X0.01575*%
%ADD44R,0.01968X0.05118*%
%ADD45R,0.01968X0.02953*%
%ADD46R,0.08661X0.12402*%
%ADD47R,0.07480X0.05118*%
%ADD48R,0.08268X0.16142*%
%ADD49R,0.07087X0.04724*%
%ADD50R,0.02362X0.03937*%
%ADD51R,0.12402X0.08661*%
%ADD52R,0.03347X0.01968*%
%ADD53R,0.03150X0.03543*%
%ADD54R,0.07087X0.04134*%
%ADD55R,0.05512X0.08268*%
%ADD56R,0.22835X0.25197*%
%ADD57R,0.04724X0.08661*%
%ADD58P,0.02673X4X360.0*%
%ADD59R,0.05512X0.02362*%
%ADD60R,0.01968X0.03642*%
%ADD61C,0.11811*%
%ADD62C,0.05906*%
%ADD63C,0.05079*%
%ADD64R,0.05079X0.05079*%
%ADD65C,0.14173*%
%ADD66R,0.05906X0.05906*%
%ADD67C,0.08661*%
%ADD68C,0.08268*%
%ADD69R,0.08268X0.08268*%
%ADD70C,0.06693*%
%ADD71R,0.06693X0.06693*%
%ADD72R,0.06457X0.06457*%
%ADD73C,0.06457*%
%ADD74R,0.05512X0.05512*%
%ADD75C,0.05512*%
%ADD76R,0.11201X0.05598*%
%ADD77O,0.11201X0.05598*%
%ADD78R,0.06693X0.06693*%
G36*
X98152Y434175D02*
X97327Y434852D01*
Y435466D01*
X98152D01*
Y434175D01*
D02*
G37*
G36*
X95592Y434852D02*
X94768Y434175D01*
Y435466D01*
X95592D01*
Y434852D01*
D02*
G37*
G36*
X98152Y430665D02*
X97327D01*
Y431279D01*
X98152Y431957D01*
Y430665D01*
D02*
G37*
G36*
X95592Y431279D02*
Y430665D01*
X94768D01*
Y431957D01*
X95592Y431279D01*
D02*
G37*
G36*
X215751Y293971D02*
X210436D01*
Y278971D01*
X196479D01*
Y296334D01*
X215751D01*
Y293971D01*
D02*
G37*
G36*
X133094Y277397D02*
X113822D01*
Y279759D01*
X119137D01*
Y294759D01*
X133094D01*
Y277397D01*
D02*
G37*
G36*
X224186Y115748D02*
X225016Y115194D01*
X225570Y114364D01*
X225765Y113386D01*
X225570Y112407D01*
X225016Y111578D01*
X224186Y111023D01*
X223208Y110829D01*
X223005Y110869D01*
X222010D01*
X221808Y110829D01*
X220829Y111023D01*
X220000Y111578D01*
X219445Y112407D01*
X219251Y113386D01*
X219445Y114364D01*
X220000Y115194D01*
X220829Y115748D01*
X221808Y115943D01*
X222006Y115903D01*
X222008Y115886D01*
Y115903D01*
X223008D01*
Y115886D01*
X223010Y115903D01*
X223208Y115943D01*
X224186Y115748D01*
D02*
G37*
G36*
X192768Y11853D02*
X190406D01*
Y15003D01*
X187768D01*
Y11853D01*
X185406D01*
Y15003D01*
X182768D01*
Y11853D01*
X180406D01*
Y15003D01*
X177768D01*
Y11853D01*
X175406D01*
Y29393D01*
X192768D01*
Y11853D01*
D02*
G37*
G36*
X169311Y11829D02*
X166949D01*
Y14978D01*
X164311D01*
Y11829D01*
X161949D01*
Y14978D01*
X159311D01*
Y11829D01*
X156949D01*
Y14978D01*
X154311D01*
Y11829D01*
X151949D01*
Y29368D01*
X169311D01*
Y11829D01*
D02*
G37*
G36*
X146173Y11829D02*
X143811D01*
Y14978D01*
X141173D01*
Y11829D01*
X138811D01*
Y14978D01*
X136173D01*
Y11829D01*
X133811D01*
Y14978D01*
X131173D01*
Y11829D01*
X128811D01*
Y29368D01*
X146173D01*
Y11829D01*
D02*
G37*
D18*
X72138Y59449D02*
D03*
Y79134D02*
D03*
X83162Y69291D02*
D03*
X2759Y351963D02*
D03*
X13782Y342121D02*
D03*
Y361806D02*
D03*
X122138Y70079D02*
D03*
X111114Y79921D02*
D03*
Y60236D02*
D03*
X163477Y70079D02*
D03*
X152453Y79921D02*
D03*
Y60236D02*
D03*
X160236Y140248D02*
D03*
X171260Y130406D02*
D03*
Y150091D02*
D03*
D19*
X76775Y266924D02*
D03*
X66932Y255901D02*
D03*
X86617D02*
D03*
D20*
X277953Y34449D02*
D03*
X317323D02*
D03*
X277953Y16732D02*
D03*
X317323D02*
D03*
X327562Y411019D02*
D03*
X366932D02*
D03*
X327562Y393302D02*
D03*
X366932D02*
D03*
X210236Y33465D02*
D03*
X249606D02*
D03*
X210236Y15748D02*
D03*
X249606D02*
D03*
D21*
X470082Y285822D02*
D03*
Y277948D02*
D03*
X478743Y281885D02*
D03*
X197247Y216137D02*
D03*
X188586Y212200D02*
D03*
Y220074D02*
D03*
X480712Y418893D02*
D03*
X489373Y422830D02*
D03*
Y414956D02*
D03*
X480318Y437003D02*
D03*
X488979Y440940D02*
D03*
Y433066D02*
D03*
Y396058D02*
D03*
Y403932D02*
D03*
X480318Y399995D02*
D03*
X185039Y86221D02*
D03*
Y78347D02*
D03*
X193701Y82284D02*
D03*
X476775Y355507D02*
D03*
X468113Y351570D02*
D03*
Y359444D02*
D03*
X477562Y332672D02*
D03*
X468901Y328735D02*
D03*
Y336609D02*
D03*
X477956Y307475D02*
D03*
X469294Y303538D02*
D03*
Y311412D02*
D03*
X75987Y420861D02*
D03*
X67326Y416924D02*
D03*
Y424798D02*
D03*
X488586Y377554D02*
D03*
Y385428D02*
D03*
X479924Y381491D02*
D03*
D22*
X72247Y443499D02*
D03*
Y436019D02*
D03*
X81302Y439759D02*
D03*
X63192D02*
D03*
X54137Y436019D02*
D03*
Y443499D02*
D03*
D23*
X451428Y415153D02*
D03*
X453987D02*
D03*
X456546D02*
D03*
X459105D02*
D03*
X461664D02*
D03*
X464223D02*
D03*
X466782D02*
D03*
Y392318D02*
D03*
X464223D02*
D03*
X461664D02*
D03*
X459105D02*
D03*
X456546D02*
D03*
X453987D02*
D03*
X451428D02*
D03*
D24*
X165751Y343302D02*
D03*
X168310D02*
D03*
X170869D02*
D03*
X173428D02*
D03*
X175987D02*
D03*
X178546D02*
D03*
X181105D02*
D03*
Y364562D02*
D03*
X178546D02*
D03*
X175987D02*
D03*
X173428D02*
D03*
X170869D02*
D03*
X168310D02*
D03*
X165751D02*
D03*
D25*
X173428Y353932D02*
D03*
D26*
X120082Y330310D02*
D03*
X122641D02*
D03*
X125200D02*
D03*
X127759D02*
D03*
X130318D02*
D03*
X132877D02*
D03*
X135436D02*
D03*
Y351570D02*
D03*
X132877D02*
D03*
X130318D02*
D03*
X127759D02*
D03*
X125200D02*
D03*
X122641D02*
D03*
X120082D02*
D03*
D27*
X127759Y340940D02*
D03*
D28*
X352562Y438558D02*
D03*
Y443558D02*
D03*
Y448558D02*
D03*
Y453558D02*
D03*
X331696D02*
D03*
Y448558D02*
D03*
Y443558D02*
D03*
Y438558D02*
D03*
X140554Y278578D02*
D03*
Y283578D02*
D03*
Y288578D02*
D03*
Y293578D02*
D03*
X189019Y280153D02*
D03*
Y285153D02*
D03*
Y290153D02*
D03*
Y295152D02*
D03*
D29*
X88192Y197751D02*
D03*
Y202751D02*
D03*
Y207751D02*
D03*
Y212751D02*
D03*
X66932D02*
D03*
Y207751D02*
D03*
Y202751D02*
D03*
Y197751D02*
D03*
D30*
X461814Y467889D02*
D03*
Y462889D02*
D03*
Y457889D02*
D03*
Y452889D02*
D03*
Y447889D02*
D03*
Y442889D02*
D03*
Y437889D02*
D03*
Y432889D02*
D03*
X440554D02*
D03*
Y437889D02*
D03*
Y442889D02*
D03*
Y447889D02*
D03*
Y452889D02*
D03*
Y457889D02*
D03*
Y462889D02*
D03*
Y467889D02*
D03*
D31*
X178349Y280153D02*
D03*
Y285153D02*
D03*
Y290153D02*
D03*
Y295152D02*
D03*
X156578D02*
D03*
Y290153D02*
D03*
Y285153D02*
D03*
Y280153D02*
D03*
D32*
X142562Y208656D02*
D03*
X125160D02*
D03*
D33*
X264961Y58661D02*
D03*
Y68898D02*
D03*
X440158Y69685D02*
D03*
Y59449D02*
D03*
D34*
X81499Y227005D02*
D03*
X70672Y221494D02*
D03*
X81499D02*
D03*
X70672Y227005D02*
D03*
X269291Y420079D02*
D03*
X280118Y425591D02*
D03*
X269291D02*
D03*
X280118Y420079D02*
D03*
D35*
X410239Y359444D02*
D03*
X398428D02*
D03*
X194488Y65748D02*
D03*
X182677D02*
D03*
X202362Y65354D02*
D03*
X214173D02*
D03*
X184255Y220074D02*
D03*
X172444D02*
D03*
X184255Y211806D02*
D03*
X172444D02*
D03*
X212598Y113779D02*
D03*
X200787D02*
D03*
X161814Y333460D02*
D03*
X173625D02*
D03*
X150397Y267318D02*
D03*
X162208D02*
D03*
X170082Y267711D02*
D03*
X181893D02*
D03*
X409058Y324404D02*
D03*
X397247D02*
D03*
X421263Y377554D02*
D03*
X433074D02*
D03*
X397641Y336215D02*
D03*
X409452D02*
D03*
X420475Y424798D02*
D03*
X432286D02*
D03*
X280712Y322042D02*
D03*
X292523D02*
D03*
X298034D02*
D03*
X309845D02*
D03*
X316145Y321649D02*
D03*
X327956D02*
D03*
X374019Y393696D02*
D03*
X385830D02*
D03*
X374019Y411019D02*
D03*
X385830D02*
D03*
X421263Y365743D02*
D03*
X433074D02*
D03*
X433074Y400782D02*
D03*
X421263D02*
D03*
X433074Y317318D02*
D03*
X421263D02*
D03*
X421263Y389365D02*
D03*
X433074D02*
D03*
X397641Y348026D02*
D03*
X409452D02*
D03*
X420869Y341727D02*
D03*
X432680D02*
D03*
X287247Y441732D02*
D03*
X275436D02*
D03*
X292913Y442520D02*
D03*
X304724D02*
D03*
X286221Y449606D02*
D03*
X274410D02*
D03*
X292520Y450000D02*
D03*
X304331D02*
D03*
X210236Y236221D02*
D03*
X222047D02*
D03*
X258661Y245669D02*
D03*
X270472D02*
D03*
X232283Y45669D02*
D03*
X220472D02*
D03*
X198819Y24016D02*
D03*
X210630D02*
D03*
X310236Y53150D02*
D03*
X298425D02*
D03*
X264961Y24946D02*
D03*
X276772D02*
D03*
X251972Y245664D02*
D03*
X240160D02*
D03*
X398822Y395664D02*
D03*
X410633D02*
D03*
X421263Y412593D02*
D03*
X433074D02*
D03*
X410239Y383460D02*
D03*
X398428D02*
D03*
X410239Y371649D02*
D03*
X398428D02*
D03*
D36*
X335236Y315354D02*
D03*
X341142D02*
D03*
D37*
X399609Y441334D02*
D03*
X409609Y466530D02*
D03*
X389609D02*
D03*
D38*
X461420Y285428D02*
D03*
Y279129D02*
D03*
X21656Y333853D02*
D03*
Y327554D02*
D03*
X461027Y329522D02*
D03*
Y335822D02*
D03*
X460633Y306294D02*
D03*
Y312593D02*
D03*
X461027Y353932D02*
D03*
Y360231D02*
D03*
X90158Y53543D02*
D03*
Y59842D02*
D03*
X114567Y115354D02*
D03*
Y109055D02*
D03*
X130315Y54724D02*
D03*
Y61024D02*
D03*
X171260Y54331D02*
D03*
Y60630D02*
D03*
X114567Y135039D02*
D03*
Y128740D02*
D03*
X114961Y148031D02*
D03*
Y154331D02*
D03*
Y173228D02*
D03*
Y166929D02*
D03*
D39*
X301969Y292028D02*
D03*
Y275689D02*
D03*
D40*
X198822Y345664D02*
D03*
Y363774D02*
D03*
D41*
X275200Y285822D02*
D03*
X235830D02*
D03*
D43*
X235042Y364759D02*
D03*
Y357278D02*
D03*
X244491D02*
D03*
D44*
Y362987D02*
D03*
D45*
X235042Y361019D02*
D03*
D46*
X120082Y230704D02*
D03*
X147641D02*
D03*
D47*
X313389Y377751D02*
D03*
Y389168D02*
D03*
X304727Y377554D02*
D03*
Y388971D02*
D03*
X296066Y377357D02*
D03*
Y388774D02*
D03*
D48*
X363389Y333656D02*
D03*
Y367121D02*
D03*
X46853Y324601D02*
D03*
Y291137D02*
D03*
X385433Y299213D02*
D03*
Y265748D02*
D03*
D49*
X208664Y171452D02*
D03*
Y182869D02*
D03*
D50*
X135239Y452357D02*
D03*
X131499Y461412D02*
D03*
X138979D02*
D03*
D51*
X82286Y326373D02*
D03*
Y298814D02*
D03*
D52*
X211420Y370861D02*
D03*
X201184D02*
D03*
D53*
X188583Y44882D02*
D03*
X184646Y53543D02*
D03*
X192520D02*
D03*
X207480Y44094D02*
D03*
X203543Y52756D02*
D03*
X211417D02*
D03*
D54*
X207087Y88976D02*
D03*
Y77165D02*
D03*
X225590Y157480D02*
D03*
Y169291D02*
D03*
X165354Y222047D02*
D03*
Y210236D02*
D03*
X154727Y453145D02*
D03*
Y464956D02*
D03*
X63783D02*
D03*
Y453145D02*
D03*
X50790Y464956D02*
D03*
Y453145D02*
D03*
X55515Y426767D02*
D03*
Y414956D02*
D03*
X76381Y452751D02*
D03*
Y464562D02*
D03*
X88192Y452751D02*
D03*
Y464562D02*
D03*
Y427948D02*
D03*
Y416137D02*
D03*
X66145Y407475D02*
D03*
Y395664D02*
D03*
X79137Y407475D02*
D03*
Y395664D02*
D03*
X196853Y183066D02*
D03*
Y171255D02*
D03*
X185042D02*
D03*
Y183066D02*
D03*
X115357Y370861D02*
D03*
Y359050D02*
D03*
X126775Y370861D02*
D03*
Y359050D02*
D03*
X138586Y359483D02*
D03*
Y371294D02*
D03*
X447247Y350389D02*
D03*
Y362200D02*
D03*
X447641Y338578D02*
D03*
Y326767D02*
D03*
X446853Y314956D02*
D03*
Y303145D02*
D03*
X88583Y79134D02*
D03*
Y90945D02*
D03*
X122441Y118504D02*
D03*
Y106693D02*
D03*
X127953Y78740D02*
D03*
Y90551D02*
D03*
X170866Y76378D02*
D03*
Y88189D02*
D03*
X122047Y137008D02*
D03*
Y125197D02*
D03*
X122441Y144882D02*
D03*
Y156693D02*
D03*
Y176772D02*
D03*
Y164961D02*
D03*
X179921Y145472D02*
D03*
Y133661D02*
D03*
X447247Y288971D02*
D03*
Y277160D02*
D03*
D55*
X467520Y33858D02*
D03*
Y73228D02*
D03*
X485236Y33858D02*
D03*
Y73228D02*
D03*
D56*
X18901Y412397D02*
D03*
X144097Y416727D02*
D03*
D57*
X27877Y437200D02*
D03*
X9924D02*
D03*
X135121Y441530D02*
D03*
X153074D02*
D03*
D58*
X96460Y433066D02*
D03*
D59*
X116578Y283578D02*
D03*
Y288578D02*
D03*
Y293578D02*
D03*
X212995Y280153D02*
D03*
Y285153D02*
D03*
Y290153D02*
D03*
D60*
X176587Y36220D02*
D03*
X181587D02*
D03*
X186587D02*
D03*
X191587D02*
D03*
X144992Y36196D02*
D03*
X139992D02*
D03*
X134992D02*
D03*
X129992D02*
D03*
X168130Y36196D02*
D03*
X163130D02*
D03*
X158130D02*
D03*
X153130D02*
D03*
D61*
X31105Y452751D02*
D03*
X23228Y35039D02*
D03*
X446457Y13386D02*
D03*
D62*
X325277Y104922D02*
D03*
X365591Y144923D02*
D03*
X325277Y74922D02*
D03*
X365591Y74923D02*
D03*
X325277Y84922D02*
D03*
X365591Y84923D02*
D03*
X325277Y94922D02*
D03*
X365591Y94923D02*
D03*
Y104923D02*
D03*
X325277Y114922D02*
D03*
Y124922D02*
D03*
X365591Y124923D02*
D03*
X325277Y134922D02*
D03*
X365591Y134923D02*
D03*
Y114923D02*
D03*
D63*
X399843Y23386D02*
D03*
X409842Y33386D02*
D03*
X353937Y31811D02*
D03*
X343937Y21811D02*
D03*
D64*
X409842Y13386D02*
D03*
X353937Y11811D02*
D03*
D65*
X345433Y82401D02*
D03*
D66*
X325277Y144922D02*
D03*
D67*
X8268Y153543D02*
D03*
X224412Y376373D02*
D03*
X300397Y418105D02*
D03*
X474409Y253543D02*
D03*
X46460Y400389D02*
D03*
X244885Y335428D02*
D03*
X155118Y183858D02*
D03*
X333858Y45669D02*
D03*
X8271Y311019D02*
D03*
X153153Y376767D02*
D03*
X158782Y246255D02*
D03*
X194491Y310625D02*
D03*
X114964Y254326D02*
D03*
X421263Y289365D02*
D03*
X101578Y224404D02*
D03*
X327168Y462200D02*
D03*
X78740Y112205D02*
D03*
X78347Y151181D02*
D03*
X78347Y131890D02*
D03*
X78740Y170079D02*
D03*
X389764Y46063D02*
D03*
X96853Y378341D02*
D03*
D68*
X108271Y402357D02*
D03*
X183106Y402325D02*
D03*
D69*
X108271Y471255D02*
D03*
X183106Y471223D02*
D03*
D70*
X7483Y215271D02*
D03*
Y225271D02*
D03*
Y235271D02*
D03*
Y245271D02*
D03*
Y255271D02*
D03*
Y205271D02*
D03*
Y195271D02*
D03*
Y185271D02*
D03*
Y175271D02*
D03*
X7480Y79055D02*
D03*
Y89055D02*
D03*
Y99055D02*
D03*
Y109055D02*
D03*
Y119055D02*
D03*
Y69055D02*
D03*
Y59055D02*
D03*
X286614Y342756D02*
D03*
X99618Y27047D02*
D03*
X89618D02*
D03*
X99618Y17047D02*
D03*
X89618D02*
D03*
X79618Y27047D02*
D03*
Y17047D02*
D03*
X69618Y27047D02*
D03*
Y17047D02*
D03*
X59618Y27047D02*
D03*
X211263Y246255D02*
D03*
X244882Y434921D02*
D03*
X214173Y425315D02*
D03*
X338976Y283228D02*
D03*
X308268Y343032D02*
D03*
D71*
X7483Y265271D02*
D03*
X7480Y129055D02*
D03*
X286614Y352756D02*
D03*
X59618Y17047D02*
D03*
X244882Y424921D02*
D03*
X214173Y435315D02*
D03*
X338976Y273228D02*
D03*
X308268Y353031D02*
D03*
D72*
X307756Y256299D02*
D03*
D73*
X297756D02*
D03*
D74*
X57877Y370074D02*
D03*
D75*
Y350389D02*
D03*
D76*
X436732Y84614D02*
D03*
X246732Y224614D02*
D03*
Y138614D02*
D03*
X436732Y174614D02*
D03*
D77*
Y94614D02*
D03*
Y104614D02*
D03*
Y114614D02*
D03*
Y124614D02*
D03*
Y134614D02*
D03*
Y144614D02*
D03*
Y154614D02*
D03*
Y184614D02*
D03*
Y194614D02*
D03*
Y204614D02*
D03*
Y214614D02*
D03*
Y224614D02*
D03*
X246732Y214614D02*
D03*
Y204614D02*
D03*
Y194614D02*
D03*
Y184614D02*
D03*
Y174614D02*
D03*
Y164614D02*
D03*
Y154614D02*
D03*
Y128614D02*
D03*
Y118614D02*
D03*
Y108614D02*
D03*
Y98614D02*
D03*
Y88614D02*
D03*
Y78614D02*
D03*
Y68614D02*
D03*
Y58614D02*
D03*
Y48614D02*
D03*
D78*
X221263Y246255D02*
D03*
M02*
