M48
;Layer_Color=9474304
;FILE_FORMAT=2:5
INCH,LZ
;TYPE=PLATED
T1F00S00C0.01181
T2F00S00C0.02717
T3F00S00C0.03150
T4F00S00C0.03346
T5F00S00C0.04094
T6F00S00C0.04331
T7F00S00C0.04331
T8F00S00C0.05906
T9F00S00C0.06299
;TYPE=NON_PLATED
T10F00S00C0.03543
T11F00S00C0.12598
%
T01
X0011262Y0002592
X0023073
X0034884
X0040789Y0014403
X0028978
X0040157Y0038583
X0022835Y0069685
X0050394
X0050477Y0079201
X0058661Y0079134
X0070317Y0073458
X008937Y0076378
X0093939Y0073458
X010575
X0113779Y0069685
X0099844Y0061647
X008937Y006063
X0093939Y0049836
X010575
X0110248Y0038662
X0123466Y0038025
X0129921Y0038583
X0135039Y0037008
X0129528Y0045079
Y0049213
X0122441Y0053543
X0130315Y0062598
X0135277Y0061647
X0147088
X0158899
X0166929Y006063
X0172714Y0054602
X0174029Y0036905
X015315Y003937
X0152604Y0048614
X0152756Y0054839
X0152994Y0073458
X0141183
X0130345Y0076485
X0170472Y0073622
X0195276Y0063779
Y005315
X0198425Y0033071
X0196457Y002126
X0198031Y0007677
X0188427Y0002592
X0176616
X0164805
X0152994
X0141183
X0133465Y0005143
Y001341
X0122512Y0017047
X0111655Y0014403
X0117561Y0026214
X010575
X0079921Y0012205
X0069618Y0008071
X0058506Y0002592
X0046695
X00526Y0014403
X0070317Y0049836
X0082128
X0201181Y005315
X0208268Y0065354
X0212049Y0073458
X0200984Y0072441
X0221654Y0068504
X0229766Y0061647
X0235671Y0073458
X0271104
X027701Y0061647
X0288821
X0283465Y0053543
X0282915Y0049836
X0271104
X0262205Y005748
X0265198Y0061647
X0261811Y0025459
X0271104Y0026214
X0282915
X0294726
X0298425Y0018504
X0306537Y0026214
X0318348
X0330159
X0336065Y0038025
X0347876
X0353781Y0049836
X034197
X0347876Y0061647
X0336065
X0324254
X0312443
X0302362Y0058661
X0298228Y0054724
X0301969Y0037008
X0318348Y0049836
Y0073458
X0330159
X034197
X0353781
Y0026214
X0347876Y0014403
X0336065
X0324254
X0330159Y0002592
X034197
X0353781
X0318348
X0306537
X0294726
X0282915
X0271104
X0259293
X0247482
X0235671
X022386
X0212049
X0200238
X0219291Y0024016
X0225984Y0028346
X0235671Y0026214
X0247482
X0265198Y0014403
X0219291Y0044882
X0294726Y0073458
X0306537
X0365592
X0371498Y0061647
X0383309
X039512
X0406931
X0418742
X0426772Y0059449
X0424647Y0049836
X0436458
X0448269
X046008
X0465986Y0061647
X0477797
X0485827Y007559
X046008Y0073458
X0456299Y0070866
X0448269Y0073458
X0436458
X0412836
X0401025
X0389214
Y0049836
X0401025
X0412836
X0418742Y0038025
X0430553
X0442364
X0454175
X046008Y0026214
X0448269
X0436458
X0424647
X0412836
X0401025
X0389214
X0377403
X0365592
X0371498Y0038025
X0383309
X039512
X0406931
Y0014403
X0418742
X0430553
X0442364
X0454175
X0465986
X0468898Y0006299
X0471891Y0002592
X0483702
X0489608Y0014403
X0483702Y0026214
X0486614Y0037008
X0477797Y0038025
X0454175Y0061647
X046008Y0002592
X0448269
X0436458
X0424647
X0412836
X0401025
X0389214
X0377403
X0365592
X0371498Y0014403
X0383309
X039512
X0359687
Y0038025
X0365592Y0049836
X0379134Y0047244
X0359687Y0061647
Y0085269
X0371498
X0383309
X039512
X0406931
X0418742
X0412836Y009708
X0401025
X0389214
X039512Y0108891
X0406931
X0418742
X0412836Y0120702
X0401025
X0389214
X039512Y0132513
X0406931
X0418742
X0412836Y0144325
X0401025
X0389214
X039512Y0156135
X0406931
X0418742
X0412836Y0167947
X0401025
X0389214
X039512Y0179757
X0406931
X0412205Y0184252
X0401025Y0191569
X0398425Y0194095
X0389214Y0191569
X0377403
X0365592
X0371498Y020338
X0383309
X039512
X0406931
X0412205Y021063
X0420472Y0220079
X0406931Y0227002
X039512
X0383309
X0371498
X0359687
Y020338
Y0179757
X0371498
X0365592Y0167947
X0371498Y0156135
X0383309
Y0132513
X0371498
X0359687
X0365592Y0144325
X0359687Y0156135
X0365592Y0120702
X0371498Y0108891
X0383309
X0359687
X0365592Y009708
X0448269
X046008
X0465986Y0108891
X0477797
X0489608
X0486614Y0105118
X0483702Y0120702
X0489608Y0132513
X0477797
X0465986
X0454175
X0457087Y0125197
X046008Y0120702
X0448269
X0454175Y0108891
Y0085269
X0465986
X0477797
X0483702Y0144325
X0489608Y0156135
X0477797
X0465986
X0454175
X046008Y0167947
X0448269
X0436458
X0420472Y0174016
X0454175Y0179757
X0465986
X0477797
X0489608
X0483702Y0191569
X0489608Y020338
X0477797
X0465986
X0454175
X046008Y0215191
X0448269
Y0191569
X046008
X0472835Y022441
X0477797Y0227002
X0489608
X0483702Y0215191
Y0167947
X046008Y0144325
X0448269
X0353781
X034197
X0330159
X0318348
X0306537
X0294726
X0300632Y0156135
X0312443
X0324254
X0336065
X0347876
X0353781Y0167947
X034197
X0330159
X0318348
X0306537
X0294726
X0300632Y0179757
X0312443
X0324254
X0336065
X0347876
X0353781Y0191569
X034197
X0330159
X0318348
X0306537
X0294726
X0300632Y020338
X0307874Y0207878
X030748Y0216142
X0294726Y0215191
X0282915
X0271104
X0259293
X0265198Y0227002
X027701
X0288821
X0300632
X0312443
X0307756Y0233633
X0324254Y0227002
X0336065
X0347876
Y020338
X0336065
X0324254
X0312443
X0288821
X027701
X0278346Y0193701
X0271104Y0191569
X0259293
X0265198Y020338
X0270079Y0179921
X027701Y0179757
X0288821
Y0156135
X027701
X0265198
X0257874Y0153937
X0259293Y0167947
X0235671
X0233465Y0176378
X0223425Y0173819
X0218504Y0173622
X0219685Y018189
X0208661Y0176378
X0212049Y0191569
X0206143Y020338
X0201575Y0216535
X0217954Y0227002
X0229766
X0250394Y0233858
X0258268Y0233071
X0235671Y0191569
X022559Y0198425
X0223425Y0156299
X0217954Y0156135
X0211258Y0156181
X0217954Y0132513
X0223425Y0133465
X0230589Y0140671
X0235671Y0144325
X0247482
X0265198Y0132513
X027701
X0288821
X0300632
X0312443
X0324254
X0336065
X0347876
X0353781Y0120702
X034197
X0330159
X0318348
X0306537
X0294726
X0300632Y0108891
X0312443
X0324254
X0336065
X0347876
X0353781Y009708
X034197
X0330159
X0318348
X0306537
X0294726
X0300632Y0085269
X0312443
X0324254
X0336065
X0347876
X0288821
X027701
X0265748Y0088583
X0262303Y0092913
X0265198Y0108891
X027701
X0288821
X0230709Y0118898
X0221654Y0119291
X0201575Y0117323
Y013492
X0211417Y0106693
X0217954Y0085269
X0229766
X0194332Y0108891
X0190157Y0115748
X0191339Y0127165
X0180709Y0122835
X0179921Y0133268
X0188427Y0144325
X0176616Y0167947
X0164805
X0152994
X0141183
X0129372
X0135277Y0179757
X0147088
X017071
X0167323Y0188189
X0164805Y0215191
X0152994
X0159295Y0222027
X0172047Y022441
X0182521Y0227002
X0178347Y0233465
X0177953Y0212992
X0194332Y020338
Y0227002
X0123668Y0210149
X012516Y0204857
X0120472Y0206299
Y019685
X0125591Y0196457
X0122908Y0193758
X0111655Y0179757
X0099844
X0094882Y0198031
X0102362Y0201575
X009252Y0222441
X0082336Y0227202
X0074803Y0229528
X007441Y0234434
X0072047Y0232283
X0064411Y0227002
X0059842Y0235039
X0058268Y0208661
X0065851Y0208774
X0072835Y0216929
Y0217323
X0074016Y0197638
X0076222Y0179757
X0064411
X0070317Y0167947
X0063779Y0159055
X0051181Y0150787
X0044488Y013189
X0062992Y0119291
X0068504Y0122835
X006811Y0111417
X007874Y0101181
X0082128Y009708
X0093939
X010575
X0117561
X0129372
X0141183
X0147088Y0108891
X0158899
X017071
X0176616Y009708
X0181102Y0099606
X0164805Y009708
X0152362Y0088583
X0147088Y0085269
X0135277
X0123466
X0111655
X0099844
X0088033
Y0108891
X0099844
X0135277
X0153937Y0130315
X0152994Y0144325
X0141183
X0129372
X010575
X0093939
X0082128
X0070317
X0088033Y0156135
X0086614Y0161811
X0099844Y0156135
X0119685Y0158268
X005Y0190157
X0050394Y0205118
X0050787Y0212598
X0046695Y0215191
X0044094Y0088583
X0173622Y0082284
X0040157Y0127953
X0040551Y0190551
X0032283Y0190157
X0024803
X001811Y0190551
X0017167Y0227002
X0028978
X0040789
X0042126Y0216535
X0034884Y0238813
X0023073
X0028978Y0250624
X0040789
X0002348Y0259828
X0011811Y0303543
X0019291Y0323622
X0025987Y0333853
X0011262Y0333301
X0003911Y0355657
X0003937Y0359449
X0029921Y0359055
X0038192Y0354326
X002126Y0370472
X0025987Y0386609
X0043704Y038031
X008268Y0379523
X0088586Y0386609
X0085433Y0355906
X0072441Y0348425
X0064411Y0345112
X00526
X0050787Y0309842
X007559
X0082284Y0291732
X0087138Y0252762
X0082128Y0238813
X0058506
X0046695
Y0262435
X0058506
X0064411Y0250624
X0046655Y0277364
X010575Y0262435
X0122001Y0277948
X0143704Y0278341
X0144488Y0266929
X0149609Y0268499
X0162601Y0267711
X0170082Y0268722
X018268Y0267711
X0183465Y0273622
X0178347Y0278346
X0179924Y0285034
X0183071Y0284646
X0188366Y0278871
X0198425Y0273622
X0179528Y0246063
X0170863Y0238588
X0164961Y0238976
X0144882Y0246457
X0156302Y0278341
X0162601Y0285428
X0156696Y0296058
X0150003Y029409
X0147088Y0297868
X0141339Y0308661
X0140945Y0312598
X0137795Y0311024
X0137008Y0314961
X0133465Y0311811
X0133858Y0308268
X0136614Y0306693
X0118898Y0312992
X0127953Y0325197
X0140637Y0337624
X0157909Y0337707
X0153049Y0352909
X0163966Y0363381
X0168113Y0369483
X0171653Y0379921
X017071Y0392356
X0182521
X0194332
X0192129Y0371649
X0185827Y0374803
X0182283Y0338583
X0180366Y0331114
X0176616Y0309679
X0166142Y0312992
X0187964Y0313386
X0170475Y0294877
X0111655Y0345112
X0118113Y0353538
X0140157Y0377165
X0207483Y0383066
X0212049Y0380545
X0214567Y0390551
X0217326Y0368893
X0229766Y0368734
X0241577
X0246066Y0355901
X0234255Y0355108
X022386Y0356923
X0212049
X0200238
X0229766Y0345112
X0235671Y0333301
X022386
X021772Y0331491
X0229766Y032149
X0274806Y0321649
X027701Y0297868
X0294726Y0309679
X0301969Y0305906
X0298034Y0329916
X0311811Y0340945
X0323228Y0349606
X0326378Y0348425
X0325596Y0351966
X0325197Y0354724
X0324254Y0368734
X0336065
X0349216Y0366137
X0354122Y0377554
X0330159Y0380545
X0312992Y0384646
X0300632Y0368734
X0288821
X027701
X0265198
X0271104Y0380545
X0282915
X0288821Y0392356
X027701
X0265198
X0253387
X0241577
X0247482Y0380545
X0259293
X0235671
X0261417Y0349213
X0262205Y0345276
X0266535Y0347244
Y0351181
X027559Y0358268
X0265198Y0274246
X0271104Y0262435
X0282915
X0294726
X0306537
X0318348
X0324254Y0250624
X0336065
X0347876
X0353781Y0262435
X034197
X0347876Y0274246
X0353781Y0286057
Y0309679
X035394Y0316924
X0342916Y0322042
X034197Y0309679
X0326378Y0311024
X0329134Y0305118
X0349216Y0336215
X0353781Y0238813
X034197
X0330159
X0318348
X0294726
X0282915
X0271104
X0258709Y0241657
X0265198Y0250624
X027701
X0288821
X0300632
X023937Y0252362
X0235671Y0238813
X0217717Y0255512
X0213779Y0256299
X0210236
X0212598Y0252756
X0359687Y0250624
X0371498
X0383309
X039512
X0406931
X0418742
X0430553
X0442364
X0454175
X0465986
X0471891Y0262435
X0483702
X0489608Y0274246
X0477797
X0470082Y0277554
X0465986Y0274246
X0454175
X046008Y0262435
X0448269
Y0238813
X046008
X0471891
X0483702
X0489608Y0250624
X0483702Y0286057
X0478743Y0287003
X0489608Y0297868
X0485042Y0311412
X0489608Y032149
X0487798Y0337003
X0479924Y0343696
X0468901Y0350389
X0454727Y0354719
X0450057Y0346049
X0448269Y0333301
X0436458
X0432286Y033031
X0433861Y0317711
X0436458Y0309679
X0448269
X0454175Y0297868
X0465986
X0469294Y0301963
X0468901Y0323223
Y0328341
X0470082Y0378341
X0466979Y0381083
X0471225Y0385784
X046905Y0392711
X0461861Y038779
X0458271Y0386609
X0455712Y0379916
X0450003Y037283
X0439373Y0365349
X0436458Y0356923
X0430712Y0360231
X0426775Y0368105
Y037716
X043268Y0378341
X0414964Y0377554
X0410334Y0371161
X0403153Y0374011
X0405908Y0383853
X041457Y0390153
X0446824Y0390627
X0479924Y0386609
X0476025Y0380666
X0490554Y0360625
X043268Y0348814
X0427168Y0348026
X0426775Y034094
X041831Y034842
X0415751Y0351963
X0412859Y0354011
X0410595Y0360271
X0410104Y0342515
X0394097Y0342121
X0397149Y0348129
X0384649Y0342121
X0389214Y0333301
X0377403
Y0309679
X0389214
X0401025
X0406931Y0297868
X0418742
X0430553
X0442364
X0440945Y0290551
X0430553Y0274246
X0418742
X0406931
X039512
X0401025Y0286057
X0389214
X0377403
X0365592
X0371498Y0274246
X0359687
X0365592Y0262435
X0377403
X0401025
X0424647
Y0238813
X0401025
X0389214
X0377403
X0365592
Y0309679
X0390554Y0322436
X0404334Y0329916
X0410104Y032481
X0415751Y0325192
X039512Y0297868
X0384255Y0355901
X0383309Y0368734
X0371498
X0377403Y0380545
X0375958Y0389984
X0383074Y0393696
X0365592Y0380545
Y0404167
X0366538Y0414562
X0366643Y0422042
X0365592Y0427789
X0377403
X0387798Y0428341
X0392339Y0438756
X0400162Y0435663
X0401025Y0451411
X0412836
X0420082Y0447867
X0424647Y0451411
X0433861Y0457869
X0430553Y0463222
X0420475Y0471255
X039512Y0463222
X0383309
X0371498
X0359687
X0360633Y0449601
X0365592Y0451411
X0377403
X0389214
X0392916Y0415349
X040079Y0412987
X0401025Y0404167
X0409845Y04059
X0417323Y0399606
X0427168Y0395664
X0433861Y0395183
X0438979Y0405113
X0444339Y0410822
X0445279Y0415743
X0450838Y0420861
X0457877Y0420074
X0462657Y0419952
X0462018Y0409641
X0456167Y0407686
X0456546Y039655
X0463783Y0397633
X0449871Y0401101
X0438192Y0420074
X0427562Y0424798
X0424647Y0427789
X0420082Y0429523
X0413779Y0430709
X041457Y0423519
X0417869Y0417591
X0427168Y04122
X0429528Y0437795
X0445003Y0437289
X0445279Y0428735
X0449216Y0456688
X0448822Y0462987
X0452759Y046385
X0471891Y0451411
X0480318Y0446452
X0484832Y0437261
X0480712Y0432278
X0474771Y043789
X0475987Y0419286
X0485436Y041968
X0482483Y0400536
X0468948Y0413019
X0403153Y0395664
X0394491Y0398617
X0383074Y040905
X0377403Y0404167
X0353781
X0330159
X0336065Y0415978
X0336617Y0422042
X0344097Y0418105
X0324254Y0415978
X0312443
Y04396
X0324254
X0335928Y0442858
X0346853Y0446845
X0347876Y0463222
X0336065
X0312443
X0300632
X0304331Y0455905
X0300295Y0450303
X0296457Y0441732
X0287763Y0432394
X0270318Y0441339
X0268504Y0449606
X0265198Y0463222
X027701
X0288821
X0253387
Y04396
X026162Y0431982
X0259293Y0427789
X0235671
X0243307Y0410236
X0207951Y0417237
X0201181Y0400394
X0200787Y0453937
X0159845Y0452751
Y0461019
X0159055Y0443307
X0138586Y0442121
X0138192Y045157
X0097638Y0451968
X0094491Y0460625
X0098822Y0468893
X0088586Y0448814
X0081105Y0449995
X0072247Y0446649
X0070082Y0453538
Y0460625
X006297Y0468027
X0056822Y045358
X0062995Y0442908
X0062205Y0416535
X0071653Y0409842
X0080708Y041181
X0079137Y0402751
X0098948Y0395973
X0096086Y0423819
X0100394Y0425984
X0097244Y0430709
X0084842Y0426387
X0087798Y0420861
X0081102Y0431495
X007205Y0424798
X0043704Y0461019
X0005369Y043936
T02
X0343937Y0021811
X0353937Y0031811
Y0011811
T03
X0057877Y0350389
Y0370074
T04
X0246732Y0048614
Y0058614
Y0068614
Y0078614
X0436732Y0084614
Y0094614
Y0104614
Y0114614
Y0124614
Y0134614
Y0144614
Y0154614
Y0174614
Y0184614
Y0194614
Y0204614
Y0214614
Y0224614
X0246732
Y0214614
Y0204614
Y0194614
Y0184614
Y0174614
Y0164614
Y0154614
Y0138614
Y0128614
Y0118614
Y0108614
Y0098614
Y0088614
T05
X0297756Y0256299
X0307756
T06
X0059618Y0017047
Y0027047
X0069618
Y0017047
X0079618
Y0027047
X0089618
Y0017047
X0099618
Y0027047
T07
X000748Y0059055
Y0069055
Y0079055
Y0089055
Y0099055
Y0109055
Y0119055
Y0129055
X0007483Y0175271
Y0185271
Y0195271
Y0205271
Y0215271
Y0225271
Y0235271
Y0245271
Y0255271
Y0265271
X0211263Y0246255
X0221263
X0338976Y0273228
Y0283228
X0308268Y0343032
Y0353031
X0286614Y0352756
Y0342756
X0244882Y0424921
Y0434921
X0214173Y0435315
Y0425315
T08
X0108271Y0402357
Y0471255
X0183106Y0471223
Y0402325
T09
X0333858Y0045669
X0155118Y0183858
X007874Y0170079
X0078347Y0151181
X0078347Y013189
X007874Y0112205
X0101578Y0224404
X0008268Y0153543
X0008271Y0311019
X0100787Y0340158
X0153153Y0376767
X0194491Y0310625
X0158782Y0246255
X0114964Y0254326
X0244885Y0335428
X0224412Y0376373
X0421263Y0289365
X0474409Y0253543
X0300397Y0418105
X0327168Y04622
X0046457Y0400787
T10
X007765Y0055905
X0116626Y0056693
X0157965
Y0083465
X0116626
X007765Y0082677
X0165748Y0126862
Y0153634
X0008271Y0338578
Y0365349
X0063389Y0261412
X009016
T11
X0011811Y0011811
X0480709
X0480712Y0461412
X0012208Y0461019
M30
