G04*
G04 #@! TF.GenerationSoftware,Altium Limited,Altium Designer,22.2.1 (43)*
G04*
G04 Layer_Color=0*
%FSLAX25Y25*%
%MOIN*%
G70*
G04*
G04 #@! TF.SameCoordinates,0C248E19-6CAA-4B9F-B23F-7957EF95655F*
G04*
G04*
G04 #@! TF.FilePolarity,Positive*
G04*
G01*
G75*
%ADD15C,0.00394*%
%ADD96C,0.00197*%
D15*
X166341Y360625D02*
Y378735D01*
X157286Y360625D02*
X166341D01*
X157286D02*
Y378735D01*
X166341D01*
X159845Y369680D02*
X163783D01*
X161814Y367711D02*
Y371649D01*
X108271Y434837D02*
Y438774D01*
X106302Y436806D02*
X110239D01*
X91538Y388381D02*
Y477357D01*
X126971D01*
X91538Y388381D02*
X126971D01*
Y477357D01*
X166373Y388349D02*
Y477325D01*
X201806D01*
X166373Y388349D02*
X201806D01*
Y477325D01*
X181137Y436774D02*
X185074D01*
X183106Y434806D02*
Y438743D01*
X459302Y372436D02*
Y390546D01*
X468357D01*
Y372436D02*
Y390546D01*
X459302Y372436D02*
X468357D01*
X461861Y381491D02*
X465798D01*
X463830Y379523D02*
Y383459D01*
X474216Y392515D02*
X478153D01*
X476184Y390546D02*
Y394483D01*
X485239Y387987D02*
Y397042D01*
X467129D02*
X485239D01*
X467129Y387987D02*
Y397042D01*
Y387987D02*
X485239D01*
X468357Y416924D02*
Y435034D01*
X459302Y416924D02*
X468357D01*
X459302D02*
Y435034D01*
X468357D01*
X461861Y425979D02*
X465798D01*
X463830Y424011D02*
Y427948D01*
X234764Y-27559D02*
Y246850D01*
X448701D01*
Y-27559D02*
Y246850D01*
X234764Y-27559D02*
X448701D01*
X341732Y134646D02*
Y138583D01*
X339764Y136614D02*
X343701D01*
X81893Y341727D02*
X85830D01*
X83861Y339759D02*
Y343696D01*
X93113Y337003D02*
Y346452D01*
X74609D02*
X93113D01*
X74609Y337003D02*
Y346452D01*
Y337003D02*
X93113D01*
X8271Y294090D02*
Y298026D01*
X6302Y296058D02*
X10239D01*
X3743Y305113D02*
X12798D01*
X3743Y287003D02*
Y305113D01*
Y287003D02*
X12798D01*
Y305113D01*
X111024Y329528D02*
X114961D01*
X112992Y327559D02*
Y331496D01*
X103937Y325000D02*
Y334055D01*
Y325000D02*
X122047D01*
Y334055D01*
X103937D02*
X122047D01*
X109452Y350782D02*
X113389D01*
X111420Y348814D02*
Y352751D01*
X102365Y346255D02*
Y355310D01*
Y346255D02*
X120475D01*
Y355310D01*
X102365D02*
X120475D01*
X232877Y341137D02*
Y359247D01*
X241932D01*
Y341137D02*
Y359247D01*
X232877Y341137D02*
X241932D01*
X235436Y350192D02*
X239373D01*
X237404Y348223D02*
Y352160D01*
X242326Y340940D02*
Y359050D01*
X251381D01*
Y340940D02*
Y359050D01*
X242326Y340940D02*
X251381D01*
X244885Y349995D02*
X248822D01*
X246853Y348026D02*
Y351963D01*
X242916Y367121D02*
X261027D01*
Y358066D02*
Y367121D01*
X242916Y358066D02*
X261027D01*
X242916D02*
Y367121D01*
X251971Y360625D02*
Y364562D01*
X250003Y362593D02*
X253940D01*
X171263Y367515D02*
Y371452D01*
X169294Y369483D02*
X173231D01*
X166538Y378735D02*
X175987D01*
X166538Y360231D02*
Y378735D01*
Y360231D02*
X175987D01*
Y378735D01*
X187402Y344094D02*
X191339D01*
X189370Y342126D02*
Y346063D01*
X198622Y339370D02*
Y348819D01*
X180118D02*
X198622D01*
X180118Y339370D02*
Y348819D01*
Y339370D02*
X198622D01*
X156696Y300389D02*
Y304326D01*
X154727Y302357D02*
X158664D01*
X152168Y311412D02*
X161223D01*
X152168Y293302D02*
Y311412D01*
Y293302D02*
X161223D01*
Y311412D01*
X66932Y200507D02*
Y204444D01*
X64964Y202475D02*
X68901D01*
X62405Y193420D02*
X71460D01*
Y211530D01*
X62405D02*
X71460D01*
X62405Y193420D02*
Y211530D01*
X148822Y277948D02*
X152759D01*
X150790Y275979D02*
Y279916D01*
X141735Y273420D02*
Y282475D01*
Y273420D02*
X159845D01*
Y282475D01*
X141735D02*
X159845D01*
X118507Y262397D02*
Y280901D01*
X127956D01*
Y262397D02*
Y280901D01*
X118507Y262397D02*
X127956D01*
X121263Y271649D02*
X125200D01*
X123231Y269680D02*
Y273617D01*
X369885Y392908D02*
X373822D01*
X371853Y390940D02*
Y394877D01*
X380908Y388381D02*
Y397436D01*
X362798D02*
X380908D01*
X362798Y388381D02*
Y397436D01*
Y388381D02*
X380908D01*
X462255Y401373D02*
Y405310D01*
X460286Y403341D02*
X464223D01*
X457727Y412397D02*
X466782D01*
X457727Y394286D02*
Y412397D01*
Y394286D02*
X466782D01*
Y412397D01*
X446901Y398617D02*
X450838D01*
X448869Y396649D02*
Y400586D01*
X457924Y394090D02*
Y403145D01*
X439814D02*
X457924D01*
X439814Y394090D02*
Y403145D01*
Y394090D02*
X457924D01*
X451822Y372239D02*
Y390349D01*
X460877D01*
Y372239D02*
Y390349D01*
X451822Y372239D02*
X460877D01*
X454381Y381294D02*
X458318D01*
X456349Y379326D02*
Y383263D01*
X447885Y407672D02*
X451822D01*
X449853Y405704D02*
Y409641D01*
X440798Y403145D02*
Y412200D01*
Y403145D02*
X458908D01*
Y412200D01*
X440798D02*
X458908D01*
X473279Y412003D02*
X477215D01*
X475247Y410034D02*
Y413971D01*
X484302Y407475D02*
Y416530D01*
X466192D02*
X484302D01*
X466192Y407475D02*
Y416530D01*
Y407475D02*
X484302D01*
X442176Y385231D02*
X446113D01*
X444145Y383263D02*
Y387200D01*
X435089Y380704D02*
Y389759D01*
Y380704D02*
X453200D01*
Y389759D01*
X435089D02*
X453200D01*
X331893Y435034D02*
Y438971D01*
X329924Y437003D02*
X333861D01*
X327365Y427948D02*
X336420D01*
Y446058D01*
X327365D02*
X336420D01*
X327365Y427948D02*
Y446058D01*
X77168Y211848D02*
Y230352D01*
X86617D01*
Y211848D02*
Y230352D01*
X77168Y211848D02*
X86617D01*
X79924Y221100D02*
X83861D01*
X81893Y219131D02*
Y223068D01*
X202756Y24016D02*
X206693D01*
X204724Y22047D02*
Y25984D01*
X213779Y19488D02*
Y28543D01*
X195669D02*
X213779D01*
X195669Y19488D02*
Y28543D01*
Y19488D02*
X213779D01*
X268898Y25591D02*
X272835D01*
X270866Y23622D02*
Y27559D01*
X279921Y21063D02*
Y30118D01*
X261811D02*
X279921D01*
X261811Y21063D02*
Y30118D01*
Y21063D02*
X279921D01*
X179921Y137598D02*
Y141535D01*
X177953Y139567D02*
X181890D01*
X175394Y148622D02*
X184449D01*
X175394Y130512D02*
Y148622D01*
Y130512D02*
X184449D01*
Y148622D01*
X456349Y422239D02*
Y426176D01*
X454381Y424208D02*
X458318D01*
X451822Y433263D02*
X460877D01*
X451822Y415153D02*
Y433263D01*
Y415153D02*
X460877D01*
Y433263D01*
D96*
X203642Y406102D02*
X221555D01*
Y415158D01*
X203642D02*
X221555D01*
X203642Y406102D02*
Y415158D01*
M02*
