G04*
G04 #@! TF.GenerationSoftware,Altium Limited,Altium Designer,22.2.1 (43)*
G04*
G04 Layer_Color=128*
%FSLAX25Y25*%
%MOIN*%
G70*
G04*
G04 #@! TF.SameCoordinates,4E49CD7B-458B-4419-AA35-A4D937858E37*
G04*
G04*
G04 #@! TF.FilePolarity,Positive*
G04*
G01*
G75*
%ADD47R,0.07480X0.05118*%
%ADD49R,0.07087X0.04724*%
%ADD93R,0.07284X0.07087*%
%ADD94R,0.04724X0.07087*%
%ADD95R,0.05118X0.07480*%
D47*
X171263Y363774D02*
D03*
Y375192D02*
D03*
X123231Y265940D02*
D03*
Y277357D02*
D03*
X81893Y215391D02*
D03*
Y226808D02*
D03*
D49*
X463830Y375782D02*
D03*
Y387200D02*
D03*
Y431688D02*
D03*
Y420271D02*
D03*
X8271Y290349D02*
D03*
Y301767D02*
D03*
X237404Y344483D02*
D03*
Y355901D02*
D03*
X246853Y344286D02*
D03*
Y355704D02*
D03*
X161814Y363971D02*
D03*
Y375389D02*
D03*
X156696Y296649D02*
D03*
Y308066D02*
D03*
X66932Y208184D02*
D03*
Y196767D02*
D03*
X462255Y397633D02*
D03*
Y409050D02*
D03*
X456349Y375586D02*
D03*
Y387003D02*
D03*
X331893Y442711D02*
D03*
Y431294D02*
D03*
X179921Y133858D02*
D03*
Y145276D02*
D03*
X456349Y418499D02*
D03*
Y429916D02*
D03*
D93*
X208268Y410630D02*
D03*
X216929D02*
D03*
D94*
X470475Y392515D02*
D03*
X481893D02*
D03*
X118701Y329528D02*
D03*
X107283D02*
D03*
X117129Y350782D02*
D03*
X105712D02*
D03*
X246263Y362593D02*
D03*
X257680D02*
D03*
X156499Y277948D02*
D03*
X145082D02*
D03*
X366145Y392908D02*
D03*
X377562D02*
D03*
X443160Y398617D02*
D03*
X454578D02*
D03*
X455562Y407672D02*
D03*
X444145D02*
D03*
X469538Y412003D02*
D03*
X480956D02*
D03*
X449853Y385231D02*
D03*
X438436D02*
D03*
X199016Y24016D02*
D03*
X210433D02*
D03*
X265158Y25591D02*
D03*
X276575D02*
D03*
D95*
X78153Y341727D02*
D03*
X89570D02*
D03*
X183661Y344094D02*
D03*
X195079D02*
D03*
M02*
