G04*
G04 #@! TF.GenerationSoftware,Altium Limited,Altium Designer,22.2.1 (43)*
G04*
G04 Layer_Color=32896*
%FSLAX25Y25*%
%MOIN*%
G70*
G04*
G04 #@! TF.SameCoordinates,0C248E19-6CAA-4B9F-B23F-7957EF95655F*
G04*
G04*
G04 #@! TF.FilePolarity,Positive*
G04*
G01*
G75*
%ADD11C,0.00787*%
%ADD13C,0.01000*%
G36*
X391105Y224384D02*
X392325Y223570D01*
X393410Y221808D01*
Y219096D01*
X392867Y218011D01*
X391918Y217062D01*
X390562Y216384D01*
X388664Y216248D01*
X386901Y216927D01*
X386088Y217740D01*
X385274Y219096D01*
X385138Y221266D01*
X385410Y222215D01*
X386088Y223299D01*
X387172Y224113D01*
X388393Y224655D01*
X390291D01*
X391105Y224384D01*
D02*
G37*
G36*
X344189Y209469D02*
X345545Y208927D01*
X345274Y207164D01*
X345138Y189130D01*
X341206D01*
Y204045D01*
X340528Y204859D01*
X339172Y205808D01*
X337816Y205943D01*
X337274Y205672D01*
X336732Y204723D01*
X336596Y189130D01*
X332664D01*
X332799Y206893D01*
X333477Y208384D01*
X334562Y209333D01*
X336189Y209876D01*
X338630Y209604D01*
X339986Y208927D01*
X341342Y207842D01*
X341477Y208655D01*
X341884Y210011D01*
X344189Y209469D01*
D02*
G37*
G36*
X296460Y209062D02*
X296189Y207435D01*
X296054Y189130D01*
X291986D01*
Y204316D01*
X290088Y205808D01*
X288325D01*
X287647Y204859D01*
X287511Y189130D01*
X283579D01*
X283715Y207028D01*
X284257Y208248D01*
X285477Y209333D01*
X287105Y209876D01*
X289545Y209604D01*
X290630Y209062D01*
X292257Y207842D01*
X292799Y210011D01*
X296460Y209062D01*
D02*
G37*
G36*
X383104D02*
X382698Y207028D01*
X382562Y189130D01*
X378630D01*
Y204181D01*
X377952Y204859D01*
X376596Y205808D01*
X375240Y205943D01*
X374698Y205672D01*
X374155Y204723D01*
X374020Y189130D01*
X370088D01*
Y206079D01*
X370494Y207706D01*
X370901Y208384D01*
X371986Y209333D01*
X373613Y209876D01*
X374833D01*
X376460Y209469D01*
X378223Y208384D01*
X378766Y207706D01*
X379308Y210011D01*
X383104Y209062D01*
D02*
G37*
G36*
X324664Y209604D02*
X325749Y208927D01*
X327376Y207028D01*
X328189Y205401D01*
X328867Y202825D01*
Y196045D01*
X328189Y193333D01*
X326698Y190757D01*
X325206Y189537D01*
X323308Y188723D01*
X320189D01*
X318562Y189266D01*
X317071Y190215D01*
X315986Y191299D01*
X316528Y192655D01*
X317477Y194282D01*
X317749D01*
X318291Y193604D01*
X320054Y192520D01*
X322088Y192384D01*
X323037Y192791D01*
X323986Y193740D01*
X324528Y195096D01*
X324799Y198215D01*
X315715D01*
X315986Y203774D01*
X316664Y206215D01*
X317613Y207842D01*
X319240Y209333D01*
X321274Y210011D01*
X322476D01*
Y206543D01*
X321681Y206621D01*
X320867Y206215D01*
X320460Y205672D01*
X320054Y204723D01*
X319782Y201469D01*
X324799D01*
X324393Y204723D01*
X323715Y206079D01*
X323172Y206486D01*
X322488Y206543D01*
Y210011D01*
X323172D01*
X324664Y209604D01*
D02*
G37*
G36*
X391240Y213130D02*
Y189130D01*
X387172D01*
Y213537D01*
X391240Y213130D01*
D02*
G37*
G36*
X361410Y218418D02*
X363037Y217604D01*
X363986Y216384D01*
X364799Y214215D01*
Y209469D01*
X366155D01*
Y205943D01*
X364799D01*
Y189130D01*
X360732D01*
Y205943D01*
X357749D01*
X357071Y209469D01*
X360732D01*
Y213401D01*
X360189Y214621D01*
X359783Y214893D01*
X358291D01*
X357342Y214350D01*
X356664Y215977D01*
X356257Y217604D01*
X356935Y218011D01*
X358833Y218554D01*
X361410Y218418D01*
D02*
G37*
G36*
X354088Y209333D02*
Y189130D01*
X350020D01*
Y209876D01*
X354088Y209333D01*
D02*
G37*
G36*
X308664Y209604D02*
X310155Y208655D01*
X311511Y206893D01*
X312189Y205537D01*
X313003Y202554D01*
X313138Y197266D01*
X312732Y194689D01*
X311918Y192248D01*
X311104Y190893D01*
X309884Y189672D01*
X307986Y188723D01*
X306542Y188647D01*
X305410Y188587D01*
X303783Y188994D01*
X302291Y189943D01*
X300935Y191774D01*
X300393Y192655D01*
X299444Y195910D01*
X299308Y201876D01*
X299579Y203638D01*
X300393Y206079D01*
X301613Y207977D01*
X303240Y209333D01*
X305274Y210011D01*
X307172D01*
X308664Y209604D01*
D02*
G37*
G36*
X396799Y219503D02*
X400732Y217062D01*
X404257Y214350D01*
X407647Y210825D01*
X409816Y207842D01*
X411037Y205537D01*
X412121Y202011D01*
Y196588D01*
X411444Y194147D01*
X409816Y190893D01*
X408732Y189266D01*
X407511Y187774D01*
X405613Y185876D01*
X403511Y184181D01*
X402223Y183164D01*
X400054Y181672D01*
X397071Y179910D01*
X394223Y178418D01*
X389206Y176249D01*
X382969Y174079D01*
X375376Y172045D01*
X367918Y170554D01*
X359240Y169333D01*
X349071Y168520D01*
X331986Y168384D01*
X322359Y169062D01*
X314088Y170147D01*
X306223Y171638D01*
X297410Y173943D01*
X289003Y176927D01*
X285206Y178554D01*
X280867Y180859D01*
X277206Y182893D01*
X273952Y185062D01*
X272325Y186282D01*
X270969Y187367D01*
X270155Y188181D01*
X270020Y188723D01*
X270427Y188587D01*
X272596Y186825D01*
X276799Y184113D01*
X280189Y182350D01*
X285749Y180045D01*
X291986Y178011D01*
X299579Y176113D01*
X308528Y174486D01*
X318833Y173266D01*
X330766Y172588D01*
X336596Y172655D01*
X345907Y172853D01*
X350427Y173130D01*
X357613Y173808D01*
X366426Y175164D01*
X371037Y176113D01*
X374291Y176927D01*
X379037Y178282D01*
X383511Y179910D01*
X386088Y180994D01*
X389206Y182486D01*
X392325Y184248D01*
X394223Y185469D01*
X396528Y187232D01*
X398427Y188859D01*
X399782Y190350D01*
X400732Y191570D01*
X401681Y192927D01*
X402630Y194554D01*
X403308Y196181D01*
X403986Y198486D01*
X404257Y202282D01*
X403850Y204045D01*
X402766Y206486D01*
X401003Y209062D01*
X400189Y210011D01*
X398969Y211232D01*
X397206Y212723D01*
X393545Y215435D01*
X392867Y215706D01*
X392732Y216113D01*
X393274Y216384D01*
X394088Y217604D01*
X394630Y218825D01*
X394901Y220452D01*
X396799Y219503D01*
D02*
G37*
%LPC*%
G36*
X305816Y206350D02*
X305138Y206079D01*
X304460Y205265D01*
X303783Y203367D01*
Y195503D01*
X304325Y193604D01*
X304867Y192791D01*
X305816Y192248D01*
X306494Y192384D01*
X307037D01*
X308121Y193604D01*
X308664Y195231D01*
X308935Y200384D01*
X308528Y204045D01*
X307986Y205401D01*
X307037Y206215D01*
X305816Y206350D01*
D02*
G37*
%LPD*%
D11*
X164964Y367711D02*
Y371649D01*
X158664Y367711D02*
Y371649D01*
X114570Y473027D02*
X123034D01*
X93507D02*
X101971D01*
X95475Y462003D02*
Y467515D01*
X123034Y466530D02*
X125003D01*
Y463774D02*
Y466530D01*
X123034Y463774D02*
X125003D01*
X123034Y399601D02*
Y463774D01*
Y399601D02*
X125003D01*
Y396845D02*
Y399601D01*
X123034Y396845D02*
X125003D01*
X123034Y390349D02*
Y396845D01*
X93507Y390349D02*
Y395861D01*
X95475D01*
Y400979D01*
X93507D02*
X95475D01*
X93507D02*
Y462003D01*
X95475D01*
X93507Y467515D02*
X95475D01*
X93507D02*
Y473027D01*
X123034Y466530D02*
Y473027D01*
X93507Y390349D02*
X123034D01*
X170310Y461971D02*
Y467483D01*
X197869Y466499D02*
X199838D01*
Y463743D02*
Y466499D01*
X197869Y463743D02*
X199838D01*
X197869Y399570D02*
Y463743D01*
Y399570D02*
X199838D01*
Y396814D02*
Y399570D01*
X197869Y396814D02*
X199838D01*
X197869Y390318D02*
Y396814D01*
X168342Y390318D02*
Y395830D01*
X170310D01*
Y400948D01*
X168342D02*
X170310D01*
X168342D02*
Y461971D01*
X170310D01*
X168342Y467483D02*
X170310D01*
X168342D02*
Y472995D01*
X197869Y466499D02*
Y472995D01*
X168342Y390318D02*
X197869D01*
X168342Y472995D02*
X176806D01*
X189405D02*
X197869D01*
X460680Y379523D02*
Y383459D01*
X466979Y379523D02*
Y383459D01*
X474216Y395664D02*
X478153D01*
X474216Y389365D02*
X478153D01*
X466979Y424011D02*
Y427948D01*
X460680Y424011D02*
Y427948D01*
X82090Y344877D02*
X85633D01*
X82090Y338578D02*
X85633D01*
X5121Y294090D02*
Y298026D01*
X11420Y294090D02*
Y298026D01*
X111024Y326378D02*
X114961D01*
X111024Y332677D02*
X114961D01*
X109452Y347633D02*
X113389D01*
X109452Y353932D02*
X113389D01*
X234255Y348223D02*
Y352160D01*
X240554Y348223D02*
Y352160D01*
X243704Y348026D02*
Y351963D01*
X250003Y348026D02*
Y351963D01*
X250003Y365743D02*
X253940D01*
X250003Y359444D02*
X253940D01*
X168113Y367711D02*
Y371255D01*
X174412Y367711D02*
Y371255D01*
X187598Y347244D02*
X191142D01*
X187598Y340945D02*
X191142D01*
X153546Y300389D02*
Y304326D01*
X159845Y300389D02*
Y304326D01*
X70082Y200507D02*
Y204444D01*
X63782Y200507D02*
Y204444D01*
X148822Y274798D02*
X152759D01*
X148822Y281097D02*
X152759D01*
X120082Y269877D02*
Y273420D01*
X126381Y269877D02*
Y273420D01*
X369885Y396058D02*
X373822D01*
X369885Y389759D02*
X373822D01*
X459105Y401373D02*
Y405310D01*
X465405Y401373D02*
Y405310D01*
X446901Y401767D02*
X450838D01*
X446901Y395467D02*
X450838D01*
X453200Y379326D02*
Y383263D01*
X459499Y379326D02*
Y383263D01*
X447885Y404523D02*
X451822D01*
X447885Y410822D02*
X451822D01*
X473279Y415153D02*
X477215D01*
X473279Y408853D02*
X477215D01*
X442176Y382082D02*
X446113D01*
X442176Y388381D02*
X446113D01*
X335042Y435034D02*
Y438971D01*
X328743Y435034D02*
Y438971D01*
X78743Y219328D02*
Y222871D01*
X85042Y219328D02*
Y222871D01*
X202756Y27165D02*
X206693D01*
X202756Y20866D02*
X206693D01*
X268898Y28740D02*
X272835D01*
X268898Y22441D02*
X272835D01*
X176772Y137598D02*
Y141535D01*
X183071Y137598D02*
Y141535D01*
X453200Y422239D02*
Y426176D01*
X459499Y422239D02*
Y426176D01*
X469685Y112992D02*
Y116928D01*
X467717D01*
X467061Y116272D01*
Y114960D01*
X467717Y114304D01*
X469685D01*
X468373D02*
X467061Y112992D01*
X463126Y116928D02*
X465749D01*
Y112992D01*
X463126D01*
X465749Y114960D02*
X464437D01*
X459190Y116272D02*
X459846Y116928D01*
X461158D01*
X461814Y116272D01*
Y115616D01*
X461158Y114960D01*
X459846D01*
X459190Y114304D01*
Y113648D01*
X459846Y112992D01*
X461158D01*
X461814Y113648D01*
X455254Y116928D02*
X457878D01*
Y112992D01*
X455254D01*
X457878Y114960D02*
X456566D01*
X453942Y116928D02*
X451318D01*
X452630D01*
Y112992D01*
X210545Y80027D02*
X211201Y80682D01*
X212513D01*
X213169Y80027D01*
Y77403D01*
X212513Y76747D01*
X211201D01*
X210545Y77403D01*
Y78715D01*
X211857D01*
X209233Y76747D02*
Y80682D01*
X206609Y76747D01*
Y80682D01*
X205297D02*
Y76747D01*
X203329D01*
X202673Y77403D01*
Y80027D01*
X203329Y80682D01*
X205297D01*
X488189Y196455D02*
Y193176D01*
X487533Y192520D01*
X486221D01*
X485565Y193176D01*
Y196455D01*
X484253Y192520D02*
X482285D01*
X481629Y193176D01*
X482285Y193832D01*
X483597D01*
X484253Y194488D01*
X483597Y195143D01*
X481629D01*
X478350Y192520D02*
X479662D01*
X480317Y193176D01*
Y194488D01*
X479662Y195143D01*
X478350D01*
X477694Y194488D01*
Y193832D01*
X480317D01*
X476382Y195143D02*
Y192520D01*
Y193832D01*
X475726Y194488D01*
X475070Y195143D01*
X474414D01*
X468510Y192520D02*
Y196455D01*
X466542D01*
X465886Y195800D01*
Y194488D01*
X466542Y193832D01*
X468510D01*
X463919Y192520D02*
X462607D01*
X461951Y193176D01*
Y194488D01*
X462607Y195143D01*
X463919D01*
X464574Y194488D01*
Y193176D01*
X463919Y192520D01*
X459983Y195800D02*
Y195143D01*
X460639D01*
X459327D01*
X459983D01*
Y193176D01*
X459327Y192520D01*
X457359D02*
X456047D01*
X456703D01*
Y196455D01*
X457359Y195800D01*
X490551Y187007D02*
X489239D01*
X489895D01*
Y183071D01*
X490551D01*
X489239D01*
X487271D02*
Y185695D01*
X485303D01*
X484648Y185039D01*
Y183071D01*
X480712Y187007D02*
Y183071D01*
X482680D01*
X483336Y183727D01*
Y185039D01*
X482680Y185695D01*
X480712D01*
X472840Y186351D02*
X473496Y187007D01*
X474808D01*
X475464Y186351D01*
Y183727D01*
X474808Y183071D01*
X473496D01*
X472840Y183727D01*
X471528Y185695D02*
Y183727D01*
X470872Y183071D01*
X468905D01*
Y185695D01*
X467593D02*
Y183071D01*
Y184383D01*
X466937Y185039D01*
X466281Y185695D01*
X465625D01*
X463657D02*
Y183071D01*
Y184383D01*
X463001Y185039D01*
X462345Y185695D01*
X461689D01*
X457753Y183071D02*
X459065D01*
X459721Y183727D01*
Y185039D01*
X459065Y185695D01*
X457753D01*
X457097Y185039D01*
Y184383D01*
X459721D01*
X455786Y183071D02*
Y185695D01*
X453818D01*
X453162Y185039D01*
Y183071D01*
X451194Y186351D02*
Y185695D01*
X451850D01*
X450538D01*
X451194D01*
Y183727D01*
X450538Y183071D01*
X229310Y119659D02*
Y116379D01*
X228654Y115723D01*
X227342D01*
X226687Y116379D01*
Y119659D01*
X222751Y119003D02*
X223407Y119659D01*
X224719D01*
X225375Y119003D01*
Y118347D01*
X224719Y117691D01*
X223407D01*
X222751Y117035D01*
Y116379D01*
X223407Y115723D01*
X224719D01*
X225375Y116379D01*
X218815Y119659D02*
X221439D01*
Y115723D01*
X218815D01*
X221439Y117691D02*
X220127D01*
X217503Y115723D02*
Y119659D01*
X215535D01*
X214879Y119003D01*
Y117691D01*
X215535Y117035D01*
X217503D01*
X216191D02*
X214879Y115723D01*
X209632Y119659D02*
Y115723D01*
X207008D01*
X203072Y119659D02*
X205696D01*
Y115723D01*
X203072D01*
X205696Y117691D02*
X204384D01*
X201760Y119659D02*
Y115723D01*
X199792D01*
X199136Y116379D01*
Y119003D01*
X199792Y119659D01*
X201760D01*
X195201Y115723D02*
X197824D01*
X195201Y118347D01*
Y119003D01*
X195856Y119659D01*
X197168D01*
X197824Y119003D01*
X229704Y129895D02*
Y126615D01*
X229048Y125959D01*
X227736D01*
X227080Y126615D01*
Y129895D01*
X223144Y129239D02*
X223800Y129895D01*
X225112D01*
X225768Y129239D01*
Y128583D01*
X225112Y127927D01*
X223800D01*
X223144Y127271D01*
Y126615D01*
X223800Y125959D01*
X225112D01*
X225768Y126615D01*
X219209Y129895D02*
X221832D01*
Y125959D01*
X219209D01*
X221832Y127927D02*
X220521D01*
X217897Y125959D02*
Y129895D01*
X215929D01*
X215273Y129239D01*
Y127927D01*
X215929Y127271D01*
X217897D01*
X216585D02*
X215273Y125959D01*
X210025Y129895D02*
Y125959D01*
X207401D01*
X203466Y129895D02*
X206090D01*
Y125959D01*
X203466D01*
X206090Y127927D02*
X204778D01*
X202154Y129895D02*
Y125959D01*
X200186D01*
X199530Y126615D01*
Y129239D01*
X200186Y129895D01*
X202154D01*
X198218Y125959D02*
X196906D01*
X197562D01*
Y129895D01*
X198218Y129239D01*
X460762Y127164D02*
X463386D01*
Y125196D01*
X462074Y125852D01*
X461418D01*
X460762Y125196D01*
Y123884D01*
X461418Y123228D01*
X462730D01*
X463386Y123884D01*
X459450Y127164D02*
Y124540D01*
X458138Y123228D01*
X456826Y124540D01*
Y127164D01*
X227953Y51967D02*
Y48687D01*
X227297Y48031D01*
X225985D01*
X225329Y48687D01*
Y51967D01*
X224017Y48031D02*
X222049D01*
X221393Y48687D01*
X222049Y49343D01*
X223361D01*
X224017Y49999D01*
X223361Y50655D01*
X221393D01*
X218113Y48031D02*
X219425D01*
X220081Y48687D01*
Y49999D01*
X219425Y50655D01*
X218113D01*
X217458Y49999D01*
Y49343D01*
X220081D01*
X216145Y50655D02*
Y48031D01*
Y49343D01*
X215490Y49999D01*
X214834Y50655D01*
X214178D01*
X208274Y48031D02*
Y51967D01*
X206306D01*
X205650Y51311D01*
Y49999D01*
X206306Y49343D01*
X208274D01*
X203682Y48031D02*
X202371D01*
X201714Y48687D01*
Y49999D01*
X202371Y50655D01*
X203682D01*
X204338Y49999D01*
Y48687D01*
X203682Y48031D01*
X199747Y51311D02*
Y50655D01*
X200403D01*
X199091D01*
X199747D01*
Y48687D01*
X199091Y48031D01*
X194499D02*
X197123D01*
X194499Y50655D01*
Y51311D01*
X195155Y51967D01*
X196467D01*
X197123Y51311D01*
X230491Y205486D02*
Y202206D01*
X229835Y201550D01*
X228523D01*
X227868Y202206D01*
Y205486D01*
X223932Y204830D02*
X224588Y205486D01*
X225900D01*
X226556Y204830D01*
Y204174D01*
X225900Y203518D01*
X224588D01*
X223932Y202862D01*
Y202206D01*
X224588Y201550D01*
X225900D01*
X226556Y202206D01*
X219996Y205486D02*
X222620D01*
Y201550D01*
X219996D01*
X222620Y203518D02*
X221308D01*
X218684Y201550D02*
Y205486D01*
X216716D01*
X216060Y204830D01*
Y203518D01*
X216716Y202862D01*
X218684D01*
X217372D02*
X216060Y201550D01*
X210813Y205486D02*
Y201550D01*
X208845D01*
X208189Y202206D01*
Y202862D01*
X208845Y203518D01*
X210813D01*
X208845D01*
X208189Y204174D01*
Y204830D01*
X208845Y205486D01*
X210813D01*
X206877D02*
X204253D01*
X205565D01*
Y201550D01*
X202941D02*
Y205486D01*
X200317Y201550D01*
Y205486D01*
X199005Y201550D02*
X197694D01*
X198349D01*
Y205486D01*
X199005Y204830D01*
X226293Y176483D02*
X226949Y177139D01*
X228261D01*
X228917Y176483D01*
Y173859D01*
X228261Y173204D01*
X226949D01*
X226293Y173859D01*
X224981Y173204D02*
Y177139D01*
X222357Y173204D01*
Y177139D01*
X221045D02*
X218421D01*
X219733D01*
Y173204D01*
X217109D02*
Y177139D01*
X215142D01*
X214486Y176483D01*
Y175171D01*
X215142Y174515D01*
X217109D01*
X215797D02*
X214486Y173204D01*
X213174Y177139D02*
Y173204D01*
X210550D01*
X209238Y176483D02*
X208582Y177139D01*
X207270D01*
X206614Y176483D01*
Y175827D01*
X207270Y175171D01*
X207926D01*
X207270D01*
X206614Y174515D01*
Y173859D01*
X207270Y173204D01*
X208582D01*
X209238Y173859D01*
X489767Y205110D02*
Y202486D01*
X488455Y201174D01*
X487143Y202486D01*
Y205110D01*
X485831D02*
X484519D01*
X485175D01*
Y201174D01*
X485831D01*
X484519D01*
X482551D02*
Y203798D01*
X480583D01*
X479927Y203142D01*
Y201174D01*
X474680D02*
Y205110D01*
X473368Y203798D01*
X472056Y205110D01*
Y201174D01*
X468776D02*
X470088D01*
X470744Y201830D01*
Y203142D01*
X470088Y203798D01*
X468776D01*
X468120Y203142D01*
Y202486D01*
X470744D01*
X466152Y203798D02*
X464840D01*
X464184Y203142D01*
Y201174D01*
X466152D01*
X466808Y201830D01*
X466152Y202486D01*
X464184D01*
X462873Y201174D02*
X460905D01*
X460249Y201830D01*
X460905Y202486D01*
X462217D01*
X462873Y203142D01*
X462217Y203798D01*
X460249D01*
X230491Y156667D02*
Y153387D01*
X229835Y152731D01*
X228523D01*
X227868Y153387D01*
Y156667D01*
X223932Y156011D02*
X224588Y156667D01*
X225900D01*
X226556Y156011D01*
Y155355D01*
X225900Y154699D01*
X224588D01*
X223932Y154043D01*
Y153387D01*
X224588Y152731D01*
X225900D01*
X226556Y153387D01*
X219996Y156667D02*
X222620D01*
Y152731D01*
X219996D01*
X222620Y154699D02*
X221308D01*
X218684Y152731D02*
Y156667D01*
X216716D01*
X216060Y156011D01*
Y154699D01*
X216716Y154043D01*
X218684D01*
X217372D02*
X216060Y152731D01*
X210813Y156667D02*
Y152731D01*
X208845D01*
X208189Y153387D01*
Y154043D01*
X208845Y154699D01*
X210813D01*
X208845D01*
X208189Y155355D01*
Y156011D01*
X208845Y156667D01*
X210813D01*
X206877D02*
X204253D01*
X205565D01*
Y152731D01*
X202941D02*
Y156667D01*
X200317Y152731D01*
Y156667D01*
X196382Y152731D02*
X199005D01*
X196382Y155355D01*
Y156011D01*
X197038Y156667D01*
X198349D01*
X199005Y156011D01*
X230885Y165328D02*
Y161392D01*
X228917D01*
X228261Y162048D01*
Y162704D01*
X228917Y163360D01*
X230885D01*
X228917D01*
X228261Y164016D01*
Y164672D01*
X228917Y165328D01*
X230885D01*
X226949D02*
Y162048D01*
X226293Y161392D01*
X224981D01*
X224325Y162048D01*
Y165328D01*
X220390Y164672D02*
X221046Y165328D01*
X222358D01*
X223014Y164672D01*
Y162048D01*
X222358Y161392D01*
X221046D01*
X220390Y162048D01*
X219078Y165328D02*
Y161392D01*
Y162704D01*
X216454Y165328D01*
X218422Y163360D01*
X216454Y161392D01*
X208583Y164672D02*
X209239Y165328D01*
X210550D01*
X211206Y164672D01*
Y162048D01*
X210550Y161392D01*
X209239D01*
X208583Y162048D01*
X207271Y161392D02*
Y165328D01*
X204647Y161392D01*
Y165328D01*
X203335D02*
X200711D01*
X202023D01*
Y161392D01*
X199399D02*
Y165328D01*
X197431D01*
X196775Y164672D01*
Y163360D01*
X197431Y162704D01*
X199399D01*
X198087D02*
X196775Y161392D01*
X195463Y165328D02*
Y161392D01*
X192840D01*
X227474Y138688D02*
X228130Y139344D01*
X229442D01*
X230098Y138688D01*
Y138032D01*
X229442Y137376D01*
X228130D01*
X227474Y136720D01*
Y136064D01*
X228130Y135408D01*
X229442D01*
X230098Y136064D01*
X226162Y139344D02*
Y135408D01*
Y137376D01*
X223538D01*
Y139344D01*
Y135408D01*
X222226Y139344D02*
Y136064D01*
X221570Y135408D01*
X220258D01*
X219602Y136064D01*
Y139344D01*
X218290D02*
X215667D01*
X216979D01*
Y135408D01*
X214355Y139344D02*
Y135408D01*
X212387D01*
X211731Y136064D01*
Y138688D01*
X212387Y139344D01*
X214355D01*
X208451D02*
X209763D01*
X210419Y138688D01*
Y136064D01*
X209763Y135408D01*
X208451D01*
X207795Y136064D01*
Y138688D01*
X208451Y139344D01*
X206483D02*
Y135408D01*
X205171Y136720D01*
X203859Y135408D01*
Y139344D01*
X202548Y135408D02*
Y139344D01*
X199924Y135408D01*
Y139344D01*
X227474Y185932D02*
X228130Y186588D01*
X229442D01*
X230098Y185932D01*
Y183308D01*
X229442Y182652D01*
X228130D01*
X227474Y183308D01*
X226162Y182652D02*
Y186588D01*
X223538Y182652D01*
Y186588D01*
X222226D02*
X219602D01*
X220914D01*
Y182652D01*
X218290D02*
Y186588D01*
X216323D01*
X215667Y185932D01*
Y184620D01*
X216323Y183964D01*
X218290D01*
X216979D02*
X215667Y182652D01*
X214355Y186588D02*
Y182652D01*
X211731D01*
X207795D02*
X210419D01*
X207795Y185276D01*
Y185932D01*
X208451Y186588D01*
X209763D01*
X210419Y185932D01*
X229704Y109423D02*
Y106143D01*
X229048Y105487D01*
X227736D01*
X227080Y106143D01*
Y109423D01*
X223144Y108767D02*
X223800Y109423D01*
X225112D01*
X225768Y108767D01*
Y108111D01*
X225112Y107455D01*
X223800D01*
X223144Y106799D01*
Y106143D01*
X223800Y105487D01*
X225112D01*
X225768Y106143D01*
X219209Y109423D02*
X221832D01*
Y105487D01*
X219209D01*
X221832Y107455D02*
X220521D01*
X217897Y105487D02*
Y109423D01*
X215929D01*
X215273Y108767D01*
Y107455D01*
X215929Y106799D01*
X217897D01*
X216585D02*
X215273Y105487D01*
X210025Y109423D02*
Y105487D01*
X207401D01*
X203466Y109423D02*
X206090D01*
Y105487D01*
X203466D01*
X206090Y107455D02*
X204778D01*
X202154Y109423D02*
Y105487D01*
X200186D01*
X199530Y106143D01*
Y108767D01*
X200186Y109423D01*
X202154D01*
X198218Y108767D02*
X197562Y109423D01*
X196250D01*
X195594Y108767D01*
Y108111D01*
X196250Y107455D01*
X196906D01*
X196250D01*
X195594Y106799D01*
Y106143D01*
X196250Y105487D01*
X197562D01*
X198218Y106143D01*
X226161Y101155D02*
Y97875D01*
X225505Y97219D01*
X224193D01*
X223537Y97875D01*
Y101155D01*
X219601Y100499D02*
X220257Y101155D01*
X221569D01*
X222225Y100499D01*
Y99843D01*
X221569Y99187D01*
X220257D01*
X219601Y98531D01*
Y97875D01*
X220257Y97219D01*
X221569D01*
X222225Y97875D01*
X215665Y101155D02*
X218289D01*
Y97219D01*
X215665D01*
X218289Y99187D02*
X216977D01*
X214353Y97219D02*
Y101155D01*
X212386D01*
X211730Y100499D01*
Y99187D01*
X212386Y98531D01*
X214353D01*
X213042D02*
X211730Y97219D01*
X203858Y100499D02*
X204514Y101155D01*
X205826D01*
X206482Y100499D01*
Y99843D01*
X205826Y99187D01*
X204514D01*
X203858Y98531D01*
Y97875D01*
X204514Y97219D01*
X205826D01*
X206482Y97875D01*
X202546Y101155D02*
Y97219D01*
X201234Y98531D01*
X199922Y97219D01*
Y101155D01*
X489767Y215686D02*
Y213063D01*
X488455Y211751D01*
X487143Y213063D01*
Y215686D01*
X483863D02*
X485175D01*
X485831Y215030D01*
Y212407D01*
X485175Y211751D01*
X483863D01*
X483207Y212407D01*
Y215030D01*
X483863Y215686D01*
X481895Y214374D02*
Y212407D01*
X481239Y211751D01*
X479271D01*
Y214374D01*
X477304Y215030D02*
Y214374D01*
X477959D01*
X476648D01*
X477304D01*
Y212407D01*
X476648Y211751D01*
X470744D02*
Y215686D01*
X469432Y214374D01*
X468120Y215686D01*
Y211751D01*
X464840D02*
X466152D01*
X466808Y212407D01*
Y213719D01*
X466152Y214374D01*
X464840D01*
X464184Y213719D01*
Y213063D01*
X466808D01*
X462217Y214374D02*
X460905D01*
X460249Y213719D01*
Y211751D01*
X462217D01*
X462873Y212407D01*
X462217Y213063D01*
X460249D01*
X458937Y211751D02*
X456969D01*
X456313Y212407D01*
X456969Y213063D01*
X458281D01*
X458937Y213719D01*
X458281Y214374D01*
X456313D01*
X463518Y137532D02*
X464174Y138188D01*
X465486D01*
X466142Y137532D01*
Y134908D01*
X465486Y134252D01*
X464174D01*
X463518Y134908D01*
Y136220D01*
X464830D01*
X462206Y134252D02*
Y138188D01*
X459582Y134252D01*
Y138188D01*
X458270D02*
Y134252D01*
X456302D01*
X455646Y134908D01*
Y137532D01*
X456302Y138188D01*
X458270D01*
X463124Y146981D02*
X463780Y147636D01*
X465092D01*
X465748Y146981D01*
Y144357D01*
X465092Y143701D01*
X463780D01*
X463124Y144357D01*
Y145669D01*
X464436D01*
X461812Y143701D02*
Y147636D01*
X459189Y143701D01*
Y147636D01*
X457877D02*
Y143701D01*
X455909D01*
X455253Y144357D01*
Y146981D01*
X455909Y147636D01*
X457877D01*
X229704Y90525D02*
Y87245D01*
X229048Y86589D01*
X227736D01*
X227080Y87245D01*
Y90525D01*
X223144Y89869D02*
X223800Y90525D01*
X225112D01*
X225768Y89869D01*
Y89213D01*
X225112Y88557D01*
X223800D01*
X223144Y87901D01*
Y87245D01*
X223800Y86589D01*
X225112D01*
X225768Y87245D01*
X219209Y90525D02*
X221832D01*
Y86589D01*
X219209D01*
X221832Y88557D02*
X220521D01*
X217897Y86589D02*
Y90525D01*
X215929D01*
X215273Y89869D01*
Y88557D01*
X215929Y87901D01*
X217897D01*
X216585D02*
X215273Y86589D01*
X210025Y90525D02*
Y86589D01*
X207401D01*
X203466Y90525D02*
X206090D01*
Y86589D01*
X203466D01*
X206090Y88557D02*
X204778D01*
X202154Y90525D02*
Y86589D01*
X200186D01*
X199530Y87245D01*
Y89869D01*
X200186Y90525D01*
X202154D01*
X196250Y86589D02*
Y90525D01*
X198218Y88557D01*
X195594D01*
X488583Y177558D02*
X487271D01*
X487927D01*
Y173622D01*
X488583D01*
X487271D01*
X485303D02*
Y176246D01*
X483335D01*
X482679Y175590D01*
Y173622D01*
X474808Y176902D02*
X475464Y177558D01*
X476776D01*
X477431Y176902D01*
Y174278D01*
X476776Y173622D01*
X475464D01*
X474808Y174278D01*
X473496Y176246D02*
Y174278D01*
X472840Y173622D01*
X470872D01*
Y176246D01*
X469560D02*
Y173622D01*
Y174934D01*
X468904Y175590D01*
X468248Y176246D01*
X467592D01*
X465624D02*
Y173622D01*
Y174934D01*
X464968Y175590D01*
X464312Y176246D01*
X463656D01*
X459721Y173622D02*
X461032D01*
X461689Y174278D01*
Y175590D01*
X461032Y176246D01*
X459721D01*
X459065Y175590D01*
Y174934D01*
X461689D01*
X457753Y173622D02*
Y176246D01*
X455785D01*
X455129Y175590D01*
Y173622D01*
X453161Y176902D02*
Y176246D01*
X453817D01*
X452505D01*
X453161D01*
Y174278D01*
X452505Y173622D01*
X226687Y194200D02*
X227342Y194856D01*
X228654D01*
X229310Y194200D01*
Y191576D01*
X228654Y190920D01*
X227342D01*
X226687Y191576D01*
X225375Y190920D02*
Y194856D01*
X222751Y190920D01*
Y194856D01*
X221439D02*
X218815D01*
X220127D01*
Y190920D01*
X217503D02*
Y194856D01*
X215535D01*
X214879Y194200D01*
Y192888D01*
X215535Y192232D01*
X217503D01*
X216191D02*
X214879Y190920D01*
X213567Y194856D02*
Y190920D01*
X210944D01*
X209632D02*
X208320D01*
X208976D01*
Y194856D01*
X209632Y194200D01*
X490554Y221517D02*
Y225453D01*
X487930Y221517D01*
Y225453D01*
X486618D02*
X483995D01*
X485307D01*
Y221517D01*
X480059Y224797D02*
X480715Y225453D01*
X482027D01*
X482683Y224797D01*
Y222173D01*
X482027Y221517D01*
X480715D01*
X480059Y222173D01*
X478747Y220861D02*
X476123D01*
X472187Y225453D02*
X474811D01*
Y221517D01*
X472187D01*
X474811Y223485D02*
X473499D01*
X470876Y225453D02*
X468252Y221517D01*
Y225453D02*
X470876Y221517D01*
X466940Y225453D02*
X464316D01*
X465628D01*
Y221517D01*
X104334Y444284D02*
X108270Y441660D01*
X104334D02*
X108270Y444284D01*
Y440348D02*
Y439036D01*
Y439692D01*
X104334D01*
X104990Y440348D01*
Y437069D02*
X104334Y436413D01*
Y435101D01*
X104990Y434445D01*
X107614D01*
X108270Y435101D01*
Y436413D01*
X107614Y437069D01*
X104990D01*
Y433133D02*
X104334Y432477D01*
Y431165D01*
X104990Y430509D01*
X107614D01*
X108270Y431165D01*
Y432477D01*
X107614Y433133D01*
X104990D01*
X181992Y385594D02*
X184616Y389530D01*
Y385594D02*
X181992Y389530D01*
X185928D02*
X187240D01*
X186584D01*
Y385594D01*
X185928Y386250D01*
X189207D02*
X189864Y385594D01*
X191175D01*
X191831Y386250D01*
Y388874D01*
X191175Y389530D01*
X189864D01*
X189207Y388874D01*
Y386250D01*
X193143Y389530D02*
X194455D01*
X193799D01*
Y385594D01*
X193143Y386250D01*
X171129Y143437D02*
X170473Y144093D01*
Y145405D01*
X171129Y146061D01*
X173753D01*
X174409Y145405D01*
Y144093D01*
X173753Y143437D01*
X171129Y142125D02*
X170473Y141469D01*
Y140157D01*
X171129Y139501D01*
X171785D01*
X172441Y140157D01*
X173097Y139501D01*
X173753D01*
X174409Y140157D01*
Y141469D01*
X173753Y142125D01*
X173097D01*
X172441Y141469D01*
X171785Y142125D01*
X171129D01*
X172441Y141469D02*
Y140157D01*
X174409Y138189D02*
Y136877D01*
Y137533D01*
X170473D01*
X171129Y138189D01*
X174409Y132942D02*
X170473D01*
X172441Y134909D01*
Y132286D01*
X267390Y17192D02*
X266734Y16536D01*
X265422D01*
X264766Y17192D01*
Y19816D01*
X265422Y20472D01*
X266734D01*
X267390Y19816D01*
X268702Y17192D02*
X269358Y16536D01*
X270670D01*
X271326Y17192D01*
Y17848D01*
X270670Y18504D01*
X271326Y19160D01*
Y19816D01*
X270670Y20472D01*
X269358D01*
X268702Y19816D01*
Y19160D01*
X269358Y18504D01*
X268702Y17848D01*
Y17192D01*
X269358Y18504D02*
X270670D01*
X272638Y20472D02*
X273949D01*
X273293D01*
Y16536D01*
X272638Y17192D01*
X275917D02*
X276573Y16536D01*
X277885D01*
X278541Y17192D01*
Y17848D01*
X277885Y18504D01*
X277229D01*
X277885D01*
X278541Y19160D01*
Y19816D01*
X277885Y20472D01*
X276573D01*
X275917Y19816D01*
X199148Y30578D02*
X198492Y29922D01*
X197180D01*
X196524Y30578D01*
Y33202D01*
X197180Y33858D01*
X198492D01*
X199148Y33202D01*
X200460Y30578D02*
X201116Y29922D01*
X202428D01*
X203084Y30578D01*
Y31234D01*
X202428Y31890D01*
X203084Y32546D01*
Y33202D01*
X202428Y33858D01*
X201116D01*
X200460Y33202D01*
Y32546D01*
X201116Y31890D01*
X200460Y31234D01*
Y30578D01*
X201116Y31890D02*
X202428D01*
X204396Y33858D02*
X205708D01*
X205052D01*
Y29922D01*
X204396Y30578D01*
X207676Y33858D02*
X208987D01*
X208331D01*
Y29922D01*
X207676Y30578D01*
X73494Y226282D02*
X72838Y226938D01*
Y228250D01*
X73494Y228906D01*
X76118D01*
X76774Y228250D01*
Y226938D01*
X76118Y226282D01*
X72838Y224970D02*
Y222346D01*
X73494D01*
X76118Y224970D01*
X76774D01*
X73494Y221034D02*
X72838Y220378D01*
Y219067D01*
X73494Y218410D01*
X76118D01*
X76774Y219067D01*
Y220378D01*
X76118Y221034D01*
X73494D01*
Y217099D02*
X72838Y216443D01*
Y215131D01*
X73494Y214475D01*
X76118D01*
X76774Y215131D01*
Y216443D01*
X76118Y217099D01*
X73494D01*
X338061Y441201D02*
X337405Y441857D01*
Y443169D01*
X338061Y443825D01*
X340685D01*
X341341Y443169D01*
Y441857D01*
X340685Y441201D01*
X337405Y437265D02*
X338061Y438577D01*
X339373Y439889D01*
X340685D01*
X341341Y439233D01*
Y437921D01*
X340685Y437265D01*
X340029D01*
X339373Y437921D01*
Y439889D01*
X338061Y435953D02*
X337405Y435297D01*
Y433985D01*
X338061Y433329D01*
X338717D01*
X339373Y433985D01*
Y434641D01*
Y433985D01*
X340029Y433329D01*
X340685D01*
X341341Y433985D01*
Y435297D01*
X340685Y435953D01*
X338061Y432018D02*
X337405Y431361D01*
Y430050D01*
X338061Y429394D01*
X340685D01*
X341341Y430050D01*
Y431361D01*
X340685Y432018D01*
X338061D01*
X430576Y385958D02*
X431232Y386613D01*
X432544D01*
X433200Y385958D01*
Y383334D01*
X432544Y382678D01*
X431232D01*
X430576Y383334D01*
X426640Y386613D02*
X429264D01*
Y384646D01*
X427952Y385302D01*
X427296D01*
X426640Y384646D01*
Y383334D01*
X427296Y382678D01*
X428608D01*
X429264Y383334D01*
X423360Y382678D02*
Y386613D01*
X425328Y384646D01*
X422705D01*
X421393Y385958D02*
X420737Y386613D01*
X419425D01*
X418769Y385958D01*
Y383334D01*
X419425Y382678D01*
X420737D01*
X421393Y383334D01*
Y385958D01*
X483532Y421779D02*
X484188Y422435D01*
X485499D01*
X486156Y421779D01*
Y419156D01*
X485499Y418500D01*
X484188D01*
X483532Y419156D01*
X479596Y422435D02*
X482220D01*
Y420467D01*
X480908Y421123D01*
X480252D01*
X479596Y420467D01*
Y419156D01*
X480252Y418500D01*
X481564D01*
X482220Y419156D01*
X478284Y421779D02*
X477628Y422435D01*
X476316D01*
X475660Y421779D01*
Y421123D01*
X476316Y420467D01*
X476972D01*
X476316D01*
X475660Y419811D01*
Y419156D01*
X476316Y418500D01*
X477628D01*
X478284Y419156D01*
X474348Y421779D02*
X473692Y422435D01*
X472380D01*
X471724Y421779D01*
Y421123D01*
X472380Y420467D01*
X473036D01*
X472380D01*
X471724Y419811D01*
Y419156D01*
X472380Y418500D01*
X473692D01*
X474348Y419156D01*
X436913Y409378D02*
X437569Y410034D01*
X438881D01*
X439537Y409378D01*
Y406754D01*
X438881Y406098D01*
X437569D01*
X436913Y406754D01*
X432977Y410034D02*
X435601D01*
Y408066D01*
X434289Y408722D01*
X433633D01*
X432977Y408066D01*
Y406754D01*
X433633Y406098D01*
X434945D01*
X435601Y406754D01*
X431665Y409378D02*
X431009Y410034D01*
X429697D01*
X429041Y409378D01*
Y408722D01*
X429697Y408066D01*
X430353D01*
X429697D01*
X429041Y407410D01*
Y406754D01*
X429697Y406098D01*
X431009D01*
X431665Y406754D01*
X427729Y409378D02*
X427073Y410034D01*
X425761D01*
X425105Y409378D01*
Y406754D01*
X425761Y406098D01*
X427073D01*
X427729Y406754D01*
Y409378D01*
X462861Y367977D02*
X462205Y368634D01*
Y369945D01*
X462861Y370601D01*
X465485D01*
X466141Y369945D01*
Y368634D01*
X465485Y367977D01*
X462205Y364042D02*
Y366666D01*
X464173D01*
X463517Y365354D01*
Y364698D01*
X464173Y364042D01*
X465485D01*
X466141Y364698D01*
Y366010D01*
X465485Y366666D01*
X466141Y360106D02*
Y362730D01*
X463517Y360106D01*
X462861D01*
X462205Y360762D01*
Y362074D01*
X462861Y362730D01*
X466141Y356170D02*
Y358794D01*
X463517Y356170D01*
X462861D01*
X462205Y356826D01*
Y358138D01*
X462861Y358794D01*
X454987Y368503D02*
X454331Y369159D01*
Y370470D01*
X454987Y371127D01*
X457611D01*
X458267Y370470D01*
Y369159D01*
X457611Y368503D01*
X454331Y364567D02*
Y367191D01*
X456299D01*
X455643Y365879D01*
Y365223D01*
X456299Y364567D01*
X457611D01*
X458267Y365223D01*
Y366535D01*
X457611Y367191D01*
X458267Y360631D02*
Y363255D01*
X455643Y360631D01*
X454987D01*
X454331Y361287D01*
Y362599D01*
X454987Y363255D01*
X458267Y359319D02*
Y358007D01*
Y358663D01*
X454331D01*
X454987Y359319D01*
X434907Y399343D02*
X435563Y399999D01*
X436874D01*
X437531Y399343D01*
Y396720D01*
X436874Y396064D01*
X435563D01*
X434907Y396720D01*
X430971Y399999D02*
X433595D01*
Y398031D01*
X432283Y398687D01*
X431627D01*
X430971Y398031D01*
Y396720D01*
X431627Y396064D01*
X432939D01*
X433595Y396720D01*
X427035Y396064D02*
X429659D01*
X427035Y398687D01*
Y399343D01*
X427691Y399999D01*
X429003D01*
X429659Y399343D01*
X425723D02*
X425067Y399999D01*
X423755D01*
X423099Y399343D01*
Y396720D01*
X423755Y396064D01*
X425067D01*
X425723Y396720D01*
Y399343D01*
X481757Y386351D02*
X482413Y387007D01*
X483725D01*
X484381Y386351D01*
Y383728D01*
X483725Y383071D01*
X482413D01*
X481757Y383728D01*
X477821Y387007D02*
X480445D01*
Y385039D01*
X479133Y385695D01*
X478477D01*
X477821Y385039D01*
Y383728D01*
X478477Y383071D01*
X479789D01*
X480445Y383728D01*
X476509Y386351D02*
X475853Y387007D01*
X474542D01*
X473886Y386351D01*
Y383728D01*
X474542Y383071D01*
X475853D01*
X476509Y383728D01*
Y386351D01*
X469950Y387007D02*
X471262Y386351D01*
X472574Y385039D01*
Y383728D01*
X471918Y383071D01*
X470606D01*
X469950Y383728D01*
Y384383D01*
X470606Y385039D01*
X472574D01*
X480579Y403837D02*
X481235Y404494D01*
X482547D01*
X483203Y403837D01*
Y401214D01*
X482547Y400558D01*
X481235D01*
X480579Y401214D01*
X476643Y404494D02*
X479267D01*
Y402526D01*
X477955Y403182D01*
X477299D01*
X476643Y402526D01*
Y401214D01*
X477299Y400558D01*
X478611D01*
X479267Y401214D01*
X475331Y403837D02*
X474675Y404494D01*
X473363D01*
X472707Y403837D01*
Y401214D01*
X473363Y400558D01*
X474675D01*
X475331Y401214D01*
Y403837D01*
X468772Y404494D02*
X471395D01*
Y402526D01*
X470084Y403182D01*
X469428D01*
X468772Y402526D01*
Y401214D01*
X469428Y400558D01*
X470740D01*
X471395Y401214D01*
X375658Y387527D02*
X376314Y388183D01*
X377625D01*
X378281Y387527D01*
Y384904D01*
X377625Y384248D01*
X376314D01*
X375658Y384904D01*
X371722Y388183D02*
X374346D01*
Y386215D01*
X373034Y386871D01*
X372378D01*
X371722Y386215D01*
Y384904D01*
X372378Y384248D01*
X373690D01*
X374346Y384904D01*
X370410Y387527D02*
X369754Y388183D01*
X368442D01*
X367786Y387527D01*
Y384904D01*
X368442Y384248D01*
X369754D01*
X370410Y384904D01*
Y387527D01*
X366474D02*
X365818Y388183D01*
X364506D01*
X363850Y387527D01*
Y384904D01*
X364506Y384248D01*
X365818D01*
X366474Y384904D01*
Y387527D01*
X129006Y275847D02*
X128350Y276502D01*
Y277814D01*
X129006Y278470D01*
X131630D01*
X132286Y277814D01*
Y276502D01*
X131630Y275847D01*
X132286Y272567D02*
X128350D01*
X130318Y274535D01*
Y271911D01*
X129006Y270599D02*
X128350Y269943D01*
Y268631D01*
X129006Y267975D01*
X131630D01*
X132286Y268631D01*
Y269943D01*
X131630Y270599D01*
X129006D01*
X132286Y264695D02*
X128350D01*
X130318Y266663D01*
Y264039D01*
X173096Y278084D02*
X173752Y278740D01*
X175064D01*
X175719Y278084D01*
Y275460D01*
X175064Y274804D01*
X173752D01*
X173096Y275460D01*
X169816Y274804D02*
Y278740D01*
X171784Y276772D01*
X169160D01*
X167848Y278084D02*
X167192Y278740D01*
X165880D01*
X165224Y278084D01*
Y275460D01*
X165880Y274804D01*
X167192D01*
X167848Y275460D01*
Y278084D01*
X161288Y274804D02*
X163912D01*
X161288Y277428D01*
Y278084D01*
X161944Y278740D01*
X163256D01*
X163912Y278084D01*
X74282Y206687D02*
X73626Y207343D01*
Y208654D01*
X74282Y209310D01*
X76905D01*
X77561Y208654D01*
Y207343D01*
X76905Y206687D01*
X77561Y203407D02*
X73626D01*
X75594Y205375D01*
Y202751D01*
X74282Y201439D02*
X73626Y200783D01*
Y199471D01*
X74282Y198815D01*
X76905D01*
X77561Y199471D01*
Y200783D01*
X76905Y201439D01*
X74282D01*
X77561Y197503D02*
Y196191D01*
Y196847D01*
X73626D01*
X74282Y197503D01*
X147899Y297375D02*
X148555Y298031D01*
X149867D01*
X150523Y297375D01*
Y294751D01*
X149867Y294095D01*
X148555D01*
X147899Y294751D01*
X144619Y294095D02*
Y298031D01*
X146587Y296063D01*
X143963D01*
X142651Y297375D02*
X141995Y298031D01*
X140683D01*
X140027Y297375D01*
Y294751D01*
X140683Y294095D01*
X141995D01*
X142651Y294751D01*
Y297375D01*
X138715D02*
X138059Y298031D01*
X136748D01*
X136092Y297375D01*
Y294751D01*
X136748Y294095D01*
X138059D01*
X138715Y294751D01*
Y297375D01*
X195337Y352498D02*
X195993Y353154D01*
X197305D01*
X197961Y352498D01*
Y349874D01*
X197305Y349218D01*
X195993D01*
X195337Y349874D01*
X194025Y352498D02*
X193369Y353154D01*
X192057D01*
X191401Y352498D01*
Y351842D01*
X192057Y351186D01*
X192713D01*
X192057D01*
X191401Y350530D01*
Y349874D01*
X192057Y349218D01*
X193369D01*
X194025Y349874D01*
X187465Y349218D02*
X190089D01*
X187465Y351842D01*
Y352498D01*
X188121Y353154D01*
X189433D01*
X190089Y352498D01*
X184186Y349218D02*
Y353154D01*
X186153Y351186D01*
X183530D01*
X179397Y372833D02*
X178741Y373489D01*
Y374801D01*
X179397Y375457D01*
X182021D01*
X182676Y374801D01*
Y373489D01*
X182021Y372833D01*
X179397Y371521D02*
X178741Y370866D01*
Y369554D01*
X179397Y368898D01*
X180053D01*
X180709Y369554D01*
Y370210D01*
Y369554D01*
X181365Y368898D01*
X182021D01*
X182676Y369554D01*
Y370866D01*
X182021Y371521D01*
X182676Y364962D02*
Y367586D01*
X180053Y364962D01*
X179397D01*
X178741Y365618D01*
Y366930D01*
X179397Y367586D01*
X182676Y363650D02*
Y362338D01*
Y362994D01*
X178741D01*
X179397Y363650D01*
X153412Y369552D02*
X152757Y370208D01*
Y371520D01*
X153412Y372176D01*
X156036D01*
X156692Y371520D01*
Y370208D01*
X156036Y369552D01*
X153412Y368240D02*
X152757Y367584D01*
Y366273D01*
X153412Y365617D01*
X154069D01*
X154724Y366273D01*
Y366929D01*
Y366273D01*
X155380Y365617D01*
X156036D01*
X156692Y366273D01*
Y367584D01*
X156036Y368240D01*
X156692Y361681D02*
Y364305D01*
X154069Y361681D01*
X153412D01*
X152757Y362337D01*
Y363649D01*
X153412Y364305D01*
Y360369D02*
X152757Y359713D01*
Y358401D01*
X153412Y357745D01*
X156036D01*
X156692Y358401D01*
Y359713D01*
X156036Y360369D01*
X153412D01*
X257020Y371391D02*
X257676Y372047D01*
X258987D01*
X259643Y371391D01*
Y368767D01*
X258987Y368111D01*
X257676D01*
X257020Y368767D01*
X255708Y371391D02*
X255052Y372047D01*
X253740D01*
X253084Y371391D01*
Y370735D01*
X253740Y370079D01*
X254396D01*
X253740D01*
X253084Y369423D01*
Y368767D01*
X253740Y368111D01*
X255052D01*
X255708Y368767D01*
X251772Y368111D02*
X250460D01*
X251116D01*
Y372047D01*
X251772Y371391D01*
X245868Y368111D02*
X248492D01*
X245868Y370735D01*
Y371391D01*
X246524Y372047D01*
X247836D01*
X248492Y371391D01*
X252625Y352820D02*
X251969Y353476D01*
Y354788D01*
X252625Y355444D01*
X255249D01*
X255905Y354788D01*
Y353476D01*
X255249Y352820D01*
X252625Y351508D02*
X251969Y350852D01*
Y349541D01*
X252625Y348885D01*
X253281D01*
X253937Y349541D01*
Y350197D01*
Y349541D01*
X254593Y348885D01*
X255249D01*
X255905Y349541D01*
Y350852D01*
X255249Y351508D01*
X255905Y347573D02*
Y346261D01*
Y346917D01*
X251969D01*
X252625Y347573D01*
X255905Y344293D02*
Y342981D01*
Y343637D01*
X251969D01*
X252625Y344293D01*
X227428Y354657D02*
X226772Y355313D01*
Y356625D01*
X227428Y357281D01*
X230052D01*
X230708Y356625D01*
Y355313D01*
X230052Y354657D01*
X227428Y353345D02*
X226772Y352690D01*
Y351378D01*
X227428Y350722D01*
X228084D01*
X228740Y351378D01*
Y352034D01*
Y351378D01*
X229396Y350722D01*
X230052D01*
X230708Y351378D01*
Y352690D01*
X230052Y353345D01*
X230708Y349410D02*
Y348098D01*
Y348754D01*
X226772D01*
X227428Y349410D01*
Y346130D02*
X226772Y345474D01*
Y344162D01*
X227428Y343506D01*
X230052D01*
X230708Y344162D01*
Y345474D01*
X230052Y346130D01*
X227428D01*
X115159Y345401D02*
X115815Y346057D01*
X117127D01*
X117783Y345401D01*
Y342778D01*
X117127Y342122D01*
X115815D01*
X115159Y342778D01*
X113847Y345401D02*
X113191Y346057D01*
X111879D01*
X111223Y345401D01*
Y344745D01*
X111879Y344090D01*
X112535D01*
X111879D01*
X111223Y343433D01*
Y342778D01*
X111879Y342122D01*
X113191D01*
X113847Y342778D01*
X109912Y345401D02*
X109256Y346057D01*
X107944D01*
X107288Y345401D01*
Y342778D01*
X107944Y342122D01*
X109256D01*
X109912Y342778D01*
Y345401D01*
X105976Y342122D02*
X104664D01*
X105320D01*
Y346057D01*
X105976Y345401D01*
X117977Y337532D02*
X118633Y338188D01*
X119945D01*
X120601Y337532D01*
Y334909D01*
X119945Y334253D01*
X118633D01*
X117977Y334909D01*
X116666Y337532D02*
X116010Y338188D01*
X114698D01*
X114042Y337532D01*
Y336876D01*
X114698Y336221D01*
X115354D01*
X114698D01*
X114042Y335564D01*
Y334909D01*
X114698Y334253D01*
X116010D01*
X116666Y334909D01*
X112730Y337532D02*
X112074Y338188D01*
X110762D01*
X110106Y337532D01*
Y334909D01*
X110762Y334253D01*
X112074D01*
X112730Y334909D01*
Y337532D01*
X108794D02*
X108138Y338188D01*
X106826D01*
X106170Y337532D01*
Y334909D01*
X106826Y334253D01*
X108138D01*
X108794Y334909D01*
Y337532D01*
X15617Y301048D02*
X14961Y301704D01*
Y303016D01*
X15617Y303672D01*
X18241D01*
X18897Y303016D01*
Y301704D01*
X18241Y301048D01*
X18897Y297113D02*
Y299736D01*
X16273Y297113D01*
X15617D01*
X14961Y297769D01*
Y299080D01*
X15617Y299736D01*
X18897Y293177D02*
Y295801D01*
X16273Y293177D01*
X15617D01*
X14961Y293833D01*
Y295145D01*
X15617Y295801D01*
Y291865D02*
X14961Y291209D01*
Y289897D01*
X15617Y289241D01*
X18241D01*
X18897Y289897D01*
Y291209D01*
X18241Y291865D01*
X15617D01*
X88519Y334771D02*
X89175Y335427D01*
X90487D01*
X91142Y334771D01*
Y332148D01*
X90487Y331492D01*
X89175D01*
X88519Y332148D01*
X84583Y331492D02*
X87207D01*
X84583Y334116D01*
Y334771D01*
X85239Y335427D01*
X86551D01*
X87207Y334771D01*
X83271Y331492D02*
X81959D01*
X82615D01*
Y335427D01*
X83271Y334771D01*
X79991D02*
X79335Y335427D01*
X78023D01*
X77367Y334771D01*
Y334116D01*
X78023Y333459D01*
X78679D01*
X78023D01*
X77367Y332804D01*
Y332148D01*
X78023Y331492D01*
X79335D01*
X79991Y332148D01*
D13*
X183598Y425834D02*
Y419836D01*
X186597D01*
X187597Y420835D01*
Y422835D01*
X186597Y423834D01*
X183598D01*
X185597D02*
X187597Y425834D01*
X193595D02*
X189596D01*
X193595Y421835D01*
Y420835D01*
X192595Y419836D01*
X190596D01*
X189596Y420835D01*
X195594Y425834D02*
X197593D01*
X196594D01*
Y419836D01*
X195594Y420835D01*
X200592Y424834D02*
X201592Y425834D01*
X203591D01*
X204591Y424834D01*
Y420835D01*
X203591Y419836D01*
X201592D01*
X200592Y420835D01*
Y421835D01*
X201592Y422835D01*
X204591D01*
X347961Y128688D02*
X341963Y124689D01*
X347961D02*
X341963Y128688D01*
Y122690D02*
X347961D01*
X345961Y120691D01*
X347961Y118692D01*
X341963D01*
X346961Y112693D02*
X347961Y113693D01*
Y115692D01*
X346961Y116692D01*
X342962D01*
X341963Y115692D01*
Y113693D01*
X342962Y112693D01*
X341963Y106695D02*
Y110694D01*
X345961Y106695D01*
X346961D01*
X347961Y107695D01*
Y109694D01*
X346961Y110694D01*
Y100697D02*
X347961Y101697D01*
Y103696D01*
X346961Y104696D01*
X342962D01*
X341963Y103696D01*
Y101697D01*
X342962Y100697D01*
X344962D01*
Y102697D01*
X347961Y95699D02*
Y97698D01*
X346961Y98698D01*
X342962D01*
X341963Y97698D01*
Y95699D01*
X342962Y94699D01*
X346961D01*
X347961Y95699D01*
X485526Y431133D02*
X486525Y432133D01*
X488525D01*
X489524Y431133D01*
Y427135D01*
X488525Y426135D01*
X486525D01*
X485526Y427135D01*
X479528Y432133D02*
X483526D01*
Y429134D01*
X481527Y430133D01*
X480527D01*
X479528Y429134D01*
Y427135D01*
X480527Y426135D01*
X482527D01*
X483526Y427135D01*
X473529Y432133D02*
X475529Y431133D01*
X477528Y429134D01*
Y427135D01*
X476529Y426135D01*
X474529D01*
X473529Y427135D01*
Y428134D01*
X474529Y429134D01*
X477528D01*
X471530Y426135D02*
X469531D01*
X470531D01*
Y432133D01*
X471530Y431133D01*
X444793Y428771D02*
X445793Y429771D01*
X447792D01*
X448792Y428771D01*
Y424772D01*
X447792Y423773D01*
X445793D01*
X444793Y424772D01*
X438795Y429771D02*
X442794D01*
Y426772D01*
X440794Y427771D01*
X439795D01*
X438795Y426772D01*
Y424772D01*
X439795Y423773D01*
X441794D01*
X442794Y424772D01*
X432797Y429771D02*
X434796Y428771D01*
X436796Y426772D01*
Y424772D01*
X435796Y423773D01*
X433797D01*
X432797Y424772D01*
Y425772D01*
X433797Y426772D01*
X436796D01*
X430797Y428771D02*
X429798Y429771D01*
X427799D01*
X426799Y428771D01*
Y424772D01*
X427799Y423773D01*
X429798D01*
X430797Y424772D01*
Y428771D01*
M02*
